<svg width="34" height="34" viewBox="0 0 34 34" fill="none" xmlns="http://www.w3.org/2000/svg">
<path fill-rule="evenodd" clip-rule="evenodd" d="M17 34C26.3888 34 34 26.3888 34 17C34 7.61116 26.3888 0 17 0C7.61116 0 0 7.61116 0 17C0 26.3888 7.61116 34 17 34Z" fill="#892734"/>
<path d="M19.2305 26.3047C18.9825 26.3047 18.7812 26.5059 18.7812 26.7539C18.7812 27.0019 18.9825 27.2031 19.2305 27.2031C19.4784 27.2031 19.6797 27.0019 19.6797 26.7539C19.6797 26.5059 19.4784 26.3047 19.2305 26.3047Z" fill="white"/>
<path d="M25.5195 8.06641H24.1719V7.34766C24.1719 6.60456 23.5673 6 22.8242 6H12.043C11.2999 6 10.6953 6.60456 10.6953 7.34766V8.06641H9.34766C8.60456 8.06641 8 8.67096 8 9.41406C8 12.3365 9.36751 14.4843 11.586 15.0822C12.3466 16.7562 13.549 18.1793 15.0753 19.2076C15.4268 19.4445 15.6367 19.85 15.6367 20.2923V22.7675C15.3288 22.8465 15.0463 23.0066 14.8155 23.2374C14.476 23.5769 14.2891 24.028 14.2891 24.5078H13.8398C13.0967 24.5078 12.4922 25.1124 12.4922 25.8555V28.5508C12.4922 28.7989 12.6933 29 12.9414 29H21.9258C22.1738 29 22.375 28.7989 22.375 28.5508V25.8555C22.375 25.1124 21.7704 24.5078 21.0273 24.5078H20.5781C20.5781 23.6721 20.0046 22.9678 19.2305 22.7678V20.2946C19.2305 19.8508 19.4405 19.4445 19.7924 19.2077C21.3188 18.1793 22.5212 16.7561 23.2817 15.0821C25.4999 14.4839 26.8672 12.3363 26.8672 9.41406C26.8672 8.67096 26.2626 8.06641 25.5195 8.06641ZM8.89844 9.41406C8.89844 9.16636 9.09996 8.96484 9.34766 8.96484H10.6953V10.9729C10.6953 11.9968 10.8504 12.9996 11.1567 13.9653C9.72711 13.2572 8.89844 11.6218 8.89844 9.41406ZM21.0273 25.4062C21.275 25.4062 21.4766 25.6078 21.4766 25.8555V28.1016H13.3906V25.8555C13.3906 25.6078 13.5921 25.4062 13.8398 25.4062H21.0273ZM23.2734 10.9729C23.2734 12.1999 23.0292 13.394 22.5472 14.5217C21.8617 16.1262 20.7355 17.4889 19.2905 18.4625C18.6903 18.8664 18.332 19.5514 18.332 20.2946V23.1602C18.332 23.4083 18.5332 23.6094 18.7812 23.6094C19.2766 23.6094 19.6797 24.0124 19.6797 24.5078H15.1875C15.1875 24.268 15.281 24.0425 15.4508 23.8727C15.6122 23.7112 15.8241 23.6188 16.0507 23.61C16.0624 23.6109 16.0741 23.6114 16.0859 23.6114C16.334 23.6114 16.5351 23.4083 16.5351 23.1602V20.2923C16.5351 19.5507 16.177 18.8667 15.5773 18.4625C14.1321 17.4889 13.0059 16.1262 12.3203 14.5216C11.8382 13.3943 11.5938 12.2003 11.5938 10.9729V7.34766C11.5938 7.09996 11.7953 6.89844 12.043 6.89844H22.8242C23.0719 6.89844 23.2734 7.09996 23.2734 7.34766V10.9729ZM23.7107 13.9652C24.0168 12.9993 24.1719 11.9966 24.1719 10.9729V8.96484H25.5195C25.7672 8.96484 25.9688 9.16636 25.9688 9.41406C25.9688 11.6217 25.1402 13.257 23.7107 13.9652Z" fill="white"/>
<path d="M20.9888 11.3076C20.936 11.1449 20.7954 11.0264 20.6261 11.0018L18.6875 10.7204L17.8204 8.96333C17.7447 8.80997 17.5885 8.71289 17.4175 8.71289C17.2465 8.71289 17.0903 8.80997 17.0146 8.96333L16.1475 10.7204L14.2089 11.0018C14.0396 11.0264 13.8991 11.145 13.8462 11.3076C13.7934 11.4702 13.8375 11.6488 13.9599 11.7681L15.363 13.1355L15.0318 15.0666C15.0029 15.2351 15.0722 15.4054 15.2106 15.506C15.3489 15.6065 15.5324 15.6197 15.6836 15.5402L17.4175 14.6286L19.1518 15.5402C19.3041 15.6202 19.4875 15.6058 19.6249 15.5059C19.7632 15.4054 19.8325 15.2351 19.8036 15.0665L19.472 13.1355L20.8751 11.7681C20.9976 11.6488 21.0416 11.4702 20.9888 11.3076ZM18.6758 12.6569C18.5699 12.7602 18.5215 12.9089 18.5466 13.0547L18.7641 14.3213L17.6265 13.7234C17.4956 13.6546 17.3392 13.6546 17.2085 13.7234L16.0713 14.3213L16.2885 13.0546C16.3135 12.9088 16.2652 12.7601 16.1593 12.6569L15.2391 11.7601L16.5104 11.5756C16.6568 11.5543 16.7833 11.4624 16.8487 11.3298L17.4175 10.1772L17.9863 11.3298C18.0518 11.4624 18.1783 11.5543 18.3247 11.5756L19.596 11.7601L18.6758 12.6569Z" fill="white"/>
<path d="M17.4336 26.3047H15.6367C15.3887 26.3047 15.1875 26.5058 15.1875 26.7539C15.1875 27.002 15.3887 27.2031 15.6367 27.2031H17.4336C17.6817 27.2031 17.8828 27.002 17.8828 26.7539C17.8828 26.5058 17.6817 26.3047 17.4336 26.3047Z" fill="white"/>
<path d="M24.3521 27.6527H24.6025C24.4749 27.6274 24.3891 27.6249 24.3521 27.6527Z" fill="white"/>
</svg>
