<svg width="47" height="47" viewBox="0 0 47 47" fill="none" xmlns="http://www.w3.org/2000/svg">
<path fill-rule="evenodd" clip-rule="evenodd" d="M20.3882 25.0689C16.1409 21.6738 9.94547 22.3645 6.55037 26.6118C3.15527 30.859 3.8461 37.0545 8.09325 40.4496C12.3405 43.8447 18.5359 43.154 21.9312 38.9067C24.8046 35.312 24.8046 30.2064 21.9312 26.6118L23.4837 25.059C27.7329 30.1603 27.0421 37.7402 21.941 41.9894C16.8396 46.2385 9.25969 45.5478 5.01063 40.4466C0.761428 35.3453 1.45226 27.7654 6.55337 23.5162C11.0107 19.8035 17.4837 19.8035 21.941 23.5162L20.3882 25.0689ZM17.2698 28.1874C14.7495 26.5194 11.3544 27.2101 9.68633 29.7303C8.01837 32.2504 8.70907 35.6456 11.2292 37.3136C13.7493 38.9817 17.1446 38.2909 18.8125 35.7707C20.0245 33.9396 20.0245 31.5613 18.8125 29.7303L20.3762 28.1688C22.9138 31.5597 22.222 36.3657 18.8311 38.9033C15.4404 41.4407 10.6343 40.7491 8.0968 37.3582C5.5592 33.9672 6.25099 29.1614 9.64173 26.6238C12.3658 24.5854 16.1072 24.5854 18.8311 26.6238L17.2698 28.1874ZM15.0373 33.5056L17.2118 31.3321C17.4254 31.7688 17.5374 32.2481 17.5392 32.7342C17.5392 34.5421 16.0736 36.0076 14.2657 36.0076C12.4578 36.0076 10.9923 34.5421 10.9923 32.7342C10.9923 30.9263 12.4578 29.4607 14.2657 29.4607C14.7518 29.4627 15.2311 29.5745 15.668 29.7881L13.4943 31.9617L15.0373 33.5056ZM25.0255 20.4315L23.4827 21.9733C17.5174 16.8607 8.53694 17.5519 3.42437 23.5173C-1.68806 29.4826 -0.996954 38.463 4.96835 43.5756C10.9338 48.6881 19.9141 47.9969 25.0268 42.0316C29.5921 36.7046 29.5921 28.8444 25.0268 23.5173L26.5686 21.9744L28.1113 20.4315L29.9937 18.5493H39.3621C39.6514 18.5493 39.9291 18.4341 40.1337 18.2295L46.6806 11.6827C47.1065 11.2564 47.1065 10.5656 46.6803 10.1395C46.4757 9.93504 46.1983 9.8202 45.909 9.82006H37.1798V1.09088C37.1797 0.488289 36.6911 -0.000136365 36.0884 2.85591e-08C35.7992 2.85591e-08 35.5218 0.11498 35.3172 0.319434L28.7703 6.86633C28.5658 7.07092 28.4506 7.34848 28.4506 7.63777V17.0064L26.5686 18.8886L25.0255 20.4315ZM30.6329 8.0895L34.9975 3.72491V10.4595L30.6329 14.8241V8.0895ZM36.5405 12.0024H43.2751L38.9105 16.367H32.176L36.5405 12.0024Z" fill="#C0AC7A"/>
</svg>
