<svg width="48" height="48" viewBox="0 0 48 48" fill="none" xmlns="http://www.w3.org/2000/svg">
<path d="M24.8 44.8C25.2418 44.8 25.6 44.4418 25.6 44C25.6 43.5582 25.2418 43.2 24.8 43.2C24.3582 43.2 24 43.5582 24 44C24 44.4418 24.3582 44.8 24.8 44.8Z" fill="#821517"/>
<path d="M28 44.8C28.4418 44.8 28.8 44.4418 28.8 44C28.8 43.5582 28.4418 43.2 28 43.2C27.5581 43.2 27.2 43.5582 27.2 44C27.2 44.4418 27.5581 44.8 28 44.8Z" fill="#821517"/>
<path d="M31.1999 44.8C31.6417 44.8 31.9999 44.4418 31.9999 44C31.9999 43.5582 31.6417 43.2 31.1999 43.2C30.7581 43.2 30.3999 43.5582 30.3999 44C30.3999 44.4418 30.7581 44.8 31.1999 44.8Z" fill="#821517"/>
<path d="M16 44.8H20.8C21.2418 44.8 21.6 44.4418 21.6 44C21.6 43.5582 21.2418 43.2 20.8 43.2H16C15.5581 43.2 15.2 43.5582 15.2 44C15.2 44.4418 15.5581 44.8 16 44.8Z" fill="#821517"/>
<path d="M24.8 38.4C25.2418 38.4 25.6 38.0418 25.6 37.6C25.6 37.1582 25.2418 36.8 24.8 36.8C24.3582 36.8 24 37.1582 24 37.6C24 38.0418 24.3582 38.4 24.8 38.4Z" fill="#821517"/>
<path d="M28 38.4C28.4418 38.4 28.8 38.0418 28.8 37.6C28.8 37.1582 28.4418 36.8 28 36.8C27.5581 36.8 27.2 37.1582 27.2 37.6C27.2 38.0418 27.5581 38.4 28 38.4Z" fill="#821517"/>
<path d="M31.1999 38.4C31.6417 38.4 31.9999 38.0418 31.9999 37.6C31.9999 37.1582 31.6417 36.8 31.1999 36.8C30.7581 36.8 30.3999 37.1582 30.3999 37.6C30.3999 38.0418 30.7581 38.4 31.1999 38.4Z" fill="#821517"/>
<path d="M16 36.8C15.5581 36.8 15.2 37.1582 15.2 37.6C15.2 38.0418 15.5581 38.4 16 38.4H20.8C21.2418 38.4 21.6 38.0418 21.6 37.6C21.6 37.1582 21.2418 36.8 20.8 36.8H16Z" fill="#821517"/>
<path d="M5.59995 19.2H3.99995C3.55812 19.2 3.19995 19.5582 3.19995 20C3.19995 20.4418 3.55812 20.8 3.99995 20.8H5.59995C6.04178 20.8 6.39995 20.4418 6.39995 20C6.39995 19.5582 6.04178 19.2 5.59995 19.2Z" fill="#821517"/>
<path d="M5.59995 22.4H3.99995C3.55812 22.4 3.19995 22.7582 3.19995 23.2C3.19995 23.6418 3.55812 24 3.99995 24H5.59995C6.04178 24 6.39995 23.6418 6.39995 23.2C6.39995 22.7582 6.04178 22.4 5.59995 22.4Z" fill="#821517"/>
<path fill-rule="evenodd" clip-rule="evenodd" d="M48 14.4C47.9801 11.0357 45.3588 8.26125 42.0011 8.05048C38.6433 7.83971 35.6957 10.2646 35.2552 13.6H32.8C32.3582 13.6 32 13.9582 32 14.4V22.5472C31.3225 22.7892 30.7892 23.3225 30.5472 24H27.1792C27.5429 23.529 27.7958 22.9821 27.9192 22.4H28.8C29.2418 22.4 29.6 22.0418 29.6 21.6C29.6 21.1582 29.2418 20.8 28.8 20.8H20C19.5582 20.8 19.2 20.4418 19.2 20C19.2 19.5582 19.5582 19.2 20 19.2H28C29.1675 19.2022 30.1665 18.362 30.3643 17.2113C30.5622 16.0607 29.9012 14.9351 28.8 14.5472V14.4C31.5548 12.3339 32.6784 8.73692 31.5895 5.47018C30.5006 2.20344 27.4434 1.44548e-07 24 1.44548e-07C22.7142 -0.00253952 21.4472 0.308585 20.3088 0.9064C20.051 1.03615 19.8831 1.29467 19.8694 1.58293C19.8557 1.87119 19.9983 2.1445 20.2425 2.29816C20.4868 2.45181 20.7949 2.46199 21.0488 2.3248C21.959 1.84701 22.972 1.59823 24 1.6C26.8184 1.60095 29.3045 3.44555 30.1224 6.14269C30.9403 8.83983 29.8976 11.7546 27.5544 13.3208C27.3328 13.4694 27.1999 13.7188 27.2 13.9856V14.4H25.8472L27.972 6.6104C28.0552 6.30595 27.9517 5.98104 27.7076 5.78089C27.4636 5.58075 27.1247 5.5428 26.8424 5.684L24 7.1056L21.1576 5.684C20.8753 5.5428 20.5364 5.58075 20.2924 5.78089C20.0483 5.98104 19.9448 6.30595 20.028 6.6104L22.1528 14.4H20.8V13.9856C20.7999 13.7186 20.6667 13.4692 20.4448 13.3208C18.9846 12.3475 17.9895 10.8159 17.6934 9.08618C17.3974 7.35644 17.8266 5.58112 18.88 4.1776C19.1451 3.82414 19.0735 3.3227 18.72 3.0576C18.3665 2.7925 17.8651 2.86414 17.6 3.2176C16.3283 4.91231 15.7824 7.04298 16.0825 9.14039C16.3826 11.2378 17.5041 13.1299 19.2 14.4V14.548C18.4436 14.8099 17.8697 15.4348 17.6731 16.2108C17.4765 16.9867 17.6836 17.8095 18.224 18.4C17.5848 19.1007 17.4205 20.1132 17.8054 20.9801C18.1903 21.847 19.0515 22.4042 20 22.4H20.08C20.2034 22.9821 20.4563 23.529 20.82 24H15.2V21.6C15.2 21.1582 14.8418 20.8 14.4 20.8H9.6V16.8C9.6 16.3582 9.24183 16 8.8 16H0.8C0.358172 16 0 16.3582 0 16.8V26.4C0 26.8418 0.358172 27.2 0.8 27.2H4V29.6C4 30.0418 4.35817 30.4 4.8 30.4H18.4V31.2C18.4 31.6418 18.7582 32 19.2 32H21.6V33.6H12.8C12.3582 33.6 12 33.9582 12 34.4V47.2C12 47.6418 12.3582 48 12.8 48H35.2C35.6418 48 36 47.6418 36 47.2V34.4C36 33.9582 35.6418 33.6 35.2 33.6H32.8C32.3582 33.6 32 33.9582 32 34.4C32 34.8418 32.3582 35.2 32.8 35.2H34.4V40H13.6V35.2H29.6C30.0418 35.2 30.4 34.8418 30.4 34.4C30.4 33.9582 30.0418 33.6 29.6 33.6H26.4V32H28.8C29.2418 32 29.6 31.6418 29.6 31.2V30.4H34.4C34.8418 30.4 35.2 30.0418 35.2 29.6C35.2 29.1582 34.8418 28.8 34.4 28.8H29.6V28C29.6 27.5582 29.2418 27.2 28.8 27.2H19.2C18.7582 27.2 18.4 27.5582 18.4 28V28.8H5.6V27.2H8.8C9.24183 27.2 9.6 26.8418 9.6 26.4V22.4H13.6V24.8C13.6 25.2418 13.9582 25.6 14.4 25.6H30.5472C30.9173 26.6532 31.9661 27.3109 33.0753 27.1854C34.1846 27.0599 35.0599 26.1846 35.1854 25.0753C35.3109 23.9661 34.6532 22.9173 33.6 22.5472V15.2H35.2552C35.6251 18.0998 37.9108 20.3815 40.8112 20.7464C40.8112 20.7555 40.8085 20.764 40.8057 20.7726C40.8029 20.7814 40.8 20.7903 40.8 20.8V27.3472C40.1225 27.5892 39.5892 28.1225 39.3472 28.8H37.6C37.1582 28.8 36.8 29.1582 36.8 29.6C36.8 30.0418 37.1582 30.4 37.6 30.4H39.3472C39.7173 31.4532 40.7661 32.1109 41.8753 31.9854C42.9846 31.8599 43.8599 30.9846 43.9854 29.8753C44.1109 28.7661 43.4532 27.7173 42.4 27.3472V20.8C42.4 20.7895 42.3971 20.78 42.3943 20.7704L42.3943 20.7704C42.3919 20.7626 42.3895 20.7547 42.3888 20.7464C45.5905 20.3459 47.9947 17.6267 48 14.4ZM22.0424 7.92L23.6424 8.72C23.8675 8.8325 24.1325 8.8325 24.3576 8.72L25.9576 7.92L24.1888 14.4H23.8112L22.0424 7.92ZM28.8 16.8C28.8 16.3582 28.4418 16 28 16H20C19.5582 16 19.2 16.3582 19.2 16.8C19.2 17.2418 19.5582 17.6 20 17.6H28C28.4418 17.6 28.8 17.2418 28.8 16.8ZM34.4 41.6V46.4H13.6V41.6H34.4ZM28 30.4V28.8H20V30.4H22.4C22.8418 30.4 23.2 30.7582 23.2 31.2V33.6H24.8V31.2C24.8 30.7582 25.1582 30.4 25.6 30.4H28ZM8 25.6H1.6V17.6H8V25.6ZM24 24.0013C25.0176 24.0013 25.9246 23.3596 26.2632 22.4H21.7368C22.0754 23.3596 22.9824 24.0013 24 24.0013ZM32.8 25.6C32.3582 25.6 32 25.2418 32 24.8C32 24.3582 32.3582 24 32.8 24C33.2418 24 33.6 24.3582 33.6 24.8C33.6 25.2418 33.2418 25.6 32.8 25.6ZM44.7736 13.6H46.328C46.0954 12.2393 45.2887 11.0444 44.1136 10.32C44.4998 11.3732 44.7224 12.4794 44.7736 13.6ZM41.6 19.2C41.0888 19.2 40.1992 17.6944 40.0344 15.2H43.1656C43.0008 17.6944 42.1112 19.2 41.6 19.2ZM41.6 9.6C41.0888 9.6 40.1992 11.1056 40.0344 13.6H43.1656C43.0008 11.1056 42.1112 9.6 41.6 9.6ZM39.0864 10.32C38.7002 11.3732 38.4776 12.4794 38.4264 13.6H36.872C37.1046 12.2393 37.9113 11.0444 39.0864 10.32ZM38.4264 15.2H36.872C37.1046 16.5607 37.9113 17.7556 39.0864 18.48C38.7002 17.4268 38.4776 16.3206 38.4264 15.2ZM41.6 30.4C41.1582 30.4 40.8 30.0418 40.8 29.6C40.8 29.1582 41.1582 28.8 41.6 28.8C42.0418 28.8 42.4 29.1582 42.4 29.6C42.4 30.0418 42.0418 30.4 41.6 30.4ZM44.7736 15.2C44.7224 16.3206 44.4998 17.4268 44.1136 18.48C45.2887 17.7556 46.0954 16.5607 46.328 15.2H44.7736Z" fill="#821517"/>
</svg>
