<svg width="85" height="85" viewBox="0 0 85 85" fill="none" xmlns="http://www.w3.org/2000/svg">
<g opacity="0.5">
<path fill-rule="evenodd" clip-rule="evenodd" d="M85 27.5586C85 30.5816 82.8624 33.1136 80.0195 33.7254V51.2746C82.8624 51.8865 85 54.4184 85 57.4414C85 63.544 77.0596 66.1395 73.5096 61.0333L34.2155 77.3633H51.2746C51.8864 74.5204 54.4183 72.3828 57.4412 72.3828C60.9198 72.3828 63.7498 75.2129 63.7498 78.6914C63.7498 82.1699 60.9198 85 57.4412 85C54.4184 85 51.8864 82.8624 51.2746 80.0195H33.7252C33.1135 82.8624 30.5816 85 27.5586 85C22.566 85 19.5817 79.4606 22.2418 75.3024L9.69747 62.7582C5.54077 65.4173 0 62.4355 0 57.4414C0 53.5038 3.5783 50.5284 7.44829 51.2379L11.0797 42.5L7.44846 33.7621C3.57183 34.473 0 31.4902 0 27.5586C0 22.566 5.53928 19.5819 9.69764 22.2418L22.2418 9.69747C19.5827 5.54077 22.5645 0 27.5586 0C32.5741 0 35.5436 5.57829 32.8562 9.72769L36.6423 13.5142L47.5919 8.96368C48.2694 8.68212 49.0465 9.00303 49.3281 9.68037C49.6096 10.3577 49.2887 11.135 48.6114 11.4166L38.6745 15.5462L48.2413 25.113L53.8616 11.4992C48.7659 7.9739 51.2897 0 57.4414 0C62.434 0 65.4181 5.53928 62.7582 9.69747L75.3025 22.2418C79.4592 19.5827 85 22.5645 85 27.5586ZM68.8093 30.2016L72.4854 28.6838C72.1872 27.0373 72.5538 25.42 73.4134 24.1091L61.2032 11.899L68.8093 30.2016ZM73.5009 31.1384C74.3989 32.4363 75.77 33.3824 77.3633 33.7254V50.7848L69.8287 32.6546L73.5009 31.1384ZM59.887 36.7587L74.8945 51.7662L67.3733 33.6681L59.887 36.7587ZM82.3438 27.5586C82.3438 29.5725 80.7053 31.2109 78.6914 31.2109C76.6775 31.2109 75.0391 29.5725 75.0391 27.5586C75.0391 25.5447 76.6775 23.9062 78.6914 23.9062C80.7053 23.9062 82.3438 25.5447 82.3438 27.5586ZM61.0938 6.30859C61.0938 4.29466 59.4553 2.65625 57.4414 2.65625C55.4275 2.65625 53.7891 4.29466 53.7891 6.30859C53.7891 8.32253 55.4275 9.96094 57.4414 9.96094C59.4553 9.96094 61.0938 8.32253 61.0938 6.30859ZM56.3162 12.5146C57.07 12.6511 57.8156 12.6524 58.5813 12.5119L66.354 31.2151L57.8531 34.7247L50.2753 27.1467L56.3162 12.5146ZM44.9471 40.0529L55.1941 35.8225L49.1775 29.8059L44.9471 40.0529ZM26.4189 12.5121C28.0268 12.8068 29.6418 12.4713 30.9777 11.6062L33.9885 14.617L23.7812 18.859L26.4189 12.5121ZM11.8992 23.797L20.304 20.304L23.797 11.899L11.8992 23.797ZM27.5586 2.65625C29.5725 2.65625 31.2109 4.29466 31.2109 6.30859C31.2109 8.32253 29.5725 9.96094 27.5586 9.96094C25.5447 9.96094 23.9062 8.32253 23.9062 6.30859C23.9062 4.29466 25.5447 2.65625 27.5586 2.65625ZM6.30859 23.9062C4.29466 23.9062 2.65625 25.5447 2.65625 27.5586C2.65625 29.5725 4.29466 31.2109 6.30859 31.2109C8.32253 31.2109 9.96094 29.5725 9.96094 27.5586C9.96094 25.5447 8.32253 23.9062 6.30859 23.9062ZM9.90051 32.7404C11.9203 31.3361 12.9653 28.8904 12.5121 26.4187L18.859 23.7811L12.5181 39.0391L9.90051 32.7404ZM15.1715 52.3456L12.5181 45.9609L9.90051 52.2596C10.5246 52.6934 11.0668 53.2366 11.4992 53.8616L15.1715 52.3456ZM12.5146 56.316L16.1907 54.7984L23.797 73.101L11.5866 60.8909C12.4444 59.5827 12.8133 57.966 12.5146 56.316ZM6.30859 53.7891C4.29466 53.7891 2.65625 55.4275 2.65625 57.4414C2.65625 59.4553 4.29466 61.0938 6.30859 61.0938C8.32253 61.0938 9.96094 59.4553 9.96094 57.4414C9.96094 55.4275 8.32253 53.7891 6.30859 53.7891ZM27.5586 82.3438C25.5447 82.3438 23.9062 80.7053 23.9062 78.6914C23.9062 76.6775 25.5447 75.0391 27.5586 75.0391C29.5725 75.0391 31.2109 76.6775 31.2109 78.6914C31.2109 80.7053 29.5725 82.3438 27.5586 82.3438ZM61.0938 78.6914C61.0938 76.6775 59.4553 75.0391 57.4414 75.0391C55.4275 75.0391 53.7891 76.6775 53.7891 78.6914C53.7891 80.7053 55.4275 82.3438 57.4414 82.3438C59.4553 82.3438 61.0938 80.7053 61.0938 78.6914ZM32.7406 75.0997C31.3389 73.0836 28.8955 72.0342 26.4189 72.4879L18.646 53.7847L23.8219 51.648C24.4999 51.3681 24.8227 50.5916 24.5428 49.9136C24.2629 49.2354 23.4862 48.913 22.8084 49.1928L17.6269 51.3319L13.9563 42.5L22.3361 22.3361L36.0206 16.649L47.1435 27.7719L41.4828 41.483L32.4531 45.2109C31.7751 45.4908 31.4523 46.2672 31.7322 46.9452C32.0135 47.6267 32.7919 47.9446 33.4666 47.6661L40.0526 44.9471L30.5778 67.8972C30.216 68.7731 30.864 69.7325 31.8049 69.7325C32.3267 69.7325 32.8216 69.4231 33.033 68.9109L43.5167 43.517L57.2277 37.8564L73.3935 54.0221C72.5294 55.3564 72.1924 56.9714 72.4876 58.5811L32.7406 75.0997ZM75.0391 57.4414C75.0391 59.4553 76.6775 61.0938 78.6914 61.0938C80.7053 61.0938 82.3438 59.4553 82.3438 57.4414C82.3438 55.4275 80.7053 53.7891 78.6914 53.7891C76.6775 53.7891 75.0391 55.4275 75.0391 57.4414Z" fill="white"/>
<path d="M27.5184 47.1668C26.6932 47.506 26.371 48.4037 26.6751 49.1491C26.9914 49.9238 27.8726 50.2923 28.6423 49.976C29.4676 49.6368 29.7897 48.7391 29.4857 47.9937C29.1699 47.2205 28.2892 46.8501 27.5184 47.1668Z" fill="white"/>
</g>
</svg>
