<svg width="28" height="28" viewBox="0 0 28 28" fill="none" xmlns="http://www.w3.org/2000/svg">
<path d="M14 28C21.732 28 28 21.732 28 14C28 6.26801 21.732 0 14 0C6.26801 0 0 6.26801 0 14C0 21.732 6.26801 28 14 28Z" fill="#F7931A"/>
<path fill-rule="evenodd" clip-rule="evenodd" d="M17.1687 9.19992C18.9218 9.79775 20.2016 10.6769 19.9737 12.365C19.7983 13.5959 19.1323 14.1933 18.2032 14.4045C19.4653 15.055 20.0965 16.0395 19.5178 17.7629C18.7989 19.9252 17.0285 20.119 14.6619 19.697L14.1184 22L12.7335 21.666L13.277 19.3979C13.1904 19.3762 13.1027 19.3545 13.0139 19.3325C12.7433 19.2654 12.4628 19.196 12.1725 19.1166L11.629 21.4022L10.2441 21.0682L10.7876 18.7648C10.6129 18.7161 10.4328 18.6729 10.2503 18.6291C10.1031 18.5937 9.95441 18.558 9.80561 18.5188L8 18.0969L8.66639 16.4967C8.66639 16.4967 9.70054 16.7606 9.68316 16.7431C10.0687 16.8307 10.2441 16.5847 10.314 16.4088L11.1558 12.7695C11.182 12.7782 11.204 12.7825 11.2259 12.7869C11.2478 12.7913 11.2697 12.7956 11.296 12.8043C11.2641 12.7831 11.232 12.7748 11.2039 12.7676C11.1858 12.7629 11.1694 12.7586 11.1558 12.7516L11.7692 10.1496C11.7866 9.86827 11.6815 9.49903 11.1206 9.35839C11.1558 9.34056 10.1212 9.11237 10.1212 9.11237L10.472 7.63542L12.3827 8.09221C12.5318 8.12747 12.6808 8.15827 12.8298 8.18908C12.9789 8.21988 13.1279 8.25068 13.277 8.28594L13.8205 6L15.2228 6.33398L14.6971 8.56723C15.0652 8.63735 15.4334 8.7253 15.8015 8.81325L15.8015 8.81325L16.3273 6.5804L17.7122 6.91438L17.1687 9.19992ZM17.239 12.365C16.8979 13.8151 14.7953 13.272 13.861 13.0307C13.7871 13.0116 13.7204 12.9944 13.6625 12.9802L14.3289 10.2022C14.4138 10.2235 14.5199 10.2465 14.641 10.2728C15.6205 10.4849 17.5821 10.9099 17.239 12.365ZM16.8531 16.8485C16.4797 18.4451 13.9531 17.7923 12.8452 17.5061C12.7575 17.4835 12.6787 17.4631 12.6106 17.4463L13.3295 14.3871C13.428 14.4109 13.5488 14.4367 13.6855 14.4661C14.863 14.7185 17.23 15.2261 16.8531 16.8485Z" fill="white"/>
</svg>
