<?xml version="1.0" encoding="UTF-8"?>
<svg width="38px" height="38px" viewBox="0 0 38 38" version="1.1" xmlns="http://www.w3.org/2000/svg" xmlns:xlink="http://www.w3.org/1999/xlink">
    <title>Group 21</title>
    <g id="Page-1" stroke="none" stroke-width="1" fill="none" fill-rule="evenodd">
        <g id="dc_05-copy-2" transform="translate(-1046.000000, -2660.000000)" fill="#821517" fill-rule="nonzero">
            <g id="Group-21" transform="translate(1046.000000, 2660.000000)">
                <path d="M34.8333333,2.53333333 L31.0333333,2.53333333 L31.0333333,1.9 C31.0333333,0.850658975 30.1826744,0 29.1333333,0 C28.0839923,0 27.2333333,0.850658975 27.2333333,1.9 L27.2333333,2.53333333 L20.9,2.53333333 L20.9,1.9 C20.9,0.850658975 20.049341,0 19,0 C17.950659,0 17.1,0.850658975 17.1,1.9 L17.1,2.53333333 L10.7666667,2.53333333 L10.7666667,1.9 C10.7666667,0.850658975 9.91600769,0 8.86666667,0 C7.81732564,0 6.96666667,0.850658975 6.96666667,1.9 L6.96666667,2.53333333 L3.16666667,2.53333333 C1.41857883,2.53529662 0.00196328763,3.95191216 0,5.7 L0,34.8333333 C0.00196328763,36.5814212 1.41857883,37.9980367 3.16666667,38 L34.8333333,38 C36.5814212,37.9980367 37.9980367,36.5814212 38,34.8333333 L38,5.7 C37.9980367,3.95191216 36.5814212,2.53529662 34.8333333,2.53333333 L34.8333333,2.53333333 Z M28.5,1.9 C28.5,1.55021966 28.783553,1.26666667 29.1333333,1.26666667 C29.4831137,1.26666667 29.7666667,1.55021966 29.7666667,1.9 L29.7666667,5.7 C29.7666667,6.04978034 29.4831137,6.33333333 29.1333333,6.33333333 C28.783553,6.33333333 28.5,6.04978034 28.5,5.7 L28.5,1.9 Z M18.3666667,1.9 C18.3666667,1.55021966 18.6502197,1.26666667 19,1.26666667 C19.3497803,1.26666667 19.6333333,1.55021966 19.6333333,1.9 L19.6333333,5.7 C19.6333333,6.04978034 19.3497803,6.33333333 19,6.33333333 C18.6502197,6.33333333 18.3666667,6.04978034 18.3666667,5.7 L18.3666667,1.9 Z M8.23333333,1.9 C8.23333333,1.55021966 8.51688633,1.26666667 8.86666667,1.26666667 C9.21644701,1.26666667 9.5,1.55021966 9.5,1.9 L9.5,5.7 C9.5,6.04978034 9.21644701,6.33333333 8.86666667,6.33333333 C8.51688633,6.33333333 8.23333333,6.04978034 8.23333333,5.7 L8.23333333,1.9 Z M3.16666667,3.8 L6.96666667,3.8 L6.96666667,5.7 C6.96666667,6.74934102 7.81732564,7.6 8.86666667,7.6 C9.91600769,7.6 10.7666667,6.74934102 10.7666667,5.7 L10.7666667,3.8 L17.1,3.8 L17.1,5.7 C17.1,6.74934102 17.950659,7.6 19,7.6 C20.049341,7.6 20.9,6.74934102 20.9,5.7 L20.9,3.8 L27.2333333,3.8 L27.2333333,5.7 C27.2333333,6.74934102 28.0839923,7.6 29.1333333,7.6 C30.1826744,7.6 31.0333333,6.74934102 31.0333333,5.7 L31.0333333,3.8 L34.8333333,3.8 C35.882168,3.8012215 36.7321118,4.65116536 36.7333333,5.7 L36.7333333,10.1333333 L1.26666667,10.1333333 L1.26666667,5.7 C1.26788817,4.65116536 2.11783202,3.8012215 3.16666667,3.8 Z M34.8333333,36.7333333 L3.16666667,36.7333333 C2.11783202,36.7321118 1.26788817,35.882168 1.26666667,34.8333333 L1.26666667,11.4 L36.7333333,11.4 L36.7333333,34.8333333 C36.7321118,35.882168 35.882168,36.7321118 34.8333333,36.7333333 L34.8333333,36.7333333 Z" id="Shape"></path>
                <path d="M33.5666667,15.8333333 L31.0333333,15.8333333 C30.683553,15.8333333 30.4,16.1168863 30.4,16.4666667 L30.4,19 C30.4,19.3497803 30.683553,19.6333333 31.0333333,19.6333333 L33.5666667,19.6333333 C33.916447,19.6333333 34.2,19.3497803 34.2,19 L34.2,16.4666667 C34.2,16.1168863 33.916447,15.8333333 33.5666667,15.8333333 Z M32.9333333,18.3666667 L31.6666667,18.3666667 L31.6666667,17.1 L32.9333333,17.1 L32.9333333,18.3666667 Z" id="Shape"></path>
                <path d="M20.9,28.5 L18.3666667,28.5 C18.0168863,28.5 17.7333333,28.783553 17.7333333,29.1333333 L17.7333333,31.6666667 C17.7333333,32.016447 18.0168863,32.3 18.3666667,32.3 L20.9,32.3 C21.2497803,32.3 21.5333333,32.016447 21.5333333,31.6666667 L21.5333333,29.1333333 C21.5333333,28.783553 21.2497803,28.5 20.9,28.5 Z M20.2666667,31.0333333 L19,31.0333333 L19,29.7666667 L20.2666667,29.7666667 L20.2666667,31.0333333 Z" id="Shape"></path>
                <path d="M14.5666667,15.8333333 L12.0333333,15.8333333 C11.683553,15.8333333 11.4,16.1168863 11.4,16.4666667 L11.4,19 C11.4,19.3497803 11.683553,19.6333333 12.0333333,19.6333333 L14.5666667,19.6333333 C14.916447,19.6333333 15.2,19.3497803 15.2,19 L15.2,16.4666667 C15.2,16.1168863 14.916447,15.8333333 14.5666667,15.8333333 Z M13.9333333,18.3666667 L12.6666667,18.3666667 L12.6666667,17.1 L13.9333333,17.1 L13.9333333,18.3666667 Z" id="Shape"></path>
                <path d="M8.23333333,22.1666667 L5.7,22.1666667 C5.35021966,22.1666667 5.06666667,22.4502197 5.06666667,22.8 L5.06666667,25.3333333 C5.06666667,25.6831137 5.35021966,25.9666667 5.7,25.9666667 L8.23333333,25.9666667 C8.58311367,25.9666667 8.86666667,25.6831137 8.86666667,25.3333333 L8.86666667,22.8 C8.86666667,22.4502197 8.58311367,22.1666667 8.23333333,22.1666667 Z M7.6,24.7 L6.33333333,24.7 L6.33333333,23.4333333 L7.6,23.4333333 L7.6,24.7 Z" id="Shape"></path>
                <path d="M14.5666667,22.1666667 L12.0333333,22.1666667 C11.683553,22.1666667 11.4,22.4502197 11.4,22.8 L11.4,25.3333333 C11.4,25.6831137 11.683553,25.9666667 12.0333333,25.9666667 L14.5666667,25.9666667 C14.916447,25.9666667 15.2,25.6831137 15.2,25.3333333 L15.2,22.8 C15.2,22.4502197 14.916447,22.1666667 14.5666667,22.1666667 Z M13.9333333,24.7 L12.6666667,24.7 L12.6666667,23.4333333 L13.9333333,23.4333333 L13.9333333,24.7 Z" id="Shape"></path>
                <path d="M8.23333333,28.5 L5.7,28.5 C5.35021966,28.5 5.06666667,28.783553 5.06666667,29.1333333 L5.06666667,31.6666667 C5.06666667,32.016447 5.35021966,32.3 5.7,32.3 L8.23333333,32.3 C8.58311367,32.3 8.86666667,32.016447 8.86666667,31.6666667 L8.86666667,29.1333333 C8.86666667,28.783553 8.58311367,28.5 8.23333333,28.5 Z M7.6,31.0333333 L6.33333333,31.0333333 L6.33333333,29.7666667 L7.6,29.7666667 L7.6,31.0333333 Z" id="Shape"></path>
                <path d="M14.5666667,28.5 L12.0333333,28.5 C11.683553,28.5 11.4,28.783553 11.4,29.1333333 L11.4,31.6666667 C11.4,32.016447 11.683553,32.3 12.0333333,32.3 L14.5666667,32.3 C14.916447,32.3 15.2,32.016447 15.2,31.6666667 L15.2,29.1333333 C15.2,28.783553 14.916447,28.5 14.5666667,28.5 Z M13.9333333,31.0333333 L12.6666667,31.0333333 L12.6666667,29.7666667 L13.9333333,29.7666667 L13.9333333,31.0333333 Z" id="Shape"></path>
                <path d="M27.9623,18.4444875 L24.7956333,17.9606208 L23.373325,14.9308333 C23.268991,14.7085388 23.0455615,14.5665902 22.8,14.5665902 C22.5544385,14.5665902 22.331009,14.7085388 22.226675,14.9308333 L20.805,17.9606208 L17.6383333,18.4444875 C17.4035106,18.4802311 17.2084295,18.6443626 17.1330464,18.8696108 C17.0576634,19.0948589 17.1146534,19.3433503 17.2806583,19.5132375 L19.5908208,21.880875 L19.0445708,25.2316833 C19.0060141,25.4706805 19.1070724,25.7107497 19.304947,25.8502199 C19.5028216,25.98969 19.762892,26.0041594 19.9750167,25.8875 L22.8,24.3260167 L25.6249833,25.8875 C25.8372406,26.0048315 26.0978636,25.9906453 26.2961314,25.8509682 C26.4943992,25.711291 26.5954904,25.470654 26.5564583,25.2312875 L26.0102083,21.8804792 L28.3203708,19.5128417 C28.4863758,19.3429544 28.5433658,19.0944631 28.4679827,18.8692149 C28.3925997,18.6439668 28.1975186,18.4798353 27.9626958,18.4440917 L27.9623,18.4444875 Z M24.880025,21.2245833 C24.7396271,21.3684608 24.6758727,21.5704478 24.7082333,21.7688542 L25.09615,24.1478917 L23.1062167,23.047475 C22.9155594,22.9420936 22.684124,22.9420936 22.4934667,23.047475 L20.5035333,24.1478917 L20.89145,21.7688542 C20.9238106,21.5704478 20.8600562,21.3684608 20.7196583,21.2245833 L19.0475,19.5104667 L21.3301125,19.1621333 C21.5388745,19.1302188 21.7179935,18.9963471 21.807725,18.8051708 L22.8,16.69055 L23.7923542,18.804775 C23.8820857,18.9959512 24.0612047,19.1298229 24.2699667,19.1617375 L26.5525792,19.5100708 L24.880025,21.2245833 Z" id="Shape"></path>
                <path d="M33.5666667,22.1666667 L31.0333333,22.1666667 C30.683553,22.1666667 30.4,22.4502197 30.4,22.8 L30.4,25.3333333 C30.4,25.6831137 30.683553,25.9666667 31.0333333,25.9666667 L33.5666667,25.9666667 C33.916447,25.9666667 34.2,25.6831137 34.2,25.3333333 L34.2,22.8 C34.2,22.4502197 33.916447,22.1666667 33.5666667,22.1666667 Z M32.9333333,24.7 L31.6666667,24.7 L31.6666667,23.4333333 L32.9333333,23.4333333 L32.9333333,24.7 Z" id="Shape"></path>
                <path d="M33.5666667,28.5 L31.0333333,28.5 C30.683553,28.5 30.4,28.783553 30.4,29.1333333 L30.4,31.6666667 C30.4,32.016447 30.683553,32.3 31.0333333,32.3 L33.5666667,32.3 C33.916447,32.3 34.2,32.016447 34.2,31.6666667 L34.2,29.1333333 C34.2,28.783553 33.916447,28.5 33.5666667,28.5 Z M32.9333333,31.0333333 L31.6666667,31.0333333 L31.6666667,29.7666667 L32.9333333,29.7666667 L32.9333333,31.0333333 Z" id="Shape"></path>
                <path d="M27.2333333,28.5 L24.7,28.5 C24.3502197,28.5 24.0666667,28.783553 24.0666667,29.1333333 L24.0666667,31.6666667 C24.0666667,32.016447 24.3502197,32.3 24.7,32.3 L27.2333333,32.3 C27.5831137,32.3 27.8666667,32.016447 27.8666667,31.6666667 L27.8666667,29.1333333 C27.8666667,28.783553 27.5831137,28.5 27.2333333,28.5 Z M26.6,31.0333333 L25.3333333,31.0333333 L25.3333333,29.7666667 L26.6,29.7666667 L26.6,31.0333333 Z" id="Shape"></path>
            </g>
        </g>
    </g>
</svg>