<?xml version="1.0" encoding="UTF-8"?>
<svg width="38px" height="38px" viewBox="0 0 38 38" version="1.1" xmlns="http://www.w3.org/2000/svg" xmlns:xlink="http://www.w3.org/1999/xlink">
    <title>Group 24</title>
    <g id="Page-1" stroke="none" stroke-width="1" fill="none" fill-rule="evenodd">
        <g id="dc_05-copy-2" transform="translate(-746.000000, -2660.000000)" fill="#821517" fill-rule="nonzero">
            <g id="Group-24" transform="translate(746.000000, 2660.000000)">
                <path d="M34.8333333,2.53333333 L31.0333333,2.53333333 L31.0333333,1.9 C31.0333333,0.850658975 30.1826744,0 29.1333333,0 C28.0839923,0 27.2333333,0.850658975 27.2333333,1.9 L27.2333333,2.53333333 L20.9,2.53333333 L20.9,1.9 C20.9,0.850658975 20.049341,0 19,0 C17.950659,0 17.1,0.850658975 17.1,1.9 L17.1,2.53333333 L10.7666667,2.53333333 L10.7666667,1.9 C10.7666667,0.850658975 9.91600769,0 8.86666667,0 C7.81732564,0 6.96666667,0.850658975 6.96666667,1.9 L6.96666667,2.53333333 L3.16666667,2.53333333 C1.41857883,2.53529662 0.00196328763,3.95191216 0,5.7 L0,34.8333333 C0.00196328763,36.5814212 1.41857883,37.9980367 3.16666667,38 L34.8333333,38 C36.5814212,37.9980367 37.9980367,36.5814212 38,34.8333333 L38,5.7 C37.9980367,3.95191216 36.5814212,2.53529662 34.8333333,2.53333333 L34.8333333,2.53333333 Z M28.5,1.9 C28.5,1.55021966 28.783553,1.26666667 29.1333333,1.26666667 C29.4831137,1.26666667 29.7666667,1.55021966 29.7666667,1.9 L29.7666667,5.7 C29.7666667,6.04978034 29.4831137,6.33333333 29.1333333,6.33333333 C28.783553,6.33333333 28.5,6.04978034 28.5,5.7 L28.5,1.9 Z M18.3666667,1.9 C18.3666667,1.55021966 18.6502197,1.26666667 19,1.26666667 C19.3497803,1.26666667 19.6333333,1.55021966 19.6333333,1.9 L19.6333333,5.7 C19.6333333,6.04978034 19.3497803,6.33333333 19,6.33333333 C18.6502197,6.33333333 18.3666667,6.04978034 18.3666667,5.7 L18.3666667,1.9 Z M8.23333333,1.9 C8.23333333,1.55021966 8.51688633,1.26666667 8.86666667,1.26666667 C9.21644701,1.26666667 9.5,1.55021966 9.5,1.9 L9.5,5.7 C9.5,6.04978034 9.21644701,6.33333333 8.86666667,6.33333333 C8.51688633,6.33333333 8.23333333,6.04978034 8.23333333,5.7 L8.23333333,1.9 Z M3.16666667,3.8 L6.96666667,3.8 L6.96666667,5.7 C6.96666667,6.74934102 7.81732564,7.6 8.86666667,7.6 C9.91600769,7.6 10.7666667,6.74934102 10.7666667,5.7 L10.7666667,3.8 L17.1,3.8 L17.1,5.7 C17.1,6.74934102 17.950659,7.6 19,7.6 C20.049341,7.6 20.9,6.74934102 20.9,5.7 L20.9,3.8 L27.2333333,3.8 L27.2333333,5.7 C27.2333333,6.74934102 28.0839923,7.6 29.1333333,7.6 C30.1826744,7.6 31.0333333,6.74934102 31.0333333,5.7 L31.0333333,3.8 L34.8333333,3.8 C35.882168,3.8012215 36.7321118,4.65116536 36.7333333,5.7 L36.7333333,10.1333333 L1.26666667,10.1333333 L1.26666667,5.7 C1.26788817,4.65116536 2.11783202,3.8012215 3.16666667,3.8 Z M34.8333333,36.7333333 L3.16666667,36.7333333 C2.11783202,36.7321118 1.26788817,35.882168 1.26666667,34.8333333 L1.26666667,11.4 L36.7333333,11.4 L36.7333333,34.8333333 C36.7321118,35.882168 35.882168,36.7321118 34.8333333,36.7333333 L34.8333333,36.7333333 Z" id="Shape"></path>
                <path d="M27.1666667,15.8333333 L24.6333333,15.8333333 C24.283553,15.8333333 24,16.1168863 24,16.4666667 L24,19 C24,19.3497803 24.283553,19.6333333 24.6333333,19.6333333 L27.1666667,19.6333333 C27.516447,19.6333333 27.8,19.3497803 27.8,19 L27.8,16.4666667 C27.8,16.1168863 27.516447,15.8333333 27.1666667,15.8333333 Z M26.5333333,18.3666667 L25.2666667,18.3666667 L25.2666667,17.1 L26.5333333,17.1 L26.5333333,18.3666667 Z" id="Shape"></path>
                <path d="M21.1666667,15.8333333 L18.6333333,15.8333333 C18.283553,15.8333333 18,16.1168863 18,16.4666667 L18,19 C18,19.3497803 18.283553,19.6333333 18.6333333,19.6333333 L21.1666667,19.6333333 C21.516447,19.6333333 21.8,19.3497803 21.8,19 L21.8,16.4666667 C21.8,16.1168863 21.516447,15.8333333 21.1666667,15.8333333 Z M20.5333333,18.3666667 L19.2666667,18.3666667 L19.2666667,17.1 L20.5333333,17.1 L20.5333333,18.3666667 Z" id="Shape-Copy"></path>
                <path d="M35.0979544,16.7436495 L33.3201814,16.4720057 L32.5216947,14.771077 C32.4631214,14.6462805 32.3376876,14.5665902 32.1998289,14.5665902 C32.0619702,14.5665902 31.9365364,14.6462805 31.8779631,14.771077 L31.0798319,16.4720057 L29.302059,16.7436495 C29.1702291,16.763716 29.0607101,16.8558598 29.0183899,16.9823145 C28.9760697,17.1087692 29.008064,17.2482728 29.1012595,17.3436478 L30.3981894,18.6728442 L30.0915235,20.5539947 C30.0698777,20.6881681 30.126612,20.8229435 30.2376992,20.9012423 C30.3487864,20.9795411 30.4947905,20.9876642 30.6138777,20.9221714 L32.1998289,20.0455516 L33.7857802,20.9221714 C33.9049418,20.9880416 34.0512561,20.9800774 34.162564,20.9016624 C34.2738719,20.8232474 34.3306248,20.6881533 34.3087121,20.5537724 L34.0020462,18.672622 L35.298976,17.3434256 C35.3921716,17.2480506 35.4241658,17.108547 35.3818457,16.9820923 C35.3395255,16.8556375 35.2300065,16.7634938 35.0981766,16.7434272 L35.0979544,16.7436495 Z M33.3675591,18.3044008 C33.2887394,18.3851739 33.2529476,18.4985698 33.2711149,18.6099555 L33.4888921,19.9455519 L32.3717396,19.3277758 C32.2647042,19.2686144 32.1347759,19.2686144 32.0277405,19.3277758 L30.910588,19.9455519 L31.1283652,18.6099555 C31.1465325,18.4985698 31.1107406,18.3851739 31.031921,18.3044008 L30.093168,17.3420923 L31.3746311,17.1465372 C31.4918305,17.1286203 31.5923883,17.0534645 31.6427638,16.9461378 L32.1998289,15.7589855 L32.7569385,16.9459156 C32.8073139,17.0532423 32.9078717,17.1283981 33.0250711,17.146315 L34.3065343,17.3418701 L33.3675591,18.3044008 Z" id="Shape"></path>
                <path d="M20.9,28.5 L18.3666667,28.5 C18.0168863,28.5 17.7333333,28.783553 17.7333333,29.1333333 L17.7333333,31.6666667 C17.7333333,32.016447 18.0168863,32.3 18.3666667,32.3 L20.9,32.3 C21.2497803,32.3 21.5333333,32.016447 21.5333333,31.6666667 L21.5333333,29.1333333 C21.5333333,28.783553 21.2497803,28.5 20.9,28.5 Z M20.2666667,31.0333333 L19,31.0333333 L19,29.7666667 L20.2666667,29.7666667 L20.2666667,31.0333333 Z" id="Shape"></path>
                <path d="M14.5666667,15.8333333 L12.0333333,15.8333333 C11.683553,15.8333333 11.4,16.1168863 11.4,16.4666667 L11.4,19 C11.4,19.3497803 11.683553,19.6333333 12.0333333,19.6333333 L14.5666667,19.6333333 C14.916447,19.6333333 15.2,19.3497803 15.2,19 L15.2,16.4666667 C15.2,16.1168863 14.916447,15.8333333 14.5666667,15.8333333 Z M13.9333333,18.3666667 L12.6666667,18.3666667 L12.6666667,17.1 L13.9333333,17.1 L13.9333333,18.3666667 Z" id="Shape"></path>
                <path d="M8.23333333,22.1666667 L5.7,22.1666667 C5.35021966,22.1666667 5.06666667,22.4502197 5.06666667,22.8 L5.06666667,25.3333333 C5.06666667,25.6831137 5.35021966,25.9666667 5.7,25.9666667 L8.23333333,25.9666667 C8.58311367,25.9666667 8.86666667,25.6831137 8.86666667,25.3333333 L8.86666667,22.8 C8.86666667,22.4502197 8.58311367,22.1666667 8.23333333,22.1666667 Z M7.6,24.7 L6.33333333,24.7 L6.33333333,23.4333333 L7.6,23.4333333 L7.6,24.7 Z" id="Shape"></path>
                <path d="M14.5666667,22.1666667 L12.0333333,22.1666667 C11.683553,22.1666667 11.4,22.4502197 11.4,22.8 L11.4,25.3333333 C11.4,25.6831137 11.683553,25.9666667 12.0333333,25.9666667 L14.5666667,25.9666667 C14.916447,25.9666667 15.2,25.6831137 15.2,25.3333333 L15.2,22.8 C15.2,22.4502197 14.916447,22.1666667 14.5666667,22.1666667 Z M13.9333333,24.7 L12.6666667,24.7 L12.6666667,23.4333333 L13.9333333,23.4333333 L13.9333333,24.7 Z" id="Shape"></path>
                <path d="M8.23333333,28.5 L5.7,28.5 C5.35021966,28.5 5.06666667,28.783553 5.06666667,29.1333333 L5.06666667,31.6666667 C5.06666667,32.016447 5.35021966,32.3 5.7,32.3 L8.23333333,32.3 C8.58311367,32.3 8.86666667,32.016447 8.86666667,31.6666667 L8.86666667,29.1333333 C8.86666667,28.783553 8.58311367,28.5 8.23333333,28.5 Z M7.6,31.0333333 L6.33333333,31.0333333 L6.33333333,29.7666667 L7.6,29.7666667 L7.6,31.0333333 Z" id="Shape"></path>
                <path d="M14.5666667,28.5 L12.0333333,28.5 C11.683553,28.5 11.4,28.783553 11.4,29.1333333 L11.4,31.6666667 C11.4,32.016447 11.683553,32.3 12.0333333,32.3 L14.5666667,32.3 C14.916447,32.3 15.2,32.016447 15.2,31.6666667 L15.2,29.1333333 C15.2,28.783553 14.916447,28.5 14.5666667,28.5 Z M13.9333333,31.0333333 L12.6666667,31.0333333 L12.6666667,29.7666667 L13.9333333,29.7666667 L13.9333333,31.0333333 Z" id="Shape"></path>
                <path d="M33.5666667,22.1666667 L31.0333333,22.1666667 C30.683553,22.1666667 30.4,22.4502197 30.4,22.8 L30.4,25.3333333 C30.4,25.6831137 30.683553,25.9666667 31.0333333,25.9666667 L33.5666667,25.9666667 C33.916447,25.9666667 34.2,25.6831137 34.2,25.3333333 L34.2,22.8 C34.2,22.4502197 33.916447,22.1666667 33.5666667,22.1666667 Z M32.9333333,24.7 L31.6666667,24.7 L31.6666667,23.4333333 L32.9333333,23.4333333 L32.9333333,24.7 Z" id="Shape"></path>
                <path d="M27.1666667,22.1666667 L24.6333333,22.1666667 C24.283553,22.1666667 24,22.4502197 24,22.8 L24,25.3333333 C24,25.6831137 24.283553,25.9666667 24.6333333,25.9666667 L27.1666667,25.9666667 C27.516447,25.9666667 27.8,25.6831137 27.8,25.3333333 L27.8,22.8 C27.8,22.4502197 27.516447,22.1666667 27.1666667,22.1666667 Z M26.5333333,24.7 L25.2666667,24.7 L25.2666667,23.4333333 L26.5333333,23.4333333 L26.5333333,24.7 Z" id="Shape-Copy-2"></path>
                <path d="M21.1666667,22.1666667 L18.6333333,22.1666667 C18.283553,22.1666667 18,22.4502197 18,22.8 L18,25.3333333 C18,25.6831137 18.283553,25.9666667 18.6333333,25.9666667 L21.1666667,25.9666667 C21.516447,25.9666667 21.8,25.6831137 21.8,25.3333333 L21.8,22.8 C21.8,22.4502197 21.516447,22.1666667 21.1666667,22.1666667 Z M20.5333333,24.7 L19.2666667,24.7 L19.2666667,23.4333333 L20.5333333,23.4333333 L20.5333333,24.7 Z" id="Shape-Copy-3"></path>
                <path d="M10.0979544,16.7436495 L8.32018142,16.4720057 L7.5216947,14.771077 C7.46312139,14.6462805 7.3376876,14.5665902 7.19982891,14.5665902 C7.06197022,14.5665902 6.93653642,14.6462805 6.87796312,14.771077 L6.07983195,16.4720057 L4.302059,16.7436495 C4.17022905,16.763716 4.06071012,16.8558598 4.01838993,16.9823145 C3.97606975,17.1087692 4.00806404,17.2482728 4.10125954,17.3436478 L5.39818936,18.6728442 L5.09152352,20.5539947 C5.06987767,20.6881681 5.12661204,20.8229435 5.23769921,20.9012423 C5.34878639,20.9795411 5.49479046,20.9876642 5.61387766,20.9221714 L7.19982891,20.0455516 L8.78578016,20.9221714 C8.9049418,20.9880416 9.05125607,20.9800774 9.162564,20.9016624 C9.27387192,20.8232474 9.33062475,20.6881533 9.30871207,20.5537724 L9.00204624,18.672622 L10.298976,17.3434256 C10.3921716,17.2480506 10.4241658,17.108547 10.3818457,16.9820923 C10.3395255,16.8556375 10.2300065,16.7634938 10.0981766,16.7434272 L10.0979544,16.7436495 Z M8.36755907,18.3044008 C8.28873943,18.3851739 8.25294756,18.4985698 8.27111489,18.6099555 L8.48889207,19.9455519 L7.37173955,19.3277758 C7.26470417,19.2686144 7.13477587,19.2686144 7.02774049,19.3277758 L5.91058796,19.9455519 L6.12836515,18.6099555 C6.14653248,18.4985698 6.11074061,18.3851739 6.03192097,18.3044008 L5.09316796,17.3420923 L6.37463115,17.1465372 C6.49183052,17.1286203 6.59238832,17.0534645 6.64276375,16.9461378 L7.19982891,15.7589855 L7.75693851,16.9459156 C7.80731394,17.0532423 7.90787174,17.1283981 8.02507111,17.146315 L9.3065343,17.3418701 L8.36755907,18.3044008 Z" id="Shape"></path>
                <path d="M33.5666667,28.5 L31.0333333,28.5 C30.683553,28.5 30.4,28.783553 30.4,29.1333333 L30.4,31.6666667 C30.4,32.016447 30.683553,32.3 31.0333333,32.3 L33.5666667,32.3 C33.916447,32.3 34.2,32.016447 34.2,31.6666667 L34.2,29.1333333 C34.2,28.783553 33.916447,28.5 33.5666667,28.5 Z M32.9333333,31.0333333 L31.6666667,31.0333333 L31.6666667,29.7666667 L32.9333333,29.7666667 L32.9333333,31.0333333 Z" id="Shape"></path>
                <path d="M27.2333333,28.5 L24.7,28.5 C24.3502197,28.5 24.0666667,28.783553 24.0666667,29.1333333 L24.0666667,31.6666667 C24.0666667,32.016447 24.3502197,32.3 24.7,32.3 L27.2333333,32.3 C27.5831137,32.3 27.8666667,32.016447 27.8666667,31.6666667 L27.8666667,29.1333333 C27.8666667,28.783553 27.5831137,28.5 27.2333333,28.5 Z M26.6,31.0333333 L25.3333333,31.0333333 L25.3333333,29.7666667 L26.6,29.7666667 L26.6,31.0333333 Z" id="Shape"></path>
            </g>
        </g>
    </g>
</svg>