<svg width="30" height="30" viewBox="0 0 30 30" fill="none" xmlns="http://www.w3.org/2000/svg">
<path d="M29.2037 10.2961L19.7041 0.796641C19.1913 0.283887 18.5074 0.00146484 17.7784 0.00146484C17.0494 0.00146484 16.3655 0.28377 15.8527 0.796523L0.795176 15.8541C0.282422 16.3669 0 17.0507 0 17.7797C0 18.5088 0.282422 19.1927 0.795176 19.7054L1.96658 20.8768C1.9667 20.8768 1.96676 20.877 1.96688 20.8771C1.96699 20.8772 1.96711 20.8773 1.96723 20.8774L9.83988 28.7501H8.7498C8.40469 28.7501 8.12484 29.0299 8.12484 29.375C8.12484 29.7202 8.40469 30 8.7498 30H12.2179C12.2187 30 12.2195 30.0001 12.2203 30.0001C12.2211 30.0001 12.2219 30 12.2227 30L21.2493 30.0001C21.5944 30.0001 21.8742 29.7203 21.8742 29.3752C21.8742 29.03 21.5944 28.7502 21.2493 28.7502L14.601 28.7501L29.2037 14.1473C30.2654 13.0855 30.2654 11.3578 29.2037 10.2961ZM28.3198 13.2635L13.2622 28.3212C12.986 28.5973 12.6169 28.7495 12.2226 28.7501H12.2179C11.8237 28.7494 11.4547 28.5973 11.1786 28.3212L3.29268 20.4352L17.7533 5.97439C17.9974 5.73035 17.9974 5.33461 17.7533 5.09057C17.5092 4.84652 17.1136 4.84652 16.8694 5.09062L2.40879 19.5514L1.67895 18.8215C1.40232 18.5449 1.24998 18.175 1.24998 17.7798C1.24998 17.3846 1.40232 17.0146 1.679 16.7379L16.7365 1.68041C17.0132 1.40379 17.3832 1.25145 17.7784 1.25145C18.1736 1.25145 18.5436 1.40379 18.8203 1.68047L22.2013 5.06145L7.74047 19.5224C7.49643 19.7664 7.49643 20.1621 7.74047 20.4063C7.86252 20.5283 8.02248 20.5893 8.18238 20.5893C8.34229 20.5893 8.50225 20.5282 8.6243 20.4062L23.0851 5.94533L28.3198 11.1799C28.8942 11.7543 28.8942 12.6891 28.3198 13.2635Z" fill="#862633"/>
<path d="M15.3985 18.0507C15.1545 17.8066 14.7588 17.8067 14.5146 18.0507L9.59661 22.9686C9.35256 23.2127 9.35256 23.6084 9.59661 23.8525C9.71866 23.9746 9.87862 24.0356 10.0385 24.0356C10.1984 24.0356 10.3584 23.9745 10.4804 23.8525L15.3984 18.9346C15.6425 18.6904 15.6425 18.2947 15.3985 18.0507Z" fill="#862633"/>
<path d="M13.3814 22.7192L11.3643 24.7363C11.1202 24.9803 11.1202 25.3761 11.3643 25.6202C11.4863 25.7422 11.6463 25.8032 11.8062 25.8032C11.9662 25.8032 12.1261 25.7422 12.2481 25.6202L14.2652 23.6031C14.5092 23.3591 14.5092 22.9633 14.2652 22.7192C14.0212 22.4751 13.6256 22.4751 13.3814 22.7192Z" fill="#862633"/>
<path d="M15.2376 20.8632L14.9724 21.1283C14.7283 21.3723 14.7283 21.768 14.9724 22.0121C15.0944 22.1342 15.2544 22.1952 15.4143 22.1952C15.5742 22.1952 15.7341 22.1342 15.8561 22.0121L16.1213 21.7471C16.3654 21.503 16.3654 21.1073 16.1213 20.8632C15.8774 20.6192 15.4816 20.6191 15.2376 20.8632Z" fill="#862633"/>
<path d="M23.8519 9.59711C23.7347 9.47992 23.5758 9.41406 23.41 9.41406C23.2443 9.41406 23.0853 9.47992 22.9681 9.59711L20.3164 12.2487C20.1993 12.366 20.1334 12.5249 20.1334 12.6906C20.1334 12.8564 20.1993 13.0154 20.3164 13.1325L22.0842 14.9001C22.2063 15.0222 22.3662 15.0832 22.5261 15.0832C22.6861 15.0832 22.846 15.0221 22.968 14.9001L25.6196 12.2487C25.8636 12.0046 25.8636 11.6089 25.6196 11.3648L23.8519 9.59711ZM22.5261 13.5745L21.6422 12.6906L23.41 10.9229L24.2938 11.8068L22.5261 13.5745Z" fill="#862633"/>
<path d="M18.7699 4.6983C18.9299 4.6983 19.0898 4.63724 19.2118 4.51513L19.477 4.24988C19.721 4.00578 19.7209 3.61003 19.4768 3.36605C19.2328 3.12207 18.837 3.12212 18.593 3.36623L18.3278 3.63148C18.0839 3.87558 18.0839 4.27132 18.328 4.51531C18.4501 4.63736 18.6099 4.6983 18.7699 4.6983Z" fill="#862633"/>
<path d="M6.28212 20.98L6.01699 21.2451C5.77294 21.4891 5.77294 21.8848 6.01699 22.129C6.13904 22.251 6.299 22.312 6.4589 22.312C6.6188 22.312 6.77876 22.251 6.90082 22.129L7.16595 21.8638C7.41 21.6197 7.41 21.224 7.16595 20.98C6.92185 20.7358 6.52622 20.7358 6.28212 20.98Z" fill="#862633"/>
</svg>
