<?xml version="1.0" encoding="UTF-8"?>
<svg width="43px" height="42px" viewBox="0 0 43 42" version="1.1" xmlns="http://www.w3.org/2000/svg" xmlns:xlink="http://www.w3.org/1999/xlink">
    <title>Group 25</title>
    <g id="Page-1" stroke="none" stroke-width="1" fill="none" fill-rule="evenodd">
        <g id="dc_05-copy-2" transform="translate(-378.000000, -2656.000000)" fill="#821517" fill-rule="nonzero">
            <g id="Group-25" transform="translate(378.000000, 2656.000000)">
                <g id="Group-3" transform="translate(0.000000, 0.988878)">
                    <path d="M8.87804878,11.6097561 C8.5017561,11.6097561 8.19512195,11.3038049 8.19512195,10.9268293 L6.82926829,10.9268293 C6.82926829,12.0563902 7.7484878,12.9756098 8.87804878,12.9756098 C10.0076098,12.9756098 10.9268293,12.0563902 10.9268293,10.9268293 L9.56097561,10.9268293 C9.56097561,11.3038049 9.25434146,11.6097561 8.87804878,11.6097561 Z" id="Path"></path>
                    <path d="M32.7804878,19.2476098 L32.7804878,17.7560976 L31.4146341,17.7560976 L31.4146341,19.1219512 L30.0487805,19.1219512 L30.0487805,21.1707317 C30.0487805,22.3002927 30.968,23.2195122 32.097561,23.2195122 C32.4738537,23.2195122 32.7804878,23.5254634 32.7804878,23.902439 L32.7804878,24.5853659 L32.097561,24.5853659 C31.7212683,24.5853659 31.4146341,24.2794146 31.4146341,23.902439 L31.4146341,23.2195122 L30.0487805,23.2195122 L30.0487805,23.902439 C30.0487805,24.7916098 30.6217561,25.5428293 31.4146341,25.825561 L31.4146341,27.3170732 L32.7804878,27.3170732 L32.7804878,25.9512195 L34.1463415,25.9512195 L34.1463415,23.902439 C34.1463415,22.772878 33.227122,21.8536585 32.097561,21.8536585 C31.7212683,21.8536585 31.4146341,21.5477073 31.4146341,21.1707317 L31.4146341,20.4878049 L32.097561,20.4878049 C32.4738537,20.4878049 32.7804878,20.7937561 32.7804878,21.1707317 L32.7804878,21.8536585 L34.1463415,21.8536585 L34.1463415,21.1707317 C34.1463415,20.281561 33.5733659,19.5303415 32.7804878,19.2476098 Z" id="Path"></path>
                    <path d="M42.3414634,24.0752195 C42.3414634,22.0428293 41.6250732,20.0637073 40.3234146,18.5018537 L35.5121951,12.7283902 L35.5121951,10.4508293 L35.6269268,10.2787317 C36.4457561,9.05082927 36.8780488,7.62146341 36.8780488,6.14634146 L36.8780488,5.86360976 L36.6779512,5.6635122 C36.5181463,5.50370732 34.9890732,4.09756098 30.7317073,4.09756098 L30.0487805,4.09756098 L30.0487805,4.7804878 C30.0487805,5.01131707 30.0556098,5.24282927 30.0692683,5.47297561 C28.9246829,5.5235122 27.9057561,6.17434146 27.3894634,7.2062439 L27.2364878,7.51219512 L28.6829268,10.4050732 L28.6829268,12.7277073 L23.8717073,18.5011707 C22.6977561,19.9100488 22.0059512,21.6590244 21.8802927,23.4797073 C21.1823415,23.1764878 20.4598049,22.932 19.7167805,22.7599024 L16.3902439,21.9929756 L16.3902439,16.0487805 L17.938439,14.8878049 C18.5537561,14.4261463 18.9594146,13.7363902 19.0802927,12.9851707 L19.8376585,11.2198049 C20.2685854,10.2118049 20.4878049,9.14507317 20.4878049,8.04897561 C20.4878049,3.61063415 16.8771707,1.0658141e-14 12.4388293,1.0658141e-14 L8.19512195,1.0658141e-14 L8.19512195,1.36585366 L12.4388293,1.36585366 C16.1239024,1.36585366 19.1219512,4.36390244 19.1219512,8.04897561 C19.1219512,8.95863415 18.9402927,9.84507317 18.5817561,10.6816585 L18.5400976,10.7779512 C18.0306341,10.0847805 17.2357073,9.61356098 16.3226341,9.56439024 C16.1915122,8.9115122 15.8712195,8.31053659 15.3897561,7.82907317 C14.7450732,7.18439024 13.888,6.82926829 12.9762927,6.82926829 C12.9762927,6.82926829 12.9756098,6.82926829 12.9749268,6.82926829 L9.5555122,6.82995122 C8.80497561,6.82995122 8.19443902,6.21873171 8.19443902,5.46887805 C8.19512195,4.71287805 8.80770732,4.09756098 9.56029268,4.09756098 L9.56029268,2.73170732 C8.05443902,2.73170732 6.82926829,3.95960976 6.82926829,5.46956098 C6.82926829,5.74546341 6.88253659,6.00702439 6.95970732,6.25834146 C6.69882927,6.50146341 6.45980488,6.76507317 6.24058537,7.04507317 L6.04253659,6.9262439 C4.84263415,6.20643902 4.09756098,4.89112195 4.09756098,3.4924878 C4.09756098,3.06156098 4.16653659,2.63541463 4.30312195,2.22634146 L4.74565854,0.899414634 L3.44946341,0.467121951 L3.00692683,1.79473171 C2.82458537,2.34380488 2.73170732,2.91541463 2.73170732,3.4924878 C2.73170732,5.36780488 3.73082927,7.13180488 5.33912195,8.09678049 L5.50712195,8.19785366 C5.25785366,8.69434146 5.06731707,9.22087805 4.9457561,9.76790244 L4.14331707,13.3778537 C4.11258537,13.5130732 4.09756098,13.6537561 4.09756098,13.7937561 C4.09756098,14.6590244 4.67463415,15.391122 5.46341463,15.6274146 L5.46341463,17.9650732 C5.46341463,19.7331707 6.90165854,21.1707317 8.66907317,21.1707317 C8.84526829,21.1707317 9.02146341,21.1563902 9.19629268,21.1277073 L10.9268293,20.8388293 L10.9268293,22.0346341 L7.1884878,23.203122 C2.88878049,24.546439 -1.56319402e-13,28.476 -1.56319402e-13,32.9805854 L-1.56319402e-13,34.8292683 C-1.56319402e-13,38.2186341 2.75765854,40.9756098 6.14634146,40.9756098 L21.8536585,40.9756098 L21.8536585,35.7949268 L23.9126829,37.8539512 C25.0449756,38.9862439 26.5501463,39.6097561 28.1516098,39.6097561 C31.4569756,39.6097561 34.1463415,36.9210732 34.1463415,33.6150244 L34.1463415,32.7545366 C38.7082927,32.4881951 42.3414634,28.7027317 42.3414634,24.0752195 L42.3414634,24.0752195 Z M35.5033171,6.4782439 C35.4445854,7.56478049 35.0976585,8.61034146 34.4905366,9.52068293 L34.4639024,9.56097561 L32.5250732,9.56097561 C31.9029268,8.28868293 31.5293659,6.89209756 31.4371707,5.4777561 C33.8294634,5.58087805 35.0519024,6.19004878 35.5033171,6.4782439 L35.5033171,6.4782439 Z M34.1463415,10.9268293 L34.1463415,12.2926829 L30.0487805,12.2926829 L30.0487805,10.9268293 L34.1463415,10.9268293 Z M30.2099512,6.82926829 L30.2249756,6.82926829 C30.3847805,7.7662439 30.6518049,8.68546341 31.0219512,9.56097561 L29.7879024,9.56097561 L28.7792195,7.54429268 C29.1131707,7.09697561 29.6369756,6.82926829 30.2099512,6.82926829 Z M17.2971707,23.6046829 L16.3164878,24.9118049 L14.9226341,23.5179512 L15.7400976,23.2454634 L17.2971707,23.6046829 Z M17.7560976,39.6097561 L13.6585366,39.6097561 L13.6585366,37.3451707 L16.6463415,37.9140488 C17.2889756,38.0369756 17.7560976,38.6010732 17.7560976,39.256 L17.7560976,39.6097561 Z M11.7545366,35.5920976 L13.5280976,27.3170732 L13.7896585,27.3170732 L15.7250732,36.3487805 L11.7545366,35.5920976 Z M13.9760976,25.9512195 L13.3409756,25.9512195 L12.7618537,25.0818537 L13.6585366,24.1851707 L14.5552195,25.0818537 L13.9760976,25.9512195 Z M13.0882927,20.4782439 L12.8636098,19.1308293 L8.97297561,19.7796098 C8.87258537,19.7966829 8.77082927,19.804878 8.66907317,19.804878 C7.8195122,19.804878 7.10926829,19.2230244 6.89892683,18.4390244 L8.19512195,18.4390244 C9.70165854,18.4390244 10.9268293,17.2138537 10.9268293,15.7073171 L9.56097561,15.7073171 C9.56097561,16.4605854 8.94839024,17.0731707 8.19512195,17.0731707 L6.82926829,17.0731707 L6.82926829,14.3414634 L6.01112195,14.3414634 C5.70926829,14.3414634 5.46341463,14.0962927 5.46341463,13.7937561 C5.46341463,13.7534634 5.4675122,13.7138537 5.47639024,13.6742439 L6.27882927,10.0636098 C6.49804878,9.07678049 7.00341463,8.17941463 7.70341463,7.4582439 C8.19034146,7.91239024 8.83912195,8.19580488 9.5555122,8.19580488 L12.9756098,8.19580488 L12.9762927,8.19580488 C13.5226341,8.19580488 14.036878,8.40887805 14.4234146,8.79541463 C14.8113171,9.18195122 15.0243902,9.69687805 15.0243902,10.2439024 L15.0243902,10.9268293 L16.1628293,10.9268293 C17.0410732,10.9268293 17.7560976,11.6418537 17.7560976,12.5200976 C17.7560976,13.0186341 17.5177561,13.496 17.1182439,13.795122 L15.5707317,14.9560976 C15.2285854,15.2121951 15.0243902,15.6212683 15.0243902,16.0487805 L15.0243902,22.044878 L13.6585366,22.5003902 L12.2926829,22.044878 L12.2926829,20.6114146 L13.0882927,20.4782439 Z M11.6036098,23.2543415 L12.394439,23.5179512 L11.0005854,24.9118049 L10.108,23.7214634 L11.6036098,23.2543415 Z M1.36585366,34.8292683 L1.36585366,32.9805854 C1.36585366,29.0762927 3.86946341,25.6712195 7.59619512,24.5061463 L8.7257561,24.1530732 L10.8537561,26.9906341 L11.7777561,26.0666341 L12.2482927,26.7727805 L10.4132683,35.3366829 L6.82926829,34.654439 L6.82926829,30.0487805 L5.46341463,30.0487805 L5.46341463,34.3942439 L4.22526829,34.1586341 L3.96985366,35.5005854 L12.2926829,37.0856585 L12.2926829,39.6097561 L6.14634146,39.6097561 C3.5102439,39.6097561 1.36585366,37.4646829 1.36585366,34.8292683 L1.36585366,34.8292683 Z M28.1516098,38.2439024 C26.9148293,38.2439024 25.7524878,37.762439 24.8783415,36.8882927 L21.8536585,33.8636098 L21.8536585,30.0487805 L20.4878049,30.0487805 L20.4878049,39.6097561 L19.1219512,39.6097561 L19.1219512,39.256 C19.1219512,38.0465366 18.321561,37.0016585 17.1872195,36.6533659 L15.0694634,26.7720976 L15.54,26.0659512 L16.464,26.9899512 L18.7518049,23.9393171 L19.4094634,24.0909268 C20.2754146,24.2903415 21.1113171,24.5990244 21.9041951,24.9985366 C22.2442927,28.204878 24.3313171,30.8962927 27.1934634,32.1009756 L26.6437073,35.3988293 L27.991122,35.6228293 L28.5074146,32.5243902 C29.166439,32.6862439 29.8514146,32.7804878 30.5589268,32.7804878 L32.7804878,32.7804878 L32.7804878,33.6150244 C32.7804878,36.167122 30.7037073,38.2439024 28.1516098,38.2439024 L28.1516098,38.2439024 Z M33.6361951,31.4146341 L30.5589268,31.4146341 C26.5119024,31.4146341 23.2195122,28.1222439 23.2195122,24.0752195 C23.2195122,22.3617561 23.8239024,20.6926829 24.9206829,19.3766829 L29.6861463,13.6585366 L34.5096585,13.6585366 L39.275122,19.3766829 C40.3712195,20.6926829 40.9756098,22.3617561 40.9756098,24.0752195 C40.9756098,28.1222439 37.6832195,31.4146341 33.6361951,31.4146341 Z" id="Shape"></path>
                </g>
                <path d="M6.82926829,3.19882927 C6.82926829,2.30487805 7.04029268,1.4102439 7.4404878,0.611219512 L6.21873171,-1.4610535e-13 C5.72429268,0.988195122 5.46341463,2.09453659 5.46341463,3.19882927 L5.46341463,3.72058537 L6.82926829,3.72058537 L6.82926829,3.19882927 Z" id="Path"></path>
            </g>
        </g>
    </g>
</svg>