<?xml version="1.0" encoding="UTF-8"?>
<svg width="42px" height="42px" viewBox="0 0 42 42" version="1.1" xmlns="http://www.w3.org/2000/svg" xmlns:xlink="http://www.w3.org/1999/xlink">
    <title>Combined Shape</title>
    <g id="Page-1" stroke="none" stroke-width="1" fill="none" fill-rule="evenodd">
        <g id="dc_05-copy-2" transform="translate(-1046.000000, -2505.000000)" fill="#821517" fill-rule="nonzero">
            <path d="M1067,2505 C1069.24158,2505 1071.06452,2506.82294 1071.06452,2509.06452 C1071.06452,2511.00577 1069.69604,2512.62874 1067.8743,2513.02981 L1067.67742,2513.06806 L1067.67742,2516.55068 C1069.65835,2516.69158 1071.47127,2517.44035 1072.93148,2518.6157 L1073.2011,2518.84103 L1075.88435,2516.15777 C1075.41084,2515.49323 1075.12903,2514.68303 1075.12903,2513.80645 C1075.12903,2511.56487 1076.95197,2509.74194 1079.19355,2509.74194 C1081.43513,2509.74194 1083.25806,2511.56487 1083.25806,2513.80645 C1083.25806,2516.04803 1081.43513,2517.87097 1079.19355,2517.87097 C1078.40463,2517.87097 1077.66948,2517.6427 1077.04588,2517.25186 L1076.84223,2517.11565 L1074.15897,2519.7989 C1075.38693,2521.21431 1076.19965,2522.99336 1076.41582,2524.95306 L1076.44932,2525.32258 L1079.93194,2525.32258 C1080.25642,2523.40345 1081.92558,2521.93548 1083.93548,2521.93548 C1086.17706,2521.93548 1088,2523.75842 1088,2526 C1088,2528.24158 1086.17706,2530.06452 1083.93548,2530.06452 C1081.99423,2530.06452 1080.37126,2528.69604 1079.97019,2526.8743 L1079.93194,2526.67742 L1076.44932,2526.67742 C1076.30842,2528.65835 1075.55965,2530.47127 1074.3843,2531.93148 L1074.15897,2532.2011 L1076.84223,2534.88435 C1077.50677,2534.41084 1078.31697,2534.12903 1079.19355,2534.12903 C1081.43513,2534.12903 1083.25806,2535.95197 1083.25806,2538.19355 C1083.25806,2540.43513 1081.43513,2542.25806 1079.19355,2542.25806 C1076.95197,2542.25806 1075.12903,2540.43513 1075.12903,2538.19355 C1075.12903,2537.40463 1075.3573,2536.66948 1075.74814,2536.04588 L1075.88435,2535.84223 L1073.2011,2533.15897 C1071.78569,2534.38693 1070.00664,2535.19965 1068.04694,2535.41582 L1067.67742,2535.44932 L1067.67742,2538.93194 C1069.59655,2539.25642 1071.06452,2540.92558 1071.06452,2542.93548 C1071.06452,2545.17706 1069.24158,2547 1067,2547 C1064.75842,2547 1062.93548,2545.17706 1062.93548,2542.93548 C1062.93548,2540.99423 1064.30396,2539.37126 1066.1257,2538.97019 L1066.32258,2538.93194 L1066.32258,2535.44932 C1064.34165,2535.30842 1062.52873,2534.55965 1061.06852,2533.3843 L1060.7989,2533.15897 L1058.11565,2535.84223 C1058.58916,2536.50677 1058.87097,2537.31697 1058.87097,2538.19355 C1058.87097,2540.43513 1057.04803,2542.25806 1054.80645,2542.25806 C1052.56487,2542.25806 1050.74194,2540.43513 1050.74194,2538.19355 C1050.74194,2535.95197 1052.56487,2534.12903 1054.80645,2534.12903 C1055.59537,2534.12903 1056.33052,2534.3573 1056.95412,2534.74814 L1057.15777,2534.88435 L1059.84103,2532.2011 C1058.61307,2530.78569 1057.80035,2529.00664 1057.58418,2527.04694 L1057.55068,2526.67742 L1054.06806,2526.67742 C1053.74358,2528.59655 1052.07442,2530.06452 1050.06452,2530.06452 C1047.82294,2530.06452 1046,2528.24158 1046,2526 C1046,2523.75842 1047.82294,2521.93548 1050.06452,2521.93548 C1052.00577,2521.93548 1053.62874,2523.30396 1054.02981,2525.1257 L1054.06806,2525.32258 L1057.55068,2525.32258 C1057.69158,2523.34165 1058.44035,2521.52873 1059.6157,2520.06852 L1059.84103,2519.7989 L1057.15777,2517.11565 C1056.49323,2517.58916 1055.68303,2517.87097 1054.80645,2517.87097 C1052.56487,2517.87097 1050.74194,2516.04803 1050.74194,2513.80645 C1050.74194,2511.56487 1052.56487,2509.74194 1054.80645,2509.74194 C1057.04803,2509.74194 1058.87097,2511.56487 1058.87097,2513.80645 C1058.87097,2514.59537 1058.6427,2515.33052 1058.25186,2515.95412 L1058.11565,2516.15777 L1060.7989,2518.84103 C1062.21431,2517.61307 1063.99336,2516.80035 1065.95306,2516.58418 L1066.32258,2516.55068 L1066.32258,2513.06806 C1064.40345,2512.74358 1062.93548,2511.07442 1062.93548,2509.06452 C1062.93548,2506.82294 1064.75842,2505 1067,2505 Z M1067,2540.22581 C1065.50561,2540.22581 1064.29032,2541.4411 1064.29032,2542.93548 C1064.29032,2544.42987 1065.50561,2545.64516 1067,2545.64516 C1068.49439,2545.64516 1069.70968,2544.42987 1069.70968,2542.93548 C1069.70968,2541.4411 1068.49439,2540.22581 1067,2540.22581 Z M1054.80645,2535.48387 C1053.31206,2535.48387 1052.09677,2536.69916 1052.09677,2538.19355 C1052.09677,2539.68794 1053.31206,2540.90323 1054.80645,2540.90323 C1056.30084,2540.90323 1057.51613,2539.68794 1057.51613,2538.19355 C1057.51613,2536.69916 1056.30084,2535.48387 1054.80645,2535.48387 Z M1079.19355,2535.48387 C1077.69916,2535.48387 1076.48387,2536.69916 1076.48387,2538.19355 C1076.48387,2539.68794 1077.69916,2540.90323 1079.19355,2540.90323 C1080.68794,2540.90323 1081.90323,2539.68794 1081.90323,2538.19355 C1081.90323,2536.69916 1080.68794,2535.48387 1079.19355,2535.48387 Z M1067,2517.95565 C1062.55723,2517.95565 1058.95565,2521.55723 1058.95565,2526 C1058.95565,2530.44277 1062.55723,2534.04435 1067,2534.04435 C1071.44277,2534.04435 1075.04435,2530.44277 1075.04435,2526 C1075.04435,2521.55723 1071.44277,2517.95565 1067,2517.95565 Z M1050.06452,2523.29032 C1048.57013,2523.29032 1047.35484,2524.50561 1047.35484,2526 C1047.35484,2527.49439 1048.57013,2528.70968 1050.06452,2528.70968 C1051.5589,2528.70968 1052.77419,2527.49439 1052.77419,2526 C1052.77419,2524.50561 1051.5589,2523.29032 1050.06452,2523.29032 Z M1083.93548,2523.29032 C1082.4411,2523.29032 1081.22581,2524.50561 1081.22581,2526 C1081.22581,2527.49439 1082.4411,2528.70968 1083.93548,2528.70968 C1085.42987,2528.70968 1086.64516,2527.49439 1086.64516,2526 C1086.64516,2524.50561 1085.42987,2523.29032 1083.93548,2523.29032 Z M1079.19355,2511.09677 C1077.69916,2511.09677 1076.48387,2512.31206 1076.48387,2513.80645 C1076.48387,2515.30084 1077.69916,2516.51613 1079.19355,2516.51613 C1080.68794,2516.51613 1081.90323,2515.30084 1081.90323,2513.80645 C1081.90323,2512.31206 1080.68794,2511.09677 1079.19355,2511.09677 Z M1054.80645,2511.09677 C1053.31206,2511.09677 1052.09677,2512.31206 1052.09677,2513.80645 C1052.09677,2515.30084 1053.31206,2516.51613 1054.80645,2516.51613 C1056.30084,2516.51613 1057.51613,2515.30084 1057.51613,2513.80645 C1057.51613,2512.31206 1056.30084,2511.09677 1054.80645,2511.09677 Z M1067,2506.35484 C1065.50561,2506.35484 1064.29032,2507.57013 1064.29032,2509.06452 C1064.29032,2510.5589 1065.50561,2511.77419 1067,2511.77419 C1068.49439,2511.77419 1069.70968,2510.5589 1069.70968,2509.06452 C1069.70968,2507.57013 1068.49439,2506.35484 1067,2506.35484 Z" id="Combined-Shape"></path>
        </g>
    </g>
</svg>