<svg width="39" height="39" viewBox="0 0 39 39" fill="none" xmlns="http://www.w3.org/2000/svg">
<g opacity="0.6">
<path fill-rule="evenodd" clip-rule="evenodd" d="M31.6704 11.4736C30.1873 9.15686 28.0976 7.30301 25.6276 6.1127C25.0624 5.84023 24.384 6.07879 24.1124 6.64537C23.8407 7.21195 24.0785 7.8919 24.6436 8.16426C28.948 10.2385 31.7292 14.6704 31.7292 19.4551C31.7292 21.5024 31.2258 23.5328 30.2734 25.327C29.979 25.8819 30.1889 26.571 30.7425 26.8664C30.9123 26.957 31.095 27 31.2748 27C31.6811 27 32.074 26.7808 32.2782 26.3962C33.4045 24.2742 34 21.8739 34 19.4551C34 16.6142 33.1944 13.8542 31.6704 11.4736Z" fill="white"/>
<path fill-rule="evenodd" clip-rule="evenodd" d="M21.0349 5.0001L20.9696 5C20.4342 5 20 5.44768 20 5.99995C20 6.55222 20.4342 6.9999 20.9696 6.9999L21.0258 7H21.0304C21.5638 7 21.9975 6.55542 22 6.00475C22.0024 5.45248 21.5703 5.0027 21.0349 5.0001Z" fill="white"/>
<path fill-rule="evenodd" clip-rule="evenodd" d="M13.3563 30.8358C9.05196 28.7613 6.2708 24.3295 6.2708 19.5449C6.2708 17.4976 6.77424 15.4672 7.7265 13.673C8.02102 13.1181 7.81108 12.4288 7.25746 12.1336C6.70407 11.8384 6.01624 12.0488 5.72183 12.6038C4.5954 14.7259 4 17.1261 4 19.5449C4 22.3858 4.80557 25.1457 6.32961 27.5264C7.81279 29.843 9.90237 31.6969 12.3724 32.8873C12.5311 32.9638 12.6986 33 12.8636 33C13.2864 33 13.6922 32.7622 13.8877 32.3548C14.1592 31.7882 13.9215 31.1081 13.3563 30.8358Z" fill="white"/>
<path fill-rule="evenodd" clip-rule="evenodd" d="M17.0303 32.0002L16.9741 32C16.4361 31.999 16.0024 32.4429 16 32.9952C15.9975 33.5474 16.4298 33.9972 16.9653 33.9998L17.0303 34C17.5658 34 18 33.5521 18 33.0001C18 32.448 17.5658 32.0002 17.0303 32.0002Z" fill="white"/>
<path fill-rule="evenodd" clip-rule="evenodd" d="M19.5 2.31746C10.0255 2.31746 2.31746 10.0255 2.31746 19.5C2.31746 28.9746 10.0255 36.6825 19.5 36.6825C28.9746 36.6825 36.6825 28.9746 36.6825 19.5C36.6825 10.0255 28.9746 2.31746 19.5 2.31746ZM19.5 39C8.7477 39 0 30.2523 0 19.5C0 8.7477 8.7477 0 19.5 0C30.2523 0 39 8.7477 39 19.5C39 30.2523 30.2523 39 19.5 39Z" fill="white"/>
<path fill-rule="evenodd" clip-rule="evenodd" d="M16.0416 25.2715C16.5578 25.3416 17.3087 25.365 18.1065 25.365C22.4946 25.365 24.8412 22.9358 24.8412 18.6847C24.8647 14.9708 22.7527 12.6117 18.435 12.6117C17.3791 12.6117 16.5813 12.7051 16.0416 12.8219V25.2715ZM14 11.3504C15.2437 11.1402 16.7221 11 18.3412 11C21.2744 11 23.3628 11.7008 24.7473 12.9621C26.1787 14.2467 27 16.0686 27 18.6146C27 21.1839 26.1787 23.2862 24.7238 24.7343C23.2221 26.2058 20.7816 27 17.7076 27C16.2292 27 15.0326 26.9299 14 26.8132V11.3504Z" fill="white"/>
</g>
</svg>
