<?xml version="1.0" encoding="UTF-8"?>
<svg width="62px" height="70px" viewBox="0 0 62 70" version="1.1" xmlns="http://www.w3.org/2000/svg" xmlns:xlink="http://www.w3.org/1999/xlink">
    <title>Group 8</title>
    <g id="Page-1" stroke="none" stroke-width="1" fill="none" fill-rule="evenodd" opacity="0.5">
        <g id="dc_05-copy-2" transform="translate(-813.000000, -1128.000000)" fill="#FFFFFF" fill-rule="nonzero">
            <g id="Group-14" transform="translate(78.000000, 992.000000)">
                <g id="Group-8" transform="translate(735.000000, 136.000000)">
                    <path d="M30.7714567,38.0835648 C30.6459194,38.0565587 30.5171212,38.0516975 30.3899536,38.0706018 C29.1155593,37.9231481 28.1541932,36.8515432 28.1520193,35.5768519 C28.1520193,34.9659722 27.6536741,34.470679 27.0390301,34.470679 C26.4243863,34.470679 25.926041,34.9659722 25.926041,35.5768519 C25.9293018,37.7054784 27.3618405,39.5699845 29.4269571,40.1333333 L29.4269571,41.2395062 C29.4269571,41.8503858 29.9253023,42.345679 30.5399462,42.345679 C31.1545902,42.345679 31.6529354,41.8503858 31.6529354,41.2395062 L31.6529354,40.2003086 C34.0365147,39.7044754 35.6565443,37.498071 35.4060131,35.0907407 C35.1549383,32.6834105 33.114277,30.8540123 30.6790699,30.8534723 C29.2834858,30.8534723 28.1520193,29.7289352 28.1520193,28.3418981 C28.1520193,26.9548611 29.2834858,25.8303241 30.6790699,25.8303241 C32.0746539,25.8303241 33.2061205,26.9548611 33.2061205,28.3418981 C33.2061205,28.9527778 33.7044657,29.448071 34.3191096,29.448071 C34.9337534,29.448071 35.4320988,28.9527778 35.4320988,28.3418981 C35.428838,26.1068673 33.8533714,24.1791667 31.6529354,23.7179012 L31.6529354,22.7111111 C31.6529354,22.1002314 31.1545902,21.6049383 30.5399462,21.6049383 C29.9253023,21.6049383 29.4269571,22.1002314 29.4269571,22.7111111 L29.4269571,23.7854166 C27.13033,24.4087192 25.6521413,26.6248457 25.9684303,28.9700617 C26.2847193,31.3152777 28.2982079,33.0658179 30.6790699,33.0652777 C32.0561765,33.0652777 33.1794912,34.1611883 33.2044901,35.529321 C33.2300322,36.8974537 32.1474764,38.0338734 30.7714567,38.0835648 L30.7714567,38.0835648 Z" id="Path"></path>
                    <path d="M14.691358,31.9753086 C14.691358,41.0438247 22.042595,48.3950617 31.1111111,48.3950617 C40.1796272,48.3950617 47.5308642,41.0438247 47.5308642,31.9753086 C47.5308642,22.9067926 40.1796272,15.5555556 31.1111111,15.5555556 C22.0470181,15.5655075 14.701863,22.9112157 14.691358,31.9753086 Z M31.1111111,17.8201966 C38.928988,17.8201966 45.2662232,24.1574317 45.2662232,31.9753086 C45.2662232,39.7931856 38.928988,46.1304207 31.1111111,46.1304207 C23.2932342,46.1304207 16.955999,39.7931856 16.955999,31.9753086 C16.9648453,24.161302 23.2971045,17.8290428 31.1111111,17.8201966 Z" id="Shape"></path>
                    <path d="M53.5895644,51.2757326 L44.6409141,55.5573061 C43.4054057,53.2301184 41.0353493,51.749078 38.4271159,51.6745176 L30.1662226,51.4446232 C28.8582014,51.4067781 27.574723,51.0712563 26.4117275,50.4629114 L25.5711357,50.0217625 C21.2672159,47.7499302 16.1372068,47.7555787 11.8377491,50.0364486 L11.8901816,48.108046 C11.9074732,47.469199 11.4104809,46.937109 10.7796186,46.9195987 L1.72108336,46.6671101 C1.09022119,46.6495996 0.56533921,47.1528823 0.548047635,47.7917292 L0.000416275246,67.921903 C-0.016437298,68.5607499 0.48055489,69.0928399 1.1114172,69.1103503 L10.1699524,69.3628389 L10.2011887,69.3628389 C10.8203373,69.3628389 11.3268122,68.8640751 11.3435459,68.2376549 L11.3697621,67.2745834 L13.7230848,65.998584 C14.6467877,65.4953014 15.7266722,65.3755529 16.7357171,65.6647568 L30.788718,69.658821 C30.8132608,69.6661641 30.8378037,69.6718127 30.8629044,69.6774611 C31.8786428,69.8926694 32.913904,70.0005561 33.9513963,69.9999935 C36.1490951,70.0011209 38.3211355,69.5215621 40.3185872,68.5929464 C40.3676729,68.5703524 40.4150851,68.5438045 40.4602662,68.5138672 L60.8358347,55.1675586 C61.3434251,54.8348612 61.5074157,54.1598637 61.2101128,53.626644 C59.6973821,50.9085791 56.3422657,49.8732066 53.5895644,51.2757326 L53.5895644,51.2757326 Z M2.316247,66.8294805 L2.80041009,49.0118082 L9.57478876,49.2004685 L9.09062567,67.0187056 L2.316247,66.8294805 Z M39.2894616,66.5267201 C36.8078469,67.6609417 34.0361806,67.9738693 31.3688212,67.4220095 L17.3537502,63.4381127 C15.7763156,62.9867964 14.0878804,63.1737623 12.6448736,63.9594704 L11.442275,64.6118738 L11.7641208,52.7652457 C15.5749529,50.198561 20.4623226,49.9347753 24.5208141,52.076127 L25.361406,52.5172759 C26.830629,53.2854738 28.4510135,53.7091124 30.10375,53.7576895 L38.365201,53.9875841 C40.685614,54.0553663 42.6562916,55.7284561 43.1270677,58.0307903 L30.8216277,57.6867958 C30.1907654,57.6692854 29.6658836,58.173133 29.6480343,58.811415 C29.6307427,59.4502619 30.1282928,59.9823518 30.7585973,59.9998623 L44.338591,60.3783128 L44.3703852,60.3783128 C44.988976,60.3777478 45.494893,59.878984 45.5116267,59.2531288 C45.5255715,58.750411 45.4887573,58.2471284 45.4011841,57.7523186 L54.5796443,53.3605991 C54.588569,53.3566451 54.5974937,53.3521263 54.6064183,53.3476075 C55.9083039,52.6805179 57.4823917,52.9036342 58.5533515,53.9073753 L39.2894616,66.5267201 Z" id="Shape"></path>
                    <path d="M32.8395062,12.6247987 L32.8395062,1.20236178 C32.8395062,0.538362147 32.2590845,0 31.5432099,0 C30.8273353,0 30.2469136,0.538362147 30.2469136,1.20236178 L30.2469136,12.6247987 C30.2469136,13.2887983 30.8273353,13.8271605 31.5432099,13.8271605 C32.2590845,13.8271605 32.8395062,13.2887983 32.8395062,12.6247987 Z" id="Path"></path>
                    <path d="M41.4814815,12.6305793 L41.4814815,7.24596391 C41.4814815,6.58515658 40.9010598,6.04938272 40.1851852,6.04938272 C39.4693106,6.04938272 38.8888889,6.58515658 38.8888889,7.24596391 L38.8888889,12.6305793 C38.8888889,13.2913866 39.4693106,13.8271605 40.1851852,13.8271605 C40.9010598,13.8271605 41.4814815,13.2913866 41.4814815,12.6305793 Z" id="Path"></path>
                    <path d="M24.1975309,12.6305793 L24.1975309,7.24596391 C24.1975309,6.58515658 23.6171092,6.04938272 22.9012346,6.04938272 C22.18536,6.04938272 21.6049383,6.58515658 21.6049383,7.24596391 L21.6049383,12.6305793 C21.6049383,13.2913866 22.18536,13.8271605 22.9012346,13.8271605 C23.6171092,13.8271605 24.1975309,13.2913866 24.1975309,12.6305793 Z" id="Path"></path>
                </g>
            </g>
        </g>
    </g>
</svg>