<?xml version="1.0" encoding="UTF-8"?>
<svg width="38px" height="38px" viewBox="0 0 38 38" version="1.1" xmlns="http://www.w3.org/2000/svg" xmlns:xlink="http://www.w3.org/1999/xlink">
    <title>Group 27</title>
    <g id="Page-1" stroke="none" stroke-width="1" fill="none" fill-rule="evenodd">
        <g id="dc_05-copy-2" transform="translate(-77.000000, -2507.000000)" fill="#821517" fill-rule="nonzero">
            <g id="Group-27" transform="translate(77.000000, 2507.000000)">
                <path d="M16.7598949,13.5998248 L20.4397547,13.5998248 C20.9478373,13.5998248 21.3597197,14.0117071 21.3597197,14.5197898 C21.3597197,15.0278724 21.771602,15.4397547 22.2796846,15.4397547 C22.7877673,15.4397547 23.1996496,15.0278724 23.1996496,14.5197898 C23.1996496,12.9955419 21.9640026,11.7598949 20.4397547,11.7598949 L19.5197898,11.7598949 L19.5197898,9.91996496 C19.5197898,9.41188234 19.1079074,9 18.5998248,9 C18.0917422,9 17.6798598,9.41188234 17.6798598,9.91996496 L17.6798598,11.7598949 L16.7598949,11.7598949 C15.235647,11.7598949 14,12.9955419 14,14.5197898 L14,16.3597197 C14,17.8839675 15.235647,19.1196146 16.7598949,19.1196146 L20.4397547,19.1196146 C20.9478373,19.1196146 21.3597197,19.5314969 21.3597197,20.0395795 L21.3597197,21.8795094 C21.3597197,22.3875921 20.9478373,22.7994744 20.4397547,22.7994744 L16.7598949,22.7994744 C16.2518123,22.7994744 15.8399299,22.3875921 15.8399299,21.8795094 C15.8399299,21.3714268 15.4280476,20.9595445 14.919965,20.9595445 C14.4118823,20.9595445 14,21.3714268 14,21.8795094 C14,23.4037573 15.235647,24.6394043 16.7598949,24.6394043 L17.6798598,24.6394043 L17.6798598,26.4793342 C17.6798598,26.9874169 18.0917422,27.3992992 18.5998248,27.3992992 C19.1079074,27.3992992 19.5197898,26.9874169 19.5197898,26.4793342 L19.5197898,24.6394043 L20.4397547,24.6394043 C21.9640026,24.6394043 23.1996496,23.4037573 23.1996496,21.8795094 L23.1996496,20.0395795 C23.1996496,18.5153317 21.9640026,17.2796846 20.4397547,17.2796846 L16.7598949,17.2796846 C16.2518123,17.2796846 15.8399299,16.8678023 15.8399299,16.3597197 L15.8399299,14.5197898 C15.8399299,14.0117071 16.2518123,13.5998248 16.7598949,13.5998248 Z" id="Path"></path>
                <path d="M18.3655172,5 C10.9839459,5 5,10.9839459 5,18.3655172 C5,25.7470886 10.9839459,31.7310345 18.3655172,31.7310345 C25.7470886,31.7310345 31.7310345,25.7470886 31.7310345,18.3655172 C31.7310345,10.9839459 25.7470886,5 18.3655172,5 Z M18.3655172,6.83448276 C24.7339317,6.83448276 29.8965517,11.9971027 29.8965517,18.3655172 C29.8965517,24.7339317 24.7339317,29.8965517 18.3655172,29.8965517 C11.9971027,29.8965517 6.83448276,24.7339317 6.83448276,18.3655172 C6.83448276,11.9971027 11.9971027,6.83448276 18.3655172,6.83448276 Z" id="Oval"></path>
                <path d="M18.6068966,-7.81597009e-14 C8.33059135,-7.81597009e-14 -7.10542736e-15,8.33059135 -7.10542736e-15,18.6068966 C-7.10542736e-15,28.8832018 8.33059135,37.2137931 18.6068966,37.2137931 C28.8832018,37.2137931 37.2137931,28.8832018 37.2137931,18.6068966 C37.2137931,8.33059135 28.8832018,-7.81597009e-14 18.6068966,-7.81597009e-14 Z M18.6068966,1.83448276 C27.8700449,1.83448276 35.3793103,9.3437482 35.3793103,18.6068966 C35.3793103,27.8700449 27.8700449,35.3793103 18.6068966,35.3793103 C9.3437482,35.3793103 1.83448276,27.8700449 1.83448276,18.6068966 C1.83448276,9.3437482 9.3437482,1.83448276 18.6068966,1.83448276 Z" id="Oval-Copy"></path>
            </g>
        </g>
    </g>
</svg>