<?xml version="1.0" encoding="UTF-8"?>
<svg width="64px" height="64px" viewBox="0 0 64 64" version="1.1" xmlns="http://www.w3.org/2000/svg" xmlns:xlink="http://www.w3.org/1999/xlink">
    <title>Group 4</title>
    <g id="Page-1" stroke="none" stroke-width="1" fill="none" fill-rule="evenodd" opacity="0.5">
        <g id="dc_05-copy-2" transform="translate(-189.000000, -1131.000000)" fill="#FFFFFF" fill-rule="nonzero">
            <g id="Group-14" transform="translate(78.000000, 992.000000)">
                <g id="Group-4" transform="translate(111.000000, 139.000000)">
                    <path d="M23.216284,45.9708799 C23.1239145,45.9452989 23.0293732,45.9308941 22.9341931,45.9259269 C24.3336602,44.4962487 25.1955194,42.5648855 25.1955194,40.4404232 L25.1955194,33.9072172 C25.1955194,33.8474869 25.1896425,33.7892467 25.1813382,33.7318758 C25.1897703,33.6139053 25.1955194,33.4951898 25.1955194,33.3752324 L25.1955194,29.2417947 C25.1955194,28.5559515 24.6235444,28 23.9179339,28 L15.3487846,28 C11.7402443,28 8.80460833,30.85352 8.80460833,34.3608448 L8.80460833,40.4404232 C8.80460833,42.5648855 9.66633976,44.4962487 11.0659347,45.9259269 C10.9708823,45.9308941 10.876341,45.9452989 10.7840993,45.9708799 C4.74661346,46.5022439 0,51.4484362 0,57.4527618 L0,62.7582053 C0,63.4440485 0.571975034,64 1.27758551,64 L32.7224145,64 C33.428025,64 34,63.4440485 34,62.7582053 L34,57.4527618 C34,51.4485604 29.2536421,46.502368 23.216284,45.9708799 Z M11.3597794,35.9355647 L11.3597794,34.3607207 C11.3597794,32.222847 13.1492934,30.4834652 15.3487846,30.4834652 L22.6403484,30.4834652 L22.6403484,33.3751082 C22.6403484,34.8308641 21.4219151,36.0151637 19.9242016,36.0151637 L11.3597794,36.0151637 L11.3597794,35.9355647 Z M11.3597794,38.498753 L19.9242016,38.498753 C20.9171411,38.498753 21.8465845,38.230277 22.6403484,37.7643557 L22.6403484,40.440299 C22.6403484,43.4631998 20.1100903,45.9225741 17.0000639,45.9225741 C13.8900375,45.9225741 11.3597794,43.4631998 11.3597794,40.440299 L11.3597794,38.498753 Z M19.7807287,48.4062876 L17.0000639,51.1091779 L14.219399,48.4062876 L19.7807287,48.4062876 Z M31.4449567,61.5164107 L31.4449567,61.5164107 L2.55517103,61.5164107 L2.55517103,59.0328213 L7.85715091,59.0328213 C8.56276139,59.0328213 9.13473642,58.4768698 9.13473642,57.7910267 C9.13473642,57.1051835 8.56276139,56.549232 7.85715091,56.549232 L2.6018029,56.549232 C3.03094387,52.3623971 6.40977428,49.0094273 10.6831701,48.4814162 L16.0966832,53.7432727 C16.3362304,53.9761093 16.6612482,54.1069944 17.0000639,54.1069944 C17.3388796,54.1069944 17.6638973,53.9761093 17.9034446,53.7432727 L23.3169577,48.4814162 C27.89378,49.0468053 31.4449567,52.8530302 31.4449567,57.4527618 L31.4449567,61.5164107 Z" id="Shape"></path>
                    <path d="M53.21658,17.9710041 C53.1242109,17.9454231 53.0295422,17.9310183 52.9342347,17.9260511 C54.3336966,16.4963729 55.1954248,14.5650097 55.1954248,12.4405474 L55.1954248,5.90721724 C55.1954248,5.84748692 55.1895479,5.78924675 55.1812436,5.73187583 C55.1896756,5.61390534 55.1954248,5.49518977 55.1954248,5.37523241 L55.1954248,1.24179467 C55.1954248,0.555951473 54.6234519,0 53.917844,0 L45.3487269,0 C41.7402002,0 38.8045752,2.85351997 38.8045752,6.36084483 L38.8045752,12.4404232 C38.8045752,14.5648855 39.6663034,16.4962487 41.0657653,17.9259269 C40.9705856,17.9308941 40.8757891,17.9452989 40.78342,17.9708799 C34.7462123,18.5024922 30,23.4486846 30,29.4527618 L30,34.7580812 C30,35.4439243 30.5719729,36 31.2775807,36 L41.5569951,36 C42.262603,36 42.8345758,35.4439243 42.8345758,34.7580812 C42.8345758,34.072238 42.262603,33.5162865 41.5569951,33.5162865 L32.5551614,33.5162865 L32.5551614,29.452886 C32.5551614,24.8531543 36.106197,21.0469295 40.6830022,20.4815404 L46.0964949,25.7433969 C46.3460064,25.9859194 46.6729393,26.1071186 46.9998722,26.1071186 C47.3268051,26.1071186 47.6538658,25.9859194 47.9032496,25.7433969 L53.3167423,20.4815404 C57.893803,21.0470537 61.4448386,24.8531543 61.4448386,29.452886 L61.4448386,33.5164107 L52.0332847,33.5164107 C51.3276769,33.5164107 50.755704,34.0723621 50.755704,34.7582053 C50.755704,35.4440485 51.3276769,36 52.0332847,36 L62.7224193,36 C63.4280271,36 64,35.4440485 64,34.7582053 L64,29.452886 C64,23.4488087 59.2536599,18.5026164 53.21658,17.9710041 Z M47.0001278,23.1091779 L44.2194733,20.4064118 L49.7807822,20.4064118 L47.0001278,23.1091779 Z M52.6403911,12.4404232 C52.6403911,15.4633239 50.1101425,17.9226983 47.0001278,17.9226983 C43.890113,17.9226983 41.3598644,15.4634481 41.3598644,12.4405474 L41.3598644,10.4988772 L49.9242545,10.4988772 C50.9171902,10.4988772 51.8466302,10.230277 52.6403911,9.76447984 L52.6403911,12.4404232 L52.6403911,12.4404232 Z M52.6403911,5.37523241 C52.6403911,6.8309883 51.4219624,8.01528787 49.9242545,8.01528787 L41.3598644,8.01528787 L41.3598644,7.93568883 L41.3598644,6.36084483 C41.3598644,4.22297113 43.1493717,2.48358934 45.3488547,2.48358934 L52.6403911,2.48358934 L52.6403911,5.37523241 Z" id="Shape"></path>
                    <path d="M47.707,34.293 C47.521,34.107 47.263,34 47,34 C46.736,34 46.479,34.107 46.293,34.293 C46.106,34.479 46,34.737 46,35 C46,35.264 46.106,35.521 46.293,35.707 C46.479,35.894 46.736,36 47,36 C47.263,36 47.521,35.894 47.707,35.707 C47.893,35.521 48,35.264 48,35 C48,34.737 47.893,34.479 47.707,34.293 Z" id="Path"></path>
                    <path d="M33.6316744,17.1189734 L28.3718241,12.0025745 L28.3718241,6.11702128 C28.3718241,2.74409574 25.5507906,0 22.0832965,0 L6.28852758,0 C2.82103347,0 0,2.74409574 0,6.11702128 L0,16.8829787 C0,20.2559043 2.82103347,23 6.28852758,23 L22.0831708,23 C24.6833512,23 26.9507427,21.4821223 27.9020711,19.2074468 L32.742225,19.2074468 C33.2508411,19.2074468 33.7095263,18.9093032 33.9042191,18.4522394 C34.098912,17.9951755 33.9912524,17.468867 33.6316744,17.1189734 Z M26.9845749,16.7606383 C26.3986099,16.7606383 25.8902454,17.1542074 25.7588151,17.7097553 C25.3628894,19.3838617 23.8515047,20.5531915 22.0831708,20.5531915 L6.28852758,20.5531915 C4.20803112,20.5531915 2.51541103,18.906734 2.51541103,16.8829787 L2.51541103,6.11702128 C2.51541103,4.09326596 4.20803112,2.44680851 6.28852758,2.44680851 L22.0831708,2.44680851 C24.1636672,2.44680851 25.8562873,4.09326596 25.8562873,6.11702128 L25.8562873,12.5093085 C25.8562873,12.8337553 25.9888495,13.1449894 26.2246693,13.3743777 L29.7058724,16.7606383 L26.9845749,16.7606383 Z" id="Shape"></path>
                    <path d="M57.7114724,41 L41.9168292,41 C39.3166488,41 37.0492573,42.5178777 36.0979289,44.7925532 L31.257775,44.7925532 C30.7491589,44.7925532 30.2904737,45.0906968 30.0957809,45.5477606 C29.901088,46.0048245 30.0087476,46.531133 30.3683256,46.8810266 L35.6281759,51.9974255 L35.6281759,57.8829787 C35.6281759,61.2559043 38.4492094,64 41.9167035,64 L57.7114724,64 C61.1789665,64 64,61.2559043 64,57.8829787 L64,47.1170213 C64,43.7440957 61.1789665,41 57.7114724,41 Z M61.484589,57.8829787 C61.484589,59.906734 59.7919689,61.5531915 57.7114724,61.5531915 L41.9168292,61.5531915 C39.8363328,61.5531915 38.1437127,59.906734 38.1437127,57.8829787 L38.1437127,51.4906915 C38.1437127,51.1662447 38.0111505,50.8550106 37.7753307,50.6256223 L34.2941276,47.2393617 L37.0154251,47.2393617 C37.6013901,47.2393617 38.1097546,46.8457926 38.2411849,46.2902447 C38.6371106,44.6161383 40.1484953,43.4468085 41.9168292,43.4468085 L57.7114724,43.4468085 C59.7919689,43.4468085 61.484589,45.093266 61.484589,47.1170213 L61.484589,57.8829787 Z" id="Shape"></path>
                    <path d="M55.6393436,48.3820957 C55.1585916,47.8726348 54.3788474,47.8726348 53.8979722,48.3820957 L50.6244501,51.8502136 L49.102274,50.2375512 C48.6213989,49.7280902 47.8416546,49.7280902 47.3606564,50.2375512 C46.8797812,50.7470121 46.8797812,51.5731086 47.3606564,52.0827 L49.7535797,54.6178717 C49.9940789,54.8726674 50.3092029,55 50.624327,55 C50.9394511,55 51.2546983,54.8726674 51.4950743,54.6178717 L55.6393436,50.2272446 C56.1202188,49.7177836 56.1202188,48.8916871 55.6393436,48.3820957 Z" id="Path"></path>
                    <path d="M19.9889172,7.99007594 C19.8355089,5.8676958 18.0415932,4.15686951 15.8161356,4.01056676 C14.5542167,3.92776089 13.3513509,4.33374484 12.4298633,5.15412949 C11.5212246,5.96300301 11,7.10668951 11,8.29171707 C11.0001298,8.97545346 11.5811861,9.5295968 12.2979997,9.5295968 C13.0148132,9.5295968 13.5958696,8.97545346 13.5958696,8.29184084 C13.5958696,7.78299937 13.8107968,7.31141435 14.2011961,6.96385248 C14.5909464,6.61678571 15.1016583,6.44449008 15.6378083,6.480385 C16.5773363,6.54214902 17.3346434,7.26437962 17.3994071,8.16039116 C17.4649496,9.06630475 16.8422316,9.8668853 15.9187971,10.0639361 C14.9080161,10.2795531 14.2021046,11.1176377 14.2021046,12.1019012 L14.2021046,12.762244 C14.2021046,13.4458567 14.783161,14 15.4999745,14 C16.2167881,14 16.7978444,13.4458567 16.7978444,12.762244 L16.7978444,12.4020571 C18.8087641,11.8299663 20.135836,10.0219761 19.9889172,7.99007594 Z" id="Path"></path>
                    <path d="M15.707,17.293 C15.521,17.107 15.263,17 15,17 C14.736,17 14.479,17.107 14.293,17.293 C14.106,17.479 14,17.737 14,18 C14,18.263 14.106,18.521 14.293,18.707 C14.479,18.893 14.736,19 15,19 C15.263,19 15.521,18.893 15.707,18.707 C15.893,18.521 16,18.263 16,18 C16,17.737 15.893,17.479 15.707,17.293 Z" id="Path"></path>
                    <path d="M13.707,56.293 C13.521,56.107 13.263,56 13,56 C12.737,56 12.479,56.107 12.293,56.293 C12.107,56.479 12,56.737 12,57 C12,57.263 12.107,57.521 12.293,57.707 C12.479,57.893 12.737,58 13,58 C13.263,58 13.521,57.893 13.707,57.707 C13.893,57.521 14,57.263 14,57 C14,56.737 13.893,56.479 13.707,56.293 Z" id="Path"></path>
                </g>
            </g>
        </g>
    </g>
</svg>