<svg width="48" height="48" viewBox="0 0 48 48" fill="none" xmlns="http://www.w3.org/2000/svg">
<path fill-rule="evenodd" clip-rule="evenodd" d="M48 18.5621V24.7742H46.4516V18.5621C46.4516 17.5286 45.7867 16.6342 44.797 16.3378L39.8112 14.842C39.3606 15.4272 38.4889 16.2581 37.1613 16.2581C35.8337 16.2581 34.9619 15.4272 34.5113 14.8427L31.1628 15.8479C32.4594 16.5756 33.2903 17.952 33.2903 19.4811V20.2148C34.2751 19.2085 35.6454 18.5814 37.1613 18.5814C40.1496 18.5814 42.5806 21.0125 42.5806 24.0008V26.3233C42.5806 28.1598 41.6602 29.7834 40.2581 30.764V31.94L45.2416 33.4351C46.8913 33.9299 48 35.4201 48 37.1428V44.129H38.7097C38.2833 44.129 37.9355 44.4768 37.9355 44.9032V48H10.0645V44.9032C10.0645 44.4768 9.71673 44.129 9.29032 44.129H0V37.1428C0 35.4201 1.10874 33.9299 2.75844 33.4343L7.74194 31.9393V30.7632C6.33984 29.7834 5.41935 28.1598 5.41935 26.3226V24C5.41935 21.0117 7.85043 18.5806 10.8387 18.5806C12.3924 18.5806 13.7922 19.2418 14.7807 20.2923C14.9845 18.6045 15.6559 17.0617 16.6637 15.7942L13.4887 14.842C13.0381 15.4272 12.1663 16.2581 10.8387 16.2581C9.51109 16.2581 8.63936 15.4272 8.18876 14.842L3.20376 16.3378C2.21333 16.6342 1.54839 17.5286 1.54839 18.5621V24.7742H0V18.5621C0 16.8395 1.10874 15.3493 2.75844 14.8537L7.74194 13.3586V12.1826C6.33984 11.2027 5.41935 9.57913 5.41935 7.74194V5.41935C5.41935 2.43107 7.85043 0 10.8387 0C13.827 0 16.2581 2.43107 16.2581 5.41935V7.74269C16.2581 9.57913 15.3376 11.2027 13.9355 12.1833V13.3594L17.873 14.5411C19.4429 13.2006 21.4744 12.3871 23.6949 12.3871C25.9245 12.3871 28.0244 13.2025 29.6726 14.6764L34.0645 13.3586V12.1826C32.6624 11.2027 31.7419 9.57913 31.7419 7.74194V5.41935C31.7419 2.43107 34.173 0 37.1613 0C40.1496 0 42.5806 2.43107 42.5806 5.41935V7.74269C42.5806 9.57913 41.6602 11.2027 40.2581 12.1833V13.3594L45.2416 14.8545C46.8913 15.3493 48 16.8395 48 18.5621ZM14.7097 5.41935C14.7097 3.28503 12.973 1.54839 10.8387 1.54839C8.70438 1.54839 6.96774 3.28503 6.96774 5.41935H7.42137C7.91318 5.41935 8.39554 5.21976 8.74294 4.87198L9.29032 4.3246L9.8377 4.87198C10.1851 5.21976 10.6675 5.41935 11.1593 5.41935H14.7097ZM6.96774 7.74194V6.96774H7.42137C8.09577 6.96774 8.73992 6.77419 9.29032 6.4128C9.84073 6.77419 10.4849 6.96774 11.1593 6.96774H14.7097V7.74194C14.7097 9.87626 12.973 11.6129 10.8387 11.6129C8.70438 11.6129 6.96774 9.87626 6.96774 7.74194ZM9.29032 13.7227C9.48236 14.0183 10.0158 14.7097 10.8387 14.7097C11.6617 14.7097 12.1951 14.019 12.3871 13.7219V12.933C11.8964 13.08 11.3766 13.1613 10.8387 13.1613C10.3008 13.1613 9.781 13.08 9.29032 12.9337V13.7227ZM32.1196 28.2981C32.5139 29.2995 33.1943 30.1557 34.0645 30.764V31.94L29.0818 33.4351C28.9177 33.4839 28.7582 33.5474 28.6024 33.6177L27.871 33.4491V31.9238C28.6985 31.2588 29.3506 30.3856 29.7509 29.3846C30.6426 29.3063 31.4788 28.9268 32.1196 28.2981ZM26.3226 32.8344C25.6051 33.1263 24.8214 33.2903 24 33.2903C23.1786 33.2903 22.3949 33.1263 21.6774 32.8344V33.6774L24 35.4194L26.3226 33.6774V32.8344ZM20.7267 34.8999L22.6142 36.316L20.6726 37.4811L20.1816 35.0262L20.7267 34.8999ZM25.4577 46.4516L24.8555 41.0323H23.1445L22.5423 46.4516H25.4577ZM24.99 39.4839H23.0092L22.5646 38.1506L24 37.2898L25.4346 38.1506L24.99 39.4839ZM27.2733 34.8999L25.3858 36.316L27.3274 37.4803L27.8184 35.0255L27.2733 34.8999ZM31.1382 27.1108C30.8702 27.4049 30.5296 27.6109 30.1603 27.7364C30.1818 27.5258 30.1935 27.3126 30.1935 27.0968V23.3921C31.0267 23.7082 31.6467 24.4412 31.7302 25.317C31.7937 25.9835 31.5839 26.6197 31.1382 27.1108ZM24 31.7419C26.5619 31.7419 28.6452 29.6586 28.6452 27.0968V23.2258H27.3924L26.78 22.0003C25.3121 22.8047 23.6704 23.2258 21.9832 23.2258H19.3548V27.0968C19.3548 29.6586 21.4381 31.7419 24 31.7419ZM17.8397 27.7364C17.4704 27.6109 17.1298 27.4049 16.8618 27.1108C16.4161 26.6205 16.2063 25.9835 16.2698 25.3178C16.3533 24.4419 16.9733 23.7082 17.8065 23.3929V27.0968C17.8065 27.3126 17.8182 27.5258 17.8397 27.7364ZM20.129 31.9238C19.3008 31.2588 18.6487 30.3856 18.2491 29.3846C17.3574 29.3063 16.5212 28.9268 15.8804 28.2981C15.4861 29.2995 14.8049 30.1557 13.9355 30.764V31.94L18.919 33.4351C19.0823 33.4846 19.2411 33.5474 19.3976 33.6177L20.129 33.4491V31.9238ZM10.8387 20.129C12.973 20.129 14.7097 21.8657 14.7097 24H14.256C13.7642 24 13.2819 23.8004 12.9345 23.4526L12.3871 22.9052L11.8397 23.4526C11.4923 23.8004 11.01 24 10.5181 24H6.96774C6.96774 21.8657 8.70438 20.129 10.8387 20.129ZM6.96774 25.5484V26.3226C6.96774 28.4569 8.70438 30.1936 10.8387 30.1936C12.973 30.1936 14.7097 28.4569 14.7097 26.3226V25.5484H14.256C13.5817 25.5484 12.9375 25.3548 12.3871 24.9934C11.8367 25.3548 11.1925 25.5484 10.5181 25.5484H6.96774ZM10.8387 31.7419C11.3766 31.7419 11.8964 31.6607 12.3871 31.5136V32.3025C12.1951 32.5997 11.6617 33.2903 10.8387 33.2903C10.0158 33.2903 9.48236 32.5989 9.29032 32.3033V31.5144C9.781 31.6607 10.3008 31.7419 10.8387 31.7419ZM6.19355 42.5806H9.29032C10.5707 42.5806 11.6129 43.6229 11.6129 44.9032V46.4516H15.4839V40.2581H17.0323V46.4516H20.9845L21.6627 40.3416L21.2045 38.9667L19.5847 39.9383L18.6721 35.3736L14.6137 36.3104C12.8472 36.7186 11.6129 38.2693 11.6129 40.0823V41.0323H10.0645V40.0823C10.0645 37.5446 11.7917 35.3729 14.2651 34.8017L16.4244 34.3038L13.4887 33.4226C13.0381 34.0078 12.1663 34.8387 10.8387 34.8387C9.51109 34.8387 8.63937 34.0078 8.18876 33.4226L3.20375 34.9185C2.21333 35.2148 1.54839 36.1092 1.54839 37.1428V42.5806H4.64516V37.1613H6.19355V42.5806ZM44.7962 34.9185C45.7867 35.2148 46.4516 36.1092 46.4516 37.1428V42.5806H43.3548V37.1613H41.8064V42.5806H38.7097C37.4293 42.5806 36.3871 43.6229 36.3871 44.9032V46.4516H32.5161V40.2581H30.9677V46.4516H27.0155L26.3366 40.3416L26.7947 38.9667L28.4146 39.9383L29.3271 35.3736L33.3863 36.3104C35.1528 36.7186 36.3871 38.2693 36.3871 40.0823V41.0323H37.9355V40.0823C37.9355 37.5446 36.2083 35.3729 33.7349 34.8017L31.5756 34.3038L34.5113 33.4226C34.9619 34.0078 35.8337 34.8387 37.1613 34.8387C38.4889 34.8387 39.3606 34.0078 39.8112 33.4226L44.7962 34.9185ZM37.1613 33.2903C37.9842 33.2903 38.5176 32.5997 38.7097 32.3033V31.5136C38.219 31.6607 37.6992 31.7419 37.1613 31.7419C36.6234 31.7419 36.1036 31.6607 35.6129 31.5136V32.3033C35.8027 32.5966 36.3368 33.2903 37.1613 33.2903ZM37.1613 30.1936C35.027 30.1936 33.2903 28.4569 33.2903 26.3226V25.5484H33.7439C34.4183 25.5484 35.0625 25.3548 35.6129 24.9934C36.1633 25.3548 36.8075 25.5484 37.4819 25.5484H41.0323V26.3226C41.0323 28.4569 39.2956 30.1936 37.1613 30.1936ZM41.0323 24C41.0323 21.8657 39.2956 20.129 37.1613 20.129C35.027 20.129 33.2903 21.8657 33.2903 24H33.7439C34.2358 24 34.7181 23.8004 35.0655 23.4526L35.6129 22.9052L36.1603 23.4526C36.5077 23.8004 36.99 24 37.4819 24H41.0323ZM31.7419 22.5174C31.057 21.9987 30.206 21.6774 29.2863 21.6774H28.3495L27.3973 19.7729L26.6677 20.2591C25.2751 21.1875 23.6556 21.6774 21.9832 21.6774H18.7137C17.794 21.6774 16.943 21.9987 16.2581 22.5174V21.3724C16.2581 17.2723 19.5949 13.9355 23.6949 13.9355C25.6815 13.9355 27.5496 14.7089 28.954 16.1133L29.7755 16.9347L29.949 16.9929C31.021 17.3506 31.7419 18.35 31.7419 19.4803V22.5174ZM41.0323 5.41935C41.0323 3.28503 39.2956 1.54839 37.1613 1.54839C35.027 1.54839 33.2903 3.28503 33.2903 5.41935H36.8407C37.3325 5.41935 37.8149 5.21976 38.1623 4.87198L38.7097 4.3246L39.2571 4.87198C39.6045 5.21976 40.0868 5.41935 40.5786 5.41935H41.0323ZM33.2903 7.74194V6.96774H36.8407C37.5151 6.96774 38.1593 6.77419 38.7097 6.4128C39.2601 6.77419 39.9042 6.96774 40.5786 6.96774H41.0323V7.74194C41.0323 9.87626 39.2956 11.6129 37.1613 11.6129C35.027 11.6129 33.2903 9.87626 33.2903 7.74194ZM35.6129 13.7227C35.8027 14.016 36.3368 14.7097 37.1613 14.7097C37.9842 14.7097 38.5176 14.019 38.7097 13.7219V12.933C38.219 13.08 37.6992 13.1613 37.1613 13.1613C36.6234 13.1613 36.1036 13.08 35.6129 12.933V13.7227Z" fill="#892324"/>
<path d="M18 0H19.3333V1.33333H18V0Z" fill="#892324"/>
<path d="M18 3.33333H19.3333V12H18V3.33333Z" fill="#892324"/>
<path d="M28.6667 0H30.0001V1.33333H28.6667V0Z" fill="#892324"/>
<path d="M28.6667 3.33333H30.0001V12H28.6667V3.33333Z" fill="#892324"/>
<path d="M21.3333 3.33333H22.6666V8.66666H21.3333V3.33333Z" fill="#892324"/>
<path d="M21.3333 10H22.6666V11.3333H21.3333V10Z" fill="#892324"/>
<path d="M25.3333 3.33333H26.6666V8.66666H25.3333V3.33333Z" fill="#892324"/>
<path d="M25.3333 10H26.6666V11.3333H25.3333V10Z" fill="#892324"/>
</svg>
