<svg width="64" height="64" viewBox="0 0 64 64" fill="none" xmlns="http://www.w3.org/2000/svg">
<path d="M51.2189 37.1611H12.7814L8.65234 45.4192H12.3872V63.9998H51.613V45.4192H55.3479L51.2189 37.1611ZM49.9427 39.2256L52.0072 43.3547H35.735L33.6705 39.2256H49.9427ZM14.0576 39.2256H30.3298L28.2652 43.3547H11.9931L14.0576 39.2256ZM49.5485 61.9353H33.0324V54.7095H30.9679V61.9353H14.4517V45.4192H29.5415L30.9679 42.5659V51.6127H33.0324V42.5659L34.4588 45.4192H49.5485V61.9353Z" fill="#862633"/>
<path d="M16.5156 53.6777H22.7092V55.7422H16.5156V53.6777Z" fill="#862633"/>
<path d="M16.5156 57.8066H22.7092V59.8712H16.5156V57.8066Z" fill="#862633"/>
<path d="M24.7744 57.8066H26.8389V59.8712H24.7744V57.8066Z" fill="#862633"/>
<path d="M27.2329 16.7887L32.0001 15.5735L36.7672 16.7877L37.1407 11.6688L39.6729 7.34317L35.1941 5.40466L32.0001 1.45557L28.805 5.40466L24.3262 7.34317L26.8584 11.6688L27.2329 16.7887ZM30.0913 7.0967L32.0001 4.73782L33.9088 7.0977L36.7143 8.31293L35.1175 11.0407L34.8882 14.1799L32.0001 13.444L29.112 14.1789L28.8826 11.0397L27.2858 8.31141L30.0913 7.0967Z" fill="#862633"/>
<path d="M11.3339 18.8957L12.8339 16.3347L10.1766 15.1835L8.25775 12.8105L6.3389 15.1825L3.68164 16.3337L5.18164 18.8947L5.40341 21.9492L8.25775 21.2233L11.1131 21.9502L11.3339 18.8957ZM9.31067 18.2657L9.23204 19.3403L8.25775 19.0928L7.28446 19.3403L7.20483 18.2657L6.64031 17.3005L7.62418 16.8746L8.25775 16.0928L8.89031 16.8756L9.87418 17.302L9.31067 18.2657Z" fill="#862633"/>
<path d="M58.8182 18.8957L60.3182 16.3347L57.661 15.1835L55.7421 12.8105L53.8233 15.1825L51.166 16.3337L52.666 18.8947L52.8878 21.9492L55.7421 21.2233L58.5975 21.9502L58.8182 18.8957ZM56.7951 18.2657L56.7164 19.3403L55.7421 19.0928L54.7688 19.3403L54.6902 18.2657L54.1257 17.3005L55.1096 16.8746L55.7421 16.0928L56.3747 16.8756L57.3586 17.302L56.7951 18.2657Z" fill="#862633"/>
<path d="M12.8465 24.6009C14.8122 25.9119 16.5587 27.5117 18.034 29.3574L22.1227 34.4663L21.2769 27.7027C20.8354 24.1714 18.9493 20.9209 16.1025 18.7864L15.1136 18.0449L12.0879 24.0948L12.8465 24.6009ZM15.8218 21.246C17.5672 22.8977 18.7512 25.0963 19.1569 27.4749C17.853 25.9436 16.3737 24.5792 14.7431 23.4033L15.8218 21.246Z" fill="#862633"/>
<path d="M42.7237 27.7027L41.8779 34.4663L45.9666 29.3564C47.4429 27.5107 49.1884 25.9109 51.1541 24.5999L51.9117 24.0938L48.886 18.0439L47.8971 18.7874C45.0513 20.922 43.1642 24.1715 42.7237 27.7027ZM49.2575 23.4033C47.6269 24.5792 46.1466 25.9426 44.8437 27.4749C45.2504 25.0964 46.4334 22.8978 48.1788 21.2461L49.2575 23.4033Z" fill="#862633"/>
<path d="M36.1289 35.0969H38.1934V30.7718C38.1934 25.8136 39.9409 20.987 43.1163 17.177L41.5296 15.8555C38.0467 20.0354 36.1289 25.3328 36.1289 30.7718V35.0969Z" fill="#862633"/>
<path d="M43.3555 12.3872H45.42V14.4517H43.3555V12.3872Z" fill="#862633"/>
<path d="M46.4521 8.25781H48.5167V10.3223H46.4521V8.25781Z" fill="#862633"/>
<path d="M25.8066 35.0969H27.8712V30.7718C27.8712 25.3318 25.9533 20.0354 22.4715 15.8555L20.8848 17.177C24.0592 20.987 25.8066 25.8136 25.8066 30.7718V35.0969Z" fill="#862633"/>
<path d="M18.5811 12.3872H20.6456V14.4517H18.5811V12.3872Z" fill="#862633"/>
<path d="M15.4844 8.25781H17.5489V10.3223H15.4844V8.25781Z" fill="#862633"/>
<path d="M30.9678 17.5483H33.0323V19.6129H30.9678V17.5483Z" fill="#862633"/>
<path d="M30.9678 21.6777H33.0323V35.0971H30.9678V21.6777Z" fill="#862633"/>
<path d="M59.8711 27.8711H61.9356V29.9356H59.8711V27.8711Z" fill="#862633"/>
<path d="M59.8711 32H61.9356V34.0645H59.8711V32Z" fill="#862633"/>
<path d="M61.9355 29.9355H64.0001V32.0001H61.9355V29.9355Z" fill="#862633"/>
<path d="M57.8066 29.9355H59.8712V32.0001H57.8066V29.9355Z" fill="#862633"/>
<path d="M56.7744 0H58.8389V2.06452H56.7744V0Z" fill="#862633"/>
<path d="M56.7744 4.12891H58.8389V6.19342H56.7744V4.12891Z" fill="#862633"/>
<path d="M58.8389 2.06445H60.9034V4.12897H58.8389V2.06445Z" fill="#862633"/>
<path d="M54.71 2.06445H56.7745V4.12897H54.71V2.06445Z" fill="#862633"/>
<path d="M2.06445 32H4.12897V34.0645H2.06445V32Z" fill="#862633"/>
<path d="M2.06445 36.1289H4.12897V38.1934H2.06445V36.1289Z" fill="#862633"/>
<path d="M4.12891 34.0645H6.19342V36.129H4.12891V34.0645Z" fill="#862633"/>
<path d="M0 34.0645H2.06452V36.129H0V34.0645Z" fill="#862633"/>
<path d="M2.06445 0H4.12897V2.06452H2.06445V0Z" fill="#862633"/>
<path d="M2.06445 4.12891H4.12897V6.19342H2.06445V4.12891Z" fill="#862633"/>
<path d="M4.12891 2.06445H6.19342V4.12897H4.12891V2.06445Z" fill="#862633"/>
<path d="M0 2.06445H2.06452V4.12897H0V2.06445Z" fill="#862633"/>
</svg>
