<svg width="30" height="30" viewBox="0 0 30 30" fill="none" xmlns="http://www.w3.org/2000/svg">
<path d="M29.2037 10.2966L19.7041 0.797129C19.1913 0.284375 18.5074 0.00195312 17.7784 0.00195312C17.0494 0.00195312 16.3655 0.284258 15.8527 0.797012L0.795176 15.8546C0.282422 16.3674 0 17.0512 0 17.7802C0 18.5093 0.282422 19.1932 0.795176 19.7059L1.96658 20.8773C1.9667 20.8773 1.96676 20.8774 1.96688 20.8776C1.96699 20.8777 1.96711 20.8778 1.96723 20.8779L9.83988 28.7506H8.7498C8.40469 28.7506 8.12484 29.0304 8.12484 29.3755C8.12484 29.7206 8.40469 30.0005 8.7498 30.0005H12.2179C12.2187 30.0005 12.2195 30.0005 12.2203 30.0005C12.2211 30.0005 12.2219 30.0005 12.2227 30.0005L21.2493 30.0006C21.5944 30.0006 21.8742 29.7208 21.8742 29.3756C21.8742 29.0305 21.5944 28.7507 21.2493 28.7507L14.601 28.7506L29.2037 14.1478C30.2654 13.086 30.2654 11.3583 29.2037 10.2966ZM28.3198 13.264L13.2622 28.3217C12.986 28.5978 12.6169 28.75 12.2226 28.7506H12.2179C11.8237 28.7499 11.4547 28.5978 11.1786 28.3217L3.29268 20.4356L17.7533 5.97488C17.9974 5.73084 17.9974 5.3351 17.7533 5.09105C17.5092 4.84701 17.1136 4.84701 16.8694 5.09111L2.40879 19.5519L1.67895 18.822C1.40232 18.5454 1.24998 18.1755 1.24998 17.7803C1.24998 17.3851 1.40232 17.0151 1.679 16.7384L16.7365 1.6809C17.0132 1.40428 17.3832 1.25193 17.7784 1.25193C18.1736 1.25193 18.5436 1.40428 18.8203 1.68096L22.2013 5.06193L7.74047 19.5229C7.49643 19.7669 7.49643 20.1626 7.74047 20.4068C7.86252 20.5287 8.02248 20.5897 8.18238 20.5897C8.34229 20.5897 8.50225 20.5287 8.6243 20.4067L23.0851 5.94582L28.3198 11.1804C28.8942 11.7548 28.8942 12.6896 28.3198 13.264Z" fill="black"/>
<path d="M15.3985 18.0512C15.1545 17.8071 14.7588 17.8072 14.5146 18.0512L9.59661 22.9691C9.35256 23.2132 9.35256 23.6088 9.59661 23.853C9.71866 23.9751 9.87862 24.0361 10.0385 24.0361C10.1984 24.0361 10.3584 23.975 10.4804 23.853L15.3984 18.9351C15.6425 18.6909 15.6425 18.2952 15.3985 18.0512Z" fill="black"/>
<path d="M13.3813 22.7192L11.3642 24.7363C11.1202 24.9803 11.1202 25.3761 11.3642 25.6202C11.4863 25.7422 11.6463 25.8032 11.8062 25.8032C11.9662 25.8032 12.126 25.7422 12.2481 25.6202L14.2652 23.6031C14.5092 23.3591 14.5092 22.9633 14.2652 22.7192C14.0211 22.4751 13.6256 22.4751 13.3813 22.7192Z" fill="black"/>
<path d="M15.2375 20.8637L14.9724 21.1287C14.7283 21.3728 14.7283 21.7685 14.9723 22.0126C15.0943 22.1347 15.2543 22.1957 15.4142 22.1957C15.5741 22.1957 15.7341 22.1347 15.8561 22.0126L16.1212 21.7476C16.3653 21.5035 16.3653 21.1078 16.1213 20.8637C15.8774 20.6197 15.4816 20.6196 15.2375 20.8637Z" fill="black"/>
<path d="M23.852 9.59711C23.7348 9.47992 23.5758 9.41406 23.41 9.41406C23.2443 9.41406 23.0854 9.47992 22.9681 9.59711L20.3165 12.2487C20.1993 12.366 20.1334 12.5249 20.1334 12.6906C20.1334 12.8564 20.1993 13.0154 20.3165 13.1325L22.0842 14.9001C22.2063 15.0222 22.3663 15.0832 22.5262 15.0832C22.6862 15.0832 22.846 15.0221 22.9681 14.9001L25.6196 12.2487C25.8637 12.0046 25.8637 11.6089 25.6196 11.3648L23.852 9.59711ZM22.5261 13.5745L21.6422 12.6906L23.41 10.9229L24.2938 11.8068L22.5261 13.5745Z" fill="black"/>
<path d="M18.7699 4.69878C18.9299 4.69878 19.0898 4.63773 19.2118 4.51562L19.477 4.25037C19.721 4.00626 19.7209 3.61052 19.4768 3.36654C19.2328 3.12255 18.837 3.12261 18.593 3.36671L18.3278 3.63197C18.0839 3.87607 18.0839 4.27181 18.328 4.5158C18.4501 4.63785 18.6099 4.69878 18.7699 4.69878Z" fill="black"/>
<path d="M6.28215 20.98L6.01702 21.2451C5.77297 21.4891 5.77297 21.8848 6.01702 22.129C6.13907 22.251 6.29903 22.312 6.45893 22.312C6.61883 22.312 6.77879 22.251 6.90085 22.129L7.16598 21.8638C7.41003 21.6197 7.41003 21.224 7.16598 20.98C6.92188 20.7358 6.52626 20.7358 6.28215 20.98Z" fill="black"/>
</svg>
