<?xml version="1.0" encoding="UTF-8"?>
<svg width="43px" height="38px" viewBox="0 0 43 38" version="1.1" xmlns="http://www.w3.org/2000/svg" xmlns:xlink="http://www.w3.org/1999/xlink">
    <title>Group 26</title>
    <g id="Page-1" stroke="none" stroke-width="1" fill="none" fill-rule="evenodd">
        <g id="dc_05-copy-2" transform="translate(-78.000000, -2660.000000)" fill="#821517" fill-rule="nonzero">
            <g id="Group-26" transform="translate(78.000000, 2660.000000)">
                <path d="M13.5150115,3.59815242 C8.0865499,3.59815242 3.68591224,7.99879008 3.68591224,13.4272517 C3.68591224,18.8557134 8.0865499,23.256351 13.5150115,23.256351 C18.9434732,23.256351 23.3441109,18.8557134 23.3441109,13.4272517 C23.3383065,8.00119612 18.9410672,3.60395673 13.5150115,3.59815242 Z M13.5150115,21.852194 C8.86204442,21.852194 5.09006928,18.0802189 5.09006928,13.4272517 C5.09006928,8.7742846 8.86204442,5.00230947 13.5150115,5.00230947 C18.1679787,5.00230947 21.9399538,8.7742846 21.9399538,13.4272517 C21.9349235,18.0781337 18.1658935,21.8471637 13.5150115,21.852194 L13.5150115,21.852194 Z" id="Shape"></path>
                <path d="M12.1108545,9.91685912 L14.9191686,9.91685912 C15.3069159,9.91685912 15.6212471,10.2311904 15.6212471,10.6189376 C15.6212471,11.0066849 15.9355784,11.3210162 16.3233256,11.3210162 C16.7110729,11.3210162 17.0254042,11.0066849 17.0254042,10.6189376 C17.0254042,9.45569586 16.0824104,8.51270208 14.9191686,8.51270208 L14.2170901,8.51270208 L14.2170901,7.10854503 C14.2170901,6.72079777 13.9027588,6.40646651 13.5150115,6.40646651 C13.1272643,6.40646651 12.812933,6.72079777 12.812933,7.10854503 L12.812933,8.51270208 L12.1108545,8.51270208 C10.9476127,8.51270208 10.0046189,9.45569586 10.0046189,10.6189376 L10.0046189,12.0230947 C10.0046189,13.1863365 10.9476127,14.1293303 12.1108545,14.1293303 L14.9191686,14.1293303 C15.3069159,14.1293303 15.6212471,14.4436615 15.6212471,14.8314088 L15.6212471,16.2355658 C15.6212471,16.6233131 15.3069159,16.9376443 14.9191686,16.9376443 L12.1108545,16.9376443 C11.7231072,16.9376443 11.408776,16.6233131 11.408776,16.2355658 C11.408776,15.8478186 11.0944447,15.5334873 10.7066975,15.5334873 C10.3189502,15.5334873 10.0046189,15.8478186 10.0046189,16.2355658 C10.0046189,17.3988076 10.9476127,18.3418014 12.1108545,18.3418014 L12.812933,18.3418014 L12.812933,19.7459584 C12.812933,20.1337057 13.1272643,20.448037 13.5150115,20.448037 C13.9027588,20.448037 14.2170901,20.1337057 14.2170901,19.7459584 L14.2170901,18.3418014 L14.9191686,18.3418014 C16.0824104,18.3418014 17.0254042,17.3988076 17.0254042,16.2355658 L17.0254042,14.8314088 C17.0254042,13.668167 16.0824104,12.7251732 14.9191686,12.7251732 L12.1108545,12.7251732 C11.7231072,12.7251732 11.408776,12.4108419 11.408776,12.0230947 L11.408776,10.6189376 C11.408776,10.2311904 11.7231072,9.91685912 12.1108545,9.91685912 Z" id="Path"></path>
                <path d="M28.8929641,11.3180274 C28.1350585,11.3163202 27.3785064,11.3821073 26.6322713,11.5146094 C25.8709623,6.11335333 21.9074682,1.71477487 16.6143866,0.397032166 C11.321305,-0.920710534 5.75815964,1.10615699 2.5533215,5.52001825 C-0.651516635,9.93387952 -0.856530498,15.8512055 2.03514103,20.4762887 C4.92681256,25.1013719 10.3363394,27.5084027 15.7079295,26.5601521 C16.7279225,33.6018727 23.0981859,38.6014161 30.1805604,37.918638 C37.2629349,37.2358598 42.5607906,31.1114484 42.2167833,24.0045593 C41.872776,16.8976701 36.0081728,11.3135749 28.8929641,11.3180274 Z M28.8929641,16.2325744 C33.5358244,16.2289402 37.3065418,19.9822055 37.3245072,24.6250327 C37.3423447,29.26786 33.6006823,33.0500909 28.9579319,33.0822568 C24.3151816,33.1144228 20.5214727,29.3843984 20.4750426,24.7417688 C23.4239345,22.9074034 25.5419345,19.9960979 26.379523,16.6257411 C27.1919596,16.3654795 28.0398584,16.2328473 28.8929641,16.2325744 Z M13.4472366,25.3595979 C6.85553319,25.3595979 1.51190175,20.0159664 1.51190175,13.424263 C1.51190175,6.83255957 6.85553319,1.48892813 13.4472366,1.48892813 C20.0389401,1.48892813 25.3825715,6.83255957 25.3825715,13.424263 C25.3732906,20.0121183 20.035092,25.350317 13.4472366,25.3595979 Z M28.8929641,36.5928562 C22.9324301,36.5624222 17.9004191,32.155673 17.0840034,26.2512376 C17.7774198,26.0507541 18.4535939,25.794841 19.1059895,25.485972 C19.4440397,29.5885159 22.2979266,33.048058 26.2613814,34.1598897 C30.2248362,35.2717215 34.4616866,33.8012789 36.8842008,30.473131 C39.306715,27.144983 39.4038137,22.6612709 37.1276511,19.2313689 C34.8514885,15.8014669 30.6822678,14.1489835 26.674396,15.0881891 C26.7442051,14.5362073 26.7817132,13.9806191 26.7867285,13.424263 C26.7867285,13.2557642 26.7656662,13.1013069 26.7586454,12.932808 C31.2045567,12.1214742 35.7271477,13.8926818 38.4396226,17.5074944 C41.1520974,21.1223071 41.5884695,25.9597222 39.5666874,30.0016014 C37.5449052,34.0434805 33.4122985,36.5954537 28.8929641,36.5928562 L28.8929641,36.5928562 Z" id="Shape"></path>
                <path d="M30.3648961,28.1709007 L27.556582,28.1709007 C27.1688347,28.1709007 26.8545035,27.8565694 26.8545035,27.4688222 C26.8545035,27.0810749 26.5401722,26.7667436 26.1524249,26.7667436 C25.7646777,26.7667436 25.4503464,27.0810749 25.4503464,27.4688222 C25.4503464,28.632064 26.3933402,29.5750577 27.556582,29.5750577 L28.2586605,29.5750577 L28.2586605,30.9792148 C28.2586605,31.366962 28.5729918,31.6812933 28.960739,31.6812933 C29.3484863,31.6812933 29.6628176,31.366962 29.6628176,30.9792148 L29.6628176,29.5750577 L30.3648961,29.5750577 C31.5281379,29.5750577 32.4711316,28.632064 32.4711316,27.4688222 L32.4711316,26.0646651 C32.4711316,24.9014233 31.5281379,23.9584296 30.3648961,23.9584296 L27.556582,23.9584296 C27.1688347,23.9584296 26.8545035,23.6440983 26.8545035,23.256351 L26.8545035,21.852194 C26.8545035,21.4644467 27.1688347,21.1501155 27.556582,21.1501155 L30.3648961,21.1501155 C30.7526433,21.1501155 31.0669746,21.4644467 31.0669746,21.852194 C31.0669746,22.2399413 31.3813059,22.5542725 31.7690531,22.5542725 C32.1568004,22.5542725 32.4711316,22.2399413 32.4711316,21.852194 C32.4711316,20.6889522 31.5281379,19.7459584 30.3648961,19.7459584 L29.6628176,19.7459584 L29.6628176,18.3418014 C29.6628176,17.9540541 29.3484863,17.6397229 28.960739,17.6397229 C28.5729918,17.6397229 28.2586605,17.9540541 28.2586605,18.3418014 L28.2586605,19.7459584 L27.556582,19.7459584 C26.3933402,19.7459584 25.4503464,20.6889522 25.4503464,21.852194 L25.4503464,23.256351 C25.4503464,24.4195928 26.3933402,25.3625866 27.556582,25.3625866 L30.3648961,25.3625866 C30.7526433,25.3625866 31.0669746,25.6769179 31.0669746,26.0646651 L31.0669746,27.4688222 C31.0669746,27.8565694 30.7526433,28.1709007 30.3648961,28.1709007 Z" id="Path"></path>
            </g>
        </g>
    </g>
</svg>