<?xml version="1.0" encoding="UTF-8"?>
<svg width="1000px" height="786px" viewBox="0 0 1000 786" version="1.1" xmlns="http://www.w3.org/2000/svg" xmlns:xlink="http://www.w3.org/1999/xlink">
    <!-- Generator: Sketch 58 (84663) - https://sketch.com -->
    <title>ic_02</title>
    <desc>Created with Sketch.</desc>
    <g id="Page-1" stroke="none" stroke-width="1" fill="none" fill-rule="evenodd">
        <g id="ic_02" fill="#495057">
            <path d="M1000,89.2901 C1000,118.8701 991.07,146.7701 972.66,173.5501 C954.24,200.3401 931.92,223.2201 904.58,242.1901 C764.51,339.2901 677.46,399.5601 643.42,423.5501 L619.42,440.8501 L589.29,462.0601 C564.73,478.8001 524,502.2401 500.56,500.0001 L500,500.0001 L499.44,500.0001 C482.14,500.0001 462.05,493.3101 439.17,479.9101 L410.16,462.0601 L380.02,440.8501 L356.58,423.5501 C322.54,399.5601 274,366.0801 210.38,321.9901 L95.98,242.1901 C73.1,226.5701 51.34,205.3601 30.69,178.0201 C10.04,150.6701 0,125.0001 0,101.5701 C0,43.5301 31.81,0.0001 89.29,0.0001 L910.71,0.0001 C934.71,0.0001 955.92,8.9301 973.21,26.2301 C991.07,43.5301 1000,64.7401 1000,89.2901 M1000,253.3501 L1000,696.4301 C1000,720.9901 991.07,742.1901 973.77,759.4901 C956.47,776.7901 935.27,785.7201 910.71,785.7201 L89.29,785.7201 C64.73,785.7201 43.53,776.7901 26.23,759.4901 C8.93,742.1901 0,720.9901 0,696.4301 L0,253.3501 C16.18,271.7701 35.16,287.9501 56.36,301.9001 C190.85,393.4201 283.48,457.5901 333.71,494.4201 C354.91,510.0501 372.21,522.3301 385.04,531.2501 C398.44,539.6201 416.29,548.5501 438.06,558.0401 C459.82,566.9701 480.47,571.4301 499.44,571.4301 L500,571.4301 L500.56,571.4301 C519.53,571.4301 540.18,566.9701 561.939,558.0401 C583.71,548.5501 601.56,539.6201 614.4,531.2501 C627.79,522.3301 645.09,510.0501 666.29,494.4201 C729.35,448.6701 821.99,384.4901 944.2,301.9001 C965.4,287.3901 983.82,271.2101 1000,253.3501" id="Fill-1"></path>
        </g>
    </g>
</svg>