<svg width="28" height="28" viewBox="0 0 28 28" fill="none" xmlns="http://www.w3.org/2000/svg">
<path d="M14 28C21.732 28 28 21.732 28 14C28 6.26801 21.732 0 14 0C6.26801 0 0 6.26801 0 14C0 21.732 6.26801 28 14 28Z" fill="#7E7FC2"/>
<path fill-rule="evenodd" clip-rule="evenodd" d="M14.3176 5.17509C14.2778 5.27137 13.0749 7.31254 11.6445 9.71103C10.214 12.1095 9.03181 14.1033 9.01718 14.1418C8.99819 14.1919 9.77528 14.6804 11.742 15.8548L14.4935 17.4977L17.2442 15.8539C19.2204 14.6729 19.9875 14.1902 19.9683 14.1396C19.8689 13.8778 14.5199 5 14.4615 5C14.4222 5 14.3574 5.07877 14.3176 5.17509ZM9.02371 15.3234C9.12973 15.5066 14.4708 23.1007 14.4931 23.1C14.5301 23.0989 19.9907 15.3009 19.9697 15.2795C19.9497 15.2594 14.8455 18.2973 14.6326 18.456L14.5021 18.5533L11.8593 16.9766C10.4058 16.1094 9.16291 15.3648 9.09734 15.3221C8.98862 15.2514 8.98209 15.2515 9.02371 15.3234Z" fill="#E9ECFF"/>
</svg>
