<svg width="16" height="16" viewBox="0 0 16 16" fill="none" xmlns="http://www.w3.org/2000/svg">
<path fill-rule="evenodd" clip-rule="evenodd" d="M13.0001 0C13.8229 0 14.5313 0.291574 15.1146 0.885363C15.7084 1.4687 16 2.1771 16 2.99993V12.9999C16 13.8229 15.7084 14.5313 15.1146 15.1146C14.5313 15.7082 13.8229 16 13.0001 16H11.0417V9.80209H13.1147L13.4272 7.3853H11.0417V5.84362C11.0417 5.06242 11.2917 4.67695 12.2396 4.67695L13.5104 4.66668V2.5103C13.0729 2.44777 12.4584 2.41659 11.6563 2.41659C10.7084 2.41659 9.95833 2.6979 9.38544 3.24988C8.82302 3.80204 8.54171 4.5937 8.54171 5.60413V7.3853H6.45831V9.80209H8.54171V16H2.99993C2.1771 16 1.4687 15.7082 0.875096 15.1146C0.291574 14.5313 0 13.8229 0 12.9999V2.99993C0 2.1771 0.291574 1.4687 0.875096 0.885363C1.4687 0.291574 2.1771 0 2.99993 0H13.0001" fill="#CCD9DE"/>
</svg>
