<?xml version="1.0" encoding="UTF-8"?>
<svg width="38px" height="40px" viewBox="0 0 38 40" version="1.1" xmlns="http://www.w3.org/2000/svg" xmlns:xlink="http://www.w3.org/1999/xlink">
    <title>Group 19</title>
    <g id="Page-1" stroke="none" stroke-width="1" fill="none" fill-rule="evenodd">
        <g id="dc_05-copy-2" transform="translate(-1046.000000, -2810.000000)" fill="#821517" fill-rule="nonzero">
            <g id="Group-19" transform="translate(1046.000000, 2810.000000)">
                <path d="M35.4255,14.8292683 L2.47162195,14.8292683 C2.01685772,14.8292683 1.64774797,15.198378 1.64774797,15.6531423 L1.64774797,38.7209187 C1.64774797,39.1756057 2.01685772,39.5447154 2.47162195,39.5447154 L35.4255772,39.5447154 C35.8803415,39.5447154 36.2494512,39.1756057 36.2494512,38.7208415 L36.2494512,15.6531423 C36.2494512,15.198378 35.8802642,14.8292683 35.4255,14.8292683 Z M34.6017033,37.8970447 L3.2954187,37.8970447 L3.2954187,16.476939 L34.6017033,16.476939 L34.6017033,37.8970447 L34.6017033,37.8970447 Z" id="Shape"></path>
                <path d="M37.073248,8.23850813 L0.823873984,8.23850813 C0.369109756,8.23850813 3.80140364e-13,8.60761789 3.80140364e-13,9.06238211 L3.80140364e-13,15.6531423 C3.80140364e-13,16.1079065 0.369109756,16.4770163 0.823873984,16.4770163 L37.0731707,16.4770163 C37.527935,16.4770163 37.8970447,16.1079065 37.8970447,15.6531423 L37.8970447,9.06238211 C37.8970447,8.60754065 37.5280122,8.23850813 37.073248,8.23850813 Z M36.249374,14.8292683 L1.64774797,14.8292683 L1.64774797,9.88617886 L36.249374,9.88617886 L36.249374,14.8292683 Z" id="Shape"></path>
                <path d="M18.948561,8.23850813 C18.4937967,8.23850813 18.124687,8.60761789 18.124687,9.06238211 L18.124687,38.7209187 C18.124687,39.1756829 18.4937967,39.5447927 18.948561,39.5447927 C19.4033252,39.5447927 19.772435,39.1756829 19.772435,38.7209187 L19.772435,9.06238211 C19.772435,8.60754065 19.4033252,8.23850813 18.948561,8.23850813 Z" id="Path"></path>
                <path d="M19.7905081,8.86790244 C18.9436179,4.89528049 13.8917805,0.632715447 10.5255366,0.0626382114 C10.3179268,0.0213943089 10.105374,-8.61533067e-14 9.8862561,-8.61533067e-14 C8.06882114,-8.61533067e-14 6.5908374,1.47798374 6.5908374,3.2954187 C6.5908374,4.05503252 6.85614228,4.79649593 7.3372439,5.38472358 C7.34380894,5.38966667 7.34875203,5.39793089 7.35369512,5.40449593 C9.80052439,8.53015041 17.9451138,9.72807724 18.8710935,9.85489837 C18.9090163,9.85984146 18.9468618,9.8631626 18.9831626,9.8631626 C19.2121667,9.8631626 19.4296626,9.7692439 19.5878415,9.59955691 C19.7707358,9.40337805 19.8465813,9.12988618 19.7905081,8.86790244 Z M8.6290122,4.35818293 C8.61418293,4.33678862 8.59773171,4.31863821 8.58120325,4.3004878 C8.35714228,4.01216667 8.23850813,3.66445122 8.23850813,3.2954187 C8.23850813,2.38589024 8.97834959,1.64774797 9.88617886,1.64774797 C9.99492683,1.64774797 10.1020528,1.6592561 10.228874,1.68234959 C12.6987967,2.10089024 16.4275081,5.08976016 17.7670854,8.00618293 C14.8985488,7.47727236 10.0559431,6.24312195 8.6290122,4.35818293 Z" id="Shape"></path>
                <path d="M28.0108659,-1.82076576e-13 C27.791748,-1.82076576e-13 27.5791951,0.0213943089 27.3946016,0.057695122 C24.0069634,0.632715447 18.955126,4.89528049 18.1082358,8.86790244 C18.0522398,9.12988618 18.1280081,9.40337805 18.3109024,9.59947967 C18.4674593,9.76754472 18.6865772,9.86308537 18.9139593,9.86308537 C18.9501829,9.86308537 18.9881057,9.85976423 19.0243293,9.85652033 C19.9503089,9.72962195 28.0948984,8.53177236 30.5417276,5.40611789 C30.5482927,5.39955285 30.5532358,5.39128862 30.559878,5.38472358 C31.0409797,4.7964187 31.3062846,4.05495528 31.3062846,3.2954187 C31.3062846,1.47798374 29.8283008,-1.82076576e-13 28.0108659,-1.82076576e-13 Z M29.3158415,4.30210976 C29.2993902,4.32026016 29.2828618,4.33833333 29.2680325,4.35980488 C27.8428008,6.2415 23.0001951,7.47889431 20.1298821,8.00780488 C21.4710813,5.08806098 25.2014919,2.10081301 27.691187,1.67902846 C27.7949919,1.6592561 27.9021179,1.64774797 28.0108659,1.64774797 C28.9187724,1.64774797 29.6585366,2.38589024 29.6585366,3.2954187 C29.6585366,3.66445122 29.5399797,4.01046748 29.3158415,4.30210976 Z" id="Shape"></path>
            </g>
        </g>
    </g>
</svg>