<svg width="45" height="30" viewBox="0 0 45 30" fill="none" xmlns="http://www.w3.org/2000/svg">
<path fill-rule="evenodd" clip-rule="evenodd" d="M44.6 2.04445C44.35 1.86867 44.0296 1.8256 43.7422 1.93186L36.0994 4.7114C35.1518 5.05566 34.3974 5.74965 33.9753 6.66511C33.8967 6.83579 33.8449 7.01308 33.7931 7.19015L33.7923 7.19316C32.4799 6.82006 30.0409 6.04083 27.617 4.79199C23.9544 2.90472 21.1562 3.83689 18.7562 5.66747C17.5402 5.69137 15.8641 5.83516 14.2165 5.98036C13.1655 6.07308 12.1723 6.15842 11.3668 6.20755C11.3471 5.72381 11.2339 5.24375 11.025 4.79023C10.603 3.87468 9.8486 3.1807 8.90096 2.83652L1.25798 0.0568112C0.971457 -0.0484814 0.649161 -0.00541517 0.400167 0.169399C0.149239 0.345267 0 0.63179 0 0.93756V19.6875C0 20.2057 0.419327 20.625 0.937531 20.625H3.67586C4.8405 20.625 5.92402 20.0757 6.62442 19.1887C6.99751 19.4724 7.43943 19.8046 7.90288 20.1526L8.08772 20.2916C9.1291 21.0749 10.2239 21.8984 10.72 22.3142C14.2109 25.2365 18.4077 28.3923 19.2435 28.9416C20.0244 29.4543 21.4307 30 22.5 30C22.9184 30 23.9722 30 24.712 29.3747C25.4746 29.674 26.2967 29.6594 27.0612 29.3225C27.8239 28.9864 28.4409 28.3529 28.7998 27.5829C29.5322 27.733 30.3736 27.6232 31.1362 27.2405C31.8512 26.8825 32.3777 26.3405 32.6596 25.707C33.3371 25.7692 34.0604 25.5486 34.7076 25.0533C35.6324 24.3464 36.0559 23.3024 35.9361 22.2725L38.3141 20.9569C39.0106 21.9009 40.1175 22.4999 41.3241 22.4999H44.0625C44.5807 22.4999 45 22.0806 45 21.5623V2.81261C45.0001 2.50675 44.8508 2.22023 44.6 2.04445ZM5.43183 17.5333C5.15901 18.2611 4.45316 18.75 3.67586 18.75H1.87497V2.27604L8.25989 4.59784C8.73415 4.7709 9.11138 5.11789 9.32187 5.57562C9.53334 6.03336 9.55171 6.54611 9.37496 7.01755L5.43183 17.5333ZM32.6093 23.7452C32.8071 23.9429 33.252 23.8074 33.5697 23.5639C33.7712 23.4101 34.3946 22.8461 33.9451 22.0614C33.1376 20.6506 30.0843 18.1347 27.3908 15.9155L27.389 15.914C25.8424 14.6393 24.37 13.4258 23.2718 12.3935C22.6219 12.7157 22.0258 12.9409 21.1442 13.0682C19.7782 14.7481 16.9428 15.552 15.4111 14.5934C14.6375 14.11 14.1788 13.4115 14.0827 12.5728C13.8731 10.7303 15.4626 8.76464 16.5317 7.66715C15.8362 7.72129 15.1083 7.78378 14.3811 7.84785C13.0956 7.96123 11.8808 8.06626 10.9697 8.10607L7.45947 17.4678C7.8693 17.7831 8.42539 18.2008 9.02893 18.6539C10.1551 19.4998 11.3855 20.4254 11.9248 20.8777C15.4889 23.8624 19.6162 26.9421 20.2735 27.3743C20.8127 27.7286 21.8793 28.125 22.5 28.125C22.6577 28.125 22.8237 28.114 22.9819 28.0948C21.5663 26.7584 19.7042 24.7848 19.0742 24.1105C18.7207 23.7324 18.7409 23.1391 19.119 22.7857C19.4962 22.4323 20.0913 22.4514 20.4438 22.8305C20.9751 23.3993 23.677 26.2753 25.0233 27.4168C25.5493 27.8056 26.0097 27.7385 26.304 27.6077C26.7029 27.4317 27.0138 27.0686 27.1663 26.6302C25.6138 25.2451 22.8494 22.2633 22.8186 22.23C22.468 21.8491 22.4936 21.2559 22.8745 20.9052C23.2563 20.5554 23.8486 20.5792 24.1992 20.961C24.8374 21.655 27.6581 24.6524 28.7824 25.5506C28.7861 25.5535 28.7891 25.5569 28.7919 25.5604C28.7939 25.563 28.7958 25.5657 28.7977 25.5684L28.8029 25.5758C28.8053 25.5789 28.808 25.582 28.811 25.5847C28.8129 25.5864 28.8149 25.5875 28.8171 25.5885C28.8191 25.5894 28.8211 25.5901 28.8232 25.5908C28.8256 25.5917 28.828 25.5925 28.8303 25.5936C28.8322 25.5946 28.834 25.5957 28.8356 25.5972C29.07 25.8151 29.6962 25.8655 30.2967 25.5643C30.4905 25.4671 30.8722 25.2129 30.9767 24.8012C29.5772 23.5276 26.0805 19.8858 25.645 19.4312C25.2861 19.0577 25.2989 18.4644 25.6733 18.1064C26.046 17.7466 26.6401 17.7604 26.9981 18.1348C28.8538 20.0702 31.8568 23.1427 32.527 23.6719C32.5375 23.6803 32.5449 23.6906 32.5523 23.701C32.5586 23.7099 32.565 23.7188 32.5732 23.7264C32.5783 23.7311 32.5846 23.7333 32.591 23.7355C32.5976 23.7378 32.6042 23.74 32.6093 23.7452ZM35.178 20.5489C33.9289 18.8779 31.2212 16.6422 28.5828 14.4681C26.8241 13.0188 25.1633 11.6501 24.1004 10.5872C23.8074 10.296 23.3579 10.2301 22.9953 10.4233C22.0404 10.9351 21.6101 11.1466 20.5316 11.2546C20.2442 11.2838 19.986 11.4432 19.8322 11.6876C19.097 12.854 17.0535 13.4088 16.4053 13.0041C16.0373 12.7734 15.9659 12.539 15.9458 12.3605C15.8551 11.5631 16.6626 10.1825 18.0021 8.84216C21.3191 5.52517 23.6903 4.8761 26.7582 6.45813C29.673 7.96097 32.5497 8.81069 33.7574 9.13167C33.7667 9.16914 33.7753 9.20672 33.7839 9.24429L33.784 9.24446C33.8077 9.34764 33.8313 9.45077 33.8691 9.55169L37.5092 19.2593L35.178 20.5489ZM41.3242 20.625H43.125V4.15101L36.7401 6.47281C36.2659 6.64586 35.8887 6.99285 35.6781 7.45059C35.4667 7.90841 35.4484 8.42107 35.625 8.89348L39.5683 19.4082C39.8411 20.1361 40.5469 20.625 41.3242 20.625Z" fill="#862632"/>
</svg>
