<?xml version="1.0" encoding="UTF-8"?>
<svg width="48px" height="48px" viewBox="0 0 48 48" version="1.1" xmlns="http://www.w3.org/2000/svg" xmlns:xlink="http://www.w3.org/1999/xlink">
    <title>Group 2 Copy 5</title>
    <g id="Page-1" stroke="none" stroke-width="1" fill="none" fill-rule="evenodd">
        <g id="dc_05-copy-2" transform="translate(-1046.000000, -2954.000000)" fill="#83181A" fill-rule="nonzero">
            <g id="Group-2-Copy-5" transform="translate(1046.000000, 2954.000000)">
                <path d="M20.25,34.3125 C20.767456,34.3125 21.1875,33.892456 21.1875,33.375 C21.1875,32.857544 20.767456,32.4375 20.25,32.4375 C19.7325439,32.4375 19.3125,32.857544 19.3125,33.375 C19.3125,33.892456 19.7325439,34.3125 20.25,34.3125 Z" id="Path"></path>
                <path d="M0.274658203,36.4753418 L11.5246582,47.7253418 C11.8908691,48.0915527 12.4841308,48.0915527 12.8503417,47.7253418 L19.0378417,41.5378418 C19.4040526,41.1716308 19.4040526,40.5783692 19.0378417,40.2121583 L18.7631835,39.9375 L32.2770995,39.9375 C33.4639892,39.9375 34.5966796,39.4925537 35.4700927,38.6817627 L46.8435058,28.0224609 C47.932251,27.0113526 48.2929687,25.4051513 47.7407226,24.026001 C47.3415526,23.0277099 46.5263671,22.263794 45.5046386,21.9301758 C44.4825439,21.5958252 43.3740234,21.7313232 42.4621582,22.3011474 C42.4562988,22.3048096 39.9371338,23.9578857 39.9371338,23.9578857 C39.9199218,18.8759766 36.8485107,13.4567871 32.6206054,11.0170898 C32.8619385,10.7398682 33.0516357,10.4117432 33.1724853,10.0444336 C33.65625,8.57263181 32.8520507,6.97961428 31.3780517,6.49291988 C31.3319091,6.47753906 31.2857666,6.46398928 31.239624,6.44970703 L33.6529541,2.114502 C33.791748,1.86511228 33.8096924,1.56591797 33.7009276,1.30224609 C33.5925292,1.03820803 33.369873,0.837890625 33.095581,0.758422875 C31.3652343,0.255249 29.5667724,0 27.75,0 C25.9335937,0 24.1347656,0.255249 22.4044189,0.758056688 C22.130127,0.837890625 21.9074707,1.03784175 21.798706,1.30187991 C21.6903075,1.56591797 21.7078857,1.86511228 21.8470458,2.114502 L24.260376,6.44970703 C24.213501,6.46435547 24.166626,6.47827144 24.119751,6.49365234 C22.6479492,6.97961428 21.8441161,8.57226562 22.3278808,10.0451661 C22.4487304,10.4117432 22.6398926,10.7387695 22.881958,11.0163574 C18.5910645,13.4923096 15.5625,18.9671631 15.5625,24 C15.5625,24.1373291 15.5657958,24.2728271 15.5701904,24.4072266 C13.8911132,24.8653565 12.329956,25.6999511 11.0170898,26.8494873 L8.1679687,29.3422852 L7.7878417,28.9621583 C7.42163077,28.5959473 6.82836914,28.5959473 6.4621582,28.9621583 L0.274658203,35.1496583 C-0.0915527344,35.5158692 -0.0915527344,36.1091308 0.274658203,36.4753418 Z M24.0780029,2.26721194 C25.2791747,2.00646975 26.5096435,1.875 27.75,1.875 C28.9903564,1.875 30.2208252,2.00646975 31.4223632,2.26721194 L29.3331299,6.01977544 C28.2799072,5.87292478 27.2193603,5.87292478 26.1672363,6.01977544 L24.0780029,2.26721194 Z M24.704956,8.27490234 C26.628662,7.64538572 28.7259521,7.59777834 30.7924804,8.27416988 C31.2843017,8.43640134 31.5527343,8.96813963 31.3912353,9.45886228 C31.2696533,9.82836919 30.9400635,10.0792237 30.5581054,10.1015625 C28.7094726,9.51379397 26.7894286,9.51269531 24.9415283,10.0997315 C24.9415283,10.0997315 24.9415283,10.0997315 24.941162,10.0997315 C24.5559082,10.0755615 24.2288818,9.82360838 24.1087646,9.45922856 C23.9472656,8.96777344 24.2156982,8.43603516 24.704956,8.27490234 L24.704956,8.27490234 Z M25.2235107,11.9827881 C26.849121,11.3972168 28.5333252,11.3833008 30.1629638,11.9432373 C34.5186767,13.4410401 38.0625,18.8496094 38.0625,24 C38.0625,24.4365234 38.0350341,24.8525391 37.9808349,25.2414551 L33.4746093,28.197876 C32.7769775,27.3336182 31.7197265,26.8125 30.5625,26.8125 L28.6875,26.8125 L28.6875,25.7138672 C29.7788085,25.3267823 30.5625,24.2845459 30.5625,23.0625 C30.5625,21.5115967 29.3009033,20.25 27.75,20.25 C27.2332763,20.25 26.8125,19.8295898 26.8125,19.3125 C26.8125,18.7954102 27.2332763,18.375 27.75,18.375 C28.0821533,18.375 28.4326171,18.5445557 28.764038,18.8649902 C29.1361083,19.2249756 29.7297363,19.2150879 30.0897216,18.8433838 C30.449707,18.4713135 30.4398193,17.8776855 30.067749,17.5177002 C29.592041,17.0570068 29.1159667,16.7966308 28.6875,16.6545411 L28.6875,15.5625 C28.6875,15.0446777 28.2678223,14.625 27.75,14.625 C27.2321776,14.625 26.8125,15.0446777 26.8125,15.5625 L26.8125,16.6611328 C25.7215575,17.0482177 24.9375,18.0904541 24.9375,19.3125 C24.9375,20.8634033 26.1990966,22.125 27.75,22.125 C28.2670898,22.125 28.6875,22.5454102 28.6875,23.0625 C28.6875,23.5795898 28.2670898,24 27.75,24 C27.3493651,24 26.9172363,23.7480469 26.5327148,23.2906494 C26.1994629,22.8944092 25.6080322,22.8431396 25.2117919,23.1763916 C24.8155517,23.5096435 24.7642822,24.1010742 25.0975341,24.4973145 C25.5985107,25.0935058 26.1881103,25.5087891 26.8125,25.7182617 L26.8125,26.8125 L26.5004882,26.8125 C26.0397948,26.8125 25.8328857,26.512207 25.5084228,26.3023682 C23.5275879,24.817749 21.0739745,24 18.599121,24 C18.2120361,24 17.8242187,24.0201416 17.4382323,24.0593261 C17.4382323,24.0395508 17.4375,24.0201416 17.4375,24 C17.4375,18.9217529 20.9304198,13.5311279 25.2235107,11.9827881 L25.2235107,11.9827881 Z M12.2519531,28.2601318 C14.0134276,26.7176513 16.2769775,25.875 18.599121,25.875 C20.6711426,25.875 22.7252197,26.5594482 24.3826904,27.802002 C24.6218261,27.9418945 25.2875976,28.6875 26.500122,28.6875 L30.5625,28.6875 C31.6296386,28.6875 32.4375,29.5550537 32.4375,30.5625 C32.4375,31.5963135 31.5963135,32.4375 30.5625,32.4375 L24,32.4375 C23.4821776,32.4375 23.0625,32.8571777 23.0625,33.375 C23.0625,33.8928223 23.4821776,34.3125 24,34.3125 L30.5625,34.3125 C32.630127,34.3125 34.3125,32.630127 34.3125,30.5625 C34.3125,30.3475342 34.293457,30.135498 34.2575683,29.9267578 L43.463745,23.8864746 C43.9017333,23.6158447 44.4331054,23.5524902 44.9223632,23.7121582 C45.4145507,23.8732911 45.807495,24.241333 45.9997558,24.7225342 C46.2703857,25.3978271 46.1004638,26.1540527 45.564331,26.6517334 L34.1912841,37.310669 C33.6690674,37.7955322 32.9893799,38.0625 32.2770995,38.0625 L16.8881835,38.0625 L9.49694817,30.6708984 L12.2519531,28.2601318 Z M7.12499995,30.9506836 L17.0493164,40.875 L12.1875,45.7368164 L2.26318355,35.8125 L7.12499995,30.9506836 Z" id="Shape"></path>
            </g>
        </g>
    </g>
</svg>