<?xml version="1.0" encoding="UTF-8"?>
<svg width="34px" height="38px" viewBox="0 0 34 38" version="1.1" xmlns="http://www.w3.org/2000/svg" xmlns:xlink="http://www.w3.org/1999/xlink">
    <title>Group 15</title>
    <g id="Page-1" stroke="none" stroke-width="1" fill="none" fill-rule="evenodd">
        <g id="dc_05-copy-2" transform="translate(-746.000000, -2507.000000)" fill="#821517" fill-rule="nonzero">
            <g id="Group-15" transform="translate(746.000000, 2507.000000)">
                <path d="M17.170852,20.7268026 C17.1005875,20.7115939 17.0284979,20.7088563 16.9573209,20.7195024 C16.2440301,20.6364626 15.7059442,20.032979 15.7047274,19.3151255 C15.7047274,18.9711033 15.4257988,18.6921747 15.0817766,18.6921747 C14.7377545,18.6921747 14.4588258,18.9711033 14.4588258,19.3151255 C14.4606509,20.51388 15.2624567,21.5638928 16.4183225,21.8811475 L16.4183225,22.5040984 C16.4183225,22.8481205 16.6972511,23.1270492 17.0412733,23.1270492 C17.3852955,23.1270492 17.6642241,22.8481205 17.6642241,22.5040984 L17.6642241,21.9188653 C18.9983366,21.6396325 19.9050829,20.3970767 19.7648581,19.0413678 C19.6243291,17.685659 18.4821512,16.6554175 17.1191422,16.6551134 C16.3380202,16.6551134 15.7047274,16.0218205 15.7047274,15.2406986 C15.7047274,14.4595767 16.3380202,13.826284 17.1191422,13.826284 C17.9002641,13.826284 18.5335569,14.4595767 18.5335569,15.2406986 C18.5335569,15.5847208 18.8124855,15.8636494 19.1565077,15.8636494 C19.5005298,15.8636494 19.7794585,15.5847208 19.7794585,15.2406986 C19.7776334,13.9820217 18.8958295,12.8964204 17.6642241,12.6366547 L17.6642241,12.0696721 C17.6642241,11.72565 17.3852955,11.4467213 17.0412733,11.4467213 C16.6972511,11.4467213 16.4183225,11.72565 16.4183225,12.0696721 L16.4183225,12.6746766 C15.132878,13.0256948 14.3055215,14.2737257 14.4825515,15.5944544 C14.6595815,16.9151831 15.7865506,17.901015 17.1191422,17.9007108 C17.8899221,17.9007108 18.5186523,18.5178823 18.5326444,19.2883581 C18.5469405,20.0588339 17.9410235,20.6988185 17.170852,20.7268026 L17.170852,20.7268026 Z" id="Path"></path>
                <path d="M8.08574688,17.3258197 C8.08574688,22.3149013 12.1300604,26.3592149 17.1191422,26.3592149 C22.1082239,26.3592149 26.1525374,22.3149013 26.1525374,17.3258197 C26.1525374,12.336738 22.1082239,8.29242448 17.1191422,8.29242448 C12.1324938,8.29789959 8.09152623,12.3391714 8.08574688,17.3258197 Z M17.1191422,9.53832611 C21.4201796,9.53832611 24.9066358,13.0247823 24.9066358,17.3258197 C24.9066358,21.6268571 21.4201796,25.1133132 17.1191422,25.1133132 C12.8181048,25.1133132 9.33164852,21.6268571 9.33164852,17.3258197 C9.33651532,13.0269115 12.820234,9.54319292 17.1191422,9.53832611 Z" id="Shape"></path>
                <path d="M29.2234903,27.8949955 L24.3436075,30.2006436 C23.6698594,28.9474417 22.3774189,28.1498943 20.9550957,28.1097432 L16.4502609,27.9859439 C15.73697,27.9655642 15.0370629,27.7848841 14.4028575,27.4572874 L13.9444656,27.2197266 C11.5974497,25.9963339 8.79995034,25.9993757 6.45536778,27.2276351 L6.48396029,26.189181 C6.49338974,25.8451588 6.22236961,25.5586257 5.87834744,25.5491964 L0.938542109,25.41323 C0.59452001,25.4038006 0.308291084,25.6748207 0.298861633,26.0188429 L0.000227003443,36.8590388 C-0.00896359623,37.203061 0.262056453,37.489594 0.606078629,37.4990234 L5.54588396,37.6349898 L5.56291777,37.6349898 C5.90055221,37.6349898 6.17674337,37.366403 6.18586859,37.0290727 L6.20016484,36.510454 L7.48348005,35.8233222 C7.98719419,35.5523021 8.57607739,35.487817 9.12633031,35.6435547 L16.7897204,37.7943776 C16.8031041,37.7983318 16.8164878,37.8013736 16.8301757,37.8044153 C17.3840788,37.9203061 17.948628,37.9784035 18.5143938,37.9781006 C19.7128441,37.9787077 20.8973024,37.720463 21.9865538,37.2203989 C22.0133212,37.2082319 22.0391761,37.1939357 22.0638143,37.1778144 L33.1750303,29.9907627 C33.4518298,29.8116035 33.5412573,29.4481141 33.3791319,29.1609727 C32.5542088,27.6972816 30.7245949,27.1397285 29.2234903,27.8949955 L29.2234903,27.8949955 Z M1.26309707,36.270764 L1.52712115,26.6758613 L5.22132899,26.7774558 L4.95730492,36.3726626 L1.26309707,36.270764 Z M21.4253505,36.1077261 C20.072075,36.7185099 18.5606285,36.8870229 17.1060626,36.5898437 L9.46335644,34.444496 C8.60314896,34.20146 7.6824106,34.3021421 6.89550932,34.7252497 L6.23970758,35.0765721 L6.41521673,28.6971055 C8.49334173,27.3149334 11.1585248,27.1728836 13.3717036,28.3260118 L13.8300957,28.5635726 C14.6312931,28.9772509 15.5149221,29.2053823 16.4161932,29.2315413 L20.9213322,29.3553407 C22.1867011,29.3918417 23.261352,30.2928087 23.5180759,31.5326268 L16.8076667,31.3473841 C16.4636446,31.3379546 16.1774157,31.609279 16.1676821,31.9529969 C16.1582527,32.2970191 16.4295769,32.5835521 16.773295,32.5929816 L24.1787445,32.796779 L24.1960825,32.796779 C24.5334128,32.7964747 24.8092997,32.527888 24.8184249,32.190862 C24.8260293,31.920146 24.8059538,31.6491259 24.7581983,31.3826684 L29.7634012,29.0177062 C29.768268,29.015577 29.7731348,29.0131436 29.7780016,29.0107102 C30.4879466,28.6514792 31.346329,28.7716284 31.9303454,29.3121478 L21.4253505,36.1077261 Z" id="Shape"></path>
                <path d="M17.742093,6.54098361 L17.742093,0.62295082 C17.742093,0.278928643 17.4631643,-5.99520433e-14 17.1191422,-5.99520433e-14 C16.77512,-5.99520433e-14 16.4961913,0.278928643 16.4961913,0.62295082 L16.4961913,6.54098361 C16.4961913,6.88500578 16.77512,7.16393443 17.1191422,7.16393443 C17.4631643,7.16393443 17.742093,6.88500578 17.742093,6.54098361 Z" id="Path"></path>
                <path d="M22.4142241,6.54098361 L22.4142241,3.73770492 C22.4142241,3.39368274 22.1352955,3.1147541 21.7912733,3.1147541 C21.4472511,3.1147541 21.1683225,3.39368274 21.1683225,3.73770492 L21.1683225,6.54098361 C21.1683225,6.88500578 21.4472511,7.16393443 21.7912733,7.16393443 C22.1352955,7.16393443 22.4142241,6.88500578 22.4142241,6.54098361 Z" id="Path"></path>
                <path d="M13.0699618,6.54098361 L13.0699618,3.73770492 C13.0699618,3.39368274 12.7910332,3.1147541 12.447011,3.1147541 C12.1029888,3.1147541 11.8240602,3.39368274 11.8240602,3.73770492 L11.8240602,6.54098361 C11.8240602,6.88500578 12.1029888,7.16393443 12.447011,7.16393443 C12.7910332,7.16393443 13.0699618,6.88500578 13.0699618,6.54098361 Z" id="Path"></path>
            </g>
        </g>
    </g>
</svg>