<svg width="48" height="48" viewBox="0 0 48 48" fill="none" xmlns="http://www.w3.org/2000/svg">
<path d="M20.25 34.3125C20.7675 34.3125 21.1875 33.8925 21.1875 33.375C21.1875 32.8575 20.7675 32.4375 20.25 32.4375C19.7325 32.4375 19.3125 32.8575 19.3125 33.375C19.3125 33.8925 19.7325 34.3125 20.25 34.3125Z" fill="#83181A"/>
<path fill-rule="evenodd" clip-rule="evenodd" d="M11.5247 47.7253L0.274658 36.4753C-0.0915527 36.1091 -0.0915527 35.5159 0.274658 35.1497L6.46216 28.9622C6.82837 28.5959 7.42163 28.5959 7.78784 28.9622L8.16797 29.3423L11.0171 26.8495C12.33 25.7 13.8911 24.8654 15.5702 24.4072C15.5658 24.2728 15.5625 24.1373 15.5625 24C15.5625 18.9672 18.5911 13.4923 22.882 11.0164C22.6399 10.7388 22.4487 10.4117 22.3279 10.0452C21.8441 8.57227 22.6479 6.97961 24.1198 6.49365C24.151 6.4834 24.1823 6.4738 24.2135 6.46419L24.2604 6.44971L21.847 2.1145C21.7079 1.86511 21.6903 1.56592 21.7987 1.30188C21.9075 1.03784 22.1301 0.837891 22.4044 0.758057C24.1348 0.255249 25.9336 0 27.75 0C29.5668 0 31.3652 0.255249 33.0956 0.758423C33.3699 0.837891 33.5925 1.03821 33.7009 1.30225C33.8097 1.56592 33.7917 1.86511 33.653 2.1145L31.2396 6.44971L31.2792 6.46183C31.3121 6.47188 31.3451 6.48193 31.3781 6.49292C32.8521 6.97961 33.6562 8.57263 33.1725 10.0444C33.0516 10.4117 32.8619 10.7399 32.6206 11.0171C36.8485 13.4568 39.9199 18.876 39.9371 23.9579C39.9371 23.9579 42.4563 22.3048 42.4622 22.3011C43.374 21.7313 44.4825 21.5958 45.5046 21.9302C46.5264 22.2638 47.3416 23.0277 47.7407 24.026C48.293 25.4052 47.9323 27.0114 46.8435 28.0225L35.4701 38.6818C34.5967 39.4926 33.464 39.9375 32.2771 39.9375H18.7632L19.0378 40.2122C19.4041 40.5784 19.4041 41.1716 19.0378 41.5378L12.8503 47.7253C12.4841 48.0916 11.8909 48.0916 11.5247 47.7253ZM27.75 1.875C26.5096 1.875 25.2792 2.00647 24.078 2.26721L26.1672 6.01978C27.2194 5.87292 28.2799 5.87292 29.3331 6.01978L31.4224 2.26721C30.2208 2.00647 28.9904 1.875 27.75 1.875ZM24.705 8.2749C26.6287 7.64539 28.726 7.59778 30.7925 8.27417C31.2843 8.4364 31.5527 8.96814 31.3912 9.45886C31.2697 9.82837 30.9401 10.0792 30.5581 10.1016C28.7095 9.51379 26.7894 9.5127 24.9415 10.0997H24.9412C24.5559 10.0756 24.2289 9.82361 24.1088 9.45923C23.9473 8.96777 24.2157 8.43604 24.705 8.2749ZM30.163 11.9432C28.5333 11.3833 26.8491 11.3972 25.2235 11.9828C20.9304 13.5311 17.4375 18.9218 17.4375 24C17.4375 24.0101 17.4377 24.02 17.4379 24.0299C17.4381 24.0397 17.4382 24.0495 17.4382 24.0593C17.8242 24.0201 18.212 24 18.5991 24C21.074 24 23.5276 24.8177 25.5084 26.3024C25.5954 26.3587 25.674 26.4214 25.7513 26.4832C25.9621 26.6517 26.1634 26.8125 26.5005 26.8125H26.8125V25.7183C26.1881 25.5088 25.5985 25.0935 25.0975 24.4973C24.7643 24.1011 24.8156 23.5096 25.2118 23.1764C25.608 22.8431 26.1995 22.8944 26.5327 23.2906C26.9172 23.748 27.3494 24 27.75 24C28.2671 24 28.6875 23.5796 28.6875 23.0625C28.6875 22.5454 28.2671 22.125 27.75 22.125C26.1991 22.125 24.9375 20.8634 24.9375 19.3125C24.9375 18.0905 25.7216 17.0482 26.8125 16.6611V15.5625C26.8125 15.0447 27.2322 14.625 27.75 14.625C28.2678 14.625 28.6875 15.0447 28.6875 15.5625V16.6545C29.116 16.7966 29.592 17.057 30.0677 17.5177C30.4398 17.8777 30.4497 18.4713 30.0897 18.8434C29.7297 19.2151 29.1361 19.225 28.764 18.865C28.4326 18.5446 28.0822 18.375 27.75 18.375C27.2333 18.375 26.8125 18.7954 26.8125 19.3125C26.8125 19.8296 27.2333 20.25 27.75 20.25C29.3009 20.25 30.5625 21.5116 30.5625 23.0625C30.5625 24.2845 29.7788 25.3268 28.6875 25.7139V26.8125H30.5625C31.7197 26.8125 32.777 27.3336 33.4746 28.1979L37.9808 25.2415C38.035 24.8525 38.0625 24.4365 38.0625 24C38.0625 18.8496 34.5187 13.441 30.163 11.9432ZM12.252 28.2601C14.0134 26.7177 16.277 25.875 18.5991 25.875C20.6711 25.875 22.7252 26.5594 24.3827 27.802C24.4269 27.8279 24.4858 27.8745 24.5601 27.9333L24.5601 27.9334C24.887 28.1924 25.512 28.6875 26.5001 28.6875H30.5625C31.6296 28.6875 32.4375 29.5551 32.4375 30.5625C32.4375 31.5963 31.5963 32.4375 30.5625 32.4375H24C23.4822 32.4375 23.0625 32.8572 23.0625 33.375C23.0625 33.8928 23.4822 34.3125 24 34.3125H30.5625C32.6301 34.3125 34.3125 32.6301 34.3125 30.5625C34.3125 30.3475 34.2935 30.1355 34.2576 29.9268L43.4637 23.8865C43.9017 23.6158 44.4331 23.5525 44.9224 23.7122C45.4146 23.8733 45.8075 24.2413 45.9998 24.7225C46.2704 25.3978 46.1005 26.1541 45.5643 26.6517L34.1913 37.3107C33.6691 37.7955 32.9894 38.0625 32.2771 38.0625H16.8882L9.49695 30.6709L12.252 28.2601ZM17.0493 40.875L7.125 30.9507L2.26318 35.8125L12.1875 45.7368L17.0493 40.875Z" fill="#83181A"/>
</svg>
