<?xml version="1.0" encoding="UTF-8"?>
<svg width="42px" height="40px" viewBox="0 0 42 40" version="1.1" xmlns="http://www.w3.org/2000/svg" xmlns:xlink="http://www.w3.org/1999/xlink">
    <title>Group 23</title>
    <g id="Page-1" stroke="none" stroke-width="1" fill="none" fill-rule="evenodd">
        <g id="dc_05-copy-2" transform="translate(-746.000000, -2815.000000)" fill="#821517" fill-rule="nonzero">
            <g id="Group-23" transform="translate(746.000000, 2815.000000)">
                <path d="M37.205,26.53 C36.4315201,25.1933151 34.7230348,24.7333383 33.383,25.501 L26.558,29.442 C26.1852921,28.8835514 25.6235396,28.4783937 24.976,28.301 L14.532,25.508 C13.7282575,25.2911071 12.8823324,25.283877 12.075,25.487 L8.4,26.404 L8.4,25.9 C8.4,25.5134007 8.08659932,25.2 7.7,25.2 L5.6,25.2 L5.6,24.5 C5.6,24.1134007 5.28659932,23.8 4.9,23.8 L0.7,23.8 C0.313400675,23.8 -8.63870379e-14,24.1134007 -8.63870379e-14,24.5 L-8.63870379e-14,38.5 C-8.63870379e-14,38.8865993 0.313400675,39.2 0.7,39.2 L4.9,39.2 C5.28659932,39.2 5.6,38.8865993 5.6,38.5 L5.6,37.8 L7.7,37.8 C8.08659932,37.8 8.4,37.4865993 8.4,37.1 L8.4,36.834 L9.303,37.282 C9.9835003,37.6216343 10.7334535,37.7989396 11.494,37.8 L21.973,37.8 C22.8335747,37.8018668 23.6791558,37.5747679 24.423,37.142 L36.183,30.352 C37.5164862,29.5756274 37.9730206,27.868314 37.205,26.53 Z M4.2,37.8 L1.4,37.8 L1.4,25.2 L4.2,25.2 L4.2,37.8 Z M7,36.4 L5.6,36.4 L5.6,26.6 L7,26.6 L7,36.4 Z M35.483,29.141 L23.723,35.931 C23.1911712,36.2387746 22.5874646,36.4005679 21.973,36.4000072 L11.494,36.4000072 C10.9494599,36.4011074 10.4123062,36.2740129 9.926,36.029 L8.4,35.266 L8.4,27.846 L12.411,26.845 C12.9881951,26.6990714 13.5932036,26.7038922 14.168,26.859 L24.612,29.659 C25.1616626,29.8017206 25.5697604,30.2636727 25.6436054,30.8267403 C25.7174503,31.3898079 25.4422724,31.9413699 24.948,32.221 C24.6292168,32.409035 24.247743,32.4595614 23.891,32.361 L15.54,30.121 C15.1649987,30.0204842 14.7795158,30.2429987 14.679,30.618 C14.5784842,30.9930013 14.8009987,31.3784842 15.176,31.479 L23.527,33.712 C23.7644241,33.7759292 24.0091222,33.8088693 24.255,33.81 C24.7447639,33.8107047 25.2257726,33.6801797 25.648,33.432 C26.2942609,33.0628794 26.7657126,32.4502443 26.957,31.731 C27.03465,31.4224092 27.0606686,31.1030908 27.034,30.786 L34.083,26.719 C34.7516041,26.3478723 35.5940658,26.5739741 35.987,27.23 C36.3740482,27.8970845 36.1486917,28.7515612 35.483,29.141 Z" id="Shape"></path>
                <path d="M41.3,-1.23690532e-13 L37.1,-1.23690532e-13 C36.7134007,-1.23690532e-13 36.4,0.313400675 36.4,0.7 L36.4,1.4 L34.3,1.4 C33.9134007,1.4 33.6,1.71340068 33.6,2.1 L33.6,2.366 L32.697,1.911 C32.0146544,1.57731756 31.2655608,1.40260884 30.506,1.4 L20.027,1.4 C19.1676981,1.40087018 18.3233956,1.62521341 17.577,2.051 L5.817,8.848 C4.47743338,9.62119867 4.01830143,11.3339333 4.79150006,12.6735 C5.5646987,14.0130666 7.27743334,14.4721986 8.617,13.699 L9.73,13.055 C9.31224684,14.0156895 9.09775217,15.0524137 9.1,16.1 C9.09429674,19.4977257 11.3162922,22.4975657 14.5681684,23.4823872 C17.8200446,24.4672087 21.3330339,23.2041925 23.2133785,20.3741966 C25.093723,17.5442008 24.8968954,13.8162572 22.729,11.2 L23.401,11.2 L24.073,12.32 C24.9629585,13.7941166 26.5580727,14.6965107 28.28,14.7 L29.057,14.7 C30.3403896,14.7047974 31.5735192,14.2014791 32.487,13.3 L33.6,13.3 C33.6,13.6865993 33.9134007,14 34.3,14 L36.4,14 L36.4,14.7 C36.4,15.0865993 36.7134007,15.4 37.1,15.4 L41.3,15.4 C41.6865993,15.4 42,15.0865993 42,14.7 L42,0.7 C42,0.313400675 41.6865993,-1.23690532e-13 41.3,-1.23690532e-13 Z M23.1000061,16.1 C23.1036482,18.7419653 21.4584739,21.1055656 18.979667,22.0196282 C16.5008601,22.9336908 13.7150404,22.2040241 12.0025919,20.1921806 C10.2901433,18.1803371 10.0148738,15.3137308 11.3131804,13.0127757 C12.6114869,10.7118206 15.2075457,9.46535214 17.815,9.891 C18.2630483,10.7105081 19.1281201,11.2144596 20.062,11.2 L20.741,11.2 C22.2249487,12.3948742 23.0914884,14.1948082 23.1000061,16.1 Z M33.6,11.9 L32.2,11.9 C32.0144215,11.901382 31.8364785,11.974063 31.703,12.103 L31.535,12.278 C30.8783962,12.9355741 29.9862577,13.3035183 29.057,13.300025 L28.28,13.300025 C27.0504392,13.2970697 25.9117288,12.6520659 25.277,11.599 L24.402,10.143 C24.2769904,9.92935996 24.0475228,9.79861684 23.8,9.8 L20.062,9.8 C19.7276681,9.79793238 19.4088321,9.65875794 19.18,9.415 C18.9887137,9.2223313 18.8871222,8.95819333 18.9,8.687 C18.936069,8.1331092 19.3949389,7.70177149 19.95,7.7 L26.6,7.7 C26.9865993,7.7 27.3,7.38659932 27.3,7 C27.3,6.61340068 26.9865993,6.3 26.6,6.3 L19.95,6.3 C18.7162769,6.28971376 17.6725809,7.20973477 17.528,8.435 C17.283,8.414 17.045,8.4 16.8,8.4 C14.985953,8.40133313 13.2306882,9.04344272 11.844,10.213 L7.917,12.481 C7.24839589,12.8521277 6.40593421,12.6260259 6.013,11.97 C5.62595185,11.3029155 5.85130833,10.4484388 6.517,10.059 L18.277,3.269 C18.8091728,2.96205538 19.4126526,2.80032279 20.027,2.8 L30.506,2.8 C31.0493456,2.80224982 31.5852308,2.92665175 32.074,3.164 L33.6,3.934 L33.6,11.9 Z M36.4,12.6 L35,12.6 L35,2.8 L36.4,2.8 L36.4,12.6 Z M40.6,14 L37.8,14 L37.8,1.4 L40.6,1.4 L40.6,14 Z" id="Shape"></path>
                <path d="M16.1,14 L17.5,14 C17.8865993,14 18.2,14.3134007 18.2,14.7 C18.2,15.0865993 18.5134007,15.4 18.9,15.4 C19.2865993,15.4 19.6,15.0865993 19.6,14.7 C19.6,13.540202 18.659798,12.6 17.5,12.6 L17.5,11.9 C17.5,11.5134007 17.1865993,11.2 16.8,11.2 C16.4134007,11.2 16.1,11.5134007 16.1,11.9 L16.1,12.6 C14.940202,12.6 14,13.540202 14,14.7 C14,15.859798 14.940202,16.8 16.1,16.8 L17.5,16.8 C17.8865993,16.8 18.2,17.1134007 18.2,17.5 C18.2,17.8865993 17.8865993,18.2 17.5,18.2 L16.1,18.2 C15.7134007,18.2 15.4,17.8865993 15.4,17.5 C15.4,17.1134007 15.0865993,16.8 14.7,16.8 C14.3134007,16.8 14,17.1134007 14,17.5 C14,18.659798 14.940202,19.6 16.1,19.6 L16.1,20.3 C16.1,20.6865993 16.4134007,21 16.8,21 C17.1865993,21 17.5,20.6865993 17.5,20.3 L17.5,19.6 C18.659798,19.6 19.6,18.659798 19.6,17.5 C19.6,16.340202 18.659798,15.4 17.5,15.4 L16.1,15.4 C15.7134007,15.4 15.4,15.0865993 15.4,14.7 C15.4,14.3134007 15.7134007,14 16.1,14 L16.1,14 Z" id="Path"></path>
            </g>
        </g>
    </g>
</svg>