<svg width="54" height="56" viewBox="0 0 54 56" fill="none" xmlns="http://www.w3.org/2000/svg">
<path fill-rule="evenodd" clip-rule="evenodd" d="M50.8892 48.5955V35.5154C50.8892 34.2713 49.8739 33.2587 48.6263 33.2587H41.3234V32.9866L41.3232 32.9835L41.323 32.9797V26.7633C41.323 25.6209 40.4974 24.6686 39.411 24.4652V20.1441C39.411 18.8568 38.42 17.7959 37.1587 17.6797C36.9265 16.3502 36.4304 15.0654 35.7034 13.9273C35.4558 13.5398 34.9404 13.4261 34.5518 13.6726C34.1636 13.9196 34.0493 14.4335 34.2969 14.8211C34.8517 15.6896 35.2458 16.6603 35.4588 17.6686H18.5408C19.2117 14.4831 21.6614 11.897 24.8755 11.087C26.2567 10.7396 27.7429 10.7396 29.1241 11.087C30.2809 11.3783 31.3476 11.8979 32.2949 12.631C32.659 12.9126 33.1826 12.8468 33.4653 12.484C33.7476 12.1209 33.6812 11.5984 33.3175 11.3168C32.3613 10.5768 31.3022 10.0197 30.1626 9.65483V6.3202C30.1626 4.99361 29.1365 3.90158 27.8341 3.79093V0.831842C27.8341 0.372129 27.4606 0 27 0C26.5394 0 26.1659 0.372129 26.1659 0.831842V3.7905C24.8635 3.90115 23.837 4.99319 23.837 6.3202V9.65612C20.1997 10.8238 17.4925 13.9315 16.8404 17.6797C15.5796 17.7964 14.589 18.8568 14.589 20.1441V24.4652C13.5021 24.6681 12.6766 25.6209 12.6766 26.7633V32.9853V32.9866V33.2587H5.37369C4.1257 33.2587 3.11077 34.2709 3.11077 35.515V48.5955C1.34139 48.9347 0 50.4894 0 52.3518V55.1677C0 55.627 0.373584 55.9996 0.834137 55.9996C1.29469 55.9996 1.66827 55.6274 1.66827 55.1677V52.3518C1.66827 51.1593 2.64079 50.1895 3.83652 50.1895H6.3415C6.80205 50.1895 7.17564 49.8169 7.17564 49.3577C7.17564 48.8979 6.80205 48.5258 6.3415 48.5258H4.77905V38.5382H12.6766V48.5258H10.4188C9.95824 48.5258 9.58465 48.8984 9.58465 49.3577C9.58465 49.8174 9.95824 50.1895 10.4188 50.1895H50.1635C51.3592 50.1895 52.3317 51.1598 52.3317 52.3522V55.1682C52.3317 55.6274 52.7053 56 53.1659 56C53.6264 56 54 55.6274 54 55.1682V52.3518C54 50.4898 52.6586 48.9347 50.8892 48.5955ZM26.3839 5.44436H26.9957H27H27.0043H27.6161C28.1002 5.44436 28.4943 5.83699 28.4943 6.3202V9.27074C27.506 9.1289 26.4936 9.1289 25.5052 9.27074V6.3202C25.5052 5.83699 25.8994 5.44436 26.3839 5.44436ZM49.221 35.515C49.221 35.1881 48.9545 34.922 48.6263 34.922H41.3234V36.8745H49.221V35.515ZM35.0937 44.2812C34.6332 44.2812 34.2596 44.6537 34.2596 45.113V48.5258H30.5319V38.5382H34.2596V41.7241C34.2596 42.1834 34.6332 42.556 35.0937 42.556C35.5543 42.556 35.9279 42.1838 35.9279 41.7241V38.5382H39.6556V48.5258H35.9275V45.113C35.9275 44.6537 35.5543 44.2812 35.0937 44.2812ZM14.3448 34.0906L14.3447 34.0913L14.3444 34.0927V36.8745H39.6556V34.1012L39.6555 34.1001C39.6551 34.0967 39.6547 34.0936 39.6547 34.0906V33.6022L27 29.7536L14.3448 33.6022V34.0906ZM23.4681 38.5382V48.5258H19.7404V38.5382H23.4681ZM28.8641 38.5382H25.1364V48.5258H28.8641V38.5382ZM15.0222 26.087H15.4168H15.4232H15.4296H17.8969C18.3574 26.087 18.731 25.7145 18.731 25.2552C18.731 24.7955 18.3574 24.4233 17.8969 24.4233H16.2573V20.1441C16.2573 19.6959 16.6228 19.3319 17.0718 19.3319H17.5632L17.5664 19.3321L17.5696 19.3323L17.5721 19.3322L17.5764 19.3319H36.4236L36.4267 19.3321L36.4304 19.3323C36.4326 19.3323 36.4347 19.3319 36.4368 19.3319H36.9287C37.3777 19.3319 37.7431 19.6959 37.7431 20.1441V24.4233H21.6494C21.1889 24.4233 20.8153 24.7955 20.8153 25.2552C20.8153 25.7145 21.1889 26.087 21.6494 26.087H38.5704H38.5768H38.5832H38.9778C39.351 26.087 39.6547 26.3904 39.6547 26.7633V31.8633L27.2433 28.0887C27.0848 28.0404 26.9152 28.0404 26.7567 28.0887L14.3448 31.8633V26.7633C14.3448 26.3904 14.6486 26.087 15.0222 26.087ZM4.77905 35.515V36.8745H12.6766V34.922H5.37369C5.04595 34.922 4.77905 35.1881 4.77905 35.515ZM14.3448 38.5382H18.0725V48.5258H14.3448V38.5382ZM41.3234 38.5382V48.5258H49.221V38.5382H41.3234Z" fill="#862632"/>
</svg>
