<svg width="15" height="15" viewBox="0 0 15 15" fill="none" xmlns="http://www.w3.org/2000/svg">
<path fill-rule="evenodd" clip-rule="evenodd" d="M9.23622 9.2362C9.72281 8.7496 9.9661 8.16567 9.9661 7.47466C9.9661 6.78365 9.72281 6.19956 9.23622 5.71295C8.74946 5.22635 8.16556 4.98305 7.47458 4.98305C6.78359 4.98305 6.19969 5.22635 5.7131 5.71295C5.22652 6.19956 4.98305 6.78365 4.98305 7.47466C4.98305 8.16567 5.22652 8.7496 5.7131 9.2362C6.19969 9.7228 6.78359 9.9661 7.47458 9.9661C8.16556 9.9661 8.74946 9.7228 9.23622 9.2362ZM10.2184 4.78164C10.9686 5.53175 11.339 6.43796 11.339 7.50009C11.339 8.56204 10.9686 9.46825 10.2184 10.2185C9.46808 10.9688 8.56204 11.339 7.49991 11.339C6.43796 11.339 5.53175 10.9688 4.78147 10.2185C4.03118 9.46825 3.66102 8.56204 3.66102 7.50009C3.66102 6.43796 4.03118 5.53175 4.78147 4.78164C5.53175 4.03136 6.43796 3.66102 7.49991 3.66102C8.56204 3.66102 9.46808 4.03136 10.2184 4.78164ZM12.1456 2.85438C12.4938 3.2026 12.4938 3.76367 12.1456 4.11172C11.7975 4.45994 11.2364 4.45994 10.8883 4.11172C10.5401 3.76367 10.5401 3.2026 10.8883 2.85438C11.2364 2.50617 11.7975 2.50617 12.1456 2.85438ZM3.05796 1.68243C2.40452 1.9458 1.89753 2.45296 1.63416 3.1064C1.48788 3.48668 1.39037 4.02303 1.35122 4.81295L1.32203 5.74916V6.78305C1.33182 7.23167 1.33182 7.47546 1.33182 7.52422C1.33182 7.57298 1.33182 7.81677 1.32203 8.27518V9.29911L1.35122 10.2451C1.39037 11.0252 1.48788 11.5616 1.63416 11.942C1.89753 12.5955 2.40452 13.1025 3.05796 13.3658C3.43824 13.5121 3.97477 13.6096 4.75491 13.6486L5.7009 13.678H6.72484C7.18325 13.6682 7.42704 13.6682 7.4758 13.6682C7.52456 13.6682 7.76835 13.6682 8.21697 13.678H9.2507L10.1871 13.6486C10.977 13.6096 11.5134 13.5121 11.8936 13.3658C12.5471 13.1025 13.0542 12.5955 13.3174 11.942C13.4639 11.5616 13.5614 11.0252 13.5906 10.2451C13.6102 9.84525 13.6198 9.53312 13.6198 9.29911C13.6296 9.06511 13.6296 8.72379 13.6198 8.27518V6.78305C13.6296 6.32465 13.6296 5.98334 13.6198 5.74916C13.6198 5.51515 13.6102 5.20302 13.5906 4.81295C13.5614 4.02303 13.4639 3.48668 13.3174 3.1064C13.0542 2.45296 12.5471 1.9458 11.8936 1.68243C11.5134 1.53615 10.977 1.43864 10.1871 1.40945C9.79683 1.38988 9.48488 1.38009 9.2507 1.38009C9.01669 1.37048 8.67538 1.37048 8.21697 1.38009H6.72484C6.27622 1.37048 5.93491 1.37048 5.7009 1.38009C5.4669 1.38009 5.15477 1.38988 4.75491 1.40945C3.97477 1.43864 3.43824 1.53615 3.05796 1.68243ZM14.9512 10.5956C14.8243 13.3007 13.3007 14.8241 10.5958 14.9512C10.0195 14.9804 8.99415 15 7.5 15C6.00585 15 4.98052 14.9804 4.40424 14.9512C1.69926 14.8241 0.175701 13.3007 0.0488252 10.5956C0.0196001 10.0195 0 8.99415 0 7.5C0 6.00585 0.0196001 4.98034 0.0488252 4.40424C0.175701 1.69908 1.69926 0.175701 4.40424 0.0488252C4.98052 0.0194251 6.00585 0 7.5 0C8.99415 0 10.0195 0.0194251 10.5958 0.0488252C13.3007 0.175701 14.8243 1.69908 14.9512 4.40424C14.9806 4.98034 15 6.00585 15 7.5C15 8.99415 14.9806 10.0195 14.9512 10.5956V10.5956Z" fill="#CCD9DE"/>
</svg>
