<svg width="15" height="15" viewBox="0 0 15 15" fill="none" xmlns="http://www.w3.org/2000/svg">
<path fill-rule="evenodd" clip-rule="evenodd" d="M2.31438 12.5586H4.57032V5.78114H2.31438V12.5586ZM4.71679 3.69129C4.70699 3.01754 4.20894 2.51948 3.45696 2.51948C2.70516 2.51948 2.17771 3.01754 2.17771 3.69129C2.17771 4.35541 2.68556 4.86327 3.42774 4.86327H3.43754C4.20894 4.86327 4.71679 4.35541 4.71679 3.69129ZM10.4297 12.5586H12.6856V8.6718C12.6856 6.6698 11.6505 5.62487 10.0879 5.62487C9.19926 5.62487 8.5255 6.00585 8.04688 6.76745H8.06648V5.78114H5.81054C5.83014 6.21095 5.83014 8.4667 5.81054 12.5586H8.06648V8.76945C8.06648 8.52533 8.0859 8.33983 8.13473 8.22258C8.33003 7.76355 8.7208 7.40235 9.29691 7.40235C10.0489 7.40235 10.4297 7.91003 10.4297 8.93553V12.5586ZM15 2.81243V12.1874C15 12.959 14.7266 13.6231 14.17 14.17C13.6231 14.7265 12.959 15 12.1876 15H2.81243C2.04103 15 1.3769 14.7265 0.820403 14.17C0.273351 13.6231 0 12.959 0 12.1874V2.81243C0 2.04103 0.273351 1.3769 0.820403 0.830028C1.3769 0.273351 2.04103 0 2.81243 0H12.1876C12.959 0 13.6231 0.273351 14.17 0.830028C14.7266 1.3769 15 2.04103 15 2.81243V2.81243Z" fill="#CCD9DE"/>
</svg>
