<svg width="58" height="45" viewBox="0 0 58 45" fill="none" xmlns="http://www.w3.org/2000/svg">
  <path d="M43.7 43.0996C47.7 43.0996 51.8 43.0996 55.8 43.0996C56.7 43.0996 57.2 42.5996 56.9 41.6996C55.9 37.5996 55 33.5996 54 29.4996C53.9 28.9996 53.6 28.6996 53.2 28.4996C52.8 28.2996 52.5 28.2996 52.1 28.2996C46.5 28.2996 40.9 28.2996 35.3 28.2996C34.8 28.2996 34.3 28.3996 33.9 28.6996C33.6 28.8996 33.5 29.0996 33.4 29.4996C32.8 32.0996 32.2 34.5996 31.6 37.1996C31.2 38.7996 30.8 40.4996 30.5 42.0996C30.4 42.6996 30.7 43.1996 31.3 43.2996C31.5 43.2996 31.6 43.2996 31.8 43.2996C35.8 43.0996 39.8 43.0996 43.7 43.0996ZM14.2 28.0996C11.4 28.0996 8.6 28.0996 5.9 28.0996C5.7 28.0996 5.6 28.0996 5.4 28.0996C4.6 28.1996 4.1 28.6996 3.9 29.4996C3.1 32.6996 2.4 35.8996 1.6 39.0996C1.4 39.9996 1.2 40.8996 1 41.8996C0.9 42.4996 1.2 42.9996 1.8 43.0996C1.9 43.0996 2.1 43.0996 2.2 43.0996C8.4 43.0996 14.6 43.0996 20.7 43.0996C22.6 43.0996 24.5 43.0996 26.4 43.0996C27.3 43.0996 27.7 42.5996 27.5 41.6996C26.9 39.2996 26.4 36.8996 25.8 34.4996C25.4 32.7996 25 31.0996 24.6 29.3996C24.5 28.8996 24.1 28.4996 23.6 28.3996C23.3 28.2996 22.9 28.2996 22.6 28.2996C19.8 28.0996 17 28.0996 14.2 28.0996ZM0 43.9996H1.6L1.5 43.8996C0.8 43.6996 0.3 43.1996 0.1 42.3996V42.2996V41.6996C0.3 40.9996 0.4 40.3996 0.6 39.6996C1.4 36.1996 2.3 32.6996 3.1 29.0996C3.3 28.1996 3.9 27.5996 4.8 27.2996C5.2 27.1996 5.5 27.0996 5.9 27.0996C8 27.0996 10 27.0996 12.1 27.0996C15.7 27.0996 19.2 27.0996 22.8 27.0996C23.2 27.0996 23.6 27.1996 23.9 27.2996C24.8 27.5996 25.4 28.1996 25.6 29.1996C26.5 33.1996 27.5 37.1996 28.5 41.2996C28.8 42.5996 28.2 43.6996 27 43.8996L0 43.9996ZM31.1 43.9996C30.9 43.8996 30.6 43.7996 30.4 43.6996C29.7 43.2996 29.4 42.4996 29.5 41.6996C29.8 40.3996 30.1 39.0996 30.4 37.6996C30.8 36.1996 31.1 34.5996 31.5 33.0996C31.8 31.6996 32.1 30.3996 32.5 29.0996C32.7 28.2996 33.3 27.7996 34.1 27.3996C34.5 27.1996 34.9 27.1996 35.4 27.1996C40.5 27.1996 45.6 27.1996 50.7 27.1996C51.4 27.1996 52.1 27.1996 52.8 27.2996C53.5 27.3996 54 27.6996 54.5 28.1996C54.8 28.4996 54.9 28.7996 55 29.1996C56 33.3996 57 37.5996 58 41.7996C58 41.7996 58 41.7996 58 41.8996V42.4996C58 42.5996 58 42.5996 57.9 42.6996C57.8 43.1996 57.5 43.5996 57 43.8996C56.8 43.9996 56.6 44.0996 56.3 44.1996H58" fill="#E8C22C"/>
  <path d="M29.1 0C29.4 0.1 29.4 0.3 29.4 0.6C29.4 3 29.4 5.3 29.4 7.7C29.4 7.8 29.4 7.9 29.4 7.9C29.4 8.1 29.2 8.3 28.9 8.3C28.7 8.3 28.5 8.2 28.4 7.9C28.4 7.8 28.4 7.7 28.4 7.7C28.4 5.4 28.4 3 28.4 0.7C28.4 0.4 28.5 0.2 28.7 0.1H29.1V0Z" fill="#E8C22C"/>
  <path d="M26.8 25.6004C26.8 25.5004 26.9 25.5004 27.1 25.5004C30.2 25.5004 33.3 25.5004 36.4 25.5004C38 25.5004 39.6 25.5004 41.3 25.5004C42.1 25.5004 42.5 25.0004 42.3 24.2004C42.2 23.9004 42.2 23.7004 42.1 23.4004C41.2 19.5004 40.3 15.7004 39.4 11.8004C39.3 11.3004 39 10.9004 38.5 10.8004C38.2 10.7004 37.8 10.6004 37.4 10.6004C35.3 10.6004 33.1 10.6004 31 10.6004C27.5 10.6004 24 10.6004 20.5 10.6004C20.3 10.6004 20 10.6004 19.8 10.7004C19.2 10.9004 18.7 11.2004 18.6 11.9004C18.3 13.3004 17.9 14.8004 17.6 16.2004C17 18.9004 16.3 21.6004 15.7 24.2004C15.5 24.9004 15.9 25.4004 16.5 25.5004C16.6 25.5004 16.7 25.5004 16.8 25.5004C20 25.5004 23.2 25.5004 26.4 25.5004C26.6 25.5004 26.7 25.6004 26.8 25.6004ZM20.6 9.70039C20.7 9.70039 20.8 9.60039 20.9 9.60039C24.3 9.60039 27.7 9.60039 31 9.60039C33.1 9.60039 35.3 9.60039 37.4 9.60039C38.3 9.60039 39.1 9.90039 39.7 10.6004C40 10.9004 40.1 11.2004 40.2 11.6004C41.2 15.7004 42.1 19.8004 43.1 23.9004C43.3 24.9004 43 25.9004 42.1 26.2004C41.8 26.3004 41.4 26.4004 41.1 26.4004C38 26.4004 34.8 26.4004 31.7 26.4004C30.2 26.4004 28.8 26.4004 27.4 26.4004C26.9 26.4004 26.4 26.4004 25.8 26.4004C22.8 26.4004 19.8 26.4004 16.8 26.4004C16.2 26.4004 15.7 26.3004 15.2 25.8004C14.7 25.3004 14.5 24.6004 14.7 23.9004C15.4 21.0004 16.1 18.0004 16.8 15.1004C17.1 13.9004 17.4 12.7004 17.7 11.5004C17.8 10.9004 18.2 10.4004 18.7 10.0004C19.2 9.70039 19.7 9.50039 20.3 9.40039C20.4 9.60039 20.5 9.70039 20.6 9.70039Z" fill="#E8C22C"/>
  <path d="M21.7 0.900391C21.9 0.900391 22 1.00039 22.1 1.20039C22.8 2.20039 23.6 3.20039 24.3 4.20039C25.1 5.30039 25.9 6.40039 26.7 7.50039C26.8 7.60039 26.8 7.70039 26.9 7.80039C27 8.00039 26.9 8.20039 26.7 8.30039C26.5 8.40039 26.2 8.40039 26.1 8.20039C25.8 7.80039 25.5 7.30039 25.1 6.90039C23.9 5.20039 22.6 3.50039 21.4 1.90039C21.3 1.70039 21.2 1.60039 21.3 1.40039C21.3 1.00039 21.5 0.900391 21.7 0.900391Z" fill="#E8C22C"/>
  <path d="M31.1 7.80033C31.1 7.70033 31.2 7.60033 31.2 7.50033C32.8 5.40033 34.3 3.30033 35.9 1.20033C36.1 0.900325 36.4 0.900325 36.6 1.10033C36.8 1.30033 36.9 1.50033 36.7 1.80033C35.1 3.90033 33.5 6.00033 32 8.10033C31.9 8.30033 31.7 8.40033 31.5 8.30033C31.2 8.20033 31.1 8.10033 31.1 7.80033Z" fill="#E8C22C"/>
  <path d="M4.20002 34.9C4.00002 35.4 3.90002 35.4 3.60002 35.2C3.60002 35.4 3.70002 35.5 3.90002 35.5C4.00002 35.4 4.20002 35.2 4.20002 34.9ZM2.90002 41.3H3.40002C7.00002 41.3 10.5 41.3 14.1 41.3C14.2 41.3 14.2 41.3 14.3 41.3C14.5 41.3 14.7 41.5 14.7 41.8C14.7 42 14.5 42.2 14.3 42.3C14.2 42.3 14.2 42.3 14.1 42.3C10.3 42.3 6.60002 42.3 2.80002 42.3C2.70002 42.3 2.70002 42.3 2.60002 42.3C2.00002 42.3 1.70002 41.9 1.80002 41.3C1.80002 41 1.90002 40.8 2.00002 40.5C2.40002 38.7 2.90002 36.9 3.30002 35V34.9C3.40002 34.6 3.60002 34.5 3.80002 34.5C4.10002 34.6 4.30002 34.8 4.20002 35.1C4.00002 35.9 3.80002 36.7 3.60002 37.6C3.30002 38.7 3.10002 39.9 2.80002 41C2.90002 41.2 2.90002 41.2 2.90002 41.3Z" fill="#E8C22C"/>
  <path d="M18.5 29.9C17.1 29.9 15.8 29.9 14.4 29.9C14.3 29.9 14.3 29.9 14.2 29.9C14 29.9 13.8 29.7 13.8 29.5C13.8 29.3 14 29.1 14.2 29C14.3 29 14.4 29 14.4 29C17 29 19.6 29 22.3 29C22.6 29 23 29 23.3 29.1C23.4 29.1 23.5 29.2 23.6 29.3C24.1 30 24.1 30.8 24.3 31.5C24.6 32.6 24.9 33.8 25.1 34.9C25.2 35.1 25.1 35.3 24.9 35.5C24.7 35.6 24.5 35.6 24.3 35.4C24.2 35.3 24.2 35.2 24.1 35.1C23.9 34.1 23.6 33.2 23.4 32.2C23.2 31.5 23.1 30.8 22.9 30.1C22.9 29.9 22.8 29.9 22.6 29.9C21.3 29.9 19.9 29.9 18.5 29.9Z" fill="#E8C22C"/>
  <path d="M32.4 41.2995C32.5 41.2995 32.5 41.2995 32.6 41.2995C36.3 41.2995 39.9 41.2995 43.6 41.2995C43.7 41.2995 43.7 41.2995 43.8 41.2995C44.1 41.2995 44.3 41.4995 44.3 41.7995C44.3 42.0995 44.1 42.2995 43.8 42.2995C43.2 42.2995 42.7 42.2995 42.1 42.2995C38.9 42.2995 35.6 42.2995 32.4 42.2995C32.3 42.2995 32.3 42.2995 32.2 42.2995C31.6 42.2995 31.3 41.8995 31.4 41.2995C31.6 40.5995 31.7 39.8995 31.9 39.0995C32.2 37.6995 32.6 36.3995 32.9 34.9995C33 34.5995 33.3 34.4995 33.6 34.5995C33.8 34.6995 33.9 34.8995 33.8 35.1995C33.6 36.0995 33.4 36.9995 33.2 37.7995C32.9 38.8995 32.7 39.9995 32.4 40.9995C32.4 41.0995 32.4 41.1995 32.4 41.2995Z" fill="#E8C22C"/>
  <path d="M48.1 28.9004C49.5 28.9004 50.8001 28.9004 52.2001 28.9004C52.3001 28.9004 52.3001 28.9004 52.4001 28.9004C53.0001 28.9004 53.3001 29.1004 53.4001 29.7004C53.6001 30.4004 53.7001 31.1004 53.9001 31.7004C54.1001 32.7004 54.4 33.7004 54.6 34.6004V34.7004C54.7 35.0004 54.5 35.2004 54.3 35.3004C54 35.4004 53.8001 35.2004 53.7001 34.9004C53.5001 34.3004 53.4001 33.6004 53.2001 33.0004C53.0001 32.0004 52.7 31.0004 52.5 30.0004C52.5 29.8004 52.4001 29.8004 52.2001 29.8004C49.5001 29.8004 46.8 29.8004 44.1 29.8004C44 29.8004 43.8001 29.8004 43.7001 29.8004C43.5001 29.8004 43.3 29.6004 43.3 29.4004C43.3 29.2004 43.4001 28.9004 43.7001 28.9004C43.8001 28.9004 43.9001 28.9004 43.9001 28.9004C45.3001 28.9004 46.7 28.9004 48.1 28.9004Z" fill="#E8C22C"/>
  <path d="M17.6 23.7998H18.1C21.7 23.7998 25.3 23.7998 28.9 23.7998C29.3 23.7998 29.5 24.0998 29.5 24.3998C29.4 24.5998 29.3 24.6998 29 24.7998C28.6 24.7998 28.2 24.7998 27.7 24.7998C24.5 24.7998 21.4 24.7998 18.2 24.7998C17.9 24.7998 17.6 24.7998 17.4 24.7998C16.9 24.7998 16.6 24.3998 16.7 23.8998C16.8 23.3998 16.9 22.8998 17 22.3998C17.4 20.7998 17.8 19.1998 18.2 17.5998C18.2 17.4998 18.3 17.3998 18.3 17.2998C18.4 17.0998 18.7 16.9998 18.9 17.0998C19.1 17.1998 19.2 17.3998 19.2 17.6998C19 18.3998 18.8 19.1998 18.7 19.8998C18.4 21.1998 18.1 22.3998 17.8 23.6998C17.6 23.6998 17.6 23.6998 17.6 23.7998Z" fill="#E8C22C"/>
  <path d="M33.3 11.3998H37.3C37.4 11.3998 37.4 11.3998 37.5 11.3998C38.2 11.3998 38.5 11.5998 38.7 12.2998C38.9 13.0998 39.1 13.8998 39.2 14.5998C39.4 15.4998 39.6 16.2998 39.8 17.1998C39.8 17.2998 39.8 17.4998 39.8 17.5998C39.7 17.7998 39.6 17.8998 39.3 17.8998C39.1 17.8998 38.9 17.7998 38.9 17.4998C38.8 16.9998 38.7 16.4998 38.5 15.9998C38.2 14.7998 37.9 13.6998 37.7 12.4998C37.7 12.2998 37.5 12.2998 37.4 12.2998C34.7 12.2998 31.9 12.2998 29.2 12.2998C29.1 12.2998 29.1 12.2998 29 12.2998C28.7 12.2998 28.5 12.0998 28.5 11.7998C28.5 11.4998 28.7 11.2998 29 11.2998C29.1 11.2998 29.1 11.2998 29.2 11.2998C30.5 11.3998 31.9 11.3998 33.3 11.3998Z" fill="#E8C22C"/>
  <path d="M20.8 17.3C20.8 17.5 20.8 17.6 20.8 17.8C20.8 18 20.9 18.2 21.1 18.4C21.3 18.5 21.6 18.6 21.8 18.5C22.1 18.4 22.2 18.1 22.2 17.9C22.2 17.6 22.2 17.3 22.2 17C22.2 16.8 22.1 16.6 22 16.5C21.8 16.3 21.5 16.2 21.3 16.3C21 16.4 20.9 16.7 20.9 16.9C20.8 16.9 20.8 17.1 20.8 17.3ZM20.3 19.6H20.9C20.9 19.7 20.9 19.7 20.9 19.8C21 20.1 21.2 20.3 21.6 20.3C21.9 20.3 22.2 20.1 22.2 19.7C22.2 19.6 22.2 19.6 22.2 19.5C22.2 19.2 22.2 19 22.2 18.7C22 18.9 21.7 19 21.4 19C20.8 19 20.3 18.5 20.3 17.9C20.3 17.5 20.3 17.1 20.3 16.7C20.3 16 20.9 15.5 21.6 15.5C22.3 15.5 22.8 16 22.8 16.7C22.8 17.7 22.8 18.7 22.8 19.7C22.8 19.8 22.8 19.8 22.8 19.9C22.7 20.5 22.2 20.9 21.6 20.9C21 20.9 20.5 20.6 20.4 20C20.3 19.8 20.3 19.7 20.3 19.6Z" fill="#E8C22C"/>
  <path d="M28.6 17.3C28.6 17.1 28.6 17 28.6 16.8C28.6 16.5 28.5 16.3 28.2 16.1C27.7 15.9 27.3 16.2 27.2 16.7C27.2 17 27.2 17.4 27.2 17.7C27.2 18.1 27.5 18.4 27.9 18.4C28.3 18.4 28.5 18.1 28.6 17.7C28.6 17.6 28.6 17.4 28.6 17.3ZM26.7 19.6H27.2C27.2 19.7 27.2 19.8 27.3 19.9C27.4 20.2 27.6 20.4 28 20.3C28.3 20.3 28.6 20.1 28.6 19.8C28.6 19.5 28.6 19.1 28.6 18.8C28.2 19.1 27.8 19.1 27.4 18.9C27 18.7 26.7 18.4 26.7 17.9C26.7 17.5 26.7 17 26.7 16.6C26.8 15.9 27.3 15.5 28 15.5C28.7 15.5 29.2 16 29.2 16.6C29.2 17.1 29.2 17.7 29.2 18.3C29.2 18.7 29.2 19.1 29.2 19.6C29.2 20.8 28.1 21.1 27.4 20.8C27 20.6 26.7 20.1 26.7 19.6Z" fill="#E8C22C"/>
  <path d="M33.7 17.3C33.7 17.1 33.7 17 33.7 16.8C33.7 16.5 33.6 16.3 33.3 16.1C32.8 15.9 32.4 16.2 32.3 16.7C32.3 17 32.3 17.4 32.3 17.7C32.3 18.1 32.6 18.4 33 18.4C33.4 18.4 33.6 18.1 33.7 17.7C33.7 17.6 33.7 17.4 33.7 17.3ZM31.8 19.6H32.3C32.3 19.7 32.3 19.8 32.4 19.9C32.5 20.2 32.7 20.4 33.1 20.3C33.4 20.3 33.7 20.1 33.7 19.8C33.7 19.5 33.7 19.1 33.7 18.8C33.3 19.1 32.9 19.1 32.5 18.9C32.1 18.7 31.8 18.4 31.8 17.9C31.8 17.5 31.8 17 31.8 16.6C31.9 15.9 32.4 15.5 33.1 15.5C33.8 15.5 34.3 16 34.3 16.6C34.3 17.1 34.3 17.7 34.3 18.3C34.3 18.7 34.3 19.1 34.3 19.6C34.3 20.8 33.2 21.1 32.5 20.8C32.1 20.6 31.8 20.1 31.8 19.6Z" fill="#E8C22C"/>
  <path d="M36.8 17.3C36.8 17.1 36.8 17 36.8 16.8C36.8 16.5 36.7 16.3 36.4 16.1C35.9 15.9 35.5 16.2 35.4 16.7C35.4 17 35.4 17.4 35.4 17.7C35.4 18.1 35.7 18.4 36.1 18.4C36.5 18.4 36.7 18.1 36.8 17.7C36.8 17.6 36.8 17.4 36.8 17.3ZM34.9 19.6H35.4C35.4 19.7 35.4 19.8 35.5 19.9C35.6 20.2 35.8 20.4 36.2 20.3C36.5 20.3 36.8 20.1 36.8 19.8C36.8 19.5 36.8 19.1 36.8 18.8C36.4 19.1 36 19.1 35.6 18.9C35.2 18.7 34.9 18.4 34.9 17.9C34.9 17.5 34.9 17 34.9 16.6C35 15.9 35.5 15.5 36.2 15.5C36.9 15.5 37.4 16 37.4 16.6C37.4 17.1 37.4 17.7 37.4 18.3C37.4 18.7 37.4 19.1 37.4 19.6C37.4 20.8 36.3 21.1 35.6 20.8C35.2 20.6 34.9 20.1 34.9 19.6Z" fill="#E8C22C"/>
  <path d="M24 17.1996C24 17.3996 24 17.5996 24 17.8996C24.1 18.1996 24.3 18.4996 24.7 18.4996C25 18.4996 25.3 18.2996 25.3 17.8996C25.3 17.4996 25.3 16.9996 25.3 16.5996C25.3 16.2996 25 16.0996 24.6 16.0996C24.3 16.0996 24 16.2996 24 16.6996C24 16.7996 24 16.9996 24 17.1996ZM23.5 19.5996H24C24 19.6996 24.1 19.7996 24.1 19.8996C24.2 20.1996 24.5 20.2996 24.8 20.2996C25.1 20.2996 25.3 20.0996 25.4 19.7996C25.4 19.4996 25.4 19.0996 25.4 18.7996C25.2 18.8996 25.1 18.9996 24.9 18.9996C24.3 19.0996 23.6 18.6996 23.6 18.0996C23.5 17.5996 23.5 17.0996 23.6 16.5996C23.7 15.8996 24.2 15.5996 24.9 15.5996C25.5 15.5996 26 16.0996 26.1 16.6996C26.1 16.7996 26.1 16.7996 26.1 16.8996C26.1 17.7996 26.1 18.6996 26.1 19.5996C26.1 19.9996 26 20.3996 25.6 20.6996C25.2 20.9996 24.7 20.9996 24.3 20.7996C23.7 20.5996 23.5 20.0996 23.5 19.5996Z" fill="#E8C22C"/>
  <path d="M29.9 20.7996C29.8 20.6996 29.8 20.5996 29.8 20.4996C29.8 20.3996 29.8 20.2996 29.9 20.1996C30 20.0996 30.1 20.0996 30.2 20.0996C30.3 20.0996 30.4 20.0996 30.5 20.1996C30.6 20.2996 30.6 20.3996 30.6 20.4996C30.6 20.5996 30.6 20.6996 30.5 20.7996C30.4 20.8996 30.3 20.8996 30.2 20.8996C30.1 20.8996 30 20.7996 29.9 20.7996Z" fill="#E8C22C"/>
  <path d="M35.7 35.0998C35.7 35.2998 35.7 35.3998 35.7 35.5998C35.7 35.7998 35.8 35.9998 36 36.1998C36.2 36.2998 36.5 36.3998 36.7 36.2998C37 36.1998 37.1 35.8998 37.1 35.6998C37.1 35.3998 37.1 35.0998 37.1 34.7998C37.1 34.5998 37 34.3998 36.9 34.2998C36.7 34.0998 36.4 33.9998 36.2 34.0998C35.9 34.1998 35.8 34.4998 35.8 34.6998C35.7 34.6998 35.7 34.8998 35.7 35.0998ZM35.1 37.3998H35.7C35.7 37.4998 35.7 37.4998 35.7 37.5998C35.8 37.8998 36 38.0998 36.4 38.0998C36.7 38.0998 37 37.8998 37 37.4998C37 37.3998 37 37.3998 37 37.2998C37 36.9998 37 36.7998 37 36.4998C36.8 36.6998 36.5 36.7998 36.2 36.7998C35.6 36.7998 35.1 36.2998 35.1 35.6998C35.1 35.2998 35.1 34.8998 35.1 34.4998C35.1 33.7998 35.7 33.2998 36.4 33.2998C37.1 33.2998 37.6 33.7998 37.6 34.4998C37.6 35.4998 37.6 36.4998 37.6 37.4998C37.6 37.5998 37.6 37.5998 37.6 37.6998C37.5 38.2998 37 38.6998 36.4 38.6998C35.8 38.6998 35.3 38.3998 35.2 37.7998C35.2 37.6998 35.1 37.4998 35.1 37.3998Z" fill="#E8C22C"/>
  <path d="M43.5 35.0998C43.5 34.8998 43.5 34.7998 43.5 34.5998C43.5 34.2998 43.4 34.0998 43.1 33.8998C42.6 33.6998 42.2 33.9998 42.1 34.4998C42.1 34.7998 42.1 35.1998 42.1 35.4998C42.1 35.8998 42.4 36.1998 42.8 36.1998C43.2 36.1998 43.4 35.8998 43.5 35.4998C43.5 35.3998 43.5 35.1998 43.5 35.0998ZM41.6 37.3998H42.1C42.1 37.4998 42.1 37.5998 42.2 37.6998C42.3 37.9998 42.5 38.1998 42.9 38.0998C43.2 38.0998 43.5 37.8998 43.5 37.5998C43.5 37.2998 43.5 36.8998 43.5 36.5998C43.1 36.8998 42.7 36.8998 42.3 36.6998C41.9 36.4998 41.6 36.1998 41.6 35.6998C41.6 35.2998 41.6 34.7998 41.6 34.3998C41.7 33.6998 42.2 33.2998 42.9 33.2998C43.6 33.2998 44.1 33.7998 44.1 34.3998C44.1 34.8998 44.1 35.4998 44.1 36.0998C44.1 36.4998 44.1 36.8998 44.1 37.3998C44.1 38.5998 43 38.8998 42.3 38.5998C41.8 38.3998 41.6 37.8998 41.6 37.3998Z" fill="#E8C22C"/>
  <path d="M48.5999 35.0998C48.5999 34.8998 48.5999 34.7998 48.5999 34.5998C48.5999 34.2998 48.5 34.0998 48.2 33.8998C47.7 33.6998 47.3 33.9998 47.2 34.4998C47.2 34.7998 47.2 35.1998 47.2 35.4998C47.2 35.8998 47.5 36.1998 47.9 36.1998C48.3 36.1998 48.4999 35.8998 48.5999 35.4998C48.5999 35.3998 48.5999 35.1998 48.5999 35.0998ZM46.7 37.3998H47.2C47.2 37.4998 47.1999 37.5998 47.2999 37.6998C47.3999 37.9998 47.6 38.1998 48 38.0998C48.3 38.0998 48.5999 37.8998 48.5999 37.5998C48.5999 37.2998 48.5999 36.8998 48.5999 36.5998C48.1999 36.8998 47.8 36.8998 47.4 36.6998C47 36.4998 46.7 36.1998 46.7 35.6998C46.7 35.2998 46.7 34.7998 46.7 34.3998C46.8 33.6998 47.3 33.2998 48 33.2998C48.7 33.2998 49.2 33.7998 49.2 34.3998C49.2 34.8998 49.2 35.4998 49.2 36.0998C49.2 36.4998 49.2 36.8998 49.2 37.3998C49.2 38.5998 48.1 38.8998 47.4 38.5998C46.9 38.3998 46.7 37.8998 46.7 37.3998Z" fill="#E8C22C"/>
  <path d="M51.7 35.0998C51.7 34.8998 51.7 34.7998 51.7 34.5998C51.7 34.2998 51.6 34.0998 51.3 33.8998C50.8 33.6998 50.4 33.9998 50.3 34.4998C50.3 34.7998 50.3 35.1998 50.3 35.4998C50.3 35.8998 50.6 36.1998 51 36.1998C51.4 36.1998 51.6 35.8998 51.7 35.4998C51.7 35.3998 51.7 35.1998 51.7 35.0998ZM49.8 37.3998H50.3C50.3 37.4998 50.3 37.5998 50.4 37.6998C50.5 37.9998 50.7 38.1998 51.1 38.0998C51.4 38.0998 51.7 37.8998 51.7 37.5998C51.7 37.2998 51.7 36.8998 51.7 36.5998C51.3 36.8998 50.9 36.8998 50.5 36.6998C50.1 36.4998 49.8 36.1998 49.8 35.6998C49.8 35.2998 49.8 34.7998 49.8 34.3998C49.9 33.6998 50.4 33.2998 51.1 33.2998C51.8 33.2998 52.3 33.7998 52.3 34.3998C52.3 34.8998 52.3 35.4998 52.3 36.0998C52.3 36.4998 52.3 36.8998 52.3 37.3998C52.3 38.5998 51.2 38.8998 50.5 38.5998C50 38.3998 49.7 37.8998 49.8 37.3998Z" fill="#E8C22C"/>
  <path d="M38.9 35.1004C38.9 35.3004 38.9 35.5004 38.9 35.8004C39 36.1004 39.2 36.4004 39.6 36.4004C39.9 36.4004 40.2 36.2004 40.2 35.8004C40.2 35.4004 40.2 34.9004 40.2 34.5004C40.2 34.2004 39.9 34.0004 39.5 34.0004C39.2 34.0004 38.9 34.2004 38.9 34.6004C38.9 34.6004 38.9 34.8004 38.9 35.1004ZM38.4 37.4004H38.9C38.9 37.5004 39 37.6004 39 37.7004C39.1 38.0004 39.4 38.1004 39.7 38.1004C40 38.1004 40.2 37.9004 40.3 37.6004C40.3 37.3004 40.3 36.9004 40.3 36.6004C40.1 36.7004 40 36.8004 39.8 36.8004C39.2 36.9004 38.5 36.5004 38.5 35.9004C38.4 35.4004 38.4 34.9004 38.5 34.4004C38.6 33.7004 39.1 33.4004 39.8 33.4004C40.4 33.4004 40.9 33.9004 41 34.5004C41 34.6004 41 34.6004 41 34.7004C41 35.6004 41 36.5004 41 37.4004C41 37.8004 40.9 38.2004 40.5 38.5004C40.1 38.8004 39.6 38.8004 39.2 38.6004C38.6 38.4004 38.3 37.9004 38.4 37.4004Z" fill="#E8C22C"/>
  <path d="M44.7999 38.6004C44.6999 38.5004 44.7 38.4004 44.7 38.3004C44.7 38.2004 44.6999 38.1004 44.7999 38.0004C44.8999 37.9004 44.9999 37.9004 45.0999 37.9004C45.1999 37.9004 45.3 37.9004 45.4 38.0004C45.5 38.1004 45.5 38.2004 45.5 38.3004C45.5 38.4004 45.5 38.5004 45.4 38.6004C45.3 38.7004 45.1999 38.7004 45.0999 38.7004C44.9999 38.7004 44.8999 38.6004 44.7999 38.6004Z" fill="#E8C22C"/>
  <path d="M6.30001 35.0998C6.30001 35.2998 6.30001 35.3998 6.30001 35.5998C6.30001 35.7998 6.40001 35.9998 6.60001 36.1998C6.80001 36.2998 7.10001 36.3998 7.30001 36.2998C7.60001 36.1998 7.70001 35.8998 7.70001 35.6998C7.70001 35.3998 7.70001 35.0998 7.70001 34.7998C7.70001 34.5998 7.60001 34.3998 7.50001 34.2998C7.30001 34.0998 7.00001 33.9998 6.80001 34.0998C6.50001 34.1998 6.40001 34.4998 6.40001 34.6998C6.30001 34.6998 6.30001 34.8998 6.30001 35.0998ZM5.70001 37.3998H6.30001C6.30001 37.4998 6.30001 37.4998 6.30001 37.5998C6.40001 37.8998 6.60001 38.0998 7.00001 38.0998C7.30001 38.0998 7.60001 37.8998 7.60001 37.4998C7.60001 37.3998 7.60001 37.3998 7.60001 37.2998C7.60001 36.9998 7.60001 36.7998 7.60001 36.4998C7.40001 36.6998 7.10001 36.7998 6.80001 36.7998C6.20001 36.7998 5.70001 36.2998 5.70001 35.6998C5.70001 35.2998 5.70001 34.8998 5.70001 34.4998C5.70001 33.7998 6.30001 33.2998 7.00001 33.2998C7.70001 33.2998 8.20001 33.7998 8.20001 34.4998C8.20001 35.4998 8.20001 36.4998 8.20001 37.4998C8.20001 37.5998 8.20001 37.5998 8.20001 37.6998C8.10001 38.2998 7.60001 38.6998 7.00001 38.6998C6.40001 38.6998 5.90001 38.3998 5.80001 37.7998C5.80001 37.6998 5.70001 37.4998 5.70001 37.3998Z" fill="#E8C22C"/>
  <path d="M14.1 35.0998C14.1 34.8998 14.1 34.7998 14.1 34.5998C14.1 34.2998 14 34.0998 13.7 33.8998C13.2 33.6998 12.8 33.9998 12.7 34.4998C12.7 34.7998 12.7 35.1998 12.7 35.4998C12.7 35.8998 13 36.1998 13.4 36.1998C13.8 36.1998 14 35.8998 14.1 35.4998C14.1 35.3998 14.1 35.1998 14.1 35.0998ZM12.2 37.3998H12.7C12.7 37.4998 12.7 37.5998 12.8 37.6998C12.9 37.9998 13.1 38.1998 13.5 38.0998C13.8 38.0998 14.1 37.8998 14.1 37.5998C14.1 37.2998 14.1 36.8998 14.1 36.5998C13.7 36.8998 13.3 36.8998 12.9 36.6998C12.5 36.4998 12.2 36.1998 12.2 35.6998C12.2 35.2998 12.2 34.7998 12.2 34.3998C12.3 33.6998 12.8 33.2998 13.5 33.2998C14.2 33.2998 14.7 33.7998 14.7 34.3998C14.7 34.8998 14.7 35.4998 14.7 36.0998C14.7 36.4998 14.7 36.8998 14.7 37.3998C14.7 38.5998 13.6 38.8998 12.9 38.5998C12.4 38.3998 12.2 37.8998 12.2 37.3998Z" fill="#E8C22C"/>
  <path d="M19.2 35.0998C19.2 34.8998 19.2 34.7998 19.2 34.5998C19.2 34.2998 19.1 34.0998 18.8 33.8998C18.3 33.6998 17.9 33.9998 17.8 34.4998C17.8 34.7998 17.8 35.1998 17.8 35.4998C17.8 35.8998 18.1 36.1998 18.5 36.1998C18.9 36.1998 19.1 35.8998 19.2 35.4998C19.2 35.3998 19.2 35.1998 19.2 35.0998ZM17.3 37.3998H17.8C17.8 37.4998 17.8 37.5998 17.9 37.6998C18 37.9998 18.2 38.1998 18.6 38.0998C18.9 38.0998 19.2 37.8998 19.2 37.5998C19.2 37.2998 19.2 36.8998 19.2 36.5998C18.8 36.8998 18.4 36.8998 18 36.6998C17.6 36.4998 17.3 36.1998 17.3 35.6998C17.3 35.2998 17.3 34.7998 17.3 34.3998C17.4 33.6998 17.9 33.2998 18.6 33.2998C19.3 33.2998 19.8 33.7998 19.8 34.3998C19.8 34.8998 19.8 35.4998 19.8 36.0998C19.8 36.4998 19.8 36.8998 19.8 37.3998C19.8 38.5998 18.7 38.8998 18 38.5998C17.5 38.3998 17.3 37.8998 17.3 37.3998Z" fill="#E8C22C"/>
  <path d="M22.3 35.0998C22.3 34.8998 22.3 34.7998 22.3 34.5998C22.3 34.2998 22.2 34.0998 21.9 33.8998C21.4 33.6998 21 33.9998 20.9 34.4998C20.9 34.7998 20.9 35.1998 20.9 35.4998C20.9 35.8998 21.2 36.1998 21.6 36.1998C22 36.1998 22.2 35.8998 22.3 35.4998C22.3 35.3998 22.3 35.1998 22.3 35.0998ZM20.4 37.3998H20.9C20.9 37.4998 20.9 37.5998 21 37.6998C21.1 37.9998 21.3 38.1998 21.7 38.0998C22 38.0998 22.3 37.8998 22.3 37.5998C22.3 37.2998 22.3 36.8998 22.3 36.5998C21.9 36.8998 21.5 36.8998 21.1 36.6998C20.7 36.4998 20.4 36.1998 20.4 35.6998C20.4 35.2998 20.4 34.7998 20.4 34.3998C20.5 33.6998 21 33.2998 21.7 33.2998C22.4 33.2998 22.9 33.7998 22.9 34.3998C22.9 34.8998 22.9 35.4998 22.9 36.0998C22.9 36.4998 22.9 36.8998 22.9 37.3998C22.9 38.5998 21.8 38.8998 21.1 38.5998C20.6 38.3998 20.3 37.8998 20.4 37.3998Z" fill="#E8C22C"/>
  <path d="M9.5 35.1004C9.5 35.3004 9.5 35.5004 9.5 35.8004C9.6 36.1004 9.8 36.4004 10.2 36.4004C10.5 36.4004 10.8 36.2004 10.8 35.8004C10.8 35.4004 10.8 34.9004 10.8 34.5004C10.8 34.2004 10.5 34.0004 10.1 34.0004C9.8 34.0004 9.5 34.2004 9.5 34.6004C9.5 34.6004 9.5 34.8004 9.5 35.1004ZM9 37.4004H9.5C9.5 37.5004 9.6 37.6004 9.6 37.7004C9.7 38.0004 10 38.1004 10.3 38.1004C10.6 38.1004 10.8 37.9004 10.9 37.6004C10.9 37.3004 10.9 36.9004 10.9 36.6004C10.7 36.7004 10.6 36.8004 10.4 36.8004C9.8 36.9004 9.1 36.5004 9.1 35.9004C9 35.4004 9 34.9004 9.1 34.4004C9.2 33.7004 9.7 33.4004 10.4 33.4004C11 33.4004 11.5 33.9004 11.6 34.5004C11.6 34.6004 11.6 34.6004 11.6 34.7004C11.6 35.6004 11.6 36.5004 11.6 37.4004C11.6 37.8004 11.5 38.2004 11.1 38.5004C10.7 38.8004 10.2 38.8004 9.8 38.6004C9.2 38.4004 9 37.9004 9 37.4004Z" fill="#E8C22C"/>
  <path d="M15.4 38.6004C15.3 38.5004 15.3 38.4004 15.3 38.3004C15.3 38.2004 15.3 38.1004 15.4 38.0004C15.5 37.9004 15.6 37.9004 15.7 37.9004C15.8 37.9004 15.9 37.9004 16 38.0004C16.1 38.1004 16.1 38.2004 16.1 38.3004C16.1 38.4004 16.1 38.5004 16 38.6004C15.9 38.7004 15.8 38.7004 15.7 38.7004C15.6 38.7004 15.5 38.6004 15.4 38.6004Z" fill="#E8C22C"/>
</svg>
