<svg width="28" height="28" viewBox="0 0 28 28" fill="none" xmlns="http://www.w3.org/2000/svg">
<g clip-path="url(#clip0)">
<path d="M14.6924 13.3083C14.4786 13.0945 14.1324 13.0945 13.9186 13.3083C13.7053 13.5216 13.7053 13.8678 13.9186 14.0816C14.1324 14.2949 14.4786 14.2949 14.6924 14.0816C14.9057 13.8678 14.9057 13.5216 14.6924 13.3083Z" fill="#FFFFFF"/>
<path d="M21.6526 6.34781C20.584 5.27927 18.8541 5.27922 17.7855 6.34781C16.7197 7.41361 16.7196 9.1483 17.7856 10.215C18.8518 11.2805 20.5865 11.2809 21.6526 10.2149C22.7211 9.14638 22.7213 7.41646 21.6526 6.34781ZM20.8792 9.44142C20.2397 10.0809 19.1988 10.0809 18.559 9.44153C17.9194 8.80158 17.9194 7.76066 18.5589 7.1212C19.2 6.4801 20.238 6.47999 20.8792 7.1212C21.5203 7.76224 21.5204 8.80027 20.8792 9.44142Z" fill="#FFFFFF"/>
<path d="M27.8397 0.160185C27.7323 0.0528334 27.5857 -0.005354 27.4334 0.000388171C27.3097 0.00481785 24.3656 0.123161 20.8659 1.36014C18.0615 2.35031 15.724 3.76797 13.9183 5.57374C13.5137 5.97838 13.1199 6.40745 12.7432 6.85321C10.9577 5.80223 9.52701 6.13177 8.62253 6.61581C6.53998 7.73034 5.25095 10.7565 5.25095 12.9211C5.25111 13.1422 5.38438 13.3417 5.5887 13.4263C5.65634 13.4543 5.72744 13.4679 5.79787 13.4679C5.94023 13.4679 6.08006 13.4123 6.18468 13.3077C7.28297 12.2095 8.63763 12.2781 9.08016 12.3363L9.27167 12.5278C8.89477 13.4247 8.59114 14.3166 8.36846 15.184C8.28807 15.4979 8.31519 15.83 8.43468 16.1339C7.90815 16.3765 7.40016 16.7328 6.95785 17.1751C5.55014 18.5829 5.26429 22.0137 5.25281 22.159C5.24023 22.3185 5.29809 22.4756 5.41123 22.5887C5.51421 22.6917 5.6535 22.7489 5.79787 22.7489C5.8122 22.7489 5.82659 22.7484 5.84097 22.7472C5.98633 22.7358 9.4172 22.4499 10.8249 21.0422C11.2671 20.6001 11.6233 20.0922 11.8659 19.5657C12.1876 19.6922 12.5187 19.7078 12.8164 19.6315C13.6834 19.4089 14.5751 19.1054 15.4721 18.7284L15.6636 18.9199C15.7218 19.3625 15.7905 20.7172 14.6922 21.8154C14.5359 21.9718 14.4891 22.207 14.5737 22.4113C14.6583 22.6157 14.8577 22.7489 15.0789 22.7489C17.2435 22.7489 20.2696 21.4598 21.3841 19.3773C21.8681 18.4729 22.1977 17.0422 21.1467 15.2567C21.5923 14.8801 22.0214 14.4864 22.4262 14.0816C24.232 12.2758 25.6496 9.93829 26.6397 7.13414C27.8768 3.63426 27.9951 0.690106 27.9995 0.566512C28.0049 0.414755 27.947 0.267591 27.8397 0.160185ZM6.47365 11.7448C6.81336 10.1007 7.80009 8.29663 9.13884 7.58012C10.0335 7.10138 11.0113 7.1483 12.0511 7.71744C11.1653 8.88239 10.3952 10.1375 9.75336 11.4628C9.74521 11.4578 9.64677 11.334 9.4639 11.2928C9.3887 11.2758 7.94173 10.9646 6.47365 11.7448ZM10.0515 20.2688C9.29956 21.0207 7.53562 21.4173 6.42071 21.5793C6.58269 20.4643 6.97934 18.7004 7.73124 17.9485C8.15233 17.5274 8.64058 17.2082 9.13135 17.0283L10.9717 18.8687C10.7919 19.3595 10.4727 19.8477 10.0515 20.2688ZM12.5447 18.572C12.3864 18.6125 12.2031 18.553 12.0669 18.417C11.3594 17.7095 11.0826 17.4327 10.9957 17.3459C10.8365 17.1867 10.446 16.7961 9.58339 15.9335C9.447 15.7968 9.3875 15.6136 9.42792 15.4556C9.60308 14.7734 9.83216 14.0735 10.1107 13.3669L14.6331 17.8893C13.9264 18.1679 13.2266 18.397 12.5447 18.572ZM20.4199 18.8612C19.7034 20.1999 17.8994 21.1867 16.2554 21.5263C16.7795 20.5399 16.8951 19.2843 16.7036 18.5228C16.6591 18.346 16.5437 18.2571 16.5373 18.2466C17.8625 17.6048 19.1175 16.8347 20.2826 15.9489C20.8517 16.9888 20.8986 17.9667 20.4199 18.8612ZM21.6529 13.3082C21.1601 13.8009 20.6295 14.277 20.0757 14.7231C18.7445 15.7949 17.2793 16.7028 15.7161 17.4256L10.5744 12.284C11.2972 10.7207 12.2051 9.25552 13.2769 7.92448C13.7233 7.37033 14.1993 6.83965 14.6919 6.34713C16.312 4.72696 18.4029 3.43755 20.9083 2.50939L25.4906 7.09176C24.5626 9.59704 23.2732 11.688 21.6529 13.3082ZM25.8841 5.93835L22.0617 2.11592C24.1442 1.46907 25.956 1.22686 26.8603 1.1398C26.7732 2.04427 26.5309 3.85601 25.8841 5.93835Z" fill="#FFFFFF"/>
<path d="M13.1453 22.5888C12.9316 22.3753 12.5853 22.3754 12.3718 22.5889L10.8253 24.136C10.6118 24.3496 10.6118 24.6959 10.8254 24.9094C11.0391 25.1229 11.3853 25.1229 11.5988 24.9093L13.1454 23.3622C13.3589 23.1486 13.3588 22.8023 13.1453 22.5888Z" fill="#FFFFFF"/>
<path d="M5.41153 14.855C5.19803 14.6414 4.8518 14.6414 4.63814 14.8549L3.09103 16.4015C2.87742 16.615 2.87737 16.9613 3.09087 17.1749C3.30431 17.3884 3.65054 17.3886 3.86426 17.175L5.41137 15.6284C5.62497 15.4149 5.62503 15.0687 5.41153 14.855Z" fill="#FFFFFF"/>
<path d="M9.27845 23.3623C9.065 23.1488 8.71867 23.1488 8.50506 23.3623L4.80053 27.0662C4.58692 27.2798 4.58692 27.6261 4.80048 27.8396C5.01392 28.0532 5.36026 28.0533 5.57387 27.8397L9.27839 24.1357C9.492 23.9222 9.492 23.5759 9.27845 23.3623Z" fill="#FFFFFF"/>
<path d="M4.90342 23.3623C4.68992 23.1488 4.34358 23.1488 4.13003 23.3623L0.425503 27.0662C0.211894 27.2798 0.211894 27.6261 0.425448 27.8396C0.638893 28.0532 0.985228 28.0533 1.19884 27.8397L4.90336 24.1357C5.11697 23.9222 5.11697 23.5759 4.90342 23.3623Z" fill="#FFFFFF"/>
<path d="M4.63762 18.7216C4.42412 18.5081 4.07778 18.5081 3.86423 18.7217L0.16025 22.4262C-0.0533038 22.6398 -0.0533038 22.9861 0.160305 23.1997C0.373859 23.4132 0.72014 23.4132 0.933694 23.1996L4.63767 19.4951C4.85123 19.2815 4.85123 18.9353 4.63762 18.7216Z" fill="#FFFFFF"/>
<path d="M17.0123 10.9878C16.7987 10.7742 16.4525 10.7742 16.2389 10.9878L15.4656 11.7611C15.252 11.9746 15.252 12.3209 15.4656 12.5345C15.6792 12.7481 16.0254 12.7481 16.239 12.5345L17.0123 11.7612C17.2259 11.5477 17.2259 11.2014 17.0123 10.9878Z" fill="#FFFFFF"/>
</g>
<defs>
<clipPath id="clip0">
<rect width="28" height="28" fill="white"/>
</clipPath>
</defs>
</svg>
