<svg width="61" height="58" viewBox="0 0 61 58" fill="none" xmlns="http://www.w3.org/2000/svg">
  <g clip-path="url(#clip0)">
    <path d="M21.5 3.3C21 4.4 20.1 5.2 19 5.5C18.6 4.5 18.6 3.3 19.1 2.2C19.6 1.1 20.5 0.3 21.6 0C22 1 22 2.2 21.5 3.3Z" fill="#E8C22C"/>
    <path d="M25.3 5.49992C24.1 5.79992 23 5.49992 22 4.79992C22.6 3.79992 23.5 3.09992 24.7 2.89992C25.9 2.59992 27 2.89992 28 3.49992C27.4 4.59992 26.5 5.29992 25.3 5.49992Z" fill="#E8C22C"/>
    <path d="M22.6 6.40026C21.5 5.90026 20.3 5.90026 19.3 6.30026C19.6 7.40026 20.4 8.30026 21.5 8.80026C22.6 9.30026 23.8 9.30026 24.8 8.90026C24.5 7.90026 23.7 7.00026 22.6 6.40026Z" fill="#E8C22C"/>
    <path d="M17.2 5.20039C16.9 6.40039 16.1 7.30039 15.1 7.80039C14.5 6.90039 14.3 5.70039 14.6 4.50039C14.9 3.30039 15.7 2.40039 16.7 1.90039C17.3 2.90039 17.5 4.10039 17.2 5.20039Z" fill="#E8C22C"/>
    <path d="M18.8 8.09974C17.6 7.79974 16.5 7.99974 15.5 8.59974C16 9.59974 16.9 10.3997 18.1 10.6997C19.3 10.9997 20.4 10.7997 21.4 10.1997C20.9 9.19974 20 8.39974 18.8 8.09974Z" fill="#E8C22C"/>
    <path d="M13.2 7.8002C13.1 9.0002 12.5 10.0002 11.6 10.7002C10.9 9.9002 10.4 8.7002 10.5 7.6002C10.6 6.4002 11.2 5.4002 12.1 4.7002C12.9 5.5002 13.3 6.6002 13.2 7.8002Z" fill="#E8C22C"/>
    <path d="M15.4 10.3999C14.2 10.2999 13.1 10.6999 12.3 11.4999C13 12.3999 14 12.9999 15.2 13.0999C16.4 13.1999 17.5 12.7999 18.3 11.9999C17.6 11.0999 16.6 10.4999 15.4 10.3999Z" fill="#E8C22C"/>
    <path d="M9.79998 11.1002C9.89998 12.3002 9.49998 13.4002 8.69998 14.2002C7.79998 13.5002 7.19998 12.5002 7.09998 11.3002C7.09998 10.1002 7.49998 9.0002 8.19998 8.2002C9.09998 8.9002 9.69998 9.9002 9.79998 11.1002Z" fill="#E8C22C"/>
    <path d="M12.4 13.2002C11.2 13.3002 10.2 13.9002 9.5 14.8002C10.3 15.5002 11.5 16.0002 12.6 15.9002C13.8 15.8002 14.8 15.2002 15.5 14.3002C14.7 13.6002 13.6 13.1002 12.4 13.2002Z" fill="#E8C22C"/>
    <path d="M6.99998 14.8998C7.29998 16.0998 7.09998 17.1998 6.49998 18.1998C5.49998 17.6998 4.69998 16.7998 4.39998 15.5998C4.09998 14.3998 4.29998 13.2998 4.89998 12.2998C5.89998 12.7998 6.69998 13.7998 6.99998 14.8998Z" fill="#E8C22C"/>
    <path d="M9.89999 16.5997C8.69999 16.8997 7.79999 17.6997 7.29999 18.6997C8.19999 19.2997 9.39999 19.4997 10.6 19.1997C11.8 18.8997 12.7 18.0997 13.2 17.0997C12.3 16.4997 11.1 16.2997 9.89999 16.5997Z" fill="#E8C22C"/>
    <path d="M4.89999 19.1004C5.39999 20.2004 5.39999 21.4004 4.99999 22.4004C3.89999 22.1004 2.99999 21.3004 2.49999 20.2004C1.99999 19.2004 1.99999 18.0004 2.39999 16.9004C3.49999 17.3004 4.39999 18.1004 4.89999 19.1004Z" fill="#E8C22C"/>
    <path d="M8.09996 20.2997C6.99996 20.7997 6.19996 21.6997 5.89996 22.7997C6.89996 23.1997 8.09996 23.1997 9.19996 22.6997C10.3 22.1997 11.1 21.2997 11.4 20.1997C10.4 19.7997 9.19996 19.7997 8.09996 20.2997Z" fill="#E8C22C"/>
    <path d="M3.60001 23.7C4.30001 24.7 4.50001 25.9 4.30001 27C3.20001 26.8 2.20001 26.2 1.50001 25.3C0.800008 24.3 0.600008 23.1 0.800008 22C1.90001 22.1 2.90001 22.7 3.60001 23.7Z" fill="#E8C22C"/>
    <path d="M6.90001 24.2999C5.90001 24.9999 5.30001 25.9999 5.20001 27.0999C6.30001 27.2999 7.50001 27.0999 8.50001 26.3999C9.50001 25.6999 10.1 24.6999 10.2 23.5999C9.10001 23.3999 7.90001 23.5999 6.90001 24.2999Z" fill="#E8C22C"/>
    <path d="M3.09999 28.3996C3.89999 29.1996 4.39999 30.3996 4.29999 31.4996C3.19999 31.4996 2.09999 31.0996 1.19999 30.2996C0.299985 29.4996 -0.100015 28.2996 -1.46497e-05 27.1996C1.09999 27.0996 2.19999 27.4996 3.09999 28.3996Z" fill="#E8C22C"/>
    <path d="M6.4 28.3996C5.6 29.1996 5.1 30.3996 5.2 31.4996C6.3 31.4996 7.4 31.0996 8.3 30.2996C9.1 29.4996 9.6 28.2996 9.5 27.1996C8.4 27.0996 7.3 27.4996 6.4 28.3996Z" fill="#E8C22C"/>
    <path d="M3.39998 33.0997C4.39998 33.7997 4.99998 34.7997 5.09998 35.8997C3.99998 36.0997 2.79998 35.8997 1.79998 35.1997C0.799976 34.4997 0.199976 33.4997 0.0999756 32.3997C1.19998 32.1997 2.39998 32.3997 3.39998 33.0997Z" fill="#E8C22C"/>
    <path d="M6.69996 32.5002C5.99996 33.5002 5.79996 34.7002 5.99996 35.8002C7.09996 35.6002 8.19996 35.0002 8.79996 34.0002C9.49996 33.0002 9.69996 31.8002 9.49996 30.7002C8.39996 30.9002 7.39996 31.5002 6.69996 32.5002Z" fill="#E8C22C"/>
    <path d="M4.50001 37.7001C5.60001 38.2001 6.40001 39.1001 6.70001 40.2001C5.70001 40.6001 4.50001 40.6001 3.40001 40.1001C2.30001 39.6001 1.50001 38.7001 1.20001 37.6001C2.20001 37.2001 3.40001 37.2001 4.50001 37.7001Z" fill="#E8C22C"/>
    <path d="M7.59997 36.4998C7.09997 37.5998 7.09997 38.7998 7.49997 39.7998C8.59997 39.4998 9.49997 38.6998 9.99997 37.5998C10.5 36.4998 10.5 35.2998 10.1 34.2998C9.09997 34.6998 8.19997 35.4998 7.59997 36.4998Z" fill="#E8C22C"/>
    <path d="M6.39998 42.0001C7.59998 42.3001 8.49998 43.1001 8.99998 44.1001C8.09998 44.7001 6.89998 44.9001 5.69998 44.6001C4.49998 44.3001 3.59998 43.5001 3.09998 42.5001C4.09998 41.9001 5.29998 41.7001 6.39998 42.0001Z" fill="#E8C22C"/>
    <path d="M9.3 40.3002C9 41.5002 9.2 42.6002 9.8 43.6002C10.8 43.1002 11.6 42.2002 11.9 41.0002C12.2 39.8002 12 38.7002 11.4 37.7002C10.4 38.3002 9.6 39.2002 9.3 40.3002Z" fill="#E8C22C"/>
    <path d="M8.99996 45.9004C10.2 46.0004 11.2 46.6004 11.9 47.5004C11.1 48.2004 9.89996 48.7004 8.79996 48.6004C7.59996 48.5004 6.59996 47.9004 5.89996 47.0004C6.69996 46.3004 7.79996 45.8004 8.99996 45.9004Z" fill="#E8C22C"/>
    <path d="M11.6 43.8004C11.5 45.0004 11.9 46.1004 12.7 46.9004C13.6 46.2004 14.2 45.2004 14.3 44.0004C14.4 42.8004 14 41.7004 13.2 40.9004C12.3 41.6004 11.7 42.6004 11.6 43.8004Z" fill="#E8C22C"/>
    <path d="M12.3 49.3999C13.5 49.2999 14.6 49.6999 15.4 50.4999C14.7 51.3999 13.7 51.9999 12.5 52.0999C11.3 52.1999 10.2 51.7999 9.39996 50.9999C10.1 50.0999 11.1 49.4999 12.3 49.3999Z" fill="#E8C22C"/>
    <path d="M14.4 46.8002C14.5 48.0002 15.1 49.0002 16 49.7002C16.7 48.9002 17.2 47.7002 17.1 46.6002C17 45.4002 16.4 44.4002 15.5 43.7002C14.7 44.5002 14.3 45.6002 14.4 46.8002Z" fill="#E8C22C"/>
    <path d="M16.1 52.2003C17.3 51.9003 18.4 52.1003 19.4 52.7003C18.9 53.7003 18 54.5003 16.8 54.8003C15.6 55.1003 14.5 54.9003 13.5 54.3003C14 53.2003 14.9 52.5003 16.1 52.2003Z" fill="#E8C22C"/>
    <path d="M17.8 49.3C18.1 50.5 18.9 51.4 19.9 51.9C20.5 51 20.7 49.8 20.4 48.6C20.1 47.4 19.3 46.5 18.3 46C17.7 46.9 17.5 48.1 17.8 49.3Z" fill="#E8C22C"/>
    <path d="M20.3 54.2997C21.4 53.7997 22.6 53.7997 23.6 54.1997C23.3 55.2997 22.5 56.1997 21.4 56.6997C20.3 57.1997 19.1 57.1997 18.1 56.7997C18.5 55.6997 19.3 54.7997 20.3 54.2997Z" fill="#E8C22C"/>
    <path d="M21.5 51.0998C22 52.1998 22.9 52.9998 24 53.2998C24.4 52.2998 24.4 51.0998 23.9 49.9998C23.4 48.8998 22.5 48.0998 21.4 47.7998C21 48.7998 21 49.9998 21.5 51.0998Z" fill="#E8C22C"/>
    <path d="M30.2 54.7004C16 54.7004 4.5 43.1004 4.5 29.0004C4.5 18.2004 11.3 8.50039 21.4 4.90039C21.5 4.90039 21.6 4.90039 21.7 5.00039C21.7 5.10039 21.7 5.20039 21.6 5.30039C11.7 8.90039 5 18.4004 5 29.0004C5 42.9004 16.3 54.2004 30.2 54.2004C31.4 54.2004 32.7 54.1004 33.9 53.9004C34 53.9004 34.1 54.0004 34.2 54.1004C34.2 54.2004 34.1 54.3004 34 54.4004C32.7 54.6004 31.5 54.7004 30.2 54.7004Z" fill="#E8C22C"/>
    <path d="M38.9 3.3C39.4 4.4 40.3 5.2 41.4 5.5C41.8 4.5 41.8 3.3 41.3 2.2C40.8 1.1 39.9 0.3 38.8 0C38.4 1 38.4 2.2 38.9 3.3Z" fill="#E8C22C"/>
    <path d="M35.1 5.49992C36.3 5.79992 37.4 5.49992 38.4 4.79992C37.8 3.79992 36.9 3.09992 35.7 2.89992C34.5 2.59992 33.4 2.89992 32.4 3.49992C33 4.59992 33.9 5.29992 35.1 5.49992Z" fill="#E8C22C"/>
    <path d="M37.7 6.40039C38.8 5.90039 40 5.90039 41 6.40039C40.7 7.50039 39.9 8.40039 38.8 8.90039C37.7 9.40039 36.5 9.40039 35.5 9.00039C35.9 7.90039 36.6 7.00039 37.7 6.40039Z" fill="#E8C22C"/>
    <path d="M43.2 5.20039C43.5 6.40039 44.3 7.30039 45.3 7.80039C45.9 6.90039 46.1 5.70039 45.8 4.50039C45.5 3.30039 44.7 2.40039 43.7 1.90039C43.1 2.90039 42.9 4.10039 43.2 5.20039Z" fill="#E8C22C"/>
    <path d="M41.5 8.09974C42.7 7.79974 43.8 7.99974 44.8 8.59974C44.3 9.59974 43.4 10.3997 42.2 10.6997C41 10.9997 39.9 10.7997 38.9 10.1997C39.5 9.19974 40.4 8.39974 41.5 8.09974Z" fill="#E8C22C"/>
    <path d="M47.0999 7.8002C47.1999 9.0002 47.7999 10.0002 48.6999 10.7002C49.3999 9.9002 49.8999 8.7002 49.7999 7.6002C49.6999 6.4002 49.0999 5.4002 48.1999 4.7002C47.3999 5.5002 46.9999 6.6002 47.0999 7.8002Z" fill="#E8C22C"/>
    <path d="M45 10.3999C46.2 10.2999 47.3 10.6999 48.1 11.4999C47.4 12.3999 46.4 12.9999 45.2 13.0999C44 13.1999 42.9 12.7999 42.1 11.9999C42.8 11.0999 43.8 10.4999 45 10.3999Z" fill="#E8C22C"/>
    <path d="M50.5 11.1002C50.4 12.3002 50.8 13.4002 51.6 14.2002C52.5 13.5002 53.1 12.5002 53.2 11.3002C53.3 10.1002 52.9 9.0002 52.1 8.2002C51.2 8.9002 50.6 9.9002 50.5 11.1002Z" fill="#E8C22C"/>
    <path d="M48 13.2002C49.2 13.3002 50.2 13.9002 50.9 14.8002C50.1 15.5002 48.9 16.0002 47.8 15.9002C46.6 15.8002 45.6 15.2002 44.9 14.3002C45.7 13.6002 46.8 13.1002 48 13.2002Z" fill="#E8C22C"/>
    <path d="M53.2999 14.8998C52.9999 16.0998 53.1999 17.1998 53.7999 18.1998C54.7999 17.6998 55.5999 16.7998 55.8999 15.5998C56.1999 14.3998 55.9999 13.2998 55.3999 12.2998C54.3999 12.7998 53.5999 13.7998 53.2999 14.8998Z" fill="#E8C22C"/>
    <path d="M50.5 16.5997C51.7 16.8997 52.5999 17.6997 53.0999 18.6997C52.1999 19.2997 50.9999 19.4997 49.7999 19.1997C48.5999 18.8997 47.7 18.0997 47.2 17.0997C48.1 16.4997 49.3 16.2997 50.5 16.5997Z" fill="#E8C22C"/>
    <path d="M55.4 19.1004C54.9 20.2004 54.9 21.4004 55.3 22.4004C56.4 22.1004 57.3 21.3004 57.8 20.2004C58.3 19.1004 58.3 17.9004 57.9 16.9004C56.9 17.3004 55.9 18.1004 55.4 19.1004Z" fill="#E8C22C"/>
    <path d="M52.3 20.2997C53.4 20.7997 54.2 21.6997 54.5 22.7997C53.5 23.1997 52.3 23.1997 51.2 22.6997C50.1 22.1997 49.3 21.2997 49 20.1997C50 19.7997 51.2 19.7997 52.3 20.2997Z" fill="#E8C22C"/>
    <path d="M56.8 23.7C56.1 24.7 55.9 25.9 56.1 27C57.2 26.8 58.2 26.2 58.9 25.3C59.6 24.3 59.8 23.1 59.6 22C58.5 22.1 57.4 22.7 56.8 23.7Z" fill="#E8C22C"/>
    <path d="M53.5 24.2999C54.5 24.9999 55.1 25.9999 55.2 27.0999C54.1 27.2999 52.9 27.0999 51.9 26.3999C50.9 25.6999 50.3 24.6999 50.2 23.5999C51.3 23.3999 52.5 23.5999 53.5 24.2999Z" fill="#E8C22C"/>
    <path d="M57.3 28.3996C56.5 29.1996 56 30.3996 56.1 31.4996C57.2 31.4996 58.3 31.0996 59.2 30.2996C60 29.4996 60.5 28.2996 60.4 27.1996C59.3 27.0996 58.1 27.4996 57.3 28.3996Z" fill="#E8C22C"/>
    <path d="M53.9 28.3996C54.7 29.1996 55.2 30.3996 55.1 31.4996C54 31.4996 52.9 31.0996 52 30.2996C51.2 29.4996 50.7 28.2996 50.8 27.1996C52 27.0996 53.1 27.4996 53.9 28.3996Z" fill="#E8C22C"/>
    <path d="M56.9999 33.0997C55.9999 33.7997 55.3999 34.7997 55.2999 35.8997C56.3999 36.0997 57.5999 35.8997 58.5999 35.1997C59.5999 34.4997 60.1999 33.4997 60.2999 32.3997C59.0999 32.1997 57.9999 32.3997 56.9999 33.0997Z" fill="#E8C22C"/>
    <path d="M53.7 32.4998C54.4 33.4998 54.6 34.6998 54.4 35.7998C53.3 35.5998 52.3 34.9998 51.6 34.0998C50.9 33.0998 50.7 31.8998 50.9 30.7998C52 30.8998 53 31.4998 53.7 32.4998Z" fill="#E8C22C"/>
    <path d="M55.9 37.7001C54.8 38.2001 54 39.1001 53.7 40.2001C54.7 40.6001 55.9 40.6001 57 40.1001C58.1 39.6001 58.9 38.7001 59.2 37.6001C58.1 37.2001 56.9 37.2001 55.9 37.7001Z" fill="#E8C22C"/>
    <path d="M52.7 36.4998C53.2 37.5998 53.2 38.7998 52.8 39.7998C51.7 39.4998 50.8 38.6998 50.3 37.5998C49.8 36.4998 49.8 35.2998 50.2 34.2998C51.3 34.6998 52.2 35.4998 52.7 36.4998Z" fill="#E8C22C"/>
    <path d="M54 42.0001C52.8 42.3001 51.9 43.1001 51.4 44.1001C52.3 44.7001 53.5 44.9001 54.7 44.6001C55.9 44.3001 56.8 43.5001 57.3 42.5001C56.3 41.9001 55.1 41.7001 54 42.0001Z" fill="#E8C22C"/>
    <path d="M51.1 40.3002C51.4 41.5002 51.2 42.6002 50.6 43.6002C49.6 43.1002 48.8 42.2002 48.5 41.0002C48.2 39.8002 48.4 38.7002 49 37.7002C50 38.3002 50.8 39.2002 51.1 40.3002Z" fill="#E8C22C"/>
    <path d="M51.3 45.9004C50.1 46.0004 49.1 46.6004 48.4 47.5004C49.2 48.2004 50.4 48.7004 51.5 48.6004C52.7 48.5004 53.7 47.9004 54.4 47.0004C53.7 46.3004 52.5 45.8004 51.3 45.9004Z" fill="#E8C22C"/>
    <path d="M48.7999 43.8004C48.8999 45.0004 48.4999 46.1004 47.6999 46.9004C46.7999 46.2004 46.1999 45.2004 46.0999 44.0004C45.9999 42.8004 46.3999 41.7004 47.1999 40.9004C48.0999 41.6004 48.6999 42.6004 48.7999 43.8004Z" fill="#E8C22C"/>
    <path d="M48.1 49.3999C46.9 49.2999 45.8 49.6999 45 50.4999C45.7 51.3999 46.7 51.9999 47.9 52.0999C49.1 52.1999 50.2 51.7999 51 50.9999C50.3 50.0999 49.3 49.4999 48.1 49.3999Z" fill="#E8C22C"/>
    <path d="M45.9 46.8002C45.8 48.0002 45.2 49.0002 44.3 49.7002C43.6 48.9002 43.1 47.7002 43.2 46.6002C43.3 45.4002 43.9 44.4002 44.8 43.7002C45.6 44.5002 46 45.6002 45.9 46.8002Z" fill="#E8C22C"/>
    <path d="M44.3 52.2003C43.1 51.9003 42 52.1003 41 52.7003C41.5 53.7003 42.4 54.5003 43.6 54.8003C44.8 55.1003 45.9 54.9003 46.9 54.3003C46.3 53.2003 45.4 52.5003 44.3 52.2003Z" fill="#E8C22C"/>
    <path d="M42.6 49.3C42.3 50.5 41.5 51.4 40.5 51.9C39.9 51 39.7 49.8 40 48.6C40.3 47.4 41.1 46.5 42.1 46C42.7 46.9 42.9 48.1 42.6 49.3Z" fill="#E8C22C"/>
    <path d="M40 54.2997C38.9 53.7997 37.7 53.7997 36.7 54.1997C37 55.2997 37.8 56.1997 38.9 56.6997C40 57.1997 41.2 57.1997 42.2 56.7997C41.9 55.6997 41.1 54.7997 40 54.2997Z" fill="#E8C22C"/>
    <path d="M38.9 51.0998C38.4 52.1998 37.5 52.9998 36.4 53.2998C36 52.2998 36 51.0998 36.5 49.9998C37 48.8998 37.9 48.0998 39 47.7998C39.4 48.7998 39.4 49.9998 38.9 51.0998Z" fill="#E8C22C"/>
    <path d="M30.2 54.6998C28.9 54.6998 27.7 54.5998 26.4 54.3998C26.3 54.3998 26.2 54.2998 26.2 54.0998C26.2 53.9998 26.3 53.8998 26.5 53.8998C27.7 54.0998 29 54.1998 30.2 54.1998C44.1 54.1998 55.4 42.8998 55.4 28.9998C55.4 18.3998 48.7 8.89982 38.8 5.29982C38.7 5.29982 38.6 5.09982 38.7 4.99982C38.7 4.89982 38.9 4.79982 39 4.89982C49 8.49982 55.8 18.1998 55.8 28.9998C55.8 43.0998 44.3 54.6998 30.2 54.6998Z" fill="#E8C22C"/>
    <path d="M25.2 58.0002C25 57.9002 25 57.8002 25 57.6002C25.9 55.5002 27.9 54.2002 30.2 54.2002C32.5 54.2002 34.5 55.5002 35.3 57.6002C35.3 57.7002 35.3 57.9002 35.2 57.9002C35.1 58.0002 34.9 57.9002 34.9 57.8002C34.1 55.9002 32.2 54.7002 30.2 54.7002C28.1 54.7002 26.3 55.9002 25.5 57.9002C25.4 57.9002 25.3 58.0002 25.2 58.0002Z" fill="#E8C22C"/>
    <path d="M29.2 55.8002C29.1 55.8002 29 55.7002 29 55.6002V53.4002C29 53.3002 29.1 53.2002 29.2 53.2002C29.3 53.2002 29.4 53.3002 29.4 53.4002V55.6002C29.5 55.7002 29.4 55.8002 29.2 55.8002Z" fill="#E8C22C"/>
    <path d="M30.2 55.8002C30.1 55.8002 30 55.7002 30 55.6002V53.4002C30 53.3002 30.1 53.2002 30.2 53.2002C30.3 53.2002 30.4 53.3002 30.4 53.4002V55.6002C30.4 55.7002 30.3 55.8002 30.2 55.8002Z" fill="#E8C22C"/>
    <path d="M31.1 55.8002C31 55.8002 30.9 55.7002 30.9 55.6002V53.4002C30.9 53.3002 31 53.2002 31.1 53.2002C31.2 53.2002 31.3 53.3002 31.3 53.4002V55.6002C31.4 55.7002 31.2 55.8002 31.1 55.8002Z" fill="#E8C22C"/>
    <path d="M26.1 43.9004L26.5 45.1004H27.8L26.8 45.9004L27.2 47.1004L26.1 46.4004L25.1 47.1004L25.5 45.9004L24.4 45.1004H25.7L26.1 43.9004Z" fill="#E8C22C"/>
    <path d="M30.2 43.9004L30.6 45.1004H31.9L30.8 45.9004L31.2 47.1004L30.2 46.4004L29.1 47.1004L29.5 45.9004L28.5 45.1004H29.8L30.2 43.9004Z" fill="#E8C22C"/>
    <path d="M34.2 43.9004L34.6 45.1004H35.9L34.9 45.9004L35.3 47.1004L34.2 46.4004L33.2 47.1004L33.6 45.9004L32.5 45.1004H33.8L34.2 43.9004Z" fill="#E8C22C"/>
    <path d="M26.1 12.4H24.9V12H27.7V12.4H26.5V15.4H26V12.4H26.1Z" fill="#E8C22C"/>
    <path d="M30.3 12.9996C30.5 13.1996 30.6 13.4996 30.6 13.7996V15.2996H30.1V13.8996C30.1 13.6996 30 13.4996 29.9 13.2996C29.8 13.1996 29.6 13.0996 29.4 13.0996C29.1 13.0996 28.9 13.1996 28.8 13.2996C28.7 13.3996 28.6 13.6996 28.6 13.8996V15.1996H28.1V11.5996H28.6V12.9996C28.7 12.8996 28.8 12.7996 29 12.6996C29.2 12.5996 29.3 12.5996 29.5 12.5996C29.9 12.7996 30.1 12.7996 30.3 12.9996Z" fill="#E8C22C"/>
    <path d="M33.7999 14.2H31.7C31.7 14.4 31.8 14.6 32 14.7C32.2 14.8 32.3999 14.9 32.5999 14.9C32.8999 14.9 33.1999 14.8 33.2999 14.6L33.5999 14.9C33.4999 15 33.3 15.1 33.2 15.2C33.1 15.3 32.7999 15.3 32.5999 15.3C32.2999 15.3 32.1 15.2 31.9 15.1C31.7 15 31.5 14.8 31.4 14.6C31.3 14.4 31.2 14.2 31.2 13.9C31.2 13.7 31.3 13.4 31.4 13.2C31.5 13 31.7 12.8 31.9 12.7C32.1 12.6 32.2999 12.5 32.5999 12.5C32.8999 12.5 33.0999 12.6 33.2999 12.7C33.4999 12.8 33.5999 13 33.7999 13.2C33.8999 13.4 34 13.6 34 13.9C33.8 14.1 33.7999 14.2 33.7999 14.2ZM32 13.3C31.8 13.4 31.8 13.6 31.7 13.8H33.4C33.4 13.6 33.2999 13.4 33.0999 13.3C32.8999 13.2 32.8 13.1 32.5 13.1C32.3 13.1 32.1 13.2 32 13.3Z" fill="#E8C22C"/>
    <path d="M18.2 17.7998H19.6C20 17.7998 20.3 17.8998 20.6 17.9998C20.9 18.0998 21.1 18.2998 21.2 18.5998C21.3 18.8998 21.4 19.1998 21.4 19.4998C21.4 19.7998 21.3 20.0998 21.2 20.3998C21 20.6998 20.8 20.8998 20.6 20.9998C20.3 21.0998 20 21.1998 19.6 21.1998H18.2V17.7998ZM19.6 20.7998C19.9 20.7998 20.1 20.6998 20.3 20.5998C20.5 20.4998 20.7 20.2998 20.8 20.1998C21 19.9998 21 19.6998 21 19.4998C21 19.2998 21 18.9998 20.9 18.7998C20.8 18.5998 20.6 18.4998 20.4 18.3998C20.2 18.2998 19.9 18.1998 19.7 18.1998H18.8V20.7998H19.6Z" fill="#E8C22C"/>
    <path d="M24.6 18.5996V21.1996H24.2V20.7996C24.1 20.8996 24 20.9996 23.8 21.0996C23.6 21.1996 23.5 21.1996 23.3 21.1996C23 21.1996 22.7 21.0996 22.5 20.8996C22.3 20.6996 22.2 20.3996 22.2 20.0996V18.5996H22.7V19.9996C22.7 20.1996 22.8 20.3996 22.9 20.5996C23 20.6996 23.2 20.7996 23.4 20.7996C23.6 20.7996 23.8 20.6996 24 20.5996C24.1 20.4996 24.2 20.1996 24.2 19.9996V18.6996H24.6V18.5996Z" fill="#E8C22C"/>
    <path d="M26.5 21.0004C26.3 20.9004 26.1 20.7004 26 20.5004C25.9 20.3004 25.8 20.1004 25.8 19.8004C25.8 19.5004 25.9 19.3004 26 19.1004C26.1 18.9004 26.3 18.7004 26.5 18.6004C26.7 18.5004 26.9 18.4004 27.2 18.4004C27.4 18.4004 27.6 18.4004 27.8 18.5004C28 18.6004 28.1 18.7004 28.2 18.9004L27.8 19.1004C27.7 19.0004 27.6 18.9004 27.5 18.8004C27.4 19.0004 27.3 19.0004 27.1 19.0004C26.9 19.0004 26.8 19.0004 26.6 19.1004C26.5 19.2004 26.4 19.3004 26.3 19.4004C26.2 19.5004 26.2 19.7004 26.2 19.9004C26.2 20.1004 26.2 20.2004 26.3 20.4004C26.4 20.6004 26.5 20.6004 26.6 20.7004C26.7 20.8004 26.9 20.8004 27.1 20.8004C27.2 20.8004 27.4 20.8004 27.5 20.7004C27.6 20.6004 27.7 20.5004 27.8 20.4004L28.2 20.6004C28.1 20.8004 28 20.9004 27.8 21.0004C27.6 21.1004 27.4 21.1004 27.2 21.1004C26.9 21.2004 26.7 21.2004 26.5 21.0004Z" fill="#E8C22C"/>
    <path d="M30.6 18.8006C30.8 19.0006 30.9 19.2006 30.9 19.6006V21.2006H30.5V20.9006C30.4 21.0006 30.3 21.1006 30.2 21.2006C30.1 21.3006 29.9 21.3006 29.7 21.3006C29.4 21.3006 29.2 21.2006 29 21.1006C28.8 21.0006 28.7 20.8006 28.7 20.6006C28.7 20.4006 28.8 20.2006 28.9 20.1006C29 20.0006 29.3 19.9006 29.7 19.9006H30.4V19.8006C30.4 19.6006 30.3 19.4006 30.2 19.3006C30.1 19.0006 29.9 19.0006 29.7 19.0006C29.5 19.0006 29.4 19.0006 29.3 19.1006C29.2 19.1006 29 19.2006 28.9 19.3006L28.7 19.0006C28.8 18.9006 29 18.8006 29.2 18.8006C29.4 18.8006 29.6 18.7006 29.8 18.7006C30.1 18.6006 30.4 18.7006 30.6 18.8006ZM30.1 20.7006C30.2 20.6006 30.3 20.5006 30.4 20.4006V20.0006H29.7C29.3 20.0006 29.1 20.1006 29.1 20.4006C29.1 20.5006 29.1 20.6006 29.3 20.7006C29.4 20.8006 29.5 20.8006 29.7 20.8006C29.8 20.9006 30 20.8006 30.1 20.7006Z" fill="#E8C22C"/>
    <path d="M34.3 21C34.2 21.1 34.1 21.1 34 21.1C33.9 21.1 33.8 21.1 33.7 21.1C33.4 21.1 33.2 21 33.1 20.9C33 20.8 32.9 20.6 32.9 20.3V19H32.5V18.6H32.9V18H33.4V18.6H34.1V19H33.4V20.4C33.4 20.5 33.4 20.6 33.5 20.7C33.6 20.8 33.7 20.8 33.8 20.8C33.9 20.8 34.1 20.8 34.2 20.7L34.3 21Z" fill="#E8C22C"/>
    <path d="M37.3 18.5996V21.1996H36.9V20.7996C36.8 20.8996 36.7 20.9996 36.5 21.0996C36.3 21.1996 36.2 21.1996 36 21.1996C35.7 21.1996 35.4 21.0996 35.2 20.8996C35 20.6996 34.9 20.3996 34.9 20.0996V18.5996H35.4V19.9996C35.4 20.1996 35.5 20.3996 35.6 20.5996C35.7 20.6996 35.9 20.7996 36.1 20.7996C36.3 20.7996 36.5 20.6996 36.7 20.5996C36.8 20.4996 36.9 20.1996 36.9 19.9996V18.6996H37.3V18.5996Z" fill="#E8C22C"/>
    <path d="M39.1 21.0996C38.9 20.9996 38.8 20.9996 38.6 20.8996L38.8 20.4996C38.9 20.5996 39.1 20.5996 39.2 20.6996C39.4 20.6996 39.5 20.7996 39.7 20.7996C40.1 20.7996 40.3 20.6996 40.3 20.4996C40.3 20.3996 40.3 20.3996 40.2 20.2996C40.1 20.2996 40.1 20.1996 40 20.1996C39.9 20.1996 39.8 20.1996 39.6 20.0996C39.4 20.0996 39.2 19.9996 39.1 19.9996C39 19.9996 38.9 19.8996 38.8 19.7996C38.7 19.6996 38.7 19.5996 38.7 19.3996C38.7 19.1996 38.8 18.9996 39 18.7996C39.2 18.5996 39.5 18.5996 39.8 18.5996C40 18.5996 40.1 18.5996 40.3 18.6996C40.5 18.6996 40.6 18.7996 40.7 18.8996L40.5 19.2996C40.3 18.9996 40 18.9996 39.7 18.9996C39.5 18.9996 39.4 18.9996 39.2 19.0996C39.1 19.1996 39 19.2996 39 19.3996C39 19.4996 39 19.5996 39.1 19.5996C39.2 19.5996 39.2 19.6996 39.3 19.6996C39.4 19.6996 39.5 19.6996 39.7 19.7996C39.9 19.7996 40.1 19.8996 40.2 19.8996C40.3 19.8996 40.4 19.9996 40.5 20.0996C40.6 20.1996 40.6 20.2996 40.6 20.4996C40.6 20.6996 40.5 20.8996 40.3 21.0996C40.1 21.2996 39.8 21.2996 39.5 21.2996C39.4 21.1996 39.2 21.1996 39.1 21.0996Z" fill="#E8C22C"/>
    <path d="M24.6 23.9006C24.9 24.1006 25 24.4006 25 24.8006C25 25.2006 24.9 25.5006 24.6 25.7006C24.3 25.9006 24 26.0006 23.5 26.0006H22.7V27.0006H22.2V23.6006H23.5C24 23.6006 24.3 23.7006 24.6 23.9006ZM24.2 25.4006C24.4 25.3006 24.4 25.1006 24.4 24.8006C24.4 24.5006 24.3 24.4006 24.2 24.2006C24 24.1006 23.8 24.0006 23.5 24.0006H22.7V25.5006H23.5C23.8 25.6006 24.1 25.5006 24.2 25.4006Z" fill="#E8C22C"/>
    <path d="M26.5 24.5004C26.7 24.4004 26.9 24.4004 27.1 24.4004V24.9004H27C26.7 24.9004 26.5 25.0004 26.4 25.1004C26.3 25.3004 26.2 25.5004 26.2 25.7004V27.0004H25.7V24.4004H26.1V24.8004C26.2 24.7004 26.3 24.6004 26.5 24.5004Z" fill="#E8C22C"/>
    <path d="M27.6 23.9004C27.5 23.8004 27.5 23.8004 27.5 23.7004C27.5 23.6004 27.5 23.5004 27.6 23.5004C27.7 23.4004 27.7 23.4004 27.8 23.4004C27.9 23.4004 28 23.4004 28 23.5004C28.1 23.6004 28.1 23.6004 28.1 23.7004C28.1 23.8004 28.1 23.9004 28 23.9004C27.9 24.0004 27.9 24.0004 27.8 24.0004C27.7 24.0004 27.7 23.9004 27.6 23.9004ZM27.6 24.4004H28.1V27.0004H27.6V24.4004Z" fill="#E8C22C"/>
    <path d="M33 24.7004C33.2 24.9004 33.3 25.2004 33.3 25.5004V27.0004H32.8V25.6004C32.8 25.4004 32.7 25.2004 32.6 25.0004C32.5 24.9004 32.3 24.8004 32.1 24.8004C31.9 24.8004 31.7 24.9004 31.5 25.0004C31.4 25.1004 31.3 25.4004 31.3 25.6004V27.0004H30.8V25.6004C30.8 25.4004 30.7 25.2004 30.6 25.0004C30.5 24.9004 30.3 24.8004 30.1 24.8004C29.9 24.8004 29.7 24.9004 29.5 25.0004C29.3 25.1004 29.3 25.4004 29.3 25.6004V27.0004H29V24.4004H29.4V24.8004C29.5 24.7004 29.6 24.6004 29.8 24.5004C30 24.4004 30.1 24.4004 30.3 24.4004C30.5 24.4004 30.7 24.4004 30.8 24.5004C30.9 24.6004 31.1 24.7004 31.2 24.9004C31.3 24.8004 31.4 24.6004 31.6 24.6004C31.8 24.6004 32 24.5004 32.2 24.5004C32.5 24.4004 32.8 24.5004 33 24.7004Z" fill="#E8C22C"/>
    <path d="M36.4 25.9002H34.3C34.3 26.1002 34.4 26.3002 34.6 26.4002C34.8 26.5002 35 26.6002 35.2 26.6002C35.5 26.6002 35.8 26.5002 35.9 26.3002L36.2 26.6002C36.1 26.7002 35.9 26.8002 35.8 26.9002C35.7 27.0002 35.5 27.0002 35.3 27.0002C35 27.0002 34.8 26.9002 34.6 26.8002C34.4 26.7002 34.2 26.5002 34.1 26.3002C34 26.1002 33.9 25.9002 33.9 25.6002C33.9 25.4002 34 25.1002 34.1 24.9002C34.2 24.7002 34.4 24.5002 34.6 24.4002C34.8 24.3002 35 24.2002 35.3 24.2002C35.6 24.2002 35.8 24.3002 36 24.4002C36.2 24.5002 36.3 24.7002 36.5 24.9002C36.6 25.1002 36.7 25.3002 36.7 25.6002C36.5 25.8002 36.5 25.8002 36.4 25.9002ZM34.6 25.0002C34.4 25.1002 34.4 25.3002 34.3 25.5002H36C36 25.3002 35.9 25.1002 35.7 25.0002C35.5 24.9002 35.4 24.8002 35.1 24.8002C35 24.8002 34.8 24.9002 34.6 25.0002Z" fill="#E8C22C"/>
    <path d="M15 30.7002H15.7V35.2002H18.5V35.8002H15V30.7002Z" fill="#E8C22C"/>
    <path d="M19.3 31.0994C19.2 30.9994 19.2 30.8994 19.2 30.7994C19.2 30.6994 19.2 30.5994 19.3 30.4994C19.4 30.3994 19.5 30.3994 19.6 30.3994C19.7 30.3994 19.9 30.3994 19.9 30.4994C20 30.5994 20 30.6994 20 30.7994C20 30.8994 20 30.9994 19.9 31.0994C19.8 31.1994 19.7 31.1994 19.6 31.1994C19.5 31.1994 19.4 31.0994 19.3 31.0994ZM19.3 31.8994H20V35.7994H19.3V31.8994Z" fill="#E8C22C"/>
    <path d="M27.4 32.2996C27.7 32.5996 27.8 32.9996 27.8 33.5996V35.7996H27.1V33.5996C27.1 33.1996 27 32.8996 26.8 32.6996C26.6 32.4996 26.4 32.3996 26.1 32.3996C25.7 32.3996 25.5 32.4996 25.2 32.6996C25 32.8996 24.9 33.1996 24.9 33.6996V35.6996H24.2V33.4996C24.2 33.0996 24.1 32.7996 23.9 32.5996C23.7 32.3996 23.5 32.2996 23.2 32.2996C22.8 32.2996 22.6 32.3996 22.3 32.5996C22.1 32.7996 22 33.0996 22 33.5996V35.5996H21.3V31.6996H22V32.2996C22.1 32.0996 22.3 31.8996 22.6 31.7996C22.8 31.6996 23.1 31.5996 23.4 31.5996C23.7 31.5996 24 31.6996 24.2 31.7996C24.4 31.8996 24.6 32.0996 24.7 32.2996C24.8 32.0996 25.1 31.8996 25.3 31.7996C25.6 31.6996 25.9 31.5996 26.2 31.5996C26.7 31.8996 27.1 31.9996 27.4 32.2996Z" fill="#E8C22C"/>
    <path d="M29.1 31.0998C29 30.9998 29 30.8998 29 30.6998C29 30.5998 29 30.4998 29.1 30.3998C29.2 30.2998 29.3 30.2998 29.4 30.2998C29.5 30.2998 29.7 30.2998 29.7 30.3998C29.8 30.4998 29.8 30.5998 29.8 30.6998C29.8 30.7998 29.8 30.8998 29.7 30.9998C29.6 31.0998 29.5 31.0998 29.4 31.0998C29.3 31.0998 29.2 31.0998 29.1 31.0998ZM29.1 31.8998H29.8V35.7998H29.1V31.8998Z" fill="#E8C22C"/>
    <path d="M33.4 35.5996C33.3 35.6996 33.2 35.7996 33 35.7996C32.8 35.7996 32.7 35.8996 32.5 35.8996C32.1 35.8996 31.8 35.7996 31.6 35.5996C31.4 35.3996 31.3 35.0996 31.3 34.6996V32.5996H30.6V31.9996H31.3V31.0996H32V31.9996H33.1V32.5996H32V34.6996C32 34.8996 32.1 35.0996 32.2 35.1996C32.3 35.2996 32.5 35.3996 32.7 35.3996C32.9 35.3996 33.1 35.2996 33.3 35.1996L33.4 35.5996Z" fill="#E8C22C"/>
    <path d="M37.7 34.0994H34.5C34.5 34.3994 34.7 34.6994 35 34.8994C35.3 35.0994 35.6 35.1994 36 35.1994C36.5 35.1994 36.8 34.9994 37.1 34.6994L37.5 35.1994C37.3 35.3994 37.1 35.5994 36.8 35.6994C36.5 35.7994 36.2 35.8994 35.9 35.8994C35.5 35.8994 35.1 35.7994 34.8 35.5994C34.5 35.3994 34.2 35.1994 34.1 34.8994C33.9 34.5994 33.8 34.2994 33.8 33.8994C33.8 33.4994 33.9 33.1994 34.1 32.8994C34.3 32.5994 34.5 32.3994 34.8 32.1994C35.1 31.9994 35.4 31.8994 35.8 31.8994C36.2 31.8994 36.5 31.9994 36.8 32.1994C37.1 32.3994 37.3 32.5994 37.5 32.8994C37.7 33.1994 37.7 33.5994 37.7 33.8994C37.7 33.9994 37.7 33.9994 37.7 34.0994ZM35 32.7994C34.8 32.9994 34.6 33.2994 34.6 33.5994H37.1C37.1 33.2994 36.9 32.9994 36.7 32.7994C36.5 32.5994 36.2 32.4994 35.9 32.4994C35.6 32.4994 35.2 32.5994 35 32.7994Z" fill="#E8C22C"/>
    <path d="M42.4 30.3994V35.8994H41.7V35.2994C41.5 35.4994 41.3 35.6994 41.1 35.7994C40.9 35.8994 40.6 35.9994 40.3 35.9994C39.9 35.9994 39.6 35.8994 39.3 35.7994C39 35.5994 38.8 35.3994 38.6 35.0994C38.4 34.7994 38.3 34.4994 38.3 34.0994C38.3 33.6994 38.4 33.3994 38.6 33.0994C38.8 32.7994 39 32.5994 39.3 32.3994C39.6 32.1994 39.9 32.1994 40.3 32.1994C40.6 32.1994 40.8 32.2994 41.1 32.3994C41.3 32.4994 41.5 32.6994 41.7 32.8994V30.7994H42.4V30.3994ZM41 35.0994C41.2 34.9994 41.4 34.7994 41.5 34.5994C41.6 34.3994 41.7 34.1994 41.7 33.8994C41.7 33.5994 41.6 33.3994 41.5 33.1994C41.4 32.9994 41.2 32.7994 41 32.6994C40.8 32.5994 40.6 32.4994 40.3 32.4994C40.1 32.4994 39.8 32.5994 39.6 32.6994C39.4 32.7994 39.2 32.9994 39.1 33.1994C39 33.3994 38.9 33.5994 38.9 33.8994C38.9 34.1994 39 34.3994 39.1 34.5994C39.2 34.7994 39.4 34.9994 39.6 35.0994C39.8 35.1994 40 35.2994 40.3 35.2994C40.6 35.2994 40.8 35.1994 41 35.0994Z" fill="#E8C22C"/>
    <path d="M24.2 39.7996V40.0996H22.4V37.5996H24.2V37.8996H22.8V38.6996H24V38.9996H22.7V39.7996H24.2Z" fill="#E8C22C"/>
    <path d="M26.6 37.5V40.2H26.2999V39.9C26.1999 40 26.1 40 26 40.1C25.9 40.2 25.8 40.2 25.6 40.2C25.4 40.2 25.2 40.2 25.1 40.1C25 40 24.7999 39.9 24.7999 39.8C24.6999 39.7 24.7 39.5 24.7 39.3C24.7 39.1 24.6999 38.9 24.7999 38.8C24.8999 38.7 25 38.5 25.1 38.5C25.2 38.4 25.4 38.4 25.6 38.4C25.7 38.4 25.9 38.4 26 38.5C26.1 38.6 26.1999 38.6 26.2999 38.7V37.6H26.6V37.5ZM25.9 39.8C26 39.7 26.1 39.7 26.1 39.6C26.2 39.5 26.2 39.4 26.2 39.2C26.2 39.1 26.2 39 26.1 38.8C26 38.7 26 38.6 25.9 38.6C25.8 38.5 25.7 38.5 25.6 38.5C25.5 38.5 25.3999 38.5 25.2999 38.6C25.1999 38.7 25.1 38.7 25.1 38.8C25.1 38.9 25 39 25 39.2C25 39.3 25 39.4 25.1 39.6C25.2 39.7 25.1999 39.8 25.2999 39.8C25.3999 39.9 25.5 39.9 25.6 39.9C25.7 39.9 25.8 39.9 25.9 39.8Z" fill="#E8C22C"/>
    <path d="M27.2 37.7998C27.2 37.7998 27.1 37.6998 27.1 37.5998C27.1 37.4998 27.1 37.4998 27.2 37.3998C27.2 37.3998 27.3 37.2998 27.4 37.2998C27.5 37.2998 27.5 37.2998 27.6 37.3998C27.6 37.3998 27.7 37.4998 27.7 37.5998C27.7 37.6998 27.7 37.6998 27.6 37.7998C27.6 37.7998 27.5 37.8998 27.4 37.8998C27.3 37.8998 27.3 37.8998 27.2 37.7998ZM27.2 38.1998H27.5V40.0998H27.2V38.1998Z" fill="#E8C22C"/>
    <path d="M29.2999 40.0998C29.1999 40.0998 29.1999 40.1998 29.0999 40.1998C28.9999 40.1998 28.8999 40.1998 28.8999 40.1998C28.6999 40.1998 28.5999 40.0998 28.4999 39.9998C28.3999 39.8998 28.2999 39.6998 28.2999 39.5998V38.4998H27.9999V38.1998H28.2999V37.7998H28.5999V38.1998H29.0999V38.4998H28.5999V39.4998C28.5999 39.5998 28.5999 39.6998 28.6999 39.6998C28.7999 39.7998 28.7999 39.7998 28.8999 39.7998C28.9999 39.7998 29.0999 39.7998 29.1999 39.6998L29.2999 40.0998Z" fill="#E8C22C"/>
    <path d="M29.7 37.7998C29.7 37.7998 29.6 37.6998 29.6 37.5998C29.6 37.4998 29.6 37.4998 29.7 37.3998C29.7 37.3998 29.8 37.2998 29.9 37.2998C30 37.2998 30 37.2998 30.1 37.3998C30.1 37.3998 30.2 37.4998 30.2 37.5998C30.2 37.6998 30.2 37.6998 30.1 37.7998C30.1 37.7998 30 37.8998 29.9 37.8998C29.8 37.8998 29.8 37.8998 29.7 37.7998ZM29.7 38.1998H30V40.0998H29.7V38.1998Z" fill="#E8C22C"/>
    <path d="M31.1 40.0994C30.9 39.9994 30.8 39.8994 30.7 39.7994C30.6 39.6994 30.6 39.4994 30.6 39.2994C30.6 39.0994 30.6 38.8994 30.7 38.7994C30.8 38.6994 30.9 38.4994 31.1 38.4994C31.3 38.4994 31.4 38.3994 31.6 38.3994C31.8 38.3994 32 38.3994 32.1 38.4994C32.3 38.5994 32.4 38.6994 32.5 38.7994C32.6 38.8994 32.6 39.0994 32.6 39.2994C32.6 39.4994 32.6 39.6994 32.5 39.7994C32.4 39.8994 32.3 40.0994 32.1 40.0994C31.9 40.1994 31.8 40.1994 31.6 40.1994C31.4 40.1994 31.2 40.0994 31.1 40.0994ZM31.9 39.7994C32 39.6994 32.1 39.6994 32.1 39.5994C32.2 39.4994 32.2 39.3994 32.2 39.1994C32.2 39.0994 32.2 38.9994 32.1 38.7994C32 38.6994 32 38.5994 31.9 38.5994C31.8 38.4994 31.7 38.4994 31.6 38.4994C31.5 38.4994 31.4 38.4994 31.3 38.5994C31.2 38.6994 31.1 38.6994 31.1 38.7994C31.1 38.8994 31 38.9994 31 39.1994C31 39.2994 31 39.3994 31.1 39.5994C31.2 39.6994 31.2 39.7994 31.3 39.7994C31.4 39.8994 31.5 39.8994 31.6 39.8994C31.7 39.8994 31.8 39.8994 31.9 39.7994Z" fill="#E8C22C"/>
    <path d="M34.5999 38.4002C34.6999 38.5002 34.7999 38.7002 34.7999 39.0002V40.1002H34.4999V39.0002C34.4999 38.8002 34.4999 38.7002 34.3999 38.6002C34.2999 38.5002 34.1999 38.5002 33.9999 38.5002C33.7999 38.5002 33.6999 38.6002 33.5999 38.7002C33.4999 38.8002 33.3999 39.0002 33.3999 39.2002V40.2002H32.9999V38.3002H33.2999V38.6002C33.3999 38.5002 33.4999 38.4002 33.5999 38.4002C33.6999 38.3002 33.8999 38.3002 33.9999 38.3002C34.2999 38.2002 34.4999 38.3002 34.5999 38.4002Z" fill="#E8C22C"/>
  </g>
  <defs>
    <clipPath id="clip0">
      <rect width="60.4" height="58" fill="white"/>
    </clipPath>
  </defs>
</svg>
