<svg width="49" height="47" viewBox="0 0 49 47" fill="none" xmlns="http://www.w3.org/2000/svg">
  <path d="M14.4 7.475C14.1 7.475 13.9 7.675 13.8 7.975C13.8 8.275 14 8.575 14.3 8.575C14.6 8.575 14.8 8.375 14.8 8.075C15 7.675 14.8 7.475 14.4 7.475ZM29.5 2.375C29.8 2.375 30.1 2.175 30.1 1.875C30.1 1.575 29.9 1.275 29.6 1.275C29.3 1.275 29 1.475 29 1.775C29 2.175 29.2 2.375 29.5 2.375ZM22.5 4.775C22.8 4.775 23 4.575 23 4.275C23 3.975 22.7 3.775 22.4 3.775C22.1 3.775 21.9 4.075 21.9 4.375C21.9 4.475 22.2 4.775 22.5 4.775ZM22.5 13.575C15.6 13.575 8.7 13.575 1.8 13.575C1.5 13.575 1.4 13.575 1.4 13.875C1.4 20.875 1.4 27.775 1.4 34.775C1.4 35.575 1.4 36.275 1.4 37.075C1.4 37.275 1.5 37.375 1.7 37.375C5.3 37.375 9 37.375 12.6 37.375C19 37.375 25.5 37.375 31.9 37.375C32.4 37.375 32.7 37.575 32.7 37.975C32.7 38.475 32.4 38.775 31.9 38.775C30.8 38.775 29.8 38.775 28.7 38.775C20.9 38.775 13.2 38.775 5.4 38.775C3.8 38.775 2.3 38.775 0.7 38.775C0.3 38.875 0 38.575 0 37.975C0 33.475 0 28.975 0 24.475C0 20.675 0 16.875 0 13.175C0 13.075 0 13.075 0 12.975C0 12.375 0.3 12.175 0.9 12.175C2.2 12.175 3.5 12.175 4.8 12.175C9 12.175 13.3 12.175 17.5 12.175C17.9 12.175 17.9 12.175 17.9 11.775C17.9 10.875 17.9 9.975 17.9 8.975C17.9 8.775 17.8 8.675 17.6 8.675C17.3 8.675 16.9 8.675 16.6 8.675C16.4 8.675 16.3 8.775 16.2 8.875C15.8 9.675 15.1 9.975 14.2 9.875C13.4 9.775 12.9 9.275 12.6 8.475C12.3 7.675 12.8 6.375 13.9 6.075C14.8 5.875 15.7 6.175 16.1 7.075C16.2 7.275 16.3 7.275 16.5 7.275C17.1 7.275 17.7 7.275 18.3 7.275C19 7.275 19.2 7.675 19.2 8.175C19.2 9.275 19.2 10.475 19.2 11.575C19.2 11.675 19.2 11.775 19.2 11.875C19.2 12.075 19.3 12.075 19.4 12.075C20.1 12.075 20.8 12.075 21.5 12.075C21.7 12.075 21.7 11.975 21.7 11.775C21.7 10.175 21.7 8.675 21.7 7.075C21.7 6.775 21.7 6.475 21.7 6.175C21.7 5.975 21.6 5.975 21.5 5.875C20.4 5.275 20.1 3.875 20.9 2.975C21.4 2.375 22 2.175 22.7 2.275C23.4 2.375 23.9 2.775 24.2 3.475C24.6 4.475 24.2 5.475 23.3 5.975C23.1 6.075 23.1 6.175 23.1 6.375C23.1 8.275 23.1 10.075 23.1 11.975C23.1 12.175 23.2 12.275 23.4 12.275C24.2 12.275 24.9 12.275 25.7 12.275C25.9 12.275 26 12.175 26 11.975C26 10.675 26 9.375 26 8.075C26 7.675 26.2 7.375 26.5 7.175C27.2 6.775 27.9 6.275 28.5 5.875C28.7 5.775 28.8 5.675 28.7 5.375C28.7 4.975 28.7 4.475 28.7 4.075C28.7 3.875 28.6 3.775 28.4 3.675C27.2 2.975 27 1.275 28.2 0.375C28.9 -0.125 29.7 -0.125 30.4 0.375C31 0.775 31.4 1.575 31.2 2.375C31.1 2.975 30.8 3.475 30.2 3.675C30 3.775 30 3.875 30 4.075C30 4.675 30 5.275 30 5.975C30 6.375 29.9 6.675 29.5 6.875C28.8 7.275 28.1 7.775 27.4 8.175C27.2 8.275 27.1 8.475 27.1 8.675C27.1 9.775 27.1 10.875 27.1 11.975C27.1 12.275 27.1 12.275 27.4 12.275C32.1 12.275 36.8 12.275 41.4 12.275C42.2 12.275 42.9 12.275 43.7 12.275C44.3 12.275 44.6 12.575 44.6 13.175C44.6 16.475 44.6 19.675 44.6 22.975C44.6 23.175 44.6 23.375 44.5 23.575C44.4 23.875 44.1 23.975 43.8 23.875C43.5 23.875 43.3 23.675 43.2 23.375C43.2 23.275 43.2 23.075 43.2 22.975C43.2 20.175 43.2 17.275 43.2 14.475C43.2 14.275 43.2 14.175 43.2 13.975C43.2 13.675 43.2 13.675 42.9 13.675C38.2 13.675 33.5 13.675 28.7 13.675C26.9 13.575 24.7 13.575 22.5 13.575Z" fill="#E8C22C"/>
  <path d="M41.2 26.1754C39.9 26.1754 38.4 26.2754 36.9 26.7754C36.4 26.8754 36 27.1754 35.5 27.3754C35.2 27.4754 35.2 27.6754 35.5 27.8754C35.7 27.9754 36 28.1754 36.2 28.2754C37.6 28.8754 39.1 28.9754 40.6 29.0754C42.2 29.1754 43.7 29.0754 45.2 28.6754C45.8 28.4754 46.5 28.3754 47.1 27.9754C47.5 27.6754 47.5 27.5754 47.1 27.3754C46.5 26.9754 45.7 26.7754 45 26.5754C43.9 26.2754 42.6 26.1754 41.2 26.1754ZM41.4 45.0754C42.8 45.0754 44.2 44.9754 45.5 44.5754C46.1 44.3754 46.7 44.2754 47.2 43.8754C47.3 43.7754 47.4 43.6754 47.4 43.4754C47.4 42.8754 47.4 42.2754 47.4 41.7754C47.4 41.4754 47.4 41.4754 47.1 41.5754C46.5 41.7754 46 41.9754 45.4 42.0754C44.1 42.3754 42.7 42.4754 41.3 42.4754C39.3 42.4754 37.4 42.2754 35.5 41.4754C35.3 41.3754 35.3 41.4754 35.3 41.6754C35.3 42.2754 35.3 42.7754 35.3 43.3754C35.3 43.5754 35.4 43.7754 35.6 43.8754C36.2 44.2754 36.9 44.4754 37.6 44.5754C38.9 44.9754 40.2 45.0754 41.4 45.0754ZM47.4 33.5754C43.4 34.8754 39.4 34.8754 35.4 33.5754C35.4 33.6754 35.4 33.6754 35.4 33.7754C35.4 34.1754 35.4 34.5754 35.4 34.9754C35.4 35.8754 35.4 35.8754 36.2 36.2754C36.2 36.2754 36.2 36.2754 36.3 36.2754C37.3 36.6754 38.4 36.8754 39.5 36.9754C41.6 37.1754 43.7 37.0754 45.7 36.5754C46.2 36.4754 46.8 36.2754 47.2 35.8754C47.3 35.7754 47.4 35.6754 47.4 35.5754C47.4 34.9754 47.4 34.3754 47.4 33.7754C47.5 33.6754 47.4 33.6754 47.4 33.5754ZM35.4 37.5754C35.4 37.6754 35.4 37.7754 35.4 37.7754C35.4 38.1754 35.4 38.5754 35.4 38.9754C35.4 39.8754 35.3 39.6754 36.2 40.1754H36.3C37.4 40.6754 38.6 40.8754 39.9 40.9754C41.9 41.0754 43.9 41.0754 45.9 40.4754C46.4 40.3754 46.9 40.0754 47.4 39.8754C47.6 39.7754 47.6 39.6754 47.6 39.4754C47.6 38.8754 47.6 38.2754 47.6 37.6754C47.6 37.5754 47.6 37.5754 47.6 37.4754C43.4 38.8754 39.4 38.8754 35.4 37.5754ZM35.4 29.4754C35.4 29.5754 35.4 29.6754 35.4 29.7754C35.4 30.1754 35.4 30.5754 35.4 30.9754C35.4 31.9754 35.4 32.0754 36.4 32.3754C37.7 32.8754 39.1 33.0754 40.6 33.1754C42.2 33.2754 43.8 33.1754 45.4 32.7754C46.1 32.5754 46.8 32.3754 47.4 31.9754C47.5 31.8754 47.6 31.7754 47.6 31.5754C47.6 30.8754 47.6 30.2754 47.6 29.5754C47.6 29.4754 47.6 29.4754 47.6 29.3754C43.4 30.7754 39.4 30.7754 35.4 29.4754ZM33.9 35.6754C33.9 33.1754 33.9 30.5754 33.9 28.0754C33.9 27.0754 34.3 26.4754 35.1 26.0754C35.9 25.5754 36.8 25.3754 37.7 25.1754C39.3 24.8754 40.9 24.7754 42.5 24.8754C44.1 24.9754 45.8 25.1754 47.3 25.8754C47.8 26.0754 48.3 26.3754 48.6 26.8754C48.8 27.1754 48.9 27.4754 48.9 27.7754C48.9 31.5754 48.9 35.2754 48.9 39.0754C48.9 40.5754 48.9 42.0754 48.9 43.6754C48.9 44.3754 48.5 44.8754 48 45.1754C47.4 45.6754 46.6 45.8754 45.9 46.0754C44 46.5754 42 46.6754 40.1 46.5754C38.7 46.4754 37.3 46.2754 36 45.7754C35.3 45.4754 34.7 45.1754 34.3 44.5754C34.1 44.2754 34 43.9754 34 43.5754C34 41.0754 34 38.4754 34 35.9754L33.9 35.6754Z" fill="#E8C22C"/>
  <path d="M22.5 16.2748C27.6 16.2748 32.6 16.2748 37.7 16.2748C38.3 16.2748 38.6 16.6748 38.6 17.1748C38.6 17.7748 39.2 18.3748 39.8 18.3748C40.4 18.3748 40.6 18.5748 40.7 19.0748C40.7 19.2748 40.7 19.3748 40.7 19.5748C40.7 20.6748 40.7 21.6748 40.7 22.7748C40.7 23.1748 40.5 23.3748 40.3 23.4748C39.8 23.6748 39.3 23.3748 39.3 22.7748C39.3 21.8748 39.3 20.9748 39.3 20.0748C39.3 19.7748 39.2 19.6748 39 19.5748C38.2 19.2748 37.7 18.7748 37.4 17.9748C37.3 17.7748 37.2 17.6748 37 17.6748C33 17.6748 29.1 17.6748 25.1 17.6748C20.3 17.6748 15.4 17.6748 10.6 17.6748C9.79998 17.6748 8.89998 17.6748 8.09998 17.6748C7.89998 17.6748 7.79998 17.7748 7.69998 17.9748C7.39998 18.7748 6.89998 19.2748 6.09998 19.5748C5.89998 19.6748 5.79998 19.7748 5.79998 19.9748C5.79998 22.1748 5.79998 24.3748 5.79998 26.4748C5.79998 27.9748 5.79998 29.5748 5.79998 31.0748C5.79998 31.2748 5.89998 31.3748 6.09998 31.4748C6.89998 31.7748 7.39998 32.3748 7.69998 33.1748C7.79998 33.3748 7.89998 33.3748 8.09998 33.3748C11.6 33.3748 15.2 33.3748 18.7 33.3748C23.1 33.3748 27.5 33.3748 31.8 33.3748C32.2 33.3748 32.5 33.4748 32.6 33.8748C32.8 34.2748 32.5 34.7748 32 34.7748C31.7 34.7748 31.5 34.7748 31.2 34.7748C28.5 34.7748 25.9 34.7748 23.2 34.7748C20.9 34.7748 18.5 34.7748 16.2 34.7748C13.3 34.7748 10.4 34.7748 7.49998 34.7748C7.39998 34.7748 7.29998 34.7748 7.09998 34.7748C6.49998 34.7748 6.29998 34.5748 6.19998 33.9748C6.19998 33.4748 5.89998 33.1748 5.49998 32.8748C5.29998 32.7748 5.09998 32.6748 4.89998 32.6748C4.39998 32.6748 4.09998 32.2748 4.09998 31.8748C4.09998 30.6748 4.09998 29.5748 4.09998 28.3748C4.09998 25.2748 4.09998 22.2748 4.09998 19.1748C4.09998 18.5748 4.29998 18.2748 4.99998 18.2748C5.59998 18.2748 6.19998 17.6748 6.19998 17.0748C6.19998 16.9748 6.19998 16.9748 6.19998 16.8748C6.29998 16.3748 6.49998 16.1748 6.99998 16.1748C8.69998 16.1748 10.3 16.1748 12 16.1748C15.6 16.2748 19.1 16.2748 22.5 16.2748Z" fill="#E8C22C"/>
  <path d="M30.8 25.7754C30.8 26.0754 31 26.2754 31.3 26.2754C31.6 26.2754 31.9 26.0754 31.9 25.7754C31.9 25.4754 31.7 25.2754 31.4 25.2754C31 25.2754 30.8 25.4754 30.8 25.7754ZM11.1 27.1754C11.1 26.8754 10.9 26.6754 10.6 26.6754C10.3 26.6754 9.99999 26.8754 9.99999 27.2754C9.99999 27.5754 10.2 27.7754 10.5 27.7754C10.9 27.7754 11.1 27.5754 11.1 27.1754ZM14.9 23.9754C14.9 23.6754 14.7 23.3754 14.4 23.3754C14.1 23.3754 13.9 23.5754 13.8 23.8754C13.8 24.1754 14 24.4754 14.3 24.4754C14.7 24.5754 14.9 24.2754 14.9 23.9754ZM22.5 28.7754C24.3 28.7754 25.8 27.2754 25.8 25.5754C25.8 23.7754 24.3 22.2754 22.5 22.2754C20.6 22.2754 19.2 23.8754 19.2 25.5754C19.2 27.1754 20.7 28.8754 22.5 28.7754ZM17 24.6754C16.5 24.5754 16.2 24.6754 15.9 25.1754C15.5 25.7754 14.9 26.0754 14.2 25.9754C13.4 25.8754 12.8 25.3754 12.5 24.5754C12.2 23.7754 12.7 22.6754 13.5 22.2754C14.3 21.8754 15.4 22.0754 15.9 22.7754C15.9 22.7754 15.9 22.7754 15.9 22.8754C16 23.2754 16.4 23.3754 16.8 23.2754C17.2 23.2754 17.7 23.2754 18.1 23.2754C18.3 23.2754 18.4 23.1754 18.5 23.0754C19.6 21.3754 21.2 20.5754 23.2 20.8754C25.1 21.1754 26.3 22.2754 26.9 24.0754C27 24.2754 27 24.5754 27.1 24.7754C27.1 24.9754 27.2 24.9754 27.4 24.9754C28 24.9754 28.7 24.9754 29.3 24.9754C29.4 24.9754 29.6 24.8754 29.6 24.7754C30 24.0754 30.6 23.6754 31.4 23.7754C32.9 23.8754 33.6 25.2754 33.1 26.4754C32.7 27.2754 32.1 27.6754 31.2 27.6754C30.5 27.6754 30 27.3754 29.6 26.6754C29.5 26.4754 29.3 26.3754 29.1 26.3754C28.5 26.3754 28 26.3754 27.4 26.3754C27.1 26.3754 27 26.4754 26.9 26.7754C26.6 27.7754 26 28.5754 25.2 29.1754C23.1 30.6754 20.2 30.2754 18.7 28.1754C18.5 27.9754 18.4 27.8754 18.1 27.8754C16.3 27.8754 14.5 27.8754 12.7 27.8754C12.5 27.8754 12.3 27.9754 12.2 28.1754C11.9 28.7754 11.1 29.2754 10.4 29.1754C9.59999 29.0754 8.99999 28.5754 8.69999 27.8754C8.19999 26.4754 9.39999 25.0754 10.9 25.3754C11.5 25.4754 12 25.7754 12.3 26.3754C12.4 26.5754 12.5 26.5754 12.7 26.5754C14.3 26.5754 16 26.5754 17.6 26.5754C17.9 26.5754 17.9 26.5754 17.9 26.1754C17.9 25.7754 17.9 25.3754 17.9 24.9754C17.9 24.7754 17.9 24.7754 17.7 24.7754C17.4 24.6754 17.2 24.6754 17 24.6754Z" fill="#E8C22C"/>
</svg>
