<?xml version="1.0" encoding="UTF-8"?>
<svg width="1000px" height="858px" viewBox="0 0 1000 858" version="1.1" xmlns="http://www.w3.org/2000/svg" xmlns:xlink="http://www.w3.org/1999/xlink">
    <!-- Generator: Sketch 58 (84663) - https://sketch.com -->
    <title>ic_03</title>
    <desc>Created with Sketch.</desc>
    <g id="Page-1" stroke="none" stroke-width="1" fill="none" fill-rule="evenodd">
        <g id="ic_03" fill="#495057">
            <path d="M500,714.2895 C473.77,714.2895 446.99,712.6195 419.08,709.8295 C345.42,775.1195 260.04,819.7595 162.39,844.8695 C143.97,849.8895 122.77,854.3595 98.77,857.1495 C85.94,858.8195 74.78,849.3295 71.99,835.9385 L71.99,835.3795 C70.87,833.7095 70.87,831.4785 71.43,828.6895 C73.66,822.5495 71.43,823.6695 75.33,817.5295 L78.68,812.4995 L87.05,803.0185 L104.35,783.4895 C113.28,773.9995 119.42,766.7495 123.33,762.2795 C127.23,758.3695 133.37,751.1195 140.62,740.5185 C148.44,729.9095 154.58,720.4295 159.04,712.0595 C167.97,694.7595 180.25,666.2995 188.62,636.7195 C130.02,603.7995 84.26,562.4995 50.22,513.9595 C16.74,465.4095 0,412.9495 0,357.1495 C0,308.5995 13.39,262.8395 39.62,218.7495 C65.85,174.6695 101.56,136.1695 146.21,104.3595 C190.85,72.5495 243.86,46.8795 305.8,28.4595 C367.75,9.4895 432.48,-0.0005 500,-0.0005 C590.96,-0.0005 674.67,16.1895 751.12,47.9995 C827.57,79.7995 888.39,122.7695 933.04,178.0195 C977.68,232.7095 1000,292.4095 1000,357.1495 C1000,421.8795 977.68,481.5895 933.04,536.8295 C888.39,591.5185 827.57,635.0495 751.12,666.8595 C674.67,698.6695 590.96,714.2895 500,714.2895" id="Fill-1"></path>
        </g>
    </g>
</svg>