<svg width="41" height="41" viewBox="0 0 41 41" fill="none" xmlns="http://www.w3.org/2000/svg">
<path fill-rule="evenodd" clip-rule="evenodd" d="M23.7833 14.7872C23.6438 14.617 23.4937 14.4553 23.3347 14.3027C23.1673 14.4985 22.9643 14.6615 22.7369 14.7831L27.2793 24.3224C27.371 22.1218 28.5224 20.1005 30.3719 18.8925C33.5411 16.8223 37.7957 17.7022 39.8748 20.8578C41.9536 24.0134 41.0699 28.2494 37.9007 30.3195C36.833 31.017 35.642 31.3796 34.4525 31.4331H38.9292C39.4435 31.4309 39.9399 31.6214 40.3197 31.9664C41.1563 32.7259 41.2157 34.0172 40.4526 34.8499C41.1663 35.6225 41.1663 36.8108 40.4526 37.5832C40.7994 37.9616 40.9904 38.4559 40.9882 38.9679C40.9832 40.095 40.0611 41.0049 38.9292 40.9999H29.321C28.8067 41.0021 28.3103 40.8119 27.9305 40.4669C27.0939 39.7071 27.0345 38.4162 27.7976 37.5832C27.0839 36.8108 27.0839 35.6225 27.7976 34.8499C27.622 34.6562 27.4851 34.431 27.3946 34.1864C27.1718 34.675 26.9158 35.1477 26.628 35.6015C24.4974 38.9708 20.7746 41.0106 16.7757 40.9999H11.6697C9.94243 40.9999 8.23655 40.618 6.6755 39.8816C0.852252 37.1355 -1.63243 30.2088 1.12557 24.4106L5.70789 14.7831C5.03465 14.4334 4.61305 13.7393 4.61462 12.9833C4.61713 12.5203 4.77892 12.0721 5.07235 11.713C5.04841 11.6753 5.02439 11.6378 5.00039 11.6004L5.00028 11.6002C4.9273 11.4865 4.85445 11.3729 4.78426 11.2531C2.98885 8.25241 2.19151 5.19318 2.70673 3.28007C2.8569 2.59941 3.28196 2.01039 3.88168 1.65161C5.55364 0.72164 8.15173 2.09298 10.49 5.03146C11.1406 1.92562 12.533 0 14.2228 0C15.9124 0 17.3047 1.92562 17.9554 5.03396C20.293 2.09986 22.8886 0.725081 24.5631 1.65442C25.1628 2.01227 25.5878 2.60034 25.7386 3.28007C26.2328 5.11216 25.5109 7.99497 23.8735 10.8765C24.1968 10.9134 24.5159 10.9807 24.8266 11.0777C25.2929 11.3044 25.8401 11.2954 26.2988 11.0529C26.793 10.768 26.8973 10.4264 27.0537 9.79641C27.0861 9.53272 27.1552 9.27497 27.2595 9.03067C27.8749 7.58926 29.5475 6.91767 30.9948 7.53046C31.4604 7.75787 32.0074 7.74879 32.4651 7.50637C32.9593 7.22203 33.0636 6.88045 33.22 6.25109C33.2521 5.98677 33.3218 5.72808 33.4264 5.48284C34.0419 4.04425 35.7116 3.37485 37.1564 3.98732C37.6217 4.21473 38.168 4.20628 38.6257 3.96417L39.3122 5.14751C38.5334 5.582 37.5981 5.63799 36.7728 5.29985C36.3076 5.07369 35.7616 5.08245 35.3041 5.32393C34.81 5.60827 34.7057 5.94986 34.5492 6.57859C34.5172 6.84291 34.4474 7.1016 34.3428 7.34653C33.7277 8.78605 32.057 9.45639 30.6112 8.84361C30.1453 8.61777 29.599 8.62652 29.1407 8.8677C28.6478 9.15266 28.5422 9.49487 28.3857 10.1249C28.2648 11.0045 27.7483 11.7815 26.983 12.2366C26.5806 12.4775 26.1203 12.606 25.6507 12.6082C25.2404 12.5938 24.8345 12.5206 24.4449 12.3908C24.1936 12.307 23.9329 12.2535 23.6687 12.231C23.7805 12.4543 23.8361 12.7011 23.8308 12.9504C24.2143 13.2172 24.5543 13.5416 24.8383 13.912C25.3111 14.4778 25.5856 14.7728 26.1628 14.7728C26.7399 14.7728 27.0138 14.4778 27.4866 13.912C27.7241 13.5113 28.06 13.1769 28.4624 12.9404C29.7765 12.1684 31.4708 12.6032 32.2461 13.912C32.7189 14.4778 32.9929 14.7728 33.5712 14.7728C34.1499 14.7728 34.4242 14.4778 34.8979 13.912C35.1351 13.5119 35.4703 13.1785 35.8718 12.9423C37.1869 12.1684 38.883 12.6026 39.66 13.912C40.135 14.4785 40.4089 14.7738 40.9879 14.7738V16.1404C40.0187 16.1063 39.1284 15.6002 38.606 14.7866C38.1322 14.2207 37.8592 13.9257 37.2799 13.9257C36.7009 13.9257 36.4269 14.2207 35.9519 14.7872C35.7147 15.187 35.3799 15.5204 34.9784 15.7566C33.6639 16.5302 31.9681 16.0963 31.1912 14.7872C30.7177 14.2213 30.4425 13.9264 29.8654 13.9264C29.288 13.9264 29.015 14.2213 28.5416 14.7872C28.3041 15.1879 27.9685 15.522 27.5661 15.7585C26.2523 16.5302 24.5587 16.0957 23.7833 14.7872ZM33.8327 31.4331C31.7064 31.3376 29.6548 30.2616 28.398 28.3542C28.5014 29.4981 28.4319 30.6514 28.1922 31.775C28.5265 31.5529 28.9192 31.434 29.321 31.4331H33.8327ZM38.9292 36.9C39.3081 36.9 39.6153 36.5941 39.6153 36.2165C39.6153 35.8393 39.3081 35.5333 38.9292 35.5333H29.321C28.9421 35.5333 28.6349 35.8393 28.6349 36.2165C28.6349 36.5941 28.9421 36.9 29.321 36.9H38.9292ZM29.321 39.6333C28.9421 39.6333 28.6349 39.3274 28.6349 38.9498C28.6349 38.5726 28.9421 38.2666 29.321 38.2666H38.9292C39.3081 38.2666 39.6153 38.5726 39.6153 38.9498C39.6153 39.3274 39.3081 39.6333 38.9292 39.6333H29.321ZM38.9292 32.8001H29.321C28.9421 32.8001 28.6349 33.106 28.6349 33.4832C28.6349 33.8608 28.9421 34.1667 29.321 34.1667H38.9292C39.3081 34.1667 39.6153 33.8608 39.6153 33.4832C39.6153 33.106 39.3081 32.8001 38.9292 32.8001ZM21.7718 13.6667H6.67361C6.48857 13.6671 6.31139 13.5914 6.18415 13.4575C6.05692 13.3324 5.98592 13.1613 5.98717 12.9833C5.98717 12.606 6.29442 12.3001 6.67361 12.3001H21.7718C21.9584 12.2998 22.1368 12.3767 22.264 12.5125C22.3416 12.5832 22.3963 12.6755 22.4211 12.7778C22.4274 12.8022 22.4349 12.8262 22.4431 12.85C22.4554 12.8935 22.4604 12.9385 22.4582 12.9833C22.4582 13.3608 22.151 13.6667 21.7718 13.6667ZM4.55084 2.84527C4.27815 3.02607 4.09091 3.30947 4.03217 3.63041C3.69099 4.89883 4.15689 7.53233 5.96675 10.5562C6.03129 10.6671 6.09789 10.7709 6.16439 10.8746L6.1644 10.8746L6.16441 10.8746C6.18758 10.9107 6.21074 10.9468 6.23379 10.9832C6.37799 10.9507 6.52564 10.9338 6.67361 10.9331H21.7718C21.9197 10.9338 22.0674 10.95 22.2119 10.9819L22.256 10.9135C22.3306 10.7978 22.405 10.6824 22.4761 10.5609C24.2885 7.53171 24.7566 4.89821 24.4135 3.62978C24.3545 3.30853 24.1669 3.02482 23.8939 2.84402C22.8575 2.27002 20.2914 3.86407 18.1099 7.14915C17.9975 7.31806 17.8156 7.42879 17.6132 7.45132C17.2366 7.49292 16.8973 7.22266 16.8552 6.8476C16.4725 3.41676 15.2159 1.36664 14.2228 1.36664C13.2298 1.36664 11.9732 3.41676 11.5902 6.84917C11.5676 7.05061 11.4564 7.23173 11.2867 7.3434C10.9704 7.55173 10.5447 7.46508 10.3354 7.1504C8.1533 3.86345 5.58034 2.27002 4.55084 2.84527ZM34.1251 19.1333C37.1574 19.1333 39.6153 21.5807 39.6153 24.5999C39.6153 27.6191 37.1574 30.0665 34.1251 30.0665C31.0928 30.0665 28.6349 27.6191 28.6349 24.5999C28.6383 21.5823 31.0944 19.1368 34.1251 19.1333ZM16.7757 39.6333C20.3043 39.6427 23.5895 37.8425 25.4691 34.8689C27.3672 31.902 27.5975 28.1706 26.0782 24.9943L21.3376 15.0334H7.10809L2.3665 24.995C1.71368 26.3666 1.37533 27.8656 1.37533 29.3833C1.37533 35.0444 5.98435 39.6333 11.6697 39.6333H16.7757Z" fill="#9E8B5A"/>
</svg>
