<?xml version="1.0" encoding="UTF-8"?>
<svg width="65px" height="64px" viewBox="0 0 65 64" version="1.1" xmlns="http://www.w3.org/2000/svg" xmlns:xlink="http://www.w3.org/1999/xlink">
    <title>Group 9</title>
    <g id="Page-1" stroke="none" stroke-width="1" fill="none" fill-rule="evenodd" opacity="0.5">
        <g id="dc_05-copy-2" transform="translate(-1119.000000, -1131.000000)" fill="#FFFFFF" fill-rule="nonzero">
            <g id="Group-14" transform="translate(78.000000, 992.000000)">
                <g id="Group-9" transform="translate(1041.000000, 139.000000)">
                    <path d="M42.9714286,41.2842287 C41.3869714,41.2842287 40.0979592,40.1851547 40.0979592,38.8342793 C40.0979592,37.4832752 41.3869714,36.3842012 42.9714286,36.3842012 C44.5558857,36.3842012 45.844898,37.4832752 45.844898,38.8342793 C45.844898,39.5447788 46.4297796,40.1209498 47.1510204,40.1209498 C47.8722612,40.1209498 48.4571429,39.5447788 48.4571429,38.8342793 C48.4571429,36.4764555 46.6737633,34.4939535 44.277551,33.9558679 L44.277551,33.2866705 C44.277551,32.5761711 43.6926694,32 42.9714286,32 C42.2501878,32 41.6653061,32.5761711 41.6653061,33.2866705 L41.6653061,33.9558679 C39.2690939,34.4939535 37.4857143,36.4764555 37.4857143,38.8342793 C37.4857143,41.604095 39.9465796,43.8575698 42.9714286,43.8575698 C44.5558857,43.8575698 45.844898,44.9566437 45.844898,46.3076478 C45.844898,47.6586519 44.5558857,48.7577259 42.9714286,48.7577259 C41.3869714,48.7577259 40.0979592,47.6586519 40.0979592,46.3076478 C40.0979592,45.5971483 39.5130776,45.0209773 38.7918367,45.0209773 C38.0705959,45.0209773 37.4857143,45.5971483 37.4857143,46.3076478 C37.4857143,48.6654716 39.2690939,50.6479736 41.6653061,51.1860592 L41.6653061,51.7419009 C41.6653061,52.4524004 42.2501878,53.0285714 42.9714286,53.0285714 C43.6926694,53.0285714 44.277551,52.4524004 44.277551,51.7419009 L44.277551,51.1860592 C46.6737633,50.6479736 48.4571429,48.6654716 48.4571429,46.3076478 C48.4571429,43.5377035 45.9962776,41.2842287 42.9714286,41.2842287 Z" id="Path"></path>
                    <path d="M56.8726841,33.6245519 C55.2454516,31.0020526 52.9529012,28.9035378 50.2429232,27.5561491 C49.6226989,27.2477107 48.8784047,27.5177553 48.580438,28.1591113 C48.2823466,28.8004673 48.5433167,29.5701461 49.1634164,29.8784556 C53.8859159,32.226401 56.9372104,37.2432274 56.9372104,42.659323 C56.9372104,44.9768626 56.3848756,47.2752053 55.3401234,49.3062089 C55.0169938,49.9342946 55.2473202,50.7145381 55.854714,51.0487441 C56.0410678,51.1512992 56.2413732,51.2 56.438689,51.2 C56.8843935,51.2 57.3155235,50.9518578 57.5394969,50.5165139 C58.7753366,48.1144566 59.4285714,45.3973901 59.4285714,42.659323 C59.4285714,39.4435243 58.5447611,36.3193294 56.8726841,33.6245519 Z" id="Path"></path>
                    <path d="M45.3050087,25.6001371 L45.2155132,25.6 C44.4811982,25.6 43.8857143,26.2139579 43.8857143,26.97136 C43.8857143,27.7287621 44.4811982,28.34272 45.2155132,28.34272 L45.2925085,28.3428571 C45.2946362,28.3428571 45.2966309,28.3428571 45.2988916,28.3428571 C46.030414,28.3428571 46.6251,27.7331505 46.6285714,26.9779425 C46.631882,26.2205404 46.0393236,25.6037027 45.3050087,25.6001371 Z" id="Path"></path>
                    <path d="M37.6937258,55.1501382 C32.9712939,52.8020587 29.9199626,47.785221 29.9199626,42.369242 C29.9199626,40.0516972 30.472304,37.7533493 31.5170689,35.7223411 C31.8402023,35.094254 31.6098732,34.3140087 31.002472,33.979802 C30.39532,33.6455952 29.6406776,33.8838174 29.3176688,34.5120333 C28.0818142,36.9142249 27.4285714,39.6311687 27.4285714,42.369242 C27.4285714,45.585048 28.3123924,48.709121 29.9844896,51.4040334 C31.6117417,54.0265387 33.9043199,56.1250582 36.6143306,57.4725788 C36.7883542,57.5591582 36.9722189,57.6 37.1532185,57.6 C37.6171155,57.6 38.0623271,57.3308566 38.2768359,56.8696152 C38.5746817,56.2282578 38.313833,55.4584484 37.6937258,55.1501382 Z" id="Path"></path>
                    <path d="M41.6415013,56.6859909 L41.5644985,56.6857143 C40.8266548,56.6843453 40.2319113,57.2930611 40.2285714,58.0505618 C40.2251287,58.8079254 40.8180103,59.4247318 41.5523961,59.4282972 L41.6415013,59.4285714 C42.3758871,59.4285714 42.9714286,58.8145076 42.9714286,58.0572811 C42.9714286,57.3000546 42.3758871,56.6859909 41.6415013,56.6859909 Z" id="Path"></path>
                    <path d="M49.1178309,21.7761467 C48.9635329,21.409349 48.7744958,21.0636738 48.554523,20.743042 L51.8552559,20.743042 C55.0710424,20.743042 57.6873873,18.1329602 57.6873873,14.9248717 C57.6873873,11.7167832 55.0710424,9.10670137 51.8552559,9.10670137 L41.7022757,9.10670137 C42.3477405,8.17048188 42.7267023,7.03783589 42.7267023,5.81817032 C42.7267023,2.6100818 40.1103574,0 36.8945708,0 L5.83213147,0 C2.61634489,0 0,2.6100818 0,5.81817032 C0,9.02625884 2.61634489,11.6363406 5.83213147,11.6363406 L15.9851116,11.6363406 C15.3396468,12.5725601 14.9606851,13.7052061 14.9606851,14.9248717 C14.9606851,16.1445373 15.33952,17.2771832 15.9851116,18.2134027 L12.6785467,18.2134027 C9.46276009,18.2134027 6.8464152,20.8234845 6.8464152,24.0315731 C6.8464152,25.8740358 7.71033137,27.5181749 9.0543841,28.5849237 C7.71033137,29.6516726 6.8464152,31.2958117 6.8464152,33.1382744 C6.8464152,34.9807372 7.71033137,36.6248762 9.0543841,37.6916251 C7.71033137,38.758374 6.8464152,40.402513 6.8464152,42.2449758 C6.8464152,44.0874386 7.71033137,45.7315776 9.0543841,46.7983265 C7.71033137,47.8650754 6.8464152,49.5092144 6.8464152,51.3516772 C6.8464152,54.5597657 9.46276009,57.1698475 12.6785467,57.1698475 L27.6202139,57.1698475 C31.5563955,61.3699341 37.1560024,64 43.3607564,64 C55.2453725,64 64.9142857,54.3542325 64.9142857,42.4980662 C64.9142857,32.6303229 58.2162095,24.295035 49.1178309,21.7761467 Z M51.8552559,11.6363406 C53.6729791,11.6363406 55.151678,13.1116263 55.151678,14.9248717 C55.151678,16.7381171 53.6729791,18.2134027 51.8552559,18.2134027 L43.740986,18.2134027 L20.7928165,18.2134027 C18.9750933,18.2134027 17.4963944,16.7381171 17.4963944,14.9248717 C17.4963944,13.1116263 18.9750933,11.6363406 20.7928165,11.6363406 L51.8552559,11.6363406 Z M5.83213147,9.10670137 C4.01440823,9.10670137 2.53570933,7.63141575 2.53570933,5.81817032 C2.53570933,4.00492489 4.01440823,2.52963927 5.83213147,2.52963927 L36.8945708,2.52963927 C38.712294,2.52963927 40.1909929,4.00492489 40.1909929,5.81817032 C40.1909929,7.63141575 38.712294,9.10670137 36.8945708,9.10670137 L5.83213147,9.10670137 Z M12.6785467,20.743042 L43.740986,20.743042 C44.2516779,20.743042 44.7406894,20.8614291 45.1793671,21.0734129 C44.5796719,21.0231996 43.9733838,20.9961324 43.3607564,20.9961324 C37.4088127,20.9961324 32.0128232,23.4156059 28.1085915,27.3201041 L12.6785467,27.3201041 C10.8609502,27.3201041 9.38212453,25.8448185 9.38212453,24.0315731 C9.38212453,22.2183276 10.8609502,20.743042 12.6785467,20.743042 Z M12.6785467,29.8497434 L25.9422083,29.8497434 C24.5029396,31.8169174 23.3901436,34.035664 22.6834414,36.4268055 L12.6785467,36.4268055 C10.8608234,36.4268055 9.38212453,34.9516463 9.38212453,33.1382744 C9.38212453,31.325029 10.8608234,29.8497434 12.6785467,29.8497434 Z M12.6785467,38.9564448 L22.1012425,38.9564448 C21.908909,40.1090749 21.8072271,41.2918077 21.8072271,42.4980662 C21.8072271,43.5283883 21.8819037,44.5415088 22.0230159,45.5335069 L12.6785467,45.5335069 C10.8608234,45.5335069 9.38212453,44.0583477 9.38212453,42.2449758 C9.38212453,40.4316039 10.8608234,38.9564448 12.6785467,38.9564448 Z M12.6785467,54.6402082 C10.8608234,54.6402082 9.38212453,53.1650491 9.38212453,51.3516772 C9.38212453,49.5383053 10.8608234,48.0631461 12.6785467,48.0631461 L22.540681,48.0631461 C23.1804404,50.4426513 24.2197009,52.6602596 25.5826447,54.6402082 L12.6785467,54.6402082 Z M43.3607564,61.4703607 C32.8743304,61.4703607 24.3429364,52.9593894 24.3429364,42.4980662 C24.3429364,32.036743 32.8743304,23.5257717 43.3607564,23.5257717 C53.8471823,23.5257717 62.3785764,32.036743 62.3785764,42.4980662 C62.3785764,52.9593894 53.8471823,61.4703607 43.3607564,61.4703607 Z" id="Shape"></path>
                </g>
            </g>
        </g>
    </g>
</svg>