<svg width="17" height="17" viewBox="0 0 17 17" fill="none" xmlns="http://www.w3.org/2000/svg">
<path fill-rule="evenodd" clip-rule="evenodd" d="M8.25043 0.000434028C9.00825 0.000434028 9.73872 0.0980903 10.4418 0.293403C11.145 0.488715 11.8012 0.766059 12.4106 1.12543C13.02 1.48481 13.5786 1.9145 14.0864 2.4145C14.5942 2.9145 15.0239 3.46918 15.3754 4.07856C15.727 4.68793 16.0043 5.34809 16.2075 6.05903C16.4106 6.76997 16.5082 7.50043 16.5004 8.25043C16.5004 9.00825 16.4028 9.73872 16.2075 10.4418C16.0122 11.145 15.7348 11.8012 15.3754 12.4106C15.0161 13.02 14.5864 13.5786 14.0864 14.0864C13.5864 14.5942 13.0317 15.0239 12.4223 15.3754C11.8129 15.727 11.1528 16.0043 10.4418 16.2075C9.7309 16.4106 9.00043 16.5082 8.25043 16.5004C7.49262 16.5004 6.76215 16.4028 6.05903 16.2075C5.3559 16.0122 4.69965 15.7348 4.09028 15.3754C3.4809 15.0161 2.92231 14.5864 2.4145 14.0864C1.90668 13.5864 1.477 13.0317 1.12543 12.4223C0.773872 11.8129 0.496528 11.1528 0.293403 10.4418C0.0902778 9.7309 -0.00737847 9.00043 0.000434028 8.25043C0.000434028 7.49262 0.0980903 6.76215 0.293403 6.05903C0.488715 5.3559 0.766059 4.69965 1.12543 4.09028C1.48481 3.4809 1.9145 2.92231 2.4145 2.4145C2.9145 1.90668 3.46918 1.477 4.07856 1.12543C4.68793 0.773872 5.34809 0.496528 6.05903 0.293403C6.76997 0.0902778 7.50043 -0.00737847 8.25043 0.000434028ZM8.25043 15.0004C9.18012 15.0004 10.0551 14.8247 10.8754 14.4731C11.6957 14.1215 12.4106 13.6372 13.02 13.02C13.6293 12.4028 14.1098 11.6879 14.4614 10.8754C14.8129 10.0629 14.9926 9.18793 15.0004 8.25043C15.0004 7.32075 14.8247 6.44575 14.4731 5.62543C14.1215 4.80512 13.6372 4.09028 13.02 3.4809C12.4028 2.87153 11.6879 2.39106 10.8754 2.0395C10.0629 1.68793 9.18793 1.50825 8.25043 1.50043C7.32075 1.50043 6.44575 1.67622 5.62543 2.02778C4.80512 2.37934 4.09028 2.86372 3.4809 3.4809C2.87153 4.09809 2.39106 4.81293 2.0395 5.62543C1.68793 6.43793 1.50825 7.31293 1.50043 8.25043C1.50043 9.18012 1.67622 10.0551 2.02778 10.8754C2.37934 11.6957 2.86372 12.4106 3.4809 13.02C4.09809 13.6293 4.81293 14.1098 5.62543 14.4614C6.43793 14.8129 7.31293 14.9926 8.25043 15.0004ZM10.6569 5L11.364 5.70711L8.74264 8.32843L11.364 10.9497L10.6569 11.6569L8.03554 9.03554L5.70711 11.364L5.00001 10.6569L7.32843 8.32843L5 6L5.70711 5.29289L8.03554 7.62132L10.6569 5Z" fill="#C4C4C4"/>
</svg>
