<svg width="100" height="104" viewBox="0 0 100 104" fill="none" xmlns="http://www.w3.org/2000/svg">
<g opacity="0.5">
<path fill-rule="evenodd" clip-rule="evenodd" d="M55.1724 18.9655H74.1379C74.8672 18.9655 75.5172 18.5086 75.7638 17.8207C76.0086 17.1362 75.7948 16.3707 75.231 15.9069L56.2655 0.389648C55.7482 -0.0293173 55.0379 -0.120697 54.4344 0.167234C53.8327 0.451717 53.4482 1.05689 53.4482 1.72413V17.2414C53.4482 18.1948 54.2207 18.9655 55.1724 18.9655ZM69.3069 15.5172H56.8965V5.36379L69.3069 15.5172Z" fill="white"/>
<path d="M50 31.0345H37.931C36.9793 31.0345 36.2069 30.2638 36.2069 29.3104C36.2069 28.3569 36.9793 27.5862 37.931 27.5862H50C50.9517 27.5862 51.7242 28.3569 51.7242 29.3104C51.7242 30.2638 50.9517 31.0345 50 31.0345Z" fill="white"/>
<path d="M31.0345 31.0345H10.3449C9.39314 31.0345 8.62073 30.2638 8.62073 29.3104C8.62073 28.3569 9.39314 27.5862 10.3449 27.5862H31.0345C31.9862 27.5862 32.7587 28.3569 32.7587 29.3104C32.7587 30.2638 31.9862 31.0345 31.0345 31.0345Z" fill="white"/>
<path d="M36.2069 48.2759H10.3449C9.39314 48.2759 8.62073 47.5052 8.62073 46.5517C8.62073 45.5983 9.39314 44.8276 10.3449 44.8276H36.2069C37.1587 44.8276 37.9311 45.5983 37.9311 46.5517C37.9311 47.5052 37.1587 48.2759 36.2069 48.2759Z" fill="white"/>
<path d="M60.3448 31.0345H56.8965C55.9448 31.0345 55.1724 30.2638 55.1724 29.3104C55.1724 28.3569 55.9448 27.5862 56.8965 27.5862H60.3448C61.2965 27.5862 62.0689 28.3569 62.0689 29.3104C62.0689 30.2638 61.2965 31.0345 60.3448 31.0345Z" fill="white"/>
<path d="M34.4828 39.6552H22.4138C21.4621 39.6552 20.6897 38.8845 20.6897 37.931C20.6897 36.9776 21.4621 36.2069 22.4138 36.2069H34.4828C35.4345 36.2069 36.2069 36.9776 36.2069 37.931C36.2069 38.8845 35.4345 39.6552 34.4828 39.6552Z" fill="white"/>
<path d="M60.3448 39.6552H41.3793C40.4276 39.6552 39.6552 38.8845 39.6552 37.931C39.6552 36.9776 40.4276 36.2069 41.3793 36.2069H60.3448C61.2965 36.2069 62.0689 36.9776 62.0689 37.931C62.0689 38.8845 61.2965 39.6552 60.3448 39.6552Z" fill="white"/>
<path d="M22.4138 22.4138H10.3449C9.39314 22.4138 8.62073 21.6431 8.62073 20.6897C8.62073 19.7362 9.39314 18.9655 10.3449 18.9655H22.4138C23.3656 18.9655 24.138 19.7362 24.138 20.6897C24.138 21.6431 23.3656 22.4138 22.4138 22.4138Z" fill="white"/>
<path d="M48.2758 22.4138H29.3103C28.3586 22.4138 27.5862 21.6431 27.5862 20.6897C27.5862 19.7362 28.3586 18.9655 29.3103 18.9655H48.2758C49.2276 18.9655 50 19.7362 50 20.6897C50 21.6431 49.2276 22.4138 48.2758 22.4138Z" fill="white"/>
<path d="M32.7587 65.5172H10.3449C9.39314 65.5172 8.62073 64.7466 8.62073 63.7931C8.62073 62.8397 9.39314 62.069 10.3449 62.069H32.7587C33.7104 62.069 34.4828 62.8397 34.4828 63.7931C34.4828 64.7466 33.7104 65.5172 32.7587 65.5172Z" fill="white"/>
<path d="M22.4138 56.8966H10.3449C9.39314 56.8966 8.62073 56.1259 8.62073 55.1724C8.62073 54.219 9.39314 53.4483 10.3449 53.4483H22.4138C23.3656 53.4483 24.138 54.219 24.138 55.1724C24.138 56.1259 23.3656 56.8966 22.4138 56.8966Z" fill="white"/>
<path d="M31.0345 82.7586H10.3449C9.39314 82.7586 8.62073 81.9879 8.62073 81.0345C8.62073 80.0811 9.39314 79.3104 10.3449 79.3104H31.0345C31.9862 79.3104 32.7587 80.0811 32.7587 81.0345C32.7587 81.9879 31.9862 82.7586 31.0345 82.7586Z" fill="white"/>
<path d="M22.4138 74.1379H10.3449C9.39314 74.1379 8.62073 73.3672 8.62073 72.4138C8.62073 71.4603 9.39314 70.6896 10.3449 70.6896H22.4138C23.3656 70.6896 24.138 71.4603 24.138 72.4138C24.138 73.3672 23.3656 74.1379 22.4138 74.1379Z" fill="white"/>
<path d="M15.5173 39.6552H10.3449C9.39314 39.6552 8.62073 38.8845 8.62073 37.931C8.62073 36.9776 9.39314 36.2069 10.3449 36.2069H15.5173C16.469 36.2069 17.2414 36.9776 17.2414 37.931C17.2414 38.8845 16.469 39.6552 15.5173 39.6552Z" fill="white"/>
<path d="M43.1035 13.7931H22.4138C21.4621 13.7931 20.6897 13.0224 20.6897 12.069C20.6897 11.1155 21.4621 10.3448 22.4138 10.3448H43.1035C44.0552 10.3448 44.8276 11.1155 44.8276 12.069C44.8276 13.0224 44.0552 13.7931 43.1035 13.7931Z" fill="white"/>
<path d="M15.5173 13.7931H10.3449C9.39314 13.7931 8.62073 13.0224 8.62073 12.069C8.62073 11.1155 9.39314 10.3448 10.3449 10.3448H15.5173C16.469 10.3448 17.2414 11.1155 17.2414 12.069C17.2414 13.0224 16.469 13.7931 15.5173 13.7931Z" fill="white"/>
<path fill-rule="evenodd" clip-rule="evenodd" d="M37.931 72.4138C37.931 89.5259 51.8534 103.448 68.9655 103.448C86.0776 103.448 100 89.5259 100 72.4138C100 55.3017 86.0776 41.3793 68.9655 41.3793C51.8534 41.3793 37.931 55.3017 37.931 72.4138ZM41.3793 72.4138C41.3793 57.2035 53.7534 44.8276 68.9655 44.8276C84.1776 44.8276 96.5517 57.2035 96.5517 72.4138C96.5517 87.6242 84.1776 100 68.9655 100C53.7534 100 41.3793 87.6242 41.3793 72.4138Z" fill="white"/>
<path d="M46.5518 74.1379C45.6001 74.1379 44.8276 73.3673 44.8276 72.4138C44.8276 59.1035 55.6552 48.2759 68.9656 48.2759C69.9173 48.2759 70.6897 49.0466 70.6897 50C70.6897 50.9535 69.9173 51.7242 68.9656 51.7242C57.5569 51.7242 48.2759 61.0052 48.2759 72.4138C48.2759 73.3673 47.5035 74.1379 46.5518 74.1379Z" fill="white"/>
<path d="M68.9655 96.5517C68.0137 96.5517 67.2413 95.781 67.2413 94.8276C67.2413 93.8741 68.0137 93.1034 68.9655 93.1034C80.3741 93.1034 89.6551 83.8224 89.6551 72.4138C89.6551 71.4603 90.4275 70.6896 91.3793 70.6896C92.331 70.6896 93.1034 71.4603 93.1034 72.4138C93.1034 85.7241 82.2758 96.5517 68.9655 96.5517Z" fill="white"/>
<path fill-rule="evenodd" clip-rule="evenodd" d="M67.1432 103.478C67.2001 103.481 67.2535 103.483 67.3069 103.483C69.0311 103.483 69.1897 102.053 69.2035 101.886C69.2156 101.716 69.2725 100.25 67.4932 100.019C67.4552 100.012 67.4156 100.009 67.3759 100.005C61.5535 99.4966 55.3604 97.0069 51.2104 93.5086C50.8983 93.2466 50.5052 93.1035 50.0983 93.1035H8.62074C7.66902 93.1035 6.89661 93.8741 6.89661 94.8276V101.724C6.89661 102.678 7.66902 103.448 8.62074 103.448H66.8414C66.9363 103.462 67.0363 103.472 67.1432 103.478ZM54.9432 100H10.3449V96.5517H49.4811C51.1104 97.8569 52.957 99.0172 54.9432 100Z" fill="white"/>
<path fill-rule="evenodd" clip-rule="evenodd" d="M1.72414 96.5517H50.0983C50.8224 96.5517 51.469 96.0983 51.7172 95.4172C51.9655 94.7379 51.7621 93.9759 51.2086 93.5086C44.9621 88.2466 41.3793 80.5569 41.3793 72.4138C41.3793 57.2034 53.7534 44.8276 68.9655 44.8276C70.519 44.8276 72.1121 44.9776 73.8345 45.2845C74.3379 45.3759 74.8534 45.2379 75.2448 44.9086C75.6362 44.5793 75.8621 44.0966 75.8621 43.5862V17.2414C75.8621 16.7241 75.6293 16.2345 75.2293 15.9069L56.2638 0.389655C55.9569 0.137931 55.5707 0 55.1724 0H1.72414C0.772414 0 0 0.77069 0 1.72414V94.8276C0 95.781 0.772414 96.5517 1.72414 96.5517ZM45.8483 93.1034H3.44828V3.44828H54.5569L72.4138 18.0586V41.5879C71.2328 41.4483 70.0931 41.3793 68.9655 41.3793C51.8535 41.3793 37.931 55.3017 37.931 72.4138C37.931 80.1103 40.7741 87.4448 45.8483 93.1034Z" fill="white"/>
</g>
</svg>
