<svg width="46" height="43" viewBox="0 0 46 43" fill="none" xmlns="http://www.w3.org/2000/svg">
<path fill-rule="evenodd" clip-rule="evenodd" d="M44.6523 37.0482C44.6523 36.6768 44.9539 36.3757 45.3261 36.3757C45.6983 36.3757 45.9999 36.6768 46 37.0482V41.5417C46 42.3459 45.3445 43 44.5388 43H23.7875C23.4974 43 23.2275 42.9142 23 42.7682C22.7723 42.9142 22.5025 43 22.2125 43H1.4613C0.655497 43 0 42.3459 0 41.5417V30.9951C0 27.8918 2.66709 26.762 2.78083 26.7154L2.7935 26.7104L8.745 24.4076V23.2615C7.71701 22.4803 7.06564 21.3312 6.86727 20.133C5.65636 19.9832 4.80644 18.9792 4.80644 17.8278C4.80644 17.307 4.98999 16.815 5.32942 16.4103V14.5483C5.32942 13.1365 5.77873 11.7963 6.62892 10.6724C7.45053 9.58601 8.61913 8.77238 9.91916 8.38161C10.275 8.27437 10.6515 8.47585 10.7588 8.83156C10.8661 9.18726 10.6642 9.56243 10.3079 9.66949C8.17027 10.3121 6.67725 12.3183 6.67725 14.5482V15.58C6.68651 15.5777 6.85316 15.5442 6.86808 15.5418C7.03492 15.0914 7.42637 14.8165 8.05311 14.8532C9.9772 14.9659 12.0505 14.3989 13.7571 13.2863C14.193 13.0019 14.7673 13.0717 15.1224 13.4524C15.3766 13.7251 15.5862 13.9483 15.7601 14.1336L15.7602 14.1337L15.7603 14.1338C16.2679 14.6746 16.4725 14.8925 16.601 15.0768C16.7047 15.2256 16.7528 15.3415 16.762 15.5314C16.7656 15.5319 16.859 15.548 16.8881 15.554V14.5482C16.8881 12.2355 15.3249 10.2093 13.0866 9.62107C12.7267 9.52647 12.5118 9.15857 12.6066 8.79937C12.7013 8.44016 13.0694 8.22559 13.4299 8.32028C14.39 8.5726 15.2515 9.03483 15.9714 9.64878C15.9874 9.15445 16.1686 8.68872 16.4925 8.30243V6.4405C16.4925 2.88924 19.3873 0 22.9456 0C26.5038 0 29.3987 2.88916 29.3987 6.4405V8.25509C29.7208 8.64819 29.9056 9.1392 29.9202 9.65452C31.0484 8.69132 32.511 8.10777 34.1085 8.10777C37.6667 8.10777 40.5616 10.9969 40.5616 14.5483V16.3629C40.8973 16.7727 41.0848 17.2887 41.0848 17.8278C41.0848 18.5033 40.791 19.1429 40.2789 19.5824C39.9217 19.889 39.4914 20.0743 39.0275 20.1324C38.8314 21.3594 38.1782 22.4356 37.2482 23.1824V24.4072L43.2063 26.7102L43.2192 26.7153C43.3326 26.762 45.9996 27.8919 45.9996 30.9952V33.9098C45.9996 34.2812 45.698 34.5823 45.3258 34.5823C44.9536 34.5823 44.652 34.2812 44.6519 33.9097V30.9951C44.6519 28.8462 42.8471 28.0203 42.709 27.9604L39.2101 26.6079L37.6783 29.6719V29.672C37.5405 29.9475 37.2898 30.1484 36.9905 30.2231C36.6858 30.2991 36.3708 30.2352 36.1238 30.0601L36.0516 30.009L35.7747 30.4251L37.28 39.3018L37.2819 39.314L37.2831 39.3219C37.3265 39.6351 37.229 39.9576 37.0222 40.1847L35.6831 41.655H40.6308V31.8295C40.6308 31.4581 40.9324 31.157 41.3046 31.157C41.6768 31.157 41.9784 31.4581 41.9784 31.8295V41.6549H44.5388C44.6014 41.6549 44.6523 41.6041 44.6523 41.5417V37.0482ZM6.15391 17.8277C6.15391 18.2356 6.40628 18.6003 6.80132 18.7434V16.9525C6.44141 17.1068 6.15391 17.4319 6.15391 17.8277ZM37.948 26.12L36.6253 28.7657L35.1352 27.7095L36.7891 25.6722L37.948 26.12ZM32.4185 24.6257L34.1612 26.7726L35.9005 24.6299V23.9527C35.3651 24.1538 34.7638 24.2664 34.17 24.2664H34.1699H34.1695C33.5951 24.2663 32.9849 24.1761 32.4185 23.9806V24.6257ZM34.9523 29.2298L34.7044 29.6022H33.6181L33.3703 29.2298L34.1613 28.6691L34.9523 29.2298ZM21.2555 16.5179L22.9982 18.6648L24.7376 16.522V15.8449C24.2009 16.0464 23.5998 16.1586 23.007 16.1586H23.0069H23.0066C22.4293 16.1584 21.8197 16.0674 21.2555 15.8727V16.5179ZM23.7893 21.1221L23.5414 21.4945H22.4551L22.2072 21.1221L22.9983 20.5614L23.7893 21.1221ZM18.03 12.0251C17.9151 12.011 17.8019 11.9906 17.6918 11.9607C18.0429 12.7583 18.2355 13.6356 18.2355 14.5483V16.3629C18.3537 16.5071 18.4534 16.6645 18.5331 16.8315L19.9078 16.2997V15.1537C18.8798 14.3724 18.2284 13.2233 18.03 12.0251ZM26.5789 11.2485C26.5789 13.217 24.97 14.8133 23.007 14.8133C20.7923 14.8133 19.3122 13.1002 19.3122 11.2485V8.09835C21.44 8.18335 23.6504 7.55398 25.4576 6.43135C25.6663 6.65468 25.8459 6.84587 25.998 7.00775L25.9981 7.00778L25.9981 7.00786L25.9983 7.00806C26.289 7.31736 26.4791 7.51966 26.579 7.63477L26.5789 11.2485ZM28.2011 11.96C28.0916 11.9899 27.9789 12.0103 27.8647 12.0247C27.6685 13.2515 27.0153 14.3278 26.0853 15.0746V16.2995L27.3888 16.8032C27.4625 16.6652 27.5516 16.5337 27.6552 16.4102V14.5483C27.6552 13.6278 27.8511 12.7527 28.2011 11.96ZM20.3679 17.5654L22.0221 19.6031L20.8941 20.4028L20.8924 20.4041L20.5343 20.658L19.2116 18.0124L20.3679 17.5654ZM25.626 17.5643L24.5491 18.891L23.9723 19.6016L25.1024 20.4028L25.1035 20.4037L25.4623 20.658L26.7849 18.0122L25.626 17.5643ZM24.8887 21.9012L24.9608 21.9523C25.2128 22.1309 25.5289 22.1899 25.8276 22.1153C26.1268 22.0406 26.3776 21.8397 26.5154 21.5642V21.5642L27.6526 19.2894C28.0434 19.77 28.6085 20.0623 29.1905 20.1349C29.396 21.4207 30.0924 22.518 31.0708 23.2615V24.4075L25.342 26.6241L24.6116 22.3174L24.8887 21.9012ZM33.1851 27.7109L31.5309 25.6731L30.3745 26.1201L31.6973 28.7657L33.1851 27.7109ZM37.7418 19.3564C37.742 21.2768 36.1793 22.9212 34.17 22.9212C31.8797 22.9212 30.4752 21.1309 30.4752 19.3564V16.2062C32.5877 16.2904 34.801 15.6694 36.6204 14.5392C36.8285 14.7619 37.0078 14.9526 37.1596 15.1142L37.1608 15.1156L37.161 15.1157L37.1613 15.116C37.4519 15.4253 37.6419 15.6275 37.7419 15.7426L37.7418 19.3564ZM39.0898 18.7434C39.484 18.6004 39.7372 18.2364 39.7372 17.8277C39.7372 17.4337 39.4973 17.0621 39.0898 16.9139V18.7434ZM29.003 14.5482C29.003 11.7386 31.2934 9.45277 34.1084 9.45277C36.9236 9.45277 39.2138 11.7386 39.2138 14.5482V15.554C39.1831 15.5476 39.0989 15.5331 39.0876 15.5314C39.0785 15.3414 39.03 15.2252 38.9266 15.0768C38.796 14.8895 38.595 14.6756 38.0991 14.1476L38.0989 14.1474C37.9226 13.9597 37.709 13.7323 37.448 13.4524C37.1005 13.0801 36.5275 12.9962 36.0827 13.2863C34.4224 14.3688 32.3248 14.9802 30.3287 14.8508C29.768 14.8141 29.3618 15.0881 29.1937 15.5419C29.1787 15.5443 29.0123 15.5778 29.0029 15.5801V14.5482H29.003ZM29.1274 18.7425V16.9526C28.7672 17.107 28.4799 17.4319 28.48 17.8277C28.48 18.2343 28.7312 18.6 29.1274 18.7425ZM28.5741 9.71997C28.5741 10.0031 28.4512 10.271 28.2372 10.4547C28.1452 10.5336 28.0405 10.5942 27.9267 10.6356V8.80609C28.3296 8.95207 28.5741 9.32176 28.5741 9.71997ZM28.0508 6.44041C28.0508 3.63079 25.7605 1.345 22.9454 1.345C20.1303 1.345 17.8399 3.63079 17.8399 6.4405H17.84V7.47212C17.8494 7.46988 18.0158 7.43634 18.0309 7.43392C18.1956 6.98908 18.6397 6.70466 19.1114 6.74026C21.0393 6.87807 23.1664 6.32169 24.9198 5.17844C25.3578 4.89276 25.9317 4.96584 26.285 5.3445C26.5388 5.61674 26.7482 5.8398 26.9223 6.02519L26.9223 6.02521L26.9224 6.02528L26.9224 6.02536L26.9225 6.02543C27.3901 6.5235 27.6024 6.74962 27.7338 6.92721C27.8552 7.09103 27.9147 7.21764 27.9247 7.42361C27.9359 7.42531 28.0204 7.43993 28.0508 7.4462V6.44041ZM17.9643 8.84474V10.6357C17.5692 10.4925 17.3169 10.1279 17.3169 9.71988C17.3169 9.32643 17.6021 9.00013 17.9643 8.84474ZM17.4067 17.7693C17.3827 17.3791 17.1406 17.0509 16.7636 16.9139V18.7426C17.1698 18.5954 17.4369 18.2031 17.4067 17.7693ZM16.7012 20.1347C17.3367 20.0553 17.9201 19.7211 18.3026 19.2068L19.4812 21.5642L19.4813 21.5642C19.619 21.8398 19.8698 22.0406 20.169 22.1153C20.4649 22.1891 20.7814 22.1326 21.0358 21.9523L21.1079 21.9012L21.3849 22.3174L20.6547 26.6229L14.9224 24.4071V23.1828H14.9223C15.8767 22.4148 16.5096 21.3297 16.7012 20.1347ZM10.0924 24.6257L11.8351 26.7726L13.5744 24.6299V23.9527C13.0465 24.1509 12.4464 24.2664 11.8439 24.2664H11.8435C11.2663 24.2663 10.6566 24.1753 10.0924 23.9806V24.6257ZM12.6262 29.2298L12.3784 29.6022H11.2921L11.0442 29.2298L11.8353 28.6691L12.6262 29.2298ZM15.6219 26.1201L14.4629 25.6722L12.8092 27.7095L13.9393 28.5106L13.9404 28.5115L14.2992 28.7657L15.6219 26.1201ZM8.14907 19.3564V16.2062C10.2881 16.2915 12.5 15.6538 14.2944 14.5392C14.5013 14.7607 14.6805 14.9514 14.8327 15.1134L14.833 15.1137L14.8331 15.1138C15.1234 15.4228 15.3158 15.6275 15.4158 15.7426V19.3564C15.4158 21.3123 13.8179 22.9212 11.8439 22.9212C9.64604 22.9212 8.14907 21.2276 8.14907 19.3564ZM10.8591 27.7109L9.20491 25.6731L8.04853 26.1201L9.3713 28.7657L9.72932 28.5119L9.73103 28.5106L10.8591 27.7109ZM5.36931 41.655V31.8295C5.36931 31.4581 5.06771 31.157 4.69549 31.157C4.32326 31.157 4.02166 31.4581 4.02166 31.8295V41.655H1.4613C1.39859 41.655 1.34774 41.6042 1.34774 41.5417V30.9951C1.34774 28.8351 3.17129 28.0118 3.28935 27.9609L6.78614 26.6079L8.31806 29.6719L8.31815 29.672C8.45588 29.9476 8.70663 30.1484 9.00599 30.2231C9.30185 30.2969 9.61837 30.2404 9.87271 30.0601L9.94486 30.009L10.2218 30.4251L8.71652 39.3018C8.71535 39.3084 8.71437 39.3151 8.71339 39.3218L8.71337 39.3219C8.67007 39.6349 8.76755 39.9574 8.97446 40.1849L10.3134 41.655H5.36931ZM11.5001 30.9473L10.069 39.3868L11.8353 41.326L13.6015 39.3868L12.1703 30.9473H11.5001ZM22.326 41.5417C22.326 41.6042 22.2751 41.655 22.2125 41.655H19.6523V31.8295C19.6523 31.4581 19.3507 31.157 18.9785 31.157C18.6063 31.157 18.3047 31.4581 18.3047 31.8295V41.655H13.357L14.6961 40.1847C14.903 39.9576 15.0004 39.6351 14.957 39.3219C14.9561 39.3151 14.9551 39.3085 14.9539 39.3018L13.4486 30.4251L13.7256 30.009L13.7977 30.0601C13.978 30.188 14.1915 30.2547 14.4081 30.2547C14.8033 30.2547 15.1714 30.0336 15.3524 29.672V29.6719L16.8841 26.608L20.383 27.9605C21.4029 28.4032 22.3259 29.5451 22.3259 30.9951V41.5417H22.326ZM21.9012 27.3327C22.3492 27.6871 22.7208 28.1025 22.9999 28.5514C23.269 28.1186 23.6357 27.6995 24.0956 27.335L23.3333 22.8396H22.6632L21.9012 27.3327ZM27.6953 41.655V31.8295C27.6953 31.4581 27.3937 31.157 27.0215 31.157C26.6493 31.157 26.3477 31.4581 26.3477 31.8295V41.655H23.7874C23.7248 41.655 23.6738 41.6042 23.6738 41.5417V30.9951C23.6738 30.1957 23.925 29.4593 24.4601 28.8407C24.8169 28.4323 25.2901 28.1016 25.6155 27.9609L29.1123 26.6078L30.6442 29.6719L30.6443 29.672C30.7821 29.9476 31.0328 30.1484 31.3321 30.2231C31.6279 30.2969 31.9445 30.2404 32.1988 30.0601L32.2709 30.009L32.5479 30.4251L31.0426 39.3018C31.0419 39.3056 31.0413 39.3094 31.0407 39.3132C31.0403 39.3161 31.0399 39.319 31.0395 39.3219C30.9962 39.6349 31.0936 39.9574 31.3005 40.1849L32.6395 41.655H27.6953ZM33.8262 30.9473L32.395 39.3869L34.1612 41.3261L35.9276 39.3869L34.4964 30.9473H33.8262Z" fill="#862632"/>
</svg>
