<svg width="41" height="48" viewBox="0 0 41 48" fill="none" xmlns="http://www.w3.org/2000/svg">
<path d="M29.6 33.6C29.1582 33.6 28.8 33.9582 28.8 34.4V36.8H4C3.5582 36.8 3.2 37.1582 3.2 37.6C3.2 38.0418 3.5582 38.4 4 38.4H28.8V44C28.8 45.3254 27.7254 46.4 26.4 46.4H4C2.67461 46.4 1.6 45.3254 1.6 44V4C1.6 2.67461 2.67461 1.6 4 1.6H26.4C27.7254 1.6 28.8 2.67461 28.8 4V8.8C28.8 9.2418 29.1582 9.6 29.6 9.6C30.0418 9.6 30.4 9.2418 30.4 8.8V4C30.4 1.79102 28.609 0 26.4 0H4C1.79102 0 0 1.79102 0 4V44C0 46.209 1.79102 48 4 48H26.4C28.609 48 30.4 46.209 30.4 44V34.4C30.4 33.9582 30.0418 33.6 29.6 33.6Z" fill="#821517"/>
<path d="M18.3999 41.6C18.8417 41.6 19.1999 41.2418 19.1999 40.8C19.1999 40.3582 18.8417 40 18.3999 40H11.9999C11.1163 40 10.3999 40.7164 10.3999 41.6V43.2C10.3999 44.0836 11.1163 44.8 11.9999 44.8H18.3999C18.8417 44.8 19.1999 44.4418 19.1999 44C19.1999 43.5582 18.8417 43.2 18.3999 43.2H11.9999V41.6H18.3999Z" fill="#821517"/>
<path d="M29.5999 25.6C28.7163 25.6 27.9999 24.8836 27.9999 24C27.9999 23.5582 27.6417 23.2 27.1999 23.2C26.7581 23.2 26.3999 23.5582 26.3999 24C26.4046 25.4555 27.3909 26.7242 28.7999 27.0879V28C28.7999 28.4418 29.1581 28.8 29.5999 28.8C30.0417 28.8 30.3999 28.4418 30.3999 28V27.0879C31.9405 26.6695 32.9374 25.1797 32.7358 23.5961C32.5343 22.0121 31.1964 20.8191 29.5999 20.8C28.7163 20.8 27.9999 20.0836 27.9999 19.2C27.9999 18.3164 28.7163 17.6 29.5999 17.6C30.4835 17.6 31.1999 18.3164 31.1999 19.2C31.1999 19.6418 31.5581 20 31.9999 20C32.4417 20 32.7999 19.6418 32.7999 19.2C32.7952 17.7445 31.8089 16.4758 30.3999 16.1121V15.2C30.3999 14.7582 30.0417 14.4 29.5999 14.4C29.1581 14.4 28.7999 14.7582 28.7999 15.2V16.1121C27.2593 16.5305 26.2624 18.0203 26.464 19.6039C26.6655 21.1879 28.0034 22.3809 29.5999 22.4C30.4835 22.4 31.1999 23.1164 31.1999 24C31.1999 24.8836 30.4835 25.6 29.5999 25.6Z" fill="#821517"/>
<path d="M29.6 11.2C26.2218 11.1984 23.0535 12.8379 21.1035 15.5961C19.1531 18.3543 18.6644 21.8879 19.7921 25.0719C19.9398 25.4895 20.3984 25.7082 20.816 25.5602C21.2336 25.4121 21.4519 24.9535 21.3039 24.5359C20.9687 23.5934 20.798 22.6004 20.8 21.6C20.8015 17.402 23.7679 13.7891 27.8859 12.9715C32.0035 12.1539 36.1257 14.3586 37.7312 18.2375C39.3367 22.1168 37.9785 26.5895 34.4871 28.9211C30.9957 31.2527 26.3437 30.7934 23.3761 27.8238C23.0586 27.5523 22.5855 27.5703 22.2898 27.866C21.9945 28.1613 21.9761 28.6348 22.248 28.952C25.5761 32.282 30.7261 32.9605 34.8035 30.607C38.8804 28.2531 40.8683 23.4539 39.6488 18.9066C38.4296 14.3594 34.3078 11.1984 29.6 11.2Z" fill="#821517"/>
<path d="M11.2001 15.2H16.8001C17.2419 15.2 17.6001 14.8418 17.6001 14.4C17.6001 13.9582 17.2419 13.6 16.8001 13.6H12.0001V12.8C11.9993 12.4922 11.822 12.2125 11.5442 12.0801C11.2688 11.9492 10.9431 11.9867 10.704 12.1762L6.704 15.3762C6.51494 15.5277 6.40479 15.7574 6.40479 16C6.40479 16.2426 6.51494 16.4723 6.704 16.6238L10.704 19.8238C10.845 19.9371 11.0196 19.9988 11.2001 20C11.3196 20.002 11.4376 19.9746 11.5442 19.9199C11.822 19.7875 11.9993 19.5078 12.0001 19.2V18.4H16.8001C17.2419 18.4 17.6001 18.0418 17.6001 17.6C17.6001 17.1582 17.2419 16.8 16.8001 16.8H11.2001C10.7821 16.7988 10.4337 17.1195 10.4001 17.5359L8.48018 16L10.4001 14.4641C10.4337 14.8805 10.7821 15.2012 11.2001 15.2Z" fill="#821517"/>
<path d="M12.4558 29.5199C12.5624 29.5746 12.6804 29.6019 12.7999 29.6C12.9804 29.5988 13.155 29.5371 13.296 29.4238L17.296 26.2238C17.4851 26.0723 17.5952 25.8426 17.5952 25.6C17.5952 25.3574 17.4851 25.1277 17.296 24.9762L13.296 21.7762C13.0569 21.5867 12.7312 21.5492 12.4558 21.6801C12.178 21.8125 12.0007 22.0922 11.9999 22.4V23.2H7.1999C6.75811 23.2 6.3999 23.5582 6.3999 24C6.3999 24.4418 6.75811 24.8 7.1999 24.8H12.7999C13.2179 24.8012 13.5663 24.4805 13.5999 24.0641L15.5198 25.6L13.5999 27.1359C13.5663 26.7195 13.2179 26.3988 12.7999 26.4H7.1999C6.75811 26.4 6.3999 26.7582 6.3999 27.2C6.3999 27.6418 6.75811 28 7.1999 28H11.9999V28.8C12.0007 29.1078 12.178 29.3875 12.4558 29.5199Z" fill="#821517"/>
<path d="M6.40005 4.8C6.40005 5.2418 6.04185 5.6 5.60005 5.6C5.15825 5.6 4.80005 5.2418 4.80005 4.8C4.80005 4.3582 5.15825 4 5.60005 4C6.04185 4 6.40005 4.3582 6.40005 4.8Z" fill="#821517"/>
<path d="M9.6 4.8C9.6 5.2418 9.2418 5.6 8.8 5.6C8.3582 5.6 8 5.2418 8 4.8C8 4.3582 8.3582 4 8.8 4C9.2418 4 9.6 4.3582 9.6 4.8Z" fill="#821517"/>
<path d="M22.4 10.4C22.4 9.95821 22.0418 9.60001 21.6 9.60001H16.8C16.3582 9.60001 16 9.95821 16 10.4C16 10.8418 16.3582 11.2 16.8 11.2H21.6C22.0418 11.2 22.4 10.8418 22.4 10.4Z" fill="#821517"/>
<path d="M14.4001 33.6H20.0001C20.4419 33.6 20.8001 33.2418 20.8001 32.8C20.8001 32.3582 20.4419 32 20.0001 32H14.4001C13.9583 32 13.6001 32.3582 13.6001 32.8C13.6001 33.2418 13.9583 33.6 14.4001 33.6Z" fill="#821517"/>
</svg>
