<svg width="46" height="45" viewBox="0 0 46 45" fill="none" xmlns="http://www.w3.org/2000/svg">
<path fill-rule="evenodd" clip-rule="evenodd" d="M45.9461 3.35933C45.8465 1.57182 44.3932 0.150369 42.566 0.0528113C38.879 -0.144239 31.6642 0.0474501 24.7653 3.53819C21.2483 5.31779 17.5288 8.33498 14.5605 11.8161C14.5392 11.8411 14.5182 11.8662 14.4973 11.8912L14.4972 11.8913L14.452 11.9452L7.71553 12.4542C6.60668 12.5381 5.61903 13.1066 5.00575 14.014L0.409889 20.8143C-0.0552315 21.5024 -0.129173 22.3637 0.211964 23.118C0.55319 23.8725 1.25433 24.3982 2.08763 24.5245L7.76315 25.3845L7.75967 25.4032C7.74079 25.5049 7.72192 25.6065 7.70457 25.7082C7.51563 26.8138 7.8901 27.9506 8.70642 28.7491L16.6119 36.4828C17.2887 37.1449 18.2033 37.5099 19.1403 37.5099C19.3333 37.5099 19.5274 37.4943 19.7205 37.4628C19.8245 37.4458 19.9283 37.4274 20.0322 37.4089L20.0514 37.4055L20.9305 42.9577C21.0596 43.7729 21.597 44.4589 22.3681 44.7926C22.6889 44.9314 23.0284 45 23.3664 45C23.841 44.9999 24.3124 44.8647 24.7231 44.599L31.6745 40.103C32.6021 39.503 33.1833 38.5368 33.2688 37.4522L33.7892 30.8622L33.8449 30.8175C33.8704 30.7971 33.8958 30.7768 33.9211 30.7561C37.4798 27.8523 40.5641 24.2137 42.3832 20.7731C45.9517 14.0239 46.1473 6.96591 45.9461 3.35933ZM30.188 37.9035L23.5386 42.2042L22.6819 36.7932C25.4922 35.9849 28.2722 34.6903 30.9207 32.956L30.5817 37.249C30.5606 37.5168 30.4171 37.7554 30.188 37.9035ZM10.6122 26.8847L18.5178 34.6184C18.7195 34.8157 19.0026 34.9067 19.2761 34.8622C20.4077 34.6771 21.7635 34.3607 23.2772 33.8303L11.4153 22.2263C10.9632 23.4592 10.598 24.768 10.363 26.1429C10.3172 26.41 10.4105 26.6873 10.6122 26.8847ZM7.92316 15.0831L12.3115 14.7515C10.5385 17.3424 9.21511 20.062 8.38882 22.8112L2.85768 21.9732L7.25409 15.4682C7.40557 15.2441 7.6495 15.1038 7.92316 15.0831ZM25.9563 32.7225C27.9043 31.7927 30.0177 30.5078 32.1949 28.7312C35.488 26.044 38.329 22.7019 39.9892 19.5617C43.2643 13.3677 43.441 6.84181 43.2549 3.50303C43.2303 3.06103 42.871 2.70956 42.4193 2.68548C39.0063 2.50372 32.3353 2.67625 26.0037 5.88011C22.7936 7.50433 19.3772 10.2835 16.6302 13.5051C15.3143 15.0483 13.7948 17.1198 12.5498 19.6074L25.9563 32.7225Z" fill="#821517"/>
<path fill-rule="evenodd" clip-rule="evenodd" d="M36.9498 18.9521C35.5853 20.3172 33.7923 20.9998 32 21C30.2071 21.0002 28.4151 20.3175 27.0503 18.9521C25.7282 17.6293 25 15.8706 25 14C25 12.1294 25.7281 10.3707 27.0503 9.04797C29.7795 6.31744 34.2204 6.31725 36.9498 9.04797C38.2719 10.3707 39 12.1294 39 14C39 15.8706 38.272 17.6293 36.9498 18.9521ZM31.9999 9.79996C30.9243 9.79996 29.8488 10.2095 29.0301 11.0288C28.2368 11.8224 27.7998 12.8777 27.7998 14C27.7998 15.1224 28.2367 16.1776 29.03 16.9712C30.6676 18.6095 33.3322 18.6096 34.9697 16.9712C35.763 16.1776 36.1998 15.1223 36.1998 13.9999C36.1998 12.8776 35.763 11.8224 34.9697 11.0288C34.151 10.2095 33.0755 9.79996 31.9999 9.79996Z" fill="#821517"/>
<path d="M2.32954 38C2.66983 38 3.01011 37.8702 3.26965 37.6105L7.61056 33.2697C8.12981 32.7505 8.12981 31.9087 7.61056 31.3894C7.09141 30.8702 6.24951 30.8702 5.73027 31.3894L1.38944 35.7303C0.870188 36.2495 0.870188 37.0913 1.38944 37.6105C1.64897 37.8701 1.98926 38 2.32954 38Z" fill="#821517"/>
<path d="M10.6107 35.3539C10.0918 34.882 9.2503 34.882 8.73128 35.3539L0.389263 42.9376C-0.129754 43.4094 -0.129754 44.1743 0.389263 44.6462C0.648772 44.8821 0.988817 45 1.32895 45C1.66909 45 2.00922 44.8821 2.26864 44.6461L10.6107 37.0625C11.1298 36.5906 11.1298 35.8257 10.6107 35.3539Z" fill="#821517"/>
<path d="M12.7304 38.3894L8.38944 42.7303C7.87019 43.2495 7.87019 44.0913 8.38944 44.6105C8.64906 44.8701 8.98934 45 9.32954 45C9.66974 45 10.0101 44.8702 10.2696 44.6105L14.6106 40.2697C15.1298 39.7505 15.1298 38.9087 14.6106 38.3894C14.0914 37.8702 13.2495 37.8702 12.7304 38.3894Z" fill="#821517"/>
</svg>
