<svg width="37" height="37" viewBox="0 0 37 37" fill="none" xmlns="http://www.w3.org/2000/svg">
<g opacity="0.6">
<path fill-rule="evenodd" clip-rule="evenodd" d="M36.9566 2.76212C36.8765 1.29238 35.7076 0.123637 34.2379 0.0434226C31.2722 -0.118596 25.469 0.0390146 19.9199 2.90918C17.091 4.37241 14.0993 6.8532 11.7117 9.71549C11.6945 9.73604 11.6777 9.75666 11.6608 9.77728L11.6244 9.82158L6.20597 10.2401C5.31407 10.3091 4.51965 10.7766 4.02637 11.5226L0.329694 17.1139C-0.0444253 17.6798 -0.1039 18.3879 0.170493 19.0082C0.444957 19.6285 1.00892 20.0608 1.67918 20.1646L6.24427 20.8717L6.24147 20.8871L6.24145 20.8872C6.22627 20.9708 6.2111 21.0543 6.19715 21.1378C6.04518 22.0469 6.34638 22.9816 7.00299 23.6381L13.3618 29.997C13.9062 30.5414 14.6418 30.8415 15.3955 30.8415C15.5507 30.8415 15.7068 30.8287 15.8622 30.8027C15.9456 30.7888 16.0289 30.7737 16.1122 30.7585L16.1129 30.7584L16.1283 30.7556L16.8354 35.3208C16.9392 35.991 17.3715 36.5551 17.9917 36.8295C18.2498 36.9436 18.5228 37 18.7947 37C19.1765 36.9999 19.5556 36.8888 19.886 36.6703L25.4773 32.9736C26.2235 32.4802 26.6909 31.6858 26.7597 30.794L27.1782 25.3756C27.2136 25.3464 27.2491 25.3178 27.2844 25.2884C30.1468 22.9008 32.6276 19.909 34.0908 17.0801C36.9611 11.5308 37.1185 5.72753 36.9566 2.76212ZM24.2817 31.1651L18.9332 34.7012L18.2441 30.2522C20.5046 29.5876 22.7407 28.5231 24.871 27.0971L24.5984 30.6269C24.5814 30.8471 24.4659 31.0433 24.2817 31.1651ZM8.53589 22.1052L14.8948 28.464C15.057 28.6263 15.2847 28.701 15.5047 28.6645C16.4149 28.5123 17.5054 28.2521 18.7229 27.816L9.18187 18.275C8.81823 19.2887 8.52447 20.3648 8.33542 21.4953C8.29864 21.7149 8.37365 21.9429 8.53589 22.1052ZM6.37298 12.4017L9.90272 12.129C8.47663 14.2593 7.41216 16.4954 6.74753 18.7559L2.29857 18.0668L5.83482 12.7183C5.95665 12.5341 6.15286 12.4186 6.37298 12.4017ZM20.8779 26.9052C22.4448 26.1407 24.1447 25.0842 25.8959 23.6235C28.5447 21.414 30.8298 18.666 32.1652 16.0841C34.7995 10.9912 34.9417 5.62549 34.792 2.88027C34.7722 2.51685 34.4832 2.22786 34.1199 2.20806C31.3746 2.05861 26.0088 2.20047 20.916 4.83476C18.334 6.17022 15.586 8.45533 13.3765 11.1042C12.3181 12.373 11.0958 14.0763 10.0944 16.1217L20.8779 26.9052Z" fill="white"/>
<path fill-rule="evenodd" clip-rule="evenodd" d="M29.3384 15.573C28.2482 16.6637 26.8156 17.2092 25.3836 17.2093C23.9511 17.2094 22.5192 16.664 21.4287 15.573C20.3724 14.5161 19.7905 13.1109 19.7905 11.6163C19.7905 10.1217 20.3723 8.71646 21.4287 7.65959C23.6093 5.47788 27.1577 5.47773 29.3384 7.65959C30.3948 8.71646 30.9766 10.1217 30.9766 11.6163C30.9766 13.1109 30.3949 14.5161 29.3384 15.573ZM25.3834 8.26043C24.5241 8.26043 23.6648 8.58768 23.0106 9.24224C22.3768 9.87636 22.0276 10.7195 22.0276 11.6163C22.0276 12.513 22.3767 13.3562 23.0105 13.9903C24.3189 15.2993 26.448 15.2993 27.7564 13.9903C28.3902 13.3562 28.7392 12.513 28.7392 11.6162C28.7392 10.7195 28.3902 9.87636 27.7564 9.24224C27.1022 8.58768 26.2429 8.26043 25.3834 8.26043Z" fill="white"/>
<path d="M1.14402 30.9767C1.43683 30.9767 1.72963 30.8651 1.95295 30.6416L5.68816 26.9065C6.13495 26.4597 6.13495 25.7354 5.68816 25.2886C5.24144 24.8418 4.51702 24.8418 4.07023 25.2886L0.335096 29.0237C-0.111699 29.4705 -0.111699 30.1948 0.335096 30.6416C0.558416 30.865 0.85122 30.9767 1.14402 30.9767Z" fill="white"/>
<path d="M8.30016 28.6998C7.89424 28.2938 7.23596 28.2938 6.82997 28.6998L0.304497 35.2253C-0.101499 35.6313 -0.101499 36.2895 0.304497 36.6955C0.507496 36.8985 0.773494 37 1.03956 37C1.30563 37 1.57169 36.8985 1.77462 36.6954L8.30009 30.17C8.70616 29.764 8.70616 29.1058 8.30016 28.6998Z" fill="white"/>
<path d="M10.0937 31.3118L6.35853 35.047C5.91174 35.4938 5.91174 36.2181 6.35853 36.6649C6.58193 36.8883 6.87473 37 7.16746 37C7.46019 37 7.75307 36.8883 7.97639 36.6649L11.7116 32.9297C12.1584 32.483 12.1584 31.7586 11.7116 31.3118C11.2649 30.865 10.5405 30.865 10.0937 31.3118Z" fill="white"/>
</g>
</svg>
