<svg width="38" height="48" viewBox="0 0 38 48" fill="none" xmlns="http://www.w3.org/2000/svg">
<path fill-rule="evenodd" clip-rule="evenodd" d="M18.7084 0.10491L36.6025 9.63982C36.8928 9.79443 37.0743 10.0972 37.0743 10.4263V22.6342C37.0733 32.9974 30.8572 42.3493 21.3024 46.3621L18.5811 47.5374C18.3549 47.6353 18.0979 47.6348 17.8722 47.5364L15.4572 46.4839C6.07639 42.3821 0.0104397 33.1197 0 22.8813V10.4263C0 10.1007 0.176977 9.80139 0.462329 9.64479L17.8613 0.109881C18.1248 -0.0347831 18.4429 -0.0367715 18.7084 0.10491ZM20.6049 44.7231C29.5015 40.9892 35.2906 32.283 35.2926 22.6342V10.9602L18.2953 1.90302L1.78121 10.9537V22.8813C1.79115 32.4117 7.43802 41.0329 16.1701 44.8509L18.2292 45.7492L20.599 44.7261L20.6049 44.7231Z" fill="#821517"/>
<path d="M11.7228 22.3036C11.4031 21.9293 10.8409 21.8851 10.4665 22.2047C10.0922 22.5239 10.0479 23.0866 10.3676 23.4605L15.0734 28.9711C15.3876 29.339 15.9379 29.3892 16.3127 29.084L27.2724 20.1675C27.6542 19.8573 27.7119 19.296 27.4012 18.9142C27.091 18.5329 26.5297 18.4748 26.1479 18.7855L15.8633 27.1521L11.7228 22.3036Z" fill="#821517"/>
</svg>
