<svg width="20" height="20" viewBox="0 0 20 20" fill="none" xmlns="http://www.w3.org/2000/svg">
<path d="M17.4121 9.64844V9.82422C17.4121 9.88281 17.4154 9.94141 17.4219 10V10.1758C17.4219 10.2344 17.4186 10.293 17.4121 10.3516L19.9414 11.9238L18.3887 15.6641L15.4883 15C15.332 15.1693 15.1693 15.332 15 15.4883L15.6641 18.3887L11.9238 19.9414L10.3516 17.4121H10.1758C10.1172 17.4121 10.0586 17.4154 10 17.4219H9.82422C9.76562 17.4219 9.70703 17.4186 9.64844 17.4121L8.07617 19.9414L4.33594 18.3887L5 15.4883C4.83073 15.332 4.66797 15.1693 4.51172 15L1.61133 15.6641L0.0585938 11.9238L2.58789 10.3516V10.1758C2.58789 10.1172 2.58464 10.0586 2.57812 10V9.82422C2.57812 9.76562 2.58138 9.70703 2.58789 9.64844L0.0585938 8.07617L1.61133 4.33594L4.51172 5C4.66797 4.83073 4.83073 4.66797 5 4.51172L4.33594 1.61133L8.07617 0.0585938L9.64844 2.58789H9.82422C9.88281 2.58789 9.94141 2.58464 10 2.57812H10.1758C10.2344 2.57812 10.293 2.58138 10.3516 2.58789L11.9238 0.0585938L15.6641 1.61133L15 4.51172C15.1693 4.66797 15.332 4.83073 15.4883 5L18.3887 4.33594L19.9414 8.07617L17.4121 9.64844ZM16.2695 10.918C16.2826 10.7617 16.2956 10.6087 16.3086 10.459C16.3216 10.3092 16.3281 10.153 16.3281 9.99023C16.3281 9.84049 16.3216 9.6875 16.3086 9.53125C16.2956 9.375 16.2826 9.22201 16.2695 9.07227L18.5742 7.63672L17.7344 5.60547L15.0879 6.2207C14.8861 5.97331 14.681 5.74544 14.4727 5.53711C14.2643 5.32878 14.0332 5.12044 13.7793 4.91211L14.3945 2.26562L12.3633 1.42578L10.918 3.73047C10.7682 3.71745 10.6152 3.70443 10.459 3.69141C10.3027 3.67839 10.1497 3.67188 10 3.67188C9.84375 3.67188 9.69076 3.67839 9.54102 3.69141C9.39128 3.70443 9.23503 3.71745 9.07227 3.73047L7.63672 1.42578L5.60547 2.26562L6.2207 4.91211C5.97331 5.11393 5.74544 5.31901 5.53711 5.52734C5.32878 5.73568 5.12044 5.9668 4.91211 6.2207L2.26562 5.60547L1.42578 7.63672L3.73047 9.08203C3.71745 9.23828 3.70443 9.39128 3.69141 9.54102C3.67839 9.69076 3.67188 9.84701 3.67188 10.0098C3.67188 10.1595 3.67839 10.3125 3.69141 10.4688C3.70443 10.625 3.71745 10.778 3.73047 10.9277L1.42578 12.3633L2.26562 14.3945L4.91211 13.7793C5.11393 14.0267 5.31901 14.2546 5.52734 14.4629C5.73568 14.6712 5.9668 14.8796 6.2207 15.0879L5.60547 17.7344L7.63672 18.5742L9.08203 16.2695C9.23177 16.2826 9.38477 16.2956 9.54102 16.3086C9.69727 16.3216 9.85026 16.3281 10 16.3281C10.1562 16.3281 10.3092 16.3216 10.459 16.3086C10.6087 16.2956 10.765 16.2826 10.9277 16.2695L12.3633 18.5742L14.3945 17.7344L13.7793 15.0879C14.0267 14.8861 14.2546 14.681 14.4629 14.4727C14.6712 14.2643 14.8796 14.0332 15.0879 13.7793L17.7344 14.3945L18.5742 12.3633L16.2695 10.918ZM10 6.32812C10.5078 6.32812 10.9831 6.42253 11.4258 6.61133C11.8685 6.80013 12.2591 7.0638 12.5977 7.40234C12.9362 7.74089 13.1966 8.12826 13.3789 8.56445C13.5612 9.00065 13.6589 9.47917 13.6719 10C13.6719 10.5078 13.5775 10.9831 13.3887 11.4258C13.1999 11.8685 12.9362 12.2591 12.5977 12.5977C12.2591 12.9362 11.8717 13.1966 11.4355 13.3789C10.9993 13.5612 10.5208 13.6589 10 13.6719C9.49219 13.6719 9.01693 13.5775 8.57422 13.3887C8.13151 13.1999 7.74089 12.9362 7.40234 12.5977C7.0638 12.2591 6.80339 11.8717 6.62109 11.4355C6.4388 10.9993 6.34115 10.5208 6.32812 10C6.32812 9.49219 6.42253 9.01693 6.61133 8.57422C6.80013 8.13151 7.0638 7.74089 7.40234 7.40234C7.74089 7.0638 8.12826 6.80339 8.56445 6.62109C9.00065 6.4388 9.47917 6.34115 10 6.32812ZM10 12.5781C10.3581 12.5781 10.6934 12.513 11.0059 12.3828C11.3184 12.2526 11.5918 12.0671 11.8262 11.8262C12.0605 11.5853 12.2428 11.3118 12.373 11.0059C12.5033 10.6999 12.5716 10.3646 12.5781 10C12.5781 9.64193 12.513 9.30664 12.3828 8.99414C12.2526 8.68164 12.0671 8.4082 11.8262 8.17383C11.5853 7.93945 11.3118 7.75716 11.0059 7.62695C10.6999 7.49674 10.3646 7.42839 10 7.42188C9.64193 7.42188 9.30664 7.48698 8.99414 7.61719C8.68164 7.7474 8.4082 7.93294 8.17383 8.17383C7.93945 8.41471 7.75716 8.68815 7.62695 8.99414C7.49674 9.30013 7.42839 9.63542 7.42188 10C7.42188 10.3581 7.48698 10.6934 7.61719 11.0059C7.7474 11.3184 7.93294 11.5918 8.17383 11.8262C8.41471 12.0605 8.68815 12.2428 8.99414 12.373C9.30013 12.5033 9.63542 12.5716 10 12.5781Z" fill="black"/>
</svg>
