<?xml version="1.0" encoding="UTF-8"?>
<svg width="38px" height="48px" viewBox="0 0 38 48" version="1.1" xmlns="http://www.w3.org/2000/svg" xmlns:xlink="http://www.w3.org/1999/xlink">
    <title>Group 23</title>
    <g id="Page-1" stroke="none" stroke-width="1" fill="none" fill-rule="evenodd">
        <g id="dc_05-copy-2" transform="translate(-746.000000, -2954.000000)" fill="#821517" fill-rule="nonzero">
            <g id="Group-23" transform="translate(746.000000, 2954.000000)">
                <path d="M36.6025187,9.63981925 L18.708407,0.104909836 C18.4429408,-0.0367715289 18.124779,-0.0347831453 17.8613014,0.109881049 L0.462328767,9.64479046 C0.1769774,9.80138572 -2.77111667e-13,10.1006567 -2.77111667e-13,10.4262752 L-2.77111667e-13,22.8813128 C0.0104397137,33.119658 6.07639193,42.3821414 15.4571918,46.483942 L17.8722381,47.5363615 C18.0979342,47.6347927 18.3549492,47.6352898 18.5811423,47.5373557 L21.3024193,46.3621458 C30.8572138,42.3493309 37.0732987,32.9973645 37.074293,22.6342403 L37.074293,10.4262752 C37.074293,10.0971767 36.8928413,9.794426 36.6025187,9.63981925 L36.6025187,9.63981925 Z M35.2925873,22.6342403 C35.2905988,32.282992 29.5015467,40.9891895 20.6049492,44.7231158 L20.5989836,44.7260985 L18.2291759,45.7491873 L16.1700729,44.8508775 C7.43802475,41.0329368 1.7911511,32.4117481 1.78120854,22.8813128 L1.78120854,10.9537277 L18.2952939,1.90302072 L35.2925873,10.9601904 L35.2925873,22.6342403 Z" id="Shape"></path>
                <path d="M11.7227685,22.3036504 C11.4031153,21.9293133 10.8408639,21.8850689 10.4665267,22.2047219 C10.0921896,22.523878 10.0479451,23.0866266 10.3675983,23.4604666 L15.0734092,28.9711272 C15.3875939,29.3390017 15.9379142,29.3892117 16.3127486,29.0839752 L27.2724259,20.1674927 C27.65422,19.857285 27.7118869,19.2960278 27.401182,18.9142337 C27.0909743,18.5329368 26.5297172,18.4747728 26.1479231,18.7854776 L15.8633451,27.1521369 L11.7227685,22.3036504 Z" id="Path"></path>
            </g>
        </g>
    </g>
</svg>