<?xml version="1.0" encoding="UTF-8"?>
<svg width="38px" height="42px" viewBox="0 0 38 42" version="1.1" xmlns="http://www.w3.org/2000/svg" xmlns:xlink="http://www.w3.org/1999/xlink">
    <title>Shape</title>
    <g id="Page-1" stroke="none" stroke-width="1" fill="none" fill-rule="evenodd">
        <g id="dc_05-copy-2" transform="translate(-378.000000, -2505.000000)" fill="#821517" fill-rule="nonzero">
            <path d="M415.217455,2530.29343 C415.092312,2529.83571 414.618312,2529.56743 414.164884,2529.69171 L408.212027,2531.31429 L403.940027,2528.87314 L410.618884,2526.456 C410.958312,2526.33257 411.184598,2526.00943 411.183741,2525.64857 C411.182884,2525.28771 410.954884,2524.96457 410.615455,2524.84286 L403.946027,2522.46 L408.199169,2520.01543 L414.155455,2521.62429 C414.230027,2521.644 414.305455,2521.65429 414.380027,2521.65429 C414.757169,2521.65429 415.103455,2521.40229 415.207169,2521.02 C415.330598,2520.56314 415.059741,2520.09257 414.602884,2519.96914 L410.301741,2518.80771 L414.236884,2516.54571 C414.647455,2516.31 414.789741,2515.78543 414.553169,2515.37571 C414.316598,2514.96514 413.794598,2514.82371 413.383169,2515.05943 L409.448027,2517.32057 L410.609455,2513.02029 C410.732884,2512.56343 410.462027,2512.09286 410.005169,2511.96943 C409.552598,2511.84686 409.077741,2512.11514 408.953455,2512.57371 L407.344598,2518.53 L403.037455,2521.00543 L404.294027,2513.94943 C404.357455,2513.59371 404.191169,2513.23629 403.877455,2513.05629 C403.564598,2512.87714 403.172884,2512.91229 402.895169,2513.14629 L397.481455,2517.744 L397.481455,2512.82057 L401.843455,2508.45857 C402.178598,2508.12343 402.178598,2507.58171 401.843455,2507.24657 C401.508312,2506.91143 400.966598,2506.91143 400.631455,2507.24657 L397.481455,2510.39657 L397.481455,2505.85714 C397.481455,2505.384 397.097455,2505 396.624312,2505 C396.151169,2505 395.767169,2505.384 395.767169,2505.85714 L395.767169,2510.39657 L392.617169,2507.24657 C392.282027,2506.91143 391.740312,2506.91143 391.405169,2507.24657 C391.070027,2507.58171 391.070027,2508.12343 391.405169,2508.45857 L395.767169,2512.82057 L395.767169,2517.77486 L390.300312,2513.17114 C390.023455,2512.93886 389.630884,2512.90371 389.318027,2513.08543 C389.005169,2513.26629 388.839741,2513.62457 388.904884,2513.98029 L390.188027,2521.01314 L385.886884,2518.55486 L384.263455,2512.60286 C384.138312,2512.146 383.666027,2511.87514 383.210884,2512.00114 C382.754027,2512.12543 382.484884,2512.59686 382.609169,2513.05371 L383.780884,2517.35143 L379.839741,2515.09886 C379.429169,2514.86486 378.905455,2515.00714 378.670598,2515.41771 C378.435741,2515.82829 378.578884,2516.352 378.989455,2516.58686 L382.929741,2518.83857 L378.632027,2520.01029 C378.175169,2520.13543 377.906027,2520.606 378.030312,2521.06286 C378.134884,2521.44429 378.479455,2521.69457 378.856598,2521.69457 C378.931169,2521.69457 379.006598,2521.68429 379.082884,2521.66371 L385.034884,2520.04114 L389.306884,2522.48229 L382.630598,2524.89943 C382.291169,2525.02286 382.064027,2525.346 382.064884,2525.70686 C382.065741,2526.06771 382.292884,2526.39086 382.634027,2526.51257 L389.303455,2528.89543 L385.050312,2531.34 L379.094027,2529.73114 C378.634598,2529.60686 378.165741,2529.87771 378.043169,2530.33543 C377.919741,2530.79229 378.189741,2531.26286 378.647455,2531.38714 L382.948598,2532.54857 L379.011741,2534.81143 C378.601169,2535.04714 378.459741,2535.57171 378.695455,2535.98143 C378.854027,2536.25743 379.142884,2536.41171 379.439455,2536.41171 C379.584312,2536.41171 379.730884,2536.37486 379.865455,2536.29771 L383.801455,2534.03571 L382.640027,2538.33686 C382.516598,2538.79371 382.786598,2539.26429 383.244312,2539.38857 C383.318884,2539.40829 383.394312,2539.41771 383.468027,2539.41771 C383.846027,2539.41771 384.192312,2539.16657 384.295169,2538.78429 L385.904027,2532.82886 L390.212027,2530.35343 L388.955455,2537.40943 C388.892027,2537.766 389.059169,2538.12343 389.372027,2538.30343 C389.504884,2538.37971 389.652312,2538.41743 389.798884,2538.41743 C389.997741,2538.41743 390.194884,2538.348 390.353455,2538.21429 L395.767169,2533.61571 L395.767169,2538.53743 L391.405169,2542.90029 C391.070027,2543.23543 391.070027,2543.77714 391.405169,2544.11229 C391.572312,2544.27943 391.791741,2544.36343 392.011169,2544.36343 C392.230598,2544.36343 392.450027,2544.27943 392.617169,2544.11229 L395.767169,2540.96143 L395.767169,2545.50086 C395.767169,2545.97486 396.151169,2546.358 396.624312,2546.358 C397.097455,2546.358 397.481455,2545.97486 397.481455,2545.50086 L397.481455,2540.96143 L400.631455,2544.11143 C400.798598,2544.27857 401.018027,2544.36257 401.237455,2544.36257 C401.456884,2544.36257 401.676312,2544.27857 401.843455,2544.11143 C402.178598,2543.77629 402.178598,2543.23457 401.843455,2542.89943 L397.481455,2538.53657 L397.481455,2533.58229 L402.948312,2538.18514 C403.226027,2538.41743 403.617741,2538.45086 403.930598,2538.27171 C404.242598,2538.09 404.408884,2537.73171 404.342884,2537.376 L403.060598,2530.344 L407.362598,2532.80229 L408.985169,2538.75343 C409.088884,2539.13486 409.434312,2539.38514 409.811455,2539.38514 C409.886884,2539.38514 409.962312,2539.37571 410.037741,2539.35514 C410.494598,2539.23 410.764598,2538.75943 410.639455,2538.30257 L409.467741,2534.00486 L413.408027,2536.25657 C413.541741,2536.33371 413.688312,2536.36971 413.832312,2536.36971 C414.129741,2536.36971 414.419455,2536.21457 414.577169,2535.93771 C414.812027,2535.52714 414.668884,2535.00343 414.258312,2534.76857 L410.317169,2532.51771 L414.615741,2531.346 C415.072598,2531.22086 415.342598,2530.74943 415.217455,2530.29343 Z M407.793741,2525.65543 L401.987455,2527.75714 L398.348027,2525.67686 L401.992598,2523.58286 L407.793741,2525.65543 Z M402.188884,2515.99371 L401.098598,2522.11886 L397.481455,2524.19743 L397.481455,2519.99143 L402.188884,2515.99371 Z M391.019455,2516.01771 L395.767169,2520.01629 L395.767169,2524.20257 L392.133741,2522.12571 L391.019455,2516.01771 Z M385.454884,2525.70171 L391.260312,2523.6 L394.900598,2525.68029 L391.256027,2527.77429 L385.454884,2525.70171 Z M391.059741,2535.36343 L392.150884,2529.23829 L395.767169,2527.15971 L395.767169,2531.36486 L391.059741,2535.36343 Z M402.230027,2535.33943 L397.481455,2531.34171 L397.481455,2527.15543 L401.115741,2529.23229 L402.230027,2535.33943 Z" id="Shape"></path>
        </g>
    </g>
</svg>