<svg width="32" height="19" viewBox="0 0 32 19" fill="none" xmlns="http://www.w3.org/2000/svg">
<path d="M15.4375 16.0312H31" stroke="white" stroke-width="2" stroke-linecap="round"/>
<path d="M15.4375 10H25.5312" stroke="white" stroke-width="2" stroke-linecap="round"/>
<path d="M15.4375 4H23.1562" stroke="white" stroke-width="2" stroke-linecap="round"/>
<path d="M6.61538 18.7143L6.61629 18.7135L11.5961 13.6235C11.9692 13.2421 11.9678 12.6254 11.5929 12.2457C11.218 11.8662 10.6117 11.8678 10.2386 12.2491L6.89516 15.6665L6.89516 0.974121C6.89516 0.436114 6.46641 6.44968e-08 5.9375 7.0804e-08C5.40859 7.71112e-08 4.97984 0.436114 4.97984 0.974121L4.97984 15.6665L1.63645 12.2491C1.26335 11.8678 0.656997 11.8663 0.282127 12.2459C-0.092862 12.6254 -0.0941681 13.2422 0.278873 13.6235L5.25871 18.7135L5.25962 18.7143C5.63396 19.0958 6.24227 19.0946 6.61538 18.7143Z" fill="white"/>
</svg>
