<svg width="32" height="19" viewBox="0 0 32 19" fill="none" xmlns="http://www.w3.org/2000/svg">
<path d="M15.4375 16.0312H31" stroke="white" stroke-width="2" stroke-linecap="round"/>
<path d="M15.4375 10H25.5312" stroke="white" stroke-width="2" stroke-linecap="round"/>
<path d="M15.4375 4H23.1562" stroke="white" stroke-width="2" stroke-linecap="round"/>
<path d="M5.2596 0.285713L5.2587 0.286545L0.278854 5.37652C-0.0942023 5.75795 -0.092814 6.37462 0.282111 6.75426C0.656988 7.13379 1.26333 7.13224 1.63643 6.75094L4.97983 3.33355L4.97983 18.0259C4.97983 18.5639 5.40857 19 5.93749 19C6.4664 19 6.89515 18.5639 6.89515 18.0259L6.89515 3.33355L10.2385 6.75094C10.6116 7.13224 11.218 7.13367 11.5929 6.75414C11.9678 6.37462 11.9692 5.75783 11.5961 5.37652L6.61627 0.286545L6.61537 0.285713C6.24102 -0.0958305 5.63272 -0.094643 5.2596 0.285713Z" fill="white"/>
</svg>
