<svg width="100" height="100" viewBox="0 0 100 100" fill="none" xmlns="http://www.w3.org/2000/svg">
<g opacity="0.5">
<path d="M90.3225 90.3226H93.5483V93.5484H90.3225V90.3226Z" fill="white"/>
<path d="M45.1614 90.3226H87.0969V93.5484H45.1614V90.3226Z" fill="white"/>
<path d="M45.1614 83.871H48.3872V87.0968H45.1614V83.871Z" fill="white"/>
<path d="M51.6128 83.871H93.5483V87.0968H51.6128V83.871Z" fill="white"/>
<path d="M45.1614 77.4194H93.5485V80.6452H45.1614V77.4194Z" fill="white"/>
<path d="M36.5467 16.5274L34.4209 18.9564L45.937 29.0322L34.4209 39.108L36.5467 41.5371L50.837 29.0322L36.5467 16.5274Z" fill="white"/>
<path d="M21.5179 16.5274L7.22754 29.0322L21.5179 41.5371L23.6437 39.108L12.1275 29.0322L23.6437 18.9564L21.5179 16.5274Z" fill="white"/>
<path d="M24.2288 46.4937L30.6846 11.0046L33.8588 11.5821L27.403 47.0711L24.2288 46.4937Z" fill="white"/>
<path fill-rule="evenodd" clip-rule="evenodd" d="M55.0016 16.129H81.3548L100 36.4694V100H38.7097V56.371C35.6774 57.4468 32.429 58.0645 29.0323 58.0645C13.0242 58.0645 0 45.0403 0 29.0323C0 13.0242 13.0242 0 29.0323 0C40.4016 0 50.2387 6.58548 55.0016 16.129ZM94.721 35.4839L82.2581 21.8887V35.4839H94.721ZM3.22581 29.0323C3.22581 14.8032 14.8032 3.22581 29.0323 3.22581C43.2613 3.22581 54.8387 14.8032 54.8387 29.0323C54.8387 43.2613 43.2613 54.8387 29.0323 54.8387C14.8032 54.8387 3.22581 43.2613 3.22581 29.0323ZM41.9355 55.0016V96.7742H96.7742V38.7097H79.0323V19.3548H56.371C57.4468 22.3871 58.0645 25.6355 58.0645 29.0323C58.0645 33.671 56.9435 38.0419 55.0016 41.9355H67.7419V45.1613H53.1548C52.3887 46.3032 51.5258 47.3677 50.6097 48.3871H67.7419V51.6129H47.2403C45.6097 52.9306 43.8274 54.0581 41.9355 55.0016Z" fill="white"/>
<path fill-rule="evenodd" clip-rule="evenodd" d="M93.5485 74.1935H45.1614V54.8387H93.5485V74.1935ZM90.3227 58.0645H48.3872V70.9677H90.3227V58.0645Z" fill="white"/>
<path d="M70.9678 48.3871H87.0968V51.6129H70.9678V48.3871Z" fill="white"/>
<path d="M90.3225 48.3871H93.5483V51.6129H90.3225V48.3871Z" fill="white"/>
<path d="M70.9678 41.9355H93.5484V45.1613H70.9678V41.9355Z" fill="white"/>
</g>
</svg>
