<svg width="167" height="154" viewBox="0 0 167 154" fill="none" xmlns="http://www.w3.org/2000/svg">
<path opacity="0.4" d="M152.388 129.861L105.379 129.954L128.964 89.1041L152.388 129.861Z" fill="white"/>
<path opacity="0.4" d="M140 70C140 108.66 108.66 140 70 140C31.3401 140 0 108.66 0 70C0 31.3401 31.3401 0 70 0C108.66 0 140 31.3401 140 70Z" fill="white"/>
<path d="M144.804 125.781L127.637 96.2768H127.585C131.154 88.2971 133.149 79.4774 133.149 70.1852C133.149 34.9591 104.59 6.34766 69.3118 6.34766C34.0331 6.34766 5.47412 34.9066 5.47412 70.1852C5.47412 105.464 34.0331 134.023 69.3118 134.023C80.7039 134.023 91.4135 131.03 100.706 125.781H144.804Z" fill="#495057"/>
<path d="M41.8027 58.3206C42.0127 41.5213 52.0399 31.5991 68.6293 31.5991C84.2737 31.5991 93.9333 38.8963 93.9333 52.0734C93.9333 69.9752 75.9265 72.0751 75.9265 86.1971H60.7546C60.7546 67.9803 75.2441 67.0353 75.2441 55.3807C75.2441 50.0784 72.0416 47.716 66.7918 47.716C60.9121 47.716 57.6047 51.1284 57.4997 58.4256L41.8027 58.3206ZM77.9214 105.359C77.9214 111.239 73.8265 115.228 68.0517 115.228C62.277 115.228 58.2872 111.239 58.2872 105.359C58.2872 99.5841 62.277 95.5942 68.0517 95.5942C73.8265 95.5942 77.9214 99.5841 77.9214 105.359Z" fill="white"/>
</svg>
