<svg width="16" height="14" viewBox="0 0 16 14" fill="none" xmlns="http://www.w3.org/2000/svg">
<path d="M5.77221 13C4.84949 13 4.10137 12.3284 4.10137 11.5L4.10137 1.70695L6.30128 3.68194L7.08884 2.9749L3.9382 0.146394C3.72064 -0.0487979 3.3682 -0.0487979 3.15064 0.146394L0 2.9749L0.787559 3.68194L2.98747 1.70695L2.98747 11.5C2.98938 12.88 4.23503 13.9983 5.77221 14H8V13H5.77221Z" fill="#862633"/>
<path d="M10.2278 1.00001C11.1506 1.00001 11.8986 1.67152 11.8986 2.50002V12.293L9.69872 10.3181L8.91116 11.0251L12.0618 13.8536C12.2794 14.0488 12.6318 14.0488 12.8494 13.8536L16 11.0251L15.2124 10.3181L13.0125 12.293V2.50002C13.0108 1.12 11.765 0.00158692 10.2278 0L8 0V1.00001H10.2278Z" fill="#862633"/>
</svg>
