<?xml version="1.0" encoding="UTF-8"?>
<svg width="51px" height="70px" viewBox="0 0 51 70" version="1.1" xmlns="http://www.w3.org/2000/svg" xmlns:xlink="http://www.w3.org/1999/xlink">
    <title>Group 6</title>
    <g id="Page-1" stroke="none" stroke-width="1" fill="none" fill-rule="evenodd" opacity="0.5">
        <g id="dc_05-copy-2" transform="translate(-505.000000, -1128.000000)" fill="#FFFFFF" fill-rule="nonzero">
            <g id="Group-14" transform="translate(78.000000, 992.000000)">
                <g id="Group-6" transform="translate(427.000000, 136.000000)">
                    <path d="M25.9259259,42.345679 C35.9488714,42.345679 44.0740741,34.2204763 44.0740741,24.1975309 C44.0740741,14.1745854 35.9488714,6.04938272 25.9259259,6.04938272 C15.9029805,6.04938272 7.77777778,14.1745854 7.77777778,24.1975309 C7.78781389,34.2163163 15.9071405,42.3356429 25.9259259,42.345679 Z M25.9259259,8.11028407 C34.8135863,8.11028407 42.0184586,15.3151564 42.0184586,24.2028167 C42.0184586,33.0904771 34.8135863,40.2953494 25.9259259,40.2953494 C17.0382656,40.2953494 9.83339326,33.0904771 9.83339326,24.2028167 C9.84181152,15.3186457 17.0417548,8.11870233 25.9259259,8.11028407 Z" id="Shape"></path>
                    <path d="M19.4371922,26.4865431 L17.1900946,33.2282591 C17.0527358,33.6408233 17.1925619,34.0950904 17.5381389,34.3589854 C17.8837159,34.6228804 18.3587436,34.6381378 18.7205408,34.3969629 L25.4938272,29.8809613 L32.2671135,34.3969629 C32.6289107,34.6381378 33.1039384,34.6228804 33.4495154,34.3589854 C33.7950924,34.0950904 33.9349185,33.6408233 33.7975598,33.2282591 L31.5504621,26.4865431 L35.9975399,22.0391862 C36.2890605,21.7482462 36.3764307,21.3102398 36.2188507,20.9297054 C36.0612706,20.549171 35.6898291,20.3011833 35.27798,20.3015466 L28.673386,20.3015466 L26.4594451,13.6587253 C26.32078,13.2431936 25.9318602,12.962963 25.4938272,12.962963 C25.0557941,12.962963 24.6668744,13.2431936 24.5282092,13.6587253 L22.3142683,20.3015466 L15.7096743,20.3015466 C15.2978253,20.3011833 14.9263837,20.549171 14.7688037,20.9297054 C14.6112236,21.3102398 14.6985938,21.7482462 14.9901144,22.0391862 L19.4371922,26.4865431 Z M23.0506974,22.3376158 C23.4893461,22.3372836 23.8784544,22.0559828 24.0163154,21.6395349 L25.4938272,17.2003223 L26.9742474,21.6430253 C27.1121084,22.0594733 27.5012167,22.340774 27.9398654,22.3411062 L32.8232164,22.3411062 L29.6686705,25.4952683 C29.3962449,25.7678613 29.3012116,26.17099 29.4231942,26.5365722 L30.9309542,31.060718 L26.0586555,27.8094064 C25.7166465,27.5812928 25.2710079,27.5812928 24.9289988,27.8094064 L20.0596086,31.0560641 L21.5673687,26.5319184 C21.6893513,26.1663361 21.5943179,25.7632074 21.3218923,25.4906144 L18.1673464,22.3364523 L23.0506974,22.3376158 Z" id="Shape"></path>
                    <path d="M50.0163883,61.8125605 L40.503179,42.3994082 C42.0300919,42.0963711 43.1313658,40.7524201 43.1337188,39.1892018 L43.1337188,37.2461201 C43.1327221,36.7559658 43.426944,36.3138732 43.8782666,36.1273761 L45.6675261,35.3819394 C46.4658841,35.049586 47.100046,34.4122533 47.4304468,33.6102041 C47.7608477,32.808155 47.7604105,31.9071186 47.4292315,31.1053933 L46.6946502,29.3148141 C46.5066895,28.8621987 46.609768,28.3403724 46.955535,27.9941073 L48.318585,26.6257068 C49.5884841,25.3464069 49.5884841,23.2763507 48.318585,21.9970508 L48.318585,21.9970508 L46.9490862,20.6221733 C46.6030601,20.2760958 46.4995306,19.7543316 46.6870288,19.3014666 L47.428059,17.5038216 C47.7584716,16.7016993 47.75805,15.8005943 47.426887,14.9987843 C47.0957241,14.1969742 46.4609537,13.5601557 45.6622498,13.2284532 L43.8806116,12.4883157 C43.429376,12.3016138 43.1350574,11.8597241 43.1354776,11.3695717 L43.1354776,9.43355579 C43.1335396,7.62684888 41.6759235,6.16261795 39.8770554,6.16034641 L37.9377138,6.16034641 C37.4497344,6.16118702 37.0096407,5.86573732 36.8238235,5.41255438 L36.0833796,3.61549825 C35.7519269,2.81360776 35.1167335,2.17690623 34.3176686,1.84559474 C33.5186036,1.51428325 32.6211918,1.51552997 31.8230424,1.84906037 L30.0449218,2.5874314 C29.5937296,2.77559586 29.07409,2.67191252 28.7287725,2.32482097 L27.3657225,0.957009245 C26.0924403,-0.319003082 24.0310165,-0.319003082 22.7577343,0.957009245 L21.3876492,2.33247554 C21.043206,2.67985132 20.5238472,2.78361732 20.0732587,2.59508597 L18.2828266,1.84906037 C16.6198858,1.1586432 14.7144765,1.95222354 14.026007,3.62197518 L13.2896669,5.41196556 C13.1040331,5.86537955 12.6638991,6.16108897 12.1757766,6.16034641 L10.2481602,6.16034641 C8.44929207,6.16261795 6.99167601,7.62684888 6.98973795,9.43355579 L6.98973795,11.3766375 C6.99057492,11.8667432 6.69640703,12.3087546 6.24519023,12.4953814 L4.45593069,13.2408182 C2.79455065,13.9340698 2.00716362,15.8486402 2.69715656,17.5173643 L3.43466917,19.3049994 C3.62246395,19.7576314 3.51940427,20.2793621 3.17378435,20.6257062 L1.81073439,21.9941067 C0.540513072,23.2732729 0.540513072,25.3435966 1.81073439,26.6227627 L3.18023318,27.998229 C3.52625922,28.3443065 3.62978874,28.8660707 3.44229053,29.3189358 L2.70126036,31.1165807 C2.37084782,31.918703 2.3712694,32.819808 2.70243235,33.6216181 C3.03359529,34.4234281 3.66836564,35.0602467 4.46706959,35.3919492 L6.2428452,36.1344419 C6.69408084,36.3211437 6.98839936,36.7630335 6.98797918,37.2531859 L6.98797918,39.1880242 C6.99033221,40.7512425 8.09160616,42.0951935 9.61851902,42.3982306 L0.105309746,61.8113828 C-0.0777647861,62.1852976 -0.0186030725,62.6331498 0.255217707,62.9461812 C0.529038487,63.2592125 0.963617868,63.375804 1.35638441,63.2416087 L10.5020099,60.1161913 L13.6138676,69.3016682 C13.7476353,69.6963006 14.1048576,69.971194 14.51905,69.9982336 L14.5852972,69.9982336 C14.9761243,69.998089 15.3329637,69.7750627 15.5057223,69.4229636 L25.0617284,49.9279664 L34.6177345,69.4247301 C34.790493,69.7768292 35.1473324,70 35.5381596,70 L35.6044068,70 C36.018541,69.972805 36.3756872,69.6979702 36.5095892,69.3034347 L39.6214469,60.1179577 L48.7670724,63.2433751 C49.1598389,63.3775705 49.5944183,63.2609789 49.8682391,62.9479476 C50.1420599,62.6349163 50.2012216,62.187064 50.018147,61.8131493 L50.0163883,61.8125605 Z M9.0416411,39.1892018 L9.0416411,37.2543635 C9.04441236,35.9293775 8.24906111,34.7342934 7.02901724,34.2302219 L5.24913782,33.4906732 C4.9532607,33.3679485 4.71810734,33.1321069 4.59549356,32.8351157 C4.47287977,32.5381245 4.47286773,32.2043561 4.5954601,31.9073561 L5.33590401,30.1120664 C5.84227267,28.8894536 5.56295419,27.4807276 4.62887681,26.5462171 L3.25937802,25.1660403 C2.78863552,24.6925063 2.78863552,23.9255408 3.25937802,23.4520068 L4.62125545,22.0836062 C5.55530169,21.1482078 5.83331727,19.7383441 5.32476511,18.5159905 L4.58959752,16.7312995 C4.46675375,16.4343794 4.46650209,16.1005856 4.58889799,15.8034791 C4.71129389,15.5063725 4.94629158,15.2703384 5.24210272,15.1473935 L7.03136227,14.4025455 C8.24986525,13.8973005 9.0439262,12.7029959 9.0416411,11.3789927 L9.0416411,9.43591104 C9.04260886,8.76697303 9.5821249,8.22484279 10.2481602,8.22354585 L12.1751903,8.22354585 C13.4943795,8.22616856 14.6841978,7.42740595 15.1862117,6.20215211 L15.9225518,4.41451698 C16.0445479,4.11713357 16.2792022,3.88062637 16.5748645,3.75705339 C16.8705268,3.63348042 17.2029629,3.63297042 17.4989996,3.75563565 L19.2888454,4.49871718 C20.5053281,5.0075872 21.9073369,4.72852171 22.8386379,3.79214203 L24.2081367,2.41608693 C24.6860049,1.95849507 25.4374519,1.95849507 25.9153201,2.41608693 L27.2771975,3.78389866 C28.2078735,4.72303443 29.6117039,5.00344156 30.829335,4.49341787 L32.6092144,3.75210277 C32.9048368,3.62877923 33.2371605,3.62862609 33.5328955,3.75167713 C33.8286304,3.87472817 34.0634841,4.11087568 34.1856623,4.40804004 L34.927865,6.20450736 C35.4304503,7.42843958 36.6195235,8.22608252 37.9377138,8.22354585 L39.8752966,8.22354585 C40.5413319,8.22484279 41.0808479,8.76697303 41.0818157,9.43591104 L41.0818157,11.3707493 C41.0807113,12.6942351 41.8757804,13.887267 43.0944396,14.3907693 L44.8772503,15.1320844 C45.1731274,15.254809 45.4082807,15.4906507 45.5308945,15.7876419 C45.6535083,16.084633 45.6535203,16.4184014 45.530928,16.7154015 L44.7875528,18.5124577 C44.2812509,19.735267 44.5605482,21.1441186 45.49458,22.0788957 L46.8640788,23.454362 C47.3348213,23.9278961 47.3348213,24.6948615 46.8640788,25.1683956 L45.5022013,26.5362073 C44.5681551,27.4716057 44.2901395,28.8814694 44.7986917,30.103823 L45.5362043,31.8914581 C45.6588859,32.1883939 45.6590567,32.5221229 45.5366791,32.8191851 C45.4143014,33.1162474 45.1794065,33.3522931 44.8836991,33.4753641 L43.0944396,34.220212 C41.8759366,34.7254571 41.0818756,35.9197617 41.0841607,37.2437649 L41.0841607,39.1868465 C41.0831921,39.8556888 40.5435821,40.3976501 39.8776417,40.3986229 L37.9482664,40.3986229 C36.6291257,40.3961607 35.4393882,41.1948691 34.9372451,42.4200167 L34.200905,44.2082406 C34.0790487,44.5057257 33.8443709,44.7423055 33.5486323,44.8657999 C33.2528937,44.9892943 32.9203896,44.9895581 32.6244572,44.8665331 L30.8346113,44.1258068 C29.6181618,43.616604 28.2159629,43.8957073 27.2848189,44.832382 L25.9153201,46.2084371 C25.4374519,46.6660289 24.6860049,46.6660289 24.2081367,46.2084371 L22.8462592,44.8400365 C21.9148403,43.9020682 20.5111888,43.6228602 19.2941218,44.1334614 L17.5142423,44.8747765 C17.218678,44.997971 16.88648,44.9981268 16.5908012,44.8752096 C16.2951224,44.7522923 16.0602103,44.516382 15.9377945,44.219428 L15.1955918,42.4182502 C14.6930608,41.1941931 13.504028,40.3963447 12.185743,40.3986229 L10.2510914,40.3986229 C9.58491986,40.399276 9.04390338,39.8582726 9.0416411,39.1892018 Z M14.7594158,66.2828259 L12.115392,58.4781146 C12.0278773,58.219223 11.8414532,58.0059088 11.5972079,57.8851869 C11.3529626,57.764465 11.0709452,57.7462449 10.8133129,57.8345424 L3.04187629,60.4906761 L11.8773713,42.4618217 L12.185743,42.4618217 C12.6736259,42.4613021 13.1135583,42.7566435 13.2996333,43.2096144 L14.0400772,45.0090258 C14.7308157,46.6771473 16.6365845,47.4677599 18.2980693,46.7754636 L20.078535,46.0353262 C20.5296779,45.846663 21.0496021,45.9504031 21.3946843,46.2979366 L22.7565618,47.6657483 C23.002143,47.9055881 23.2843854,48.1043765 23.5925657,48.254561 L14.7594158,66.2828259 Z M39.3077988,57.8345424 C39.0501665,57.7462449 38.7681491,57.764465 38.5239038,57.8851869 C38.2796586,58.0059088 38.0932345,58.219223 38.0057197,58.4781146 L35.361696,66.2828259 L26.5273735,48.2563274 C26.8355539,48.1061429 27.1177962,47.9073545 27.3633775,47.6675148 L28.7334625,46.2920485 C29.0776939,45.9443208 29.597165,45.8402997 30.0478531,46.0288492 L31.8376989,46.7731084 C33.5009636,47.4638505 35.4068641,46.6699113 36.0951048,44.9996048 L36.8314449,43.2125584 C37.0168951,42.7589134 37.4570695,42.4629442 37.9453352,42.4635877 L38.2431542,42.4635877 L47.0786492,60.4924425 L39.3077988,57.8345424 Z" id="Shape"></path>
                </g>
            </g>
        </g>
    </g>
</svg>