<svg width="15" height="15" viewBox="0 0 15 15" fill="none" xmlns="http://www.w3.org/2000/svg">
<path fill-rule="evenodd" clip-rule="evenodd" d="M12.5001 4.70699C12.1387 4.87307 11.7383 4.98034 11.3183 5.03897C11.7579 4.77542 12.0605 4.39444 12.2266 3.89639C11.8068 4.14051 11.3672 4.30659 10.9179 4.39444C10.5175 3.96481 10.0195 3.74991 9.42378 3.74991C8.85748 3.74991 8.36923 3.95501 7.96883 4.35541C7.56843 4.75582 7.37312 5.23427 7.37312 5.80074C7.37312 5.98624 7.39255 6.14252 7.42195 6.2694C5.74212 6.18155 4.20894 5.38074 3.18361 4.12109C2.99811 4.44326 2.90046 4.79484 2.90046 5.15622C2.90046 5.89839 3.19341 6.46487 3.78911 6.8651C3.48636 6.85547 3.15439 6.77725 2.81243 6.61135V6.63077C2.81243 7.11902 2.97851 7.55863 3.30086 7.93943C3.62304 8.32023 4.02344 8.55455 4.50189 8.64258C4.31639 8.6914 4.15049 8.72063 4.00384 8.72063C3.91599 8.72063 3.78911 8.71083 3.62304 8.6816C3.89656 9.50183 4.64837 10.0975 5.53719 10.1073C4.78522 10.6932 3.93559 10.9864 2.98831 10.9864C2.82223 10.9864 2.65633 10.9766 2.50006 10.957C3.46676 11.5723 4.51169 11.875 5.64447 11.875C7.0996 11.875 8.42768 11.377 9.33593 10.6054C10.7324 9.41398 11.4844 7.6757 11.4844 6.03507C11.4844 5.91799 11.4844 5.82997 11.4746 5.77134C11.8848 5.47839 12.2266 5.12682 12.5001 4.70699ZM15 2.81243V12.1874C15 12.959 14.7266 13.6231 14.17 14.17C13.6231 14.7265 12.959 15 12.1876 15H2.81243C2.04103 15 1.3769 14.7265 0.820403 14.17C0.273351 13.6231 0 12.959 0 12.1874V2.81243C0 2.04103 0.273351 1.3769 0.820403 0.830028C1.3769 0.273351 2.04103 0 2.81243 0H12.1876C12.959 0 13.6231 0.273351 14.17 0.830028C14.7266 1.3769 15 2.04103 15 2.81243V2.81243Z" fill="#CCD9DE"/>
</svg>
