<svg width="49" height="50" viewBox="0 0 49 50" fill="none" xmlns="http://www.w3.org/2000/svg">
<g opacity="0.6">
<path fill-rule="evenodd" clip-rule="evenodd" d="M5.15771 8.18953C5.15771 10.808 7.27451 12.9311 9.88594 12.9311C12.4958 12.9283 14.6114 10.8068 14.6139 8.18953C14.6139 5.57075 12.4971 3.4483 9.88594 3.4483C7.27451 3.4483 5.15771 5.57075 5.15771 8.18953ZM6.73369 8.18953C6.73369 6.44357 8.14489 5.02871 9.88594 5.02871C11.6267 5.02871 13.0379 6.44357 13.0379 8.18953C13.0379 9.93517 11.6267 11.3507 9.88594 11.3507C8.14489 11.3507 6.73369 9.93517 6.73369 8.18953Z" fill="white"/>
<path fill-rule="evenodd" clip-rule="evenodd" d="M29.3999 36.0108V40.9482H20.4169V29.6573L15.5168 28.0113V19.5532H22.8666C25.1207 19.5503 26.9473 17.7097 26.9502 15.4388V13.7931H4.08331C1.82924 13.7953 0.00287267 15.6359 0 17.9075V26.959C0 28.3223 1.09703 29.4277 2.45005 29.4277H4.08331V44.2396H0V50H1.63358V45.8853H13.0667V50H14.7V42.5939H29.3999V50H31.0335V37.6565H47.3667V50H49V36.0108H29.3999ZM4.08331 18.7302V27.782H2.45005C1.99904 27.782 1.63358 27.4134 1.63358 26.959V17.9075C1.63358 16.5435 2.73029 15.4388 4.08331 15.4388H25.3166C25.3166 16.8021 24.2196 17.9075 22.8666 17.9075H13.8835V29.198L18.7833 30.8437V40.9482H16.3335V32.1488L8.16661 29.063V44.2396H5.71688V18.7302H4.08331ZM13.0667 44.2396V40.9482H14.7V33.2893L9.80019 31.4381V44.2396H13.0667Z" fill="white"/>
<path fill-rule="evenodd" clip-rule="evenodd" d="M42.4505 33.6207H35.777V13.0743H30.9473L39.1139 0L47.2806 13.0743H42.4505V33.6207ZM39.1139 3.136L33.9337 11.4307H37.4456V31.977H40.7822V11.4307H44.2942L39.1139 3.136Z" fill="white"/>
</g>
</svg>
