<svg width="28" height="28" viewBox="0 0 28 28" fill="none" xmlns="http://www.w3.org/2000/svg">
<path d="M14 28C21.7584 28 28 21.7584 28 14C28 6.24162 21.7584 0 14 0C6.24162 0 0 6.24162 0 14C0 21.7584 6.24162 28 14 28Z" fill="#2775CA"/>
<path d="M17.8499 16.2167C17.8499 14.1751 16.6249 13.4751 14.1749 13.1835C12.4249 12.9501 12.0749 12.4835 12.0749 11.6667C12.0749 10.8499 12.6583 10.3251 13.8249 10.3251C14.8749 10.3251 15.4583 10.6751 15.7499 11.5501C15.8083 11.7251 15.9833 11.8417 16.1583 11.8417H17.0916C17.3249 11.8417 17.4999 11.6667 17.4999 11.4335V11.3751C17.2666 10.0917 16.2166 9.10008 14.8749 8.98346V7.58346C14.8749 7.35008 14.6999 7.17508 14.4083 7.1167H13.5333C13.2999 7.1167 13.1249 7.2917 13.0666 7.58346V8.92508C11.3166 9.15846 10.2083 10.3251 10.2083 11.7835C10.2083 13.7085 11.3749 14.4667 13.8249 14.7585C15.4583 15.0501 15.9833 15.4001 15.9833 16.3335C15.9833 17.2668 15.1666 17.9085 14.0583 17.9085C12.5416 17.9085 12.0166 17.2667 11.8416 16.3917C11.7833 16.1585 11.6083 16.0417 11.4333 16.0417H10.4416C10.2083 16.0417 10.0333 16.2167 10.0333 16.4501V16.5085C10.2666 17.9667 11.1999 19.0167 13.1249 19.3085V20.7085C13.1249 20.9417 13.2999 21.1167 13.5916 21.1751H14.4666C14.6999 21.1751 14.8749 21.0001 14.9333 20.7085V19.3085C16.6833 19.0167 17.8499 17.7917 17.8499 16.2167Z" fill="white"/>
<path d="M11.025 22.3412C6.47504 20.708 4.14166 15.633 5.83342 11.1412C6.70842 8.69125 8.63342 6.82463 11.025 5.94963C11.2584 5.83301 11.375 5.65801 11.375 5.36625V4.54963C11.375 4.31625 11.2584 4.14125 11.025 4.08301C10.9667 4.08301 10.85 4.08301 10.7917 4.14125C5.25004 5.89125 2.21666 11.783 3.96666 17.3246C5.01666 20.5912 7.52504 23.0996 10.7917 24.1496C11.025 24.2662 11.2584 24.1496 11.3167 23.9162C11.375 23.858 11.375 23.7996 11.375 23.683V22.8662C11.375 22.6912 11.2 22.458 11.025 22.3412ZM17.2084 4.14125C16.975 4.02463 16.7417 4.14125 16.6834 4.37463C16.625 4.43301 16.625 4.49125 16.625 4.60801V5.42463C16.625 5.65801 16.8 5.89125 16.975 6.00801C21.525 7.64125 23.8584 12.7162 22.1667 17.208C21.2917 19.658 19.3667 21.5246 16.975 22.3996C16.7417 22.5162 16.625 22.6912 16.625 22.983V23.7996C16.625 24.033 16.7417 24.208 16.975 24.2662C17.0334 24.2662 17.15 24.2662 17.2084 24.208C22.75 22.458 25.7834 16.5662 24.0334 11.0246C22.9834 7.69963 20.4167 5.19125 17.2084 4.14125Z" fill="white"/>
</svg>
