<?xml version="1.0" encoding="UTF-8"?>
<svg width="715px" height="858px" viewBox="0 0 715 858" version="1.1" xmlns="http://www.w3.org/2000/svg" xmlns:xlink="http://www.w3.org/1999/xlink">
    <!-- Generator: Sketch 58 (84663) - https://sketch.com -->
    <title>ic_01</title>
    <desc>Created with Sketch.</desc>
    <g id="Page-1" stroke="none" stroke-width="1" fill="none" fill-rule="evenodd">
        <g id="ic_01" fill="#495057">
            <path d="M508.3701,63.0502 C550.2201,104.9102 571.4301,155.1302 571.4301,214.2802 C571.4301,273.4302 550.2201,324.2102 508.3701,366.0702 C466.5191,407.9202 416.2901,428.5702 357.1401,428.5702 C297.9901,428.5702 247.2101,407.9202 205.3601,366.0702 C163.5001,324.2102 142.8601,273.4302 142.8601,214.2802 C142.8601,155.1302 163.5001,104.9102 205.3601,63.0502 C247.2101,21.2002 297.9901,0.0002 357.1401,0.0002 C416.2901,0.0002 466.5191,21.2002 508.3701,63.0502 M714.2901,709.2592 C714.2901,750.0002 702.5701,784.5902 679.1301,813.6102 C656.2501,842.6302 628.3491,857.1392 595.4201,857.1392 L118.8601,857.1392 C85.9401,857.1392 58.0401,842.6302 34.6001,813.6102 C11.7201,784.5902 0.0001,750.0002 0.0001,709.2592 C0.0001,646.2002 5.0201,591.5092 22.3201,535.1502 C30.6901,506.6902 41.8501,482.1392 54.6901,462.0502 C81.4701,421.3102 126.1201,392.8502 182.4801,392.8502 C231.0301,440.2902 289.6201,464.2802 357.1401,464.2802 C424.6701,464.2802 483.2601,440.2902 531.8101,392.8502 C588.1701,392.8502 632.8101,421.3102 659.0401,462.0502 C672.4301,482.1392 683.5901,506.6902 691.9601,535.1502 C709.2601,591.5092 714.2901,646.2002 714.2901,709.2592" id="Fill-1"></path>
        </g>
    </g>
</svg>