<svg width="48" height="45" viewBox="0 0 48 45" fill="none" xmlns="http://www.w3.org/2000/svg">
<path fill-rule="evenodd" clip-rule="evenodd" d="M44.382 22.4028H46.9963C47.5465 22.4036 47.9938 22.8539 48 23.4139V34.8894C47.9984 35.4471 47.5546 35.8985 47.006 35.9005H44.4418V43.9889C44.4402 44.5466 43.9961 44.998 43.4478 45H5.96399C2.67137 44.9972 0.00271797 42.2828 0 38.9336V9.51184C0.00271797 6.16231 2.67137 3.44786 5.96399 3.44549H14.1746L15.7945 1.22116C16.312 0.513024 17.1076 0.0698959 17.9731 0.0074947C18.8382 -0.0545117 19.687 0.270528 20.2974 0.897305L22.7924 3.44549H35.8635C37.784 3.44746 39.3402 5.0304 39.3425 6.98419V13.6066H43.388C43.9363 13.6082 44.3805 14.0596 44.382 14.6177V22.4028ZM36.9185 5.91113C36.6385 5.62637 36.2592 5.46682 35.8635 5.46761H24.7804L32.7421 13.6066H37.3545V6.98419C37.3549 6.58175 37.198 6.19549 36.9185 5.91113ZM17.3849 2.43443C17.5577 2.19865 17.8225 2.05133 18.1106 2.03001C18.3987 2.00868 18.6817 2.11532 18.886 2.32306L29.9294 13.6066H9.23408L17.3849 2.43443ZM5.96399 5.46761C3.76787 5.46682 1.98722 7.27764 1.988 9.51184V9.56239C1.98722 11.7962 3.76787 13.607 5.96399 13.6066H6.75918L12.7034 5.46761H5.96399ZM42.4437 42.9779H5.96399C3.76787 42.9783 1.98722 41.1675 1.988 38.9336V14.0817C3.07984 15.0798 4.49629 15.6307 5.96399 15.6287H32.1162C32.2793 15.669 32.4498 15.669 32.6132 15.6287H42.4041V22.4028H36.7779C34.0336 22.4036 31.8091 24.6663 31.8079 27.4581V30.8551C31.8091 33.6465 34.0336 35.9096 36.7779 35.9103H42.4538V42.9779H42.4437ZM36.7678 33.8882H46.0023V24.425H43.6963C43.4959 24.4921 43.2801 24.4921 43.0797 24.425H36.7678C35.1231 24.4297 33.7909 25.7847 33.7858 27.4581V30.8551C33.7909 32.5284 35.1231 33.8835 36.7678 33.8882Z" fill="#821517"/>
<path d="M38 27C37.4484 27.0015 37.0016 27.418 37 27.9329V31.0671C37 31.5824 37.448 32 38 32C38.5523 32 39 31.5824 39 31.0671V27.9329C39.0012 27.6851 38.8961 27.4471 38.7082 27.2722C38.5207 27.0969 38.2656 26.9989 38 27Z" fill="#821517"/>
</svg>
