<svg width="37" height="37" viewBox="0 0 37 37" fill="none" xmlns="http://www.w3.org/2000/svg">
<rect width="37" height="37" rx="12" fill="#F9F4EC"/>
<g clip-path="url(#clip0)">
<path d="M23.3551 28.2109H12.8979C12.6917 28.2109 12.5244 28.3783 12.5244 28.5844V29.3314C12.5244 29.5375 12.6917 29.7048 12.8979 29.7048C13.104 29.7048 13.2713 29.5375 13.2713 29.3314V28.9579H23.3551C23.5613 28.9579 23.7286 28.7906 23.7286 28.5844C23.7286 28.3783 23.5613 28.2109 23.3551 28.2109Z" fill="#862633"/>
<path d="M15.5117 16.6329C15.5117 16.839 15.679 17.0063 15.8852 17.0063H17.3791C17.5852 17.0063 17.7526 16.839 17.7526 16.6329V14.392C17.7526 14.1859 17.5852 14.0186 17.3791 14.0186H15.8852C15.6791 14.0186 15.5118 14.1859 15.5118 14.392V16.6329H15.5117ZM16.2587 14.7655H17.0056V16.2594H16.2587V14.7655Z" fill="#862633"/>
<path d="M12.151 11.7783H7.66936C7.46322 11.7783 7.2959 11.9456 7.2959 12.1518V19.6213C7.2959 19.8274 7.46322 19.9947 7.66936 19.9947C7.8755 19.9947 8.04282 19.8274 8.04282 19.6213V12.5253H12.151C12.3572 12.5253 12.5245 12.358 12.5245 12.1518C12.5245 11.9457 12.3572 11.7783 12.151 11.7783Z" fill="#862633"/>
<path d="M25.2227 25.5967C25.2227 25.8029 25.39 25.9702 25.5961 25.9702H27.09C27.2961 25.9702 27.4635 25.8029 27.4635 25.5967V23.3559C27.4635 23.1497 27.2961 22.9824 27.09 22.9824H25.5961C25.39 22.9824 25.2227 23.1497 25.2227 23.3559V25.5967ZM25.9696 23.7294H26.7166V25.2233H25.9696V23.7294Z" fill="#862633"/>
<path d="M9.16328 20.7412C7.31717 20.7412 7.2959 25.5478 7.2959 25.5964C7.2959 26.4983 7.93865 27.2524 8.78978 27.426V29.3311C8.78978 29.5373 8.9571 29.7046 9.16324 29.7046C9.36938 29.7046 9.5367 29.5373 9.5367 29.3311V27.426C10.3878 27.2524 11.0306 26.4983 11.0306 25.5964C11.0306 25.5478 11.0094 20.7412 9.16328 20.7412ZM9.16328 26.7168C8.54556 26.7168 8.04286 26.2141 8.04286 25.5964C8.04286 23.7357 8.54259 21.4881 9.16328 21.4881C9.78398 21.4881 10.2837 23.7357 10.2837 25.5964C10.2837 26.2141 9.781 26.7168 9.16328 26.7168Z" fill="#862633"/>
<path d="M11.4045 18.5H9.91057C9.70443 18.5 9.53711 18.6673 9.53711 18.8735V19.6204C9.53711 19.8266 9.70443 19.9939 9.91057 19.9939C10.1167 19.9939 10.284 19.8266 10.284 19.6204V19.247H11.031V21.1143C11.031 21.3205 11.1983 21.4878 11.4044 21.4878C11.6106 21.4878 11.7779 21.3205 11.7779 21.1143V18.8735C11.778 18.6673 11.6106 18.5 11.4045 18.5Z" fill="#862633"/>
<path d="M25.5961 17.0063H27.09C27.2961 17.0063 27.4635 16.839 27.4635 16.6329V14.392C27.4635 14.1859 27.2961 14.0186 27.09 14.0186H25.5961C25.39 14.0186 25.2227 14.1859 25.2227 14.392V16.6329C25.2227 16.839 25.39 17.0063 25.5961 17.0063ZM25.9696 14.7655H26.7166V16.2594H25.9696V14.7655Z" fill="#862633"/>
<path d="M11.4045 14.0186H9.91057C9.70443 14.0186 9.53711 14.1859 9.53711 14.392V16.6329C9.53711 16.839 9.70443 17.0063 9.91057 17.0063H11.4044C11.6106 17.0063 11.7779 16.839 11.7779 16.6329V14.392C11.778 14.1859 11.6106 14.0186 11.4045 14.0186ZM11.031 16.2594H10.2841V14.7655H11.031V16.2594H11.031Z" fill="#862633"/>
<path d="M19.2471 16.6329C19.2471 16.839 19.4144 17.0063 19.6205 17.0063H21.1144C21.3206 17.0063 21.4879 16.839 21.4879 16.6329V14.392C21.4879 14.1859 21.3206 14.0186 21.1144 14.0186H19.6205C19.4144 14.0186 19.2471 14.1859 19.2471 14.392V16.6329ZM19.994 14.7655H20.741V16.2594H19.994V14.7655Z" fill="#862633"/>
<path d="M29.3307 11.7783H24.849C24.6429 11.7783 24.4756 11.9456 24.4756 12.1518C24.4756 12.3579 24.6429 12.5252 24.849 12.5252H28.9573V27.5329C28.84 27.4911 28.7156 27.4642 28.5838 27.4642C28.5192 27.4642 28.455 27.4698 28.3919 27.481C28.1342 27.0168 27.6438 26.7173 27.0899 26.7173C26.5361 26.7173 26.0457 27.0168 25.788 27.481C25.7249 27.4698 25.6607 27.4642 25.5961 27.4642C24.9783 27.4642 24.4756 27.9669 24.4756 28.5847C24.4756 29.2024 24.9783 29.7051 25.5961 29.7051H28.5838C29.2015 29.7051 29.7042 29.2024 29.7042 28.5847V12.1518C29.7042 11.9456 29.5369 11.7783 29.3307 11.7783ZM28.5838 28.9581H25.596C25.3902 28.9581 25.2225 28.7904 25.2225 28.5847C25.2225 28.3789 25.3902 28.2112 25.596 28.2112C25.6677 28.2112 25.7356 28.2317 25.7984 28.2721C25.9007 28.3378 26.0285 28.3498 26.1413 28.3042C26.254 28.2586 26.3373 28.1608 26.3646 28.0424C26.4434 27.7022 26.7418 27.4642 27.0899 27.4642C27.438 27.4642 27.7364 27.7022 27.8152 28.0424C27.8425 28.1608 27.9257 28.2586 28.0385 28.3042C28.151 28.3498 28.279 28.3378 28.3814 28.2721C28.6245 28.1152 28.9573 28.3072 28.9573 28.5847C28.9572 28.7904 28.7896 28.9581 28.5838 28.9581Z" fill="#862633"/>
<path d="M19.6205 12.5249H21.1144C21.3206 12.5249 21.4879 12.3576 21.4879 12.1514V9.91057C21.4879 9.70443 21.3206 9.53711 21.1144 9.53711H19.6205C19.4144 9.53711 19.2471 9.70443 19.2471 9.91057V12.1514C19.2471 12.3576 19.4144 12.5249 19.6205 12.5249ZM19.994 10.284H20.741V11.7779H19.994V10.284Z" fill="#862633"/>
<path d="M19.2471 21.1143C19.2471 21.3204 19.4144 21.4878 19.6205 21.4878H21.1144C21.3206 21.4878 21.4879 21.3204 21.4879 21.1143V18.8735C21.4879 18.6673 21.3206 18.5 21.1144 18.5H19.6205C19.4144 18.5 19.2471 18.6673 19.2471 18.8735V21.1143ZM19.994 19.247H20.741V20.7408H19.994V19.247Z" fill="#862633"/>
<path d="M15.8852 12.5249H17.3791C17.5852 12.5249 17.7525 12.3576 17.7525 12.1514V9.91057C17.7525 9.70443 17.5852 9.53711 17.3791 9.53711H15.8852C15.679 9.53711 15.5117 9.70443 15.5117 9.91057V12.1514C15.5117 12.3576 15.679 12.5249 15.8852 12.5249ZM16.2586 10.284H17.0056V11.7779H16.2586V10.284Z" fill="#862633"/>
<path d="M18.2353 25.3312C18.168 25.4021 18.127 25.4993 18.127 25.5964C18.127 25.6935 18.168 25.7906 18.2353 25.8616C18.3062 25.9288 18.4033 25.9699 18.5005 25.9699C18.5976 25.9699 18.6946 25.9288 18.7656 25.8616C18.8329 25.7906 18.874 25.6935 18.874 25.5964C18.874 25.4993 18.8329 25.4022 18.7656 25.3312C18.6237 25.193 18.3772 25.193 18.2353 25.3312Z" fill="#862633"/>
<path d="M15.5117 21.1143C15.5117 21.3204 15.679 21.4878 15.8852 21.4878H17.3791C17.5852 21.4878 17.7526 21.3204 17.7526 21.1143V18.8735C17.7526 18.6673 17.5852 18.5 17.3791 18.5H15.8852C15.6791 18.5 15.5118 18.6673 15.5118 18.8735V21.1143H15.5117ZM16.2587 19.247H17.0056V20.7408H16.2587V19.247Z" fill="#862633"/>
<path d="M14.7656 23.3559C14.7656 23.562 14.9329 23.7293 15.1391 23.7293H16.2595V27.0906C16.2595 27.2967 16.4268 27.4641 16.633 27.4641C16.8391 27.4641 17.0064 27.2967 17.0064 27.0906V23.7293H19.9942V27.0906C19.9942 27.2967 20.1616 27.4641 20.3677 27.4641C20.5738 27.4641 20.7412 27.2967 20.7412 27.0906V23.7293H21.8616C22.0677 23.7293 22.235 23.562 22.235 23.3559C22.235 23.1497 22.0677 22.9824 21.8616 22.9824H15.1391C14.9329 22.9824 14.7656 23.1497 14.7656 23.3559Z" fill="#862633"/>
<path d="M25.2227 21.1143C25.2227 21.3204 25.39 21.4878 25.5961 21.4878H27.09C27.2961 21.4878 27.4635 21.3204 27.4635 21.1143V18.8735C27.4635 18.6673 27.2961 18.5 27.09 18.5H25.5961C25.39 18.5 25.2227 18.6673 25.2227 18.8735V21.1143ZM25.9696 19.247H26.7166V20.7408H25.9696V19.247Z" fill="#862633"/>
<path d="M23.3552 7.2959H13.6449C13.4388 7.2959 13.2715 7.46322 13.2715 7.66936V27.09C13.2715 27.2961 13.4388 27.4635 13.6449 27.4635C13.8511 27.4635 14.0184 27.2961 14.0184 27.09V8.04282H22.9818V27.09C22.9818 27.2961 23.1491 27.4635 23.3552 27.4635C23.5614 27.4635 23.7287 27.2961 23.7287 27.09V7.66936C23.7287 7.46322 23.5614 7.2959 23.3552 7.2959Z" fill="#862633"/>
</g>
<defs>
<clipPath id="clip0">
<rect width="22.4085" height="22.4085" fill="white" transform="translate(7.2959 7.2959)"/>
</clipPath>
</defs>
</svg>
