<svg width="43" height="43" viewBox="0 0 43 43" fill="none" xmlns="http://www.w3.org/2000/svg">
<g opacity="0.6">
<path fill-rule="evenodd" clip-rule="evenodd" d="M38.1826 7.95867C38.1054 7.86124 38.0247 7.76382 37.9407 7.66639C33.9342 2.88733 28.0446 0.0908246 21.8089 0.00671901L21.7995 0.00641346C21.6987 0.00315883 21.6009 0 21.4999 0C21.3989 0 21.3011 0.00315873 21.2003 0.0064133L21.1908 0.00671901C14.9312 0.0916508 9.02168 2.90965 5.01532 7.72015C4.95891 7.78076 4.90618 7.84471 4.85743 7.91164C4.85492 7.91669 4.8515 7.92125 4.84735 7.92508C-1.61578 15.8216 -1.61578 27.18 4.84735 35.0766C4.8515 35.0804 4.85492 35.085 4.85743 35.09C4.90619 35.157 4.95891 35.2209 5.01532 35.2815L5.01868 35.2849C9.02454 40.0937 14.9328 42.9105 21.1908 42.995C21.3971 43.0017 21.6027 43.0017 21.8089 42.995C28.0446 42.9109 33.9342 40.1143 37.9407 35.3353C38.0247 35.2379 38.1054 35.1404 38.1826 35.043C44.6058 27.1574 44.6058 15.8442 38.1826 7.95867ZM33.4224 20.9129C33.3891 17.7271 32.9292 14.56 32.0551 11.4962C33.9688 10.8922 35.7968 10.0443 37.4939 8.97324C40.1792 12.3857 41.6941 16.5722 41.8141 20.9129H33.4224ZM30.6072 10.7135C28.8032 5.2845 25.679 1.57561 22.0878 1.20606V11.9162C24.9672 11.8798 27.8302 11.4757 30.6072 10.7135ZM20.912 11.9162C18.0325 11.8798 15.1695 11.4757 12.3926 10.7135C14.1965 5.2845 17.3208 1.57561 20.912 1.20606V11.9162ZM20.912 20.9129V13.092C17.9152 13.0546 14.9357 12.6323 12.0465 11.8355C11.2201 14.7917 10.7852 17.8436 10.7532 20.9129H20.912ZM20.912 22.0888V29.9097C17.9152 29.9471 14.9357 30.3694 12.0465 31.1661C11.2201 28.21 10.7852 25.1581 10.7532 22.0888H20.912ZM20.912 41.7956V31.0855C18.0325 31.1218 15.1695 31.526 12.3926 32.2882C14.1965 37.7172 17.3208 41.4261 20.912 41.7956ZM22.0878 31.0855C24.9672 31.1218 27.8302 31.526 30.6072 32.2882C28.8032 37.7172 25.679 41.4261 22.0878 41.7956V31.0855ZM22.0878 22.0888V29.9097C25.0849 29.9451 28.0648 30.3686 30.9532 31.1695C31.7797 28.2122 32.2145 25.1592 32.2466 22.0888H22.0878ZM22.0878 20.9129V13.092C25.0849 13.0566 28.0648 12.6331 30.9532 11.8322C31.7797 14.7895 32.2145 17.8425 32.2466 20.9129H22.0878ZM31.7023 10.3809C33.4701 9.82002 35.1607 9.04016 36.7347 8.05946C33.9519 4.90387 30.2597 2.68804 26.1661 1.71671C28.474 3.49389 30.4123 6.54432 31.7023 10.3809ZM16.8337 1.71671C14.5258 3.49389 12.5874 6.54432 11.2974 10.3809C9.53091 9.81829 7.84066 9.03972 6.26502 8.06281C9.04616 4.9045 12.7389 2.68715 16.8337 1.71671ZM10.9447 11.4996C9.03062 10.8934 7.20263 10.0431 5.50579 8.96988C2.82045 12.3836 1.30564 16.5712 1.18561 20.9129H9.57738C9.61042 17.7281 10.0703 14.5622 10.9447 11.4996ZM9.57738 22.0888C9.61042 25.2735 10.0703 28.4395 10.9447 31.5021V31.5054C9.03021 32.1091 7.20204 32.9583 5.50579 34.0318C2.82045 30.6181 1.30564 26.4305 1.18561 22.0888H9.57738ZM11.2974 32.6208C9.53091 33.1834 7.84066 33.962 6.26502 34.9389C9.04617 38.0972 12.7389 40.3145 16.8337 41.285C14.5258 39.5078 12.5874 36.4574 11.2974 32.6208ZM26.1661 41.285C28.474 39.5078 30.4123 36.4574 31.7023 32.6208C33.4701 33.1816 35.1607 33.9615 36.7347 34.9422C33.9519 38.0978 30.2597 40.3136 26.1661 41.285ZM32.0551 31.5054C33.9688 32.1095 35.7968 32.9574 37.4939 34.0284C40.1792 30.616 41.6941 26.4294 41.8141 22.0888H33.4224C33.3891 25.2746 32.9292 28.4417 32.0551 31.5054Z" fill="white"/>
</g>
</svg>
