<svg width="22" height="15" viewBox="0 0 22 15" fill="none" xmlns="http://www.w3.org/2000/svg">
<path fill-rule="evenodd" clip-rule="evenodd" d="M8.75 10.625L14.375 7.51859L8.75 4.375V10.625ZM10.625 0C11.953 0 13.2335 0.0238932 14.4665 0.0595196C15.7116 0.0953593 16.6127 0.130986 17.1936 0.166825L18.0593 0.214398C18.0712 0.214398 18.1304 0.226345 18.2609 0.238292C18.5097 0.250025 18.5573 0.273918 18.8061 0.321491C19.0789 0.369064 19.233 0.44053 19.482 0.571516C19.731 0.702502 19.9681 0.88106 20.1934 1.11914C20.241 1.16671 20.3002 1.23818 20.3714 1.34527C20.4543 1.44063 20.5609 1.66676 20.7152 2.03583C20.8692 2.40489 20.9761 2.79763 21.0354 3.23816C21.0947 3.75016 21.1421 4.28584 21.1775 4.86909L21.2487 6.21436V8.30949C21.2606 9.46425 21.1894 10.6071 21.0354 11.7618C20.9761 12.2024 20.8811 12.5953 20.7388 12.9524C20.5966 13.2976 20.4662 13.5476 20.3595 13.6786L20.1934 13.8809C19.8615 14.2382 19.4584 14.4404 19.1501 14.5714C18.9604 14.6548 18.6521 14.6905 18.5216 14.7261C18.4149 14.738 18.0712 14.7739 18.0593 14.7739C16.0792 14.9285 13.6011 15 10.625 15C8.98873 14.9881 7.56601 14.9644 6.3566 14.9285C5.1591 14.8929 4.36465 14.8571 3.98517 14.8334L3.40427 14.7858L2.97741 14.738C2.69269 14.7024 2.47937 14.6548 2.32532 14.619C2.04061 14.5358 1.43591 14.2738 1.05664 13.8809L0.866899 13.6667C0.79572 13.5596 0.677159 13.3332 0.522903 12.9644C0.368859 12.5953 0.273883 12.2024 0.214603 11.7618C0.155322 11.2501 0.0960418 10.7144 0.0605586 10.1429C0.0250753 9.55961 0.0131768 9.10714 0.00127819 8.78564V6.69051C-0.0106204 5.53575 0.0605585 4.39293 0.214603 3.23816C0.273883 2.79763 0.368859 2.40489 0.511217 2.05951C0.653362 1.70239 0.783822 1.45258 0.890484 1.32159L1.05664 1.11914C1.38852 0.762021 1.79159 0.547623 2.09989 0.41685C2.28963 0.333438 2.60983 0.285865 2.71649 0.273918C2.82315 0.238292 3.17883 0.214398 3.19073 0.214398C5.17078 0.0714662 7.64887 0 10.625 0V0Z" fill="#CCD9DE"/>
</svg>
