<svg width="52" height="55" viewBox="0 0 52 55" fill="none" xmlns="http://www.w3.org/2000/svg">
<path fill-rule="evenodd" clip-rule="evenodd" d="M3.39103 20.6316H48.6083C49.2323 20.6316 49.7388 21.1381 49.7389 21.7621V53.4142C49.7389 54.0382 49.2324 54.5446 48.6084 54.5446H3.39103C2.76703 54.5446 2.26056 54.0382 2.26056 53.4143V21.7621C2.26056 21.1381 2.76703 20.6316 3.39103 20.6316ZM4.52091 52.2839H47.4774V22.8925H4.52091V52.2839Z" fill="#070708"/>
<path fill-rule="evenodd" clip-rule="evenodd" d="M1.13047 11.5883H50.8696C51.4936 11.5883 52 12.0946 52 12.7187V21.7622C52 22.3862 51.4935 22.8926 50.8695 22.8926H1.13047C0.50647 22.8926 0 22.3862 0 21.7622V12.7187C0 12.0947 0.50647 11.5883 1.13047 11.5883ZM2.26054 20.6318H49.7388V13.8491H2.26054V20.6318Z" fill="#070708"/>
<path d="M26.0005 11.5883C25.3765 11.5883 24.87 12.0947 24.87 12.7187V53.4144C24.87 54.0384 25.3765 54.5448 26.0005 54.5448C26.6245 54.5448 27.1309 54.0384 27.1309 53.4144V12.7187C27.1309 12.0946 26.6245 11.5883 26.0005 11.5883Z" fill="#070708"/>
<path fill-rule="evenodd" clip-rule="evenodd" d="M14.4425 0.369823C19.0614 1.15205 25.9932 7.00088 27.1553 12.4519C27.2322 12.8113 27.1282 13.1866 26.8772 13.4558C26.6602 13.6886 26.3617 13.8175 26.0475 13.8175C25.9977 13.8175 25.9458 13.8129 25.8937 13.8062C24.6232 13.6321 13.4477 11.9884 10.0903 7.69959C10.0887 7.6975 10.0871 7.69528 10.0855 7.69302C10.0802 7.68556 10.0746 7.67767 10.0677 7.67246C9.40755 6.86533 9.04352 5.84794 9.04352 4.80565C9.04352 2.31187 11.0715 0.283875 13.5653 0.283875C13.866 0.283875 14.1576 0.31323 14.4425 0.369823ZM11.7739 6.18466C11.7965 6.20957 11.8191 6.23447 11.8395 6.26383C13.7974 8.85022 20.4421 10.5437 24.3782 11.2694C22.5401 7.26765 17.4238 3.16651 14.0347 2.59221C13.8607 2.56053 13.7137 2.54473 13.5645 2.54473C12.3188 2.54473 11.3036 3.55757 11.3036 4.80557C11.3036 5.31193 11.4664 5.78904 11.7739 6.18466Z" fill="#070708"/>
<path fill-rule="evenodd" clip-rule="evenodd" d="M37.5888 0.36304C37.8421 0.31323 38.1337 0.283875 38.4344 0.283875C40.9282 0.283875 42.9562 2.31187 42.9562 4.80565C42.9562 5.84784 42.5921 6.86523 41.932 7.67246C41.9274 7.67703 41.9233 7.68219 41.9193 7.68734C41.9154 7.69236 41.9115 7.69737 41.9071 7.70182C38.5497 11.9906 27.3742 13.6343 26.1036 13.8084C26.0539 13.8128 26.0019 13.8174 25.9522 13.8174C25.6402 13.8174 25.3395 13.6863 25.1247 13.4557C24.8737 13.1866 24.7698 12.8113 24.8466 12.4519C26.0087 7.00088 32.9405 1.15205 37.5888 0.36304ZM40.2239 6.18913L40.2259 6.18689C40.5334 5.78671 40.6962 5.31193 40.6961 4.80557C40.6961 3.55757 39.6811 2.54473 38.4353 2.54473C38.2861 2.54473 38.1391 2.56053 37.9966 2.58766C34.5804 3.1664 29.4618 7.26532 27.6215 11.2716C31.5599 10.5459 38.2047 8.848 40.1603 6.26605C40.18 6.23747 40.202 6.21328 40.2239 6.18913Z" fill="#070708"/>
</svg>
