<svg width="55" height="55" viewBox="0 0 55 55" fill="none" xmlns="http://www.w3.org/2000/svg">
<path fill-rule="evenodd" clip-rule="evenodd" d="M44.9167 3.66667H50.4167C52.9468 3.66951 54.9972 5.71987 55 8.25V50.4167C54.9972 52.9468 52.9468 54.9972 50.4167 55H4.58333C2.05321 54.9972 0.0028416 52.9468 0 50.4167V8.25C0.0028416 5.71987 2.05321 3.66951 4.58333 3.66667H10.0833V2.75C10.0833 1.23122 11.3146 0 12.8333 0C14.3521 0 15.5833 1.23122 15.5833 2.75V3.66667H24.75V2.75C24.75 1.23122 25.9812 0 27.5 0C29.0188 0 30.25 1.23122 30.25 2.75V3.66667H39.4167V2.75C39.4167 1.23122 40.6479 0 42.1667 0C43.6854 0 44.9167 1.23122 44.9167 2.75V3.66667ZM42.1667 1.83333C41.6604 1.83333 41.25 2.24373 41.25 2.74999V8.24999C41.25 8.75626 41.6604 9.16666 42.1667 9.16666C42.6729 9.16666 43.0833 8.75626 43.0833 8.24999V2.74999C43.0833 2.24373 42.6729 1.83333 42.1667 1.83333ZM26.5827 2.74999C26.5827 2.24373 26.9931 1.83333 27.4993 1.83333C28.0056 1.83333 28.416 2.24373 28.416 2.74999V8.24999C28.416 8.75626 28.0056 9.16666 27.4993 9.16666C26.9931 9.16666 26.5827 8.75626 26.5827 8.24999V2.74999ZM12.8334 1.83333C12.3272 1.83333 11.9168 2.24373 11.9168 2.74999V8.24999C11.9168 8.75626 12.3272 9.16666 12.8334 9.16666C13.3397 9.16666 13.7501 8.75626 13.7501 8.24999V2.74999C13.7501 2.24373 13.3397 1.83333 12.8334 1.83333ZM4.58324 5.49998H10.0832V8.24998C10.0832 9.76877 11.3145 11 12.8332 11C14.352 11 15.5832 9.76877 15.5832 8.24998V5.49998H24.7499V8.24998C24.7499 9.76877 25.9811 11 27.4999 11C29.0187 11 30.2499 9.76877 30.2499 8.24998V5.49998H39.4166V8.24998C39.4166 9.76877 40.6478 11 42.1666 11C43.6854 11 44.9166 9.76877 44.9166 8.24998V5.49998H50.4166C51.9346 5.50175 53.1648 6.73193 53.1666 8.24998V14.6666H1.83324V8.24998C1.83501 6.73193 3.06519 5.50175 4.58324 5.49998ZM4.58324 53.1667H50.4166C51.9346 53.1649 53.1648 51.9347 53.1666 50.4167V16.5H1.83324V50.4167C1.83501 51.9347 3.06519 53.1649 4.58324 53.1667Z" fill="#070708"/>
<path fill-rule="evenodd" clip-rule="evenodd" d="M44.9172 22.9166H48.5839C49.0901 22.9166 49.5005 23.327 49.5005 23.8333V27.5C49.5005 28.0062 49.0901 28.4166 48.5839 28.4166H44.9172C44.411 28.4166 44.0005 28.0062 44.0005 27.5V23.8333C44.0005 23.327 44.411 22.9166 44.9172 22.9166ZM45.8334 26.5833H47.6667V24.75H45.8334V26.5833Z" fill="#070708"/>
<path fill-rule="evenodd" clip-rule="evenodd" d="M26.5834 41.25H30.2501C30.7563 41.25 31.1667 41.6604 31.1667 42.1667V45.8333C31.1667 46.3396 30.7563 46.75 30.2501 46.75H26.5834C26.0772 46.75 25.6667 46.3396 25.6667 45.8333V42.1667C25.6667 41.6604 26.0772 41.25 26.5834 41.25ZM27.4998 44.9167H29.3331V43.0833H27.4998V44.9167Z" fill="#070708"/>
<path fill-rule="evenodd" clip-rule="evenodd" d="M17.4172 22.9166H21.0839C21.5901 22.9166 22.0005 23.327 22.0005 23.8333V27.5C22.0005 28.0062 21.5901 28.4166 21.0839 28.4166H17.4172C16.911 28.4166 16.5005 28.0062 16.5005 27.5V23.8333C16.5005 23.327 16.911 22.9166 17.4172 22.9166ZM18.3334 26.5833H20.1667V24.75H18.3334V26.5833Z" fill="#070708"/>
<path fill-rule="evenodd" clip-rule="evenodd" d="M8.24961 32.0834H11.9163C12.4225 32.0834 12.8329 32.4938 12.8329 33V36.6667C12.8329 37.173 12.4225 37.5834 11.9163 37.5834H8.24961C7.74335 37.5834 7.33295 37.173 7.33295 36.6667V33C7.33295 32.4938 7.74335 32.0834 8.24961 32.0834ZM9.16613 35.75H10.9995V33.9167H9.16613V35.75Z" fill="#070708"/>
<path fill-rule="evenodd" clip-rule="evenodd" d="M17.4172 32.0834H21.0839C21.5901 32.0834 22.0005 32.4938 22.0005 33V36.6667C22.0005 37.173 21.5901 37.5834 21.0839 37.5834H17.4172C16.911 37.5834 16.5005 37.173 16.5005 36.6667V33C16.5005 32.4938 16.911 32.0834 17.4172 32.0834ZM18.3334 35.75H20.1667V33.9167H18.3334V35.75Z" fill="#070708"/>
<path fill-rule="evenodd" clip-rule="evenodd" d="M8.24961 41.25H11.9163C12.4225 41.25 12.8329 41.6604 12.8329 42.1667V45.8333C12.8329 46.3396 12.4225 46.75 11.9163 46.75H8.24961C7.74335 46.75 7.33295 46.3396 7.33295 45.8333V42.1667C7.33295 41.6604 7.74335 41.25 8.24961 41.25ZM9.16613 44.9167H10.9995V43.0833H9.16613V44.9167Z" fill="#070708"/>
<path fill-rule="evenodd" clip-rule="evenodd" d="M17.4172 41.25H21.0839C21.5901 41.25 22.0005 41.6604 22.0005 42.1667V45.8333C22.0005 46.3396 21.5901 46.75 21.0839 46.75H17.4172C16.911 46.75 16.5005 46.3396 16.5005 45.8333V42.1667C16.5005 41.6604 16.911 41.25 17.4172 41.25ZM18.3334 44.9167H20.1667V43.0833H18.3334V44.9167Z" fill="#070708"/>
<path fill-rule="evenodd" clip-rule="evenodd" d="M35.8889 25.9956L40.4722 26.696L40.4728 26.6954C40.8126 26.7471 41.095 26.9847 41.2041 27.3107C41.3132 27.6367 41.2307 27.9964 40.9904 28.2423L37.6468 31.6691L38.4374 36.519C38.4939 36.8654 38.3476 37.2137 38.0606 37.4159C37.7737 37.618 37.3964 37.6386 37.0892 37.4687L33.0004 35.2087L28.9116 37.4687C28.6046 37.6376 28.2282 37.6167 27.9418 37.4148C27.6554 37.2129 27.5091 36.8655 27.5649 36.5195L28.3556 31.6697L25.0119 28.2428C24.7716 27.997 24.6892 27.6373 24.7983 27.3113C24.9074 26.9853 25.1897 26.7477 25.5296 26.696L30.1129 25.9956L32.1706 21.6104C32.3216 21.2887 32.645 21.0832 33.0004 21.0832C33.3559 21.0832 33.6792 21.2887 33.8302 21.6104L35.8889 25.9956ZM35.7623 31.5075C35.7155 31.2204 35.8077 30.928 36.0109 30.7198L38.4318 28.2382L35.128 27.7341C34.8258 27.6879 34.5666 27.4941 34.4367 27.2174L33.0004 24.1573L31.5642 27.218C31.4343 27.4947 31.1751 27.6884 30.8729 27.7346L27.5691 28.2388L29.9894 30.7198C30.1926 30.928 30.2848 31.2204 30.238 31.5075L29.6766 34.9509L32.5567 33.3582C32.8327 33.2056 33.1676 33.2056 33.4436 33.3582L36.3238 34.9509L35.7623 31.5075Z" fill="#070708"/>
<path fill-rule="evenodd" clip-rule="evenodd" d="M44.9172 32.0834H48.5839C49.0901 32.0834 49.5005 32.4938 49.5005 33V36.6667C49.5005 37.173 49.0901 37.5834 48.5839 37.5834H44.9172C44.411 37.5834 44.0005 37.173 44.0005 36.6667V33C44.0005 32.4938 44.411 32.0834 44.9172 32.0834ZM45.8334 35.75H47.6667V33.9167H45.8334V35.75Z" fill="#070708"/>
<path fill-rule="evenodd" clip-rule="evenodd" d="M44.9172 41.25H48.5839C49.0901 41.25 49.5005 41.6604 49.5005 42.1667V45.8333C49.5005 46.3396 49.0901 46.75 48.5839 46.75H44.9172C44.411 46.75 44.0005 46.3396 44.0005 45.8333V42.1667C44.0005 41.6604 44.411 41.25 44.9172 41.25ZM45.8334 44.9167H47.6667V43.0833H45.8334V44.9167Z" fill="#070708"/>
<path fill-rule="evenodd" clip-rule="evenodd" d="M35.7496 41.25H39.4163C39.9225 41.25 40.3329 41.6604 40.3329 42.1667V45.8333C40.3329 46.3396 39.9225 46.75 39.4163 46.75H35.7496C35.2434 46.75 34.8329 46.3396 34.8329 45.8333V42.1667C34.8329 41.6604 35.2434 41.25 35.7496 41.25ZM36.6661 44.9167H38.4995V43.0833H36.6661V44.9167Z" fill="#070708"/>
</svg>
