<svg width="58" height="58" viewBox="0 0 58 58" fill="none" xmlns="http://www.w3.org/2000/svg">
<path d="M29 0C32.0955 0 34.613 2.5173 34.613 5.61282C34.613 8.29359 32.7231 10.5349 30.2073 11.0888L29.9354 11.1417V15.9511C32.671 16.1457 35.1747 17.1796 37.1911 18.8027L37.5634 19.1139L41.2689 15.4083C40.615 14.4906 40.2258 13.3717 40.2258 12.1612C40.2258 9.0657 42.7433 6.5484 45.8388 6.5484C48.9343 6.5484 51.4516 9.0657 51.4516 12.1612C51.4516 15.2567 48.9343 17.774 45.8388 17.774C44.7493 17.774 43.7341 17.4591 42.8729 16.9194L42.5917 16.7312L38.8861 20.4365C40.5819 22.3911 41.7042 24.8481 42.0027 27.5543L42.0491 28.0644H46.8583C47.3064 25.4142 49.6114 23.3872 52.387 23.3872C55.4825 23.3872 58 25.9045 58 29C58 32.0955 55.4825 34.6128 52.387 34.6128C49.7062 34.6128 47.4651 32.7231 46.9112 30.2073L46.8583 29.9356H42.0491C41.8545 32.6712 40.8204 35.1745 39.1973 37.191L38.8861 37.5635L42.5917 41.2688C43.5094 40.6149 44.6283 40.226 45.8388 40.226C48.9343 40.226 51.4516 42.7433 51.4516 45.8388C51.4516 48.9343 48.9343 51.4516 45.8388 51.4516C42.7433 51.4516 40.2258 48.9343 40.2258 45.8388C40.2258 44.7493 40.5411 43.7341 41.0808 42.8729L41.2689 42.5917L37.5634 38.8861C35.6087 40.5819 33.1521 41.7042 30.4459 42.0027L29.9354 42.0489V46.8583C32.5856 47.3064 34.613 49.6116 34.613 52.3872C34.613 55.4827 32.0955 58 29 58C25.9045 58 23.387 55.4827 23.387 52.3872C23.387 49.7064 25.2769 47.4651 27.7927 46.9112L28.0646 46.8583V42.0489C25.329 41.8543 22.8253 40.8204 20.8089 39.1973L20.4366 38.8861L16.7311 42.5917C17.385 43.5094 17.7742 44.6283 17.7742 45.8388C17.7742 48.9343 15.2567 51.4516 12.1612 51.4516C9.0657 51.4516 6.5484 48.9343 6.5484 45.8388C6.5484 42.7433 9.0657 40.226 12.1612 40.226C13.2507 40.226 14.2659 40.5409 15.1271 41.0806L15.4083 41.2688L19.1139 37.5635C17.4181 35.6089 16.2958 33.1519 15.9973 30.4457L15.9509 29.9356H11.1417C10.6936 32.5858 8.38856 34.6128 5.61298 34.6128C2.51747 34.6128 0 32.0955 0 29C0 25.9045 2.51747 23.3872 5.61298 23.3872C8.29376 23.3872 10.5349 25.2769 11.0888 27.7927L11.1417 28.0644H15.9509C16.1455 25.3288 17.1796 22.8255 18.8027 20.809L19.1139 20.4365L15.4083 16.7312C14.4906 17.3851 13.3717 17.774 12.1612 17.774C9.0657 17.774 6.5484 15.2567 6.5484 12.1612C6.5484 9.0657 9.0657 6.5484 12.1612 6.5484C15.2567 6.5484 17.7742 9.0657 17.7742 12.1612C17.7742 13.2507 17.4589 14.2659 16.9192 15.1271L16.7311 15.4083L20.4366 19.1139C22.3913 17.4181 24.8479 16.2958 27.5541 15.9973L28.0646 15.9511V11.1417C25.4144 10.6936 23.387 8.38839 23.387 5.61282C23.387 2.5173 25.9045 0 29 0ZM29 48.6452C26.9363 48.6452 25.258 50.3235 25.258 52.3872C25.258 54.4509 26.9363 56.1292 29 56.1292C31.0637 56.1292 32.742 54.4509 32.742 52.3872C32.742 50.3235 31.0637 48.6452 29 48.6452ZM12.1612 42.0968C10.0975 42.0968 8.41939 43.7751 8.41939 45.8388C8.41939 47.9025 10.0975 49.5808 12.1612 49.5808C14.2249 49.5808 15.9032 47.9025 15.9032 45.8388C15.9032 43.7751 14.2249 42.0968 12.1612 42.0968ZM45.8388 42.0968C43.7751 42.0968 42.0968 43.7751 42.0968 45.8388C42.0968 47.9025 43.7751 49.5808 45.8388 49.5808C47.9025 49.5808 49.5806 47.9025 49.5806 45.8388C49.5806 43.7751 47.9025 42.0968 45.8388 42.0968ZM29 17.891C22.8647 17.891 17.8912 22.8647 17.8912 29C17.8912 35.1353 22.8647 40.109 29 40.109C35.1353 40.109 40.1088 35.1353 40.1088 29C40.1088 22.8647 35.1353 17.891 29 17.891ZM5.61298 25.258C3.5493 25.258 1.87099 26.9363 1.87099 29C1.87099 31.0637 3.5493 32.742 5.61298 32.742C7.67665 32.742 9.35481 31.0637 9.35481 29C9.35481 26.9363 7.67665 25.258 5.61298 25.258ZM52.387 25.258C50.3233 25.258 48.6452 26.9363 48.6452 29C48.6452 31.0637 50.3233 32.742 52.387 32.742C54.4507 32.742 56.129 31.0637 56.129 29C56.129 26.9363 54.4507 25.258 52.387 25.258ZM45.8388 8.41922C43.7751 8.41922 42.0968 10.0975 42.0968 12.1612C42.0968 14.2249 43.7751 15.9032 45.8388 15.9032C47.9025 15.9032 49.5806 14.2249 49.5806 12.1612C49.5806 10.0975 47.9025 8.41922 45.8388 8.41922ZM12.1612 8.41922C10.0975 8.41922 8.41939 10.0975 8.41939 12.1612C8.41939 14.2249 10.0975 15.9032 12.1612 15.9032C14.2249 15.9032 15.9032 14.2249 15.9032 12.1612C15.9032 10.0975 14.2249 8.41922 12.1612 8.41922ZM29 1.87083C26.9363 1.87083 25.258 3.54913 25.258 5.61282C25.258 7.67648 26.9363 9.35481 29 9.35481C31.0637 9.35481 32.742 7.67648 32.742 5.61282C32.742 3.54913 31.0637 1.87083 29 1.87083Z" fill="#070708"/>
</svg>
