<svg width="48" height="55" viewBox="0 0 48 55" fill="none" xmlns="http://www.w3.org/2000/svg">
<path d="M24.5301 29.6097C24.4297 29.588 24.3267 29.5841 24.2251 29.5993C23.2061 29.4807 22.4374 28.6185 22.4356 27.593C22.4356 27.1016 22.0372 26.7031 21.5457 26.7031C21.0542 26.7031 20.6558 27.1016 20.6558 27.593C20.6584 29.3055 21.8038 30.8056 23.4551 31.2588V32.1487C23.4551 32.6402 23.8535 33.0386 24.345 33.0386C24.8364 33.0386 25.2349 32.6402 25.2349 32.1487V31.3127C27.1408 30.9137 28.4361 29.1387 28.2358 27.2019C28.0351 25.2652 26.4034 23.7934 24.4562 23.793C23.3403 23.793 22.4356 22.8883 22.4356 21.7724C22.4356 20.6565 23.3403 19.7518 24.4562 19.7518C25.5721 19.7518 26.4768 20.6565 26.4768 21.7724C26.4768 22.2639 26.8753 22.6623 27.3668 22.6623C27.8582 22.6623 28.2567 22.2639 28.2567 21.7724C28.2541 19.9743 26.9944 18.4234 25.2349 18.0524V17.2424C25.2349 16.7509 24.8364 16.3524 24.345 16.3524C23.8535 16.3524 23.4551 16.7509 23.4551 17.2424V18.1067C21.6187 18.6081 20.4368 20.391 20.6897 22.2778C20.9426 24.1645 22.5525 25.5729 24.4562 25.5724C25.5573 25.5724 26.4555 26.4541 26.4755 27.5548C26.4959 28.6555 25.6303 29.5697 24.5301 29.6097V29.6097Z" fill="#070708"/>
<path fill-rule="evenodd" clip-rule="evenodd" d="M24.4562 37.656C17.3289 37.656 11.5513 31.8784 11.5513 24.7512C11.5596 17.6274 17.3324 11.8541 24.4562 11.8463C31.5835 11.8463 37.361 17.6239 37.361 24.7512C37.361 31.8784 31.5835 37.656 24.4562 37.656ZM35.581 24.7512C35.581 18.6069 30.6004 13.6262 24.4561 13.6262C18.3148 13.6332 13.338 18.6099 13.3311 24.7512C13.3311 30.8955 18.3117 35.8762 24.4561 35.8762C30.6004 35.8762 35.581 30.8955 35.581 24.7512Z" fill="#070708"/>
<path fill-rule="evenodd" clip-rule="evenodd" d="M41.7475 39.85L34.7763 43.1437C33.8138 41.3534 31.9674 40.2141 29.9355 40.1567L23.5 39.9799C22.4811 39.9508 21.4812 39.6926 20.5752 39.2247L19.9203 38.8853C16.5675 37.1376 12.571 37.1419 9.22163 38.8966L9.26248 37.4131C9.27595 36.9216 8.88878 36.5123 8.39732 36.4988L1.34045 36.3046C0.84899 36.2911 0.440092 36.6783 0.426621 37.1697L0.000341105 52.6557C-0.0131294 53.1472 0.374042 53.5565 0.865502 53.57L7.92237 53.7642H7.9467C8.42904 53.7642 8.8236 53.3805 8.83663 52.8986L8.85705 52.1577L10.6904 51.1761C11.41 50.789 12.2512 50.6968 13.0373 50.9193L23.985 53.9919C24.0041 53.9976 24.0232 54.0019 24.0428 54.0063C24.8341 54.1718 25.6406 54.2548 26.4488 54.2544C28.1609 54.2553 29.853 53.8863 31.409 53.172C31.4473 53.1546 31.4842 53.1341 31.5194 53.1111L47.3926 42.8439C47.788 42.588 47.9158 42.0687 47.6842 41.6585C46.5057 39.5675 43.892 38.771 41.7475 39.85ZM1.80385 51.8153L2.18103 38.1083L7.45847 38.2535L7.08129 51.9609L1.80385 51.8153ZM24.4366 52.2712C26.5145 52.6957 28.6738 52.455 30.607 51.5824L45.6141 41.8745C44.7798 41.1023 43.5536 40.9307 42.5394 41.4438L42.5392 41.4439C42.5323 41.4474 42.5254 41.4508 42.5185 41.4538L35.3682 44.8324C35.4364 45.213 35.4651 45.6002 35.4543 45.9869C35.4412 46.4684 35.0471 46.8521 34.5652 46.8525H34.5404L23.9612 46.5614C23.4702 46.5479 23.0826 46.1386 23.096 45.6471C23.11 45.1561 23.5188 44.7685 24.0103 44.782L33.5966 45.0466C33.2299 43.2754 31.6946 41.9883 29.887 41.9362L23.4511 41.7593C22.1635 41.7219 20.9012 41.396 19.7566 40.8051L19.1018 40.4657C15.9401 38.8184 12.1327 39.0213 9.16395 40.9958L8.91323 50.1094L9.85009 49.6075C10.9742 49.003 12.2896 48.8592 13.5184 49.2064L24.4366 52.2712Z" fill="#070708"/>
<path d="M25.3457 9.34426V0.88993C25.3457 0.398469 24.9472 0 24.4558 0C23.9643 0 23.5658 0.398469 23.5658 0.88993V9.34426C23.5658 9.83572 23.9643 10.2342 24.4558 10.2342C24.9472 10.2342 25.3457 9.83572 25.3457 9.34426Z" fill="#070708"/>
<path d="M32.0198 9.34426V5.33958C32.0198 4.84812 31.6213 4.44965 31.1299 4.44965C30.6384 4.44965 30.24 4.84812 30.24 5.33958V9.34426C30.24 9.83572 30.6384 10.2342 31.1299 10.2342C31.6213 10.2342 32.0198 9.83572 32.0198 9.34426Z" fill="#070708"/>
<path d="M18.6716 9.34426V5.33958C18.6716 4.84812 18.2731 4.44965 17.7817 4.44965C17.2902 4.44965 16.8917 4.84812 16.8917 5.33958V9.34426C16.8917 9.83572 17.2902 10.2342 17.7817 10.2342C18.2731 10.2342 18.6716 9.83572 18.6716 9.34426Z" fill="#070708"/>
</svg>
