<svg width="65" height="65" viewBox="0 0 65 65" fill="none" xmlns="http://www.w3.org/2000/svg">
<path d="M27.4219 46.4648C28.1226 46.4648 28.6914 45.896 28.6914 45.1953C28.6914 44.4946 28.1226 43.9258 27.4219 43.9258C26.7212 43.9258 26.1523 44.4946 26.1523 45.1953C26.1523 45.896 26.7212 46.4648 27.4219 46.4648Z" fill="#070708"/>
<path fill-rule="evenodd" clip-rule="evenodd" d="M15.6063 64.6281L0.371933 49.3937C-0.123978 48.8978 -0.123978 48.0944 0.371933 47.5985L8.75084 39.2196C9.24675 38.7237 10.0501 38.7237 10.546 39.2196L11.0608 39.7343L14.919 36.3587C16.6968 34.802 18.8109 33.6718 21.0846 33.0515C21.0787 32.8695 21.0742 32.686 21.0742 32.5C21.0742 25.6847 25.1754 18.2708 30.986 14.918C30.6582 14.5421 30.3993 14.0992 30.2357 13.6028C29.5806 11.6083 30.6691 9.45156 32.6622 8.79349C32.7044 8.77962 32.7467 8.76663 32.789 8.75364L32.7891 8.75359L32.8526 8.73398L29.5845 2.86339C29.3961 2.52567 29.3723 2.12051 29.5191 1.76296C29.6664 1.40541 29.9679 1.13464 30.3393 1.02654C32.6825 0.34565 35.1184 0 37.5781 0C40.0383 0 42.4738 0.34565 44.8169 1.02703C45.1884 1.13464 45.4899 1.40591 45.6367 1.76346C45.784 2.12051 45.7597 2.52567 45.5717 2.86339L42.3037 8.73398L42.3572 8.75039C42.4018 8.76401 42.4465 8.77762 42.4911 8.7925C44.4872 9.45156 45.5762 11.6088 44.9211 13.6018C44.7574 14.0992 44.5005 14.5436 44.1737 14.919C49.899 18.2227 54.0582 25.5612 54.0815 32.443C54.0815 32.443 57.4929 30.2044 57.5008 30.1995C58.7357 29.4278 60.2368 29.2443 61.6209 29.6971C63.0045 30.1489 64.1084 31.1834 64.6489 32.5352C65.3967 34.4028 64.9083 36.5779 63.4339 37.9471L48.0324 52.3816C46.8497 53.4795 45.3158 54.082 43.7086 54.082H25.4085L25.7804 54.454C26.2763 54.9499 26.2763 55.7533 25.7804 56.2492L17.4015 64.6281C16.9056 65.124 16.1022 65.124 15.6063 64.6281ZM37.5783 2.53906C35.8986 2.53906 34.2324 2.71709 32.6058 3.07018L35.435 8.15178C36.8597 7.95292 38.2959 7.95292 39.7221 8.15178L42.5513 3.07018C40.9242 2.71709 39.2579 2.53906 37.5783 2.53906ZM33.4543 11.2056C36.0593 10.3531 38.8994 10.2887 41.6978 11.2046C42.3638 11.4243 42.7273 12.1444 42.5086 12.8089C42.344 13.3093 41.8977 13.649 41.3804 13.6792C38.8771 12.8833 36.277 12.8818 33.7746 13.6767H33.7741C33.2525 13.644 32.8096 13.3028 32.6469 12.8094C32.4282 12.1439 32.7917 11.4238 33.4543 11.2056ZM40.8457 16.1731C38.6389 15.4149 36.3582 15.4337 34.1568 16.2267C28.3433 18.3234 23.6133 25.6232 23.6133 32.5L23.6134 32.5151L23.6138 32.5405C23.614 32.5538 23.6143 32.567 23.6143 32.5803C24.137 32.5273 24.6621 32.5 25.1863 32.5C28.5377 32.5 31.8603 33.6074 34.5427 35.6178C34.6605 35.694 34.7669 35.779 34.8715 35.8626C35.1571 36.0908 35.4296 36.3086 35.8861 36.3086H36.3086V34.8268C35.4631 34.5431 34.6646 33.9808 33.9862 33.1734C33.535 32.6369 33.6044 31.836 34.141 31.3847C34.6775 30.9334 35.4784 31.0028 35.9297 31.5394C36.4504 32.1588 37.0356 32.5 37.5781 32.5C38.2784 32.5 38.8477 31.9307 38.8477 31.2305C38.8477 30.5302 38.2784 29.9609 37.5781 29.9609C35.4779 29.9609 33.7695 28.2525 33.7695 26.1523C33.7695 24.4975 34.8313 23.0861 36.3086 22.5619V21.0742C36.3086 20.373 36.8769 19.8047 37.5781 19.8047C38.2793 19.8047 38.8477 20.373 38.8477 21.0742V22.553C39.4279 22.7454 40.0726 23.098 40.7167 23.7219C41.2206 24.2094 41.234 25.0132 40.7465 25.5171C40.259 26.0204 39.4551 26.0338 38.9513 25.5463C38.5025 25.1124 38.0279 24.8828 37.5781 24.8828C36.8784 24.8828 36.3086 25.4521 36.3086 26.1523C36.3086 26.8526 36.8784 27.4219 37.5781 27.4219C39.6783 27.4219 41.3867 29.1303 41.3867 31.2305C41.3867 32.8853 40.3255 34.2967 38.8477 34.8208V36.3086H41.3867C42.9538 36.3086 44.3855 37.0143 45.3302 38.1846L51.4324 34.1811C51.5058 33.6545 51.543 33.0911 51.543 32.5C51.543 25.5255 46.744 18.2014 40.8457 16.1731ZM16.5914 38.269C18.9767 36.1802 22.0419 35.0391 25.1865 35.0391C27.9923 35.0391 30.7739 35.966 33.0184 37.6486C33.0783 37.6837 33.1581 37.7468 33.2586 37.8265C33.7013 38.1772 34.5477 38.8477 35.8857 38.8477H41.3869C42.832 38.8477 43.9259 40.0225 43.9259 41.3868C43.9259 42.7867 42.7868 43.9258 41.3869 43.9258H32.5002C31.7989 43.9258 31.2306 44.4942 31.2306 45.1954C31.2306 45.8966 31.7989 46.4649 32.5002 46.4649H41.3869C44.1868 46.4649 46.465 44.1867 46.465 41.3868C46.465 41.0957 46.4392 40.8085 46.3906 40.5259L58.8573 32.3463C59.4504 31.9798 60.17 31.8941 60.8325 32.1103C61.499 32.3285 62.0311 32.8269 62.2915 33.4785C62.658 34.3929 62.4279 35.417 61.7019 36.0909L46.3009 50.5249C45.5937 51.1815 44.6733 51.543 43.7087 51.543H22.8696L12.8606 41.5336L16.5914 38.269ZM23.0883 55.3516L9.6491 41.9124L3.06539 48.4961L16.5046 61.9353L23.0883 55.3516Z" fill="#070708"/>
</svg>
