<svg width="55" height="55" viewBox="0 0 55 55" fill="none" xmlns="http://www.w3.org/2000/svg">
<path fill-rule="evenodd" clip-rule="evenodd" d="M44.3333 3.61905H49.7619C52.2592 3.62185 54.2829 5.64559 54.2857 8.14286V49.7619C54.2829 52.2592 52.2592 54.2829 49.7619 54.2857H4.52381C2.02654 54.2829 0.0028047 52.2592 0 49.7619V8.14286C0.0028047 5.64559 2.02654 3.62185 4.52381 3.61905H9.95238V2.71429C9.95238 1.21523 11.1676 0 12.6667 0C14.1657 0 15.381 1.21523 15.381 2.71429V3.61905H24.4286V2.71429C24.4286 1.21523 25.6438 0 27.1429 0C28.6419 0 29.8571 1.21523 29.8571 2.71429V3.61905H38.9048V2.71429C38.9048 1.21523 40.12 0 41.619 0C43.1181 0 44.3333 1.21523 44.3333 2.71429V3.61905ZM41.619 1.80955C41.1194 1.80955 40.7143 2.21462 40.7143 2.71431V8.14288C40.7143 8.64257 41.1194 9.04764 41.619 9.04764C42.1187 9.04764 42.5238 8.64257 42.5238 8.14288V2.71431C42.5238 2.21462 42.1187 1.80955 41.619 1.80955ZM26.2374 2.71431C26.2374 2.21462 26.6425 1.80955 27.1422 1.80955C27.6419 1.80955 28.047 2.21462 28.047 2.71431V8.14288C28.047 8.64257 27.6419 9.04764 27.1422 9.04764C26.6425 9.04764 26.2374 8.64257 26.2374 8.14288V2.71431ZM12.6668 1.80955C12.1671 1.80955 11.762 2.21462 11.762 2.71431V8.14288C11.762 8.64257 12.1671 9.04764 12.6668 9.04764C13.1664 9.04764 13.5715 8.64257 13.5715 8.14288V2.71431C13.5715 2.21462 13.1664 1.80955 12.6668 1.80955ZM4.52372 5.42858H9.95229V8.14287C9.95229 9.64193 11.1675 10.8572 12.6666 10.8572C14.1656 10.8572 15.3809 9.64193 15.3809 8.14287V5.42858H24.4285V8.14287C24.4285 9.64193 25.6437 10.8572 27.1428 10.8572C28.6418 10.8572 29.857 9.64193 29.857 8.14287V5.42858H38.9047V8.14287C38.9047 9.64193 40.1199 10.8572 41.619 10.8572C43.118 10.8572 44.3332 9.64193 44.3332 8.14287V5.42858H49.7618C51.2601 5.43033 52.4744 6.64453 52.4761 8.14287V14.4762H1.80943V8.14287C1.81118 6.64453 3.02538 5.43033 4.52372 5.42858ZM4.52372 52.4763H49.7618C51.2601 52.4745 52.4744 51.2603 52.4761 49.762V16.2858H1.80943V49.762C1.81118 51.2603 3.02538 52.4745 4.52372 52.4763Z" fill="#070708"/>
<path fill-rule="evenodd" clip-rule="evenodd" d="M35.1905 22.619H38.8095C39.3092 22.619 39.7143 23.0241 39.7143 23.5238V27.1428C39.7143 27.6425 39.3092 28.0476 38.8095 28.0476H35.1905C34.6908 28.0476 34.2857 27.6425 34.2857 27.1428V23.5238C34.2857 23.0241 34.6908 22.619 35.1905 22.619ZM36.0947 26.238H37.9042V24.4285H36.0947V26.238Z" fill="#070708"/>
<path fill-rule="evenodd" clip-rule="evenodd" d="M26.619 22.619H30.2381C30.7378 22.619 31.1429 23.0241 31.1429 23.5238V27.1428C31.1429 27.6425 30.7378 28.0476 30.2381 28.0476H26.619C26.1194 28.0476 25.7143 27.6425 25.7143 27.1428V23.5238C25.7143 23.0241 26.1194 22.619 26.619 22.619ZM27.5241 26.238H29.3337V24.4285H27.5241V26.238Z" fill="#070708"/>
<path fill-rule="evenodd" clip-rule="evenodd" d="M47.6003 23.5314L50.1399 23.9195L50.1403 23.9192C50.3286 23.9479 50.485 24.0795 50.5455 24.2601C50.606 24.4408 50.5602 24.6401 50.4271 24.7763L48.5744 26.6752L49.0124 29.3625C49.0438 29.5545 48.9627 29.7475 48.8037 29.8595C48.6447 29.9715 48.4356 29.9829 48.2654 29.8888L45.9998 28.6365L43.7341 29.8888C43.564 29.9824 43.3554 29.9708 43.1967 29.8589C43.038 29.7471 42.957 29.5545 42.9879 29.3629L43.426 26.6755L41.5732 24.7766C41.4401 24.6404 41.3944 24.4411 41.4548 24.2605C41.5153 24.0798 41.6718 23.9482 41.8601 23.9195L44.3998 23.5314L45.5399 21.1015C45.6236 20.9233 45.8028 20.8094 45.9998 20.8094C46.1967 20.8094 46.3759 20.9233 46.4596 21.1015L47.6003 23.5314ZM47.5295 26.5856C47.5035 26.4265 47.5546 26.2645 47.6672 26.1491L49.0086 24.7741L47.178 24.4947C47.0105 24.4691 46.8669 24.3618 46.7949 24.2084L45.9991 22.5128L45.2032 24.2087C45.1313 24.3621 44.9876 24.4694 44.8202 24.495L42.9895 24.7744L44.3306 26.1491C44.4432 26.2645 44.4943 26.4265 44.4684 26.5856L44.1573 28.4936L45.7532 27.6111C45.9061 27.5266 46.0917 27.5266 46.2446 27.6111L47.8406 28.4936L47.5295 26.5856Z" fill="#070708"/>
<path fill-rule="evenodd" clip-rule="evenodd" d="M26.2382 40.7143H29.8572C30.3569 40.7143 30.762 41.1194 30.762 41.6191V45.2381C30.762 45.7378 30.3569 46.1429 29.8572 46.1429H26.2382C25.7385 46.1429 25.3334 45.7378 25.3334 45.2381V41.6191C25.3334 41.1194 25.7385 40.7143 26.2382 40.7143ZM27.1433 44.3334H28.9528V42.5238H27.1433V44.3334Z" fill="#070708"/>
<path fill-rule="evenodd" clip-rule="evenodd" d="M17.191 22.619H20.8101C21.3098 22.619 21.7148 23.0241 21.7148 23.5238V27.1428C21.7148 27.6425 21.3098 28.0476 20.8101 28.0476H17.191C16.6913 28.0476 16.2863 27.6425 16.2863 27.1428V23.5238C16.2863 23.0241 16.6913 22.619 17.191 22.619ZM18.0958 26.238H19.9054V24.4285H18.0958V26.238Z" fill="#070708"/>
<path fill-rule="evenodd" clip-rule="evenodd" d="M8.14248 31.6667H11.7615C12.2612 31.6667 12.6663 32.0718 12.6663 32.5714V36.1905C12.6663 36.6902 12.2612 37.0953 11.7615 37.0953H8.14248C7.64279 37.0953 7.23772 36.6902 7.23772 36.1905V32.5714C7.23772 32.0718 7.64279 31.6667 8.14248 31.6667ZM9.04757 35.2857H10.8571V33.4762H9.04757V35.2857Z" fill="#070708"/>
<path fill-rule="evenodd" clip-rule="evenodd" d="M17.191 31.6667H20.8101C21.3098 31.6667 21.7148 32.0718 21.7148 32.5714V36.1905C21.7148 36.6902 21.3098 37.0953 20.8101 37.0953H17.191C16.6913 37.0953 16.2863 36.6902 16.2863 36.1905V32.5714C16.2863 32.0718 16.6913 31.6667 17.191 31.6667ZM18.0958 35.2857H19.9054V33.4762H18.0958V35.2857Z" fill="#070708"/>
<path fill-rule="evenodd" clip-rule="evenodd" d="M8.14248 40.7143H11.7615C12.2612 40.7143 12.6663 41.1194 12.6663 41.6191V45.2381C12.6663 45.7378 12.2612 46.1429 11.7615 46.1429H8.14248C7.64279 46.1429 7.23772 45.7378 7.23772 45.2381V41.6191C7.23772 41.1194 7.64279 40.7143 8.14248 40.7143ZM9.04757 44.3334H10.8571V42.5238H9.04757V44.3334Z" fill="#070708"/>
<path fill-rule="evenodd" clip-rule="evenodd" d="M17.191 40.7143H20.8101C21.3098 40.7143 21.7148 41.1194 21.7148 41.6191V45.2381C21.7148 45.7378 21.3098 46.1429 20.8101 46.1429H17.191C16.6913 46.1429 16.2863 45.7378 16.2863 45.2381V41.6191C16.2863 41.1194 16.6913 40.7143 17.191 40.7143ZM18.0958 44.3334H19.9054V42.5238H18.0958V44.3334Z" fill="#070708"/>
<path fill-rule="evenodd" clip-rule="evenodd" d="M44.3339 31.6667H47.9529C48.4526 31.6667 48.8577 32.0718 48.8577 32.5714V36.1905C48.8577 36.6902 48.4526 37.0953 47.9529 37.0953H44.3339C43.8342 37.0953 43.4291 36.6902 43.4291 36.1905V32.5714C43.4291 32.0718 43.8342 31.6667 44.3339 31.6667ZM45.239 35.2857H47.0485V33.4762H45.239V35.2857Z" fill="#070708"/>
<path fill-rule="evenodd" clip-rule="evenodd" d="M35.1905 31.6667H38.8095C39.3092 31.6667 39.7143 32.0718 39.7143 32.5714V36.1905C39.7143 36.6902 39.3092 37.0953 38.8095 37.0953H35.1905C34.6908 37.0953 34.2857 36.6902 34.2857 36.1905V32.5714C34.2857 32.0718 34.6908 31.6667 35.1905 31.6667ZM36.0947 35.2857H37.9042V33.4762H36.0947V35.2857Z" fill="#070708"/>
<path fill-rule="evenodd" clip-rule="evenodd" d="M26.619 31.6667H30.2381C30.7378 31.6667 31.1429 32.0718 31.1429 32.5714V36.1905C31.1429 36.6902 30.7378 37.0953 30.2381 37.0953H26.619C26.1194 37.0953 25.7143 36.6902 25.7143 36.1905V32.5714C25.7143 32.0718 26.1194 31.6667 26.619 31.6667ZM27.5241 35.2857H29.3337V33.4762H27.5241V35.2857Z" fill="#070708"/>
<path fill-rule="evenodd" clip-rule="evenodd" d="M11.886 23.5314L14.4256 23.9195L14.426 23.9192C14.6143 23.9479 14.7707 24.0795 14.8312 24.2601C14.8917 24.4408 14.846 24.6401 14.7128 24.7763L12.8601 26.6752L13.2982 29.3625C13.3295 29.5545 13.2484 29.7475 13.0894 29.8595C12.9304 29.9715 12.7213 29.9829 12.5511 29.8888L10.2855 28.6365L8.01982 29.8888C7.84969 29.9824 7.64112 29.9708 7.48242 29.8589C7.32373 29.7471 7.24268 29.5545 7.2736 29.3629L7.71169 26.6755L5.85894 24.7766C5.7258 24.6404 5.68009 24.4411 5.74055 24.2605C5.80101 24.0798 5.95746 23.9482 6.14579 23.9195L8.68547 23.5314L9.82565 21.1015C9.90933 20.9233 10.0885 20.8094 10.2855 20.8094C10.4824 20.8094 10.6616 20.9233 10.7453 21.1015L11.886 23.5314ZM11.8157 26.5856C11.7898 26.4265 11.8409 26.2645 11.9535 26.1491L13.2949 24.7741L11.4642 24.4947C11.2968 24.4691 11.1532 24.3618 11.0812 24.2084L10.2853 22.5128L9.48951 24.2087C9.41755 24.3621 9.27389 24.4694 9.10646 24.495L7.2758 24.7744L8.61688 26.1491C8.72948 26.2645 8.78061 26.4265 8.75466 26.5856L8.44355 28.4936L10.0395 27.6111C10.1924 27.5266 10.378 27.5266 10.5309 27.6111L12.1268 28.4936L11.8157 26.5856Z" fill="#070708"/>
<path fill-rule="evenodd" clip-rule="evenodd" d="M44.3339 40.7143H47.9529C48.4526 40.7143 48.8577 41.1194 48.8577 41.6191V45.2381C48.8577 45.7378 48.4526 46.1429 47.9529 46.1429H44.3339C43.8342 46.1429 43.4291 45.7378 43.4291 45.2381V41.6191C43.4291 41.1194 43.8342 40.7143 44.3339 40.7143ZM45.239 44.3334H47.0485V42.5238H45.239V44.3334Z" fill="#070708"/>
<path fill-rule="evenodd" clip-rule="evenodd" d="M35.2853 40.7143H38.9044C39.4041 40.7143 39.8092 41.1194 39.8092 41.6191V45.2381C39.8092 45.7378 39.4041 46.1429 38.9044 46.1429H35.2853C34.7857 46.1429 34.3806 45.7378 34.3806 45.2381V41.6191C34.3806 41.1194 34.7857 40.7143 35.2853 40.7143ZM36.1897 44.3334H37.9993V42.5238H36.1897V44.3334Z" fill="#070708"/>
</svg>
