<svg width="60" height="56" viewBox="0 0 60 56" fill="none" xmlns="http://www.w3.org/2000/svg">
<path fill-rule="evenodd" clip-rule="evenodd" d="M47.69 36.4301C49.6043 35.3334 52.045 35.9905 53.15 37.9001C54.2472 39.812 53.595 42.251 51.69 43.3601L34.89 53.0601C33.8274 53.6783 32.6194 54.0027 31.39 54.0001H16.42C15.3335 53.9986 14.2621 53.7453 13.29 53.2601L12 52.6201V53.0001C12 53.5524 11.5523 54.0001 11 54.0001H8V55.0001C8 55.5524 7.55228 56.0001 7 56.0001H1C0.447715 56.0001 0 55.5524 0 55.0001V35.0001C0 34.4478 0.447715 34.0001 1 34.0001H7C7.55228 34.0001 8 34.4478 8 35.0001V36.0001H11C11.5523 36.0001 12 36.4478 12 37.0001V37.7201L17.25 36.4101C18.4033 36.1199 19.6118 36.1302 20.76 36.4401L35.68 40.4301C36.6051 40.6835 37.4076 41.2623 37.94 42.0601L47.69 36.4301ZM2.00056 54.0001H6.00056V36.0001H2.00056V54.0001ZM9.99944 52.0002H7.99944V38.0002H9.99944V52.0002ZM33.8906 51.33L50.6906 41.63C51.6415 41.0737 51.9635 39.853 51.4106 38.9C50.8492 37.9628 49.6457 37.6398 48.6906 38.17L38.6206 43.98C38.6587 44.433 38.6215 44.8892 38.5106 45.33C38.2373 46.3575 37.5638 47.2327 36.6406 47.76C36.0374 48.1146 35.3502 48.301 34.6506 48.3C34.2993 48.2984 33.9497 48.2513 33.6106 48.16L21.6806 44.97C21.1448 44.8264 20.827 44.2757 20.9706 43.74C21.1142 43.2043 21.6648 42.8864 22.2006 43.03L34.1306 46.23C34.6402 46.3708 35.1852 46.2986 35.6406 46.03C36.3467 45.6305 36.7398 44.8426 36.6343 44.0382C36.5288 43.2338 35.9458 42.5739 35.1606 42.37L20.2406 38.37C19.4194 38.1484 18.5551 38.1416 17.7306 38.35L12.0006 39.78V50.38L14.1806 51.47C14.8753 51.82 15.6426 52.0016 16.4206 52H31.3906C32.2684 52.0008 33.1308 51.7697 33.8906 51.33Z" fill="#070708"/>
<path fill-rule="evenodd" clip-rule="evenodd" d="M59 0H53C52.4478 0 52 0.447715 52 1V2H49C48.4478 2 48 2.44772 48 3V3.38L46.71 2.73C45.7353 2.25331 44.6651 2.00373 43.58 2H28.61C27.3825 2.00124 26.1763 2.32173 25.11 2.93L8.31004 12.64C6.39637 13.7446 5.74047 16.1913 6.84504 18.105C7.94961 20.0187 10.3964 20.6746 12.31 19.57L13.9 18.65C13.3033 20.0224 12.9968 21.5034 13 23C12.9919 27.8539 16.1662 32.1394 20.8117 33.5463C25.4572 34.9532 30.4758 33.1488 33.162 29.106C35.8482 25.0631 35.567 19.7375 32.47 16H33.43L34.39 17.6C35.6614 19.7059 37.9401 20.995 40.4 21H41.51C43.3435 21.0069 45.1051 20.2878 46.41 19H48C48 19.5523 48.4478 20 49 20H52V21C52 21.5523 52.4478 22 53 22H59C59.5523 22 60 21.5523 60 21V1C60 0.447715 59.5523 0 59 0ZM33.0001 23C33.0053 26.7743 30.655 30.1508 27.1139 31.4566C23.5727 32.7624 19.593 31.7201 17.1466 28.846C14.7003 25.9719 14.307 21.8768 16.1618 18.5897C18.0165 15.3026 21.7251 13.522 25.4501 14.13C26.0901 15.3008 27.326 16.0207 28.6601 16H29.6301C31.75 17.707 32.9879 20.2783 33.0001 23ZM46.0007 17H48.0007V5.62002L45.8207 4.52002C45.1225 4.18095 44.3569 4.00324 43.5807 4.00002H28.6107C27.7331 4.00048 26.871 4.23153 26.1107 4.67002L9.31073 14.37C8.35974 14.9264 8.0378 16.147 8.59073 17.1C9.15206 18.0372 10.3556 18.3602 11.3107 17.83L16.9207 14.59C18.9017 12.9192 21.4092 12.0019 24.0007 12C24.3507 12 24.6907 12.02 25.0407 12.05C25.2473 10.2996 26.7383 8.98533 28.5007 9.00002H38.0007C38.553 9.00002 39.0007 9.44774 39.0007 10C39.0007 10.5523 38.553 11 38.0007 11H28.5007C27.7078 11.0026 27.0523 11.6187 27.0007 12.41C26.9823 12.7974 27.1275 13.1748 27.4007 13.45C27.7276 13.7982 28.1831 13.9971 28.6607 14H34.0007C34.3543 13.998 34.6821 14.1848 34.8607 14.49L36.1107 16.57C37.0175 18.0744 38.6442 18.9958 40.4007 19H41.5107C42.8382 19.005 44.1127 18.4794 45.0507 17.54L45.2907 17.29C45.4814 17.1058 45.7356 17.002 46.0007 17ZM52 18H50V4.00002H52V18ZM53.9997 20H57.9997V1.99999H53.9997V20Z" fill="#070708"/>
<path d="M23 19.9999H25C25.5523 19.9999 26 20.4476 26 20.9999C26 21.5522 26.4477 21.9999 27 21.9999C27.5523 21.9999 28 21.5522 28 20.9999C28 19.3431 26.6569 17.9999 25 17.9999V16.9999C25 16.4476 24.5523 15.9999 24 15.9999C23.4477 15.9999 23 16.4476 23 16.9999V17.9999C21.3431 17.9999 20 19.3431 20 20.9999C20 22.6568 21.3431 23.9999 23 23.9999H25C25.5523 23.9999 26 24.4476 26 24.9999C26 25.5522 25.5523 25.9999 25 25.9999H23C22.4477 25.9999 22 25.5522 22 24.9999C22 24.4476 21.5523 23.9999 21 23.9999C20.4477 23.9999 20 24.4476 20 24.9999C20 26.6568 21.3431 27.9999 23 27.9999V28.9999C23 29.5522 23.4477 29.9999 24 29.9999C24.5523 29.9999 25 29.5522 25 28.9999V27.9999C26.6569 27.9999 28 26.6568 28 24.9999C28 23.3431 26.6569 21.9999 25 21.9999H23C22.4477 21.9999 22 21.5522 22 20.9999C22 20.4476 22.4477 19.9999 23 19.9999V19.9999Z" fill="#070708"/>
</svg>
