<svg width="53" height="69" viewBox="0 0 53 69" fill="none" xmlns="http://www.w3.org/2000/svg">
<path fill-rule="evenodd" clip-rule="evenodd" d="M26.7263 0.721404L52.2893 14.3427C52.7041 14.5636 52.9633 14.9961 52.9633 15.4662V32.9062C52.9618 47.7106 44.0817 61.0706 30.432 66.8032L26.5445 68.482C26.2214 68.6219 25.8542 68.6212 25.5318 68.4806L22.0817 66.9772C8.68056 61.1174 0.0149139 47.8853 0 33.2591V15.4662C0 15.001 0.252825 14.5735 0.66047 14.3498L25.5161 0.728506C25.8925 0.521843 26.3471 0.519002 26.7263 0.721404ZM29.4357 64.4618C42.1451 59.1276 50.4152 46.6901 50.418 32.9062V16.229L26.1362 3.29018L2.54464 16.2198V33.2592C2.55885 46.8741 10.6258 59.1901 23.1002 64.6443L26.0417 65.9276L29.4272 64.466L29.4357 64.4618Z" fill="#070708"/>
<path d="M16.7472 32.434C16.2905 31.8992 15.4873 31.836 14.9525 32.2926C14.4178 32.7486 14.3546 33.5525 14.8112 34.0866L21.5338 41.9589C21.9826 42.4845 22.7688 42.5562 23.3043 42.1202L38.961 29.3823C39.5064 28.9392 39.5888 28.1374 39.1449 27.5919C38.7017 27.0472 37.8999 26.9641 37.3545 27.408L22.6623 39.3604L16.7472 32.434Z" fill="#070708"/>
</svg>
