<svg width="58" height="52" viewBox="0 0 58 52" fill="none" xmlns="http://www.w3.org/2000/svg">
<path fill-rule="evenodd" clip-rule="evenodd" d="M5.60547 18.2509C5.60547 10.8723 11.587 4.89075 18.9656 4.89075C26.3409 4.89864 32.3178 10.8755 32.3257 18.2509C32.3257 25.6294 26.3442 31.611 18.9656 31.611C11.587 31.611 5.60547 25.6294 5.60547 18.2509ZM7.51367 18.2508C7.51367 24.5753 12.6407 29.7024 18.9652 29.7024C25.2869 29.6955 30.4099 24.5725 30.4167 18.2508C30.4167 11.9263 25.2897 6.79932 18.9652 6.79932C12.6407 6.79932 7.51367 11.9263 7.51367 18.2508Z" fill="#070708"/>
<path d="M17.0572 13.4795H20.8744C21.4014 13.4795 21.8287 13.9067 21.8287 14.4338C21.8287 14.9608 22.2559 15.3881 22.783 15.3881C23.31 15.3881 23.7373 14.9608 23.7373 14.4338C23.7373 12.8526 22.4555 11.5709 20.8744 11.5709H19.9201V9.6623C19.9201 9.13526 19.4928 8.70801 18.9658 8.70801C18.4388 8.70801 18.0115 9.13526 18.0115 9.6623V11.5709H17.0572C15.4761 11.5709 14.1943 12.8526 14.1943 14.4338V16.3424C14.1943 17.9235 15.4761 19.2052 17.0572 19.2052H20.8744C21.4014 19.2052 21.8287 19.6325 21.8287 20.1595V22.0681C21.8287 22.5952 21.4014 23.0224 20.8744 23.0224H17.0572C16.5302 23.0224 16.1029 22.5952 16.1029 22.0681C16.1029 21.5411 15.6757 21.1138 15.1486 21.1138C14.6216 21.1138 14.1943 21.5411 14.1943 22.0681C14.1943 23.6492 15.4761 24.931 17.0572 24.931H18.0115V26.8396C18.0115 27.3666 18.4388 27.7939 18.9658 27.7939C19.4928 27.7939 19.9201 27.3666 19.9201 26.8396V24.931H20.8744C22.4555 24.931 23.7373 23.6492 23.7373 22.0681V20.1595C23.7373 18.5784 22.4555 17.2966 20.8744 17.2966H17.0572C16.5302 17.2966 16.1029 16.8694 16.1029 16.3424V14.4338C16.1029 13.9067 16.5302 13.4795 17.0572 13.4795Z" fill="#070708"/>
<path fill-rule="evenodd" clip-rule="evenodd" d="M36.7954 15.6511C37.8097 15.471 38.838 15.3816 39.8682 15.3839C49.5395 15.3779 57.5109 22.968 57.9785 32.628C58.4461 42.2879 51.245 50.6125 41.6183 51.5405C31.9917 52.4686 23.333 45.673 21.9466 36.1016C14.6453 37.3905 7.29243 34.1188 3.36195 27.8322C-0.568528 21.5456 -0.289865 13.5025 4.06628 7.50303C8.42243 1.50353 15.9841 -1.25147 23.1787 0.539662C30.3732 2.33079 35.7606 8.30952 36.7954 15.6511ZM51.3282 33.4713C51.3038 27.1606 46.1785 22.059 39.8678 22.064C38.7082 22.0643 37.5557 22.2446 36.4514 22.5984C35.3129 27.1795 32.434 31.1367 28.4258 33.63C28.4889 39.9405 33.6455 45.0105 39.9561 44.9667C46.2667 44.923 51.3525 39.7821 51.3282 33.4713ZM18.8744 34.4698C9.91465 34.4698 2.65137 27.2066 2.65137 18.2469C2.65137 9.28715 9.91465 2.02386 18.8744 2.02386C27.8341 2.02386 35.0974 9.28715 35.0974 18.2469C35.0847 27.2013 27.8288 34.4572 18.8744 34.4698ZM23.8174 35.6818C24.9271 43.7073 31.7668 49.6971 39.8686 49.7385C46.0115 49.742 51.6287 46.2733 54.3768 40.7794C57.1248 35.2855 56.5317 28.7103 52.8448 23.7969C49.1579 18.8835 43.0106 16.476 36.9675 17.5788C36.9714 17.6718 36.9784 17.7616 36.9854 17.8508C36.9956 17.9814 37.0057 18.1108 37.0057 18.2468C36.9989 19.003 36.9479 19.7582 36.853 20.5085C42.3007 19.2319 47.9677 21.478 51.0615 26.1401C54.1554 30.8021 54.0234 36.8966 50.7306 41.4203C47.4378 45.9441 41.6789 47.9428 36.2916 46.4315C30.9044 44.9203 27.0252 40.2179 26.5657 34.6416C25.679 35.0614 24.7599 35.4093 23.8174 35.6818Z" fill="#070708"/>
<path d="M41.8685 38.291H38.0514C37.5243 38.291 37.0971 37.8637 37.0971 37.3367C37.0971 36.8096 36.6698 36.3824 36.1428 36.3824C35.6157 36.3824 35.1885 36.8096 35.1885 37.3367C35.1885 38.9178 36.4702 40.1996 38.0514 40.1996H39.0057V42.1081C39.0057 42.6352 39.4329 43.0624 39.9599 43.0624C40.487 43.0624 40.9142 42.6352 40.9142 42.1081V40.1996H41.8685C43.4497 40.1996 44.7314 38.9178 44.7314 37.3367V35.4281C44.7314 33.847 43.4497 32.5652 41.8685 32.5652H38.0514C37.5243 32.5652 37.0971 32.138 37.0971 31.6109V29.7023C37.0971 29.1753 37.5243 28.748 38.0514 28.748H41.8685C42.3956 28.748 42.8228 29.1753 42.8228 29.7023C42.8228 30.2294 43.2501 30.6566 43.7771 30.6566C44.3042 30.6566 44.7314 30.2294 44.7314 29.7023C44.7314 28.1212 43.4497 26.8394 41.8685 26.8394H40.9142V24.9309C40.9142 24.4038 40.487 23.9766 39.9599 23.9766C39.4329 23.9766 39.0057 24.4038 39.0057 24.9309V26.8394H38.0514C36.4702 26.8394 35.1885 28.1212 35.1885 29.7023V31.6109C35.1885 33.192 36.4702 34.4738 38.0514 34.4738H41.8685C42.3956 34.4738 42.8228 34.901 42.8228 35.4281V37.3367C42.8228 37.8637 42.3956 38.291 41.8685 38.291Z" fill="#070708"/>
</svg>
