<svg width="60" height="60" viewBox="0 0 60 60" fill="none" xmlns="http://www.w3.org/2000/svg">
<path d="M26.5 22.0759H32.5C33.3284 22.0759 34 22.7475 34 23.5759C34 24.4044 34.6716 25.0759 35.5 25.0759C36.3284 25.0759 37 24.4044 37 23.5759C37 21.0906 34.9853 19.0759 32.5 19.0759H31V16.0759C31 15.2475 30.3284 14.5759 29.5 14.5759C28.6716 14.5759 28 15.2475 28 16.0759V19.0759H26.5C24.0147 19.0759 22 21.0906 22 23.5759V26.5759C22 29.0612 24.0147 31.0759 26.5 31.0759H32.5C33.3284 31.0759 34 31.7475 34 32.5759V35.5759C34 36.4044 33.3284 37.0759 32.5 37.0759H26.5C25.6716 37.0759 25 36.4044 25 35.5759C25 34.7475 24.3284 34.0759 23.5 34.0759C22.6716 34.0759 22 34.7475 22 35.5759C22 38.0612 24.0147 40.0759 26.5 40.0759H28V43.0759C28 43.9044 28.6716 44.5759 29.5 44.5759C30.3284 44.5759 31 43.9044 31 43.0759V40.0759H32.5C34.9853 40.0759 37 38.0612 37 35.5759V32.5759C37 30.0906 34.9853 28.0759 32.5 28.0759H26.5C25.6716 28.0759 25 27.4044 25 26.5759V23.5759C25 22.7475 25.6716 22.0759 26.5 22.0759Z" fill="#070708"/>
<path fill-rule="evenodd" clip-rule="evenodd" d="M7.97949 29.4999C7.97949 17.7202 17.5288 8.17084 29.3085 8.17084C41.0882 8.17084 50.6376 17.7202 50.6376 29.4999C50.6376 41.2796 41.0882 50.8289 29.3085 50.8289C17.5288 50.8289 7.97949 41.2796 7.97949 29.4999ZM47.711 29.4999C47.711 19.337 39.4723 11.0984 29.3094 11.0984C19.1465 11.0984 10.9079 19.337 10.9079 29.4999C10.9079 39.6628 19.1465 47.9014 29.3094 47.9014C39.4723 47.9014 47.711 39.6628 47.711 29.4999Z" fill="#070708"/>
<path fill-rule="evenodd" clip-rule="evenodd" d="M0 29.885C0 13.4858 13.2942 0.19165 29.6934 0.19165C46.0926 0.19165 59.3868 13.4858 59.3868 29.885C59.3868 46.2842 46.0926 59.5784 29.6934 59.5784C13.2942 59.5784 0 46.2842 0 29.885ZM56.4601 29.885C56.4601 15.1027 44.4766 3.11917 29.6943 3.11917C14.9119 3.11917 2.9284 15.1027 2.9284 29.885C2.9284 44.6674 14.9119 56.6509 29.6943 56.6509C44.4766 56.6509 56.4601 44.6674 56.4601 29.885Z" fill="#070708"/>
</svg>
