<svg width="60" height="59" viewBox="0 0 60 59" fill="none" xmlns="http://www.w3.org/2000/svg">
<path d="M12.3786 17.566C11.854 17.566 11.4264 17.1394 11.4264 16.6138H9.52203C9.52203 18.1888 10.8037 19.4704 12.3786 19.4704C13.9535 19.4704 15.2352 18.1888 15.2352 16.6138H13.3308C13.3308 17.1394 12.9033 17.566 12.3786 17.566Z" fill="#070708"/>
<path d="M45.7052 28.2155V26.1359H43.8008V28.0403H41.8964V30.8969C41.8964 32.4718 43.1781 33.7534 44.753 33.7534C45.2777 33.7534 45.7052 34.18 45.7052 34.7056V35.6578H44.753C44.2283 35.6578 43.8008 35.2312 43.8008 34.7056V33.7534H41.8964V34.7056C41.8964 35.9454 42.6953 36.9928 43.8008 37.387V39.4666H45.7052V37.5622H47.6096V34.7056C47.6096 33.1307 46.3279 31.8491 44.753 31.8491C44.2283 31.8491 43.8008 31.4225 43.8008 30.8969V29.9447H44.753C45.2777 29.9447 45.7052 30.3712 45.7052 30.8969V31.8491H47.6096V30.8969C47.6096 29.6571 46.8107 28.6097 45.7052 28.2155Z" fill="#070708"/>
<path fill-rule="evenodd" clip-rule="evenodd" d="M59.0359 34.9464C59.0359 32.1127 58.0371 29.3533 56.2222 27.1756L49.514 19.1258V15.9502L49.674 15.7103C50.8157 13.9982 51.4184 12.0053 51.4184 9.94854V9.55433L51.1394 9.27534C50.9166 9.05253 48.7846 7.09196 42.8487 7.09196H41.8965V8.04415C41.8965 8.36599 41.906 8.68879 41.925 9.00968C40.3292 9.08014 38.9085 9.98758 38.1886 11.4263L37.9753 11.8529L39.9921 15.8864V19.1248L33.2839 27.1747C31.6471 29.139 30.6825 31.5776 30.5073 34.1161C29.5342 33.6934 28.5267 33.3525 27.4907 33.1125L22.8526 32.0432V23.7553L25.0112 22.1366C25.8692 21.4929 26.4348 20.5312 26.6033 19.4838L27.6593 17.0224C28.2601 15.6169 28.5658 14.1296 28.5658 12.6013C28.5658 6.41305 23.5315 1.37881 17.3432 1.37881H11.4263V3.28319H17.3432C22.4813 3.28319 26.6614 7.46332 26.6614 12.6013C26.6614 13.8697 26.4081 15.1056 25.9082 16.272L25.8501 16.4063C25.1398 15.4398 24.0314 14.7828 22.7584 14.7143C22.5755 13.804 22.129 12.966 21.4577 12.2947C20.5588 11.3959 19.3638 10.9007 18.0926 10.9007H18.0907L13.3231 10.9017C12.2766 10.9017 11.4254 10.0495 11.4254 9.00396C11.4263 7.94989 12.2804 7.09196 13.3297 7.09196V5.18758C11.2302 5.18758 9.52192 6.89962 9.52192 9.00492C9.52192 9.3896 9.5962 9.75429 9.70379 10.1047C9.34006 10.4437 9.00679 10.8112 8.70113 11.2016L8.425 11.0359C6.752 10.0323 5.71315 8.19841 5.71315 6.24832C5.71315 5.64749 5.80933 5.05332 5.99976 4.48295L6.61679 2.63284L4.80952 2.03011L4.1925 3.88117C3.93827 4.64673 3.80877 5.44372 3.80877 6.24832C3.80877 8.86304 5.20183 11.3226 7.44424 12.668L7.67848 12.8089C7.33093 13.5012 7.06527 14.2353 6.89578 14.998L5.77695 20.0313C5.7341 20.2198 5.71315 20.416 5.71315 20.6112C5.71315 21.8176 6.51776 22.8384 7.61754 23.1678V26.4272C7.61754 28.8924 9.62286 30.8968 12.0871 30.8968C12.3328 30.8968 12.5785 30.8768 12.8222 30.8368L15.2351 30.434V32.1013L10.0228 33.7305C4.02777 35.6035 0 41.0824 0 47.363V49.9406C0 54.6663 3.84495 58.5103 8.56973 58.5103H30.4702V51.287L33.341 54.1579C34.9198 55.7366 37.0184 56.606 39.2513 56.606C43.8599 56.606 47.6096 52.8572 47.6096 48.2476V47.0479C53.9703 46.6765 59.0359 41.3985 59.0359 34.9464ZM49.5019 10.4113C49.42 11.9262 48.9363 13.384 48.0898 14.6533L48.0526 14.7095H45.3493C44.4819 12.9355 43.961 10.9883 43.8325 9.01631C47.168 9.1601 48.8725 10.0095 49.5019 10.4113ZM47.6096 18.5182V16.6138H41.8964V18.5182H47.6096ZM42.1219 10.9008H42.1428C42.3656 12.2072 42.7379 13.4888 43.254 14.7095H41.5334L40.127 11.8977C40.5927 11.274 41.323 10.9008 42.1219 10.9008ZM22.7507 36.1128L24.118 34.2904L21.947 33.7895L20.8072 34.1694L22.7507 36.1128ZM24.7573 56.6059H19.0441V53.4484L23.21 54.2416C24.106 54.413 24.7573 55.1995 24.7573 56.1126V56.6059ZM18.8629 39.4664L16.39 51.0041L21.9261 52.0592L19.2276 39.4664H18.8629ZM19.4866 37.5621H18.601L17.7936 36.35L19.0438 35.0998L20.294 36.35L19.4866 37.5621ZM17.9364 28.0526L18.2497 29.9313L17.1404 30.117V32.1156L19.0448 32.7507L20.9492 32.1156V23.7554C20.9492 23.1593 21.2339 22.5889 21.7109 22.2318L23.8686 20.6131C24.4256 20.1961 24.7579 19.5305 24.7579 18.8354C24.7579 17.6109 23.761 16.6139 22.5365 16.6139H20.9492V15.6617C20.9492 14.899 20.6521 14.1811 20.1113 13.6421C19.5723 13.1032 18.8553 12.8061 18.0936 12.8061H18.0926H13.324C12.3252 12.8061 11.4206 12.4109 10.7417 11.7777C9.76568 12.7832 9.06106 14.0344 8.7554 15.4103L7.63658 20.4446C7.6242 20.4998 7.61849 20.555 7.61849 20.6112C7.61849 21.033 7.96128 21.3749 8.38214 21.3749H9.52287V25.1836H11.4273C12.4775 25.1836 13.3316 24.3295 13.3316 23.2793H15.236C15.236 25.3798 13.5278 27.088 11.4273 27.088H9.62C9.91327 28.1811 10.9036 28.9924 12.0881 28.9924C12.23 28.9924 12.3718 28.981 12.5118 28.9572L17.9364 28.0526ZM16.1787 33.8018L17.2813 34.1694L15.3379 36.1128L14.0934 34.4531L16.1787 33.8018ZM1.90567 47.363V49.9406C1.90567 53.6151 4.89555 56.6059 8.57102 56.6059H17.1407V53.0866L5.53638 50.8766L5.8925 49.0055L7.61882 49.334V43.2752H9.52321V49.6968L14.5203 50.6481L17.0789 38.7076L16.4228 37.723L15.1345 39.0113L12.1674 35.055L10.5925 35.5472C5.39641 37.1717 1.90567 41.9193 1.90567 47.363ZM39.2518 54.7016C37.5274 54.7016 35.9068 54.0303 34.688 52.8115L30.4707 48.5943V43.2753H28.5663V56.606H26.6619V56.1128C26.6619 54.4264 25.546 52.9696 23.9644 52.484L21.0116 38.7067L21.6677 37.7221L22.956 39.0105L26.1459 34.757L27.0628 34.9684C28.2702 35.2464 29.4357 35.6768 30.5412 36.2339C31.0154 40.7044 33.9253 44.457 37.9159 46.1367L37.1494 50.7348L39.0281 51.0471L39.7479 46.727C40.6668 46.9527 41.6218 47.0841 42.6083 47.0841H45.7058V48.2477C45.7058 51.806 42.8102 54.7016 39.2518 54.7016ZM42.6076 45.1796H46.8982C52.5409 45.1796 57.1314 40.589 57.1314 34.9463C57.1314 32.5573 56.2887 30.2301 54.7604 28.3953L48.116 20.4226H41.3907L34.7463 28.3953C33.2171 30.2301 32.3744 32.5573 32.3744 34.9463C32.3744 40.589 36.9649 45.1796 42.6076 45.1796Z" fill="#070708"/>
<path d="M9.52285 4.46007C9.52285 3.21365 9.81708 1.96628 10.3751 0.852212L8.67159 0C7.98221 1.37782 7.61847 2.92037 7.61847 4.46007V5.18754H9.52285V4.46007Z" fill="#070708"/>
</svg>
