<svg width="55" height="62" viewBox="0 0 55 62" fill="none" xmlns="http://www.w3.org/2000/svg">
<path fill-rule="evenodd" clip-rule="evenodd" d="M54.9551 37.759C54.7718 37.0886 54.0775 36.6956 53.4134 36.8776L44.694 39.2543L38.4367 35.6786L48.2194 32.1382C48.7166 31.9574 49.048 31.4841 49.0468 30.9555C49.0455 30.4269 48.7116 29.9536 48.2144 29.7753L38.4455 26.2851L44.6752 22.7044L53.3996 25.061C53.5088 25.0899 53.6193 25.1049 53.7285 25.1049C54.2809 25.1049 54.7881 24.7358 54.94 24.1759C55.1208 23.5067 54.7241 22.8174 54.0549 22.6366L47.7549 20.9355L53.5188 17.6222C54.1202 17.277 54.3286 16.5086 53.9821 15.9085C53.6356 15.3071 52.871 15.1 52.2684 15.4452L46.5044 18.7572L48.2056 12.4584C48.3864 11.7892 47.9897 11.1 47.3205 10.9192C46.6576 10.7396 45.9621 11.1326 45.78 11.8043L43.4235 20.5287L37.1146 24.1545L38.9552 13.8194C39.0481 13.2983 38.8045 12.7748 38.345 12.5111C37.8868 12.2487 37.313 12.3002 36.9062 12.643L28.9766 19.3774V12.1659L35.3657 5.77671C35.8566 5.28581 35.8566 4.49234 35.3657 4.00145C34.8749 3.51055 34.0814 3.51055 33.5905 4.00145L28.9766 8.61536V1.9663C28.9766 1.27327 28.4141 0.710815 27.7211 0.710815C27.0281 0.710815 26.4656 1.27327 26.4656 1.9663V8.61536L21.8517 4.00145C21.3608 3.51055 20.5673 3.51055 20.0764 4.00145C19.5855 4.49234 19.5855 5.28581 20.0764 5.77671L26.4656 12.1659V19.4226L18.4581 12.6794C18.0526 12.3391 17.4776 12.2877 17.0193 12.5538C16.5611 12.8187 16.3188 13.3435 16.4142 13.8646L18.2936 24.1658L11.9936 20.5651L9.61571 11.847C9.43241 11.1778 8.74063 10.7811 8.07397 10.9656C7.40479 11.1477 7.01057 11.8382 7.19262 12.5074L8.90887 18.8024L3.13614 15.503C2.53476 15.1602 1.76766 15.3686 1.42365 15.97C1.07965 16.5714 1.28932 17.3385 1.8907 17.6825L7.66217 20.9807L1.36716 22.6969C0.697983 22.8802 0.30376 23.5695 0.485806 24.2386C0.638975 24.7973 1.14368 25.1639 1.6961 25.1639C1.80532 25.1639 1.91581 25.1489 2.02754 25.1187L10.7456 22.7421L17.003 26.3177L7.224 29.8582C6.72683 30.039 6.39413 30.5123 6.39538 31.0409C6.39664 31.5694 6.72934 32.0428 7.22903 32.221L16.998 35.7113L10.7682 39.2919L2.04387 36.9354C1.37092 36.7533 0.684173 37.1501 0.504638 37.8205C0.323848 38.4897 0.719326 39.1789 1.38976 39.361L7.68979 41.0622L1.92334 44.3767C1.32196 44.7219 1.1148 45.4903 1.46006 46.0904C1.69233 46.4947 2.11543 46.7207 2.54983 46.7207C2.762 46.7207 2.97669 46.6667 3.1738 46.5537L8.939 43.2404L7.23782 49.5405C7.05702 50.2097 7.4525 50.8989 8.12293 51.081C8.23216 51.1098 8.34264 51.1236 8.45062 51.1236C9.00429 51.1236 9.5115 50.7558 9.66216 50.1958L12.0187 41.4727L18.3288 37.8469L16.4882 48.182C16.3953 48.7043 16.6402 49.2279 17.0984 49.4915C17.293 49.6033 17.509 49.6585 17.7236 49.6585C18.0149 49.6585 18.3037 49.5568 18.5359 49.3609L26.4656 42.6253V49.8343L20.0764 56.2247C19.5855 56.7156 19.5855 57.5091 20.0764 58C20.3212 58.2448 20.6427 58.3678 20.9641 58.3678C21.2855 58.3678 21.6069 58.2448 21.8517 58L26.4656 53.3848V60.0338C26.4656 60.7281 27.0281 61.2893 27.7211 61.2893C28.4141 61.2893 28.9766 60.7281 28.9766 60.0338V53.3848L33.5905 57.9987C33.8353 58.2435 34.1567 58.3666 34.4781 58.3666C34.7995 58.3666 35.1209 58.2435 35.3657 57.9987C35.8566 57.5078 35.8566 56.7143 35.3657 56.2234L28.9766 49.833V42.5763L36.9841 49.3183C37.3909 49.6585 37.9646 49.7075 38.4229 49.4451C38.8799 49.1789 39.1234 48.6541 39.0267 48.1331L37.1485 37.8331L43.4498 41.4338L45.8265 50.1506C45.9784 50.7093 46.4843 51.0759 47.0368 51.0759C47.1472 51.0759 47.2577 51.0621 47.3682 51.032C48.0374 50.8487 48.4329 50.1594 48.2496 49.4903L46.5333 43.1952L52.3048 46.4934C52.5006 46.6064 52.7153 46.6591 52.9262 46.6591C53.3619 46.6591 53.7863 46.4319 54.0173 46.0264C54.3613 45.425 54.1516 44.6579 53.5502 44.3139L47.7775 41.017L54.0738 39.3007C54.7429 39.1174 55.1384 38.4269 54.9551 37.759ZM44.0802 30.9656L35.5756 34.044L30.2448 30.9969L35.5831 27.9298L44.0802 30.9656ZM34.2755 25.7854L35.8725 16.8137L28.9773 22.6693V28.83L34.2755 25.7854ZM19.512 16.8489L26.4661 22.7057V28.8375L21.1441 25.7955L19.512 16.8489ZM19.864 27.9549L11.3606 31.0333L19.8578 34.0691L25.1961 31.002L19.864 27.9549ZM19.5702 45.1852L21.1685 36.2135L26.4654 33.1689V39.3283L19.5702 45.1852ZM28.9773 39.2945L35.9327 45.1501L34.3006 36.2048L28.9773 33.1627V39.2945Z" fill="#070708"/>
</svg>
