<svg width="155" height="56" viewBox="0 0 155 56" fill="none" xmlns="http://www.w3.org/2000/svg">
<path d="M155 50.4C155 53.52 152.982 56 150.56 56H4.4401C2.01823 56 0 53.52 0 50.4V5.6C0 2.48 2.01823 0 4.4401 0H150.479C152.982 0 154.919 2.48 154.919 5.6L155 50.4Z" fill="#4d4c4d"/>
<path d="M45.612 22.96C45.4505 23.04 41.6562 25.28 41.6562 29.84C41.737 35.36 46.5 37.12 46.5 37.12C46.5 37.28 45.7734 39.76 43.9974 42.24C42.5442 44.48 40.9297 46.64 38.5078 46.72C37.2969 46.72 36.4896 46.4 35.6823 46.08C34.7942 45.68 33.9062 45.36 32.5338 45.36C31 45.36 30.112 45.76 29.2239 46.16C28.4166 46.48 27.6901 46.8 26.6406 46.88C24.2995 46.96 22.4427 44.48 20.9088 42.32C17.7604 37.76 15.3385 29.6 18.5677 24C20.1015 21.28 23.0078 19.52 25.9948 19.44C27.3672 19.44 28.6588 19.92 29.789 20.4C30.6771 20.72 31.4036 21.04 32.0495 21.04C32.6146 21.04 33.3411 20.72 34.2291 20.4C35.6015 19.84 37.2969 19.2 38.9922 19.36C40.2031 19.36 43.513 19.84 45.612 22.96Z" fill="white"/>
<path d="M38.9922 10.56C39.2344 12.72 38.3464 14.8 37.1354 16.32C35.8438 17.84 33.7448 19.04 31.7266 18.88C31.4844 16.8 32.4531 14.64 33.6641 13.28C34.9557 11.84 37.2162 10.64 38.9922 10.56Z" fill="white"/>
<path d="M67.4896 42.88H69.75L65.3906 29.44H62.7266L58.3672 42.88H60.6276L61.8385 38.88H66.1979L67.4896 42.88Z" fill="white"/>
<path d="M79.5182 41.76C80.4062 40.8 80.8906 39.52 80.8906 37.84C80.8906 36.4 80.487 35.2 79.7604 34.24C79.0339 33.36 78.0651 32.88 76.9349 32.88C75.4818 32.88 74.3516 33.44 73.625 34.64H73.5443L73.3828 33.12H71.4453C71.526 34.24 71.526 35.28 71.526 36.32V46.8H73.7057V41.68C74.2708 42.56 75.1589 43.04 76.4505 43.04C77.7422 43.12 78.7109 42.64 79.5182 41.76Z" fill="white"/>
<path d="M90.6589 41.76C91.5469 40.8 92.0312 39.52 92.0312 37.84C92.0312 36.4 91.6276 35.2 90.901 34.24C90.1745 33.36 89.2057 32.88 88.0755 32.88C86.6224 32.88 85.4922 33.44 84.7656 34.64H84.6849L84.5234 33.12H82.5859C82.6667 34.24 82.6667 35.28 82.6667 36.32V46.8H84.8464V41.68C85.4115 42.56 86.2995 43.04 87.5911 43.04C88.8828 43.12 89.8516 42.64 90.6589 41.76Z" fill="white"/>
<path d="M103.333 41.92C104.141 41.2 104.544 40.24 104.544 39.12C104.544 38.16 104.302 37.44 103.656 36.8C103.091 36.16 102.284 35.6 101.073 35.2C100.104 34.8 99.4583 34.48 99.1354 34.16C98.7318 33.84 98.4896 33.36 98.4896 32.88C98.4896 32.4 98.651 32 99.0547 31.68C99.4583 31.28 100.104 31.12 100.831 31.12C101.799 31.12 102.607 31.28 103.414 31.76L103.979 30C103.172 29.6 102.122 29.36 100.911 29.36C99.5391 29.36 98.4089 29.68 97.6016 30.4C96.7943 31.12 96.3906 32 96.3906 33.12C96.3906 34.8 97.6016 36.08 99.9427 36.96C100.831 37.28 101.396 37.6 101.799 38C102.203 38.4 102.365 38.8 102.365 39.36C102.365 40 102.122 40.48 101.719 40.8C101.234 41.2 100.589 41.36 99.7812 41.36C98.651 41.36 97.6016 41.12 96.6328 40.56L96.1484 42.32C97.0365 42.88 98.1667 43.12 99.6198 43.12C101.234 43.04 102.445 42.64 103.333 41.92Z" fill="white"/>
<path d="M109.307 34.8H111.648V33.2H109.307V30.8L107.208 31.44V33.2H105.755V34.8H107.208V39.68C107.208 40.88 107.451 41.76 107.935 42.32C108.419 42.88 109.065 43.12 109.953 43.12C110.68 43.12 111.245 43.04 111.648 42.88L111.568 41.28C111.326 41.36 111.003 41.36 110.599 41.36C109.711 41.36 109.307 40.8 109.307 39.6V34.8Z" fill="white"/>
<path d="M121.094 41.6C121.982 40.64 122.385 39.44 122.385 37.92C122.385 36.48 121.982 35.28 121.094 34.32C120.206 33.36 119.076 32.88 117.703 32.88C116.25 32.88 115.039 33.36 114.151 34.32C113.263 35.28 112.859 36.48 112.859 38C112.859 39.44 113.263 40.64 114.151 41.6C115.039 42.56 116.169 43.04 117.542 43.04C118.995 43.12 120.206 42.56 121.094 41.6Z" fill="white"/>
<path d="M128.682 34.96C128.924 34.96 129.167 34.96 129.328 35.04V32.96C129.167 32.96 129.005 32.88 128.763 32.88C128.198 32.88 127.633 33.04 127.229 33.44C126.745 33.84 126.341 34.32 126.18 34.96H126.099L126.018 33.12H124.161C124.242 34.16 124.242 35.12 124.242 36.16V42.8H126.422V37.68C126.422 36.88 126.583 36.24 126.987 35.76C127.31 35.28 127.956 34.96 128.682 34.96Z" fill="white"/>
<path d="M138.935 38.56C139.016 38.24 139.016 37.92 139.016 37.6C139.016 36.4 138.693 35.36 138.128 34.56C137.401 33.52 136.352 33.04 134.979 33.04C133.526 33.04 132.396 33.52 131.589 34.56C130.781 35.52 130.378 36.72 130.378 38.24C130.378 39.76 130.781 40.88 131.669 41.84C132.557 42.72 133.688 43.2 135.221 43.2C136.432 43.2 137.563 43.04 138.451 42.64L138.128 41.12C137.32 41.44 136.432 41.6 135.544 41.6C134.656 41.6 134.01 41.36 133.445 40.96C132.799 40.48 132.557 39.68 132.477 38.72H138.935V38.56Z" fill="white"/>
<path d="M59.6589 24.56C60.0625 24.64 60.6276 24.64 61.1927 24.64C63.6953 24.64 65.0677 23.36 65.0677 21.12C65.0677 19.12 63.9375 17.92 61.4349 17.92C60.7891 17.92 60.224 18 59.5781 18.08V24.56H59.6589Z" fill="white"/>
<path d="M66.3594 22.24C66.3594 23.6 67.2474 24.72 68.6198 24.72C70.0729 24.72 70.9609 23.68 70.9609 22.24C70.9609 20.8 70.0729 19.76 68.7005 19.76C67.2474 19.76 66.3594 20.8 66.3594 22.24Z" fill="white"/>
<path d="M76.5313 24.56H77.5L78.9531 19.76H77.9844L77.4193 22C77.2578 22.56 77.1771 23.12 77.0964 23.6C77.0156 23.12 76.8542 22.56 76.6927 22L76.0469 19.76H75.0781L74.4323 22C74.2709 22.64 74.1094 23.12 74.0287 23.52V23.6C73.9479 23.12 73.8672 22.64 73.7057 22.08L73.1406 19.84H72.0104L73.3828 24.64H74.3516L74.9974 22.56C75.1589 22.08 75.3203 21.52 75.4011 21.04C75.4818 21.6 75.6432 22.08 75.8047 22.56L76.5313 24.56Z" fill="white"/>
<path d="M83.3932 24.56H84.4427V21.68C84.4427 20.4 83.7969 19.68 82.7474 19.68C82.1016 19.68 81.5365 20 81.2135 20.48L81.1328 19.76H80.1641C80.2448 20.24 80.2448 20.72 80.2448 21.12V24.56H81.2943V21.68C81.2943 21.04 81.6979 20.56 82.3438 20.56C82.9896 20.56 83.3125 20.96 83.3125 21.84V24.56H83.3932Z" fill="white"/>
<rect x="86.2995" y="17.6" width="1.04948" height="6.96" fill="white"/>
<path d="M88.9636 22.24C88.9636 23.6 89.8516 24.72 91.224 24.72C92.6771 24.72 93.5651 23.68 93.5651 22.24C93.5651 20.8 92.6771 19.76 91.3047 19.76C89.8516 19.76 88.9636 20.8 88.9636 22.24Z" fill="white"/>
<path d="M97.6823 24L97.763 24.56H98.7318C98.6511 24.24 98.6511 23.92 98.6511 23.44V21.68C98.6511 20.4 98.0052 19.68 96.7943 19.68C96.1485 19.68 95.5834 19.84 95.1797 20.08L95.4219 20.8C95.8255 20.56 96.1485 20.48 96.6328 20.48C97.2787 20.48 97.6016 20.8 97.6016 21.44V21.52C95.8255 21.52 94.7761 22.16 94.7761 23.28C94.7761 24.08 95.4219 24.64 96.2292 24.64C96.875 24.72 97.3594 24.48 97.6823 24Z" fill="white"/>
<path d="M103.818 23.84L103.898 24.64H104.867C104.867 24.24 104.786 23.84 104.786 23.36V17.6H103.737V20.4C103.495 20 103.01 19.76 102.365 19.76C101.154 19.76 100.266 20.8 100.266 22.32C100.266 23.76 101.154 24.72 102.284 24.72C102.93 24.72 103.414 24.4 103.818 23.84Z" fill="white"/>
<path d="M109.146 22.24C109.146 23.6 110.034 24.72 111.406 24.72C112.859 24.72 113.747 23.68 113.747 22.24C113.747 20.8 112.859 19.76 111.487 19.76C110.115 19.76 109.146 20.8 109.146 22.24Z" fill="white"/>
<path d="M118.51 24.56H119.56V21.68C119.56 20.4 118.914 19.68 117.865 19.68C117.219 19.68 116.654 20 116.331 20.48L116.25 19.76H115.281C115.362 20.24 115.362 20.72 115.362 21.12V24.56H116.411V21.68C116.411 21.04 116.815 20.56 117.461 20.56C118.107 20.56 118.43 20.96 118.43 21.84V24.56H118.51Z" fill="white"/>
<path d="M125.534 20.56H126.664V19.76H125.534V18.56L124.484 18.88V19.76H123.758V20.56H124.484V22.96C124.484 24.16 124.969 24.64 125.857 24.64C126.18 24.64 126.503 24.64 126.664 24.56V23.76C126.503 23.76 126.341 23.84 126.18 23.84C125.776 23.84 125.534 23.52 125.534 22.96V20.56Z" fill="white"/>
<path d="M131.266 24.56H132.315V21.68C132.315 20.4 131.669 19.68 130.701 19.68C130.055 19.68 129.57 19.92 129.247 20.48V17.6H128.198V24.56H129.247V21.68C129.247 20.88 129.732 20.56 130.297 20.56C130.943 20.56 131.266 20.96 131.266 21.84V24.56Z" fill="white"/>
<path d="M134.818 22.48H138.047C138.128 22.32 138.128 22.16 138.128 22C138.128 20.64 137.401 19.76 136.109 19.76C134.737 19.76 133.849 20.88 133.849 22.32C133.849 23.76 134.737 24.72 136.19 24.72C136.836 24.72 137.32 24.64 137.805 24.4L137.643 23.68C137.24 23.84 136.836 23.92 136.352 23.92C135.464 23.84 134.898 23.36 134.818 22.48Z" fill="white"/>
<path d="M64.664 33.76L65.7943 37.28H62.1614L63.2916 33.76C63.2916 33.68 63.3724 33.6 63.3724 33.52C63.6146 32.56 63.8568 31.76 63.9375 31.28H64.0182C64.3411 32.56 64.5833 33.36 64.664 33.76Z" fill="#4d4c4d"/>
<path d="M78.0651 35.6C78.4687 36.24 78.7109 36.96 78.7109 37.92C78.7109 38.96 78.4687 39.76 78.0651 40.4C77.5807 41.04 76.9349 41.36 76.1276 41.36C75.4818 41.36 74.9166 41.12 74.4323 40.64C74.0286 40.16 73.7864 39.52 73.7864 38.88V37.28C73.7864 37.04 73.8672 36.88 73.8672 36.64C74.0286 36.08 74.2708 35.6 74.7552 35.28C75.1588 34.96 75.6432 34.72 76.2083 34.72C76.9349 34.64 77.5807 34.96 78.0651 35.6Z" fill="#4d4c4d"/>
<path d="M89.2057 35.6C89.6094 36.24 89.8515 36.96 89.8515 37.92C89.8515 38.96 89.6094 39.76 89.2057 40.4C88.7213 41.04 88.0755 41.36 87.2682 41.36C86.6224 41.36 86.0573 41.12 85.5729 40.64C85.0885 40.16 84.9271 39.52 84.9271 38.88V37.28C84.9271 37.12 85.0078 36.88 85.0078 36.64C85.1693 36.08 85.4114 35.6 85.8958 35.28C86.2995 34.96 86.7838 34.72 87.3489 34.72C88.0755 34.64 88.7213 34.96 89.2057 35.6Z" fill="#4d4c4d"/>
<path d="M119.56 35.68C119.964 36.32 120.125 37.04 120.125 38C120.125 38.88 119.964 39.68 119.56 40.32C119.076 41.12 118.43 41.52 117.622 41.52C116.734 41.52 116.089 41.12 115.685 40.4C115.281 39.76 115.12 39.04 115.12 38.08C115.12 37.2 115.281 36.4 115.685 35.76C116.169 34.96 116.815 34.64 117.703 34.64C118.51 34.48 119.076 34.88 119.56 35.68Z" fill="#4d4c4d"/>
<path d="M136.594 35.36C136.917 35.84 136.997 36.4 136.997 37.04H132.477C132.557 36.4 132.799 35.84 133.122 35.36C133.526 34.8 134.172 34.48 134.818 34.48C135.625 34.4 136.19 34.72 136.594 35.36Z" fill="#4d4c4d"/>
<path d="M60.7083 18.8C60.9505 18.72 61.1927 18.72 61.5963 18.72C63.1302 18.72 64.0182 19.6 64.0182 21.12C64.0182 22.88 63.1302 23.76 61.5156 23.76C61.1927 23.76 60.9505 23.76 60.789 23.76V18.8H60.7083Z" fill="#4d4c4d"/>
<path d="M67.4089 22.24C67.4089 21.2 67.8932 20.48 68.7005 20.48C69.4271 20.48 69.9115 21.2 69.9115 22.16C69.9115 23.12 69.4271 23.92 68.7005 23.92C67.8932 23.92 67.4089 23.2 67.4089 22.24Z" fill="#4d4c4d"/>
<path d="M90.013 22.24C90.013 21.2 90.4974 20.48 91.3047 20.48C92.0312 20.48 92.5156 21.2 92.5156 22.16C92.5156 23.12 92.0312 23.92 91.3047 23.92C90.5781 23.92 90.013 23.2 90.013 22.24Z" fill="#4d4c4d"/>
<path d="M95.9062 23.12C95.9062 22.48 96.4714 22.16 97.6823 22.16V22.88C97.6823 23.44 97.1979 23.84 96.6328 23.84C96.1484 23.92 95.9062 23.68 95.9062 23.12Z" fill="#4d4c4d"/>
<path d="M102.526 20.56C103.172 20.56 103.656 21.12 103.656 21.84V22.64C103.656 23.28 103.172 23.92 102.526 23.92C101.799 23.92 101.315 23.28 101.315 22.32C101.315 21.2 101.799 20.56 102.526 20.56Z" fill="#4d4c4d"/>
<path d="M110.276 22.24C110.276 21.2 110.76 20.48 111.487 20.48C112.214 20.48 112.698 21.2 112.698 22.16C112.698 23.12 112.214 23.92 111.487 23.92C110.76 23.92 110.276 23.2 110.276 22.24Z" fill="#4d4c4d"/>
<path d="M136.029 20.4C136.674 20.4 137.078 20.96 137.078 21.68H134.898C134.898 20.96 135.383 20.4 136.029 20.4Z" fill="#4d4c4d"/>
</svg>
