<svg width="150" height="55" viewBox="0 0 150 55" fill="none" xmlns="http://www.w3.org/2000/svg">
<path d="M144.444 55H5.55556C2.44444 55 0 51.975 0 48.125V6.875C0 3.025 2.44444 0 5.55556 0H144.444C147.556 0 150 3.025 150 6.875V48.125C150 51.975 147.556 55 144.444 55Z" fill="#8F3434"/>
<path d="M52.5553 16.7125C52.5553 17.6125 52.3331 18.4 51.7776 18.9625C51.1109 19.6375 50.3331 19.975 49.3331 19.975C48.3331 19.975 47.5553 19.6375 46.8887 18.9625C46.222 18.2875 45.8887 17.5 45.8887 16.4875C45.8887 15.475 46.222 14.6875 46.8887 14.0125C47.5553 13.3375 48.3331 13 49.3331 13C49.7776 13 50.222 13.1125 50.6664 13.3375C51.1109 13.5625 51.4442 13.7875 51.6664 14.125L51.1109 14.6875C50.6664 14.125 50.1109 13.9 49.3331 13.9C48.6664 13.9 47.9998 14.125 47.5553 14.6875C46.9998 15.1375 46.7776 15.8125 46.7776 16.6C46.7776 17.3875 46.9998 18.0625 47.5553 18.5125C48.1109 18.9625 48.6664 19.3 49.3331 19.3C50.1109 19.3 50.6664 19.075 51.222 18.5125C51.5553 18.175 51.7776 17.725 51.7776 17.1625H49.3331V16.2625H52.5553V16.7125V16.7125ZM57.6664 13.9H54.6664V16.0375H57.4442V16.825H54.6664V18.9625H57.6664V19.8625H53.7776V13.1125H57.6664V13.9ZM61.3331 19.8625H60.4442V13.9H58.5553V13.1125H63.222V13.9H61.3331V19.8625ZM66.4442 19.8625V13.1125H67.3331V19.8625H66.4442ZM71.1109 19.8625H70.222V13.9H68.3331V13.1125H72.8887V13.9H70.9998V19.8625H71.1109ZM81.6664 18.9625C80.9998 19.6375 80.222 19.975 79.222 19.975C78.222 19.975 77.4442 19.6375 76.7776 18.9625C76.1109 18.2875 75.7776 17.5 75.7776 16.4875C75.7776 15.475 76.1109 14.6875 76.7776 14.0125C77.4442 13.3375 78.222 13 79.222 13C80.222 13 80.9998 13.3375 81.6664 14.0125C82.3331 14.6875 82.6664 15.475 82.6664 16.4875C82.6664 17.5 82.3331 18.2875 81.6664 18.9625ZM77.4442 18.4C77.8887 18.85 78.5553 19.1875 79.222 19.1875C79.8887 19.1875 80.5553 18.9625 80.9998 18.4C81.4442 17.95 81.7776 17.275 81.7776 16.4875C81.7776 15.7 81.5553 15.025 80.9998 14.575C80.5553 14.125 79.8887 13.7875 79.222 13.7875C78.5553 13.7875 77.8887 14.0125 77.4442 14.575C76.9998 15.025 76.6664 15.7 76.6664 16.4875C76.6664 17.275 76.8887 17.95 77.4442 18.4ZM83.8887 19.8625V13.1125H84.8887L88.1109 18.4V13.1125H88.9998V19.8625H88.1109L84.6665 14.35V19.8625H83.8887V19.8625Z" fill="white"/>
<path d="M75.5547 29.7641C72.888 29.7641 70.7769 31.7891 70.7769 34.6016C70.7769 37.3016 72.888 39.4391 75.5547 39.4391C78.2214 39.4391 80.3325 37.4141 80.3325 34.6016C80.3325 31.6766 78.2214 29.7641 75.5547 29.7641ZM75.5547 37.4141C74.1102 37.4141 72.888 36.1766 72.888 34.4891C72.888 32.8016 74.1102 31.5641 75.5547 31.5641C76.9991 31.5641 78.2214 32.6891 78.2214 34.4891C78.2214 36.1766 76.9991 37.4141 75.5547 37.4141ZM65.2214 29.7641C62.5547 29.7641 60.4436 31.7891 60.4436 34.6016C60.4436 37.3016 62.5547 39.4391 65.2214 39.4391C67.888 39.4391 69.9991 37.4141 69.9991 34.6016C69.9991 31.6766 67.888 29.7641 65.2214 29.7641ZM65.2214 37.4141C63.7769 37.4141 62.5547 36.1766 62.5547 34.4891C62.5547 32.8016 63.7769 31.5641 65.2214 31.5641C66.6658 31.5641 67.888 32.6891 67.888 34.4891C67.888 36.1766 66.6658 37.4141 65.2214 37.4141ZM52.888 31.2266V33.2516H57.6658C57.5547 34.3766 57.1102 35.2766 56.5547 35.8391C55.888 36.5141 54.7769 37.3016 52.888 37.3016C49.888 37.3016 47.6658 34.9391 47.6658 31.9016C47.6658 28.8641 49.9991 26.5016 52.888 26.5016C54.4436 26.5016 55.6658 27.1766 56.5547 27.9641L57.9991 26.5016C56.7769 25.3766 55.2214 24.4766 52.9991 24.4766C48.9991 24.4766 45.5547 27.8516 45.5547 31.9016C45.5547 35.9516 48.9991 39.3266 52.9991 39.3266C55.2214 39.3266 56.7769 38.6516 58.1102 37.1891C59.4436 35.8391 59.888 33.9266 59.888 32.4641C59.888 32.0141 59.888 31.5641 59.7769 31.2266H52.888V31.2266ZM103.332 32.8016C102.888 31.6766 101.777 29.7641 99.3325 29.7641C96.888 29.7641 94.888 31.6766 94.888 34.6016C94.888 37.3016 96.888 39.4391 99.5547 39.4391C101.666 39.4391 102.999 38.0891 103.444 37.3016L101.888 36.1766C101.332 36.9641 100.666 37.5266 99.5547 37.5266C98.4436 37.5266 97.7769 37.0766 97.2214 36.0641L103.555 33.3641L103.332 32.8016V32.8016ZM96.888 34.3766C96.888 32.5766 98.3325 31.5641 99.3325 31.5641C100.11 31.5641 100.888 32.0141 101.11 32.5766L96.888 34.3766ZM91.6658 38.9891H93.7769V24.9266H91.6658V38.9891ZM88.3325 30.7766C87.7769 30.2141 86.888 29.6516 85.7769 29.6516C83.4436 29.6516 81.2214 31.7891 81.2214 34.4891C81.2214 37.1891 83.3325 39.2141 85.7769 39.2141C86.888 39.2141 87.7769 38.6516 88.2214 38.0891H88.3325V38.7641C88.3325 40.5641 87.3325 41.5766 85.7769 41.5766C84.5547 41.5766 83.6658 40.6766 83.4436 39.8891L81.6658 40.6766C82.2214 41.9141 83.5547 43.4891 85.888 43.4891C88.3325 43.4891 90.3325 42.0266 90.3325 38.5391V29.9891H88.3325V30.7766V30.7766ZM85.888 37.4141C84.4436 37.4141 83.2214 36.1766 83.2214 34.4891C83.2214 32.8016 84.4436 31.5641 85.888 31.5641C87.3325 31.5641 88.4436 32.8016 88.4436 34.4891C88.4436 36.1766 87.3325 37.4141 85.888 37.4141ZM112.999 24.9266H107.999V38.9891H110.11V33.7016H112.999C115.332 33.7016 117.555 32.0141 117.555 29.3141C117.555 26.6141 115.332 24.9266 112.999 24.9266V24.9266ZM113.11 31.6766H110.11V26.8391H113.11C114.666 26.8391 115.555 28.1891 115.555 29.2016C115.444 30.4391 114.555 31.6766 113.11 31.6766ZM125.888 29.6516C124.332 29.6516 122.777 30.3266 122.221 31.7891L124.11 32.5766C124.555 31.7891 125.221 31.5641 125.999 31.5641C127.11 31.5641 128.11 32.2391 128.221 33.3641V33.4766C127.888 33.2516 126.999 32.9141 126.11 32.9141C124.11 32.9141 122.11 34.0391 122.11 36.0641C122.11 37.9766 123.777 39.2141 125.555 39.2141C126.999 39.2141 127.666 38.5391 128.221 37.8641H128.332V38.9891H130.332V33.5891C130.11 31.1141 128.221 29.6516 125.888 29.6516V29.6516ZM125.666 37.4141C124.999 37.4141 123.999 37.0766 123.999 36.1766C123.999 35.0516 125.221 34.7141 126.221 34.7141C127.11 34.7141 127.555 34.9391 128.11 35.1641C127.888 36.5141 126.777 37.4141 125.666 37.4141V37.4141ZM137.332 29.9891L134.999 36.0641H134.888L132.444 29.9891H130.221L133.888 38.5391L131.777 43.2641H133.888L139.555 29.9891H137.332V29.9891ZM118.666 38.9891H120.777V24.9266H118.666V38.9891Z" fill="white"/>
<path d="M11.4444 13.6797C11.1111 14.0172 11 14.5797 11 15.2547V40.1172C11 40.7922 11.2222 41.3547 11.5556 41.6922L11.6667 41.8047L25.4444 27.8547V27.6297L11.4444 13.6797Z" fill="url(#paint0_linear)"/>
<path d="M29.8895 32.5781L25.334 27.9656V27.6281L29.8895 23.0156L30.0007 23.1281L35.4451 26.2781C37.0007 27.1781 37.0007 28.6406 35.4451 29.5406L29.8895 32.5781V32.5781Z" fill="url(#paint1_linear)"/>
<path d="M30.0009 32.4672L25.3342 27.7422L11.4453 41.8047C12.0009 42.3672 12.7786 42.3672 13.7786 41.9172L30.0009 32.4672" fill="url(#paint2_linear)"/>
<path d="M30.0009 23.0159L13.7786 13.6784C12.7786 13.1159 12.0009 13.2284 11.4453 13.7909L25.3342 27.7409L30.0009 23.0159V23.0159Z" fill="url(#paint3_linear)"/>
<path opacity="0.2" d="M29.8898 32.3516L13.7786 41.5766C12.8898 42.1391 12.112 42.0266 11.5564 41.5766L11.4453 41.6891L11.5564 41.8016C12.112 42.2516 12.8898 42.3641 13.7786 41.8016L29.8898 32.3516Z" fill="black"/>
<path opacity="0.2" d="M11.4444 41.5797C11.1111 41.2422 11 40.6797 11 40.0047V40.1172C11 40.7922 11.2222 41.3547 11.5556 41.6922V41.5797H11.4444ZM35.4444 29.2047L29.8889 32.3547L30 32.4672L35.4444 29.3172C36.2222 28.8672 36.5556 28.3047 36.5556 27.7422C36.5556 28.3047 36.1111 28.7547 35.4444 29.2047V29.2047Z" fill="black"/>
<path opacity="0.2" d="M13.7778 13.7907L35.4444 26.2782C36.1111 26.7282 36.5556 27.1782 36.5556 27.7407C36.5556 27.1782 36.2222 26.6157 35.4444 26.1657L13.7778 13.6782C12.2222 12.7782 11 13.4532 11 15.2532V15.3657C11 13.6782 12.2222 12.8907 13.7778 13.7907Z" fill="white"/>
<defs>
<linearGradient id="paint0_linear" x1="24.1111" y1="15.0409" x2="5.23171" y2="33.6862" gradientUnits="userSpaceOnUse">
<stop stop-color="#00A0FF"/>
<stop offset="0.007" stop-color="#00A1FF"/>
<stop offset="0.26" stop-color="#00BEFF"/>
<stop offset="0.512" stop-color="#00D2FF"/>
<stop offset="0.76" stop-color="#00DFFF"/>
<stop offset="1" stop-color="#00E3FF"/>
</linearGradient>
<linearGradient id="paint1_linear" x1="37.4829" y1="27.7417" x2="10.5973" y2="27.7417" gradientUnits="userSpaceOnUse">
<stop stop-color="#FFE000"/>
<stop offset="0.409" stop-color="#FFBD00"/>
<stop offset="0.775" stop-color="#FFA500"/>
<stop offset="1" stop-color="#FF9C00"/>
</linearGradient>
<linearGradient id="paint2_linear" x1="27.4753" y1="30.3252" x2="1.87454" y2="55.6099" gradientUnits="userSpaceOnUse">
<stop stop-color="#FF3A44"/>
<stop offset="1" stop-color="#C31162"/>
</linearGradient>
<linearGradient id="paint3_linear" x1="7.99753" y1="5.43891" x2="19.43" y2="16.7303" gradientUnits="userSpaceOnUse">
<stop stop-color="#32A071"/>
<stop offset="0.069" stop-color="#2DA771"/>
<stop offset="0.476" stop-color="#15CF74"/>
<stop offset="0.801" stop-color="#06E775"/>
<stop offset="1" stop-color="#00F076"/>
</linearGradient>
</defs>
</svg>
