<svg width="155" height="57" viewBox="0 0 155 57" fill="none" xmlns="http://www.w3.org/2000/svg">
<path d="M155 50.6578C155 53.7887 152.982 56.2775 150.56 56.2775H4.4401C1.9375 56.2775 0 53.7887 0 50.6578V5.70001C0 2.56902 2.01823 0.0802917 4.4401 0.0802917H150.479C152.982 0.0802917 154.919 2.56902 154.919 5.70001L155 50.6578Z" fill="#8F3434"/>
<path d="M6.94272 10.9183V45.5197L26.237 28.1789L6.94272 10.9183Z" fill="url(#paint0_linear)"/>
<path d="M31.3229 23.5225L23.5729 19.4282L6.94272 10.7578V10.9183L26.237 28.2592L31.3229 23.5225Z" fill="url(#paint1_linear)"/>
<path d="M6.94272 45.5197V45.6803L23.5729 36.9296L31.3229 32.8352L26.1563 28.1789L6.94272 45.5197Z" fill="url(#paint2_linear)"/>
<path d="M31.3229 23.5225L26.1562 28.1789L31.3229 32.8352L40.2031 28.1789L31.3229 23.5225Z" fill="url(#paint3_linear)"/>
<path fill-rule="evenodd" clip-rule="evenodd" d="M134.414 28.5803C134.979 28.4197 135.544 28.3394 136.19 28.3394C137.401 28.3394 138.289 28.5803 138.935 29.062C139.5 29.6239 139.823 30.3465 139.823 31.4704V37.8127H138.693L138.37 36.4479H138.289C137.805 37.0901 137.24 37.4112 136.755 37.6521C136.19 37.8929 135.544 37.9732 134.818 37.9732C133.768 37.9732 132.961 37.7324 132.396 37.2507C131.831 36.769 131.508 36.1267 131.508 35.2436C131.508 33.3169 133.203 32.3535 136.513 32.2732L138.289 32.1929V31.631C138.289 30.9084 138.128 30.3465 137.805 30.0253C137.401 29.6239 136.836 29.4634 136.109 29.4634C135.221 29.4634 134.253 29.7042 133.203 30.1859L132.719 29.1422C133.284 28.9014 133.849 28.7408 134.414 28.5803ZM137.401 36.0465C137.966 35.5648 138.208 34.9225 138.208 34.0394V33.1563L136.674 33.2366C135.464 33.3169 134.576 33.4774 134.01 33.7986C133.445 34.1197 133.203 34.6014 133.203 35.2436C133.203 35.7253 133.365 36.1267 133.688 36.3676C134.091 36.6084 134.495 36.769 135.141 36.769C136.109 36.769 136.836 36.5281 137.401 36.0465Z" fill="#F9F9F9"/>
<path d="M134.414 28.5803L134.448 28.7005L134.414 28.5803ZM138.935 29.062L139.023 28.9733L139.017 28.9671L139.01 28.9618L138.935 29.062ZM139.823 37.8127V37.9377H139.948V37.8127H139.823ZM138.693 37.8127L138.571 37.8414L138.594 37.9377H138.693V37.8127ZM138.37 36.4479L138.491 36.4191L138.469 36.3229H138.37V36.4479ZM138.289 36.4479V36.3229H138.227L138.189 36.3726L138.289 36.4479ZM136.755 37.6521L136.804 37.7673L136.811 37.764L136.755 37.6521ZM136.513 32.2732L136.516 32.3982L136.519 32.3981L136.513 32.2732ZM138.289 32.1929L138.295 32.3178L138.414 32.3124V32.1929H138.289ZM137.805 30.0253L137.893 29.9367L137.805 30.0253ZM133.203 30.1859L133.09 30.2385L133.142 30.3514L133.255 30.2995L133.203 30.1859ZM132.719 29.1422L132.67 29.0272L132.551 29.0778L132.605 29.1949L132.719 29.1422ZM137.401 36.0465L137.32 35.9513L137.401 36.0465ZM138.208 33.1563H138.333V33.0246L138.202 33.0315L138.208 33.1563ZM136.674 33.2366L136.668 33.1118L136.666 33.1119L136.674 33.2366ZM134.01 33.7986L133.949 33.6899H133.949L134.01 33.7986ZM133.688 36.3676L133.612 36.4683L133.623 36.4749L133.688 36.3676ZM136.19 28.2144C135.533 28.2144 134.956 28.2962 134.38 28.46L134.448 28.7005C135.002 28.5432 135.555 28.4644 136.19 28.4644V28.2144ZM139.01 28.9618C138.334 28.4581 137.416 28.2144 136.19 28.2144V28.4644C137.386 28.4644 138.244 28.7024 138.86 29.1622L139.01 28.9618ZM139.948 31.4704C139.948 30.3178 139.615 29.5618 139.023 28.9733L138.847 29.1506C139.385 29.686 139.698 30.3751 139.698 31.4704H139.948ZM139.948 37.8127V31.4704H139.698V37.8127H139.948ZM138.693 37.9377H139.823V37.6877H138.693V37.9377ZM138.248 36.4766L138.571 37.8414L138.814 37.7839L138.491 36.4191L138.248 36.4766ZM138.289 36.5729H138.37V36.3229H138.289V36.5729ZM136.811 37.764C137.301 37.5201 137.887 37.1885 138.389 36.5231L138.189 36.3726C137.722 36.9918 137.178 37.3024 136.7 37.5402L136.811 37.764ZM134.818 38.0982C135.552 38.0982 136.217 38.0173 136.804 37.7671L136.706 37.5371C136.163 37.7686 135.536 37.8482 134.818 37.8482V38.0982ZM132.315 37.3458C132.91 37.8534 133.751 38.0982 134.818 38.0982V37.8482C133.786 37.8482 133.012 37.6113 132.477 37.1556L132.315 37.3458ZM131.383 35.2436C131.383 36.1627 131.721 36.8399 132.315 37.3458L132.477 37.1556C131.94 36.6981 131.633 36.0908 131.633 35.2436H131.383ZM136.51 32.1483C134.847 32.1886 133.571 32.4505 132.706 32.9582C131.831 33.4717 131.383 34.2347 131.383 35.2436H131.633C131.633 34.3258 132.032 33.6437 132.832 33.1738C133.643 32.6981 134.869 32.4381 136.516 32.3982L136.51 32.1483ZM138.283 32.0681L136.507 32.1483L136.519 32.3981L138.295 32.3178L138.283 32.0681ZM138.164 31.631V32.1929H138.414V31.631H138.164ZM137.717 30.114C138.004 30.4 138.164 30.9205 138.164 31.631H138.414C138.414 30.8964 138.251 30.2929 137.893 29.9367L137.717 30.114ZM136.109 29.5884C136.819 29.5884 137.346 29.7452 137.717 30.114L137.893 29.9367C137.456 29.5026 136.853 29.3384 136.109 29.3384V29.5884ZM133.255 30.2995C134.293 29.8232 135.244 29.5884 136.109 29.5884V29.3384C135.199 29.3384 134.212 29.5853 133.151 30.0723L133.255 30.2995ZM132.605 29.1949L133.09 30.2385L133.317 30.1333L132.832 29.0896L132.605 29.1949ZM134.38 28.46C133.816 28.6203 133.243 28.7828 132.67 29.0272L132.768 29.2572C133.324 29.02 133.882 28.8614 134.448 28.7005L134.38 28.46ZM138.083 34.0394C138.083 34.8967 137.85 35.4996 137.32 35.9513L137.482 36.1416C138.082 35.63 138.333 34.9484 138.333 34.0394H138.083ZM138.083 33.1563V34.0394H138.333V33.1563H138.083ZM136.681 33.3614L138.215 33.2811L138.202 33.0315L136.668 33.1118L136.681 33.3614ZM134.072 33.9072C134.61 33.6016 135.472 33.4416 136.683 33.3613L136.666 33.1119C135.455 33.1922 134.541 33.3533 133.949 33.6899L134.072 33.9072ZM133.328 35.2436C133.328 34.9382 133.386 34.6789 133.505 34.4605C133.623 34.2427 133.807 34.0579 134.072 33.9072L133.949 33.6899C133.649 33.8604 133.429 34.0769 133.285 34.3409C133.142 34.6042 133.078 34.9068 133.078 35.2436H133.328ZM133.762 36.2674C133.48 36.0569 133.328 35.6987 133.328 35.2436H133.078C133.078 35.752 133.249 36.1966 133.613 36.4678L133.762 36.2674ZM135.141 36.644C134.521 36.644 134.14 36.4918 133.752 36.2602L133.623 36.4749C134.043 36.725 134.468 36.894 135.141 36.894V36.644ZM137.32 35.9513C136.783 36.4093 136.087 36.644 135.141 36.644V36.894C136.131 36.894 136.889 36.647 137.482 36.1416L137.32 35.9513Z" fill="#F9F9F9"/>
<path fill-rule="evenodd" clip-rule="evenodd" d="M74.2708 33.076C74.2708 30.507 76.612 28.3394 79.8412 28.3394C82.9896 28.3394 84.9271 30.5873 84.9271 32.9155C84.9271 35.2436 82.9896 37.6521 79.5182 37.6521C76.1276 37.6521 74.2708 35.2436 74.2708 33.076ZM80.0026 37.0901C80.8099 37.0901 81.6979 36.769 82.1823 36.1267C82.6667 35.4845 82.8281 34.6817 82.8281 33.9591C82.8281 32.2732 81.9401 28.9817 79.2761 28.9817C78.5495 28.9817 77.8229 29.2225 77.3386 29.6239C76.5313 30.3465 76.3698 31.2296 76.3698 32.0324C76.3698 33.9591 77.4193 37.0901 80.0026 37.0901Z" fill="#F9F9F9"/>
<path d="M82.1823 36.1267L82.0825 36.0515H82.0825L82.1823 36.1267ZM77.3386 29.6239L77.2587 29.5276L77.2552 29.5308L77.3386 29.6239ZM79.8412 28.2144C76.5595 28.2144 74.1458 30.4225 74.1458 33.076H74.3958C74.3958 30.5915 76.6645 28.4644 79.8412 28.4644V28.2144ZM85.0521 32.9155C85.0521 30.5149 83.0552 28.2144 79.8412 28.2144V28.4644C82.924 28.4644 84.8021 30.6597 84.8021 32.9155H85.0521ZM79.5182 37.7771C83.0553 37.7771 85.0521 35.3159 85.0521 32.9155H84.8021C84.8021 35.1714 82.9239 37.5271 79.5182 37.5271V37.7771ZM74.1458 33.076C74.1458 35.3147 76.0606 37.7771 79.5182 37.7771V37.5271C76.1946 37.5271 74.3958 35.1726 74.3958 33.076H74.1458ZM82.0825 36.0515C81.6286 36.6533 80.7837 36.9651 80.0026 36.9651V37.2151C80.8361 37.2151 81.7672 36.8847 82.2821 36.202L82.0825 36.0515ZM82.7031 33.9591C82.7031 34.6655 82.5449 35.4383 82.0825 36.0515L82.2821 36.202C82.7884 35.5307 82.9531 34.6978 82.9531 33.9591H82.7031ZM79.2761 29.1067C80.5455 29.1067 81.3986 29.8872 81.941 30.8973C82.4846 31.9097 82.7031 33.133 82.7031 33.9591H82.9531C82.9531 33.0994 82.7277 31.834 82.1612 30.7791C81.5936 29.7219 80.6707 28.8567 79.2761 28.8567V29.1067ZM77.4183 29.7202C77.8769 29.3402 78.5739 29.1067 79.2761 29.1067V28.8567C78.5251 28.8567 77.769 29.1049 77.2588 29.5277L77.4183 29.7202ZM76.4948 32.0324C76.4948 31.2471 76.6521 30.4061 77.4219 29.7171L77.2552 29.5308C76.4104 30.2868 76.2448 31.212 76.2448 32.0324H76.4948ZM80.0026 36.9651C78.7711 36.9651 77.8978 36.2218 77.326 35.2217C76.753 34.2197 76.4948 32.9773 76.4948 32.0324H76.2448C76.2448 33.0142 76.5113 34.3006 77.1089 35.3458C77.7077 36.393 78.6508 37.2151 80.0026 37.2151V36.9651Z" fill="#F9F9F9"/>
<path d="M148.622 28.5C147.169 32.1127 146.362 34.2803 146.039 34.9225C145.797 35.6451 145.635 36.1268 145.555 36.3676H145.474C145.393 35.8056 145.07 34.9225 144.586 33.7183L142.326 28.4197H140.63L144.747 37.8127L144.182 39.1775C143.698 40.3014 142.971 40.7831 141.922 40.7831C141.518 40.7831 141.115 40.7831 140.792 40.7028V41.8268C141.276 41.907 141.76 41.9873 142.164 41.9873C143.052 41.9873 143.698 41.7465 144.344 41.3451C144.909 40.9437 145.474 40.1408 145.878 39.0972L150.318 28.5H148.622Z" fill="#F9F9F9" stroke="#F9F9F9" stroke-width="0.25"/>
<path fill-rule="evenodd" clip-rule="evenodd" d="M119.964 28.5803C120.529 28.3394 121.094 28.2592 121.82 28.2592C123.193 28.2592 124.242 28.7408 124.969 29.5437C125.695 30.3465 126.099 31.5507 126.099 33.0761C126.099 34.6014 125.695 35.7254 124.969 36.6085C124.161 37.4915 123.193 37.893 121.82 37.893C121.094 37.893 120.529 37.8127 119.964 37.5718C119.398 37.331 118.995 37.0099 118.591 36.5282H118.51C118.591 37.0901 118.591 37.5718 118.591 38.0535V41.907H117.057V28.4197H118.268L118.51 29.7042H118.591C118.995 29.1423 119.398 28.8211 119.964 28.5803ZM121.578 36.769C122.466 36.769 123.193 36.4479 123.677 35.8056C124.242 35.1634 124.484 34.2 124.323 33.0761C124.323 31.9521 124.081 31.069 123.596 30.4268C123.112 29.7845 122.385 29.4634 121.497 29.4634C120.448 29.4634 119.721 29.7042 119.237 30.2662C118.753 30.7479 118.51 31.631 118.51 32.7549V33.0761C118.51 34.3606 118.753 35.3239 119.237 35.8859C119.721 36.4479 120.529 36.769 121.578 36.769Z" fill="#F9F9F9"/>
<path d="M119.964 28.5803L119.915 28.4653L119.964 28.5803ZM124.969 29.5437L124.876 29.6275L124.876 29.6275L124.969 29.5437ZM124.969 36.6085L125.061 36.6929L125.065 36.6879L124.969 36.6085ZM118.591 36.5282L118.687 36.4479L118.65 36.4032H118.591V36.5282ZM118.51 36.5282V36.4032H118.366L118.387 36.5459L118.51 36.5282ZM118.591 41.907V42.032H118.716V41.907H118.591ZM117.057 41.907H116.932V42.032H117.057V41.907ZM117.057 28.4197V28.2947H116.932V28.4197H117.057ZM118.268 28.4197L118.391 28.3966L118.372 28.2947H118.268V28.4197ZM118.51 29.7042L118.388 29.7274L118.407 29.8292H118.51V29.7042ZM118.591 29.7042V29.8292H118.655L118.693 29.7771L118.591 29.7042ZM123.677 35.8056L123.583 35.7228L123.577 35.7304L123.677 35.8056ZM124.323 33.0761H124.198V33.085L124.199 33.0938L124.323 33.0761ZM123.596 30.4268L123.497 30.502H123.497L123.596 30.4268ZM119.237 30.2662L119.325 30.3551L119.332 30.3478L119.237 30.2662ZM121.82 28.1342C121.084 28.1342 120.5 28.2156 119.915 28.4653L120.013 28.6953C120.557 28.4633 121.104 28.3842 121.82 28.3842V28.1342ZM125.061 29.4598C124.309 28.6282 123.224 28.1342 121.82 28.1342V28.3842C123.161 28.3842 124.176 28.8535 124.876 29.6275L125.061 29.4598ZM126.224 33.0761C126.224 31.5301 125.815 30.2923 125.061 29.4598L124.876 29.6275C125.576 30.4007 125.974 31.5713 125.974 33.0761H126.224ZM125.065 36.6879C125.813 35.779 126.224 34.6256 126.224 33.0761H125.974C125.974 34.5772 125.578 35.6717 124.872 36.529L125.065 36.6879ZM121.82 38.018C123.223 38.018 124.227 37.6052 125.061 36.6928L124.877 36.5241C124.096 37.3779 123.163 37.768 121.82 37.768V38.018ZM119.915 37.6868C120.5 37.9365 121.084 38.018 121.82 38.018V37.768C121.104 37.768 120.557 37.6888 120.013 37.4568L119.915 37.6868ZM118.495 36.6085C118.91 37.1029 119.329 37.4372 119.915 37.6868L120.013 37.4568C119.468 37.2248 119.08 36.9168 118.687 36.4479L118.495 36.6085ZM118.51 36.6532H118.591V36.4032H118.51V36.6532ZM118.716 38.0535C118.716 37.5722 118.716 37.0823 118.634 36.5104L118.387 36.5459C118.466 37.098 118.466 37.5714 118.466 38.0535H118.716ZM118.716 41.907V38.0535H118.466V41.907H118.716ZM117.057 42.032H118.591V41.782H117.057V42.032ZM116.932 28.4197V41.907H117.182V28.4197H116.932ZM118.268 28.2947H117.057V28.5447H118.268V28.2947ZM118.633 29.6811L118.391 28.3966L118.145 28.4429L118.388 29.7274L118.633 29.6811ZM118.591 29.5792H118.51V29.8292H118.591V29.5792ZM119.915 28.4653C119.327 28.7156 118.906 29.0519 118.49 29.6313L118.693 29.7771C119.084 29.2327 119.47 28.9267 120.013 28.6953L119.915 28.4653ZM123.577 35.7304C123.12 36.3362 122.434 36.644 121.578 36.644V36.894C122.499 36.894 123.265 36.5596 123.777 35.8809L123.577 35.7304ZM124.199 33.0938C124.357 34.1918 124.118 35.1152 123.583 35.7231L123.771 35.8882C124.366 35.2116 124.612 34.2082 124.447 33.0583L124.199 33.0938ZM123.497 30.502C123.959 31.1155 124.198 31.9687 124.198 33.0761H124.448C124.448 31.9355 124.202 31.0226 123.696 30.3515L123.497 30.502ZM121.497 29.5884C122.353 29.5884 123.04 29.8962 123.497 30.502L123.696 30.3515C123.184 29.6728 122.418 29.3384 121.497 29.3384V29.5884ZM119.332 30.3478C119.782 29.825 120.465 29.5884 121.497 29.5884V29.3384C120.43 29.3384 119.66 29.5834 119.142 30.1846L119.332 30.3478ZM118.635 32.7549C118.635 31.6408 118.877 30.8005 119.325 30.3548L119.149 30.1776C118.628 30.6952 118.385 31.6211 118.385 32.7549H118.635ZM118.635 33.0761V32.7549H118.385V33.0761H118.635ZM119.332 35.8043C118.877 35.2771 118.635 34.3517 118.635 33.0761H118.385C118.385 34.3694 118.628 35.3708 119.142 35.9675L119.332 35.8043ZM121.578 36.644C120.552 36.644 119.785 36.3304 119.332 35.8043L119.142 35.9675C119.658 36.5654 120.505 36.894 121.578 36.894V36.644Z" fill="#F9F9F9"/>
<path fill-rule="evenodd" clip-rule="evenodd" d="M62.6458 33.076C62.6458 30.507 64.987 28.3394 68.2162 28.3394C71.3646 28.3394 73.3021 30.5873 73.3021 32.9155C73.3021 35.2436 71.3646 37.6521 67.8932 37.6521C64.5026 37.6521 62.6458 35.2436 62.6458 33.076ZM68.3776 37.0901C69.1849 37.0901 70.0729 36.769 70.5573 36.1267C71.0417 35.4845 71.2031 34.6817 71.2031 33.9591C71.2031 32.2732 70.3151 28.9817 67.6511 28.9817C66.9245 28.9817 66.1979 29.2225 65.7136 29.6239C64.9063 30.3465 64.7448 31.2296 64.7448 32.0324C64.7448 33.9591 65.7943 37.0901 68.3776 37.0901Z" fill="#F9F9F9"/>
<path d="M70.5573 36.1267L70.4575 36.0515H70.4575L70.5573 36.1267ZM65.7136 29.6239L65.6337 29.5276L65.6302 29.5308L65.7136 29.6239ZM68.2162 28.2144C64.9345 28.2144 62.5208 30.4225 62.5208 33.076H62.7708C62.7708 30.5915 65.0395 28.4644 68.2162 28.4644V28.2144ZM73.4271 32.9155C73.4271 30.5149 71.4302 28.2144 68.2162 28.2144V28.4644C71.299 28.4644 73.1771 30.6597 73.1771 32.9155H73.4271ZM67.8932 37.7771C71.4303 37.7771 73.4271 35.3159 73.4271 32.9155H73.1771C73.1771 35.1714 71.2989 37.5271 67.8932 37.5271V37.7771ZM62.5208 33.076C62.5208 35.3147 64.4356 37.7771 67.8932 37.7771V37.5271C64.5696 37.5271 62.7708 35.1726 62.7708 33.076H62.5208ZM70.4575 36.0515C70.0036 36.6533 69.1587 36.9651 68.3776 36.9651V37.2151C69.2111 37.2151 70.1422 36.8847 70.6571 36.202L70.4575 36.0515ZM71.0781 33.9591C71.0781 34.6655 70.9199 35.4383 70.4575 36.0515L70.6571 36.202C71.1634 35.5307 71.3281 34.6978 71.3281 33.9591H71.0781ZM67.6511 29.1067C68.9205 29.1067 69.7736 29.8872 70.316 30.8973C70.8596 31.9097 71.0781 33.133 71.0781 33.9591H71.3281C71.3281 33.0994 71.1027 31.834 70.5362 30.7791C69.9686 29.7219 69.0457 28.8567 67.6511 28.8567V29.1067ZM65.7933 29.7202C66.2519 29.3402 66.9489 29.1067 67.6511 29.1067V28.8567C66.9001 28.8567 66.144 29.1049 65.6338 29.5277L65.7933 29.7202ZM64.8698 32.0324C64.8698 31.2471 65.0271 30.4061 65.7969 29.7171L65.6302 29.5308C64.7854 30.2868 64.6198 31.212 64.6198 32.0324H64.8698ZM68.3776 36.9651C67.1461 36.9651 66.2728 36.2218 65.701 35.2217C65.128 34.2197 64.8698 32.9773 64.8698 32.0324H64.6198C64.6198 33.0142 64.8863 34.3006 65.4839 35.3458C66.0827 36.393 67.0258 37.2151 68.3776 37.2151V36.9651Z" fill="#F9F9F9"/>
<path d="M55.5417 34.0394L58.7708 33.8788V37.0098C58.125 37.2507 57.3984 37.4915 56.026 37.4915C51.3438 37.4915 48.3568 34.0394 48.3568 30.3465C48.3568 26.8943 50.9401 24.5662 54.3307 24.5662C56.8333 24.5662 58.2057 25.7704 58.9323 26.4127L58.3672 27.2155L59.0938 27.0549L60.8698 25.5296C60.3854 25.2084 59.6589 24.7267 58.0443 24.3253C56.9948 24.0845 55.9453 23.9239 54.7344 23.9239C49.2448 23.9239 46.0156 27.4563 46.0156 31.2296C46.0156 34.3605 48.276 38.2943 54.25 38.2943C55.4609 38.2943 56.5911 38.1338 57.8021 37.9732L60.8698 37.331V34.9225C60.8698 34.7619 60.8698 34.2 60.9505 33.9591C61.0312 33.7986 61.0312 33.7986 61.1927 33.638L61.7578 33.1563H57.1562L55.5417 34.0394Z" fill="#F9F9F9" stroke="#F9F9F9" stroke-width="0.25"/>
<rect x="128.117" y="24.5662" width="1.53385" height="13.2465" fill="#F9F9F9" stroke="#F9F9F9" stroke-width="0.25"/>
<path fill-rule="evenodd" clip-rule="evenodd" d="M95.7448 28.6606H91.3047C90.1745 28.6606 88.7214 28.8211 87.4297 29.7042C86.5417 30.4268 86.0573 31.3901 86.0573 32.2732C86.0573 33.7986 87.349 35.3239 89.6094 35.3239H90.3359C90.309 35.4042 90.2731 35.4756 90.2373 35.5469C90.1655 35.6897 90.0938 35.8324 90.0938 36.0465C90.0938 36.6887 90.4167 37.0098 90.7396 37.331C90.6573 37.3378 90.5693 37.3446 90.4761 37.3518C89.4722 37.4295 87.8783 37.5529 86.6224 38.2141C85.3307 38.8563 85.0078 39.9 85.0078 40.6225C85.0078 42.0676 86.5417 43.4324 89.6094 43.4324C93.3229 43.4324 95.2604 41.5859 95.2604 39.7394C95.2604 38.4467 94.4637 37.8022 93.6248 37.1237C93.5781 37.0859 93.5312 37.048 93.4844 37.0098L92.6771 36.4479C92.4349 36.2873 92.112 36.0465 92.112 35.6451C92.112 35.2437 92.4349 34.9225 92.6771 34.6817C93.5651 34.0394 94.4531 33.3972 94.4531 31.9521C94.4531 30.5658 93.4873 29.7706 92.9811 29.3538L92.9193 29.3028H94.2109L95.7448 28.6606ZM93.8073 40.5422C93.8073 41.7465 92.6771 42.6296 90.6589 42.6296C88.3984 42.6296 86.8646 41.6662 86.8646 40.2211C86.8646 38.8563 88.237 38.3746 88.7214 38.2141C89.6094 37.9732 90.8203 37.8929 90.9818 37.8929H91.4661C93.0807 39.0169 93.8073 39.5789 93.8073 40.5422ZM90.6589 34.8422C91.224 34.8422 91.7891 34.6014 92.112 34.2803C92.5399 33.8547 92.6528 33.3665 92.729 33.037C92.739 32.9936 92.7484 32.9529 92.7578 32.9155C92.7578 31.4704 91.7891 29.3028 90.013 29.3028C89.4479 29.3028 88.8021 29.5437 88.4792 29.9451C88.0755 30.3465 87.9948 30.9084 87.9948 31.3901C87.9948 32.6746 88.8021 34.8422 90.6589 34.8422Z" fill="#F9F9F9"/>
<path d="M95.7448 28.6606L95.7931 28.7759L95.7448 28.5356V28.6606ZM87.4297 29.7042L87.3589 29.6007L87.3508 29.6073L87.4297 29.7042ZM90.3359 35.3239L90.4545 35.3637L90.5097 35.1989H90.3359V35.3239ZM90.7396 37.331L90.7499 37.4555L91.0196 37.4332L90.8277 37.2423L90.7396 37.331ZM90.4761 37.3518L90.4858 37.4764H90.4858L90.4761 37.3518ZM86.6224 38.2141L86.6781 38.326L86.6806 38.3247L86.6224 38.2141ZM93.6248 37.1237L93.7035 37.0265V37.0265L93.6248 37.1237ZM93.4844 37.0098L93.5635 36.9126L93.5558 36.9073L93.4844 37.0098ZM92.6771 36.4479L92.7485 36.3453L92.7462 36.3437L92.6771 36.4479ZM92.6771 34.6817L92.6038 34.5804L92.5959 34.5861L92.5889 34.593L92.6771 34.6817ZM92.9811 29.3538L92.9015 29.4502L92.9016 29.4503L92.9811 29.3538ZM92.9193 29.3028V29.1778H92.5714L92.8397 29.3992L92.9193 29.3028ZM94.2109 29.3028V29.4278H94.2361L94.2592 29.4181L94.2109 29.3028ZM88.7214 38.2141L88.6886 38.0932L88.682 38.0954L88.7214 38.2141ZM91.4661 37.8929L91.5376 37.7904L91.5054 37.7679H91.4661V37.8929ZM92.112 34.2803L92.0238 34.1916L92.112 34.2803ZM92.729 33.037L92.8507 33.0652V33.0652L92.729 33.037ZM92.7578 32.9155L92.879 32.946L92.8828 32.931V32.9155H92.7578ZM88.4792 29.9451L88.5679 30.0342L88.5766 30.0234L88.4792 29.9451ZM91.3047 28.7856H95.7448V28.5356H91.3047V28.7856ZM87.5002 29.8074C88.7614 28.9452 90.1844 28.7856 91.3047 28.7856V28.5356C90.1645 28.5356 88.6813 28.697 87.3591 29.601L87.5002 29.8074ZM86.1823 32.2732C86.1823 31.4348 86.6438 30.5048 87.5086 29.8012L87.3508 29.6073C86.4396 30.3487 85.9323 31.3454 85.9323 32.2732H86.1823ZM89.6094 35.1989C87.4112 35.1989 86.1823 33.7229 86.1823 32.2732H85.9323C85.9323 33.8742 87.2867 35.4489 89.6094 35.4489V35.1989ZM90.3359 35.1989H89.6094V35.4489H90.3359V35.1989ZM90.3489 35.6031C90.3843 35.5327 90.4243 35.4537 90.4545 35.3637L90.2174 35.2842C90.1938 35.3547 90.162 35.4184 90.1256 35.4908L90.3489 35.6031ZM90.2188 36.0465C90.2188 35.8644 90.2777 35.7449 90.3489 35.6031L90.1256 35.4908C90.0534 35.6345 89.9688 35.8004 89.9688 36.0465H90.2188ZM90.8277 37.2423C90.506 36.9224 90.2188 36.6335 90.2188 36.0465H89.9688C89.9688 36.744 90.3273 37.0973 90.6514 37.4196L90.8277 37.2423ZM90.4858 37.4764C90.5789 37.4692 90.6673 37.4624 90.7499 37.4555L90.7293 37.2064C90.6474 37.2132 90.5597 37.22 90.4665 37.2272L90.4858 37.4764ZM86.6806 38.3247C87.9099 37.6775 89.4773 37.5545 90.4858 37.4764L90.4665 37.2272C89.4671 37.3045 87.8467 37.4283 86.5642 38.1035L86.6806 38.3247ZM85.1328 40.6225C85.1328 39.9387 85.4362 38.9435 86.678 38.326L86.5667 38.1021C85.2253 38.7692 84.8828 39.8613 84.8828 40.6225H85.1328ZM89.6094 43.3074C88.0926 43.3074 86.969 42.9698 86.2285 42.466C85.4896 41.9633 85.1328 41.2968 85.1328 40.6225H84.8828C84.8828 41.3934 85.2929 42.1318 86.0879 42.6727C86.8813 43.2125 88.0584 43.5574 89.6094 43.5574V43.3074ZM95.1354 39.7394C95.1354 41.4833 93.2931 43.3074 89.6094 43.3074V43.5574C93.3528 43.5574 95.3854 41.6885 95.3854 39.7394H95.1354ZM93.5462 37.2209C94.3894 37.9029 95.1354 38.5129 95.1354 39.7394H95.3854C95.3854 38.3804 94.538 37.7015 93.7035 37.0265L93.5462 37.2209ZM93.4055 37.1068C93.4525 37.1451 93.4995 37.1831 93.5462 37.2209L93.7035 37.0265C93.6567 36.9887 93.61 36.9509 93.5633 36.9129L93.4055 37.1068ZM92.6057 36.5505L93.413 37.1124L93.5558 36.9073L92.7485 36.3453L92.6057 36.5505ZM91.987 35.6451C91.987 36.1203 92.3707 36.3947 92.608 36.5521L92.7462 36.3437C92.4991 36.1799 92.237 35.9726 92.237 35.6451H91.987ZM92.5889 34.593C92.4691 34.7123 92.3195 34.8606 92.2009 35.0321C92.0818 35.2044 91.987 35.4098 91.987 35.6451H92.237C92.237 35.479 92.3037 35.323 92.4065 35.1742C92.51 35.0246 92.6429 34.8919 92.7652 34.7703L92.5889 34.593ZM94.3281 31.9521C94.3281 33.3276 93.4946 33.9361 92.6038 34.5804L92.7503 34.783C93.6356 34.1427 94.5781 33.4668 94.5781 31.9521H94.3281ZM92.9016 29.4503C93.4097 29.8686 94.3281 30.6301 94.3281 31.9521H94.5781C94.5781 30.5015 93.5649 29.6725 93.0605 29.2573L92.9016 29.4503ZM92.8397 29.3992L92.9015 29.4502L93.0606 29.2574L92.9988 29.2064L92.8397 29.3992ZM94.2109 29.1778H92.9193V29.4278H94.2109V29.1778ZM95.6965 28.5453L94.1627 29.1875L94.2592 29.4181L95.7931 28.7759L95.6965 28.5453ZM90.6589 42.7546C91.6843 42.7546 92.499 42.5305 93.0612 42.1402C93.627 41.7474 93.9323 41.1885 93.9323 40.5422H93.6823C93.6823 41.1002 93.4225 41.585 92.9186 41.9348C92.4111 42.2871 91.6516 42.5046 90.6589 42.5046V42.7546ZM86.7396 40.2211C86.7396 40.9946 87.1525 41.6332 87.8472 42.0729C88.539 42.5106 89.5128 42.7546 90.6589 42.7546V42.5046C89.5444 42.5046 88.6212 42.2668 87.9809 41.8616C87.3436 41.4583 86.9896 40.8927 86.9896 40.2211H86.7396ZM88.682 38.0954C88.4385 38.1761 87.9567 38.342 87.535 38.667C87.11 38.9946 86.7396 39.4895 86.7396 40.2211H86.9896C86.9896 39.5879 87.3053 39.1596 87.6876 38.865C88.0733 38.5678 88.5198 38.4126 88.7607 38.3327L88.682 38.0954ZM90.9818 37.7679C90.8124 37.7679 89.5899 37.849 88.6886 38.0934L88.7541 38.3347C89.6288 38.0975 90.8283 38.0179 90.9818 38.0179V37.7679ZM91.4661 37.7679H90.9818V38.0179H91.4661V37.7679ZM93.9323 40.5422C93.9323 40.0208 93.7324 39.61 93.3326 39.1915C92.9387 38.7792 92.342 38.3504 91.5376 37.7904L91.3947 37.9955C92.2048 38.5595 92.7787 38.9736 93.1518 39.3642C93.5189 39.7484 93.6823 40.1003 93.6823 40.5422H93.9323ZM92.0238 34.1916C91.7259 34.4879 91.1933 34.7172 90.6589 34.7172V34.9672C91.2547 34.9672 91.8522 34.7149 92.2001 34.3689L92.0238 34.1916ZM92.6072 33.0089C92.5313 33.3372 92.4243 33.7934 92.0238 34.1916L92.2001 34.3689C92.6556 33.916 92.7743 33.3957 92.8507 33.0652L92.6072 33.0089ZM92.6366 32.885C92.6268 32.9238 92.6171 32.9657 92.6072 33.0089L92.8507 33.0652C92.8609 33.0215 92.87 32.982 92.879 32.946L92.6366 32.885ZM90.013 29.4278C90.8435 29.4278 91.4956 29.9333 91.9463 30.6348C92.3974 31.3369 92.6328 32.2166 92.6328 32.9155H92.8828C92.8828 32.1693 92.6339 31.2426 92.1566 30.4997C91.6789 29.7561 90.9585 29.1778 90.013 29.1778V29.4278ZM88.5766 30.0234C88.8691 29.6598 89.4736 29.4278 90.013 29.4278V29.1778C89.4222 29.1778 88.7351 29.4275 88.3818 29.8667L88.5766 30.0234ZM88.1198 31.3901C88.1198 30.9171 88.2003 30.3986 88.5673 30.0337L88.391 29.8564C87.9507 30.2943 87.8698 30.8998 87.8698 31.3901H88.1198ZM90.6589 34.7172C89.7874 34.7172 89.1562 34.2111 88.7369 33.5322C88.3161 32.851 88.1198 32.011 88.1198 31.3901H87.8698C87.8698 32.0538 88.0771 32.9399 88.5242 33.6636C88.9727 34.3896 89.6735 34.9672 90.6589 34.9672V34.7172Z" fill="#F9F9F9"/>
<path d="M112.052 29.4634L111.648 28.3394H111.406V29.7845H111.568V28.5L111.971 29.7845H112.133L112.617 28.5V29.7845H112.779V28.3394H112.456L112.052 29.4634Z" fill="#F9F9F9" stroke="#F9F9F9" stroke-width="0.25"/>
<path d="M110.034 28.5H110.518V29.7845H110.68V28.5H111.164V28.3394H110.034V28.5Z" fill="#F9F9F9" stroke="#F9F9F9" stroke-width="0.25"/>
<path fill-rule="evenodd" clip-rule="evenodd" d="M104.302 32.6746L102.687 32.7549C103.253 35.2436 105.109 36.6887 107.047 36.6084C108.096 36.6084 108.904 36.2873 109.63 35.9662L108.5 36.9296C108.379 36.9697 108.258 37.0299 108.137 37.0901C108.016 37.1503 107.895 37.2105 107.773 37.2507C107.047 37.5718 106.32 37.6521 105.674 37.6521C105.029 37.6521 103.979 37.6521 102.849 36.9296C101.315 35.9662 100.669 34.2803 100.669 32.8352C100.669 29.7845 103.414 28.3394 105.594 28.3394C106.32 28.3394 107.128 28.5 107.773 28.9014C108.873 29.5261 109.132 30.3027 109.294 30.788C109.298 30.8016 109.303 30.815 109.307 30.8281L104.302 32.6746ZM105.029 28.9817C104.221 28.9817 102.607 29.6239 102.607 31.7112C102.607 31.8155 102.615 31.9197 102.624 32.0267C102.642 32.2493 102.661 32.4838 102.607 32.7549L106.482 31.2296C106.885 31.069 107.128 30.9084 107.128 30.6676C107.128 29.8648 106.159 28.9817 105.029 28.9817Z" fill="#F9F9F9"/>
<path d="M102.687 32.7549L102.681 32.6301L102.533 32.6375L102.566 32.7826L102.687 32.7549ZM104.302 32.6746L104.308 32.7995L104.327 32.7985L104.345 32.7919L104.302 32.6746ZM107.047 36.6084V36.4833L107.042 36.4835L107.047 36.6084ZM109.63 35.9662L109.711 36.0613L109.58 35.8518L109.63 35.9662ZM108.5 36.9296L108.539 37.0482L108.562 37.0405L108.581 37.0247L108.5 36.9296ZM107.773 37.2507L107.734 37.1315L107.723 37.1364L107.773 37.2507ZM102.849 36.9296L102.916 36.8242L102.915 36.8237L102.849 36.9296ZM107.773 28.9014L107.707 29.0076L107.712 29.0101L107.773 28.9014ZM109.294 30.788L109.175 30.8276L109.175 30.8276L109.294 30.788ZM109.307 30.8281L109.351 30.9454L109.464 30.9034L109.426 30.7884L109.307 30.8281ZM102.624 32.0267L102.749 32.0165L102.624 32.0267ZM102.607 32.7549L102.484 32.7303L102.439 32.9553L102.653 32.8712L102.607 32.7549ZM106.482 31.2296L106.528 31.3459L106.528 31.3457L106.482 31.2296ZM102.694 32.8798L104.308 32.7995L104.296 32.5498L102.681 32.6301L102.694 32.8798ZM107.042 36.4835C105.176 36.5609 103.364 35.1687 102.809 32.7272L102.566 32.7826C103.141 35.3186 105.043 36.8166 107.052 36.7333L107.042 36.4835ZM109.58 35.8518C108.857 36.1714 108.069 36.4834 107.047 36.4834V36.7334C108.124 36.7334 108.951 36.4032 109.681 36.0805L109.58 35.8518ZM108.581 37.0247L109.711 36.0613L109.549 35.871L108.419 36.8344L108.581 37.0247ZM108.192 37.202C108.315 37.141 108.428 37.0851 108.539 37.0482L108.461 36.8109C108.33 36.8543 108.2 36.9188 108.081 36.9782L108.192 37.202ZM107.813 37.3693C107.944 37.3259 108.073 37.2614 108.192 37.202L108.081 36.9782C107.958 37.0392 107.845 37.0952 107.734 37.132L107.813 37.3693ZM105.674 37.7771C106.33 37.7771 107.076 37.6956 107.824 37.365L107.723 37.1364C107.018 37.448 106.31 37.5271 105.674 37.5271V37.7771ZM102.782 37.0349C103.944 37.778 105.025 37.7771 105.674 37.7771V37.5271C105.032 37.5271 104.014 37.5262 102.916 36.8242L102.782 37.0349ZM100.544 32.8352C100.544 34.3132 101.204 36.0443 102.782 37.0354L102.915 36.8237C101.426 35.8881 100.794 34.2473 100.794 32.8352H100.544ZM105.594 28.2144C104.479 28.2144 103.22 28.5833 102.238 29.3445C101.251 30.1084 100.544 31.2674 100.544 32.8352H100.794C100.794 31.3523 101.459 30.2634 102.391 29.5421C103.325 28.8181 104.529 28.4644 105.594 28.4644V28.2144ZM107.839 28.7952C107.168 28.378 106.336 28.2144 105.594 28.2144V28.4644C106.305 28.4644 107.087 28.6219 107.707 29.0076L107.839 28.7952ZM109.412 30.7484C109.331 30.5053 109.222 30.1756 108.989 29.8275C108.756 29.4782 108.402 29.1146 107.835 28.7927L107.712 29.0101C108.245 29.3129 108.57 29.6499 108.781 29.9664C108.994 30.2841 109.094 30.5854 109.175 30.8276L109.412 30.7484ZM109.426 30.7884C109.421 30.7754 109.417 30.7621 109.412 30.7484L109.175 30.8276C109.18 30.8412 109.184 30.8546 109.189 30.8679L109.426 30.7884ZM104.345 32.7919L109.351 30.9454L109.264 30.7109L104.259 32.5574L104.345 32.7919ZM102.732 31.7112C102.732 30.704 103.119 30.057 103.595 29.6596C104.076 29.2582 104.652 29.1067 105.029 29.1067V28.8567C104.598 28.8567 103.963 29.0263 103.435 29.4678C102.901 29.9134 102.482 30.6312 102.482 31.7112H102.732ZM102.749 32.0165C102.74 31.9086 102.732 31.8095 102.732 31.7112H102.482C102.482 31.8214 102.491 31.9308 102.499 32.0368L102.749 32.0165ZM102.729 32.7796C102.788 32.4891 102.767 32.2384 102.749 32.0165L102.499 32.0368C102.518 32.2601 102.535 32.4784 102.484 32.7303L102.729 32.7796ZM106.436 31.1132L102.561 32.6386L102.653 32.8712L106.528 31.3459L106.436 31.1132ZM107.003 30.6676C107.003 30.7385 106.97 30.8064 106.877 30.8817C106.782 30.9595 106.635 31.0342 106.436 31.1134L106.528 31.3457C106.732 31.2644 106.909 31.1785 107.035 31.0756C107.164 30.9703 107.253 30.8375 107.253 30.6676H107.003ZM105.029 29.1067C105.562 29.1067 106.058 29.3153 106.422 29.6194C106.787 29.9256 107.003 30.315 107.003 30.6676H107.253C107.253 30.2174 106.984 29.7638 106.582 29.4277C106.178 29.0896 105.626 28.8567 105.029 28.8567V29.1067Z" fill="#F9F9F9"/>
<path d="M98.974 35.8859V24.807C98.974 24.7267 98.974 24.7267 98.974 24.6465C99.0547 23.9239 99.2969 23.8436 99.9427 23.5225H96.875L95.2604 24.2451H96.875V36.2873C96.875 36.6887 96.7943 36.769 96.3099 37.331H100.104L100.911 36.9296C100.508 36.8493 100.185 36.8493 99.7813 36.8493C99.1354 36.769 98.974 36.6084 98.974 35.8859Z" fill="#F9F9F9" stroke="#F9F9F9" stroke-width="0.25"/>
<path fill-rule="evenodd" clip-rule="evenodd" d="M70.7188 17.9831C70.7188 18.6253 70.4766 19.1873 70.0729 19.669C69.5886 20.1507 69.0234 20.3113 68.3776 20.3113C67.7318 20.3113 67.1667 20.0704 66.763 19.669C66.3594 19.2676 66.1172 18.7859 66.1172 18.1437C66.1172 17.5014 66.3594 16.9394 66.763 16.4577C67.2474 15.9761 67.8125 15.8155 68.4583 15.8155C69.1042 15.8155 69.6693 16.0563 70.0729 16.4577C70.4766 16.8592 70.7188 17.3408 70.7188 17.9831ZM50.7787 20.231H49.6484C49.6484 20.0704 49.5677 19.669 49.3255 19.0268H47.6302C47.388 19.669 47.3073 20.0704 47.3073 20.231H46.1771C46.1771 20.1507 46.4193 19.4282 46.9844 18.1437C47.5495 16.8592 47.7917 16.1366 47.7917 15.9761H49.2448C49.2448 16.1072 49.4063 16.5594 49.7292 17.4638C49.8018 17.6671 49.8825 17.8932 49.9714 18.1437C50.1086 18.485 50.233 18.7876 50.3406 19.0496L50.3407 19.0498L50.3407 19.0498C50.6129 19.7124 50.7787 20.1159 50.7787 20.231ZM49.0833 18.3845C48.9824 18.1035 48.8916 17.8526 48.8121 17.6331L48.8121 17.6331L48.8121 17.6331L48.8121 17.6331L48.8121 17.633L48.8121 17.633L48.8121 17.633C48.5737 16.9745 48.4375 16.5982 48.4375 16.538H48.3568C48.3568 16.5982 48.2206 16.9746 47.9821 17.6331L47.9821 17.6331L47.9821 17.6332C47.9027 17.8527 47.8119 18.1035 47.7109 18.3845H49.0833ZM54.4922 20.231H55.3802C55.3802 19.5084 55.3802 18.7859 55.2995 17.9831C55.2995 17.546 55.3234 17.1565 55.3452 16.8016V16.8016V16.8016V16.8016C55.3635 16.5047 55.3802 16.232 55.3802 15.9761H54.4922C54.5729 16.6183 54.5729 17.2606 54.5729 17.8225C54.5729 18.1437 54.5729 18.6253 54.6537 19.107H54.5729C54.4115 18.7859 54.0886 18.2239 53.4427 17.3408C52.8776 16.538 52.5547 16.0563 52.5547 15.9761H51.5052C51.5859 16.538 51.5859 17.1803 51.5859 17.9831C51.5859 18.4069 51.5635 18.8307 51.5422 19.2308C51.5232 19.5887 51.5052 19.9278 51.5052 20.231H52.3932C52.3125 19.4282 52.3125 18.7859 52.3125 18.2239C52.3125 17.8225 52.3125 17.4211 52.2318 16.9394H52.3125C52.3932 17.2606 52.7969 17.9028 53.5234 18.7859C54.1693 19.669 54.4922 20.1507 54.4922 20.231ZM60.6276 17.9028C60.6276 18.5451 60.3854 19.107 59.9818 19.5084C59.5781 19.9901 58.9323 20.231 58.125 20.231H56.6719C56.6719 19.9278 56.6899 19.5888 56.7089 19.2308L56.7089 19.2308C56.7301 18.8307 56.7526 18.4069 56.7526 17.9831C56.7526 17.1803 56.7526 16.538 56.6719 15.9761H57.3177H57.8021H58.2057C59.0938 15.9761 59.7396 16.1366 60.0625 16.538C60.4662 16.9394 60.6276 17.3408 60.6276 17.9028ZM59.2552 17.0197C59.4974 17.2606 59.6589 17.662 59.6589 18.0634C59.6589 18.4648 59.5781 18.8662 59.2552 19.1873C59.013 19.4282 58.6094 19.5887 58.125 19.5887C58.0443 19.5887 57.9636 19.5687 57.8828 19.5486C57.8021 19.5285 57.7214 19.5084 57.6406 19.5084V17.9831V16.6183H58.0443C58.6094 16.6183 59.013 16.6986 59.2552 17.0197ZM65.4714 20.231H64.4219C64.1797 19.4282 63.9375 18.9465 63.7761 18.7859C63.6146 18.6253 63.3724 18.5451 63.0495 18.5451H62.6458V20.231H61.6771C61.6771 19.9278 61.6951 19.5888 61.7141 19.2308L61.7141 19.2308C61.7353 18.8307 61.7578 18.4069 61.7578 17.9831C61.7578 17.1803 61.7578 16.538 61.6771 15.9761H62.3229H62.8073H63.4531C64.5833 15.9761 65.1484 16.2972 65.1484 17.0197C65.1484 17.5817 64.8255 17.9831 64.1797 18.1437V18.2239C64.4219 18.3042 64.6641 18.4648 64.8255 18.7056C64.8524 18.7859 64.9063 18.893 64.975 19.0297C65.1126 19.3033 65.3099 19.6958 65.4714 20.231ZM63.2917 16.538C63.8568 16.538 64.1797 16.7789 64.1797 17.1803C64.1797 17.662 63.7761 17.9028 63.0495 17.9831H62.7266V16.6183C62.888 16.538 63.0495 16.538 63.2917 16.538ZM69.2656 16.9394C69.5078 17.2606 69.6693 17.5817 69.6693 18.0634C69.6693 18.5451 69.5886 18.8662 69.2656 19.1873C69.0234 19.4282 68.7005 19.5887 68.3776 19.5887C67.974 19.5887 67.6511 19.5084 67.4089 19.1873C67.1667 18.8662 67.0052 18.5451 67.0052 18.0634C67.0052 17.5817 67.1667 17.2606 67.4089 16.9394C67.6511 16.6986 67.974 16.538 68.2969 16.538C68.7005 16.538 69.0234 16.6183 69.2656 16.9394ZM72.737 20.231H71.6875C71.6875 19.9278 71.7055 19.5888 71.7245 19.2309L71.7245 19.2308L71.7245 19.2307C71.7457 18.8306 71.7682 18.4068 71.7682 17.9831C71.7682 17.1803 71.7682 16.538 71.6875 15.9761H72.737C72.737 16.2321 72.7202 16.5047 72.702 16.8016C72.6802 17.1565 72.6563 17.546 72.6563 17.9831C72.6563 18.3949 72.6775 18.7856 72.6982 19.1659V19.166V19.166V19.1661V19.1661V19.1662V19.1662V19.1663V19.1663V19.1664V19.1664V19.1665C72.7179 19.5275 72.737 19.8792 72.737 20.231ZM77.3386 19.5084C77.7422 19.107 77.9844 18.5451 77.9844 17.9028C77.9844 17.3408 77.8229 16.9394 77.4193 16.538C77.0964 16.1366 76.4505 15.9761 75.5625 15.9761H75.1589H74.6745H74.0287C74.1094 16.538 74.1094 17.1803 74.1094 17.9831C74.1094 18.4068 74.0869 18.8306 74.0657 19.2307L74.0656 19.2308L74.0656 19.2309C74.0466 19.5888 74.0287 19.9278 74.0287 20.231H75.4818C76.2891 20.231 76.9349 19.9901 77.3386 19.5084ZM77.0156 18.0634C77.0156 17.662 76.8542 17.2606 76.612 17.0197C76.3698 16.6986 75.9662 16.6183 75.4011 16.6183H74.9974V17.9831V19.5084C75.0781 19.5084 75.1589 19.5285 75.2396 19.5486C75.3203 19.5687 75.4011 19.5887 75.4818 19.5887C75.9662 19.5887 76.3698 19.4282 76.612 19.1873C76.8542 18.8662 77.0156 18.4648 77.0156 18.0634ZM83.7969 20.231H84.9271C84.9271 20.0704 84.6849 19.3479 84.1198 18.1437C84.031 17.8934 83.9503 17.6675 83.8778 17.4643L83.8776 17.4638L83.8775 17.4635C83.5547 16.5593 83.3932 16.1071 83.3932 15.9761H82.0208C82.0208 16.1366 81.7787 16.8592 81.2136 18.1437C80.6484 19.4282 80.4063 20.1507 80.4063 20.231H81.4557C81.4557 20.0704 81.5365 19.669 81.7787 19.0268H83.474C83.7162 19.669 83.7969 20.0704 83.7969 20.231ZM83.3125 18.3845C83.2116 18.1035 83.1208 17.8526 83.0413 17.6331L83.0413 17.633L83.0412 17.6329C82.8029 16.9745 82.6667 16.5982 82.6667 16.538H82.5859C82.5859 16.5982 82.4497 16.9745 82.2114 17.6329L82.2113 17.633L82.2113 17.6331C82.1319 17.8526 82.041 18.1035 81.9401 18.3845H83.3125ZM88.5599 18.1437C88.9636 17.9028 89.2057 17.5817 89.2057 17.0197C89.2057 16.6986 89.0443 16.3775 88.5599 16.2169C88.237 15.9761 87.9141 15.8958 87.4297 15.8958H86.7839H86.2995H85.6537C85.7344 16.4577 85.7344 17.1 85.7344 17.9028C85.7344 18.3793 85.7109 18.8091 85.6892 19.2047V19.2048V19.2048V19.2049V19.2049V19.205V19.205L85.6892 19.2053C85.6708 19.5426 85.6537 19.8552 85.6537 20.1507H86.7031V18.5451H86.9453C87.5912 18.5451 88.1563 18.3845 88.5599 18.1437ZM88.237 17.2606C88.237 16.7789 87.9141 16.538 87.1875 16.538C87.0261 16.538 86.8646 16.538 86.6224 16.6183V18.0634H86.8646C87.8333 17.9831 88.237 17.7423 88.237 17.2606ZM92.8386 18.1437C93.2422 17.9028 93.4844 17.5817 93.4844 17.0197C93.4844 16.6986 93.4037 16.3775 92.8386 16.2169C92.5156 15.9761 92.1927 15.8958 91.7083 15.8958H91.0625H90.5781H89.9323C90.013 16.4577 90.013 17.1 90.013 17.9028C90.013 18.3794 89.9895 18.8092 89.9679 19.2048V19.2049V19.2049V19.205V19.205L89.9679 19.2053C89.9494 19.5426 89.9323 19.8552 89.9323 20.1507H90.9818V18.5451H91.224C91.8698 18.5451 92.4349 18.3845 92.8386 18.1437ZM92.5964 17.2606C92.5964 16.7789 92.2734 16.538 91.5469 16.538C91.3854 16.538 91.224 16.538 90.9818 16.6183V18.0634H91.224C92.112 17.9831 92.5964 17.7423 92.5964 17.2606ZM99.9427 19.669C100.346 19.1873 100.589 18.6253 100.589 17.9831C100.589 17.3408 100.427 16.8592 99.9427 16.4577C99.5391 16.0563 98.974 15.8155 98.3281 15.8155C97.6823 15.8155 97.1172 15.9761 96.6328 16.4577C96.2292 16.9394 95.987 17.5014 95.987 18.1437C95.987 18.7859 96.2292 19.2676 96.6328 19.669C97.0365 20.0704 97.6016 20.3113 98.2474 20.3113C98.8932 20.3113 99.4583 20.1507 99.9427 19.669ZM99.6198 18.0634C99.6198 17.5817 99.4583 17.2606 99.2162 16.9394C98.974 16.6183 98.6511 16.538 98.2474 16.538C97.9245 16.538 97.6016 16.6986 97.3594 16.9394C97.1172 17.2606 96.9557 17.5817 96.9557 18.0634C96.9557 18.5451 97.1172 18.8662 97.3594 19.1873C97.6016 19.5084 97.9245 19.5887 98.3281 19.5887C98.6511 19.5887 98.974 19.4282 99.2162 19.1873C99.5391 18.8662 99.6198 18.5451 99.6198 18.0634ZM104.625 20.231H105.513C105.513 19.5084 105.513 18.7859 105.432 17.9831C105.432 17.546 105.456 17.1565 105.478 16.8016C105.496 16.5047 105.513 16.2321 105.513 15.9761H104.625C104.706 16.6183 104.706 17.2606 104.706 17.8225C104.706 18.1437 104.706 18.6253 104.786 19.107H104.706C104.544 18.7859 104.221 18.2239 103.576 17.3408C103.01 16.538 102.688 16.0563 102.688 15.9761H101.638C101.719 16.538 101.719 17.1803 101.719 17.9831C101.719 18.4069 101.696 18.8307 101.675 19.2308C101.656 19.5887 101.638 19.9278 101.638 20.231H102.526C102.445 19.4282 102.445 18.7859 102.445 18.2239C102.445 17.8225 102.445 17.4211 102.365 16.9394H102.445C102.526 17.2606 102.93 17.9028 103.656 18.7859C104.302 19.669 104.625 20.1507 104.625 20.231Z" fill="#F9F9FA"/>
<defs>
<linearGradient id="paint0_linear" x1="6.87799" y1="10.8892" x2="6.87799" y2="45.5261" gradientUnits="userSpaceOnUse">
<stop stop-color="#257CB0"/>
<stop offset="0.286" stop-color="#4A93B5"/>
<stop offset="0.767" stop-color="#78BCBB"/>
<stop offset="1" stop-color="#89CFBD"/>
</linearGradient>
<linearGradient id="paint1_linear" x1="6.903" y1="28.2581" x2="31.341" y2="28.2581" gradientUnits="userSpaceOnUse">
<stop stop-color="#52C1AD"/>
<stop offset="1" stop-color="#DEE89A"/>
</linearGradient>
<linearGradient id="paint2_linear" x1="6.9715" y1="28.207" x2="6.9715" y2="45.6513" gradientUnits="userSpaceOnUse">
<stop stop-color="#EC413D"/>
<stop offset="0.167" stop-color="#DA4452"/>
<stop offset="0.575" stop-color="#B0487A"/>
<stop offset="0.862" stop-color="#954A92"/>
<stop offset="1" stop-color="#8A4A9D"/>
</linearGradient>
<linearGradient id="paint3_linear" x1="26.1815" y1="23.5566" x2="26.1815" y2="32.8598" gradientUnits="userSpaceOnUse">
<stop stop-color="#F58879"/>
<stop offset="0.119" stop-color="#F69079"/>
<stop offset="0.713" stop-color="#FCB877"/>
<stop offset="1" stop-color="#FEC874"/>
</linearGradient>
</defs>
</svg>
