<svg width="155" height="57" viewBox="0 0 155 57" fill="none" xmlns="http://www.w3.org/2000/svg">
<path d="M19.8368 29.2225L21.2021 30.0254C21.2824 30.0254 21.3627 30.0254 21.443 30.0254C21.5233 30.0254 21.6839 30.0254 21.7643 30.1056L22.8083 29.6239L19.8368 29.2225Z" fill="#8F3434"/>
<path d="M20.158 34.0394C20.158 33.8789 20.2383 33.7986 20.399 33.638C20.399 33.638 20.4793 33.5578 20.5596 33.5578L20.7202 32.6747L19.1943 34.5211L20.158 34.0394Z" fill="#8F3434"/>
<path d="M21.1218 23.362L22.2461 24.2451L23.2098 23.362H21.1218Z" fill="#8F3434"/>
<path d="M39.0311 10.5972L40.9586 11.0789L42.4042 10.5972L38.6295 10.1155C38.7099 10.1958 38.7099 10.276 38.7099 10.4366L39.0311 10.5972Z" fill="#8F3434"/>
<path d="M22.5673 28.4197C22.3264 28.4197 22.0855 28.2591 21.9249 28.0986L20.5596 28.2591L22.9689 28.5803L22.728 28.3394C22.728 28.4197 22.6477 28.4197 22.5673 28.4197Z" fill="#8F3434"/>
<path d="M24.4948 37.8929L24.4145 42.3084H24.4948L24.8964 40.6225C24.8161 40.5422 24.8161 40.3817 24.8161 40.3014C24.8161 40.1408 24.8161 39.9803 24.8964 39.9L24.4948 37.8929Z" fill="#8F3434"/>
<path fill-rule="evenodd" clip-rule="evenodd" d="M34.0518 43.4324V43.6732L34.6943 44.6366L35.0155 44.8775V44.7972C35.0155 44.7631 35.0155 44.7434 35.0217 44.726C35.03 44.7024 35.0497 44.6828 35.0958 44.6366V44.5563V44.476L37.1839 42.7098V42.6296C37.1839 42.1479 37.5855 41.7465 38.0673 41.7465L38.7098 40.8634L38.5492 37.9732C38.3886 37.8127 38.3083 37.6521 38.3083 37.4113C38.3083 37.0098 38.6295 36.6887 39.0311 36.6887L39.3523 36.2873C39.3523 35.8859 39.6736 35.5648 40.1554 35.5648H40.3964L40.7176 34.0394L40.0751 32.8352C39.7539 32.7549 39.4326 32.4338 39.4326 32.0324C39.4326 31.7915 39.5129 31.5507 39.6736 31.3901C39.7137 31.35 39.7739 31.3099 39.8342 31.2697L39.8342 31.2697L39.8342 31.2697L39.8342 31.2697L39.8342 31.2697C39.8945 31.2295 39.9547 31.1894 39.9948 31.1493L40.557 29.3831C40.557 29.3028 40.6373 29.2225 40.7176 29.1422L40.8782 28.9817L42.7254 27.6972C42.7254 27.376 42.886 27.1352 43.1269 26.9746L43.2072 25.1282C43.2072 24.9676 43.2876 24.807 43.3679 24.7267L44.4119 23.8436L43.8497 24.0042H43.6891C43.5285 24.0042 43.3679 23.9239 43.2072 23.7634L40.6373 19.669L39.4326 18.8662L34.2927 21.676C34.2927 21.9169 34.2124 22.238 33.9715 22.3986C33.7306 22.5591 33.4896 22.7197 33.2487 22.7197C32.9274 22.7197 32.6865 22.6394 32.5259 22.3986C32.3653 22.238 32.2046 21.9169 32.2046 21.676L27.0648 18.9465C27.0648 18.9465 26.9844 18.9465 26.9844 18.8662L26.9041 18.7859L26.4223 18.0634L24.8964 17.1803C24.8964 19.107 24.8964 21.4352 24.9767 22.4789L25.057 22.5591C25.2176 22.7197 25.2979 22.8803 25.2979 23.1211C25.2979 23.362 25.2176 23.5225 25.057 23.6831C24.8964 23.8436 24.6554 23.9239 24.4145 23.9239L22.728 25.4493L22.9689 27.0549C23.0091 27.0951 23.0492 27.1151 23.0894 27.1352C23.1295 27.1553 23.1697 27.1753 23.2098 27.2155C23.3705 27.376 23.4508 27.6169 23.4508 27.8577V27.938L24.4145 28.9014H24.4948C24.7357 28.9014 24.9767 28.9817 25.1373 29.1422C25.4585 29.4634 25.4585 30.0253 25.1373 30.3465L25.057 30.4267L25.1373 34.9225C25.1373 35.0028 25.1373 35.0831 25.057 35.1634L24.5751 36.1267H24.6554C24.8964 36.1267 25.057 36.207 25.2176 36.3676C25.3782 36.5282 25.4585 36.6887 25.4585 36.9296C25.4585 37.0901 25.3782 37.2507 25.2979 37.331L25.8601 39.8197C26.101 39.9803 26.1813 40.1408 26.1813 40.3817L26.9844 41.0239H27.0648H27.1451C27.5466 41.0239 27.9482 41.3451 27.9482 41.8267V42.0676L29.4741 43.8338L29.9559 44.2352L32.2046 43.4324C32.2046 43.3521 32.285 43.2718 32.3653 43.1915C32.5259 43.031 32.6865 42.9507 32.9274 42.9507H33.0078C33.6502 42.6296 33.9715 42.9507 34.0518 43.4324ZM37.5052 24.1648L41.601 24.0845L38.5492 26.2521L37.1839 26.0915L36.6217 26.8944L36.0596 29.7845L35.8186 26.4929L37.5052 24.1648ZM24.7357 24.0042L27.7876 26.2521L29.1528 25.931L30.0363 27.0549V25.6901L28.8316 24.0845L24.7357 24.0042ZM28.9922 37.331L29.0725 36.0465L29.8756 36.1267L32.9274 34.0394V32.5944L29.7953 30.9887L30.2772 30.5873L33.1684 30.8282L36.0596 30.5873L36.5414 30.9887L33.4093 32.5944V34.0394L36.4611 36.1267L37.2642 36.0465L37.3445 37.331L34.5337 35.4845H33.1684H31.8031L28.9922 37.331ZM33.1684 39.2577L31.7228 40.462H34.614L33.1684 39.2577Z" fill="#8F3434"/>
<path d="M26.5026 41.5859L25.9404 41.1042L25.6995 41.9873L26.2617 41.907L26.4223 41.6662C26.5026 41.6662 26.5026 41.6662 26.5026 41.5859C26.5026 41.6662 26.5026 41.6662 26.5026 41.5859Z" fill="#8F3434"/>
<path d="M20.6399 30.9887L17.7487 29.2225V29.8648L17.6684 34.6014L20.6399 30.9887Z" fill="#8F3434"/>
<path d="M22.1658 31.1493L22.6477 32.9958L22.8083 32.7549L23.2902 31.631C23.1295 31.3098 23.2098 30.9887 23.4508 30.7479C23.5311 30.6676 23.6114 30.5873 23.6917 30.5873L23.772 30.3465L22.1658 31.1493C22.1658 31.1493 22.1658 31.069 22.1658 31.1493Z" fill="#8F3434"/>
<path d="M19.6762 24.0042L19.5155 24.3253L18.2306 27.5366L21.6839 27.0549L19.6762 24.0042Z" fill="#8F3434"/>
<path d="M29.0725 9.1521L21.443 10.7577L27.8679 10.1958L29.0725 9.1521Z" fill="#8F3434"/>
<path d="M44.7332 13.3268L45.2953 14.0493L44.2513 10.9986H44.171C43.8497 11.1592 43.3679 11.3197 42.8057 11.4803L44.2513 11.8014L44.7332 13.3268Z" fill="#8F3434"/>
<path d="M51.9611 23.4422L51.7202 23.2817L51.399 24.5662L52.2021 26.4929L52.8446 27.1352L52.3627 24.0042C52.1218 23.9239 51.9611 23.6831 51.9611 23.4422Z" fill="#8F3434"/>
<path d="M51.8005 32.7549C51.9611 32.6746 52.1218 32.5944 52.2824 32.5944L53.6477 30.9084L53.487 30.1056L51.8005 32.7549Z" fill="#8F3434"/>
<path fill-rule="evenodd" clip-rule="evenodd" d="M54.1295 28.0986C54.2901 28.1789 54.3705 28.4197 54.3705 28.5803C54.3705 28.7408 54.2901 28.9817 54.0492 29.3831C54.0091 29.3831 53.989 29.4032 53.9689 29.4232C53.9488 29.4433 53.9287 29.4634 53.8886 29.4634L54.2098 31.3099C54.2098 31.35 54.1898 31.3701 54.1697 31.3901C54.1496 31.4102 54.1295 31.4303 54.1295 31.4704L52.5233 33.3972C52.6036 33.4775 52.6036 33.5577 52.6036 33.638C52.6036 33.7986 52.5233 33.9591 52.443 34.0394L52.3627 34.1197L52.7642 37.8127L49.5518 40.7028C49.6321 40.7831 49.6321 40.8634 49.6321 40.9437C49.6321 41.2648 49.3912 41.5056 49.0699 41.5056L48.1865 43.7535C48.1865 43.7868 48.2003 43.82 48.2164 43.859C48.2393 43.9141 48.2668 43.9806 48.2668 44.0746C48.2668 44.3958 48.0259 44.6366 47.7047 44.6366C47.6243 44.6366 47.4637 44.6366 47.3834 44.5563L39.3523 48.4099L38.6295 49.4535C38.6295 49.5338 38.5492 49.5338 38.4689 49.5338L33.1684 49.6141L31 49.5338C30.9197 49.5338 30.9197 49.6141 30.9197 49.6141C30.8394 49.6944 30.7591 49.7746 30.5984 49.7746C30.3575 49.7746 30.1969 49.6141 30.1166 49.4535L21.443 48.8113L21.3627 48.8915C21.2824 48.9718 21.2021 49.0521 21.0414 49.0521C20.8005 49.0521 20.6399 48.8915 20.5596 48.731L12.8497 48.4901C12.8096 48.4901 12.7895 48.5102 12.7694 48.5303C12.7493 48.5503 12.7293 48.5704 12.6891 48.5704C12.6088 48.6507 12.5285 48.6507 12.4482 48.6507C12.2072 48.6507 12.0466 48.5704 11.9663 48.4099C11.886 48.2493 11.886 48.169 11.886 48.0084C11.886 47.8858 11.9797 47.81 12.0598 47.7452C12.0845 47.7252 12.108 47.7063 12.1269 47.6873C12.2072 47.607 12.2876 47.607 12.3679 47.607C12.408 47.607 12.4482 47.6271 12.4883 47.6472C12.5285 47.6672 12.5686 47.6873 12.6088 47.6873L17.0259 45.9211L16.9456 36.6084L16.785 36.4479C16.7635 36.4049 16.7419 36.3676 16.722 36.333L16.722 36.333C16.6674 36.2385 16.6243 36.164 16.6243 36.0465C16.6243 35.8859 16.7047 35.7253 16.785 35.6451C16.785 35.5648 16.8653 35.4845 16.9456 35.4845L17.0259 29.7042L17.1062 28.6606C17.0721 28.6606 17.0525 28.6606 17.035 28.6544C17.0114 28.6461 16.9918 28.6264 16.9456 28.5803C16.9241 28.5373 16.9026 28.5 16.8826 28.4654C16.828 28.3709 16.785 28.2964 16.785 28.1789C16.785 28.0183 16.8653 27.8577 16.9456 27.7775C16.9456 27.7775 17.0259 27.6972 17.1062 27.6972V14.531L17.0259 14.4507C16.9456 14.3704 16.8653 14.2901 16.8653 14.2098L12.1269 11.8014C12.0839 11.8229 12.0466 11.8444 12.012 11.8644C11.9175 11.9189 11.843 11.962 11.7254 11.962C11.4041 11.962 11.1632 11.7211 11.1632 11.4C11.1632 11.0789 11.4041 10.838 11.7254 10.838C11.9663 10.838 12.1269 10.9986 12.2072 11.1591L16.1425 11.0789C16.2228 10.9183 16.3834 10.7577 16.6243 10.7577C16.785 10.7577 16.9456 10.838 17.0259 10.9183L31 8.02816V8.10844L32.2047 7.06478V6.9845C32.2047 6.74365 32.4456 6.50281 32.6865 6.50281C32.9275 6.50281 33.1684 6.74365 33.1684 6.9845V7.06478L34.0518 7.62675H35.899V7.54647C35.9793 7.46619 36.1399 7.38591 36.2202 7.38591C36.3808 7.38591 36.6218 7.54647 36.6218 7.78731C36.6753 7.84084 36.6575 7.89436 36.6396 7.94788C36.6307 7.97464 36.6218 8.0014 36.6218 8.02816L37.3446 9.23239L44.171 10.0352C44.2513 9.95492 44.4119 9.87464 44.4922 9.87464C44.6528 9.87464 44.8938 10.0352 44.8938 10.276C44.8938 10.3563 44.8938 10.4366 44.8135 10.5169L46.6606 16.0563C46.7409 16.0563 46.8212 16.1366 46.9016 16.2169C46.9819 16.2972 47.0622 16.4577 47.0622 16.6183L51.4793 18.9465C51.5223 18.925 51.5596 18.9034 51.5942 18.8835C51.6887 18.8289 51.7632 18.7859 51.8808 18.7859C52.2021 18.7859 52.443 19.0268 52.443 19.3479C52.443 19.5887 52.3627 19.7493 52.2021 19.8296L52.7642 22.8803C53.0052 22.9606 53.1658 23.1211 53.1658 23.362C53.1658 23.5225 53.0855 23.6831 52.9249 23.7634L53.728 27.938C53.8886 27.938 54.0492 28.0183 54.1295 28.0986ZM53.3264 27.938H53.4067L52.6839 23.8437C52.5233 23.7634 52.3627 23.6028 52.3627 23.362V23.2817L47.9456 19.9901C47.9054 19.9901 47.8653 20.0102 47.8251 20.0303C47.785 20.0503 47.7448 20.0704 47.7047 20.0704L47.3834 21.5958C47.544 21.676 47.6243 21.8366 47.6243 22.0775C47.6243 22.1176 47.6043 22.1577 47.5842 22.1979C47.5641 22.238 47.544 22.2782 47.544 22.3183L53.3264 27.938ZM39.3523 37.6521L44.8938 41.1845V41.3451L38.7098 42.3084V42.2282L39.5933 40.9437V40.7831L39.3523 37.6521ZM39.5129 37.1704V37.331L45.0544 40.8634L43.7694 38.6155H43.6891C43.3679 38.6155 43.1269 38.3746 43.1269 38.0535L40.4767 36.5282C40.3964 36.6084 40.3161 36.6084 40.2357 36.6084H40.0751L39.5129 37.1704ZM44.171 38.3746C44.2513 38.2944 44.3316 38.1338 44.3316 37.9732C44.3316 37.6521 44.0907 37.4113 43.7694 37.4113H43.6891L42.6451 35.4845C42.7254 35.4042 42.7254 35.3239 42.7254 35.2437C42.7254 35.1634 42.7254 35.0831 42.6451 35.0028L44.6528 31.4704L45.456 40.462L44.171 38.3746ZM42.6451 19.7493C42.4041 19.7493 42.1632 19.5084 42.1632 19.1873L40.8782 18.3042L43.8497 23.0408L46.4197 22.1577V21.9972L42.886 19.669C42.8057 19.7493 42.7254 19.7493 42.6451 19.7493ZM40.7176 17.7422L43.2072 16.9394C43.2876 17.0197 43.4482 17.1 43.6088 17.1C43.7694 17.1 43.93 17.0197 44.0104 16.9394C44.041 16.9088 44.06 16.8781 44.0762 16.8519C44.1024 16.8095 44.1213 16.7789 44.171 16.7789H45.9378L42.9663 18.8662C42.886 18.7859 42.8057 18.7859 42.7254 18.7859C42.6451 18.7859 42.5648 18.7859 42.4845 18.8662L40.7176 17.7422ZM44.2513 27.7775L44.171 27.8577C44.0907 28.0183 43.93 28.0183 43.7694 28.0183C43.6891 28.0183 43.5285 28.0183 43.4482 27.938L41.9223 28.9817L45.3756 28.8211L47.4637 28.7408L51.3186 28.5803L44.2513 27.7775ZM43.93 26.6535L44.0104 24.9676L46.1787 23.1211L43.93 26.6535ZM48.6684 29.7042L51.7202 28.9817L41.4404 29.5437L40.8782 31.2296L40.7979 31.4704C40.8381 31.5106 40.8582 31.5507 40.8782 31.5908C40.8983 31.631 40.9184 31.6711 40.9585 31.7113L44.0907 30.9084C44.171 30.5873 44.3316 30.3465 44.6528 30.3465C44.8135 30.3465 45.0544 30.4268 45.1347 30.5873L48.6684 29.7042ZM40.7979 32.1929C40.8381 32.1528 40.8582 32.1127 40.8782 32.0725C40.8983 32.0324 40.9184 31.9922 40.9585 31.9521L44.171 31.1493L44.2513 31.2296L43.2876 32.9155L42.2435 34.8422H42.1632H42.0829L40.6373 32.2732C40.7359 32.2732 40.7739 32.2732 40.7887 32.2547C40.7979 32.243 40.7979 32.224 40.7979 32.1929ZM45.215 30.9887C45.215 31.1493 45.1347 31.3098 44.9741 31.3901L45.5363 37.9732L45.7772 40.6225H45.9378L53.2461 29.1422H53.1658L53.0855 29.062L45.215 30.9887ZM51.8808 19.9901L52.443 22.9606L48.1062 19.7493C48.4814 19.7493 48.9969 19.7318 49.5462 19.7131L49.5463 19.7131C50.1726 19.6918 50.8427 19.669 51.399 19.669C51.4638 19.7986 51.6334 19.8759 51.7808 19.9432C51.816 19.9592 51.8499 19.9747 51.8808 19.9901ZM51.2383 19.2676L47.0622 17.0197C47.0343 17.0197 47.0161 17.0197 47.0009 17.0264C46.9722 17.0391 46.954 17.0754 46.9016 17.1803L47.0622 19.2676C47.1425 19.107 47.3834 19.0268 47.544 19.0268C47.785 19.0268 48.0259 19.107 48.1062 19.3479H48.2668C48.5881 19.2676 49.1503 19.2676 49.7927 19.2676H51.2383ZM47.2228 19.9901L47.1425 20.4718V19.9099C47.1425 19.9099 47.1425 19.9901 47.2228 19.9901ZM47.2228 22.6394C47.1425 22.7197 47.0622 22.7197 46.9819 22.7197L46.8212 22.8L44.0907 27.2155C44.171 27.2958 44.2513 27.376 44.2513 27.4563L52.9249 28.4197C52.9249 28.3394 53.0052 28.2591 53.0052 28.2591L48.9093 24.3253L47.2228 22.6394ZM46.8212 21.5958C46.8212 21.5958 46.7409 21.5958 46.7409 21.676L43.2072 19.3479V19.2676V19.1873L46.3394 17.0197C46.3795 17.0598 46.4197 17.0799 46.4598 17.1C46.5 17.1201 46.5401 17.1401 46.5803 17.1803L46.8212 21.5958ZM44.4922 10.6775C44.4119 10.6775 44.3316 10.6775 44.2513 10.5972C43.9776 10.6884 43.6263 10.8184 43.2395 10.9615L43.2395 10.9615L43.2394 10.9615L43.2394 10.9615C42.2641 11.3225 41.0636 11.7667 40.3161 11.8817V11.962L43.3679 15.8958H43.4482C43.6088 15.8958 43.7694 15.976 43.8497 16.0563C43.93 16.1366 44.0104 16.2169 44.0104 16.2972H46.0181C46.0678 16.2972 46.0867 16.2665 46.1129 16.2241C46.1291 16.1979 46.1481 16.1673 46.1788 16.1366C46.2189 16.1366 46.239 16.1165 46.2591 16.0965C46.2791 16.0764 46.2992 16.0563 46.3394 16.0563L44.4922 10.6775ZM43.7694 10.3563L40.3964 11.6408C40.3161 11.5606 40.2357 11.5606 40.0751 11.5606C39.9948 11.5606 39.9145 11.5606 39.9145 11.6408L38.3886 10.6775V10.5972C38.3886 10.3563 38.1477 10.1155 37.9067 10.1155H37.8264L37.5855 9.71408L43.7694 10.3563ZM36.7824 9.47323L37.1839 9.79436L37.0233 9.47323H36.7824ZM35.8186 8.02816C35.899 8.18872 36.0596 8.269 36.2202 8.269H36.3005L36.8627 9.1521L36.1399 9.07182L34.614 8.10844L35.8186 8.02816ZM35.8186 9.39295L33.8109 8.02816L33.4093 7.78731L40.2357 17.1H40.3161C40.3964 17.1 40.557 17.1803 40.6373 17.2606L43.0466 16.538C43.0466 16.4577 43.0466 16.2972 43.1269 16.2169L40.0751 12.3634H39.9948C39.8342 12.3634 39.5933 12.2028 39.5933 11.962V11.8817L38.0674 10.9183C37.987 10.9986 37.9067 10.9986 37.8264 10.9986C37.5855 10.9986 37.3446 10.7577 37.3446 10.5169V10.4366L35.8186 9.39295ZM39.8342 17.4211C39.7539 17.5014 39.7539 17.5817 39.7539 17.662L33.8912 20.8732C33.8109 20.7929 33.6503 20.7127 33.5699 20.7127L32.8471 7.62675L39.8342 17.4211ZM33.0881 20.7127L32.4456 7.78731L27.7072 18.1437L32.8471 20.8732C32.9275 20.7929 33.0078 20.7127 33.0881 20.7127ZM32.1243 7.70703L30.8394 10.5169L27.4663 17.9028L25.1373 14.1296C25.2176 13.969 25.2979 13.8084 25.2979 13.6479C25.2979 13.5676 25.2979 13.407 25.2176 13.3268L32.1243 7.70703ZM24.9767 13.0056L30.3575 8.59013L17.3471 11.3197L24.0129 13.1662L24.0933 13.0859C24.1736 12.9253 24.4145 12.8451 24.5751 12.8451C24.7357 12.8451 24.8964 12.9253 24.9767 13.0056ZM26.8238 41.8267L24.8964 43.9944L25.6995 40.6225L26.7435 41.5056V41.6662C26.8238 41.6662 26.8238 41.7465 26.8238 41.8267ZM24.4145 44.1549L25.2979 40.462C25.2578 40.4218 25.2377 40.3817 25.2176 40.3415C25.1975 40.3014 25.1775 40.2613 25.1373 40.2211C25.1373 40.0606 25.2176 39.9803 25.2979 39.9L24.6554 37.0901C24.6153 37.05 24.5751 37.0299 24.535 37.0099C24.4948 36.9898 24.4547 36.9697 24.4145 36.9296L23.8523 37.0901C23.8523 37.1242 23.8523 37.1439 23.8462 37.1613C23.8378 37.1849 23.8182 37.2045 23.772 37.2507L22.9689 43.031L24.4145 44.1549ZM23.5311 36.4479C23.4607 36.4831 23.3902 36.5028 23.3266 36.5207C23.2451 36.5436 23.1746 36.5634 23.1295 36.6084C22.9689 36.769 22.9689 37.0901 23.1295 37.2507C23.1697 37.2908 23.2098 37.3109 23.25 37.331C23.2902 37.351 23.3303 37.3711 23.3705 37.4113L22.6477 42.5493L20.8808 39.7394C20.8808 39.7394 20.9611 39.6591 20.9611 39.5789C20.9611 39.4986 20.9611 39.338 20.8808 39.2577C20.8808 39.2577 20.8808 39.1775 20.8005 39.1775L23.8523 31.7915C23.9326 31.7915 24.0129 31.7915 24.0933 31.7113L23.5311 36.4479ZM21.443 41.3451L22.8886 45.2789L22.6477 43.2718L21.443 41.3451ZM24.4948 32.3535V34.6014L24.0129 35.4845L24.4948 32.3535ZM23.6114 31.069C23.6917 30.9887 23.772 30.9084 23.8523 30.9084L24.2539 29.8648L24.1736 29.7845L21.7642 30.8282C21.7642 30.9084 21.7642 30.9887 21.6839 31.069L22.3264 33.5577C22.4067 33.638 22.3264 33.7183 22.2461 33.7986L21.3627 34.2803C21.3627 34.3606 21.3627 34.4408 21.2824 34.6014C21.2021 34.6817 21.1218 34.762 20.9611 34.762C20.8808 34.762 20.8005 34.762 20.7202 34.6817L17.7487 36.1268C17.7487 36.1669 17.7286 36.207 17.7085 36.2472C17.6885 36.2873 17.6684 36.3275 17.6684 36.3676L20.4793 39.0972H20.5596L23.6114 31.7113C23.4508 31.4704 23.4508 31.2296 23.6114 31.069ZM21.9249 15.4944L19.7565 21.8366L18.8731 24.0042L17.9093 26.2521L20.5596 12.6042L23.8523 13.5676C23.8523 13.6479 23.8523 13.7282 23.9326 13.8887C23.7623 14.025 23.5774 14.1612 23.3843 14.3036L23.3843 14.3036L23.3841 14.3037L23.3841 14.3037C23.1221 14.4969 22.8447 14.7013 22.5674 14.9324C22.487 14.8521 22.4067 14.8521 22.3264 14.8521C22.2461 14.8521 22.0855 14.9324 22.0052 15.0127C21.7642 15.0929 21.7642 15.3338 21.9249 15.4944ZM19.6762 23.2817L19.2746 24.1648L17.7487 27.938L22.0855 27.2958C22.0855 27.2461 22.1162 27.2272 22.1586 27.201C22.1848 27.1848 22.2154 27.1659 22.2461 27.1352L19.6762 23.2817ZM20.9611 30.7479C20.9611 30.8282 20.9611 30.9084 21.0414 30.9887L17.3471 35.5648L17.4275 29.8648L17.5078 28.8211C17.5078 28.8211 17.5881 28.8211 17.5881 28.7408L20.9611 30.7479ZM21.2021 30.4268C21.2824 30.3465 21.3627 30.3465 21.443 30.3465C21.4763 30.3465 21.5095 30.3602 21.5485 30.3764C21.6036 30.3992 21.6702 30.4268 21.7642 30.4268L24.0129 29.4634L18.3109 28.6606L21.2021 30.4268ZM22.0052 33.5577L21.2824 33.9591L21.6036 31.7113L22.0052 33.5577ZM20.8005 33.7986L21.1218 31.5507L17.9093 35.4845L20.4793 34.2C20.4793 34.1197 20.5596 33.9591 20.6399 33.8789C20.6399 33.8789 20.7202 33.7986 20.8005 33.7986ZM18.2306 28.2591L22.0855 27.6972C22.1658 27.8577 22.3264 28.0183 22.5674 28.0183C22.6477 28.0183 22.728 28.0183 22.8083 27.938L23.9326 29.062L18.2306 28.2591ZM22.0855 25.0479L20.399 23.7634L22.3264 26.6535L22.0855 25.0479ZM22.2461 24.6465L20.158 23.0408L24.0933 22.9606L22.2461 24.6465ZM20.158 21.9972L19.8368 22.7197L24.1736 22.6394C24.1736 22.5591 24.2539 22.4789 24.2539 22.4789L22.2461 15.8958L20.158 21.9972ZM22.5674 15.4944C22.6477 15.4141 22.728 15.3338 22.728 15.2535C22.8906 15.1234 23.0797 14.9802 23.279 14.8291L23.2791 14.829C23.5718 14.6071 23.8869 14.3684 24.1736 14.1296C24.2137 14.1296 24.2338 14.1496 24.2539 14.1697C24.274 14.1898 24.294 14.2098 24.3342 14.2098C24.3342 15.7352 24.3342 19.3479 24.4145 21.2746L22.5674 15.4944ZM16.0622 11.4803L12.4482 11.5606L17.0259 13.8887L16.4637 11.8817C16.3031 11.8014 16.1425 11.6408 16.0622 11.4803ZM16.785 11.8014C16.8156 11.7707 16.8463 11.7518 16.8725 11.7356C16.9149 11.7094 16.9456 11.6905 16.9456 11.6408L20.0777 12.5239L17.4275 26.2521V14.531L17.5078 14.4507C17.6684 14.2901 17.6684 13.969 17.5078 13.8084C17.4676 13.7683 17.4275 13.7482 17.3873 13.7282C17.3471 13.7081 17.307 13.688 17.2668 13.6479L16.785 11.8014ZM12.93 48.0084V48.0887L20.3186 48.3296L17.2668 46.3225L12.93 48.0084ZM18.2306 46.4831L17.5078 46.0014L17.3471 37.4915L20.6399 48.0887L18.2306 46.4831ZM21.1619 48.1289C21.2021 48.1489 21.2422 48.169 21.2824 48.169L22.8886 47.0451C22.8886 46.9648 22.9689 46.8042 23.0492 46.7239L20.5596 39.9803C20.399 39.9 20.3186 39.8197 20.2383 39.7394C20.158 39.6591 20.158 39.4986 20.158 39.4183L17.5881 36.8493L19.1943 42.2282L21.0414 48.0887C21.0816 48.0887 21.1218 48.1088 21.1619 48.1289ZM23.0492 47.3662C23.1295 47.4465 23.2098 47.4465 23.3705 47.4465C23.5311 47.4465 23.6114 47.3662 23.6917 47.2859L28.9119 48.8915L23.6917 48.5704L21.6036 48.4099L23.0492 47.3662ZM23.4508 46.4831C23.6917 46.5634 23.8523 46.7239 23.8523 46.9648L29.6347 48.731L24.4145 44.6366H24.3342L23.0492 43.5929L23.4508 46.4831ZM24.8964 44.5563L27.0648 42.0676H27.2254L30.1166 48.5704L24.8964 44.5563ZM30.6788 48.8113C30.8394 48.8113 31 48.9718 31.0803 49.1324L32.7668 49.2127L28.1088 43.1113L30.6788 48.8113ZM29.956 44.7972L32.8471 43.8338L33.0078 43.9944V47.3662V48.8113L29.956 44.7972ZM32.7668 43.1113C32.8471 43.031 33.0078 42.9507 33.1684 42.9507C33.4375 42.9507 33.5939 43.1197 33.732 43.269C33.7587 43.2979 33.7848 43.326 33.8109 43.3521C33.8109 43.4324 33.8109 43.5127 33.7306 43.5929L35.3368 45.8408L35.4171 44.7169V44.6366L37.6658 42.7901V42.6296C37.6658 42.3084 37.9067 42.0676 38.228 42.0676H38.3886L39.1917 40.8634L38.9508 37.6521C38.7901 37.5718 38.7098 37.4113 38.7098 37.2507C38.7098 37.0098 38.8705 36.8493 39.1114 36.8493H39.1917L39.8342 36.207V36.1268C39.8342 35.8859 39.9948 35.7253 40.2357 35.7253C40.4767 35.7253 40.6373 35.8859 40.6373 36.1268L43.2876 37.6521L42.8057 36.8493L42.1632 35.7253C41.9223 35.7253 41.7617 35.5648 41.7617 35.3239C41.7617 35.2838 41.7817 35.2437 41.8018 35.2035C41.8219 35.1634 41.842 35.1232 41.842 35.0831L40.3964 32.4338C40.0751 32.3535 39.8342 32.1929 39.8342 31.8718C39.8342 31.7113 39.8342 31.5507 39.9948 31.4704L39.9948 31.4704C40.0751 31.3901 40.1554 31.3098 40.3161 31.3098L40.557 30.5873L41.0389 29.2225V29.1422L43.1269 27.6972V27.6169C43.1269 27.376 43.2876 27.1352 43.5285 27.0549L43.6088 24.9676C43.6088 24.8873 43.6088 24.807 43.6891 24.807L46.0984 22.7197L43.8497 23.5225H43.7694C43.6891 23.5225 43.6088 23.5225 43.6088 23.4422L40.3161 18.1437H40.2357C40.0751 18.1437 39.9948 18.1437 39.9145 18.0634L34.0518 21.2746V21.4352C34.0518 21.5958 33.9715 21.7563 33.8109 21.9169C33.7306 22.0775 33.4896 22.1577 33.329 22.1577C33.1684 22.1577 33.0078 22.0775 32.8471 21.9169C32.6865 21.8366 32.6062 21.5958 32.6062 21.4352V21.2746L27.3057 18.4648L24.7357 14.3704H24.6554C24.6554 15.3772 24.6793 17.2909 24.701 19.0314L24.701 19.0318C24.7191 20.4834 24.7357 21.8145 24.7357 22.3986C24.7699 22.3986 24.7895 22.3986 24.807 22.4047C24.8306 22.4131 24.8502 22.4327 24.8964 22.4789C25.057 22.6394 25.057 22.9606 24.8964 23.1211C24.8161 23.2014 24.7357 23.2817 24.5751 23.2817H24.4145L22.487 25.0479L22.728 26.9746C22.8886 26.9746 22.9689 27.0549 23.0492 27.1352C23.1295 27.2155 23.2098 27.376 23.2098 27.5366C23.2098 27.5366 23.1295 27.6169 23.1295 27.6972L24.4145 28.9014H24.5751C24.7357 28.9014 24.8964 28.9817 24.9767 29.062C25.2176 29.3028 25.2176 29.6239 24.9767 29.8648C24.9767 29.8648 24.8964 29.9451 24.8161 29.9451L24.8964 34.6817V34.762L23.9326 36.6084V36.6887L24.3342 36.6084C24.3743 36.5683 24.3944 36.5282 24.4145 36.488C24.4346 36.4479 24.4547 36.4077 24.4948 36.3676C24.5751 36.2873 24.7357 36.207 24.8161 36.207C24.8964 36.207 25.057 36.2873 25.1373 36.3676C25.2176 36.4479 25.2979 36.5282 25.2979 36.6887C25.2979 36.8493 25.2176 36.9296 25.1373 37.0098L25.7798 39.8197C25.9404 39.9 26.101 40.0606 26.101 40.2211V40.3014L27.1451 41.1845C27.1451 41.1042 27.2254 41.1042 27.3057 41.1042C27.5466 41.1042 27.7876 41.3451 27.7876 41.5859C27.7876 41.6662 27.7876 41.7465 27.7072 41.8268L29.8756 44.3155L32.6062 43.3521C32.6464 43.312 32.6664 43.2718 32.6865 43.2317C32.7066 43.1915 32.7267 43.1514 32.7668 43.1113ZM33.4093 44.0746L35.0959 46.4028C35.0155 46.4831 34.9352 46.6437 35.0155 46.8042C35.0155 47.1253 35.2565 47.3662 35.5777 47.3662H35.7383L36.7824 48.6507L33.4093 49.1324V44.0746ZM36.1399 47.2056L37.1839 48.4901L38.6295 48.169L36.1399 47.2056ZM36.3808 46.8042L44.171 45.1183L37.5855 47.2859L36.3808 46.8042ZM35.7383 49.1324L38.4689 49.0521L38.9508 48.5704L37.1839 48.8915L35.7383 49.1324ZM39.3523 48.0084L38.1477 47.5268L45.0544 45.1986L39.3523 48.0084ZM35.658 46.162C35.8186 46.162 35.9793 46.3225 36.0596 46.4831L45.3756 44.3958L36.7824 44.9577L35.7383 45.038L35.658 46.162ZM47.3031 43.9141L36.1399 44.6366L37.9067 43.1915C37.987 43.2718 38.0674 43.2718 38.228 43.2718C38.4689 43.2718 38.7098 43.1113 38.7902 42.7901L45.0544 41.8268L45.1347 41.907C45.2953 42.0676 45.456 42.1479 45.6166 42.1479C45.6969 42.1479 45.7772 42.1479 45.8575 42.0676L46.8212 43.1915L47.3834 43.7535C47.3031 43.7535 47.3031 43.8338 47.3031 43.9141ZM49.2707 40.2613C49.3109 40.2813 49.351 40.3014 49.3912 40.3014L51.4793 38.3746L50.114 39.0972L46.3394 41.1845C46.3394 41.3451 46.2591 41.5056 46.1788 41.6662L47.7047 43.3521H47.8653H47.9456L48.7487 41.1845C48.6684 41.1042 48.5881 40.9437 48.5881 40.7831C48.5881 40.462 48.829 40.2211 49.1503 40.2211C49.1904 40.2211 49.2306 40.2412 49.2707 40.2613ZM50.1943 38.6958L46.4197 40.7831L52.1218 33.8789H52.2021L52.5233 37.4113L50.1943 38.6958ZM52.3627 32.9155H52.443L54.1295 30.9887L53.8083 29.3028H53.728L47.6243 38.8563L51.9611 33.638C51.8808 33.5577 51.8808 33.5577 51.8808 33.4775C51.8808 33.3169 51.9611 33.1563 52.0414 33.076C52.1218 32.9958 52.2021 32.9155 52.3627 32.9155Z" fill="#8F3434"/>
<path d="M80.4715 36.4479C79.9093 36.4479 79.5078 36.6084 79.1865 37.0098C78.8653 37.4113 78.6243 37.9732 78.544 38.6155H82.3186V38.5352C82.3186 37.9732 82.158 37.4113 81.8368 37.0098C81.5155 36.6084 81.114 36.4479 80.4715 36.4479Z" fill="#8F3434"/>
<path d="M69.8705 15.976H68.6658V24.1648H69.8705C70.8342 24.1648 71.6373 23.8436 72.1192 23.2014C72.601 22.5591 72.9223 21.5958 72.9223 20.3915V19.8296C72.9223 18.6253 72.6813 17.662 72.1192 17.0197C71.6373 16.2972 70.8342 15.976 69.8705 15.976Z" fill="#8F3434"/>
<path d="M130.666 36.4479C130.104 36.4479 129.702 36.6084 129.381 37.0098C129.06 37.4113 128.819 37.9732 128.738 38.6155H132.513V38.5352C132.513 37.9732 132.352 37.4113 132.031 37.0098C131.71 36.6084 131.308 36.4479 130.666 36.4479Z" fill="#8F3434"/>
<path d="M105.448 17.0197L103.922 21.5958H106.974L105.448 17.0197Z" fill="#8F3434"/>
<path d="M89.0648 36.4479C88.5829 36.4479 88.2617 36.5282 87.9404 36.769C87.6192 37.0098 87.3782 37.2507 87.2176 37.6521V41.0239C87.3782 41.4253 87.6192 41.6662 87.9404 41.907C88.2617 42.1479 88.6632 42.2282 89.0648 42.2282C89.7073 42.2282 90.1891 41.9873 90.5104 41.4253C90.8316 40.8634 90.9922 40.2211 90.9922 39.4183V39.2577C90.9922 38.4549 90.8316 37.7324 90.5104 37.2507C90.2694 36.769 89.7073 36.4479 89.0648 36.4479Z" fill="#8F3434"/>
<path fill-rule="evenodd" clip-rule="evenodd" d="M4.4171 0H149.699C152.189 0 154.117 2.56901 154.117 5.61972V50.5775C154.117 53.7085 152.189 56.1972 149.699 56.1972H4.4171C2.00777 56.1972 0 53.7085 0 50.5775V5.61972C0 2.56901 1.92746 0 4.4171 0ZM106.01 13.7282H104.163L99.5855 26.2521H102.477L103.28 23.7634H107.697L108.5 26.2521H111.391L106.733 13.7282H106.01ZM55.013 31.7113L53.6477 33.3972C53.6477 33.638 53.5674 33.9592 53.487 34.1197L53.8083 37.4916V37.5718V37.7324V37.8127C53.8083 37.8127 53.8083 37.893 53.728 37.893V37.9732C53.728 38.0134 53.7079 38.0334 53.6878 38.0535C53.6677 38.0736 53.6477 38.0937 53.6477 38.1338C53.6477 38.1338 53.6477 38.2141 53.5674 38.2141L50.5959 40.8634C50.5959 41.4254 50.2746 41.907 49.7927 42.0676L49.2306 43.593C49.2306 43.6262 49.2444 43.6732 49.2605 43.7283L49.2605 43.7284C49.2833 43.8063 49.3109 43.9003 49.3109 43.9944C49.3109 44.7169 48.6684 45.3592 47.9456 45.3592H47.6244L40.0751 48.9718L39.4326 49.7746C39.272 50.0155 38.9508 50.1761 38.6295 50.1761L34.0518 50.2563H33.5699H33.2487H32.9275H32.4456H31.4016C31.2409 50.4169 31 50.4972 30.7591 50.4972H30.6788C30.3575 50.4972 30.0363 50.4169 29.7953 50.1761L21.8446 49.6141C21.6839 49.7746 21.443 49.8549 21.2021 49.8549H21.1218C20.8005 49.8549 20.4793 49.7746 20.2383 49.5338L13.171 49.293C13.0104 49.3732 12.7694 49.4535 12.5285 49.4535C12.0466 49.4535 11.6451 49.2127 11.4041 48.8113C11.2435 48.4901 11.1632 48.169 11.2435 47.8479C11.3238 47.5268 11.5648 47.2056 11.886 47.0451C12.0466 46.9648 12.2876 46.8845 12.5285 46.8845H12.6891L16.3834 45.4394L16.3031 37.0099C16.0622 36.769 15.9819 36.4479 15.9819 36.1268C15.9819 35.8056 16.1425 35.4845 16.3031 35.2437L16.3834 29.7845V29.1423C16.2228 28.9014 16.0622 28.5803 16.0622 28.2592C16.0622 27.938 16.2228 27.6169 16.3834 27.3761V14.9324C16.3834 14.9324 16.3834 14.8521 16.3031 14.8521L12.1269 12.7648H11.7254C11.0026 12.7648 10.3601 12.1225 10.3601 11.4C10.3601 10.6775 11.0026 10.0352 11.7254 10.0352C12.0466 10.0352 12.3679 10.1155 12.5285 10.3563L15.6606 10.2761C15.9016 10.0352 16.2228 9.95493 16.544 9.95493C16.7347 9.95493 16.875 10.0052 17.0447 10.066C17.0895 10.082 17.1362 10.0987 17.1865 10.1155L30.6788 7.30563L31.4016 6.74366C31.5622 6.18169 32.044 5.7 32.6865 5.7C33.2487 5.7 33.7306 6.10141 33.8912 6.5831L34.2124 6.82394H35.4974C35.5777 6.7838 35.6781 6.74366 35.7785 6.70352L35.7786 6.7035C35.8789 6.66336 35.9793 6.62323 36.0596 6.5831H36.1399C36.7824 6.5831 37.3446 7.06479 37.3446 7.70704V7.78732L37.6658 8.3493L43.7694 9.07183C43.93 8.99155 44.0907 8.91127 44.2513 8.91127H44.3316C44.9741 8.91127 45.5363 9.39296 45.5363 10.0352V10.3563L47.2228 15.3338C47.2535 15.3645 47.2841 15.3834 47.3103 15.3996C47.3527 15.4258 47.3834 15.4447 47.3834 15.4944C47.544 15.6549 47.6244 15.8155 47.7047 15.9761L48.0259 16.1366L48.829 16.538L49.4715 16.8592L51.399 17.9028H51.7202C52.443 17.9028 53.0855 18.5451 53.0855 19.2676C53.0855 19.5085 53.0052 19.7493 52.9249 19.9099L53.3264 22.238C53.6477 22.4789 53.8083 22.8 53.8083 23.2014C53.8083 23.392 53.758 23.5323 53.6972 23.7019C53.6812 23.7466 53.6644 23.7934 53.6477 23.8437L54.2902 27.2155C54.3303 27.2556 54.3705 27.2757 54.4106 27.2958C54.4508 27.3158 54.4909 27.3359 54.5311 27.3761C54.8523 27.6972 55.013 28.0183 55.013 28.4197C55.013 28.7408 54.9326 29.062 54.772 29.3028L55.013 30.6676C55.2539 31.1493 55.1736 31.4704 55.013 31.7113ZM72.3601 43.1916H73.2435L75.3316 35.5648H74.0466L72.601 41.3451L70.8342 35.5648H70.6736H69.7902L68.0233 41.2648L66.4974 35.5648H65.2124L67.4611 43.1916H67.7021H68.5052L70.3523 37.4113L72.1995 43.1916H72.3601ZM75.6528 20.3113C75.6528 21.5155 75.4119 22.5592 74.9301 23.4423C74.4482 24.3254 73.7254 25.0479 72.9223 25.5296C72.0389 26.0113 71.0751 26.2521 69.9508 26.2521H67.1399H65.9352V13.7282H68.6658H69.8705C70.9948 13.7282 71.9585 13.969 72.842 14.4507C73.7254 14.9324 74.3679 15.6549 74.8497 16.538C75.3316 17.4211 75.5725 18.4648 75.5725 19.669V20.3113H75.6528ZM78.4637 39.7394H83.6036H83.6839V39.0169C83.6839 38.2944 83.6036 37.6521 83.3627 37.0901C83.1218 36.5282 82.8005 36.1268 82.3186 35.8056C81.8368 35.4845 81.2746 35.3239 80.5518 35.3239C79.9896 35.3239 79.4275 35.4845 78.9456 35.8056C78.4637 36.1268 78.0622 36.6085 77.7409 37.1704C77.4197 37.7324 77.2591 38.4549 77.2591 39.2577V39.5789C77.2591 40.3014 77.3394 40.9437 77.6606 41.5056C77.9016 42.0676 78.3031 42.469 78.8653 42.7901C79.4275 43.1113 79.9896 43.2718 80.7124 43.2718C81.4352 43.2718 81.9974 43.1113 82.4793 42.8704C82.9611 42.6296 83.2824 42.2282 83.6036 41.8268L82.8005 41.1845C82.5596 41.5859 82.2383 41.8268 81.9171 41.9873C81.5958 42.1479 81.2746 42.2282 80.7927 42.2282C80.3109 42.2282 79.9093 42.0676 79.5881 41.907C79.2668 41.7465 79.0259 41.4254 78.785 41.0239C78.544 40.6225 78.4637 40.2211 78.4637 39.7394ZM84.6477 25.931C83.9249 26.2521 83.1218 26.4127 82.158 26.4127C81.1943 26.4127 80.3912 26.2521 79.5881 25.931C78.8653 25.6099 78.3031 25.0479 77.9016 24.4056C77.5 23.7634 77.2591 22.9606 77.2591 21.9972V13.7282H79.9896V21.9169C79.9896 23.4423 80.7124 24.1648 82.158 24.1648C82.8808 24.1648 83.3627 24.0042 83.7642 23.6028C84.0855 23.2014 84.3264 22.6394 84.3264 21.8366V13.7282H87.057V21.9169C87.057 22.8803 86.8161 23.6831 86.4145 24.3254C85.9326 25.0479 85.3705 25.6099 84.6477 25.931ZM92.0363 41.4254C92.2772 40.8634 92.3575 40.1408 92.3575 39.4183H92.2772V39.338C92.2772 38.5352 92.1969 37.8127 91.956 37.2507C91.715 36.6887 91.3938 36.207 90.9119 35.8859C90.4301 35.5648 89.9482 35.4042 89.3057 35.4042C88.4223 35.4042 87.6995 35.7253 87.1373 36.3676V32.3535H85.8523V43.1113H87.057L87.1373 42.2282C87.6995 42.9507 88.4223 43.2718 89.386 43.2718C90.0285 43.2718 90.5104 43.1113 90.9922 42.7901C91.4741 42.469 91.7953 41.9873 92.0363 41.4254ZM96.5337 25.931C95.8109 26.3324 94.9275 26.493 93.8834 26.493C92.8394 26.493 91.8756 26.2521 91.0725 25.7704C90.2694 25.2887 89.7073 24.5662 89.3057 23.6831C88.9042 22.8 88.6632 21.6761 88.6632 20.4718V19.669C88.6632 18.4648 88.9042 17.3408 89.3057 16.4577C89.7073 15.5746 90.3497 14.8521 91.1529 14.3704C91.956 13.8887 92.8394 13.6479 93.8834 13.6479C94.9275 13.6479 95.8109 13.8085 96.5337 14.2099C97.2565 14.6113 97.8187 15.093 98.2202 15.8155C98.6218 16.4577 98.8627 17.2606 98.943 18.1437H96.2124C96.1321 17.4211 95.9715 16.8592 95.57 16.4577C95.1684 16.0563 94.6062 15.8958 93.8031 15.8958C93 15.8958 92.3575 16.2169 91.956 16.8592C91.5544 17.5014 91.3135 18.4648 91.3135 19.7493V20.5521C91.3135 21.4352 91.3938 22.1577 91.5544 22.7197C91.715 23.2817 91.956 23.6831 92.3575 24.0042C92.7591 24.2451 93.1606 24.4056 93.8031 24.4056C94.6062 24.4056 95.1684 24.2451 95.57 23.8437C95.9715 23.5225 96.1321 22.9606 96.2124 22.238H98.943C98.8627 23.1211 98.6218 23.8437 98.2202 24.4859C97.8187 25.0479 97.2565 25.5296 96.5337 25.931ZM105.448 43.1916H106.332L108.42 35.5648H107.135L105.689 41.3451L103.922 35.5648H103.762H102.878L101.111 41.2648L99.5855 35.5648H98.3005L100.549 43.1916H100.79H101.593L103.44 37.4113L105.288 43.1916H105.448ZM116.611 43.1916H115.326C115.246 43.031 115.166 42.7099 115.166 42.3887C114.925 42.7099 114.604 42.8704 114.202 43.031C113.801 43.1916 113.399 43.2718 112.997 43.2718C112.516 43.2718 112.034 43.1916 111.632 42.9507C111.231 42.7901 110.909 42.469 110.749 42.1479C110.588 41.8268 110.427 41.4254 110.427 41.0239C110.427 40.462 110.588 40.0606 110.829 39.6592C111.07 39.2577 111.472 39.0169 112.034 38.7761C112.516 38.6155 113.158 38.4549 113.881 38.4549H115.166V37.8127C115.166 37.331 115.005 37.0099 114.764 36.6887C114.523 36.4479 114.122 36.2873 113.56 36.2873C113.293 36.2873 113.082 36.3424 112.835 36.407C112.784 36.4203 112.731 36.4341 112.676 36.4479C112.355 36.5282 112.194 36.6887 112.114 36.9296C112.084 37.0202 112.042 37.0995 112.002 37.176L112.002 37.1761C111.935 37.3027 111.873 37.4217 111.873 37.5718H110.588C110.588 37.1704 110.749 36.8493 110.99 36.5282C111.231 36.207 111.632 35.8859 112.034 35.6451C112.435 35.4042 112.997 35.3239 113.64 35.3239C114.202 35.3239 114.684 35.4042 115.085 35.6451C115.487 35.8859 115.808 36.1268 116.049 36.5282C116.29 36.9296 116.37 37.4113 116.37 37.9732V41.5056C116.37 41.7465 116.37 42.0676 116.451 42.3085C116.488 42.4214 116.508 42.552 116.527 42.6754C116.549 42.8151 116.569 42.9457 116.611 43.031V43.1916ZM119.342 43.1915H120.627V32.3535H119.342V43.1915ZM120.868 15.9761H117.093V26.3324H114.363V15.9761H110.588V13.8085H117.013H120.868V15.9761ZM123.598 43.1915H124.883V32.3535H123.598V43.1915ZM124.562 25.931C123.839 25.6099 123.277 25.0479 122.876 24.4056C122.474 23.7634 122.233 22.9606 122.233 21.9972V13.7282H124.964V21.9169C124.964 23.4423 125.687 24.1648 127.132 24.1648C127.855 24.1648 128.337 24.0042 128.738 23.6028C129.14 23.2014 129.301 22.6394 129.301 21.8366V13.7282H132.031V21.9169C132.031 22.8803 131.79 23.6831 131.389 24.3254C130.987 24.9676 130.425 25.5296 129.702 25.8507C128.979 26.1718 128.176 26.3324 127.212 26.3324C126.088 26.4127 125.285 26.2521 124.562 25.931ZM128.658 39.7394H133.798H133.878V39.0169C133.878 38.2944 133.798 37.6521 133.557 37.0901C133.316 36.5282 132.995 36.1268 132.513 35.8056C132.031 35.4845 131.469 35.3239 130.746 35.3239C130.184 35.3239 129.622 35.4845 129.14 35.8056C128.658 36.1268 128.256 36.6085 127.935 37.1704C127.614 37.7324 127.453 38.4549 127.453 39.2577V39.5789C127.453 40.3014 127.534 40.9437 127.855 41.5056C128.096 42.0676 128.497 42.469 129.06 42.7901C129.622 43.1113 130.184 43.2718 130.907 43.2718C131.63 43.2718 132.192 43.1113 132.674 42.8704C133.155 42.6296 133.477 42.2282 133.798 41.8268L132.995 41.1845C132.754 41.5859 132.433 41.8268 132.111 41.9873C131.79 42.1479 131.469 42.2282 130.987 42.2282C130.505 42.2282 130.104 42.0676 129.782 41.907C129.461 41.7465 129.22 41.4254 128.979 41.0239C128.738 40.6225 128.658 40.2211 128.658 39.7394ZM138.295 43.2718C137.733 43.2718 137.332 43.1113 137.01 42.7901C136.689 42.469 136.528 41.9873 136.528 41.2648V36.5282H135.163V35.5648H136.528V33.638H137.813V35.4845H139.259V36.4479H137.813V41.1845C137.813 41.5859 137.894 41.8268 138.054 41.907C138.215 41.9873 138.376 42.0676 138.697 42.0676H139.018C139.098 42.0676 139.259 42.0676 139.339 41.9873V43.031C139.018 43.2718 138.697 43.2718 138.295 43.2718ZM139.018 18.8662C138.215 18.6254 137.573 18.3042 137.171 18.0634C136.769 17.8225 136.529 17.5014 136.529 17.1C136.529 16.8592 136.609 16.6183 136.769 16.3775C136.8 16.3465 136.831 16.3126 136.863 16.2775C136.998 16.1301 137.153 15.9606 137.412 15.8958C137.653 15.8155 138.054 15.7352 138.456 15.7352C139.098 15.7352 139.58 15.8958 139.902 16.2169C140.223 16.538 140.383 16.9394 140.383 17.5014H143.114C143.114 16.7789 142.953 16.0563 142.552 15.4944C142.15 14.9324 141.668 14.4507 140.946 14.1296C140.223 13.8085 139.42 13.6479 138.536 13.6479C137.653 13.6479 136.85 13.7282 136.127 14.0493C135.404 14.2901 134.842 14.6915 134.44 15.2535C134.039 15.8155 133.878 16.4577 133.878 17.1C133.878 17.7423 134.119 18.3042 134.44 18.8662C134.762 19.4282 135.244 19.8296 135.886 20.1507C136.448 20.4718 137.171 20.793 138.054 21.0338C138.777 21.1944 139.259 21.4352 139.58 21.5958C139.982 21.7563 140.223 21.9972 140.303 22.1577C140.383 22.3183 140.464 22.5592 140.464 22.8803C140.464 23.2817 140.303 23.6028 139.982 23.8437C139.661 24.0845 139.259 24.2451 138.617 24.2451C137.894 24.2451 137.251 24.0845 136.85 23.7634C136.448 23.4423 136.207 22.9606 136.207 22.238H133.477C133.477 23.2014 133.718 23.9239 134.199 24.5662C134.681 25.1282 135.324 25.6099 136.127 25.931C136.93 26.2521 137.733 26.4127 138.617 26.4127C139.5 26.4127 140.303 26.2521 141.026 26.0113C141.749 25.7704 142.231 25.2887 142.632 24.807C143.034 24.3254 143.194 23.6831 143.194 22.9606C143.194 21.9169 142.873 21.1141 142.15 20.4718C141.508 19.8296 140.383 19.2676 139.018 18.8662Z" fill="#8F3434"/>
<path d="M112.275 39.8197C111.873 40.0606 111.712 40.3817 111.712 40.8634C111.712 41.1042 111.793 41.3451 111.873 41.5056C111.953 41.6662 112.114 41.8268 112.355 41.9873C112.596 42.1479 112.837 42.1479 113.158 42.1479C113.479 42.1479 113.72 42.0676 114.041 41.9873C114.282 41.907 114.523 41.7465 114.684 41.5859C114.845 41.4253 115.005 41.1845 115.085 41.0239V39.4183H114.041C113.319 39.4183 112.676 39.5789 112.275 39.8197Z" fill="#8F3434"/>
<path d="M43.7694 38.5352C43.3679 38.5352 43.1269 38.2944 43.1269 37.9732L40.4767 36.4479C40.3964 36.5282 40.316 36.5282 40.2357 36.5282C40.1554 36.5282 40.1554 36.5282 40.0751 36.5282L39.5129 37.0901C39.5129 37.1704 39.5129 37.1704 39.5129 37.2507L45.0544 40.7831L43.7694 38.5352Z" fill="white"/>
<path d="M21.443 41.2648L22.8886 45.2789L22.6477 43.1916L21.443 41.2648Z" fill="white"/>
<path d="M38.6295 42.3084C38.6295 42.3084 38.7099 42.3084 38.6295 42.3084L44.8938 41.3451C44.8938 41.2648 44.8938 41.2648 44.8938 41.1845L39.3523 37.6521L39.5933 40.9436C39.5933 41.0239 39.5933 41.0239 39.5933 41.1042L38.6295 42.3084Z" fill="white"/>
<path d="M44.5725 31.5507L42.5648 35.0831C42.5648 35.1634 42.6451 35.2436 42.6451 35.3239C42.6451 35.4042 42.6451 35.4845 42.5648 35.5648L43.6088 37.4915H43.6891C44.0104 37.4915 44.2513 37.7324 44.2513 38.0535C44.2513 38.2141 44.171 38.3746 44.0907 38.4549L45.2953 40.6225L44.5725 31.5507Z" fill="white"/>
<path d="M46.4197 22.0775C46.4197 21.9972 46.4197 21.9972 46.4197 21.9169L42.886 19.5887C42.8057 19.669 42.7254 19.669 42.6451 19.669C42.4041 19.669 42.1632 19.4282 42.1632 19.1873V19.107L40.8782 18.2239L43.8497 22.9606L46.4197 22.0775Z" fill="white"/>
<path fill-rule="evenodd" clip-rule="evenodd" d="M24.4948 36.9296C24.5751 37.0098 24.6554 37.0901 24.7358 37.0901L25.3782 39.9C25.2979 39.9803 25.2176 40.0606 25.2176 40.2211C25.2578 40.2613 25.2779 40.3014 25.2979 40.3415C25.318 40.3817 25.3381 40.4218 25.3782 40.462L24.4948 44.1549L23.0492 43.031L23.8523 37.2507C23.8523 37.2507 23.9326 37.1704 23.9326 37.0901L24.4948 36.9296ZM24.5751 42.2282L24.9767 40.5422C24.8964 40.462 24.8964 40.3014 24.8964 40.1408C24.8964 39.9803 24.8964 39.9 24.9767 39.7394L24.5751 37.8127L24.4948 42.2282H24.5751Z" fill="white"/>
<path d="M25.2979 13.5676C25.2979 13.7282 25.2176 13.8887 25.1373 14.0493L27.4663 17.8225L30.8394 10.4366L32.1243 7.62677L25.2979 13.2465C25.2979 13.4071 25.2979 13.4873 25.2979 13.5676Z" fill="white"/>
<path d="M42.6451 18.7859C42.7254 18.7859 42.8057 18.7859 42.886 18.8662L45.8575 16.7789H44.0907C44.0907 16.8592 44.0104 16.9394 43.93 16.9394C43.8497 17.0197 43.6891 17.1 43.5285 17.1C43.3679 17.1 43.2072 17.0197 43.1269 16.9394L40.6373 17.662L42.3238 18.7859C42.4844 18.7859 42.5648 18.7859 42.6451 18.7859Z" fill="white"/>
<path d="M24.4948 32.3535L24.0933 35.4042L24.4948 34.6014V32.3535Z" fill="white"/>
<path d="M23.9326 31.8718L20.8808 39.2578C20.8808 39.2578 20.8808 39.2578 20.9611 39.338C21.0415 39.4183 21.0415 39.5789 21.0415 39.6592C21.0415 39.7395 21.0415 39.7395 20.9611 39.8197L22.728 42.6296L23.4508 37.4916C23.3705 37.4916 23.2902 37.4113 23.2098 37.331C23.0492 37.1704 23.0492 36.8493 23.2098 36.6887C23.2902 36.6085 23.4508 36.5282 23.5311 36.5282V36.4479L24.1736 31.7916C24.0933 31.7916 24.013 31.8718 23.9326 31.8718Z" fill="white"/>
<path fill-rule="evenodd" clip-rule="evenodd" d="M47.8653 19.9901L52.2824 23.362C52.2824 23.5225 52.443 23.7634 52.5233 23.8437L53.3264 27.938H53.2461L47.4637 22.3183C47.544 22.238 47.544 22.1577 47.544 22.0775C47.544 21.9169 47.4637 21.6761 47.3031 21.5958L47.6243 20.0704C47.7047 20.0704 47.785 20.0704 47.8653 19.9901ZM52.2824 26.4127L52.9249 27.0549L52.443 23.9239C52.2021 23.7634 52.0414 23.6028 52.0414 23.362L51.8005 23.2014L51.4793 24.4859L52.2824 26.4127Z" fill="white"/>
<path fill-rule="evenodd" clip-rule="evenodd" d="M24.9767 43.9141L25.7798 40.5423L26.9041 41.4254V41.5859V41.7465L24.9767 43.9141ZM25.6995 41.9873L26.2617 41.9071L26.5026 41.6662V41.5859L25.9404 41.1042L25.6995 41.9873Z" fill="white"/>
<path d="M42.2435 34.8423L43.2876 32.9958L44.2513 31.3099L44.171 31.2296L40.9586 32.0324C40.9586 32.1127 40.8782 32.193 40.7979 32.2732L40.7176 32.3535L42.2435 34.8423C42.1632 34.8423 42.1632 34.8423 42.2435 34.8423Z" fill="white"/>
<path d="M43.127 19.1873C43.127 19.2676 43.127 19.2676 43.127 19.3479L46.6606 21.6761L46.7409 21.5958L46.5 17.1803C46.4197 17.1803 46.3394 17.1 46.2591 17.0197L43.127 19.1873Z" fill="white"/>
<path d="M44.2513 27.376L52.9249 28.3394C52.9249 28.2591 52.9249 28.2591 53.0052 28.1789L48.9093 24.2451L47.2228 22.5591C47.1425 22.5591 47.0622 22.6394 46.9819 22.6394H46.9016L44.171 27.0549C44.2513 27.2155 44.2513 27.2958 44.2513 27.376Z" fill="white"/>
<path d="M47.2228 19.9901C47.1425 19.9901 47.1425 19.9099 47.0622 19.9099V20.4718L47.2228 19.9901Z" fill="white"/>
<path d="M40.7979 31.1493L40.7176 31.3901C40.7979 31.4704 40.8782 31.5507 40.8782 31.631L44.0104 30.8282C44.0104 30.5873 44.2513 30.3465 44.5725 30.2662C44.8135 30.2662 44.9741 30.3465 45.0544 30.507L48.5881 29.6239L51.5596 28.9014L41.1995 29.3831L40.7979 31.1493Z" fill="white"/>
<path d="M52.443 22.9606L51.8808 19.9901C51.6399 19.9901 51.4793 19.8296 51.3989 19.669C50.3549 19.669 48.9093 19.7493 48.1062 19.7493L52.443 22.9606Z" fill="white"/>
<path d="M45.7772 40.6225C45.8575 40.6225 45.8575 40.6225 45.9378 40.6225L53.2461 29.1423C53.2461 29.1423 53.2461 29.1423 53.1658 29.1423L53.0855 29.062L45.215 30.9887C45.215 31.1493 45.0544 31.3099 44.9741 31.3902L45.5363 37.9732L45.7772 40.6225Z" fill="white"/>
<path d="M47.544 18.9465C47.785 18.9465 48.0259 19.107 48.1062 19.2676C48.1865 19.2676 48.1865 19.2676 48.2668 19.2676C48.6684 19.2676 49.1503 19.2676 49.7928 19.1873C50.3549 19.1873 50.8368 19.1873 51.2383 19.1873L47.0622 16.9394L46.9819 17.0197L47.0622 19.1873C47.1425 19.0267 47.3031 18.9465 47.544 18.9465Z" fill="white"/>
<path fill-rule="evenodd" clip-rule="evenodd" d="M43.5285 16.0563L40.4767 12.1225C40.4767 12.0916 40.4767 12.0726 40.4859 12.0655C40.5005 12.0542 40.5386 12.0732 40.6373 12.1225C41.2683 11.9505 42.473 11.4918 43.4318 11.1266C43.8153 10.9806 44.1595 10.8495 44.4119 10.7578C44.4922 10.838 44.5725 10.838 44.6529 10.838L46.5 16.2169C46.4197 16.2169 46.3394 16.2972 46.3394 16.2972C46.2591 16.2972 46.1788 16.3775 46.1788 16.4578H44.171C44.1308 16.4176 44.1108 16.3775 44.0907 16.3373C44.0706 16.2972 44.0505 16.257 44.0104 16.2169C43.9301 16.1366 43.7694 16.0563 43.6088 16.0563H43.5285ZM45.3756 14.0493L44.2513 10.9986C43.9567 11.0575 43.6188 11.2028 43.3012 11.3395C43.1859 11.3891 43.0732 11.4375 42.9663 11.4803L44.4119 11.8014L44.8135 13.3268L45.3756 14.0493Z" fill="white"/>
<path d="M33.8912 20.8732L39.7539 17.662C39.7539 17.5817 39.7539 17.5014 39.8342 17.4211L32.8471 7.62677L33.4896 20.7127C33.6502 20.7127 33.8109 20.793 33.8912 20.8732Z" fill="white"/>
<path d="M32.8471 20.8732C32.9275 20.793 33.0078 20.7127 33.1684 20.7127L32.4456 7.78732L27.7072 18.1437L32.8471 20.8732Z" fill="white"/>
<path d="M44.0104 24.9676L43.9301 26.6535L46.1788 23.1211L44.0104 24.9676Z" fill="white"/>
<path d="M40.2358 17.1803C40.3964 17.1803 40.4767 17.2606 40.557 17.3408L42.9663 16.6183C42.9663 16.4577 43.0466 16.3775 43.1269 16.2972L40.0751 12.4437C40.0751 12.4437 40.0751 12.4437 39.9948 12.4437C39.7539 12.4437 39.5933 12.2831 39.5933 12.0423V11.962L38.0674 10.9986C37.9871 11.0789 37.9067 11.0789 37.8264 11.0789C37.5855 11.0789 37.3446 10.838 37.3446 10.5972V10.5169L35.8187 9.39296L33.8109 8.02817L33.4093 7.78732L40.2358 17.1803C40.2358 17.1803 40.1554 17.1803 40.2358 17.1803Z" fill="white"/>
<path d="M43.6891 28.0986C43.5285 28.0986 43.4482 28.0183 43.3679 28.0183L41.842 29.062L45.2953 28.9014L47.3834 28.8211L51.2384 28.6606L44.171 27.8578C44.171 27.938 44.0907 27.938 44.0907 27.938C44.0907 28.0183 43.9301 28.0183 43.6891 28.0986C43.7694 28.0986 43.7694 28.0986 43.6891 28.0986Z" fill="white"/>
<path d="M36.7824 9.07182L36.2202 8.18872C36.2202 8.18872 36.2202 8.18872 36.1399 8.18872C35.9793 8.18872 35.8187 8.10844 35.7384 7.94788H34.5337L36.0596 8.91126L36.7824 9.07182Z" fill="white"/>
<path fill-rule="evenodd" clip-rule="evenodd" d="M38.3083 10.5169C38.3083 10.2761 38.0674 10.0352 37.8264 10.0352L37.5052 9.55353L43.6891 10.2761L40.3161 11.5606C40.2759 11.5606 40.2157 11.5405 40.1554 11.5204C40.0952 11.5004 40.035 11.4803 39.9948 11.4803C39.9547 11.4803 39.9346 11.5004 39.9145 11.5204C39.8944 11.5405 39.8744 11.5606 39.8342 11.5606L38.3083 10.5972V10.5169ZM40.8782 10.9986L42.3238 10.5169L38.6295 10.0352C38.6295 10.0754 38.6496 10.1356 38.6697 10.1958C38.6898 10.256 38.7099 10.3162 38.7099 10.3563L39.0311 10.5972L40.8782 10.9986Z" fill="white"/>
<path d="M37.1839 9.79436L37.0233 9.55352L36.7824 9.47324L37.1839 9.79436Z" fill="white"/>
<path fill-rule="evenodd" clip-rule="evenodd" d="M24.5751 12.8451C24.4145 12.8451 24.2539 12.9254 24.0933 13.0859C24.0129 13.0859 24.0129 13.1662 24.0129 13.1662L17.3471 11.3197L30.3575 8.59015L24.9767 13.0056C24.8964 12.9254 24.7357 12.8451 24.5751 12.8451ZM27.7876 10.1958L29.0725 9.15212L21.3627 10.7578L27.7876 10.1958Z" fill="white"/>
<path fill-rule="evenodd" clip-rule="evenodd" d="M33.5699 43.6732C33.6503 43.5929 33.6503 43.5127 33.6503 43.4324C33.6503 43.1915 33.4896 42.9507 33.1684 42.8704C33.0881 42.8704 32.9275 42.9507 32.8471 43.031C32.7668 43.1113 32.6865 43.1915 32.6865 43.2718L29.956 44.2352L27.7876 41.7465C27.8679 41.6662 27.8679 41.5859 27.8679 41.5056C27.8679 41.2648 27.6269 41.0239 27.386 41.0239C27.386 41.0239 27.3057 41.1042 27.2254 41.1042L26.1813 40.2211V40.1408C26.1813 39.9 26.0207 39.8197 25.8601 39.7394L25.2176 36.9296C25.2979 36.8493 25.3782 36.769 25.3782 36.6084C25.3782 36.4479 25.2979 36.3676 25.2176 36.2873C25.1373 36.207 24.9767 36.1268 24.8964 36.1268C24.8161 36.1268 24.6554 36.207 24.5751 36.2873C24.4948 36.3676 24.4145 36.4479 24.4145 36.5282L24.0129 36.6084V36.5282L24.9767 34.6817V34.6014L24.8964 29.8648C24.9767 29.8648 24.9767 29.8648 25.057 29.7845C25.2979 29.5437 25.2979 29.2225 25.057 28.9817C24.9767 28.9014 24.8161 28.8211 24.6554 28.8211H24.4948L23.2098 27.6169C23.2902 27.6169 23.2902 27.5366 23.2902 27.4563C23.2902 27.2958 23.2098 27.1352 23.1295 27.0549C23.0492 26.9746 22.8886 26.8944 22.8083 26.8944L22.5674 24.9676L24.4948 23.2014H24.6554C24.7357 23.2014 24.8161 23.2014 24.9767 23.0408C25.1373 22.8803 25.1373 22.5591 24.9767 22.3986C24.9365 22.3986 24.9164 22.3785 24.8964 22.3584C24.8763 22.3384 24.8562 22.3183 24.8161 22.3183C24.8161 21.7409 24.7998 20.4499 24.782 19.0284C24.7601 17.2874 24.7357 15.3508 24.7357 14.2901H24.8161L27.386 18.3845L32.6062 21.2746V21.4352C32.6062 21.4742 32.6109 21.5131 32.6158 21.5532C32.6305 21.6745 32.6465 21.8063 32.5369 21.9803C32.411 21.7986 32.3653 21.6169 32.3653 21.4352L27.2254 18.7056L27.1451 18.6253L27.0648 18.5451L26.5829 17.8225L25.057 16.9394C25.1373 18.9465 25.1373 21.1944 25.1373 22.238L25.2176 22.3183C25.3782 22.4789 25.4585 22.6394 25.4585 22.8803C25.4585 23.1211 25.3782 23.2817 25.2176 23.4422C25.057 23.6028 24.8161 23.6831 24.5751 23.6831L22.8886 25.2084L23.1295 26.8141C23.2098 26.8141 23.2902 26.8944 23.3705 26.9746C23.5311 27.1352 23.6114 27.376 23.6114 27.6169V27.6972L24.5751 28.6606H24.6554C24.8964 28.6606 25.1373 28.7408 25.2979 28.9014C25.6192 29.2225 25.6192 29.7845 25.2979 30.1056L25.2176 30.1859L25.2979 34.6817C25.2979 34.762 25.2979 34.8422 25.2176 34.9225L24.7357 35.8859H24.8161C25.057 35.8859 25.2176 35.9662 25.3782 36.1268C25.5389 36.2873 25.6192 36.4479 25.6192 36.6887C25.6192 36.8063 25.5761 36.8808 25.5216 36.9753C25.5016 37.0098 25.4801 37.0471 25.4585 37.0901L26.0207 39.5789C26.1813 39.6591 26.342 39.9 26.342 40.1408L27.1451 40.7831H27.2254H27.3057C27.7072 40.7831 28.1088 41.1845 28.1088 41.5859V41.8267L29.6347 43.5929L30.1166 43.9944L32.3653 43.1915C32.4054 43.1514 32.4255 43.1113 32.4456 43.0711C32.4657 43.031 32.4857 42.9908 32.5259 42.9507C32.6865 42.7098 32.9275 42.6296 33.1684 42.6296C33.6503 42.6296 33.9715 42.9507 34.1321 43.3521V43.5929L34.7746 44.5563L35.0958 44.7972V44.7169C35.1762 44.6366 35.1762 44.6366 35.1762 44.5563V44.476V44.3958L37.2642 42.6296V42.5493C37.2642 42.0676 37.6658 41.6662 38.1477 41.6662L38.8705 40.6225L38.7098 37.7324C38.5492 37.5718 38.4689 37.4113 38.4689 37.1704C38.4689 36.769 38.7901 36.4479 39.1917 36.4479L39.5129 36.0465C39.5933 35.6451 39.9145 35.3239 40.3161 35.3239H40.557L40.8498 33.9337L41.5207 35.1634C41.4404 35.2437 41.4404 35.3239 41.4404 35.4042C41.4404 35.6451 41.601 35.8056 41.842 35.8056L42.4845 36.9296L42.9663 37.7324L40.3964 36.2873C40.3964 36.0465 40.2357 35.8859 39.9948 35.8859C39.7539 35.8859 39.5933 36.0465 39.5933 36.2873V36.3676L39.0311 36.9296H38.9508C38.7098 36.9296 38.5492 37.0901 38.5492 37.331C38.5492 37.4915 38.6295 37.6521 38.7901 37.7324L39.0311 40.9437L38.228 42.1479H38.0674C37.7461 42.1479 37.5052 42.3887 37.5052 42.7098V42.8704L35.2565 44.7169V44.7972L35.1762 45.9211L33.5699 43.6732ZM40.0901 32.5415C40.1379 32.5643 40.1868 32.5821 40.2357 32.5944L40.8782 33.7986L40.8498 33.9337L40.0901 32.5415ZM40.0333 32.5117C40.0472 32.5133 40.0612 32.5141 40.0751 32.5141L40.0901 32.5415C40.071 32.5323 40.052 32.5224 40.0333 32.5117ZM39.6037 31.6421C39.5967 31.6914 39.5933 31.7415 39.5933 31.7915C39.5933 32.1073 39.7921 32.3735 40.0333 32.5117C39.8068 32.4859 39.5886 32.2546 39.5129 31.9521C39.5129 31.8396 39.5524 31.727 39.6037 31.6421ZM40.1554 30.9084L39.9948 31.3901C39.9145 31.3901 39.7539 31.4704 39.6736 31.5507C39.6496 31.5747 39.6255 31.6059 39.6037 31.6421C39.6301 31.4541 39.7069 31.2765 39.8342 31.1493C39.9145 31.069 39.9948 30.9887 40.1554 30.9084ZM42.8476 27.4831C42.8204 27.5515 42.8057 27.6243 42.8057 27.6972V27.7775L40.7176 29.2225V29.3028L40.2357 30.6676L40.1554 30.9084L40.7176 29.1422C40.7578 29.1021 40.7778 29.062 40.7979 29.0218C40.818 28.9817 40.8381 28.9415 40.8782 28.9014L41.0389 28.7408L42.8476 27.4831ZM42.8877 27.4005C42.8866 27.4189 42.886 27.4375 42.886 27.4563L42.8476 27.4831C42.8588 27.4547 42.8722 27.4271 42.8877 27.4005ZM43.2208 26.782L43.2072 27.1352C43.0694 27.1811 42.9579 27.2796 42.8877 27.4005C42.9034 27.1369 43.0306 26.9307 43.2208 26.782ZM43.3679 24.8873C43.2876 24.9676 43.2876 24.9676 43.2876 25.0479L43.2208 26.782C43.2423 26.7652 43.2646 26.7491 43.2876 26.7338L43.3679 24.8873ZM43.4201 23.6027C43.4294 23.6028 43.4388 23.6028 43.4482 23.6028H43.5285L45.7772 22.8L43.3679 24.8873C43.3679 24.7268 43.4482 24.5662 43.5285 24.4859L44.5725 23.6028L44.0104 23.7634H43.8497C43.6529 23.7634 43.5097 23.7098 43.4201 23.6027ZM40.7045 19.3659L40.7979 19.4282L43.3679 23.5225C43.3826 23.5519 43.4 23.5787 43.4201 23.6027C43.3502 23.6017 43.2876 23.5934 43.2876 23.5225L40.7045 19.3659ZM40.7045 19.3659L39.5933 18.6253L34.4534 21.4352C34.4534 21.676 34.2927 21.9972 34.1321 22.1577C33.9715 22.3986 33.7306 22.4789 33.4093 22.4789C33.1684 22.4789 32.9275 22.3183 32.6865 22.1577C32.6827 22.1539 32.6789 22.15 32.6751 22.1462C32.7788 22.2074 32.9086 22.238 33.0078 22.238C33.1684 22.238 33.329 22.1577 33.4896 21.9972C33.6503 21.9169 33.7306 21.676 33.7306 21.5155V21.3549L39.5933 18.1437C39.6736 18.2239 39.8342 18.2239 39.9145 18.2239H39.9948L40.7045 19.3659ZM32.6751 22.1462C32.6109 22.1083 32.5566 22.0586 32.5259 21.9972C32.5297 21.9915 32.5333 21.9859 32.5369 21.9803C32.5752 22.0356 32.621 22.0909 32.6751 22.1462Z" fill="white"/>
<path d="M33.0078 43.9141C32.9275 43.9141 32.8472 43.8338 32.8472 43.7535L29.956 44.7169L33.0078 48.6507V47.2056V43.9141Z" fill="white"/>
<path d="M35.7383 47.2056C35.658 47.2056 35.658 47.2056 35.5777 47.2056C35.2565 47.2056 35.0155 46.9648 35.0155 46.6437C35.0155 46.4831 35.0155 46.4028 35.0959 46.2423L33.4093 44.0746V49.1324L36.7824 48.5704L35.7383 47.2056Z" fill="white"/>
<path d="M37.1839 48.4099L38.6295 48.169L36.1399 47.2056L37.1839 48.4099Z" fill="white"/>
<path d="M23.3705 47.5268C23.2099 47.5268 23.1295 47.5268 23.0492 47.4465L21.6036 48.4901L23.6917 48.6507L28.9922 49.0521L23.772 47.4465C23.6114 47.4465 23.5311 47.5268 23.3705 47.5268Z" fill="white"/>
<path d="M27.1451 42.0676L24.9767 44.5563L30.1969 48.6507L27.3057 42.1479C27.2254 42.0676 27.1451 42.0676 27.1451 42.0676Z" fill="white"/>
<path d="M36.3808 46.8042L37.5855 47.2859L44.171 45.1183L36.3808 46.8042Z" fill="white"/>
<path d="M30.6788 48.731C30.8394 48.731 31 48.8916 31.0803 49.0521H32.8471L28.1891 42.9507L30.6788 48.731Z" fill="white"/>
<path fill-rule="evenodd" clip-rule="evenodd" d="M53.5055 29.3997L53.5674 29.3028H53.4871L53.5055 29.3997ZM53.5055 29.3997L47.4637 38.8563L51.8005 33.638C51.8005 33.6039 51.8005 33.5843 51.7944 33.5669C51.786 33.5433 51.7664 33.5236 51.7202 33.4775C51.7202 33.3169 51.7202 33.2366 51.8808 33.0761C52.0415 32.9155 52.1218 32.9155 52.2021 32.9155H52.2824L53.8083 30.9887L53.5055 29.3997ZM51.8005 32.6747C51.8808 32.5944 52.1218 32.5141 52.2824 32.5141L53.6477 30.8282L53.4871 30.0254L51.8005 32.6747Z" fill="white"/>
<path d="M37.1036 48.8915L35.7383 49.1324L38.4689 49.0521L38.8705 48.4901L37.1036 48.8915Z" fill="white"/>
<path d="M46.3394 41.2648C46.3394 41.4254 46.3394 41.6662 46.1788 41.7465L47.7047 43.4324C47.785 43.4324 47.785 43.4324 47.8653 43.4324H47.9456L48.7487 41.2648C48.6684 41.1845 48.6684 41.0239 48.6684 40.8634C48.6684 40.5423 48.9093 40.3014 49.2306 40.3014C49.3109 40.3014 49.3912 40.3014 49.4715 40.3817L51.4793 38.5352L50.114 39.2578L46.3394 41.2648Z" fill="white"/>
<path fill-rule="evenodd" clip-rule="evenodd" d="M54.9326 29.4634L55.1736 30.8282C55.2539 31.1493 55.1736 31.4704 54.772 31.7113L53.4067 33.3972C53.487 33.638 53.4067 33.8789 53.2461 34.1197L53.5674 37.4915V37.5718V37.7324V37.8127C53.487 37.8127 53.487 37.8929 53.487 37.8929V37.9732C53.487 38.0134 53.467 38.0334 53.4469 38.0535C53.4268 38.0736 53.4067 38.0937 53.4067 38.1338L53.3264 38.2141L50.4352 40.8634C50.4352 41.3451 50.114 41.8268 49.6321 42.0676L49.07 43.5929C49.1503 43.7535 49.1503 43.8338 49.1503 43.9944C49.1503 44.7169 48.5078 45.3591 47.785 45.3591H47.4637L39.9145 48.9718L39.272 49.7746C39.1114 50.0155 38.7902 50.176 38.4689 50.176L33.8912 50.2563H33.4093H33.0881H32.7668H32.285H31.2409C31.0803 50.4169 30.8394 50.4972 30.5984 50.4972H30.5181C30.1969 50.4972 29.8757 50.4169 29.6347 50.176L21.6839 49.6141C21.5233 49.7746 21.2824 49.8549 21.0415 49.8549H20.9611C20.6399 49.8549 20.3187 49.7746 20.0777 49.5338L13.0104 49.2929C12.8497 49.3732 12.6088 49.4535 12.3679 49.4535C11.886 49.4535 11.4845 49.2127 11.2435 48.8113C11.0026 48.5704 11.0026 48.169 11.0829 47.8479C11.1632 47.5268 11.4041 47.2056 11.7254 47.0451C11.886 46.9648 12.1269 46.8845 12.3679 46.8845H12.5285L16.2228 45.4394L16.1425 37.0099C15.9819 36.769 15.8212 36.4479 15.8212 36.1268C15.8212 35.8056 15.9016 35.4845 16.1425 35.2437L16.3834 29.7042V29.062C16.1425 28.8211 16.0622 28.5 16.0622 28.1789C16.0622 27.8577 16.1425 27.5366 16.3834 27.2958V14.8521C16.3031 14.8521 16.3031 14.7718 16.3031 14.7718L12.1269 12.6845C11.9663 12.7648 11.886 12.7648 11.7254 12.7648C11.0026 12.7648 10.3601 12.1225 10.3601 11.4C10.3601 10.6775 11.0026 10.0352 11.7254 10.0352C11.9663 10.0352 12.2876 10.1958 12.5285 10.3563H15.7409C15.9819 10.1155 16.3031 10.0352 16.6244 10.0352C16.8653 10.0352 17.1062 10.1155 17.2668 10.1958L30.7591 7.38591L31.4819 6.82394C31.6425 6.18168 32.1244 5.78027 32.7668 5.78027C33.329 5.78027 33.8109 6.18168 33.9715 6.66337L34.2927 6.90422H35.5777C35.7383 6.74365 35.899 6.66337 36.1399 6.66337H36.2202C36.8627 6.66337 37.3446 7.14506 37.4249 7.78732V7.8676L37.8264 8.50985L43.9301 9.23239C44.0907 9.1521 44.2513 9.07182 44.4119 9.07182H44.4922C45.1347 9.07182 45.6166 9.55351 45.6969 10.1958V10.5169L47.3834 15.4944C47.3834 15.544 47.4141 15.5629 47.4565 15.5891C47.4827 15.6053 47.5134 15.6243 47.544 15.6549C47.7047 15.8155 47.785 15.976 47.8653 16.1366L48.1865 16.2972L48.9896 16.6986L49.6321 17.0197L51.5596 18.0634H51.8808C52.6036 18.0634 53.2461 18.7056 53.2461 19.4282C53.2461 19.6187 53.1958 19.7591 53.1351 19.9286C53.119 19.9734 53.1023 20.0201 53.0855 20.0704L53.487 22.3986C53.8083 22.6394 53.9689 22.9606 53.9689 23.362C53.9689 23.6028 53.8886 23.8437 53.8083 24.0042L54.4508 27.376C54.5311 27.376 54.6114 27.4563 54.6917 27.5366C55.013 27.7775 55.1736 28.1789 55.1736 28.5803C55.1736 28.9014 55.0933 29.2225 54.9326 29.4634ZM54.3643 31.0599C54.3705 31.0425 54.3705 31.0228 54.3705 30.9887L53.8886 29.1422C53.9689 29.1422 54.0492 29.062 54.0492 29.062C54.2098 28.9817 54.2902 28.7408 54.2902 28.5803C54.2902 28.4197 54.2098 28.2591 54.0492 28.0986C54.0062 28.0771 53.9689 28.0556 53.9343 28.0356C53.8398 27.981 53.7653 27.938 53.6477 27.938L52.8446 23.7634C53.0052 23.6831 53.0855 23.5225 53.0855 23.362C53.0855 23.1211 52.9249 22.9606 52.6839 22.8803L52.1218 19.8296C52.2824 19.669 52.3627 19.5084 52.3627 19.3479C52.3627 19.0268 52.1218 18.7859 51.8005 18.7859C51.6399 18.7859 51.4793 18.8662 51.399 18.9465L46.9819 16.6183C46.9819 16.4577 46.9016 16.2972 46.8212 16.2169C46.8212 16.1366 46.6606 16.0563 46.5803 16.0563L44.7332 10.5169C44.8135 10.4366 44.8135 10.3563 44.8135 10.276C44.8135 10.0352 44.6529 9.87464 44.4119 9.87464C44.2513 9.87464 44.171 9.95492 44.0907 10.0352L37.2643 9.23239L36.5415 8.02816V7.78732C36.5415 7.54647 36.3808 7.38591 36.1399 7.38591C35.9793 7.38591 35.899 7.46619 35.8187 7.54647V7.62675H33.9715L33.0881 7.06478V6.9845C33.0881 6.74365 32.8472 6.50281 32.6062 6.50281C32.3653 6.50281 32.1244 6.74365 32.1244 6.9845V7.06478L30.9197 8.10844V8.02816L16.9456 10.9183C16.8653 10.838 16.7047 10.7577 16.544 10.7577C16.3834 10.7577 16.1425 10.9183 16.0622 11.0789L12.2073 11.1591C12.1269 10.9986 11.9663 10.838 11.7254 10.838C11.4041 10.838 11.1632 11.0789 11.1632 11.4C11.1632 11.7211 11.4041 11.962 11.7254 11.962C11.843 11.962 11.9175 11.9189 12.012 11.8644C12.0466 11.8444 12.0839 11.8229 12.1269 11.8014L16.8653 14.2099C16.9054 14.25 16.9255 14.2901 16.9456 14.3303C16.9657 14.3704 16.9858 14.4106 17.0259 14.4507C17.0259 14.4507 17.0259 14.531 17.1062 14.531V27.6972C17.0721 27.6972 17.0525 27.6972 17.035 27.7033C17.0114 27.7117 16.9918 27.7313 16.9456 27.7775C16.9241 27.8205 16.9026 27.8577 16.8826 27.8923C16.828 27.9868 16.785 28.0613 16.785 28.1789C16.785 28.3394 16.8653 28.5 16.9456 28.5803C16.9858 28.5803 17.0058 28.6003 17.0259 28.6204C17.046 28.6405 17.0661 28.6606 17.1062 28.6606L17.0259 29.7042L16.9456 35.4845L16.785 35.6451C16.7635 35.6881 16.7419 35.7253 16.722 35.7599C16.6674 35.8544 16.6244 35.9289 16.6244 36.0465C16.6244 36.207 16.7047 36.3676 16.785 36.4479C16.785 36.5282 16.8653 36.6084 16.9456 36.6084L17.0259 45.9211L12.6088 47.6873C12.5285 47.607 12.4482 47.607 12.3679 47.607C12.2876 47.607 12.2073 47.607 12.1269 47.6873C12.108 47.7063 12.0846 47.7252 12.0598 47.7452C11.9798 47.81 11.886 47.8858 11.886 48.0084C11.886 48.169 11.886 48.3296 11.9663 48.4099C12.1269 48.5704 12.2876 48.6507 12.4482 48.6507C12.5285 48.6507 12.6088 48.6507 12.6891 48.5704C12.7694 48.5704 12.8497 48.5704 12.8497 48.4901L20.5596 48.731C20.6399 48.8915 20.8005 49.0521 21.0415 49.0521C21.1218 49.0521 21.2824 48.9718 21.3627 48.8915C21.443 48.8915 21.443 48.8113 21.443 48.8113L30.1166 49.4535C30.1969 49.6944 30.3575 49.7746 30.5984 49.7746C30.6788 49.7746 30.8394 49.6944 30.9197 49.6141C31 49.6141 31 49.5338 31 49.5338L33.329 49.2929L38.6295 49.2127C38.7098 49.2127 38.7902 49.2127 38.7902 49.1324L39.513 48.0887L47.544 44.2352C47.6244 44.3155 47.7047 44.3155 47.8653 44.3155C48.1865 44.3155 48.4275 44.0746 48.4275 43.7535C48.4275 43.6732 48.4275 43.5127 48.3472 43.4324L49.2306 41.1845C49.5518 41.1845 49.7927 40.9437 49.7927 40.6225C49.7927 40.5422 49.7927 40.462 49.7124 40.3817L52.9249 37.4915L52.5233 33.7986L52.6036 33.7183C52.7643 33.5577 52.7643 33.4775 52.7643 33.3169C52.7643 33.2768 52.7442 33.2366 52.7241 33.1965C52.704 33.1563 52.6839 33.1162 52.6839 33.076L54.2902 31.1493C54.3363 31.1031 54.356 31.0835 54.3643 31.0599Z" fill="white"/>
<path d="M52.1218 33.8789L46.4197 40.7831L50.1943 38.6958L52.5233 37.4113L52.1218 33.8789C52.2021 33.8789 52.2021 33.8789 52.1218 33.8789Z" fill="white"/>
<path d="M39.3523 48.0085L45.0544 45.1986L38.1477 47.5268L39.3523 48.0085Z" fill="white"/>
<path d="M45.8575 41.9873C45.7772 41.9873 45.6969 42.0676 45.6166 42.0676C45.456 42.0676 45.215 41.9873 45.1347 41.8268L45.0544 41.7465L38.7902 42.7099C38.7098 42.9507 38.4689 43.1916 38.228 43.1916C38.1477 43.1916 37.987 43.1916 37.9067 43.1113L36.1399 44.5563L47.3031 43.8338C47.3031 43.7535 47.3834 43.6733 47.3834 43.6733L46.8212 43.1113L45.8575 41.9873Z" fill="white"/>
<path d="M35.7383 45.038L35.658 46.162C35.8186 46.2423 35.9793 46.3225 36.0596 46.4831L45.4559 44.3958L36.8627 44.9578L35.7383 45.038Z" fill="white"/>
<path d="M24.3342 44.6366L23.0492 43.593L23.4508 46.4831C23.6917 46.5634 23.8523 46.7239 23.8523 46.9648L29.715 48.8113L24.4948 44.7169L24.3342 44.6366Z" fill="white"/>
<path fill-rule="evenodd" clip-rule="evenodd" d="M17.4274 29.7845L17.5078 28.7408H17.5881L20.9611 30.8282C20.9611 30.9085 20.9611 30.9887 21.0414 31.069L17.3471 35.5648L17.4274 29.7845ZM17.7487 29.2225V29.8648L17.6684 34.6014L20.6399 30.9887L17.7487 29.2225Z" fill="white"/>
<path fill-rule="evenodd" clip-rule="evenodd" d="M21.2021 30.4268L18.3109 28.6606L24.013 29.4634L21.7643 30.4268C21.6839 30.3465 21.5233 30.3465 21.443 30.3465C21.3627 30.3465 21.2824 30.3465 21.2021 30.4268ZM21.2021 30.0253H21.443C21.5233 30.0253 21.6839 30.0253 21.7643 30.1056L22.8083 29.6239L19.8368 29.2225L21.2021 30.0253Z" fill="white"/>
<path d="M21.2021 33.8789L21.9249 33.4775L21.443 31.631L21.2021 33.8789Z" fill="white"/>
<path fill-rule="evenodd" clip-rule="evenodd" d="M20.6399 33.9592C20.4793 34.0394 20.4793 34.1197 20.4793 34.2803L17.9093 35.5648L21.1218 31.631L20.8005 33.8789C20.7202 33.8789 20.7202 33.8789 20.6399 33.9592ZM20.399 33.5979C20.419 33.5778 20.4391 33.5577 20.4793 33.5577L20.5596 32.6746L19.0337 34.5211L20.0777 34.0394L20.0777 34.0394C20.158 33.8789 20.2383 33.7183 20.3187 33.638C20.3588 33.638 20.3789 33.618 20.399 33.5979Z" fill="white"/>
<path d="M22.2461 14.7718C22.3264 14.7718 22.4067 14.7718 22.4871 14.8521C22.9689 14.531 23.4508 14.1296 23.8523 13.8084C23.8523 13.7282 23.772 13.6479 23.772 13.4873L20.5596 12.6042L17.9093 26.2521L18.8731 24.0042L19.7565 21.7563L21.9249 15.4944C21.7643 15.3338 21.7643 15.0127 21.9249 14.8521C22.0855 14.8521 22.1658 14.7718 22.2461 14.7718Z" fill="white"/>
<path fill-rule="evenodd" clip-rule="evenodd" d="M21.7642 31.069C21.8446 30.9887 21.8446 30.9084 21.8446 30.8282L24.0933 29.7042L24.1736 29.7845L23.772 30.8282C23.7319 30.8683 23.6917 30.8884 23.6515 30.9084C23.6114 30.9285 23.5712 30.9486 23.5311 30.9887C23.3705 31.1493 23.3705 31.4704 23.5311 31.631L20.4793 39.0169H20.399L17.5881 36.2873C17.6684 36.207 17.6684 36.1268 17.6684 36.0465L20.6399 34.6817C20.7202 34.762 20.8005 34.762 20.8808 34.762C20.9611 34.762 21.1218 34.6817 21.2021 34.6014C21.2824 34.5211 21.3627 34.3606 21.3627 34.2803L22.3264 33.7986C22.4067 33.7183 22.4067 33.638 22.4067 33.5577L21.7642 31.069ZM23.3705 30.8282C23.4508 30.7479 23.5311 30.6676 23.6114 30.6676L23.6917 30.4268L22.1658 31.069V31.1493L22.5673 33.0761L22.728 32.8352L23.2098 31.7113C23.0492 31.3901 23.1295 31.069 23.3705 30.8282Z" fill="white"/>
<path fill-rule="evenodd" clip-rule="evenodd" d="M22.0855 27.7775C22.1658 27.938 22.4067 28.0986 22.6477 28.0986C22.6878 28.0986 22.728 28.0785 22.7681 28.0585C22.8083 28.0384 22.8484 28.0183 22.8886 28.0183L24.0129 29.1423L18.2306 28.3394L22.0855 27.7775ZM22.0052 28.0986L20.6399 28.2592L23.1295 28.6606L22.8886 28.4197H22.6477C22.4067 28.4197 22.1658 28.2592 22.0052 28.0986Z" fill="white"/>
<path fill-rule="evenodd" clip-rule="evenodd" d="M22.0855 27.2958L17.7487 27.938L19.1943 24.1648L19.5959 23.2817L22.1658 27.1352C22.1658 27.1352 22.0855 27.2155 22.0855 27.2958ZM19.6762 24.0042L19.5156 24.3253L18.1503 27.5366L21.684 27.0549L19.6762 24.0042Z" fill="white"/>
<path d="M20.399 23.7634L22.3264 26.6535L22.0855 25.0479L20.399 23.7634Z" fill="white"/>
<path d="M17.5881 13.8887C17.7487 14.0493 17.7487 14.3704 17.5881 14.531L17.5078 14.6113V26.3324L20.158 12.6042L17.0259 11.7211C16.9456 11.8014 16.9456 11.8817 16.8653 11.8817L17.4275 13.8085C17.4275 13.7282 17.5078 13.8085 17.5881 13.8887Z" fill="white"/>
<path d="M16.0622 11.4803L12.4482 11.5606L17.0259 13.8887L16.4637 11.8817C16.2228 11.8014 16.0622 11.6408 16.0622 11.4803Z" fill="white"/>
<path d="M12.9301 48.0085V48.0887L20.3187 48.3296L17.2668 46.3225L12.9301 48.0085Z" fill="white"/>
<path d="M17.4274 46.0014L18.2306 46.4831L20.6399 48.0887L17.3471 37.4915L17.4274 46.0014Z" fill="white"/>
<path d="M24.3342 14.2902C24.2539 14.2902 24.1736 14.2099 24.1736 14.2099C23.772 14.531 23.1295 15.0127 22.728 15.3338C22.728 15.4141 22.6477 15.4944 22.5674 15.5747L24.3342 21.3549C24.3342 19.4282 24.3342 15.8155 24.3342 14.2902Z" fill="white"/>
<path d="M22.8886 47.0451C22.8886 46.8845 22.8886 46.8042 23.0492 46.724L20.5596 39.9803C20.399 39.9803 20.3186 39.9 20.2383 39.7394C20.158 39.6592 20.158 39.4986 20.158 39.4183L17.5881 36.8493L19.2746 42.2282L21.1218 48.0887C21.2021 48.0887 21.2824 48.0887 21.3627 48.169L22.8886 47.0451Z" fill="white"/>
<path fill-rule="evenodd" clip-rule="evenodd" d="M22.2461 24.6465L20.158 23.0409L24.0933 22.9606L22.2461 24.6465ZM21.1218 23.4423L22.2461 24.2451L23.2098 23.362L21.1218 23.4423Z" fill="white"/>
<path d="M24.3342 22.4789C24.3342 22.4789 24.3342 22.3986 24.3342 22.4789L22.3264 15.8958L20.2384 21.9972L19.9171 22.7197L24.2539 22.6394C24.2539 22.5592 24.2539 22.4789 24.3342 22.4789Z" fill="white"/>
<path d="M30.0363 27.1352V25.7704L28.8316 24.1648L24.7357 24.0042L27.7876 26.2521L29.2332 26.0915L30.0363 27.1352Z" fill="white"/>
<path d="M36.5415 26.8141L37.1839 26.0915L38.5492 26.2521L41.601 24.0042L37.5052 24.1648L35.8187 26.4929L35.9793 29.7845L36.5415 26.8141Z" fill="white"/>
<path d="M33.1684 35.5648H34.5337L37.3445 37.331L37.2642 36.0465L36.4611 36.1267L33.4093 34.0394V32.5944L36.6218 30.9887L36.1399 30.5873L33.1684 30.8282L30.2772 30.5873L29.7953 30.9887L32.9275 32.5944V34.0394L29.8756 36.1267L29.0725 36.0465L28.9922 37.331L31.8031 35.5648H33.1684Z" fill="white"/>
<path d="M33.1684 39.2578L31.7228 40.462H34.614L33.1684 39.2578Z" fill="white"/>
<path fill-rule="evenodd" clip-rule="evenodd" d="M69.8705 13.8084C70.9948 13.8084 71.9586 14.0493 72.842 14.531C73.7254 15.0127 74.3679 15.7352 74.8497 16.6986C75.3316 17.5817 75.5725 18.6253 75.5725 19.8296V20.3915C75.5725 21.5958 75.3316 22.6394 74.8497 23.5225C74.3679 24.4056 73.7254 25.1282 72.842 25.6098C71.9586 26.0915 70.9948 26.3324 69.8705 26.3324H67.1399H65.9352V13.8084H68.6658H69.8705ZM72.1192 23.1211C72.6814 22.4789 72.9223 21.5155 72.9223 20.3113V19.7493C72.9223 18.5451 72.601 17.5817 72.1192 16.9394C71.557 16.2972 70.8342 15.976 69.8705 15.976H68.6658V24.0845H69.8705C70.8342 24.0845 71.6373 23.7634 72.1192 23.1211Z" fill="white"/>
<path d="M86.9767 21.9972V13.7282H84.2461V21.9169C84.2461 22.7197 84.0855 23.2817 83.684 23.6831C83.2824 24.0845 82.8005 24.2451 82.0777 24.2451C80.6321 24.2451 79.9093 23.5225 79.9093 21.9972V13.7282H77.1788V21.9169C77.1788 22.8803 77.4197 23.6831 77.8213 24.3254C78.2228 24.9676 78.785 25.5296 79.5078 25.8507C80.2306 26.1718 81.114 26.3324 82.0777 26.3324C83.0415 26.3324 83.8446 26.1718 84.5674 25.8507C85.2902 25.5296 85.8523 24.9676 86.2539 24.3254C86.8161 23.7634 86.9767 22.9606 86.9767 21.9972Z" fill="white"/>
<path d="M96.2928 22.0775C96.2124 22.8 96.0518 23.362 95.6503 23.6831C95.2487 24.0042 94.6865 24.2451 93.8834 24.2451C93.3213 24.2451 92.8394 24.0845 92.4378 23.8437C92.1166 23.6028 91.7953 23.1211 91.6347 22.5592C91.4741 21.9972 91.3938 21.2747 91.3938 20.3916V19.5887C91.3938 18.3042 91.6347 17.3409 92.0363 16.6986C92.4378 16.0563 93.0803 15.7352 93.8834 15.7352C94.6865 15.7352 95.2487 15.8958 95.6503 16.2972C96.0518 16.6986 96.2124 17.2606 96.2928 17.9831H99.0233C98.943 17.1 98.7021 16.2972 98.3005 15.6549C97.899 15.0127 97.3368 14.4507 96.614 14.0493C95.8912 13.6479 95.0078 13.4873 93.9637 13.4873C92.9197 13.4873 92.0363 13.7282 91.2332 14.2099C90.4301 14.6916 89.8679 15.4141 89.386 16.2972C88.9845 17.1803 88.7435 18.3042 88.7435 19.5085V20.3113C88.7435 21.5155 88.9845 22.6394 89.386 23.5225C89.7876 24.4056 90.4301 25.1282 91.1529 25.6099C91.956 26.0916 92.8394 26.3324 93.9637 26.3324C94.9275 26.3324 95.8109 26.1718 96.614 25.7704C97.3368 25.369 97.9793 24.8873 98.3808 24.2451C98.7824 23.6028 99.0233 22.8 99.1036 21.9972H96.2928V22.0775Z" fill="white"/>
<path fill-rule="evenodd" clip-rule="evenodd" d="M107.697 23.7634H103.28L102.396 26.2521H99.5052L104.163 13.7282H106.01H106.733L111.391 26.2521H108.5L107.697 23.7634ZM106.974 21.5958L105.448 17.0197L104.003 21.5958H106.974Z" fill="white"/>
<path d="M110.668 13.7282V15.9761H114.443V26.2521H117.093V15.9761H120.948V13.7282H117.093H110.668Z" fill="white"/>
<path d="M131.308 24.4056C131.71 23.7634 131.951 22.9606 131.951 21.9972V13.7282H129.22V21.9169C129.22 22.7197 129.06 23.2817 128.658 23.6831C128.256 24.0845 127.775 24.2451 127.052 24.2451C125.606 24.2451 124.883 23.5225 124.883 21.9972V13.7282H122.153V21.9169C122.153 22.8803 122.394 23.6831 122.795 24.3254C123.197 24.9676 123.759 25.5296 124.482 25.8507C125.205 26.1718 126.088 26.3324 127.052 26.3324C128.016 26.3324 128.819 26.1718 129.541 25.8507C130.345 25.6099 130.907 25.0479 131.308 24.4056Z" fill="white"/>
<path d="M137.412 15.8958C137.733 15.8155 138.054 15.7352 138.456 15.7352C139.098 15.7352 139.58 15.8958 139.902 16.2169C140.223 16.538 140.383 16.9394 140.383 17.5014H143.114C143.114 16.7789 142.953 16.0563 142.552 15.4944C142.15 14.9324 141.588 14.4507 140.946 14.1296C140.303 13.8085 139.42 13.6479 138.536 13.6479C137.653 13.6479 136.85 13.8085 136.127 14.0493C135.404 14.3704 134.842 14.7718 134.44 15.2535C134.039 15.8155 133.878 16.3775 133.878 17.1C133.878 17.8225 134.039 18.3845 134.44 18.8662C134.842 19.3479 135.324 19.8296 135.886 20.1507C136.528 20.4718 137.251 20.793 138.054 21.0338C138.697 21.2746 139.179 21.4352 139.58 21.5958C139.902 21.7563 140.142 21.9972 140.303 22.1577C140.464 22.3183 140.464 22.6394 140.464 22.8803C140.464 23.2817 140.303 23.6028 139.982 23.8437C139.661 24.0845 139.179 24.2451 138.617 24.2451C137.813 24.2451 137.251 24.0845 136.85 23.7634C136.448 23.4423 136.207 22.9606 136.207 22.238H133.477C133.477 23.1211 133.718 23.9239 134.199 24.5662C134.681 25.2085 135.324 25.6901 136.127 25.931C136.93 26.2521 137.733 26.4127 138.617 26.4127C139.5 26.4127 140.383 26.2521 141.026 26.0113C141.749 25.7704 142.231 25.369 142.632 24.807C143.034 24.2451 143.194 23.6831 143.194 22.9606C143.194 21.9169 142.873 21.1141 142.15 20.4718C141.427 19.8296 140.383 19.2676 139.018 18.8662C138.215 18.6254 137.573 18.3845 137.171 18.0634C136.769 17.8225 136.609 17.5014 136.609 17.1C136.609 16.8592 136.689 16.6183 136.85 16.3775C136.93 16.2169 137.171 16.0563 137.412 15.8958Z" fill="white"/>
<path d="M72.6813 41.3451L70.8342 35.5648H70.6736H69.7902L68.0233 41.1845L66.4974 35.5648H65.2124L67.4611 43.1915H67.6218H68.5052L70.272 37.4113L72.1192 43.1915H72.3601H73.2435L75.4119 35.5648H74.1269L72.6813 41.3451Z" fill="white"/>
<path fill-rule="evenodd" clip-rule="evenodd" d="M80.4715 35.4042C81.1943 35.4042 81.7565 35.5648 82.2384 35.8859C82.7202 36.2071 82.9612 36.769 83.2021 37.331C83.443 37.893 83.5233 38.5352 83.5233 39.2578V39.8197H78.3834C78.3834 40.3014 78.4637 40.7831 78.7047 41.1042C78.9456 41.4254 79.1865 41.7465 79.5078 41.9873C79.829 42.2282 80.2306 42.3085 80.7125 42.3085C81.114 42.3085 81.5156 42.3085 81.8368 42.0676L81.8368 42.0676C82.158 41.8268 82.4793 41.5859 82.7202 41.2648L83.5233 41.9071C83.2824 42.3085 82.8808 42.7099 82.399 42.9507C81.9171 43.1916 81.3549 43.3521 80.6321 43.3521C79.9093 43.3521 79.2669 43.1916 78.785 42.8704C78.3031 42.5493 77.9016 42.1479 77.5803 41.5859C77.3394 41.024 77.1788 40.3817 77.1788 39.6592V39.338C77.1788 38.5352 77.3394 37.8127 77.6606 37.2507C77.9819 36.6887 78.3834 36.2071 78.8653 35.8859C79.3472 35.5648 79.9093 35.4042 80.4715 35.4042ZM78.5441 38.6155H82.3187C82.3187 37.9732 82.158 37.4916 81.8368 37.0902C81.5156 36.6887 81.114 36.4479 80.4715 36.4479C79.9897 36.4479 79.5078 36.6085 79.1865 37.0099C78.8653 37.4113 78.6244 37.893 78.5441 38.6155Z" fill="white"/>
<path fill-rule="evenodd" clip-rule="evenodd" d="M89.386 35.4042C90.0285 35.4042 90.5104 35.5648 90.9922 35.8859C91.3938 36.207 91.7953 36.6887 92.1166 37.1704C92.3575 37.8127 92.4378 38.4549 92.4378 39.2577V39.4986C92.4378 40.2211 92.3575 40.9437 92.1166 41.5056C91.8757 42.0676 91.5544 42.5493 91.0725 42.8704C90.5907 43.1915 90.1088 43.3521 89.4663 43.3521C88.5026 43.3521 87.7798 42.9507 87.2176 42.3084L87.1373 43.1915H85.9326V32.3535H87.2176V36.3676C87.6995 35.7253 88.4223 35.4042 89.386 35.4042ZM90.5104 41.4253C90.8316 40.9437 90.9922 40.2211 90.9922 39.4183H91.0725V39.2577C91.0725 38.4549 90.9119 37.7324 90.5907 37.2507C90.2694 36.6887 89.7876 36.4479 89.0648 36.4479C88.5829 36.4479 88.2617 36.5282 87.9404 36.769C87.6192 37.0099 87.3782 37.2507 87.2176 37.6521V41.0239C87.3782 41.4253 87.6192 41.6662 87.9404 41.907C88.2617 42.1479 88.5829 42.2282 89.0648 42.2282C89.7073 42.2282 90.1891 41.907 90.5104 41.4253Z" fill="white"/>
<path d="M105.769 41.3451L104.003 35.5648H103.762H102.878L101.111 41.1845L99.6658 35.5648H98.3005L100.549 43.1915H100.79H101.593L103.44 37.4113L105.288 43.1915H105.448H106.332L108.58 35.5648H107.215L105.769 41.3451Z" fill="white"/>
<path fill-rule="evenodd" clip-rule="evenodd" d="M116.451 37.9732V41.5056C116.451 41.6174 116.485 41.7465 116.522 41.8848C116.565 42.0446 116.611 42.2166 116.611 42.3887C116.611 42.7099 116.692 42.9507 116.772 43.1113V43.1915H115.407C115.362 43.1014 115.342 42.9606 115.319 42.7976C115.301 42.6703 115.281 42.5295 115.246 42.3887C115.005 42.6296 114.684 42.8704 114.282 43.031C113.961 43.1915 113.56 43.2718 113.078 43.2718C112.516 43.2718 112.114 43.1113 111.712 42.9507C111.311 42.7901 111.07 42.469 110.829 42.1479C110.588 41.8268 110.508 41.4254 110.508 41.0239C110.508 40.462 110.588 40.0606 110.909 39.6592C111.231 39.2577 111.632 38.9366 112.114 38.7761C112.676 38.5352 113.238 38.4549 113.961 38.4549H115.246V37.8127C115.246 37.331 115.086 36.9296 114.845 36.6887C114.523 36.4479 114.122 36.2873 113.64 36.2873C113.319 36.2873 112.997 36.2873 112.756 36.4479C112.721 36.4718 112.686 36.494 112.654 36.5152C112.468 36.636 112.331 36.7247 112.194 36.9296C112.034 37.1704 111.953 37.331 111.953 37.5718H110.668C110.668 37.2507 110.829 36.9296 111.07 36.5282C111.311 36.1268 111.632 35.8859 112.114 35.6451C112.596 35.4042 113.158 35.3239 113.72 35.3239C114.282 35.3239 114.764 35.4042 115.166 35.6451C115.567 35.8859 115.889 36.1268 116.13 36.5282C116.37 36.9296 116.451 37.4113 116.451 37.9732ZM114.684 41.5859C114.845 41.4254 115.005 41.2648 115.086 41.0239V39.4986H114.041C113.238 39.4986 112.676 39.5789 112.275 39.8197C111.873 40.0606 111.712 40.3817 111.712 40.8634C111.712 41.054 111.763 41.1943 111.824 41.3639C111.84 41.4086 111.856 41.4554 111.873 41.5056C111.953 41.7465 112.114 41.907 112.355 41.9873C112.596 42.0676 112.837 42.1479 113.158 42.1479C113.479 42.1479 113.801 42.0676 114.041 41.9873C114.282 41.907 114.523 41.7465 114.684 41.5859Z" fill="white"/>
<rect x="119.342" y="32.3535" width="1.28497" height="10.838" fill="white"/>
<rect x="123.518" y="32.3535" width="1.28497" height="10.838" fill="white"/>
<path fill-rule="evenodd" clip-rule="evenodd" d="M130.666 35.4042C131.389 35.4042 131.951 35.5648 132.433 35.8859C132.914 36.2071 133.155 36.769 133.396 37.331C133.637 37.893 133.718 38.5352 133.718 39.2578V39.8197H128.578C128.578 40.3014 128.658 40.7831 128.899 41.1042C129.14 41.4254 129.381 41.7465 129.702 41.9873C130.023 42.2282 130.425 42.3085 130.907 42.3085C131.308 42.3085 131.71 42.3085 132.031 42.0676L132.031 42.0676C132.352 41.8268 132.674 41.5859 132.914 41.2648L133.718 41.9071C133.477 42.3085 133.075 42.7099 132.593 42.9507C132.111 43.1916 131.549 43.3521 130.826 43.3521C130.104 43.3521 129.461 43.1916 128.979 42.8704C128.497 42.5493 128.096 42.1479 127.775 41.5859C127.534 41.024 127.373 40.3817 127.373 39.6592V39.338C127.373 38.5352 127.534 37.8127 127.855 37.2507C128.176 36.6887 128.578 36.2071 129.06 35.8859C129.541 35.5648 130.104 35.4042 130.666 35.4042ZM128.738 38.6155H132.513C132.513 37.9732 132.352 37.4916 132.031 37.0902C131.71 36.6887 131.308 36.4479 130.666 36.4479C130.184 36.4479 129.702 36.6085 129.381 37.0099C129.06 37.4113 128.819 37.893 128.738 38.6155Z" fill="white"/>
<path d="M139.018 42.1479C138.938 42.1479 138.777 42.1479 138.697 42.1479C138.456 42.1479 138.215 42.0676 138.054 41.9873C137.894 41.907 137.813 41.5859 137.813 41.2648V36.5282H139.259V35.5648H137.813V33.638H136.528V35.4845H135.163V36.4479H136.528V41.1845C136.528 41.907 136.689 42.3887 137.01 42.7099C137.332 43.031 137.733 43.1916 138.295 43.1916C138.697 43.1916 139.018 43.1113 139.339 43.031V41.9873C139.259 42.1479 139.098 42.1479 139.018 42.1479Z" fill="white"/>
</svg>
