<svg width="171" height="50" viewBox="0 0 171 50" fill="none" xmlns="http://www.w3.org/2000/svg">
<path d="M169.659 43.3634C169.659 45.9755 167.499 48.0913 164.827 48.0913H6.71161C4.04126 48.0913 1.87372 45.9755 1.87372 43.3634V5.65926C1.87372 3.04838 4.04126 0.92511 6.71161 0.92511H164.826C167.499 0.92511 169.658 3.04838 169.658 5.65926L169.659 43.3634Z" fill="black"/>
<path d="M38.7971 24.2436C38.7607 20.2942 42.1138 18.3727 42.2672 18.2833C40.3681 15.5837 37.4247 15.2149 36.3903 15.1855C33.9181 14.9318 31.5201 16.6278 30.2608 16.6278C28.9763 16.6278 27.0371 15.21 24.947 15.2516C22.2574 15.2921 19.7412 16.8104 18.3612 19.168C15.5133 23.9752 17.6373 31.0397 20.3659 34.9254C21.7308 36.8284 23.3257 38.9533 25.4133 38.8785C27.4556 38.7964 28.2185 37.609 30.6831 37.609C33.1251 37.609 33.8415 38.8785 35.9705 38.8307C38.1624 38.7964 39.5424 36.9191 40.8595 34.9989C42.4368 32.8177 43.0703 30.6696 43.0954 30.5593C43.0439 30.5422 38.8386 28.9773 38.7971 24.2436Z" fill="white"/>
<path d="M34.7753 12.6293C35.8737 11.2899 36.6253 9.46778 36.4167 7.61865C34.8268 7.68727 32.8385 8.69087 31.6936 10.0008C30.6806 11.1551 29.7757 13.0472 30.0094 14.8264C31.7954 14.9563 33.6291 13.9478 34.7753 12.6293Z" fill="white"/>
<path d="M68.3529 38.6055H65.4986L63.9351 33.8155H58.5007L57.0113 38.6055H54.2325L59.6167 22.2979H62.9423L68.3529 38.6055ZM63.4638 31.8058L62.0499 27.5475C61.9004 27.1125 61.6201 26.0881 61.2066 24.4755H61.1563C60.9917 25.169 60.7265 26.1935 60.362 27.5475L58.9732 31.8058H63.4638V31.8058Z" fill="white"/>
<path d="M82.1989 32.581C82.1989 34.5808 81.6446 36.1616 80.5361 37.3221C79.5432 38.3551 78.3103 38.871 76.8386 38.871C75.25 38.871 74.1088 38.3146 73.4138 37.202H73.3635V43.3964H70.6839V30.7172C70.6839 29.4599 70.65 28.1696 70.5847 26.8461H72.9412L73.0907 28.71H73.141C74.0346 27.3057 75.3907 26.6047 77.2106 26.6047C78.6333 26.6047 79.821 27.1525 80.7712 28.2492C81.7238 29.3472 82.1989 30.7907 82.1989 32.581ZM79.4691 32.6766C79.4691 31.5321 79.2052 30.5885 78.6748 29.8459C78.0954 29.0715 77.3174 28.6842 76.3421 28.6842C75.681 28.6842 75.0803 28.8999 74.5436 29.3251C74.0057 29.754 73.6538 30.314 73.4892 31.0076C73.4062 31.3311 73.3647 31.5958 73.3647 31.8041V33.7647C73.3647 34.6201 73.6337 35.3418 74.1716 35.9312C74.7095 36.5206 75.4083 36.8147 76.268 36.8147C77.2772 36.8147 78.0627 36.4349 78.6245 35.6776C79.1876 34.9191 79.4691 33.9191 79.4691 32.6766Z" fill="white"/>
<path d="M96.0709 32.581C96.0709 34.5808 95.5167 36.1616 94.4069 37.3221C93.4153 38.3551 92.1823 38.871 90.7106 38.871C89.122 38.871 87.9808 38.3146 87.287 37.202H87.2367V43.3964H84.5572V30.7172C84.5572 29.4599 84.5233 28.1696 84.4579 26.8461H86.8144L86.964 28.71H87.0143C87.9066 27.3057 89.2627 26.6047 91.0839 26.6047C92.5053 26.6047 93.693 27.1525 94.6457 28.2492C95.5946 29.3472 96.0709 30.7907 96.0709 32.581ZM93.3411 32.6766C93.3411 31.5321 93.0759 30.5885 92.5455 29.8459C91.9661 29.0715 91.1907 28.6842 90.2141 28.6842C89.5518 28.6842 88.9523 28.8999 88.4144 29.3251C87.8765 29.754 87.5258 30.314 87.3612 31.0076C87.2795 31.3311 87.2367 31.5958 87.2367 31.8041V33.7647C87.2367 34.6201 87.5057 35.3418 88.0411 35.9312C88.579 36.5194 89.2778 36.8147 90.14 36.8147C91.1492 36.8147 91.9347 36.4349 92.4965 35.6776C93.0596 34.9191 93.3411 33.9191 93.3411 32.6766Z" fill="white"/>
<path d="M111.58 34.032C111.58 35.4192 111.086 36.5478 110.094 37.419C109.005 38.3711 107.488 38.8466 105.538 38.8466C103.738 38.8466 102.296 38.5084 101.203 37.8307L101.824 35.6532C103.001 36.3468 104.291 36.6948 105.698 36.6948C106.707 36.6948 107.493 36.4718 108.057 36.0282C108.619 35.5846 108.899 34.989 108.899 34.2465C108.899 33.5847 108.668 33.0272 108.204 32.575C107.743 32.1228 106.972 31.7025 105.896 31.3141C102.968 30.2492 101.505 28.6893 101.505 26.638C101.505 25.2974 102.018 24.1982 103.045 23.3429C104.068 22.4863 105.433 22.0587 107.139 22.0587C108.661 22.0587 109.926 22.3172 110.935 22.8331L110.265 24.9628C109.323 24.4629 108.257 24.2129 107.064 24.2129C106.121 24.2129 105.385 24.4396 104.857 24.8905C104.411 25.2937 104.187 25.7851 104.187 26.3672C104.187 27.0117 104.442 27.5448 104.955 27.9638C105.401 28.3511 106.212 28.7702 107.388 29.2223C108.827 29.7872 109.884 30.4477 110.564 31.205C111.242 31.9599 111.58 32.9046 111.58 34.032Z" fill="white"/>
<path d="M120.439 28.8069H117.485V34.516C117.485 35.9681 118.006 36.6935 119.049 36.6935C119.528 36.6935 119.925 36.6531 120.239 36.5722L120.313 38.5561C119.785 38.7485 119.09 38.8453 118.229 38.8453C117.171 38.8453 116.344 38.5304 115.747 37.9018C115.153 37.2719 114.853 36.2156 114.853 34.7317V28.8044H113.094V26.8438H114.853V24.6908L117.485 23.9163V26.8438H120.439V28.8069Z" fill="white"/>
<path d="M133.766 32.6289C133.766 34.4363 133.235 35.9203 132.177 37.0807C131.067 38.2755 129.594 38.871 127.758 38.871C125.988 38.871 124.58 38.2988 123.529 37.1543C122.478 36.0097 121.953 34.565 121.953 32.8237C121.953 31.0015 122.493 29.509 123.578 28.3486C124.66 27.1869 126.12 26.606 127.957 26.606C129.726 26.606 131.15 27.1783 132.225 28.3241C133.253 29.4355 133.766 30.8704 133.766 32.6289ZM130.986 32.7134C130.986 31.6289 130.748 30.6989 130.267 29.9232C129.705 28.9845 128.902 28.5164 127.861 28.5164C126.784 28.5164 125.966 28.9858 125.404 29.9232C124.923 30.7001 124.685 31.6449 124.685 32.7624C124.685 33.8469 124.923 34.777 125.404 35.5514C125.983 36.4901 126.793 36.9582 127.837 36.9582C128.86 36.9582 129.663 36.4803 130.243 35.5269C130.737 34.7366 130.986 33.7967 130.986 32.7134Z" fill="white"/>
<path d="M142.475 29.1438C142.209 29.096 141.927 29.0715 141.63 29.0715C140.687 29.0715 139.959 29.4182 139.446 30.113C139 30.7257 138.776 31.5002 138.776 32.4352V38.605H136.098L136.123 30.5493C136.123 29.194 136.089 27.96 136.022 26.8474H138.356L138.454 29.0972H138.528C138.811 28.324 139.257 27.7015 139.868 27.2346C140.465 26.8143 141.11 26.6047 141.805 26.6047C142.052 26.6047 142.276 26.6219 142.475 26.6525V29.1438Z" fill="white"/>
<path d="M154.458 32.1693C154.458 32.6374 154.427 33.032 154.36 33.3542H146.322C146.353 34.5159 146.742 35.4043 147.488 36.017C148.166 36.5648 149.042 36.8393 150.117 36.8393C151.308 36.8393 152.394 36.6542 153.37 36.2829L153.79 38.0965C152.649 38.5818 151.301 38.8232 149.747 38.8232C147.877 38.8232 146.409 38.2865 145.34 37.2142C144.274 36.142 143.74 34.7022 143.74 32.8959C143.74 31.1228 144.237 29.6462 145.231 28.4686C146.272 27.2113 147.678 26.5827 149.448 26.5827C151.186 26.5827 152.502 27.2113 153.395 28.4686C154.103 29.4673 154.458 30.7025 154.458 32.1693ZM151.903 31.4916C151.921 30.7172 151.746 30.0481 151.383 29.4832C150.919 28.7566 150.207 28.3938 149.248 28.3938C148.372 28.3938 147.659 28.748 147.115 29.4587C146.669 30.0236 146.404 30.7013 146.322 31.4904H151.903V31.4916Z" fill="white"/>
<path d="M62.579 12.2661C62.579 13.7084 62.1353 14.7941 61.2493 15.5232C60.4286 16.1959 59.2622 16.5329 57.7515 16.5329C57.0025 16.5329 56.3615 16.501 55.8248 16.4373V8.55679C56.5249 8.4465 57.279 8.39014 58.0934 8.39014C59.5324 8.39014 60.6171 8.69526 61.3485 9.30551C62.168 9.99541 62.579 10.9819 62.579 12.2661ZM61.1902 12.3016C61.1902 11.3666 60.9363 10.6498 60.4286 10.1498C59.9208 9.65107 59.1793 9.40109 58.2027 9.40109C57.788 9.40109 57.4348 9.42805 57.142 9.48442V15.4754C57.3041 15.4999 57.6007 15.5109 58.0318 15.5109C59.0398 15.5109 59.8177 15.2377 60.3657 14.6911C60.9137 14.1446 61.1902 13.3481 61.1902 12.3016Z" fill="white"/>
<path d="M69.9431 13.525C69.9431 14.4134 69.6829 15.1413 69.1626 15.7123C68.6172 16.2993 67.8945 16.5921 66.9921 16.5921C66.1224 16.5921 65.4299 16.3115 64.9133 15.7478C64.398 15.1854 64.1404 14.4759 64.1404 13.6206C64.1404 12.726 64.4056 11.992 64.9384 11.4222C65.4713 10.8524 66.1877 10.5669 67.0901 10.5669C67.9598 10.5669 68.6586 10.8475 69.1877 11.4099C69.6905 11.9565 69.9431 12.6623 69.9431 13.525ZM68.5769 13.5666C68.5769 13.0336 68.4588 12.5765 68.2238 12.1954C67.9473 11.7347 67.5539 11.5043 67.0424 11.5043C66.5132 11.5043 66.1111 11.7347 65.8346 12.1954C65.5983 12.5765 65.4814 13.0409 65.4814 13.5899C65.4814 14.123 65.5995 14.58 65.8346 14.9611C66.1199 15.4219 66.517 15.6523 67.0298 15.6523C67.5325 15.6523 67.9272 15.4182 68.2112 14.9489C68.455 14.5604 68.5769 14.0997 68.5769 13.5666Z" fill="white"/>
<path d="M79.8163 10.6845L77.9625 16.461H76.756L75.9881 13.9526C75.7933 13.3264 75.6349 12.7039 75.5117 12.0863H75.4878C75.3735 12.7211 75.2151 13.3424 75.0115 13.9526L74.1958 16.461H72.9755L71.2323 10.6845H72.5859L73.2557 13.4306C73.4179 14.0801 73.5511 14.6989 73.6579 15.2846H73.6818C73.7798 14.8018 73.942 14.1867 74.1707 13.4428L75.0115 10.6857H76.0848L76.8904 13.384C77.0853 14.0421 77.2436 14.6756 77.3655 15.2858H77.402C77.4912 14.6915 77.6257 14.058 77.8042 13.384L78.5231 10.6857H79.8163V10.6845Z" fill="white"/>
<path d="M86.6448 16.4611H85.3277V13.1525C85.3277 12.133 84.9305 11.6232 84.1337 11.6232C83.7429 11.6232 83.4274 11.7629 83.1823 12.0435C82.9398 12.3242 82.8166 12.655 82.8166 13.0337V16.4599H81.4994V12.3352C81.4994 11.8279 81.4831 11.2777 81.4517 10.6821H82.6092L82.6708 11.5852H82.7072C82.8606 11.3046 83.0893 11.073 83.3897 10.888C83.7466 10.6723 84.1463 10.5633 84.5837 10.5633C85.1367 10.5633 85.5967 10.7373 85.9624 11.0865C86.4174 11.5142 86.6448 12.1526 86.6448 13.0006V16.4611V16.4611Z" fill="white"/>
<path d="M90.2765 16.4611H88.9607V8.03406H90.2765V16.4611Z" fill="white"/>
<path d="M98.0317 13.525C98.0317 14.4134 97.7716 15.1413 97.2512 15.7123C96.7058 16.2993 95.9819 16.5921 95.0807 16.5921C94.2097 16.5921 93.5172 16.3115 93.0019 15.7478C92.4866 15.1854 92.229 14.4759 92.229 13.6206C92.229 12.726 92.4942 11.992 93.0271 11.4222C93.56 10.8524 94.2764 10.5669 95.1775 10.5669C96.0485 10.5669 96.746 10.8475 97.2764 11.4099C97.7791 11.9565 98.0317 12.6623 98.0317 13.525ZM96.6643 13.5666C96.6643 13.0336 96.5462 12.5765 96.3111 12.1954C96.0359 11.7347 95.6413 11.5043 95.131 11.5043C94.6006 11.5043 94.1984 11.7347 93.9232 12.1954C93.6869 12.5765 93.57 13.0409 93.57 13.5899C93.57 14.123 93.6882 14.58 93.9232 14.9611C94.2085 15.4219 94.6056 15.6523 95.1184 15.6523C95.6212 15.6523 96.0145 15.4182 96.2986 14.9489C96.5436 14.5604 96.6643 14.0997 96.6643 13.5666Z" fill="white"/>
<path d="M104.406 16.461H103.223L103.125 15.7956H103.089C102.684 16.3262 102.107 16.5921 101.358 16.5921C100.799 16.5921 100.346 16.4169 100.006 16.0689C99.6965 15.7527 99.5419 15.3594 99.5419 14.8925C99.5419 14.1867 99.8436 13.6487 100.451 13.2762C101.056 12.9037 101.909 12.7211 103.006 12.7297V12.6219C103.006 11.8609 102.596 11.481 101.775 11.481C101.191 11.481 100.676 11.6244 100.231 11.9087L99.963 11.0656C100.513 10.7335 101.193 10.5669 101.995 10.5669C103.544 10.5669 104.32 11.3634 104.32 12.9564V15.0837C104.32 15.6608 104.349 16.1204 104.406 16.461ZM103.038 14.4759V13.585C101.586 13.5605 100.859 13.949 100.859 14.7491C100.859 15.0506 100.942 15.2761 101.112 15.4268C101.281 15.5775 101.498 15.6523 101.755 15.6523C102.044 15.6523 102.314 15.5628 102.561 15.3851C102.808 15.2062 102.96 14.9795 103.017 14.7014C103.031 14.6389 103.038 14.5629 103.038 14.4759Z" fill="white"/>
<path d="M111.891 16.4611H110.722L110.66 15.5335H110.624C110.251 16.2393 109.615 16.5922 108.721 16.5922C108.007 16.5922 107.413 16.319 106.941 15.7724C106.47 15.2259 106.235 14.5164 106.235 13.6452C106.235 12.7102 106.49 11.9529 107.003 11.3745C107.5 10.8353 108.108 10.5657 108.832 10.5657C109.627 10.5657 110.184 10.8267 110.501 11.35H110.526V8.03406H111.844V14.9049C111.844 15.4673 111.859 15.9857 111.891 16.4611ZM110.526 14.025V13.0619C110.526 12.8952 110.513 12.7604 110.489 12.6575C110.415 12.3487 110.256 12.0889 110.013 11.8794C109.768 11.6698 109.473 11.5644 109.132 11.5644C108.641 11.5644 108.256 11.7544 107.973 12.1355C107.693 12.5166 107.551 13.003 107.551 13.5974C107.551 14.1684 107.686 14.6316 107.956 14.9882C108.241 15.3681 108.626 15.558 109.107 15.558C109.539 15.558 109.885 15.3999 110.148 15.0825C110.401 14.7897 110.526 14.4368 110.526 14.025Z" fill="white"/>
<path d="M123.155 13.525C123.155 14.4134 122.894 15.1413 122.374 15.7123C121.829 16.2993 121.107 16.5921 120.204 16.5921C119.335 16.5921 118.643 16.3115 118.125 15.7478C117.61 15.1854 117.352 14.4759 117.352 13.6206C117.352 12.726 117.617 11.992 118.15 11.4222C118.683 10.8524 119.399 10.5669 120.303 10.5669C121.171 10.5669 121.871 10.8475 122.399 11.4099C122.902 11.9565 123.155 12.6623 123.155 13.525ZM121.79 13.5666C121.79 13.0336 121.672 12.5765 121.437 12.1954C121.159 11.7347 120.767 11.5043 120.254 11.5043C119.726 11.5043 119.324 11.7347 119.046 12.1954C118.81 12.5765 118.693 13.0409 118.693 13.5899C118.693 14.123 118.811 14.58 119.046 14.9611C119.331 15.4219 119.729 15.6523 120.241 15.6523C120.744 15.6523 121.14 15.4182 121.424 14.9489C121.667 14.5604 121.79 14.0997 121.79 13.5666Z" fill="white"/>
<path d="M130.237 16.4611H128.921V13.1525C128.921 12.133 128.524 11.6232 127.726 11.6232C127.335 11.6232 127.02 11.7629 126.776 12.0435C126.532 12.3242 126.41 12.655 126.41 13.0337V16.4599H125.092V12.3352C125.092 11.8279 125.077 11.2777 125.045 10.6821H126.201L126.263 11.5852H126.299C126.454 11.3046 126.683 11.073 126.982 10.888C127.34 10.6723 127.738 10.5633 128.177 10.5633C128.729 10.5633 129.189 10.7373 129.555 11.0865C130.011 11.5142 130.237 12.1526 130.237 13.0006V16.4611V16.4611Z" fill="white"/>
<path d="M139.102 11.6466H137.651V14.4527C137.651 15.1659 137.909 15.5225 138.419 15.5225C138.656 15.5225 138.852 15.5029 139.006 15.4625L139.04 16.4367C138.78 16.5322 138.438 16.58 138.017 16.58C137.497 16.58 137.092 16.4256 136.799 16.1168C136.505 15.808 136.359 15.2885 136.359 14.5594V11.6466H135.493V10.6846H136.359V9.62591L137.65 9.24603V10.6834H139.101V11.6466H139.102Z" fill="white"/>
<path d="M146.074 16.4611H144.756V13.177C144.756 12.1416 144.359 11.6232 143.563 11.6232C142.952 11.6232 142.535 11.9235 142.306 12.5239C142.267 12.6501 142.245 12.8045 142.245 12.9859V16.4599H140.929V8.03406H142.245V11.5154H142.27C142.685 10.8819 143.279 10.5657 144.05 10.5657C144.595 10.5657 145.046 10.7397 145.404 11.089C145.851 11.524 146.074 12.171 146.074 13.0263V16.4611V16.4611Z" fill="white"/>
<path d="M153.267 13.2995C153.267 13.5299 153.249 13.7235 153.218 13.8816H149.268C149.285 14.4526 149.474 14.8876 149.84 15.1891C150.174 15.4587 150.605 15.5935 151.133 15.5935C151.717 15.5935 152.25 15.5028 152.73 15.3202L152.936 16.2123C152.375 16.45 151.714 16.5689 150.948 16.5689C150.031 16.5689 149.308 16.3054 148.785 15.7785C148.26 15.2516 148 14.5445 148 13.6573C148 12.7861 148.242 12.0606 148.731 11.4822C149.241 10.8646 149.931 10.5558 150.802 10.5558C151.655 10.5558 152.302 10.8646 152.739 11.4822C153.092 11.9724 153.267 12.579 153.267 13.2995ZM152.01 12.9674C152.02 12.5863 151.934 12.2579 151.755 11.981C151.526 11.6244 151.178 11.4455 150.707 11.4455C150.277 11.4455 149.926 11.6195 149.659 11.9687C149.44 12.2469 149.311 12.579 149.268 12.9674H152.01Z" fill="white"/>
</svg>
