<svg width="173" height="49" viewBox="0 0 173 49" fill="none" xmlns="http://www.w3.org/2000/svg">
<g clip-path="url(#clip0)">
<path d="M162.631 49.0002H10.3009C4.6388 49.0002 0 44.4214 0 38.6809V10.3196C0 4.64739 4.6388 0.000244141 10.3009 0.000244141H162.631C168.361 0.000244141 172.932 4.64739 172.932 10.3196V38.6809C173 44.4214 168.361 49.0002 162.631 49.0002Z" fill="#222222"/>
<path d="M47.889 31.1635C47.6161 31.1635 47.4797 31.0268 47.4797 30.8218L45.7743 29.865C45.706 29.9334 45.6378 29.9334 45.6378 29.9334C45.5696 29.9334 45.5696 29.9334 45.5696 29.9334L45.2285 30.3434V30.4117L48.8441 32.7353L47.889 31.1635Z" fill="#FCFCFC"/>
<path d="M33.2903 32.9403L34.2453 35.5372L34.1089 34.1704L33.2903 32.9403Z" fill="#FCFCFC"/>
<path d="M44.5461 33.5554C44.5461 33.6237 44.5461 33.6237 44.5461 33.5554L48.6392 32.9403V32.872L45.0236 30.5484L45.1601 32.667V32.7353L44.5461 33.5554Z" fill="#FCFCFC"/>
<path d="M48.4345 26.5162L47.1383 28.8398C47.1383 28.9081 47.2065 28.9081 47.2065 28.9765C47.2065 29.0448 47.2065 29.1131 47.1383 29.1131L47.8205 30.3433H47.8887C48.0934 30.3433 48.298 30.4799 48.298 30.7533C48.298 30.8216 48.2298 30.9583 48.2298 31.0267L49.0484 32.4618L48.4345 26.5162Z" fill="#FCFCFC"/>
<path d="M49.6625 20.2973V20.2289L47.3431 18.6571C47.2748 18.6571 47.2066 18.7254 47.2066 18.7254C47.002 18.7254 46.8655 18.5888 46.8655 18.3837C46.8655 18.3837 46.8655 18.3837 46.8655 18.3154L46.0469 17.7687L48.0252 20.9123L49.6625 20.2973Z" fill="#FCFCFC"/>
<path d="M35.4048 30.1383C35.3366 30.1383 35.2684 30.07 35.2684 30.07L34.9273 30.1383C34.9273 30.2067 34.9273 30.2067 34.8591 30.275L34.3133 34.1021L35.2684 34.8538L35.8141 32.3936C35.7459 32.3252 35.7459 32.2569 35.7459 32.1886C35.7459 32.1202 35.7459 32.0519 35.8141 31.9835L35.4048 30.1383ZM35.5412 32.2569C35.5412 32.3252 35.5412 32.3936 35.6095 32.4619L35.3366 33.6237H35.2684L35.3366 30.7534L35.6095 32.0519C35.5412 32.0519 35.5412 32.1202 35.5412 32.2569Z" fill="#FCFCFC"/>
<path d="M35.8145 14.6934C35.8145 14.8301 35.7462 14.8985 35.678 15.0351L37.1788 17.4954L39.3618 12.6432L40.1804 10.798L35.678 14.4884C35.8145 14.5568 35.8145 14.6251 35.8145 14.6934Z" fill="#FCFCFC"/>
<path d="M47.2066 18.1105C47.2748 18.1105 47.3431 18.1105 47.3431 18.1788L49.3214 16.812H48.1617C48.1617 16.8804 48.0935 16.8804 48.0935 16.9487C48.0252 17.017 47.957 17.0854 47.8206 17.0854C47.7524 17.0854 47.6159 17.017 47.5477 16.9487L45.9105 17.4271L47.002 18.1788C47.0702 18.1105 47.1384 18.1105 47.2066 18.1105Z" fill="#FCFCFC"/>
<path d="M35.2686 27.063L34.9957 29.0449L35.3368 28.4982L35.2686 27.063Z" fill="#FCFCFC"/>
<path d="M34.9274 26.7213L32.949 31.5735C32.949 31.5735 32.949 31.5735 32.949 31.6418C33.0173 31.7102 33.0173 31.7785 32.949 31.8469C32.949 31.8469 32.949 31.9152 32.8808 31.9152L34.0405 33.7604L34.518 30.4117C34.4498 30.4117 34.3816 30.3434 34.3816 30.3434C34.2452 30.2067 34.2452 30.07 34.3816 29.9333C34.4498 29.865 34.5181 29.865 34.5863 29.865V29.7967L34.9956 26.7213C35.0638 26.7213 34.9956 26.7213 34.9274 26.7213Z" fill="#FCFCFC"/>
<path d="M53.4825 21.1174C53.4825 21.1174 53.4825 21.0491 53.4825 21.1174L50.5491 18.9305C50.4809 18.9305 50.4809 18.9989 50.4127 18.9989L50.2081 20.024C50.3445 20.0923 50.4127 20.229 50.4127 20.3657C50.4127 20.434 50.4127 20.5023 50.4127 20.5023L54.1647 24.1927H54.2329L53.7554 21.4591C53.5507 21.3908 53.4825 21.2541 53.4825 21.1174ZM53.8918 23.5777L53.4825 23.1676L52.9368 21.9375L53.1414 21.1174L53.2779 21.1857C53.2779 21.3224 53.4143 21.4591 53.5507 21.5274L53.8918 23.5777Z" fill="#FCFCFC"/>
<path d="M36.0873 32.4619L35.5416 34.6488L36.7695 33.2137V33.1453C36.7695 33.077 36.7695 33.077 36.7695 33.0086L36.0873 32.4619ZM36.4966 33.3503L36.1555 33.4187L36.292 32.872L36.6331 33.1453C36.6331 33.1453 36.6331 33.1453 36.6331 33.2137L36.4966 33.3503Z" fill="#FCFCFC"/>
<path d="M46.8655 28.7032C46.8655 28.7032 46.9337 28.7032 46.8655 28.7032L47.5477 27.473L48.1617 26.3113C48.1617 26.3113 48.1617 26.3113 48.0935 26.2429L45.9787 26.7896C45.9787 26.858 45.9105 26.9263 45.9105 26.9263L45.8423 26.9947L46.8655 28.7032Z" fill="#FCFCFC"/>
<path d="M47.4795 18.3838C47.4795 18.4522 47.4795 18.4522 47.4795 18.4522L49.7989 20.024C49.7989 20.024 49.8671 20.024 49.8671 19.9556L49.6625 17.017C49.5943 17.017 49.526 16.9487 49.4578 16.9487L47.4795 18.3838Z" fill="#FCFCFC"/>
<path d="M48.23 23.7826L53.8921 24.4661C53.8921 24.4661 53.8921 24.3977 53.9603 24.3977L51.2998 21.8008L50.2083 20.7073C50.1401 20.7073 50.0719 20.7757 50.0719 20.7757H50.0037L48.23 23.7143C48.23 23.646 48.23 23.7143 48.23 23.7826Z" fill="#FCFCFC"/>
<path d="M50.1396 18.9307L50.0716 18.8622V19.2732L50.1396 18.9307Z" fill="#FCFCFC"/>
<path d="M45.9787 26.243L45.9105 26.3796C45.9787 26.448 45.9787 26.448 46.0469 26.5163L48.0935 26.0379C48.0935 25.8329 48.2299 25.6962 48.4345 25.6962C48.571 25.6962 48.7074 25.7646 48.7756 25.9013L51.095 25.3545L53.0733 24.8762L46.3198 25.2179L45.9787 26.243Z" fill="#FCFCFC"/>
<path d="M53.619 20.8441L53.2097 18.8622C53.0733 18.8622 52.9369 18.7255 52.8687 18.6572C52.1865 18.6572 51.2314 18.7255 50.6857 18.7255L53.619 20.8441Z" fill="#FCFCFC"/>
<path d="M49.1849 32.4618H49.2531L54.0283 24.8761C54.0283 24.8761 54.0283 24.8077 53.9601 24.8077L48.8438 26.1062C48.8438 26.2429 48.7755 26.3112 48.6391 26.3795L48.9802 30.685L49.1849 32.4618Z" fill="#FCFCFC"/>
<path d="M50.3448 18.1788C50.4812 18.1788 50.6177 18.2471 50.6859 18.3838C50.7541 18.3838 50.7541 18.3838 50.8223 18.3838C51.0952 18.3838 51.4363 18.3838 51.8456 18.3838C52.1867 18.3838 52.5278 18.3838 52.8006 18.3838L50.0719 16.9487L50.0037 17.017L50.0719 18.3838C50.1402 18.2471 50.2084 18.1788 50.3448 18.1788Z" fill="#FCFCFC"/>
<path d="M45.7057 13.6683L47.684 16.2652H47.7523C47.8205 16.2652 47.9569 16.3336 48.0251 16.4019C48.0934 16.4702 48.0934 16.4702 48.0934 16.5386H49.3895C49.3895 16.4702 49.4577 16.4702 49.4577 16.4019L49.5259 16.3336L48.4344 12.7799C48.3662 12.7799 48.298 12.7799 48.298 12.7115C47.684 12.9165 46.3879 13.3949 45.8422 13.5999C45.7739 13.6683 45.7057 13.6683 45.7057 13.6683ZM48.2298 12.9849L48.9802 15.0351L48.5709 14.5567L48.298 13.5999L47.343 13.3949C47.684 13.1899 47.9569 13.0532 48.2298 12.9849Z" fill="#FCFCFC"/>
<path d="M41.4763 19.4773L45.2965 17.3587C45.2965 17.2904 45.2965 17.222 45.3647 17.222L40.7941 10.798L41.2034 19.4089C41.2716 19.4089 41.408 19.4089 41.4763 19.4773Z" fill="#FCFCFC"/>
<path d="M40.794 19.4773C40.8623 19.4089 40.9305 19.4089 40.9987 19.3406L40.5894 10.798L37.5196 17.6321L40.794 19.4773Z" fill="#FCFCFC"/>
<path d="M48.0253 22.2109V23.3043L49.4579 20.9807L48.0253 22.2109Z" fill="#FCFCFC"/>
<path d="M45.5693 17.017C45.6376 17.017 45.7058 17.0853 45.774 17.0853L47.343 16.6069C47.343 16.5386 47.343 16.4703 47.4112 16.4019L45.4329 13.8733C45.2965 13.8733 45.16 13.7366 45.16 13.6V13.5316L44.205 12.8482C44.1368 12.8482 44.0685 12.9166 44.0685 12.9166C43.8639 12.9166 43.7275 12.7799 43.7275 12.5749C43.7275 12.5749 43.7275 12.5749 43.7275 12.5065L42.7042 11.8231L41.3398 10.9347L41.067 10.7297L45.5693 17.017Z" fill="#FCFCFC"/>
<path d="M47.8889 24.1927C47.8207 24.1927 47.7525 24.1927 47.6843 24.1244L46.7292 24.8078L48.9804 24.6711L50.3448 24.6028L52.8688 24.4661L48.23 23.9194C48.23 23.9194 48.23 23.9877 48.1618 23.9877C48.0936 24.1927 48.0254 24.1927 47.8889 24.1927Z" fill="#FCFCFC"/>
<path d="M43.3184 11.7548L42.9773 11.1397C42.8409 11.1397 42.7726 11.0714 42.7044 10.9347H41.8858L42.8408 11.6181L43.3184 11.7548Z" fill="#FCFCFC"/>
<path d="M44.0685 12.3015C44.2731 12.3015 44.4096 12.4382 44.4096 12.6432C44.4096 12.6432 44.4096 12.6432 44.4096 12.7115L45.3646 13.3949C45.4328 13.3949 45.4328 13.3949 45.5011 13.3266C45.5693 13.3266 45.6375 13.3266 45.7057 13.3949L47.9569 12.5748L43.9321 12.0965L44.0685 12.3015C44.0003 12.3015 44.0003 12.3015 44.0685 12.3015ZM47.0018 12.6432L46.0468 12.9849L44.7507 12.7115L44.546 12.5748C44.546 12.5065 44.546 12.4382 44.4778 12.3698L47.0018 12.6432Z" fill="#FCFCFC"/>
<path d="M43.5918 12.1653L43.5234 12.0283L43.3183 11.9598L43.5918 12.1653Z" fill="#FCFCFC"/>
<path d="M34.9958 14.3517C35.064 14.2834 35.2004 14.215 35.3369 14.215C35.4051 14.215 35.5415 14.215 35.6097 14.2834L39.0888 11.4131L30.5616 13.1899L34.9275 14.4201C34.9958 14.3517 34.9958 14.3517 34.9958 14.3517ZM38.2702 11.7548L37.4516 12.4382L33.2903 12.7799L38.2702 11.7548Z" fill="#FCFCFC"/>
<path d="M41.3401 34.3071C41.3401 34.3755 41.3401 34.4438 41.2718 34.5121L42.3633 36.0156L42.4315 35.2639C42.4315 35.2639 42.4315 35.2639 42.4315 35.1955L43.8641 33.9654C43.8641 33.8971 43.8641 33.8971 43.8641 33.8287C43.8641 33.6237 44.0006 33.4187 44.2734 33.4187H44.3416L44.8874 32.5986L44.7509 30.4801C44.6827 30.4117 44.6145 30.3434 44.6145 30.2067C44.6145 30.07 44.7509 29.9333 44.8874 29.9333H44.9556L45.3649 29.5233V29.4549C45.3649 29.3183 45.5013 29.1816 45.6378 29.1816C45.7742 29.1816 45.9106 29.3183 45.9106 29.4549L47.6161 30.4117L47.3432 29.865L46.9339 29.1816C46.7975 29.1816 46.661 29.0449 46.661 28.9082C46.661 28.8399 46.661 28.8399 46.7293 28.7715L45.7742 26.9947C45.5696 26.9947 45.4331 26.858 45.4331 26.653C45.4331 26.5847 45.4331 26.448 45.5013 26.3796C45.5696 26.3113 45.6378 26.243 45.706 26.243L45.8424 25.7646L46.1153 24.8761L47.4797 23.9194V23.851C47.4797 23.646 47.5479 23.5093 47.7525 23.441L47.8207 22.0742C47.8207 22.0059 47.8207 22.0059 47.889 22.0059L49.458 20.639L47.9572 21.1858C47.9572 21.1858 47.9572 21.1858 47.889 21.1858C47.8207 21.1858 47.8207 21.1858 47.7525 21.1174L45.5696 17.6321C45.5696 17.6321 45.5696 17.6321 45.5013 17.6321C45.4331 17.6321 45.3649 17.6321 45.2967 17.5637L41.4765 19.6823C41.4765 19.7506 41.4765 19.7506 41.4765 19.819C41.4765 19.9556 41.4083 20.0923 41.3401 20.1607C41.2718 20.229 41.1354 20.2973 40.999 20.2973C40.8625 20.2973 40.7261 20.229 40.6579 20.1607C40.5897 20.0923 40.5214 19.9556 40.5214 19.819C40.5214 19.7506 40.5214 19.7506 40.5214 19.7506L37.1106 17.9054L35.4733 15.1035C35.4733 15.1035 35.4733 15.1035 35.4051 15.1035C35.4051 16.3336 35.4051 19.5456 35.4733 20.434C35.5416 20.434 35.5416 20.5024 35.5416 20.5024C35.678 20.639 35.678 20.7757 35.5416 20.9124C35.4733 20.9808 35.4051 20.9808 35.3369 20.9808C35.2687 20.9808 35.2687 20.9808 35.2687 20.9808L33.9725 22.1425L34.1772 23.441C34.2454 23.441 34.3136 23.5093 34.3819 23.5777C34.4501 23.646 34.4501 23.7827 34.4501 23.851C34.4501 23.9194 34.4501 23.9194 34.4501 23.9877L35.2687 24.8078C35.3369 24.8078 35.3369 24.8078 35.4051 24.8078C35.4733 24.8078 35.6098 24.8761 35.678 24.9445C35.8144 25.0812 35.8144 25.2862 35.678 25.4229C35.678 25.4912 35.6098 25.4912 35.5416 25.4912L35.6098 28.5665V28.6349L34.9958 29.865V29.9333L35.2687 29.865C35.2687 29.7967 35.3369 29.7283 35.3369 29.7283C35.4051 29.66 35.4733 29.66 35.5416 29.66C35.6098 29.66 35.678 29.66 35.7462 29.7283C35.8144 29.7966 35.8144 29.865 35.8144 29.9333C35.8144 30.0017 35.8144 30.07 35.7462 30.1384L36.1555 31.9835C36.292 31.9835 36.3602 32.1202 36.3602 32.2569V32.3252L37.0423 32.9403C37.1106 32.9403 37.1106 32.9403 37.1788 32.9403C37.3834 32.9403 37.5199 33.077 37.5199 33.2137C37.5199 33.282 37.5199 33.3503 37.4517 33.4187L38.8842 35.0589L40.6579 34.4438C40.6579 34.3755 40.7261 34.3071 40.7261 34.2388C40.7943 34.1704 40.8625 34.1021 40.9308 34.1021C41.1354 34.0337 41.2718 34.1704 41.3401 34.3071ZM40.999 33.8287C40.999 33.8287 40.9308 33.8287 40.999 33.8287C40.7943 33.8287 40.6579 33.8971 40.5897 34.0337C40.5214 34.1021 40.5214 34.1021 40.5214 34.1704L39.0207 34.7172L38.7478 34.4438L37.7245 33.282C37.7245 33.2137 37.7245 33.2137 37.7245 33.1453C37.7245 32.872 37.4517 32.6669 37.1788 32.6669C37.1788 32.6669 37.1788 32.6669 37.1106 32.6669H37.0423L36.4966 32.2569C36.4966 32.1202 36.4284 31.9835 36.292 31.8469L35.9509 30.2067C36.0191 30.1384 36.0191 30.0017 36.0191 29.9333C36.0191 29.7966 35.9509 29.66 35.8826 29.5916C35.8144 29.5233 35.678 29.4549 35.5416 29.4549H35.4733L35.8144 28.8399C35.8144 28.7715 35.8826 28.7032 35.8826 28.7032L35.8144 25.6962C35.8144 25.6962 35.8144 25.6962 35.8826 25.6279C36.0873 25.4229 36.0873 25.0128 35.8826 24.8078C35.7462 24.6711 35.6098 24.6711 35.4733 24.6711H35.4051L34.6547 23.9194C34.6547 23.9194 34.6547 23.9194 34.6547 23.851C34.6547 23.7144 34.5865 23.5093 34.5183 23.441C34.4501 23.3727 34.3819 23.3727 34.3819 23.3043L34.2454 22.2792L35.3369 21.2541C35.4733 21.2541 35.6098 21.1858 35.7462 21.1174C35.8144 21.0491 35.8826 20.9124 35.8826 20.7757C35.8826 20.639 35.8144 20.5024 35.7462 20.434C35.7462 19.7506 35.7462 18.2471 35.7462 16.9487L36.7013 17.5637L36.9741 18.0421C36.9741 18.0421 36.9741 18.0421 36.9741 18.1105C36.9741 18.1105 36.9741 18.1105 37.0423 18.1788L40.385 19.9556C40.385 20.1607 40.4532 20.2973 40.5897 20.434C40.7261 20.5707 40.8625 20.639 41.0672 20.639C41.2718 20.639 41.4083 20.5707 41.5447 20.434C41.6811 20.2973 41.7494 20.1607 41.7494 19.9556L45.092 18.1105L45.8424 18.6572L47.5479 21.3908C47.6161 21.5275 47.7525 21.5275 47.8207 21.5275C47.889 21.5275 47.889 21.5275 47.9572 21.5275L48.2983 21.3908L47.6161 22.0059C47.5479 22.0742 47.4797 22.1425 47.4797 22.2792L47.4114 23.5093C47.275 23.646 47.1386 23.7827 47.1386 23.9877L45.9106 24.8761L45.8424 24.9445C45.7742 25.0128 45.7742 25.0812 45.7742 25.1495L45.3649 26.3113C45.2967 26.3796 45.2285 26.3796 45.1602 26.448C45.0238 26.5847 45.0238 26.7213 45.0238 26.858C45.0238 27.1314 45.2285 27.3364 45.4331 27.4047L45.8424 28.2248L45.706 29.0449C45.6378 29.0449 45.6378 29.0449 45.5696 29.0449C45.2967 29.0449 45.092 29.2499 45.092 29.5233L44.8874 29.7966C44.6145 29.7966 44.4099 30.0017 44.4099 30.275C44.4099 30.4117 44.4781 30.5484 44.6145 30.6851L44.7509 32.5986L44.3416 33.2137C44.0006 33.2137 43.7959 33.487 43.7959 33.8287C43.7959 33.8287 43.7959 33.8287 43.7959 33.8971L42.4315 35.0589C42.4315 35.0589 42.4315 35.0589 42.4315 35.1272V35.1955V35.2639L42.2269 35.1272L41.7494 34.5121C41.7494 34.4438 41.7494 34.3754 41.7494 34.3754C41.5447 34.0337 41.2718 33.8287 40.999 33.8287Z" fill="#FCFCFC"/>
<path d="M40.8622 34.6488C40.794 34.6488 40.794 34.5805 40.7257 34.5805L38.8839 35.2639L40.8622 37.8608V36.904V34.6488Z" fill="#FCFCFC"/>
<path d="M42.636 36.8357C42.5678 36.8357 42.5678 36.8357 42.4995 36.8357C42.2949 36.8357 42.1585 36.699 42.0902 36.494C42.0902 36.4256 42.0902 36.2889 42.1585 36.2206L41.067 34.7171V38.0658L43.2499 37.6557L42.636 36.8357Z" fill="#FCFCFC"/>
<path d="M43.5911 37.6558L44.5461 37.4508L42.9089 36.8357L43.5911 37.6558Z" fill="#FCFCFC"/>
<path d="M34.5864 37.0407C34.5182 37.0407 34.45 37.0407 34.3817 36.9724L33.4267 37.6558L34.7911 37.7925L38.2019 38.0658L34.7911 36.9041C34.7228 36.9724 34.6546 37.0407 34.5864 37.0407Z" fill="#FCFCFC"/>
<path d="M37.0424 33.4187L35.6098 35.0589L39.0207 37.7925L37.1106 33.487C37.1106 33.487 37.0424 33.487 37.0424 33.4187Z" fill="#FCFCFC"/>
<path d="M43.0454 36.5623L43.864 36.904L48.1617 35.4688L43.0454 36.5623Z" fill="#FCFCFC"/>
<path d="M39.3615 37.8608C39.4979 37.8608 39.5661 37.9975 39.6344 38.0658H40.7941L37.7243 34.0338L39.3615 37.8608Z" fill="#FCFCFC"/>
<path d="M54.3012 25.0128L50.3446 31.3001L53.2097 27.8147C53.2097 27.7464 53.2097 27.7464 53.2097 27.6781C53.2097 27.6097 53.2097 27.473 53.2779 27.4047C53.3462 27.3364 53.4144 27.268 53.4826 27.268H53.5508L54.5741 26.0379L54.3012 25.0128C54.3012 25.0128 54.3694 25.0128 54.3012 25.0128ZM53.4826 27.1997C53.3462 27.1997 53.2779 27.268 53.1415 27.3364L54.233 25.5595L54.3012 26.1062L53.4826 27.1997Z" fill="#FCFCFC"/>
<path d="M43.591 37.9291L42.636 38.0658H44.4097L44.6825 37.6558L43.591 37.9291Z" fill="#FCFCFC"/>
<path d="M49.5943 32.9402C49.5943 33.0769 49.5943 33.2136 49.4579 33.2819L50.4129 34.3754C50.4811 34.3754 50.4811 34.3754 50.5493 34.3754H50.6176L51.1633 32.9402C51.0951 32.8719 51.0269 32.8036 51.0269 32.6669C51.0269 32.4618 51.1633 32.2568 51.4362 32.2568C51.5044 32.2568 51.5044 32.2568 51.5726 32.2568L52.8687 31.0267L51.9819 31.5051L49.5943 32.9402Z" fill="#FCFCFC"/>
<path d="M55.3929 26.0378L55.1882 25.1494C55.3247 25.0127 55.3929 24.8077 55.3929 24.6027C55.3929 24.3293 55.2565 24.0559 55.12 23.9193C55.0518 23.8509 55.0518 23.8509 54.9836 23.7826L54.5743 21.5274C54.6425 21.3907 54.6425 21.254 54.6425 21.1173C54.6425 20.844 54.5061 20.6389 54.3696 20.5023L54.0968 18.9988C54.165 18.8621 54.2332 18.7254 54.2332 18.5204C54.2332 18.042 53.8239 17.632 53.3464 17.632C53.2781 17.632 53.2099 17.632 53.1417 17.632L51.8456 16.9486L51.4363 16.7435L50.8905 16.4702L50.6859 16.3335C50.6177 16.1968 50.5494 16.1285 50.4812 16.0601C50.413 15.9918 50.413 15.9918 50.3448 15.9235L49.2533 12.6431C49.2533 12.5748 49.2533 12.5064 49.2533 12.4381C49.2533 12.0281 48.844 11.6864 48.4347 11.6864H48.3665C48.23 11.6864 48.1618 11.7547 48.0254 11.7547L44.0005 11.2763L43.7959 10.8663V10.7979C43.7959 10.3879 43.3866 10.0462 42.9773 10.0462H42.9091C42.7726 10.0462 42.6362 10.1145 42.4998 10.1829H41.6811L41.4765 10.0462C41.3401 9.70448 41.0672 9.43112 40.6579 9.43112C40.2486 9.43112 39.9075 9.70448 39.8393 10.1145L39.3617 10.5246L30.5617 12.3698C30.4252 12.3014 30.2888 12.3014 30.0841 12.3014C29.8795 12.3014 29.6748 12.3698 29.5384 12.5064L27.4919 12.5748C27.3554 12.4381 27.1508 12.3698 26.9461 12.3698C26.4686 12.3698 26.0593 12.7798 26.0593 13.2582C26.0593 13.7366 26.4686 14.1466 26.9461 14.1466C27.0143 14.1466 27.0826 14.1466 27.1508 14.1466L29.8795 15.5134C29.8795 15.5134 29.8795 15.5134 29.8795 15.5817V23.7826C29.743 23.9193 29.6748 24.1243 29.6748 24.3977C29.6748 24.6027 29.743 24.8077 29.8795 24.9444V25.4228L29.8113 28.9765C29.6748 29.1131 29.6066 29.3182 29.6066 29.5915C29.6066 29.7965 29.6748 30.0016 29.8113 30.2066L29.8795 35.7421L27.4919 36.6989H27.4236C27.2872 36.6989 27.1508 36.7672 27.0143 36.8356C26.8097 36.9723 26.6733 37.1089 26.605 37.3823C26.5368 37.5873 26.605 37.8607 26.6733 38.0657C26.8097 38.3391 27.0826 38.4758 27.4236 38.4758C27.5601 38.4758 27.6965 38.4074 27.833 38.3391L32.4718 38.4758C32.6082 38.6124 32.8128 38.6808 33.0175 38.6808H33.0857C33.2222 38.6808 33.4268 38.6124 33.495 38.5441L38.6796 38.9541C38.816 39.0908 39.0207 39.1592 39.2253 39.1592H39.2935C39.43 39.1592 39.6346 39.0908 39.7028 39.0225H40.385H40.7261H40.9307H41.1354H41.4083L44.4098 38.9541C44.6145 38.9541 44.8192 38.8175 44.9556 38.6808L45.3649 38.1341L50.3448 35.7421C50.413 35.7421 50.4812 35.7421 50.5494 35.7421C51.027 35.7421 51.4363 35.3321 51.4363 34.8537C51.4363 34.7854 51.4363 34.717 51.4363 34.5804L51.8456 33.4869C52.1867 33.3502 52.3913 33.0085 52.3913 32.6668L54.2332 30.9583C54.2332 30.9583 54.2332 30.9583 54.2332 30.89L54.3014 30.8216V30.7533V30.685V30.6166L54.0968 28.3614C54.165 28.2247 54.2332 28.0197 54.2332 27.883L55.12 26.7896C55.3247 26.4479 55.3929 26.2428 55.3929 26.0378ZM54.8472 26.2428L53.8239 27.5413C53.8239 27.6096 53.8921 27.6096 53.8921 27.678C53.8921 27.7463 53.8921 27.883 53.8239 27.9513L53.7557 28.0197L54.0285 30.4799L51.982 32.3935C51.982 32.4618 52.0502 32.5301 52.0502 32.5985C52.0502 32.8035 51.9138 33.0085 51.6409 33.0085L51.0952 34.512C51.1634 34.5804 51.1634 34.6487 51.1634 34.717C51.1634 34.9221 51.027 35.1271 50.7541 35.1271C50.6859 35.1271 50.6177 35.1271 50.5494 35.0587L45.092 37.5873L44.6145 38.2707C44.6145 38.2707 44.5463 38.3391 44.4781 38.3391L40.999 38.4074H39.5664C39.5664 38.4074 39.5664 38.4074 39.4982 38.4758C39.43 38.5441 39.3617 38.6124 39.2935 38.6124C39.1571 38.6124 39.0207 38.5441 39.0207 38.4074L33.3586 37.9974C33.3586 37.9974 33.3586 38.0657 33.2904 38.0657C33.2222 38.1341 33.1539 38.2024 33.0857 38.2024C32.9493 38.2024 32.8128 38.1341 32.8128 37.9974L27.7647 37.8607L27.6965 37.929C27.6283 37.929 27.5601 37.9974 27.5601 37.9974C27.4236 37.9974 27.3554 37.929 27.2872 37.8607C27.219 37.7924 27.219 37.724 27.2872 37.5873C27.2872 37.519 27.3554 37.4507 27.4236 37.3823C27.4919 37.3823 27.5601 37.314 27.5601 37.314C27.6283 37.314 27.6283 37.314 27.6965 37.314L30.5617 36.1522L30.4934 30.0016C30.4252 30.0016 30.4252 29.9332 30.357 29.9332C30.2888 29.8649 30.2206 29.7965 30.2206 29.6599C30.2206 29.5915 30.2888 29.4548 30.357 29.3865C30.4252 29.3182 30.4252 29.3182 30.4934 29.3182L30.5617 25.4911V24.8077C30.4934 24.8077 30.4934 24.7394 30.4252 24.7394C30.357 24.671 30.2888 24.6027 30.2888 24.466C30.2888 24.3977 30.357 24.261 30.4252 24.1926C30.4252 24.1926 30.4934 24.1243 30.5617 24.1243V15.4451C30.5617 15.4451 30.4934 15.4451 30.4934 15.3767C30.4252 15.3084 30.4252 15.3084 30.4252 15.24L27.2872 13.6682C27.219 13.7366 27.1508 13.7366 27.0143 13.7366C26.8097 13.7366 26.6733 13.5999 26.6733 13.3949C26.6733 13.1898 26.8097 13.0532 27.0143 13.0532C27.1508 13.0532 27.2872 13.1215 27.3554 13.2582L29.8795 13.1898C29.9477 13.0532 30.0841 12.9848 30.2206 12.9848C30.357 12.9848 30.4252 13.0532 30.4934 13.1215L39.6346 11.208L40.4532 10.5246V10.4562C40.4532 10.2512 40.5897 10.1145 40.7943 10.1145C40.999 10.1145 41.1354 10.2512 41.1354 10.4562C41.1354 10.4562 41.1354 10.4562 41.1354 10.5246L41.6811 10.9346H42.9091C42.9091 10.9346 42.9091 10.9346 42.9091 10.8663C42.9773 10.7979 43.0455 10.7979 43.1137 10.7979C43.2502 10.7979 43.3866 10.9346 43.3866 11.0713C43.3866 11.1396 43.3866 11.1396 43.3866 11.208L43.8641 11.9597L48.3665 12.5064C48.4347 12.4381 48.5029 12.4381 48.5711 12.4381C48.7076 12.4381 48.844 12.5748 48.844 12.7115C48.844 12.7798 48.844 12.8481 48.7758 12.8481L50.0037 16.5385C50.0719 16.5385 50.1401 16.6069 50.2084 16.6069C50.2766 16.6752 50.3448 16.8119 50.3448 16.8802L53.2099 18.3837C53.2781 18.3154 53.3464 18.3154 53.4146 18.3154C53.6192 18.3154 53.8239 18.452 53.8239 18.7254C53.8239 18.8621 53.7557 18.9304 53.6875 18.9988L54.0285 20.9806C54.165 20.9806 54.3014 21.1173 54.3014 21.254C54.3014 21.3907 54.2332 21.459 54.165 21.5274L54.7107 24.261C54.7789 24.261 54.9154 24.3293 54.9836 24.3977C55.0518 24.466 55.12 24.6027 55.12 24.7394C55.12 24.876 55.0518 25.0127 54.9836 25.0811L54.9154 25.1494L55.12 26.3112C54.8472 26.1745 54.8472 26.2428 54.8472 26.2428Z" fill="#FCFCFC"/>
<path d="M53.4145 28.0197L49.6625 32.5302L52.1184 31.1634L53.6191 30.3433L53.4145 28.0197Z" fill="#FCFCFC"/>
<path d="M45.0236 37.314L48.7756 35.5372L44.205 37.0407L45.0236 37.314Z" fill="#FCFCFC"/>
<path d="M49.2531 33.4186C49.1849 33.4186 49.1167 33.4186 49.1167 33.4186C48.9803 33.4186 48.8438 33.3503 48.7756 33.282L48.7074 33.2136L44.6143 33.897C44.6143 34.102 44.4097 34.1704 44.2732 34.1704C44.205 34.1704 44.1368 34.1704 44.0686 34.102L42.9089 35.0588L50.2082 34.5804C50.2082 34.5121 50.2082 34.5121 50.2764 34.4438L49.9353 34.0337L49.2531 33.4186Z" fill="#FCFCFC"/>
<path d="M42.636 35.4006L42.5678 36.1523C42.7042 36.1523 42.7724 36.289 42.8406 36.3573L48.9802 34.9905L43.3182 35.3322L42.636 35.4006Z" fill="#FCFCFC"/>
<path d="M35.2002 35.1271L34.3815 34.4437L34.6544 36.3572C34.7909 36.3572 34.9273 36.4939 34.9273 36.6306L38.7475 37.8607L35.2002 35.1271Z" fill="#FCFCFC"/>
<path d="M30.6981 24.6711V25.3545L30.6298 29.1132L33.0175 26.1745C33.0175 26.1062 32.9492 26.0379 32.9492 25.9695L30.7663 24.6027C30.7663 24.6711 30.7663 24.6711 30.6981 24.6711ZM30.9027 25.3545V24.9444L32.7446 26.1062L30.8345 28.4981L30.9027 25.3545Z" fill="#FCFCFC"/>
<path d="M31.2436 24.6027L33.1537 25.7645C33.2219 25.7645 33.2219 25.6962 33.2901 25.6962C33.3583 25.6962 33.4266 25.6962 33.4948 25.7645L34.9956 25.1494L31.2436 24.6027ZM33.2901 25.4911C33.2219 25.4911 33.2219 25.4911 33.1537 25.4911L32.2669 24.9444L34.177 25.2178L33.4948 25.4911C33.4266 25.5595 33.3583 25.4911 33.2901 25.4911Z" fill="#FCFCFC"/>
<path d="M33.1537 28.0197L33.6312 27.7463L33.3584 26.5162L33.1537 28.0197Z" fill="#FCFCFC"/>
<path d="M32.8807 28.0198L33.0854 26.5847L30.9706 29.1816L32.6761 28.3615C32.6761 28.2932 32.6761 28.2249 32.7443 28.1565C32.8125 28.0198 32.8125 28.0198 32.8807 28.0198ZM32.6078 27.8831C32.5396 27.9515 32.4714 28.0198 32.4714 28.1565L31.7892 28.4982L32.7443 27.2681L32.6761 27.8148C32.6761 27.8832 32.6078 27.8831 32.6078 27.8831Z" fill="#FCFCFC"/>
<path d="M33.8357 15.4452C33.904 15.4452 33.9722 15.4452 34.0404 15.5135C34.3133 15.3085 34.6544 15.0351 34.9272 14.8301C34.9272 14.7618 34.859 14.6934 34.859 14.6251L32.7443 14.0784L30.9706 23.0993L31.5846 21.5958L32.1985 20.1607L33.6311 15.9919C33.4947 15.8552 33.4947 15.7185 33.6311 15.5819C33.6993 15.5135 33.7675 15.4452 33.8357 15.4452Z" fill="#FCFCFC"/>
<path d="M33.5632 26.0379C33.5632 26.1063 33.5632 26.1746 33.495 26.2429L33.9043 27.8831C33.9043 27.9514 33.9043 28.0198 33.8361 28.0198L33.2221 28.2931C33.2221 28.3615 33.2221 28.4298 33.1539 28.4982C33.0857 28.5665 33.0175 28.5665 32.9492 28.5665C32.881 28.5665 32.8128 28.5665 32.8128 28.4982L30.8345 29.4549C30.8345 29.5233 30.8345 29.5916 30.8345 29.5916L32.6764 31.4368H32.7446L34.7229 26.5846C34.6547 26.448 34.6547 26.3113 34.7229 26.1746C34.7911 26.1063 34.8593 26.1063 34.9276 26.1063L35.2004 25.4229C35.2004 25.4229 35.2004 25.4229 35.1322 25.4229L33.5632 26.0379ZM34.7229 25.9012C34.6547 25.9012 34.5865 25.9696 34.5865 26.0379C34.45 26.1746 34.3818 26.448 34.45 26.5846L34.1772 27.3364L34.109 27.4731L33.8361 26.2429C33.8361 26.2429 33.8361 26.2429 33.8361 26.1746L34.8593 25.7646L34.7229 25.9012Z" fill="#FCFCFC"/>
<path d="M34.1087 24.1927C33.9041 24.1927 33.8359 24.056 33.7676 23.9877L31.2436 24.3294L34.9956 24.8761L34.2452 24.1927C34.177 24.1927 34.177 24.1927 34.1087 24.1927ZM32.7444 24.3294L33.6312 24.1927C33.7676 24.3294 33.9041 24.3977 34.0405 24.3977C34.1087 24.3977 34.1087 24.3977 34.177 24.3977L34.3134 24.5344L32.7444 24.3294Z" fill="#FCFCFC"/>
<path d="M30.9027 24.1244L33.7679 23.7143C33.7679 23.646 33.8361 23.646 33.8361 23.5777L32.1306 21.0491L31.8578 21.5958L30.9027 24.1244ZM32.0624 21.7325L32.1306 21.5275L33.495 23.5093L31.1756 23.851L32.0624 21.7325Z" fill="#FCFCFC"/>
<path d="M32.6078 21.3907L33.8358 23.3042L33.6993 22.2791L32.6078 21.3907Z" fill="#FCFCFC"/>
<path d="M30.7662 14.8301C30.9026 14.9667 30.9026 15.1034 30.7662 15.2401L30.698 15.3084V23.0309L32.4716 13.9416L30.4251 13.3266C30.4251 13.3949 30.3569 13.3949 30.2887 13.4632L30.6297 14.7617C30.698 14.7617 30.7662 14.8301 30.7662 14.8301Z" fill="#FCFCFC"/>
<path d="M29.743 13.2582L27.3553 13.3266L30.3569 14.8301L30.0158 13.5316C29.8794 13.5316 29.8112 13.3949 29.743 13.2582Z" fill="#FCFCFC"/>
<path d="M27.7648 37.3824L32.6082 37.5875L30.5617 36.2206L27.7648 37.3824Z" fill="#FCFCFC"/>
<path d="M30.6981 36.0156L31.1756 36.3573L32.8128 37.4507L30.6298 30.4117L30.6981 36.0156Z" fill="#FCFCFC"/>
<path d="M35.2005 15.1034C35.1323 15.1034 35.1323 15.0351 35.064 15.0351C34.7912 15.2401 34.3819 15.5818 34.109 15.7185C34.109 15.7868 34.109 15.8551 34.0408 15.9235L35.2005 19.7505C35.2005 18.5204 35.2005 16.1285 35.2005 15.1034Z" fill="#FCFCFC"/>
<path d="M34.2454 36.699C34.2454 36.6307 34.2454 36.494 34.3136 36.494L32.6764 32.0519C32.6082 32.0519 32.5399 31.9835 32.4717 31.9152C32.4035 31.8468 32.4035 31.7785 32.4717 31.7102L30.7663 30.0016L31.8578 33.5553L33.0175 37.3824C33.0857 37.3824 33.0857 37.3824 33.1539 37.4507L34.2454 36.699Z" fill="#FCFCFC"/>
<path d="M32.4718 20.9124L33.8361 21.9375L35.064 20.8441L32.4718 20.9124ZM33.8361 21.6641L33.0857 21.1174L34.4501 21.0491L33.8361 21.6641Z" fill="#FCFCFC"/>
<path d="M35.2005 20.5023L33.9043 16.1285L32.54 20.1606L32.3353 20.639L35.2005 20.5707C35.1322 20.5707 35.1322 20.5707 35.2005 20.5023Z" fill="#FCFCFC"/>
<path d="M38.9524 23.646V22.6893L38.1338 21.5958L35.4733 21.5275L37.4516 23.031L38.4066 22.8943L38.9524 23.646Z" fill="#FCFCFC"/>
<path d="M42.7042 23.1676L42.8407 25.3545L43.1817 23.3727L43.591 22.8943L44.4779 23.031L46.4562 21.5275L43.7957 21.5958L42.7042 23.1676Z" fill="#FCFCFC"/>
<path d="M43.1136 29.5232L41.1353 28.1564V27.1997L43.1818 26.1746L42.9089 25.8329L40.9988 26.0379L39.0887 25.8329L38.7476 26.1746L40.7942 27.1997L40.8624 28.1564L38.8159 29.5232L38.3383 29.4549L38.2701 30.3433L40.112 29.1132H40.9988H41.8857L43.7275 30.3433L43.6593 29.4549L43.1136 29.5232Z" fill="#FCFCFC"/>
<path d="M40.0438 32.3936H41.8857L40.9989 31.5735L40.0438 32.3936Z" fill="#FCFCFC"/>
<path d="M88.0009 12.3015L87.9327 12.3699H83.8396C83.8396 12.3015 83.7714 12.3015 83.7714 12.2332C83.635 12.0965 83.4303 12.0965 83.2939 12.2332C83.1574 12.3698 83.1574 12.5749 83.2939 12.7116C83.3621 12.7799 83.4985 12.7799 83.5668 12.7799L84.59 13.5316C84.59 13.6683 84.59 13.805 84.7264 13.8733C84.7947 13.9417 84.8629 13.9417 84.8629 13.9417C84.8629 14.5567 84.8629 15.1718 84.8629 15.7185V15.7869C84.7947 15.7869 84.7947 15.8552 84.7264 15.8552C84.59 15.9919 84.59 16.1969 84.7264 16.3336L84.7947 16.4019C84.7947 19.8873 84.7947 21.8692 83.9761 22.6892C83.7714 22.8943 83.4303 23.0993 83.021 23.0993C83.021 23.0309 82.9528 23.0309 82.9528 23.0309C82.8164 22.8943 82.6117 22.8943 82.4753 23.0309C82.4753 23.0309 82.4753 23.0993 82.4071 23.0993C82.3388 23.0993 82.3388 23.0993 82.2706 23.0993C81.9977 23.0309 81.5202 22.9626 81.1109 22.7576C80.9063 22.6209 80.7016 22.4842 80.497 22.2792C80.2923 22.0742 80.1559 21.8008 80.0877 21.4591C79.9512 21.0491 79.883 20.5707 79.8148 20.0923L79.883 20.024C80.0876 19.8189 80.0194 19.5456 79.8148 19.3406C79.8148 19.3406 79.7466 19.3406 79.7466 19.2722C79.7466 18.5888 79.7466 17.9054 79.7466 17.222C79.7466 16.5386 79.8148 15.9235 79.8148 15.3085C79.8148 14.7618 79.8148 14.2834 79.8148 13.9417C79.8148 13.8733 79.8148 13.8733 79.8148 13.805C79.883 13.7367 79.883 13.7367 79.9512 13.6683C79.9512 13.6 80.0194 13.5316 79.9512 13.4633L80.838 12.7116C80.9745 12.7116 81.1109 12.7116 81.1791 12.5749C81.3156 12.4382 81.3156 12.2332 81.1791 12.0965C81.0427 11.9598 80.838 11.9598 80.7016 12.0965L80.5652 12.1648H75.9264L75.8582 12.0965C75.7217 11.9598 75.5171 11.9598 75.3806 12.0965C75.2442 12.2332 75.2442 12.4382 75.3806 12.5749C75.5171 12.7116 75.6535 12.7116 75.7899 12.6432L76.745 13.395C76.745 13.5316 76.745 13.6683 76.8814 13.7367C76.9496 13.7367 76.9496 13.805 77.0179 13.805V19.8189C77.0179 19.8189 77.0179 19.9556 77.0179 20.229C77.0179 20.3657 77.0179 20.434 77.0179 20.5707C76.8132 20.639 76.745 20.844 76.8814 21.0491C76.9496 21.1174 77.0179 21.1858 77.1543 21.2541C77.1543 21.3224 77.1543 21.4591 77.2225 21.5275C77.2225 21.6641 77.2907 21.7325 77.2907 21.8692C77.3589 22.0058 77.3589 22.0742 77.4272 22.2109C77.4954 22.3475 77.4954 22.4159 77.5636 22.5526C77.7 22.7576 77.8365 23.0309 77.9729 23.236C78.0411 23.3043 78.0411 23.3726 78.1093 23.3726L78.2458 23.5093L78.3822 23.646C78.4504 23.7143 78.5186 23.7143 78.5186 23.7827L78.6551 23.9194C78.7233 23.9877 78.7915 23.9877 78.8597 24.056C78.9962 24.1244 79.1326 24.1927 79.2008 24.2611C79.3373 24.3294 79.4737 24.3977 79.6101 24.3977C79.6783 24.3977 79.7466 24.4661 79.8148 24.4661C79.883 24.4661 79.9512 24.5344 80.0194 24.5344C80.1559 24.6028 80.2923 24.6028 80.3605 24.6711C80.497 24.7394 80.6334 24.7394 80.7016 24.7394C80.838 24.7394 80.9063 24.8078 81.0427 24.8078C81.1791 24.8078 81.2474 24.8078 81.3838 24.8761C81.5884 24.8761 81.7931 24.9445 81.9295 24.9445C82.066 24.9445 82.2024 24.9445 82.3388 24.9445C82.5435 24.9445 82.6117 24.9445 82.6799 24.9445C83.5667 24.9445 84.59 24.7394 85.4086 23.9877C85.4768 23.9877 85.4768 23.9877 85.5451 23.9877C85.9544 23.9877 86.2272 23.646 86.2272 23.3043C86.2272 23.236 86.2272 23.0993 86.159 23.0309C86.6365 22.1425 86.9776 20.844 86.9776 18.9989V13.7367L87.0458 13.6683C87.1141 13.5316 87.1823 13.4633 87.1823 13.3266L88.0691 12.5749C88.1373 12.5749 88.2738 12.5065 88.342 12.4382C88.4784 12.3015 88.4784 12.0965 88.342 11.9598C88.342 12.1648 88.1373 12.1648 88.0009 12.3015ZM82.4071 23.5777C82.4753 23.5777 82.5435 23.5777 82.5435 23.5777C82.5435 23.646 82.6117 23.646 82.6117 23.7143C82.7481 23.851 82.9528 23.851 83.0892 23.7143C83.0892 23.646 83.1574 23.646 83.1574 23.5777C83.635 23.5093 84.0443 23.3726 84.3171 23.0309C85.204 22.1425 85.204 20.2973 85.204 16.5386C85.2722 16.5386 85.2722 16.4703 85.3404 16.4703C85.4768 16.3336 85.4768 16.1286 85.3404 15.9919L86.0226 14.3517C86.0226 15.3085 86.0226 16.1969 86.0226 16.9487C86.0226 17.427 86.0226 17.9054 86.0226 18.3838C86.0226 18.7938 86.0226 19.1355 86.0226 19.4772C85.9544 19.5456 85.8862 19.6139 85.8862 19.6823C85.8862 19.7506 85.9544 19.8189 86.0226 19.8873C85.8861 21.4591 85.5451 22.5526 84.8629 23.1676C84.3171 23.7143 83.635 23.9877 82.6799 23.9877C81.7931 23.9877 81.1109 23.851 80.5652 23.5777H81.8613C81.9977 23.5777 82.2024 23.5777 82.4071 23.5777ZM85.204 14.01C85.204 14.01 85.2722 14.01 85.204 14.01C85.2722 13.9417 85.2722 13.8733 85.3404 13.8733L85.9544 14.0784C85.9544 14.0784 85.9544 14.0784 85.9544 14.1467L85.204 15.7869C85.204 15.2401 85.204 14.6251 85.204 14.01ZM80.2241 22.6209C80.4287 22.8943 80.7016 23.0993 80.9745 23.236C81.0427 23.3043 81.1109 23.3043 81.2473 23.3726H80.4287C80.4287 23.236 80.2923 23.1676 80.2241 23.1676C80.1559 23.1676 80.0877 23.1676 80.0194 23.236C78.8597 22.4159 78.3822 21.1174 78.3822 19.8189C78.3822 18.3838 78.4504 15.9235 78.4504 14.6934L79.269 18.5888C79.269 18.8622 79.269 19.1355 79.269 19.4089C79.269 19.4089 79.2008 19.4089 79.2008 19.4772C78.9962 19.6823 79.0644 19.9556 79.269 20.1606L79.3373 20.229C79.4055 20.7757 79.4737 21.2541 79.6783 21.7325C79.8148 22.0742 80.0194 22.4159 80.2241 22.6209ZM78.5186 14.0784C78.5869 14.01 78.5869 14.01 78.5869 14.01L79.269 13.805C79.269 13.8733 79.3373 13.9417 79.4055 14.01C79.4055 14.0784 79.4055 14.0784 79.4055 14.1467C79.4055 14.4884 79.4055 14.8984 79.4055 15.4452C79.4055 15.9919 79.3373 16.6069 79.3373 17.3587C79.3373 17.4954 79.3373 17.7004 79.3373 17.8371L78.5186 14.0784ZM77.1543 13.3266L76.1992 12.5749H80.3605L79.6101 13.1899C79.4737 13.1899 79.269 13.2583 79.2008 13.4633C79.2008 13.5316 79.2008 13.5316 79.2008 13.6L78.4504 13.805C78.4504 13.805 78.4504 13.805 78.3822 13.7367C78.314 13.7367 78.2458 13.7367 78.1776 13.7367L77.4954 13.5316C77.4954 13.4633 77.4272 13.3266 77.3589 13.3266C77.3589 13.3266 77.2907 13.3266 77.1543 13.3266ZM86.6365 19.3406C86.6365 20.844 86.4319 22.0742 85.9544 22.9626C85.8862 22.9626 85.8179 22.8943 85.7497 22.8943C85.3404 22.8943 85.0675 23.236 85.0675 23.5777C85.0675 23.7143 85.1358 23.851 85.1358 23.9194C84.59 24.3977 83.8396 24.6028 82.9528 24.6711C82.9528 24.6711 82.8164 24.6711 82.6117 24.6711C82.4753 24.6711 82.3388 24.6711 82.2024 24.6711C82.066 24.6711 81.8613 24.6711 81.6567 24.6028C81.5884 24.6028 81.452 24.6028 81.3838 24.6028C81.2474 24.6028 81.1791 24.5344 81.0427 24.5344C80.9063 24.5344 80.838 24.5344 80.7016 24.4661C80.5652 24.3977 80.497 24.3977 80.3605 24.3977C80.2923 24.3977 80.2241 24.3977 80.1559 24.3294C80.0877 24.3294 80.0194 24.2611 79.9512 24.2611C79.8148 24.1927 79.7466 24.1927 79.6101 24.1244C79.4737 24.056 79.4055 23.9877 79.269 23.9194C79.2008 23.9194 79.1326 23.851 79.1326 23.851L78.9962 23.7143C78.928 23.646 78.8597 23.646 78.8597 23.5777L78.7233 23.441L78.5869 23.3043C78.5186 23.236 78.5186 23.236 78.4504 23.1676C78.314 22.9626 78.1776 22.7576 78.0411 22.5526C77.9729 22.4159 77.9729 22.3475 77.9047 22.2109C77.8365 22.0742 77.8365 22.0058 77.7682 21.8692C77.7 21.7325 77.7 21.6641 77.7 21.5275C77.7 21.4591 77.6318 21.3224 77.6318 21.2541C77.7683 21.1174 77.7683 20.9807 77.7 20.844C77.6318 20.7757 77.6318 20.7074 77.5636 20.7074C77.5636 20.5707 77.5636 20.434 77.5636 20.2973C77.5636 20.0923 77.5636 19.9556 77.5636 19.9556V13.8733C77.6318 13.8733 77.6318 13.805 77.6318 13.805C77.6318 13.805 77.7 13.7367 77.7 13.6683L78.3822 13.8733C78.3822 13.9417 78.4504 13.9417 78.4504 14.01C78.4504 14.7618 78.3822 17.9738 78.3822 19.6823C78.3822 21.0491 78.8597 22.4842 80.0877 23.3043C80.0877 23.441 80.2241 23.5777 80.3605 23.5777C80.4287 23.5777 80.4287 23.5777 80.497 23.5093C81.1109 23.851 81.8613 23.9877 82.8164 23.9877C83.8396 23.9877 84.59 23.7143 85.1358 23.1676C85.8179 22.4842 86.159 21.3908 86.2955 19.7506C86.4319 19.7506 86.5001 19.6139 86.5001 19.5456C86.5001 19.4772 86.4319 19.4089 86.3637 19.3406L86.7048 16.6069V19.3406H86.6365ZM86.6365 15.5818L86.2272 18.6572C86.2272 18.5888 86.2272 18.4521 86.2272 18.3838C86.2272 17.9054 86.2272 17.4954 86.2272 16.9487C86.2272 16.1286 86.2272 15.1718 86.2272 14.1467L86.2955 14.0784L86.6365 13.9417C86.6365 14.01 86.7048 14.01 86.7048 14.0784V15.5818H86.6365ZM86.9094 13.2583C86.773 13.2583 86.6365 13.3266 86.5683 13.395C86.5001 13.4633 86.4319 13.6 86.4319 13.7367L86.0908 13.8733C86.0908 13.8733 86.0908 13.8733 86.0226 13.805C85.9544 13.805 85.8862 13.805 85.8179 13.8733L85.204 13.6683C85.204 13.6 85.1358 13.4633 85.0675 13.395C84.9993 13.3266 84.8629 13.2583 84.7264 13.3266L83.7032 12.5749H87.4552L86.9094 13.2583Z" fill="#FCFCFC"/>
<path d="M113.787 24.3294C113.651 24.2611 113.582 24.2611 113.446 24.3294L112.491 23.7144C112.491 23.5777 112.423 23.3727 112.286 23.3043L111.945 22.5526C112.013 22.4159 112.082 22.2792 112.082 22.1425C112.082 21.8008 111.809 21.5275 111.468 21.5275L106.965 12.3015C107.034 12.1648 106.965 11.9598 106.829 11.8915C106.624 11.7548 106.42 11.8231 106.283 12.0282C106.215 12.1648 106.215 12.3699 106.351 12.5065L101.576 23.646C101.44 23.646 101.303 23.7144 101.235 23.851C101.235 23.9194 101.235 23.9194 101.235 23.9877L100.28 24.4661C100.212 24.3978 100.212 24.3978 100.144 24.3978C99.9389 24.3294 99.7343 24.3978 99.6661 24.6028C99.5978 24.8078 99.6661 25.0128 99.8707 25.0812C100.007 25.1495 100.212 25.0812 100.348 24.9445H104.237C104.305 25.0128 104.305 25.0128 104.373 25.0812C104.578 25.1495 104.782 25.0812 104.851 24.8761C104.919 24.6711 104.851 24.4661 104.646 24.3978C104.51 24.3294 104.373 24.3294 104.305 24.3978L103.827 24.1244C103.827 23.9877 103.827 23.9194 103.759 23.851L104.646 21.3224C104.714 21.3224 104.782 21.3224 104.851 21.2541H107.989C108.057 21.3224 108.125 21.3224 108.193 21.3224L109.421 23.851V23.9194L109.148 24.3978C108.944 24.3294 108.739 24.3978 108.671 24.6028C108.603 24.8078 108.671 25.0128 108.875 25.0812C109.08 25.1495 109.285 25.0812 109.353 24.8761H111.331C111.331 24.9445 111.399 25.0128 111.468 25.0128C111.604 25.0812 111.809 25.0128 111.877 24.8761H113.378C113.446 24.9445 113.446 25.0128 113.514 25.0128C113.719 25.0812 113.924 25.0128 113.992 24.8078C114.06 24.6711 113.992 24.3978 113.787 24.3294ZM106.556 12.9166L110.854 21.8692C110.786 21.9375 110.786 22.0742 110.786 22.1425L109.285 20.5024C109.285 20.434 109.285 20.434 109.285 20.3657C109.285 20.229 109.148 20.0923 109.012 20.0923H108.944C107.92 17.7004 106.692 14.7618 106.42 14.0784C106.488 14.01 106.42 13.8734 106.351 13.8734L106.556 12.9166ZM108.875 20.2973L107.989 20.024C107.989 19.9556 107.92 19.8873 107.92 19.8873L106.624 16.3336L106.692 16.2653C106.829 16.0602 106.761 15.8552 106.556 15.7185C106.556 15.7185 106.488 15.7185 106.488 15.6502V14.4884C106.829 15.4452 107.92 18.0421 108.875 20.2973ZM104.441 20.1607L104.1 20.3657L106.283 14.6251V15.7185C106.147 15.7185 106.079 15.7869 106.01 15.9236C105.942 15.9919 105.942 16.1286 105.942 16.2653L104.578 19.819C104.441 19.8873 104.373 20.024 104.373 20.1607C104.441 20.0923 104.441 20.0923 104.441 20.1607ZM106.42 16.607L107.648 19.9556H105.192L106.42 16.607ZM106.42 12.8482L106.283 14.01C106.283 14.01 106.215 14.01 106.215 14.0784C106.147 14.1467 106.215 14.2151 106.215 14.2834L103.896 20.3657C103.827 20.3657 103.759 20.434 103.759 20.5024V20.5707L101.985 23.0993L106.42 12.8482ZM103.623 21.1858L102.668 23.5777C102.599 23.5777 102.599 23.646 102.531 23.646L101.713 23.7827C101.713 23.7827 101.713 23.7827 101.713 23.7144L103.623 21.1858ZM100.689 24.4661L101.303 24.1927L101.372 24.2611C101.508 24.3294 101.713 24.2611 101.781 24.1244V24.0561L102.531 23.9194C102.531 23.9877 102.599 23.9877 102.668 23.9877C102.736 23.9877 102.736 23.9877 102.804 23.9194L102.941 23.9877C102.941 24.1244 103.009 24.3294 103.145 24.3978C103.213 24.4661 103.35 24.4661 103.418 24.3978L103.554 24.4661H100.689ZM104.168 20.9807L103.213 23.646C103.145 23.646 103.077 23.7144 103.009 23.7827L102.872 23.7144C102.872 23.646 102.872 23.646 102.804 23.646L103.964 20.639H104.032L104.168 20.7757C104.168 20.8441 104.168 20.8441 104.168 20.9124C104.168 20.9124 104.168 20.9807 104.168 20.9807ZM107.989 20.5707H104.782C104.714 20.5024 104.646 20.5024 104.578 20.5024C104.51 20.5024 104.441 20.5707 104.373 20.5707L104.237 20.434L104.578 20.229C104.646 20.2973 104.714 20.2973 104.851 20.2973C104.987 20.2973 105.055 20.229 105.123 20.0923H107.716H107.784C107.852 20.0923 107.852 20.0923 107.92 20.024L108.875 20.2973L108.466 20.434C108.398 20.3657 108.33 20.2973 108.193 20.2973C108.057 20.5024 107.989 20.5707 107.989 20.5707ZM109.558 24.0561C109.626 24.0561 109.694 23.9877 109.762 23.9194C109.83 23.851 109.762 23.7144 109.694 23.646L108.466 21.1858C108.534 21.1174 108.603 20.9807 108.603 20.9124V20.8441L109.012 20.7074C109.08 20.7757 109.148 20.7757 109.217 20.7757C109.762 22.0058 110.172 23.0993 110.444 23.7144C110.444 23.7144 110.376 23.7827 110.376 23.851L109.489 24.4661L109.558 24.0561ZM109.489 24.4661L110.308 23.851H110.376H110.444L111.127 24.3978H109.489V24.4661ZM111.741 24.4661C111.741 24.4661 111.672 24.4661 111.741 24.4661C111.604 24.3978 111.468 24.3978 111.399 24.4661L110.786 23.9877L112.627 24.5344H111.741V24.4661ZM110.581 23.7144C110.581 23.646 110.513 23.5777 110.444 23.5777C110.308 23.1676 109.83 22.0742 109.285 20.7757L111.604 23.3043L111.741 23.646C111.741 23.7827 111.809 23.9877 111.945 24.0561C112.013 24.1244 112.15 24.1244 112.218 24.0561L112.627 24.3294L110.581 23.7144Z" fill="#FCFCFC"/>
<path d="M99.8024 21.6641C99.8706 21.5958 99.9388 21.5274 100.007 21.4591C100.075 21.254 100.007 20.9807 99.8024 20.9123C99.5977 20.844 99.3249 20.9123 99.2567 21.1174C99.1884 21.1857 99.1884 21.3224 99.2567 21.3907L97.8241 22.6892C97.6876 22.6892 97.5512 22.6892 97.483 22.8259C97.4148 22.8942 97.4148 22.8942 97.4148 22.9626H97.3466C97.1419 22.9626 96.869 23.0309 96.5962 23.0309C96.3233 23.0309 96.0504 23.0309 95.8458 23.0309C95.6411 23.0309 95.5047 23.0309 95.5047 23.0309C94.1403 23.0309 91.1388 21.9375 91.1388 18.7255C91.1388 15.9918 92.4349 14.3517 94.5496 14.3517H94.6861C96.4597 14.3517 97.6877 14.3517 98.3016 16.0602C98.2334 16.1285 98.2334 16.1969 98.1652 16.2652C98.0969 16.4702 98.3016 16.7436 98.5063 16.7436C98.7109 16.8119 98.9838 16.6069 98.9838 16.4019C98.9838 16.3335 98.9838 16.1969 98.9838 16.1285L99.8706 11.5497C99.9388 11.4814 100.007 11.413 100.007 11.2764C100.075 11.0713 99.8706 10.798 99.666 10.798C99.4613 10.7296 99.1884 10.9347 99.1884 11.1397C99.1884 11.208 99.1884 11.3447 99.1884 11.413L97.8241 12.6432C97.6876 12.5748 97.483 12.5748 97.3466 12.7115C96.8008 12.5748 95.6411 12.3015 94.2086 12.3015C92.8442 12.3015 91.4798 12.9165 90.4566 13.9416C89.638 14.7617 88.6829 16.2652 88.6829 18.5888C88.6829 18.5888 88.6829 18.6571 88.6829 18.7255C88.6829 18.7938 88.6829 18.9988 88.6829 19.1355C88.6829 19.2038 88.6829 19.3405 88.6829 19.4772C88.6829 19.6139 88.6829 19.6822 88.7511 19.8189C88.8194 20.0923 88.8876 20.3656 88.9558 20.7073C89.1604 21.3224 89.5015 22.0741 89.9791 22.6892C90.4566 23.3043 91.207 23.9193 91.9574 24.3294C92.7078 24.7394 93.5946 25.0128 94.4132 25.0811C94.5496 25.0811 94.6178 25.0811 94.7543 25.1494C94.8225 25.4228 95.0954 25.6278 95.4365 25.6278C95.7093 25.6278 95.9822 25.4228 96.1186 25.1494H96.1869C96.3915 25.1494 96.5279 25.1494 96.6644 25.1494C97.2783 25.0811 97.8241 25.0811 98.1652 25.0811C98.3016 25.0811 98.438 25.0811 98.5063 25.0811C98.5063 25.0811 98.5063 25.0811 98.5745 25.0811C98.7791 25.1494 99.052 25.0811 99.1202 24.8761C99.1884 24.7394 99.1884 24.6027 99.052 24.466L99.8024 21.6641ZM91.4116 21.4591C92.5031 22.8942 94.2085 23.5776 95.5047 23.5776C95.5047 23.5776 95.6411 23.5776 95.8458 23.5776C96.0504 23.5776 96.3233 23.5093 96.5962 23.5093C96.869 23.5093 97.1419 23.4409 97.3466 23.3726C97.4148 23.3726 97.4148 23.3726 97.483 23.3726L97.3466 23.9193C97.2783 23.9193 97.2783 23.9193 97.2783 23.9877C97.2783 23.9877 97.2783 23.9877 97.2783 24.056C96.5962 24.1243 95.9822 24.1243 95.0272 24.1243C94.5496 24.1243 94.0721 24.056 93.5946 23.851C93.5946 23.7826 93.5946 23.7143 93.5264 23.7143C93.4582 23.646 93.3899 23.7143 93.3217 23.7143L93.1853 23.646C91.5481 22.8942 90.1155 21.049 89.9791 18.7255L90.8659 20.3656C90.9341 20.7757 91.1388 21.1174 91.4116 21.4591ZM94.8907 24.3977L94.345 24.1243C94.5496 24.1927 94.8225 24.1927 95.0272 24.1927H95.0954C95.0272 24.261 94.9589 24.3294 94.8907 24.3977ZM94.6179 13.6683H94.4814C93.3899 13.6683 92.3667 14.0783 91.6845 14.8301C90.9341 15.7185 90.5248 16.9486 90.5248 18.5888C90.5248 18.9305 90.593 19.2722 90.593 19.6139L89.9108 18.3838C89.9108 18.3838 89.9108 18.3838 89.9108 18.3154C89.9108 18.2471 89.9108 18.1787 89.8426 18.1104C89.8426 15.7185 91.207 14.0783 92.8442 13.4633L92.9124 13.5316C92.9806 13.5999 93.1171 13.5316 93.1171 13.4633V13.3949C93.5264 13.2582 94.0039 13.1899 94.4814 13.1899C96.869 13.1899 97.8241 13.7366 98.1652 13.9416C98.1652 14.01 98.1652 14.0783 98.2334 14.0783C98.2334 14.0783 98.2334 14.0783 98.3016 14.0783L98.438 14.8984C97.5512 13.6683 96.1186 13.6683 94.6179 13.6683ZM98.5745 15.1034L98.438 14.0783C98.438 14.0783 98.438 14.0783 98.5063 14.01C98.5063 13.9416 98.5063 13.8733 98.5063 13.8733L99.052 12.5748L98.5745 15.1034ZM97.8923 13.1216C97.9605 13.0532 98.0287 12.9165 97.9605 12.7799L99.1884 11.6864L99.1202 11.8914L98.3016 13.805L97.8923 13.1216ZM94.2086 12.4381C95.5729 12.4381 96.6644 12.7115 97.2101 12.8482C97.2101 12.9165 97.2783 13.0532 97.3466 13.1216C97.483 13.1899 97.6194 13.2582 97.6876 13.1899L98.0287 13.6683C97.5512 13.3949 96.5279 12.9849 94.4814 12.9849C94.1403 12.9849 93.731 13.0532 93.3899 13.1216L94.2086 12.4381C94.2086 12.4381 94.2086 12.5065 94.2086 12.4381ZM89.0922 19.7506C89.0922 19.6139 89.024 19.4772 89.024 19.4089C89.024 19.2722 89.024 19.2038 88.9558 19.1355C88.9558 18.9305 88.9558 18.7938 88.9558 18.7255C88.9558 18.6571 88.9558 18.5888 88.9558 18.5888C88.9558 15.7185 90.7977 12.7115 94.0039 12.5748L93.1171 13.3266C93.0488 13.3266 92.9124 13.3266 92.9124 13.3949C91.207 14.0783 89.8426 15.7868 89.7744 18.2471L89.7062 18.3154C89.7062 18.3838 89.7062 18.4521 89.7744 18.5204L89.2287 20.2973C89.0922 20.0239 89.0922 19.8872 89.0922 19.7506ZM92.2985 23.9193C92.2302 23.9193 92.2302 23.851 92.162 23.851C91.4116 23.5093 90.7977 22.9626 90.2519 22.4158C89.7744 21.8008 89.4333 21.1857 89.2287 20.5706C89.2287 20.5023 89.2287 20.5023 89.1604 20.434L89.7062 18.7255C89.9108 21.1857 91.4116 23.0309 93.1853 23.7826C93.1853 23.7826 93.1853 23.851 93.2535 23.851C93.3217 23.851 93.3217 23.851 93.3899 23.851L94.6861 24.466C93.8675 24.466 93.0489 24.261 92.2985 23.9193ZM98.1652 24.3977C97.8241 24.3977 97.2783 24.466 96.6644 24.5344C96.5279 24.5344 96.3233 24.5344 96.1869 24.5344H96.1186C96.0504 24.3977 95.914 24.261 95.7775 24.1927C96.3915 24.1927 96.869 24.1243 97.4148 24.1243C97.483 24.1927 97.5512 24.1243 97.6194 24.1243L98.3698 24.3977C98.2334 24.3977 98.1652 24.3977 98.1652 24.3977ZM98.5063 24.1927C98.438 24.1927 98.438 24.261 98.3698 24.261L97.5512 23.9193C97.5512 23.851 97.5512 23.851 97.483 23.851L97.6194 23.3043C97.7559 23.3043 97.8241 23.3043 97.9605 23.1676C98.0287 23.0992 98.0287 22.9626 98.0287 22.8942L99.1202 21.8008L98.5063 24.1927Z" fill="#FCFCFC"/>
<path d="M123.337 15.2402L123.201 13.0533C123.337 12.9166 123.337 12.7799 123.269 12.5749C123.201 12.3699 122.928 12.3015 122.723 12.3699C122.655 12.4382 122.519 12.5065 122.519 12.5749L120.95 12.6432C120.882 12.5749 120.745 12.5749 120.677 12.5749C120.677 12.5749 120.609 12.5749 120.609 12.6432H118.016C117.948 12.4382 117.744 12.3699 117.539 12.4382C117.471 12.5065 117.403 12.5749 117.334 12.6432H114.469C114.401 12.5749 114.264 12.5065 114.196 12.5749C114.196 12.5749 114.128 12.5749 114.128 12.6432H113.241C113.241 12.6432 113.241 12.6432 113.241 12.5749C113.173 12.3699 112.968 12.3015 112.764 12.3699C112.559 12.4382 112.491 12.6432 112.559 12.8482C112.559 12.9166 112.627 12.9849 112.695 12.9849L112.491 14.7618C112.354 14.7618 112.218 14.8301 112.15 14.9668C112.013 15.2402 112.082 15.5135 112.286 15.6502C112.491 15.7869 112.832 15.7185 112.968 15.5135C113.037 15.4452 113.037 15.3768 113.037 15.3085L114.128 14.4201C114.264 14.4201 114.401 14.4201 114.537 14.2834H116.311L116.379 14.3517C116.447 14.3517 116.447 14.4201 116.516 14.4201V19.1356C116.243 19.2039 115.97 19.4773 115.97 19.819C115.97 20.1607 116.175 20.434 116.516 20.5024V22.9626C116.447 23.031 116.311 23.0993 116.311 23.1676C116.311 23.236 116.311 23.3043 116.311 23.3727L115.424 24.1244C115.356 24.1244 115.356 24.0561 115.288 24.0561C115.015 23.9877 114.742 24.1244 114.674 24.3978C114.606 24.6711 114.742 24.9445 115.015 25.0128C115.151 25.0812 115.356 25.0128 115.492 24.8761H120.541C120.609 24.9445 120.609 24.9445 120.677 24.9445C120.95 25.0128 121.154 24.8761 121.223 24.6711C121.291 24.3978 121.154 24.1927 120.95 24.1244C120.882 24.1244 120.745 24.1244 120.677 24.1244L119.517 23.3727C119.517 23.3043 119.449 23.1676 119.381 23.0993L119.313 19.2722C119.449 19.2039 119.585 19.0672 119.585 18.8622C119.585 18.6572 119.449 18.5205 119.313 18.4522L119.244 14.4884L121.564 14.5568L122.587 15.5135V15.5819C122.655 15.7869 122.86 15.8552 123.065 15.7869C123.269 15.7185 123.337 15.5135 123.269 15.3085C123.406 15.2402 123.406 15.2402 123.337 15.2402ZM117.88 13.1216C117.88 13.1216 117.948 13.1216 117.948 13.0533L118.699 13.805C118.562 14.01 118.63 14.2151 118.767 14.3517L118.835 18.4522C118.767 18.5205 118.699 18.6572 118.699 18.7255C118.699 18.8622 118.767 18.9305 118.835 19.0672V21.5958L117.88 17.4954C117.948 17.427 118.085 17.3587 118.085 17.2904C118.153 17.0853 118.016 16.8803 117.88 16.812H117.812L117.88 13.1216ZM118.903 23.031L117.948 22.2792C117.948 22.2109 117.948 22.1425 117.88 22.1425V17.7688L118.903 22.3476V23.031ZM117.744 22.2109C117.675 22.2109 117.675 22.2792 117.675 22.3476V22.4159L117.061 22.9626L116.993 22.8943V20.434C117.334 20.3657 117.539 20.0923 117.539 19.7506C117.539 19.4773 117.402 19.2722 117.13 19.1356L117.675 17.6321L117.744 22.2109ZM117.607 13.1216C117.607 13.1216 117.675 13.1216 117.744 13.1899V16.9487C117.607 16.9487 117.539 17.0853 117.471 17.222C117.402 17.3587 117.471 17.5637 117.607 17.6321L116.993 19.2039H116.925V14.6251C116.993 14.5568 117.061 14.5568 117.061 14.4884C117.198 14.2834 117.13 14.0784 116.993 13.9417L117.607 13.1216ZM114.606 13.805L114.537 13.7367C114.333 13.6 114.06 13.6683 113.923 13.8734C113.855 13.9417 113.855 14.01 113.855 14.0784L112.832 14.8985L113.037 13.1216H113.105C113.173 13.1216 113.241 13.0533 113.241 12.9849H114.128C114.196 13.1216 114.333 13.19 114.469 13.1216C114.537 13.1216 114.537 13.0533 114.606 12.9849H117.266L114.878 13.8734H114.606V13.805ZM116.379 13.805H115.288L117.403 12.9849L116.857 13.6683C116.72 13.6683 116.516 13.6683 116.379 13.805ZM115.765 24.2611L116.652 23.5777C116.789 23.646 116.993 23.5777 117.061 23.441L119.722 24.2611H115.765ZM119.79 24.1244L117.13 23.3043C117.13 23.236 117.13 23.1676 117.13 23.0993L117.744 22.5526C117.812 22.5526 117.812 22.5526 117.88 22.5526L118.835 23.236V23.3043C118.767 23.5093 118.903 23.7827 119.108 23.851C119.176 23.851 119.244 23.851 119.313 23.851L119.79 24.1244ZM122.178 14.1467C122.178 14.0784 122.178 14.01 122.178 13.9417C122.11 13.7367 121.905 13.6683 121.7 13.7367C121.632 13.7367 121.564 13.805 121.564 13.8734L119.449 13.805L119.381 13.7367C119.244 13.6683 119.04 13.6683 118.903 13.7367L118.153 12.9166H120.677C120.745 13.0533 120.882 13.1216 121.018 13.0533C121.086 13.0533 121.086 12.9849 121.154 12.9166L122.655 12.8482C122.655 12.9166 122.723 12.9166 122.723 12.9849L122.792 14.6934L122.178 14.1467Z" fill="#FCFCFC"/>
<path d="M142.711 18.3154C141.552 17.632 140.392 16.9486 140.392 15.7185C140.392 15.3084 140.528 15.0351 140.801 14.83C141.21 14.4883 141.961 14.42 142.575 14.4883C142.575 14.5567 142.643 14.5567 142.643 14.625C142.711 14.6934 142.848 14.7617 142.916 14.7617C143.189 15.3768 143.598 16.1969 143.735 16.5386C143.735 16.6752 143.735 16.8119 143.871 16.8803C144.007 17.0169 144.212 17.0169 144.348 16.8803C144.485 16.7436 144.485 16.6069 144.417 16.4702C144.485 15.7868 144.69 13.8049 144.894 12.2331C145.031 12.0964 145.031 11.8914 144.894 11.7547C144.758 11.6181 144.553 11.6181 144.417 11.7547C144.348 11.8231 144.348 11.9598 144.348 12.0281L143.735 12.6432C141.62 12.3015 140.255 12.4381 139.3 13.1899C138.55 13.8049 138.209 14.83 138.209 16.1969C138.209 17.632 139.369 18.5888 140.46 19.4772C140.528 19.5455 140.665 19.6139 140.733 19.6822C140.938 19.8872 141.21 20.0239 141.483 20.2289C142.234 20.7073 142.848 21.1174 142.711 22.0741C142.643 22.6208 142.097 22.8942 141.824 23.0309C141.142 23.3042 140.187 23.2359 139.71 22.8942C139.641 22.8259 139.641 22.8259 139.573 22.7575C139.232 22.4158 139.028 21.8008 138.891 21.1857C138.823 20.9123 138.755 20.7073 138.686 20.5023C138.823 20.3656 138.823 20.1606 138.686 20.0239C138.55 19.8872 138.345 19.8872 138.209 20.0239C138.072 20.1606 138.072 20.3656 138.209 20.5023L137.8 23.851C137.731 23.851 137.663 23.9193 137.663 23.9193C137.527 24.056 137.527 24.261 137.663 24.3977C137.731 24.466 137.868 24.5344 138.004 24.466C138.414 24.7394 139.573 25.2861 141.074 25.2861C143.939 25.2861 145.372 24.1243 145.372 21.6641C145.372 19.9556 144.007 19.0671 142.711 18.3154ZM142.643 13.8733C141.893 13.8049 141.006 13.8733 140.392 14.3517C139.983 14.6934 139.778 15.1717 139.778 15.7185C139.778 17.222 141.074 18.042 142.37 18.7938C142.848 19.0671 143.325 19.3405 143.735 19.6822V21.5274C143.735 21.4591 143.666 21.3907 143.666 21.3907C143.257 20.434 142.37 19.6822 141.552 18.9988C140.46 18.1104 139.505 17.2903 139.437 15.9918C139.573 15.9235 139.641 15.8552 139.641 15.7185C139.641 15.5818 139.573 15.5134 139.437 15.4451C139.573 13.8049 140.801 13.4632 142.575 13.3949L142.643 13.4632H142.711L142.848 13.7366C142.779 13.8049 142.711 13.8733 142.643 13.8733ZM143.735 12.8482C143.803 12.8482 143.803 12.8482 143.871 12.7798L144.348 12.3015C144.144 13.8049 144.076 14.83 144.007 15.4451C143.803 15.0351 143.598 14.625 143.462 14.2833C143.462 14.1466 143.462 14.01 143.325 13.8733C143.257 13.8049 143.189 13.8049 143.052 13.7366L142.916 13.3949V13.3266L143.735 12.8482C143.666 12.8482 143.666 12.8482 143.735 12.8482ZM138.482 16.1285C138.482 14.83 138.823 13.9416 139.505 13.3266C140.324 12.6432 141.62 12.5065 143.462 12.7798L142.779 13.1899C142.711 13.1899 142.643 13.1899 142.575 13.2582C140.938 13.2582 139.505 13.5999 139.3 15.4451C139.164 15.4451 139.096 15.5818 139.096 15.7185C139.096 15.8552 139.164 15.9235 139.232 15.9235L139.028 17.632C138.686 17.222 138.482 16.6752 138.482 16.1285ZM141.62 19.8872C141.347 19.7505 141.142 19.5455 140.869 19.4088C140.801 19.3405 140.665 19.2722 140.597 19.2038C140.119 18.7938 139.573 18.3837 139.232 17.9054L139.369 16.5386C139.641 17.632 140.528 18.3837 141.483 19.2038C142.302 19.8872 143.121 20.5706 143.53 21.5274C143.598 21.7324 143.666 21.8691 143.666 22.0058L142.779 20.9807C142.507 20.5023 142.029 20.1606 141.62 19.8872ZM139.369 22.8259C139.437 22.8942 139.437 22.8942 139.505 22.9625C139.846 23.2359 140.324 23.3726 140.869 23.3726C141.21 23.3726 141.552 23.3042 141.893 23.1676C142.507 22.9625 142.848 22.4842 142.916 22.0058C142.984 21.7324 142.916 21.5274 142.916 21.3907L143.53 22.0741C143.53 22.1425 143.462 22.1425 143.462 22.2108C143.462 22.3475 143.53 22.4158 143.598 22.4158C143.53 22.6892 143.393 22.9625 143.189 23.1676C142.37 23.9877 140.46 24.1243 139.437 23.6459C139.437 23.5776 139.369 23.5093 139.369 23.5093C139.3 23.0992 139.164 22.7575 139.096 22.4842C139.232 22.6208 139.3 22.6892 139.369 22.8259ZM138.209 23.851L138.55 20.844C138.55 20.9123 138.618 21.049 138.618 21.1174C138.686 21.254 138.686 21.4591 138.755 21.5957C138.891 22.2108 139.096 22.8942 139.232 23.5093C139.232 23.5093 139.232 23.5093 139.164 23.5776L138.209 23.7826C138.277 23.851 138.209 23.851 138.209 23.851ZM141.074 24.6027C139.846 24.6027 138.959 24.1927 138.482 23.9876L139.232 23.7826C139.232 23.7826 139.232 23.7826 139.3 23.7826C139.369 23.7826 139.437 23.7826 139.437 23.7826C139.846 23.9876 140.392 24.056 140.938 24.056C141.824 24.056 142.779 23.7826 143.393 23.2359C143.598 23.0309 143.803 22.7575 143.871 22.4158C144.007 22.4158 144.144 22.2791 144.076 22.1425C144.076 22.0058 144.007 21.9374 143.871 21.8691V19.8189C144.417 20.2973 144.758 20.844 144.758 21.5274C144.826 23.7143 143.666 24.6027 141.074 24.6027Z" fill="#FCFCFC"/>
<path d="M136.64 12.3015L136.572 12.3698H132.479C132.479 12.3015 132.411 12.3015 132.411 12.2331C132.274 12.0964 132.069 12.0964 131.933 12.2331C131.797 12.3698 131.797 12.5748 131.933 12.7115C132.001 12.7799 132.138 12.7799 132.206 12.7799L133.229 13.5316C133.229 13.6683 133.229 13.805 133.366 13.8733C133.434 13.9416 133.502 13.9416 133.502 13.9416C133.502 14.5567 133.502 15.1718 133.502 15.7185C133.502 16.6069 133.502 17.427 133.502 18.1787C133.434 18.1787 133.366 18.2471 133.297 18.3154C133.161 18.4521 133.161 18.6571 133.297 18.7938C133.366 18.8621 133.434 18.8621 133.434 18.8621C133.366 20.9123 133.229 22.1425 132.615 22.6892C132.411 22.8942 132.069 23.0992 131.66 23.0992C131.66 23.0309 131.592 23.0309 131.592 23.0309C131.455 22.8942 131.251 22.8942 131.114 23.0309C131.114 23.0309 131.114 23.0992 131.046 23.0992C130.978 23.0992 130.978 23.0992 130.91 23.0992C130.637 23.0309 130.159 22.9626 129.75 22.7575C129.545 22.6209 129.341 22.4842 129.136 22.2792C128.931 22.0741 128.795 21.8008 128.727 21.4591C128.522 20.844 128.454 20.1606 128.386 19.4089C128.386 18.6571 128.386 17.9737 128.386 17.2903C128.386 16.6069 128.454 15.9918 128.454 15.3768C128.454 14.8301 128.454 14.3517 128.454 14.01C128.454 13.9416 128.454 13.9416 128.454 13.8733C128.522 13.805 128.522 13.805 128.59 13.7366C128.59 13.6683 128.659 13.5999 128.59 13.5316L129.477 12.7799C129.614 12.7799 129.75 12.7799 129.818 12.6432C129.955 12.5065 129.955 12.3015 129.818 12.1648C129.682 12.0281 129.477 12.0281 129.341 12.1648L129.204 12.2331H124.702L124.634 12.1648C124.497 12.0281 124.293 12.0281 124.156 12.1648C124.02 12.3015 124.02 12.5065 124.156 12.6432C124.293 12.7799 124.429 12.7799 124.565 12.7115L125.384 13.4633C125.316 13.5999 125.384 13.7366 125.521 13.805C125.589 13.805 125.589 13.8733 125.657 13.8733V14.01H125.589C125.179 14.01 124.907 14.3517 124.907 14.6934C124.907 15.0351 125.248 15.3768 125.589 15.3768H125.657V19.8872C125.657 19.8872 125.657 20.0239 125.657 20.2973C125.657 20.434 125.657 20.5023 125.657 20.639C125.452 20.7073 125.384 20.9123 125.521 21.1174C125.589 21.1857 125.657 21.2541 125.793 21.3224C125.793 21.3907 125.793 21.5274 125.862 21.5958C125.862 21.7324 125.93 21.8008 125.93 21.9375C125.998 22.0741 125.998 22.1425 126.066 22.2792C126.134 22.4158 126.134 22.4842 126.203 22.6209C126.339 22.8259 126.476 23.0992 126.612 23.3043C126.68 23.3726 126.68 23.4409 126.748 23.4409L126.885 23.5776L127.021 23.7143C127.09 23.7826 127.158 23.7826 127.158 23.851L127.294 23.9877C127.362 24.056 127.431 24.056 127.499 24.1243C127.635 24.1927 127.772 24.261 127.84 24.3294C127.976 24.3977 128.113 24.466 128.249 24.466C128.317 24.466 128.386 24.5344 128.454 24.5344C128.522 24.5344 128.59 24.6027 128.659 24.6027C128.795 24.6711 128.931 24.6711 129 24.7394C129.136 24.8077 129.273 24.8077 129.341 24.8077C129.477 24.8077 129.545 24.8761 129.682 24.8761C129.818 24.8761 129.886 24.8761 130.023 24.9444C130.228 24.9444 130.432 25.0128 130.569 25.0128C130.705 25.0128 130.842 25.0128 130.978 25.0128C131.183 25.0128 131.251 25.0128 131.319 25.0128C133.297 25.0128 135.617 23.9877 135.617 19.0672V13.805L135.685 13.7366C135.753 13.5999 135.821 13.5316 135.821 13.3949L136.708 12.6432C136.776 12.6432 136.913 12.5748 136.981 12.5065C137.118 12.3698 137.118 12.1648 136.981 12.0281C136.981 12.1648 136.776 12.1648 136.64 12.3015ZM132.956 23.0309C133.57 22.3475 133.775 21.1174 133.843 18.9305L134.525 19.5455V19.6139C134.525 19.6822 134.593 19.7506 134.662 19.8189C134.525 21.3907 134.184 22.4842 133.502 23.0992C133.366 23.2359 133.161 23.3726 132.956 23.5093C132.888 23.4409 132.82 23.4409 132.752 23.4409C132.683 23.4409 132.615 23.5093 132.547 23.5776L132.069 23.4409C132.411 23.3726 132.683 23.2359 132.956 23.0309ZM134.662 18.3838C134.662 18.7938 134.662 19.1355 134.662 19.4772L133.98 18.8621C134.048 18.7255 134.048 18.5204 133.911 18.4521C133.911 18.3838 133.911 18.2471 133.911 18.1787L134.73 14.6934C134.73 15.5818 134.73 16.3335 134.73 17.0169C134.662 17.427 134.593 17.9054 134.662 18.3838ZM133.843 17.3587C133.843 16.8803 133.843 16.4019 133.843 15.8552C133.843 15.3084 133.843 14.6934 133.843 14.01C133.843 14.01 133.911 14.01 133.911 13.9416L133.98 13.8733L134.593 14.0783C134.593 14.0783 134.593 14.1467 134.662 14.1467L133.843 17.3587ZM128.863 22.6209C129.068 22.8942 129.341 23.0992 129.614 23.2359C129.886 23.3726 130.159 23.4409 130.364 23.5093C130.569 23.5776 130.773 23.5776 130.978 23.5776C131.046 23.5776 131.114 23.5776 131.114 23.5776C131.114 23.646 131.183 23.646 131.183 23.7143C131.319 23.851 131.524 23.851 131.66 23.7143L131.728 23.646L132.479 23.851C132.138 23.9877 131.728 24.056 131.251 24.056C128.113 24.056 127.021 21.9375 127.021 19.8872C127.021 18.1104 127.09 14.8984 127.09 14.1467L127.158 14.0783L127.84 13.8733C127.84 13.9416 127.908 14.01 127.976 14.0783C127.976 14.1467 127.976 14.1467 127.976 14.215C127.976 14.5567 127.976 14.9667 127.976 15.5135C127.976 16.0602 127.908 16.6752 127.908 17.427C127.908 18.1104 127.908 18.8621 127.908 19.6139C127.976 20.3656 128.045 21.1174 128.317 21.8008C128.454 22.0741 128.59 22.4158 128.863 22.6209ZM124.975 12.6432H129L128.249 13.2582C128.113 13.2582 127.908 13.3266 127.84 13.5316C127.84 13.5999 127.84 13.5999 127.84 13.6683L127.09 13.8733C127.09 13.8733 127.09 13.8733 127.021 13.805C126.953 13.805 126.885 13.805 126.817 13.805L126.134 13.5999C126.134 13.5316 126.066 13.3949 125.998 13.3949C125.93 13.3266 125.793 13.3266 125.725 13.3266L124.975 12.6432ZM125.998 15.4451C126.203 15.3084 126.339 15.1034 126.339 14.8301C126.339 14.5567 126.203 14.3517 125.998 14.215V14.01C126.066 14.01 126.066 13.9416 126.066 13.9416C126.066 13.9416 126.134 13.8733 126.134 13.805L126.817 14.01C126.817 14.0783 126.817 14.0783 126.885 14.0783L125.998 19.8872V15.4451V15.4451ZM135.207 19.3405C135.207 22.8942 133.98 24.6711 131.524 24.6711C131.524 24.6711 131.387 24.6711 131.183 24.6711C131.046 24.6711 130.91 24.6711 130.773 24.6711C130.637 24.6711 130.432 24.6711 130.228 24.6027C130.159 24.6027 130.023 24.6027 129.955 24.6027C129.818 24.6027 129.75 24.5344 129.614 24.5344C129.477 24.5344 129.409 24.5344 129.273 24.466C129.136 24.466 129.068 24.3977 128.931 24.3977C128.863 24.3977 128.795 24.3977 128.727 24.3294C128.659 24.3294 128.59 24.261 128.522 24.261C128.386 24.1927 128.317 24.1927 128.181 24.1243C128.045 24.056 127.976 23.9877 127.84 23.9193C127.772 23.9193 127.703 23.851 127.703 23.851L127.567 23.7143C127.499 23.646 127.431 23.646 127.431 23.5776L127.294 23.4409L127.158 23.3043C127.09 23.2359 127.09 23.2359 127.021 23.1676C126.885 22.9626 126.748 22.7575 126.612 22.5525C126.544 22.4158 126.544 22.3475 126.476 22.2108C126.407 22.0741 126.407 22.0058 126.339 21.8691C126.271 21.7324 126.271 21.6641 126.271 21.5274C126.271 21.4591 126.203 21.3224 126.203 21.2541C126.339 21.1174 126.339 20.9807 126.271 20.844C126.203 20.7757 126.203 20.7073 126.134 20.7073C126.134 20.639 126.134 20.639 126.134 20.5706L126.885 15.0351C126.885 16.3335 126.817 18.4521 126.817 19.8189C126.817 21.8691 127.976 24.1243 131.183 24.1243C131.66 24.1243 132.138 24.056 132.479 23.9193C132.547 23.9877 132.615 23.9877 132.683 23.9877C132.82 23.9877 132.956 23.851 132.956 23.7143C133.161 23.5776 133.366 23.4409 133.57 23.2359C134.252 22.5525 134.593 21.4591 134.73 19.8189C134.866 19.8189 134.935 19.6822 134.935 19.5455C134.935 19.4089 134.866 19.3405 134.73 19.3405C134.73 18.9988 134.73 18.6571 134.73 18.3154C134.73 17.837 134.73 17.427 134.73 16.8803C134.73 16.0602 134.73 15.1034 134.73 14.0783L134.798 14.01L135.139 13.8733C135.139 13.9416 135.207 13.9416 135.207 14.01V19.3405V19.3405ZM135.549 13.2582C135.412 13.2582 135.276 13.3266 135.207 13.3949C135.139 13.4633 135.071 13.5999 135.071 13.7366L134.73 13.8733C134.73 13.8733 134.73 13.8733 134.662 13.805C134.593 13.805 134.525 13.805 134.457 13.8733L133.843 13.6683C133.843 13.5999 133.775 13.4633 133.707 13.3949C133.638 13.3266 133.502 13.2582 133.366 13.3266L132.342 12.5748H136.094L135.549 13.2582Z" fill="#FCFCFC"/>
<path d="M75.7217 18.3154C75.7217 18.2471 75.7217 18.1104 75.7217 17.9054C75.7217 17.7687 75.7217 17.632 75.6535 17.427C75.6535 17.222 75.5853 17.0169 75.5171 16.8119C75.5171 16.6752 75.4489 16.6069 75.4489 16.4702C75.3807 16.3335 75.3807 16.1969 75.3124 16.1285C75.3124 16.0602 75.2442 15.9918 75.2442 15.9235C75.2442 15.8552 75.176 15.7868 75.176 15.7185C75.1078 15.5818 75.0396 15.4451 74.9714 15.3084C74.9031 15.1718 74.8349 15.0351 74.7667 14.9667C74.6985 14.8301 74.562 14.6934 74.4938 14.625C74.2892 14.42 74.0845 14.1467 73.8799 14.01C73.6752 13.8733 73.4023 13.6683 73.1295 13.4633C72.8566 13.3266 72.6519 13.1899 72.3791 13.0532C71.9016 12.8482 71.3558 12.6432 70.9465 12.5748C70.7419 12.5065 70.5372 12.5065 70.3325 12.4381C70.1279 12.4381 69.9915 12.3698 69.855 12.3698C69.6504 12.3698 69.5139 12.3698 69.4457 12.3698L63.2379 12.4381C63.2379 12.3698 63.1697 12.3015 63.1015 12.2331C62.965 12.0964 62.7604 12.0964 62.6239 12.2331C62.4875 12.3698 62.4875 12.5748 62.6239 12.7115C62.6922 12.7798 62.8286 12.7798 62.8968 12.7798C62.8968 12.7798 62.8968 12.7798 62.965 12.7798C63.1697 12.9165 63.3743 13.0532 63.579 13.1899C63.7836 13.3266 63.9883 13.5316 64.193 13.6683C64.193 13.805 64.193 13.9416 64.3294 14.01C64.3976 14.0783 64.4658 14.0783 64.534 14.0783V18.5204V20.9123V22.8942C64.4658 22.8942 64.3976 22.9626 64.3976 23.0309C64.2612 23.1676 64.2612 23.3043 64.3294 23.4409L63.2379 24.3977C63.0333 24.261 62.7604 24.261 62.6239 24.466C62.4875 24.6711 62.4875 24.9444 62.6922 25.0811C62.8968 25.2178 63.1697 25.2178 63.3061 25.0128H68.1496C69.4457 25.0128 71.2876 24.9444 72.8566 24.056C74.4256 23.1676 75.3807 21.6641 75.6535 19.6139C75.9946 19.5455 76.2675 19.2722 76.2675 18.9305C76.2675 18.6571 76.0628 18.3838 75.7217 18.3154ZM73.6752 22.8259C72.2426 24.3294 69.9915 24.6027 68.0814 24.6027H63.4426L64.4658 23.7143C64.6023 23.7826 64.8069 23.7826 64.8751 23.646L64.9433 23.5776L65.6937 24.056C65.6937 24.1243 65.6937 24.1927 65.762 24.1927C65.8302 24.1927 65.8984 24.1927 65.9666 24.1243C66.0348 24.1243 66.103 24.1243 66.1713 24.1243C66.6488 24.1927 67.4674 24.3294 68.4225 24.3294C69.855 24.3294 71.5605 24.056 72.7884 22.9626C73.1977 22.5525 73.607 22.1425 73.8799 21.5958L73.6752 22.8259ZM64.8751 13.805L65.762 13.3266L64.7387 21.9375V20.9807V18.5888V14.0783L64.8069 14.01C64.8751 14.01 64.9433 13.8733 64.8751 13.805ZM65.762 14.42V23.7826L64.9433 23.3043C64.9433 23.2359 64.8751 23.0992 64.8069 23.0309C64.7387 23.0309 64.7387 22.9626 64.6705 22.9626L65.762 14.42ZM73.8116 21.1174L72.8566 21.8008C73.3341 21.049 73.607 20.0239 73.607 18.7255H73.4706H73.607C73.607 18.5204 73.607 18.3154 73.607 18.1104C73.607 17.9054 73.607 17.7004 73.5388 17.4953C73.4706 17.2903 73.4706 17.0853 73.4023 16.8803C73.4023 16.8119 73.3341 16.6752 73.3341 16.6069L73.1977 16.3335C73.1977 16.2652 73.1295 16.1285 73.0613 16.0602C72.993 15.9918 72.993 15.8552 72.9248 15.7868C72.8566 15.7185 72.7884 15.5818 72.7884 15.5135L72.5837 15.2401C72.4473 15.1034 72.3109 14.8984 72.1744 14.7617L72.038 14.625L71.9016 14.5567C71.8333 14.4884 71.7651 14.42 71.6287 14.3517C71.424 14.215 71.2876 14.1467 71.0829 14.01L70.8101 13.8733L70.6054 13.805C70.6054 13.5999 70.469 13.4633 70.3325 13.3266C71.0829 13.5316 71.8333 13.805 72.4473 14.2833C73.6752 15.1718 74.2892 16.6069 74.2892 18.4521C74.2892 19.4089 74.1527 20.2289 73.9481 20.9123C73.8117 20.9123 73.7434 21.049 73.7434 21.1174C73.8116 21.1174 73.8116 21.1174 73.8116 21.1174ZM69.2411 13.9416C69.3093 14.2833 69.5822 14.5567 69.9232 14.5567C70.1961 14.5567 70.4008 14.42 70.5372 14.215L70.6736 14.2833L70.9465 14.3517C71.1512 14.42 71.2876 14.5567 71.4923 14.625C71.5605 14.6934 71.6287 14.7617 71.6969 14.7617L71.8333 14.8301L71.9698 14.8984C72.1062 15.0351 72.2426 15.1718 72.3791 15.3084L72.5837 15.5135C72.652 15.5818 72.7202 15.6501 72.7202 15.7868C72.7884 15.8552 72.7884 15.9918 72.8566 16.0602C72.9248 16.1285 72.9248 16.2652 72.993 16.3335L73.1295 16.6069C73.1977 16.6752 73.1977 16.8119 73.1977 16.8803C73.2659 17.0853 73.2659 17.2903 73.3341 17.4953C73.4023 17.7004 73.4023 17.9054 73.4023 18.1104C73.4023 18.3154 73.4023 18.5204 73.4023 18.7255C73.4023 20.5023 72.8566 21.8008 71.9016 22.4842C70.469 23.5093 68.3542 23.2359 67.3992 22.9626C67.3992 22.8259 67.331 22.6209 67.2627 22.5525L67.1945 22.4842V14.4884V14.215C67.1945 14.215 67.2627 14.215 67.2627 14.1467C67.331 14.0783 67.331 14.01 67.3992 13.9416C67.4674 13.9416 67.5356 13.9416 67.6038 13.9416C67.8085 13.9416 68.0131 13.8733 68.2178 13.8733C68.4225 13.8733 68.6271 13.8733 68.8318 13.8733C68.9 13.8733 69.0364 13.9416 69.2411 13.9416ZM67.2627 23.3043C67.6038 23.3726 68.0814 23.4409 68.6271 23.5093C68.8318 23.5093 69.0364 23.5093 69.2411 23.5093C70.3325 23.5093 71.2876 23.2359 72.038 22.7575C72.2426 22.6209 72.3791 22.4842 72.5155 22.3475L73.8116 21.3224C73.5388 21.9375 73.1977 22.4158 72.7202 22.8259C70.6736 24.6027 67.331 24.1243 66.2395 23.9193C66.1713 23.9193 66.1031 23.9193 66.1031 23.9193L66.717 23.4409C66.8534 23.5093 67.1263 23.5093 67.2627 23.3043ZM69.3775 13.4633C69.3775 13.4633 69.3093 13.4633 69.3775 13.4633C69.1046 13.3949 68.9 13.3949 68.6953 13.3949C68.4907 13.3949 68.286 13.3949 68.0814 13.3949C67.8767 13.3949 67.6721 13.3949 67.4674 13.4633C67.331 13.4633 67.1945 13.4633 67.0581 13.5316C66.9217 13.4633 66.7852 13.5316 66.6488 13.5999L66.1031 13.2582C66.7852 13.1215 68.286 12.9849 69.7868 13.1899C69.5822 13.1899 69.4457 13.3266 69.3775 13.4633ZM66.4441 13.6683C66.3077 13.8733 66.3077 14.1467 66.5124 14.2833V14.5567V22.7575C66.3759 22.9626 66.3759 23.2359 66.5124 23.4409L65.8984 23.9193V13.3266L66.4441 13.6683ZM73.8799 22.5525L74.0845 21.254C74.221 21.254 74.2892 21.1174 74.2892 21.049C74.2892 20.9807 74.221 20.9123 74.221 20.844C74.4938 20.0923 74.6303 19.2722 74.6303 18.3154C74.6303 16.4019 74.0163 14.9667 72.7202 14.0783C70.6054 12.5065 67.1945 12.7798 66.1031 13.0532L66.0348 12.9849C65.9666 12.9165 65.8302 12.9849 65.8302 13.0532V13.1216L64.8751 13.6683L64.8069 13.5999C64.7387 13.5316 64.6023 13.5316 64.534 13.5316C64.3976 13.3949 64.1247 13.2582 63.9201 13.0532C63.7154 12.9165 63.579 12.7115 63.3743 12.5748L69.3775 12.6432C69.3775 12.6432 69.5139 12.6432 69.7868 12.6432C69.9232 12.6432 70.0597 12.7115 70.1961 12.7115C70.4008 12.7798 70.5372 12.7798 70.7419 12.8482C71.1512 12.9849 71.6287 13.1216 72.1062 13.3949C72.3109 13.5316 72.5837 13.6683 72.7884 13.805C72.993 13.9416 73.2659 14.1467 73.4706 14.3517C73.6752 14.5567 73.8799 14.7617 74.0163 14.9667C74.0845 15.1034 74.1527 15.1718 74.221 15.3084C74.2892 15.4451 74.3574 15.5135 74.4256 15.6501C74.4938 15.7868 74.562 15.8552 74.562 15.9918C74.562 16.0602 74.6303 16.1285 74.6303 16.1969C74.6303 16.2652 74.6985 16.3335 74.6985 16.4019C74.7667 16.5386 74.7667 16.6069 74.8349 16.7436C74.8349 16.8803 74.9031 16.9486 74.9031 17.0853C74.9714 17.2903 74.9714 17.4953 74.9714 17.632C74.9714 17.7687 74.9714 17.9737 74.9714 18.0421C74.9714 18.3154 74.9714 18.4521 74.9714 18.4521V18.5204C74.7667 18.6571 74.6985 18.8621 74.6985 19.0672C74.6985 19.2722 74.7667 19.4772 74.9031 19.6139C74.9031 20.844 74.4938 21.8691 73.8799 22.5525Z" fill="#FCFCFC"/>
<path d="M74.4254 31.5745L71.9014 38.9552H71.0827L68.8998 32.5996L66.7168 38.9552H65.8982L63.3742 31.5061H64.1928L66.3075 37.9301L68.4905 31.5061H69.2409L71.4238 37.9301L73.6068 31.5061H74.4254V31.5745Z" fill="#FCFCFC"/>
<path d="M80.0876 36.4256H75.4488C75.517 36.9724 75.7216 37.4507 76.1309 37.8608C76.5402 38.2708 77.0178 38.4075 77.6317 38.4075C77.9728 38.4075 78.3139 38.3392 78.5868 38.2025C78.8596 38.0658 79.1325 37.9291 79.3372 37.6558L79.7465 38.1342C79.4736 38.4075 79.2007 38.6809 78.7914 38.8176C78.4503 38.9542 78.041 39.0226 77.5635 39.0226C77.0178 39.0226 76.472 38.8859 76.0627 38.6809C75.6534 38.4075 75.2441 38.0658 75.0395 37.6558C74.8348 37.2457 74.6984 36.7673 74.6984 36.2206C74.6984 35.6739 74.8348 35.1955 75.0395 34.7855C75.2441 34.3754 75.5852 34.0337 75.9945 33.7604C76.4038 33.487 76.8813 33.4187 77.3589 33.4187C77.9046 33.4187 78.3139 33.5554 78.7232 33.7604C79.1325 34.0337 79.4736 34.3071 79.6783 34.7855C79.8829 35.2639 80.0193 35.6739 80.0193 36.289L80.0876 36.4256ZM76.0627 34.5121C75.7216 34.8538 75.517 35.3322 75.4488 35.8789H79.4054C79.3372 35.3322 79.1325 34.8538 78.7914 34.5121C78.4503 34.1704 77.9728 33.9654 77.4271 33.9654C76.8813 33.9654 76.4038 34.1704 76.0627 34.5121Z" fill="#FCFCFC"/>
<path d="M85.9544 33.6921C86.3637 33.8971 86.7048 34.2388 86.9777 34.7172C87.2505 35.1272 87.3187 35.6739 87.3187 36.2206C87.3187 36.7674 87.1823 37.2458 86.9777 37.7241C86.7048 38.1342 86.4319 38.4759 85.9544 38.7492C85.5451 39.0226 85.0676 39.0909 84.5218 39.0909C84.0443 39.0909 83.635 39.0226 83.2939 38.8176C82.9528 38.6126 82.6117 38.3392 82.4071 37.9292V38.9543H81.6567V31.0951H82.4071V34.4438C82.6117 34.1021 82.9528 33.8287 83.2939 33.6237C83.635 33.4187 84.0443 33.3504 84.5218 33.3504C85.0676 33.3504 85.5451 33.487 85.9544 33.6921ZM85.5451 38.0658C85.8862 37.8608 86.0908 37.6558 86.2955 37.3141C86.5001 36.9724 86.5684 36.6307 86.5684 36.1523C86.5684 35.6739 86.5001 35.3322 86.2955 34.9905C86.0908 34.6488 85.8862 34.3755 85.5451 34.2388C85.204 34.0338 84.8629 33.9654 84.4536 33.9654C84.0443 33.9654 83.7032 34.0338 83.3621 34.2388C83.021 34.4438 82.8164 34.6488 82.6117 34.9905C82.4071 35.3322 82.3389 35.6739 82.3389 36.1523C82.3389 36.6307 82.4071 36.9724 82.6117 37.3141C82.8164 37.6558 83.021 37.9292 83.3621 38.0658C83.7032 38.2709 84.0443 38.3392 84.4536 38.3392C84.8629 38.3392 85.204 38.2709 85.5451 38.0658Z" fill="#FCFCFC"/>
<path d="M101.985 31.5735L99.4614 38.9543H98.6428L96.4598 32.5986L94.2769 38.9543H93.4583L90.9342 31.5052H91.7528L93.8676 37.9292L96.0505 31.5052H96.8009L98.9839 37.9292L101.167 31.5052H101.985V31.5735Z" fill="#FCFCFC"/>
<path d="M106.488 33.8971C106.897 34.2388 107.102 34.7855 107.102 35.5373V38.9543H106.352V38.0659C106.215 38.3392 105.942 38.6126 105.601 38.7493C105.26 38.8859 104.851 39.0226 104.441 39.0226C103.827 39.0226 103.35 38.8859 102.941 38.5442C102.531 38.2025 102.395 37.8608 102.395 37.3825C102.395 36.9041 102.6 36.494 102.941 36.2207C103.282 35.9473 103.827 35.8106 104.578 35.8106H106.352V35.4689C106.352 34.9905 106.215 34.6488 105.942 34.3755C105.669 34.1021 105.26 33.9654 104.783 33.9654C104.441 33.9654 104.1 34.0338 103.759 34.1705C103.418 34.3071 103.145 34.4438 102.941 34.6488L102.6 34.1021C102.872 33.8288 103.214 33.6921 103.623 33.5554C104.032 33.4187 104.441 33.3504 104.851 33.3504C105.533 33.3504 106.079 33.5554 106.488 33.8971ZM105.601 38.1342C105.874 37.9292 106.147 37.6558 106.283 37.3141V36.4257H104.51C103.555 36.4257 103.077 36.7674 103.077 37.4508C103.077 37.7925 103.214 38.0659 103.418 38.2025C103.691 38.4076 104.032 38.4759 104.441 38.4759C104.919 38.4076 105.328 38.3392 105.601 38.1342Z" fill="#FCFCFC"/>
<path d="M109.08 31.0951H109.83V38.9543H109.08V31.0951Z" fill="#FCFCFC"/>
<path d="M111.945 31.0951H112.695V38.9543H111.945V31.0951Z" fill="#FCFCFC"/>
<path d="M119.654 36.4256H115.015C115.083 36.9724 115.288 37.4507 115.697 37.8608C116.106 38.2708 116.584 38.4075 117.198 38.4075C117.539 38.4075 117.88 38.3392 118.153 38.2025C118.426 38.0658 118.699 37.9291 118.903 37.6558L119.313 38.1342C119.04 38.4075 118.767 38.6809 118.358 38.8176C118.017 38.9542 117.607 39.0226 117.13 39.0226C116.584 39.0226 116.038 38.8859 115.629 38.6809C115.22 38.4075 114.81 38.0658 114.606 37.6558C114.401 37.2457 114.265 36.7673 114.265 36.2206C114.265 35.6739 114.401 35.1955 114.606 34.7855C114.81 34.3754 115.151 34.0337 115.561 33.7604C115.97 33.487 116.447 33.4187 116.925 33.4187C117.471 33.4187 117.88 33.5554 118.289 33.7604C118.699 34.0337 119.04 34.3071 119.244 34.7855C119.449 35.2639 119.586 35.6739 119.586 36.289L119.654 36.4256ZM115.629 34.5121C115.288 34.8538 115.083 35.3322 115.015 35.8789H118.972C118.903 35.3322 118.699 34.8538 118.358 34.5121C118.017 34.1704 117.539 33.9654 116.993 33.9654C116.448 33.9654 115.97 34.1704 115.629 34.5121Z" fill="#FCFCFC"/>
<path d="M124.156 38.6126C124.02 38.7492 123.815 38.8176 123.61 38.8859C123.406 38.9543 123.201 38.9543 122.928 38.9543C122.382 38.9543 121.973 38.8176 121.7 38.5442C121.427 38.2709 121.291 37.8608 121.291 37.3141V33.9654H120.268V33.3504H121.291V32.1202H122.041V33.3504H123.747V33.9654H122.11V37.3141C122.11 37.6558 122.178 37.9292 122.382 38.0658C122.519 38.2709 122.792 38.3392 123.065 38.3392C123.201 38.3392 123.337 38.3392 123.542 38.2709C123.747 38.2025 123.815 38.1342 123.951 38.0658L124.156 38.6126Z" fill="#FCFCFC"/>
</g>
<defs>
<clipPath id="clip0">
<rect width="173" height="49" fill="white" transform="translate(0 0.000244141)"/>
</clipPath>
</defs>
</svg>
