<svg width="171" height="50" viewBox="0 0 171 50" fill="none" xmlns="http://www.w3.org/2000/svg">
<path d="M164.066 49.016H7.17975C3.72982 49.016 0.904297 46.2573 0.904297 42.889V6.1271C0.904297 2.75879 3.72982 0.000118236 7.17975 0.000118236H164.066C167.516 0.000118236 170.341 2.75879 170.341 6.1271V42.889C170.341 46.2573 167.516 49.016 164.066 49.016Z" fill="black"/>
<path d="M60.4175 12.5526C60.4175 13.5758 60.1037 14.3953 59.4856 15.0065C58.7749 15.731 57.8493 16.0955 56.715 16.0955C55.6309 16.0955 54.7052 15.7248 53.9459 14.9942C53.185 14.2528 52.8054 13.343 52.8054 12.2539C52.8054 11.1648 53.185 10.255 53.9459 9.51975C54.7052 8.78298 55.6309 8.41229 56.715 8.41229C57.2547 8.41229 57.7692 8.52105 58.2603 8.72324C58.7498 8.92696 59.1483 9.20267 59.4369 9.54272L58.7812 10.1891C58.2775 9.60859 57.592 9.32215 56.715 9.32215C55.9243 9.32215 55.2387 9.59174 54.6566 10.1355C54.0808 10.6808 53.7922 11.3869 53.7922 12.2539C53.7922 13.1209 54.0808 13.8331 54.6566 14.3784C55.2387 14.9161 55.9243 15.1918 56.715 15.1918C57.5543 15.1918 58.2603 14.9161 58.8172 14.3723C59.1844 14.0124 59.393 13.5161 59.4479 12.8819H56.715V11.9966H60.361C60.4049 12.188 60.4175 12.3734 60.4175 12.5526V12.5526Z" fill="white" stroke="white" stroke-width="0.111939" stroke-miterlimit="10"/>
<path d="M66.2021 9.48307H62.7773V11.8113H65.8648V12.6967H62.7773V15.0249H66.2021V15.9271H61.8077V8.58087H66.2021V9.48307Z" fill="white" stroke="white" stroke-width="0.111939" stroke-miterlimit="10"/>
<path d="M70.2844 15.9271H69.3148V9.48307H67.2141V8.58087H72.3867V9.48307H70.2844V15.9271V15.9271Z" fill="white" stroke="white" stroke-width="0.111939" stroke-miterlimit="10"/>
<path d="M76.1297 15.9271V8.58087H77.0977V15.9271H76.1297Z" fill="white" stroke="white" stroke-width="0.111939" stroke-miterlimit="10"/>
<path d="M81.388 15.9271H80.4263V9.48307H78.3177V8.58087H83.4966V9.48307H81.388V15.9271Z" fill="white" stroke="white" stroke-width="0.111939" stroke-miterlimit="10"/>
<path d="M93.2899 14.982C92.5478 15.7248 91.6284 16.0955 90.5318 16.0955C89.4289 16.0955 88.5096 15.7248 87.7675 14.982C87.027 14.2406 86.6583 13.3307 86.6583 12.2539C86.6583 11.1771 87.027 10.2672 87.7675 9.52587C88.5096 8.78298 89.4289 8.41229 90.5318 8.41229C91.6222 8.41229 92.5415 8.78297 93.2836 9.532C94.0304 10.2795 94.3991 11.1832 94.3991 12.2539C94.3991 13.3307 94.0304 14.2406 93.2899 14.982ZM88.4845 14.3662C89.043 14.9161 89.7223 15.1918 90.5318 15.1918C91.3351 15.1918 92.0207 14.9161 92.5729 14.3662C93.1299 13.8163 93.4122 13.1102 93.4122 12.2539C93.4122 11.3977 93.1299 10.6915 92.5729 10.1416C92.0207 9.59174 91.3351 9.31602 90.5318 9.31602C89.7223 9.31602 89.043 9.59174 88.4845 10.1416C87.9275 10.6915 87.6451 11.3977 87.6451 12.2539C87.6451 13.1102 87.9275 13.8163 88.4845 14.3662V14.3662Z" fill="white" stroke="white" stroke-width="0.111939" stroke-miterlimit="10"/>
<path d="M95.7593 15.9271V8.58087H96.936L100.595 14.2943H100.637L100.595 12.882V8.58087H101.563V15.9271H100.552L96.721 9.93187H96.6787L96.721 11.3503V15.9271H95.7593V15.9271Z" fill="white" stroke="white" stroke-width="0.111939" stroke-miterlimit="10"/>
<path d="M86.4199 26.6555C83.472 26.6555 81.0638 28.8459 81.0638 31.868C81.0638 34.8656 83.472 37.079 86.4199 37.079C89.3741 37.079 91.7823 34.8656 91.7823 31.868C91.7823 28.8459 89.3741 26.6555 86.4199 26.6555ZM86.4199 35.0265C84.8024 35.0265 83.4108 33.7229 83.4108 31.868C83.4108 29.9885 84.8024 28.708 86.4199 28.708C88.0374 28.708 89.4353 29.9885 89.4353 31.868C89.4353 33.7229 88.0374 35.0265 86.4199 35.0265V35.0265ZM74.7335 26.6555C71.7793 26.6555 69.3774 28.8459 69.3774 31.868C69.3774 34.8656 71.7793 37.079 74.7335 37.079C77.6861 37.079 80.0896 34.8656 80.0896 31.868C80.0896 28.8459 77.6861 26.6555 74.7335 26.6555ZM74.7335 35.0265C73.1144 35.0265 71.7181 33.7229 71.7181 31.868C71.7181 29.9885 73.1144 28.708 74.7335 28.708C76.351 28.708 77.7425 29.9885 77.7425 31.868C77.7425 33.7229 76.351 35.0265 74.7335 35.0265ZM60.8271 28.2531V30.468H66.2444C66.0859 31.7056 65.6623 32.6155 65.0128 33.2496C64.2221 34.0155 62.9905 34.8656 60.8271 34.8656C57.4932 34.8656 54.8827 32.2387 54.8827 28.9837C54.8827 25.7288 57.4932 23.1018 60.8271 23.1018C62.6297 23.1018 63.9413 23.7896 64.9093 24.6811L66.5079 23.1202C65.154 21.858 63.3529 20.8884 60.8271 20.8884C56.2554 20.8884 52.4133 24.5202 52.4133 28.9837C52.4133 33.4472 56.2554 37.079 60.8271 37.079C63.298 37.079 65.154 36.2886 66.613 34.8059C68.1082 33.3461 68.5741 31.2936 68.5741 29.6362C68.5741 29.1216 68.5302 28.6483 68.4517 28.2531H60.8271ZM117.692 29.9702C117.251 28.8045 115.891 26.6555 113.12 26.6555C110.375 26.6555 108.089 28.7677 108.089 31.868C108.089 34.7875 110.351 37.079 113.384 37.079C115.836 37.079 117.251 35.6192 117.833 34.7691L116.013 33.5851C115.406 34.4521 114.579 35.0265 113.384 35.0265C112.196 35.0265 111.344 34.4949 110.798 33.4472L117.938 30.563L117.692 29.9702V29.9702ZM110.413 31.7056C110.351 29.696 112.011 28.6667 113.2 28.6667C114.132 28.6667 114.923 29.1216 115.187 29.7726L110.413 31.7056V31.7056ZM104.609 36.7619H106.956V21.4445H104.609V36.7619ZM100.766 27.8165H100.687C100.16 27.2069 99.1544 26.6555 97.8805 26.6555C95.2071 26.6555 92.7628 28.947 92.7628 31.8849C92.7628 34.8059 95.2071 37.079 97.8805 37.079C99.1544 37.079 100.16 36.523 100.687 35.895H100.766V36.6425C100.766 38.6353 99.6752 39.7059 97.9165 39.7059C96.4826 39.7059 95.5931 38.695 95.2259 37.8449L93.1849 38.6766C93.7732 40.0582 95.3311 41.7585 97.9165 41.7585C100.668 41.7585 102.99 40.1777 102.99 36.3315V26.9725H100.766V27.8165V27.8165ZM98.0813 35.0265C96.4638 35.0265 95.1098 33.7046 95.1098 31.8849C95.1098 30.0483 96.4638 28.708 98.0813 28.708C99.6752 28.708 100.932 30.0483 100.932 31.8849C100.932 33.7046 99.6752 35.0265 98.0813 35.0265V35.0265ZM128.68 21.4445H123.067V36.7619H125.408V30.9581H128.68C131.28 30.9581 133.829 29.1216 133.829 26.2005C133.829 23.281 131.274 21.4445 128.68 21.4445V21.4445ZM128.742 28.8275H125.408V23.5751H128.742C130.489 23.5751 131.487 24.992 131.487 26.2005C131.487 27.3861 130.489 28.8275 128.742 28.8275ZM143.211 26.6264C141.52 26.6264 139.761 27.3555 139.038 28.9715L141.115 29.8216C141.562 28.9715 142.384 28.6958 143.254 28.6958C144.468 28.6958 145.699 29.408 145.718 30.6656V30.8264C145.295 30.5875 144.388 30.2336 143.272 30.2336C141.035 30.2336 138.756 31.4361 138.756 33.6801C138.756 35.7326 140.588 37.0545 142.648 37.0545C144.223 37.0545 145.092 36.3606 145.638 35.5534H145.718V36.7374H147.979V30.8616C147.979 28.1459 145.902 26.6264 143.211 26.6264ZM142.929 35.0203C142.163 35.0203 141.096 34.6497 141.096 33.7229C141.096 32.5374 142.427 32.0824 143.578 32.0824C144.609 32.0824 145.092 32.3045 145.718 32.5971C145.535 34.0155 144.284 35.0203 142.929 35.0203V35.0203ZM156.215 26.9618L153.525 33.6019H153.445L150.663 26.9618H148.139L152.318 36.2411L149.934 41.4047H152.38L158.82 26.9618H156.215V26.9618ZM135.116 36.7619H137.463V21.4445H135.116V36.7619Z" fill="white"/>
<path d="M14.0018 9.23796C13.6331 9.61477 13.4197 10.2014 13.4197 10.9612V38.0608C13.4197 38.8206 13.6331 39.4072 14.0018 39.784L14.0927 39.8668L29.6464 24.6872V24.3287L14.0927 9.14912L14.0018 9.23796Z" fill="url(#paint0_linear)"/>
<path d="M34.8244 29.7495L29.6455 24.6871V24.3286L34.8306 19.2662L34.9467 19.3321L41.0872 22.7433C42.8397 23.7113 42.8397 25.3044 41.0872 26.2785L34.9467 29.6836L34.8244 29.7495V29.7495Z" fill="url(#paint1_linear)"/>
<path d="M34.9471 29.6837L29.646 24.508L14.0013 39.7841C14.5833 40.3814 15.5325 40.4534 16.6119 39.8561L34.9471 29.6837" fill="url(#paint2_linear)"/>
<path d="M34.9471 19.3323L16.6119 9.15993C15.5325 8.56868 14.5833 8.64067 14.0013 9.23805L29.646 24.508L34.9471 19.3323Z" fill="url(#paint3_linear)"/>
<defs>
<linearGradient id="paint0_linear" x1="28.2655" y1="38.343" x2="7.70626" y2="17.2857" gradientUnits="userSpaceOnUse">
<stop stop-color="#00A0FF"/>
<stop offset="0.0066" stop-color="#00A1FF"/>
<stop offset="0.2601" stop-color="#00BEFF"/>
<stop offset="0.5122" stop-color="#00D2FF"/>
<stop offset="0.7604" stop-color="#00DFFF"/>
<stop offset="1" stop-color="#00E3FF"/>
</linearGradient>
<linearGradient id="paint1_linear" x1="43.3692" y1="24.5061" x2="12.9999" y2="24.5061" gradientUnits="userSpaceOnUse">
<stop stop-color="#FFE000"/>
<stop offset="0.4087" stop-color="#FFBD00"/>
<stop offset="0.7754" stop-color="#FFA500"/>
<stop offset="1" stop-color="#FF9C00"/>
</linearGradient>
<linearGradient id="paint2_linear" x1="32.0645" y1="21.6943" x2="4.18456" y2="-6.8612" gradientUnits="userSpaceOnUse">
<stop stop-color="#FF3A44"/>
<stop offset="1" stop-color="#C31162"/>
</linearGradient>
<linearGradient id="paint3_linear" x1="10.0632" y1="48.8001" x2="22.5128" y2="36.0488" gradientUnits="userSpaceOnUse">
<stop stop-color="#32A071"/>
<stop offset="0.0685" stop-color="#2DA771"/>
<stop offset="0.4762" stop-color="#15CF74"/>
<stop offset="0.8009" stop-color="#06E775"/>
<stop offset="1" stop-color="#00F076"/>
</linearGradient>
</defs>
</svg>
