<svg width="61" height="28" viewBox="0 0 61 28" fill="none" xmlns="http://www.w3.org/2000/svg">
  <path d="M32.482 9.9H36.187C37.149 9.9 37.9983 10.095 38.735 10.485C39.4717 10.8663 40.0437 11.4037 40.451 12.097C40.8583 12.7817 41.062 13.566 41.062 14.45C41.062 15.334 40.8583 16.1227 40.451 16.816C40.0437 17.5007 39.4717 18.038 38.735 18.428C37.9983 18.8093 37.149 19 36.187 19H32.482V9.9ZM36.135 18.168C36.9323 18.168 37.63 18.012 38.228 17.7C38.826 17.3793 39.2897 16.9417 39.619 16.387C39.9483 15.8237 40.113 15.178 40.113 14.45C40.113 13.722 39.9483 13.0807 39.619 12.526C39.2897 11.9627 38.826 11.525 38.228 11.213C37.63 10.8923 36.9323 10.732 36.135 10.732H33.444V18.168H36.135ZM46.8882 19.078C45.7096 19.078 44.7909 18.74 44.1322 18.064C43.4736 17.388 43.1442 16.4043 43.1442 15.113V9.9H44.1062V15.074C44.1062 16.1313 44.3446 16.92 44.8212 17.44C45.2979 17.96 45.9869 18.22 46.8882 18.22C47.7982 18.22 48.4916 17.96 48.9682 17.44C49.4449 16.92 49.6832 16.1313 49.6832 15.074V9.9H50.6192V15.113C50.6192 16.4043 50.2899 17.388 49.6312 18.064C48.9812 18.74 48.0669 19.078 46.8882 19.078ZM57.4701 19.078C56.5688 19.078 55.7541 18.8787 55.0261 18.48C54.3068 18.0813 53.7391 17.531 53.3231 16.829C52.9158 16.1183 52.7121 15.3253 52.7121 14.45C52.7121 13.5747 52.9158 12.786 53.3231 12.084C53.7391 11.3733 54.3111 10.8187 55.0391 10.42C55.7671 10.0213 56.5818 9.822 57.4831 9.822C58.1591 9.822 58.7831 9.93467 59.3551 10.16C59.9271 10.3853 60.4125 10.7147 60.8111 11.148L60.2001 11.759C59.4895 11.0397 58.5925 10.68 57.5091 10.68C56.7898 10.68 56.1355 10.8447 55.5461 11.174C54.9568 11.5033 54.4931 11.954 54.1551 12.526C53.8258 13.098 53.6611 13.7393 53.6611 14.45C53.6611 15.1607 53.8258 15.802 54.1551 16.374C54.4931 16.946 54.9568 17.3967 55.5461 17.726C56.1355 18.0553 56.7898 18.22 57.5091 18.22C58.6011 18.22 59.4981 17.856 60.2001 17.128L60.8111 17.739C60.4125 18.1723 59.9228 18.506 59.3421 18.74C58.7701 18.9653 58.1461 19.078 57.4701 19.078Z" fill="#862633"/>
  <path d="M14 28C21.732 28 28 21.732 28 14C28 6.26801 21.732 0 14 0C6.26801 0 0 6.26801 0 14C0 21.732 6.26801 28 14 28Z" fill="white"/>
  <path d="M18.1103 17.909C18.1015 17.9101 18.0926 17.9108 18.0835 17.9108C17.9643 17.9108 17.8672 17.8143 17.8672 17.6956C17.8672 17.6952 17.8672 17.6947 17.8672 17.6942L16.8739 17.1361C16.847 17.1561 16.8138 17.1681 16.7778 17.1681C16.7582 17.1681 16.7395 17.1644 16.7221 17.158L16.5151 17.3736C16.5205 17.3896 16.5236 17.4066 16.5236 17.4244C16.5236 17.4291 16.5233 17.4337 16.5229 17.4384L18.5862 18.762L18.1102 17.909H18.1103Z" fill="#862633"/>
  <path d="M9.75732 18.934L10.3031 20.4163L10.2032 19.6491L9.75732 18.934Z" fill="#862633"/>
  <path d="M16.1938 19.3042C16.1985 19.3105 16.2028 19.3171 16.2067 19.324L18.5257 18.954C18.5251 18.9369 18.5261 18.9197 18.5288 18.9027L16.4473 17.5674L16.525 18.7866C16.5261 18.8029 16.5216 18.8194 16.5124 18.833L16.1938 19.3042Z" fill="#862633"/>
  <path d="M18.4077 15.2796L17.6644 16.6043C17.6769 16.6271 17.6841 16.6532 17.6841 16.6809C17.6841 16.7174 17.6716 16.751 17.6509 16.778L18.0451 17.4843C18.0577 17.4821 18.0706 17.4807 18.0838 17.4807C18.203 17.4807 18.3001 17.5772 18.3001 17.6958C18.3001 17.7514 18.2786 17.8019 18.2437 17.8401L18.6933 18.6458L18.4077 15.2796Z" fill="#862633"/>
  <path d="M19.1066 11.7558C19.1066 11.7392 19.1089 11.7232 19.1125 11.7077L17.7874 10.832C17.76 10.8491 17.7277 10.8591 17.693 10.8591C17.5946 10.8591 17.5146 10.7795 17.5146 10.6816C17.5146 10.6719 17.5155 10.6626 17.517 10.6533L17.0327 10.3333L18.146 12.1033L19.1066 11.7558Z" fill="#862633"/>
  <path fill-rule="evenodd" clip-rule="evenodd" d="M10.9805 17.3132C11.0091 17.3375 11.0449 17.3536 11.0838 17.36L11.356 18.4072C11.3199 18.4375 11.2987 18.4803 11.3022 18.5265C11.3052 18.5651 11.325 18.5995 11.3552 18.6251L10.9837 20.0117L10.356 19.5911L10.6985 17.4263C10.717 17.4069 10.7298 17.3845 10.7367 17.3605L10.9728 17.306C10.9734 17.3066 10.9741 17.3073 10.9747 17.3079C10.9766 17.3097 10.9785 17.3115 10.9805 17.3132ZM11.1974 18.6527C11.1734 18.6167 11.1591 18.5764 11.1559 18.5346C11.1517 18.4797 11.1668 18.4257 11.1984 18.3788L11.0111 17.658L10.9806 19.3052L11.0247 19.2974L11.1974 18.6527Z" fill="#862633"/>
  <path d="M11.2057 8.56067C11.2057 8.62794 11.181 8.69125 11.1362 8.74097L12.0096 10.1497L13.2639 7.39585L13.7397 6.35129L11.1814 8.44909C11.1971 8.48372 11.2057 8.52151 11.2057 8.56067Z" fill="#862633"/>
  <path d="M17.6934 10.504C17.729 10.504 17.7621 10.5145 17.79 10.5325L18.9029 9.75897L18.2417 9.75758C18.2313 9.78491 18.2153 9.8106 18.1932 9.83256C18.1529 9.87264 18.0993 9.89471 18.0424 9.89471C17.9854 9.89471 17.9318 9.87264 17.8915 9.83256C17.8877 9.82872 17.8841 9.82464 17.8806 9.82059L16.9625 10.1031C16.9622 10.1044 16.962 10.1056 16.9619 10.1068L17.6015 10.5296C17.6284 10.5134 17.6598 10.504 17.6934 10.504Z" fill="#862633"/>
  <path d="M10.8953 15.5967L10.7407 16.741L10.9082 16.4247L10.8953 15.5967Z" fill="#862633"/>
  <path d="M10.6903 15.395L9.56104 18.164C9.56693 18.1711 9.57247 18.1784 9.57715 18.1865C9.59911 18.2243 9.60494 18.2684 9.59357 18.3106C9.58921 18.3268 9.58242 18.342 9.57365 18.3558L10.2292 19.4072L10.4884 17.4881C10.4527 17.4827 10.4197 17.4663 10.3936 17.4404C10.3268 17.374 10.3268 17.2659 10.3936 17.1995C10.4259 17.1673 10.4689 17.1496 10.5147 17.1496C10.5179 17.1496 10.521 17.1499 10.5242 17.1501L10.5374 17.1251L10.7743 15.3711C10.7491 15.3861 10.7204 15.3944 10.6903 15.395Z" fill="#862633"/>
  <path fill-rule="evenodd" clip-rule="evenodd" d="M21.2915 12.1951C21.291 12.2008 21.2907 12.2065 21.2907 12.2123C21.2907 12.2936 21.3459 12.3621 21.4209 12.3831L21.7113 13.9245C21.7006 13.9287 21.6902 13.9335 21.6801 13.939L19.5203 11.8444C19.5323 11.8177 19.5391 11.7882 19.5391 11.7571C19.5391 11.679 19.4969 11.6107 19.4341 11.573L19.5436 10.9948C19.5747 10.9895 19.6035 10.9779 19.6286 10.9609L21.2915 12.1951ZM21.2864 13.3833L21.5257 13.6154L21.3098 12.4691C21.2353 12.4232 21.1834 12.3467 21.1693 12.2597L21.0934 12.2034L20.9758 12.6736L21.2864 13.3833Z" fill="#862633"/>
  <path fill-rule="evenodd" clip-rule="evenodd" d="M11.4695 18.6661C11.4765 18.6649 11.4833 18.6635 11.49 18.6619L12.0592 18.9996C12.0507 19.0202 12.047 19.0419 12.049 19.064C12.0507 19.0831 12.0567 19.1014 12.0659 19.1185L11.0659 19.9226L11.4695 18.6661ZM11.4759 19.2076L11.7762 19.1631L11.875 19.0837C11.8744 19.0798 11.8739 19.0759 11.8736 19.0721C11.873 19.0651 11.8726 19.0582 11.8727 19.0513L11.5815 18.8786L11.4759 19.2076Z" fill="#862633"/>
  <path d="M17.5229 16.5207C17.5283 16.5207 17.5335 16.521 17.5387 16.5215L17.9268 15.8299L18.2886 15.1851C18.2791 15.1761 18.2704 15.1663 18.2627 15.1557L17.0579 15.4521C17.0497 15.4847 17.0338 15.5152 17.0109 15.5412C17.0007 15.5526 16.9896 15.5628 16.9775 15.5717L17.5076 16.5215C17.5127 16.521 17.5178 16.5207 17.5229 16.5207Z" fill="#862633"/>
  <path d="M17.8701 10.6591C17.871 10.6665 17.8717 10.674 17.8717 10.6817C17.8717 10.6903 17.8708 10.6988 17.8696 10.7071L19.1959 11.5835C19.2084 11.5744 19.2218 11.5666 19.2361 11.5603L19.1372 9.89428C19.101 9.88716 19.0676 9.87067 19.0394 9.84631L17.8701 10.6591Z" fill="#862633"/>
  <path d="M18.2993 13.7187L21.5528 14.0903C21.5583 14.0742 21.5651 14.0587 21.5735 14.0439L20.0559 12.5721L19.4155 11.9511C19.3874 11.9644 19.3561 11.9721 19.3229 11.9721C19.3084 11.9721 19.2942 11.9706 19.2804 11.9679L18.2524 13.6275C18.2748 13.6532 18.2911 13.6844 18.2993 13.7187Z" fill="#862633"/>
  <path d="M19.4491 10.9669C19.412 10.9564 19.3784 10.9435 19.3491 10.9286L19.3767 11.1477L19.4491 10.9669Z" fill="#862633"/>
  <path d="M16.9939 15.1364L16.9663 15.2192C16.998 15.2398 17.024 15.2686 17.0413 15.3025L18.2227 15.0118C18.2315 14.9075 18.3158 14.8222 18.4239 14.8152C18.4287 14.8149 18.4334 14.8148 18.4381 14.8148C18.5139 14.8148 18.5812 14.8543 18.6199 14.9141L19.9509 14.5866L21.0723 14.3106L17.2063 14.4984L16.9939 15.1364Z" fill="#862633"/>
  <path fill-rule="evenodd" clip-rule="evenodd" d="M21.1508 10.9473L21.3603 12.0596L19.7266 10.847C20.0215 10.837 20.5655 10.8229 20.9661 10.813C20.9963 10.8874 21.0669 10.9412 21.1508 10.9473Z" fill="#862633"/>
  <path d="M18.8468 18.6781C18.8636 18.6812 18.88 18.6858 18.8959 18.6919L21.6346 14.3827C21.6292 14.3781 21.6238 14.3734 21.6186 14.3683C21.6087 14.3584 21.5999 14.3477 21.5917 14.3366L18.6522 15.0599C18.6432 15.1235 18.6059 15.1789 18.5527 15.2121L18.7616 17.6743L18.8468 18.6781Z" fill="#862633"/>
  <path d="M19.5075 10.5678C19.5966 10.5678 19.6732 10.6216 19.7063 10.6982C19.7259 10.6976 19.7468 10.6969 19.7697 10.6962C19.9088 10.6916 20.1031 10.686 20.3471 10.6795C20.5466 10.6741 20.7458 10.6691 20.9 10.6652L19.3334 9.83231C19.3322 9.83357 19.3312 9.83494 19.3299 9.83619C19.3167 9.84938 19.3019 9.86038 19.2861 9.86951L19.3329 10.6566C19.3722 10.6029 19.4358 10.5678 19.5075 10.5678Z" fill="#862633"/>
  <path fill-rule="evenodd" clip-rule="evenodd" d="M18.0067 9.47361L16.8628 8.01164V8.01159C16.869 7.99843 16.8735 7.98434 16.876 7.96964C17.2054 7.85638 17.9416 7.57938 18.284 7.44989C18.3114 7.4702 18.3452 7.48228 18.3815 7.48228C18.3858 7.48228 18.3902 7.48213 18.3945 7.48178H18.3948L19.0749 9.5011C19.0581 9.51052 19.0424 9.52212 19.0284 9.53605C19.0066 9.5577 18.9907 9.58297 18.9803 9.60986L18.2419 9.60832C18.2315 9.58072 18.2154 9.55477 18.1932 9.53261C18.1529 9.49253 18.0993 9.47046 18.0423 9.47046C18.0303 9.47046 18.0184 9.47167 18.0067 9.47361ZM18.3011 7.59543C18.2923 7.59287 18.2836 7.58987 18.275 7.58648C18.1454 7.63544 17.9629 7.70419 17.769 7.77657L18.3007 7.90001L18.4652 8.46275L18.6853 8.73626L18.3011 7.59543Z" fill="#862633"/>
  <path d="M14.4128 11.2975C14.4131 11.2975 14.4131 11.2978 14.4131 11.2979L16.6069 10.0922C16.6066 10.0897 16.6065 10.0871 16.6065 10.0846C16.6065 10.0514 16.6158 10.0205 16.6318 9.99387L14.0298 6.34181L14.2817 11.2254C14.331 11.2366 14.3762 11.2611 14.4128 11.2975Z" fill="#862633"/>
  <path d="M14.0251 11.2998C14.0259 11.2991 14.0265 11.2983 14.0272 11.2975C14.0571 11.2678 14.0927 11.2462 14.1315 11.233L13.8821 6.39961L12.1167 10.2755L14.0251 11.2998Z" fill="#862633"/>
  <path d="M18.1957 12.8345L18.1748 13.4612L18.9973 12.139L18.1957 12.8345Z" fill="#862633"/>
  <path d="M16.7848 9.90704C16.8354 9.90704 16.881 9.92816 16.9135 9.96191L17.8291 9.68013C17.8296 9.63385 17.8452 9.58775 17.8759 9.54978L16.7438 8.10291C16.7383 8.1039 16.7327 8.10465 16.727 8.1051C16.7226 8.10545 16.7183 8.1056 16.714 8.1056C16.6288 8.1056 16.5569 8.03944 16.5502 7.95495C16.5494 7.9445 16.5497 7.93421 16.5508 7.92413L15.9922 7.55054C15.9653 7.56681 15.9338 7.57638 15.9 7.57638C15.8015 7.57638 15.7215 7.49672 15.7215 7.39883C15.7215 7.38935 15.7224 7.38014 15.7239 7.37105L15.1494 6.98677C15.1494 6.98677 15.1494 6.98675 15.1494 6.98677L14.3866 6.47664L14.2397 6.37838L16.7557 9.90966C16.7652 9.9081 16.7749 9.90708 16.7849 9.90708" fill="#862633"/>
  <path d="M18.0888 13.9833C18.0406 13.9833 17.9959 13.9672 17.9598 13.9403L17.4014 14.3394L18.6983 14.2764L19.492 14.2378L20.9191 14.1685L18.2808 13.8671C18.2728 13.8824 18.2632 13.8968 18.2515 13.9101C18.2134 13.9532 18.1606 13.9791 18.103 13.9828C18.0982 13.9831 18.0935 13.9833 18.0888 13.9833Z" fill="#862633"/>
  <path d="M15.4992 6.88721L15.3033 6.56701C15.2972 6.56818 15.2911 6.56911 15.2848 6.56959C15.2804 6.56995 15.2761 6.57012 15.2718 6.57012C15.2046 6.57012 15.1458 6.52885 15.1206 6.46998L14.6582 6.47821L15.2185 6.85292L15.4992 6.88721Z" fill="#862633"/>
  <path fill-rule="evenodd" clip-rule="evenodd" d="M16.0786 7.25739C16.0786 7.12684 15.9985 7.02061 15.9001 7.02061C15.8933 7.02061 15.8866 7.0212 15.8801 7.02217L15.7886 6.82275L18.102 7.19941L16.8261 7.82275C16.7966 7.78621 16.7571 7.76386 16.7143 7.76386C16.71 7.76386 16.7056 7.76409 16.7012 7.76454C16.6767 7.76709 16.654 7.77689 16.6339 7.79194L16.0762 7.29444C16.0776 7.28232 16.0786 7.27003 16.0786 7.25739ZM17.0474 7.53772L17.5737 7.28062L16.1605 7.05054C16.1816 7.09711 16.1958 7.14975 16.2012 7.20596L16.3211 7.31285L17.0474 7.53772Z" fill="#862633"/>
  <path d="M15.6582 7.14697L15.5987 7.04977L15.4937 7.03693L15.6582 7.14697Z" fill="#862633"/>
  <path fill-rule="evenodd" clip-rule="evenodd" d="M10.933 8.28951C10.8602 8.28951 10.7918 8.31771 10.7404 8.3689C10.7265 8.38268 10.7146 8.39761 10.7043 8.41333L8.21436 7.70901L13.0877 6.69208L11.0842 8.33495C11.0398 8.30539 10.9877 8.28951 10.933 8.28951ZM12.1489 7.30054L12.6158 6.91773L9.76038 7.51358L12.1489 7.30054Z" fill="#862633"/>
  <path fill-rule="evenodd" clip-rule="evenodd" d="M14.3139 19.8318C14.3316 19.8007 14.3399 19.7651 14.3375 19.7286H14.3376C14.3312 19.6308 14.249 19.5542 14.1506 19.5542C14.1466 19.5542 14.1425 19.5544 14.1384 19.5547C14.0884 19.5579 14.0427 19.5803 14.0097 19.6177C13.9843 19.6464 13.9689 19.6813 13.9645 19.7183L12.9421 20.0772L12.1165 19.1424C12.1334 19.1121 12.1422 19.0769 12.1398 19.0399C12.1334 18.9421 12.0513 18.8656 11.9529 18.8656C11.9488 18.8656 11.9447 18.8657 11.9406 18.8659C11.9154 18.8676 11.8912 18.8741 11.8693 18.885L11.4683 18.5509C11.4715 18.5366 11.4728 18.5218 11.4718 18.5067C11.4674 18.4386 11.4183 18.3831 11.3542 18.3675L11.1222 17.3213C11.1225 17.321 11.1229 17.3207 11.1233 17.3204C11.1259 17.3181 11.1285 17.3159 11.131 17.3134C11.1633 17.2812 11.1811 17.2385 11.1811 17.1929C11.1811 17.1474 11.1633 17.1047 11.131 17.0725C11.0986 17.0403 11.0556 17.0226 11.0099 17.0226C10.9642 17.0226 10.9211 17.0403 10.8888 17.0725C10.8638 17.0973 10.8476 17.1285 10.8415 17.1624L10.6779 17.2067L10.6827 17.1713L11.05 16.4776C11.0559 16.4666 11.0589 16.4541 11.0587 16.4416L11.0311 14.6811C11.0553 14.6711 11.0776 14.6563 11.0967 14.6373C11.1759 14.5585 11.1759 14.4304 11.0967 14.3516C11.0583 14.3135 11.0074 14.2925 10.9531 14.2925C10.9276 14.2925 10.9029 14.2973 10.8798 14.3061L10.4068 13.8539C10.4166 13.8316 10.4229 13.8075 10.4246 13.782C10.4283 13.7247 10.4094 13.6693 10.3713 13.6261C10.341 13.5918 10.3014 13.5687 10.2575 13.5587L10.1567 12.8282L10.8913 12.1592C10.9092 12.1654 10.9282 12.1689 10.9477 12.1689C10.9932 12.1689 11.036 12.1513 11.0681 12.1193C11.1345 12.0532 11.1345 11.9457 11.0681 11.8797C11.0521 11.8638 11.0334 11.8514 11.0131 11.843C11.0076 11.3619 10.9871 9.53468 10.9889 8.82593C10.9958 8.82452 11.0025 8.8228 11.0093 8.82088L11.9557 10.3475C11.9563 10.3485 11.9572 10.3492 11.9579 10.3502C11.9603 10.3537 11.963 10.357 11.966 10.3601L11.9694 10.3635C11.9734 10.367 11.9777 10.3703 11.9825 10.373L11.9832 10.3735L11.9839 10.374L13.954 11.4313C13.9499 11.4502 13.9476 11.4695 13.9476 11.4893C13.9476 11.5617 13.9759 11.6298 14.0274 11.681C14.0789 11.7322 14.1473 11.7604 14.2201 11.7604C14.2929 11.7604 14.3613 11.7322 14.4127 11.681C14.4642 11.6298 14.4926 11.5617 14.4926 11.4893C14.4926 11.4686 14.49 11.4484 14.4855 11.4288L16.6759 10.225C16.7061 10.2482 16.7438 10.2622 16.7849 10.2622C16.7934 10.2622 16.8016 10.2614 16.8098 10.2603L18.0512 12.2338C18.065 12.2558 18.0888 12.2689 18.1148 12.2689C18.1235 12.2689 18.1322 12.2674 18.1405 12.2644L18.9702 11.9643L18.0724 12.7433C18.0568 12.7568 18.0474 12.7765 18.0468 12.7971L18.0211 13.5641C17.93 13.5942 17.8668 13.6824 17.8733 13.782C17.874 13.7932 17.8759 13.8041 17.8782 13.8147L17.1074 14.3656L17.1062 14.3667L17.1037 14.3687L17.1034 14.369C17.1014 14.3707 17.0993 14.3723 17.0975 14.3742C17.0926 14.3792 17.0884 14.385 17.085 14.3913L17.0839 14.391L17.0799 14.4028V14.4028L16.912 14.9071L16.8191 15.1864C16.7675 15.1934 16.7206 15.2181 16.6859 15.2574C16.6478 15.3006 16.6289 15.356 16.6326 15.4133C16.6396 15.5197 16.7243 15.6043 16.8292 15.6136L17.382 16.604C17.3693 16.6268 17.3621 16.653 17.3621 16.6809C17.3621 16.7662 17.4295 16.8359 17.514 16.8406L17.7408 17.2469L17.9073 17.5452L16.9386 17.001C16.9349 16.916 16.8644 16.848 16.778 16.848C16.6893 16.848 16.617 16.9198 16.617 17.0081C16.617 17.0214 16.6188 17.0342 16.6219 17.0465L16.4068 17.2706C16.3928 17.2667 16.3781 17.2644 16.3628 17.2644C16.2741 17.2644 16.2019 17.3363 16.2019 17.4246C16.2019 17.4895 16.241 17.5454 16.2969 17.5705L16.3735 18.7708L16.0692 19.2208C16.0529 19.2169 16.036 19.2146 16.0185 19.2146C15.8992 19.2146 15.8022 19.3111 15.8022 19.4297C15.8022 19.4553 15.8069 19.4797 15.8151 19.5024L14.978 20.204C14.9774 20.2045 14.9769 20.205 14.9763 20.2056C14.976 20.206 14.9756 20.2064 14.9752 20.2067L14.9718 20.2101C14.9698 20.2121 14.9681 20.2143 14.9665 20.2165L14.9639 20.2199C14.9622 20.2225 14.9607 20.2252 14.9593 20.2279L14.9577 20.231C14.9542 20.2389 14.9522 20.2473 14.9516 20.2559L14.9513 20.2568L14.9265 20.6875L14.3139 19.8318ZM14.1301 19.4305C14.1369 19.4301 14.1437 19.4298 14.1505 19.4298L14.1506 19.4298C14.3147 19.4298 14.4517 19.5575 14.4623 19.7206C14.4644 19.752 14.4617 19.7833 14.4544 19.8135L14.7091 20.1693L14.8261 20.2604L14.8275 20.2381C14.8298 20.2183 14.8351 20.199 14.8432 20.1807L14.8481 20.1707C14.8519 20.1635 14.8555 20.1572 14.8596 20.151C14.8617 20.1479 14.8638 20.145 14.8659 20.1422C14.8707 20.1359 14.8754 20.1303 14.8805 20.1249L14.8875 20.1179C14.8906 20.1147 14.8938 20.1117 14.8972 20.1088L15.6779 19.4547C15.6772 19.4464 15.6769 19.4381 15.6769 19.4298C15.6769 19.247 15.8229 19.0975 16.005 19.0905L16.0125 19.0814L16.2458 18.7365L16.1758 17.6398C16.1139 17.5866 16.0766 17.5083 16.0766 17.4246C16.0766 17.2689 16.2029 17.142 16.359 17.14L16.4918 17.0017C16.4953 16.8477 16.6223 16.7236 16.7779 16.7236C16.809 16.7236 16.8389 16.7285 16.867 16.7377L16.9968 16.1707L16.7473 15.7236C16.6154 15.6825 16.5168 15.5628 16.5076 15.4214C16.5017 15.3309 16.5316 15.2435 16.5917 15.1753C16.6273 15.1351 16.6717 15.104 16.7211 15.0843L16.9441 14.4146C16.9453 14.4109 16.9465 14.4068 16.9477 14.4027L16.9481 14.4013C16.9558 14.3746 16.9675 14.3345 16.9968 14.2996C17.016 14.2768 17.0371 14.2621 17.0512 14.2524L17.0513 14.2523L17.0573 14.2481L17.7479 13.7546C17.7522 13.6457 17.8091 13.5464 17.8984 13.4866L17.9216 12.793C17.9234 12.738 17.9483 12.6857 17.99 12.6495L18.3819 12.3095L18.1831 12.3814C18.1609 12.3894 18.138 12.3934 18.1147 12.3934C18.0452 12.3934 17.9817 12.3584 17.9449 12.2999L16.9747 10.7573L16.5315 10.4465L14.6174 11.4984C14.6152 11.6007 14.574 11.6964 14.5011 11.769C14.426 11.8437 14.3261 11.8849 14.2199 11.8849C14.1138 11.8849 14.0139 11.8437 13.9388 11.769C13.8668 11.6974 13.8258 11.6031 13.8226 11.5024L11.913 10.4768C11.9033 10.4707 11.8939 10.4636 11.8851 10.4557C11.8826 10.4534 11.8796 10.4505 11.8767 10.4474C11.8699 10.4404 11.864 10.4336 11.8588 10.4265C11.856 10.4231 11.8527 10.4186 11.8493 10.4133L11.6779 10.1368L11.118 9.80075C11.1235 10.5313 11.1328 11.3823 11.1373 11.7743C11.1439 11.7798 11.1503 11.7856 11.1565 11.7917C11.2122 11.8472 11.2429 11.921 11.2429 11.9995C11.2429 12.0781 11.2122 12.1519 11.1564 12.2073C11.0965 12.267 11.0144 12.2981 10.9297 12.2929L10.2895 12.876L10.3713 13.4696C10.4065 13.4885 10.4382 13.5135 10.4652 13.5441C10.5253 13.6123 10.5552 13.6996 10.5493 13.7902C10.5487 13.7986 10.5479 13.8069 10.5467 13.8152L10.9177 14.1699C10.9294 14.1687 10.9412 14.168 10.953 14.168C11.0406 14.168 11.123 14.202 11.1851 14.2637C11.313 14.391 11.313 14.5981 11.1851 14.7254C11.1762 14.7342 11.1669 14.7425 11.1572 14.7501L11.1837 16.4397C11.1842 16.4729 11.1763 16.5062 11.1606 16.5357L10.967 16.9012C10.981 16.8992 10.9953 16.8982 11.0097 16.8982C11.0889 16.8982 11.1634 16.9288 11.2193 16.9846C11.2753 17.0402 11.3061 17.1143 11.3061 17.193C11.3061 17.2514 11.2892 17.3072 11.2576 17.3548L11.4625 18.2789C11.5384 18.3244 11.5892 18.404 11.5963 18.4953L11.8972 18.746C11.9087 18.744 11.9205 18.7426 11.9324 18.7418C11.9391 18.7413 11.946 18.7411 11.9527 18.7411C12.1169 18.7411 12.2539 18.8688 12.2645 19.0319C12.2664 19.0599 12.2644 19.0878 12.2587 19.115L12.8412 19.7746L13.0159 19.9193L13.8612 19.6226C13.8742 19.591 13.8925 19.5617 13.9155 19.5356C13.9705 19.4732 14.0468 19.4359 14.1301 19.4305Z" fill="#862633"/>
  <path d="M14.076 19.9116C14.0496 19.9001 14.0264 19.8829 14.0079 19.8614L12.9419 20.2356L14.0826 21.718L14.0806 21.1721L14.076 19.9116Z" fill="#862633"/>
  <path d="M15.093 21.1569C15.0731 21.1644 15.052 21.169 15.0301 21.1704C15.0254 21.1707 15.0206 21.1708 15.0159 21.1708C14.9024 21.1708 14.8076 21.0825 14.8002 20.9697C14.7968 20.9168 14.8131 20.8671 14.8426 20.8276L14.2266 19.967L14.2335 21.8616L15.4819 21.6377L15.093 21.1569Z" fill="#862633"/>
  <path d="M15.6495 21.6067L16.186 21.4986L15.2686 21.136L15.6495 21.6067Z" fill="#862633"/>
  <path d="M10.8433 15.0739C10.8455 15.0762 10.8475 15.0787 10.8497 15.081L10.8544 15.0466L10.8433 15.0739Z" fill="#862633"/>
  <path d="M10.4915 21.2561C10.4874 21.2563 10.4833 21.2565 10.4792 21.2565C10.4397 21.2565 10.4029 21.2439 10.3725 21.2228L9.81934 21.5991L10.6014 21.6582L12.5692 21.8071L10.6171 21.1962C10.5843 21.2316 10.54 21.2529 10.4915 21.2561Z" fill="#862633"/>
  <path d="M11.8835 19.2252L11.0659 20.1488L13.0238 21.686L11.9371 19.2377C11.9184 19.2362 11.9003 19.2319 11.8835 19.2252Z" fill="#862633"/>
  <path d="M15.3452 21.0054L15.7817 21.178L18.2471 20.3628L15.3452 21.0054Z" fill="#862633"/>
  <path d="M13.2073 21.7291C13.2766 21.7416 13.3331 21.7924 13.3533 21.8591L14.0131 21.873L12.2598 19.5944L13.2073 21.7291Z" fill="#862633"/>
  <path d="M12.9216 20.1311L12.986 20.2095L12.9481 20.1095L12.9216 20.1311Z" fill="#862633"/>
  <path fill-rule="evenodd" clip-rule="evenodd" d="M19.502 18.0173L21.7726 14.4446C21.7849 14.4464 21.7973 14.4476 21.8099 14.4476L21.9284 15.0766L21.3441 15.7903C21.3306 15.7873 21.3166 15.7855 21.3023 15.7855C21.2982 15.7855 21.294 15.7856 21.2898 15.7859C21.2392 15.7892 21.1929 15.8119 21.1595 15.8498C21.126 15.8877 21.1094 15.9363 21.1127 15.9867C21.1142 16.0097 21.12 16.0315 21.129 16.0514L19.502 18.0173ZM21.2837 15.6616C21.2852 15.6615 21.2868 15.6613 21.2883 15.6613L21.7947 15.0428L21.7366 14.7343L21.1026 15.7319C21.1531 15.6905 21.2152 15.666 21.2817 15.6617C21.2824 15.6617 21.283 15.6616 21.2837 15.6616Z" fill="#862633"/>
  <path d="M15.6219 21.7643L15.0942 21.8589L16.1217 21.8399L16.2716 21.6337L15.622 21.7645V21.7643H15.6219Z" fill="#862633"/>
  <path d="M19.0688 18.9231C19.0741 18.9901 19.0547 19.0586 19.0103 19.1138L19.5701 19.7468C19.5904 19.7405 19.612 19.7371 19.6344 19.7371C19.6491 19.7371 19.6633 19.7386 19.6771 19.7413L19.992 18.9261C19.9511 18.8869 19.9255 18.832 19.9255 18.7712C19.9255 18.6526 20.0225 18.5561 20.1417 18.5561C20.1699 18.5561 20.1967 18.5616 20.2214 18.5714L20.9692 17.8831L20.4703 18.1561L19.0688 18.9231Z" fill="#862633"/>
  <path fill-rule="evenodd" clip-rule="evenodd" d="M22.2791 14.5053L22.3776 15.0281H22.3778C22.3981 15.1363 22.3697 15.2473 22.2999 15.3327L21.7921 15.953C21.7966 16.0529 21.7707 16.1498 21.7179 16.2333L21.8445 17.4993L21.8451 17.5049L21.8453 17.5106C21.8458 17.5259 21.8455 17.5404 21.8443 17.5549L21.8441 17.5573L21.8438 17.5597L21.8429 17.5679L21.8426 17.5694L21.8424 17.5708C21.8403 17.5869 21.8374 17.602 21.8337 17.6164C21.8328 17.6197 21.8318 17.6233 21.8307 17.6274C21.8301 17.6292 21.8296 17.631 21.829 17.633C21.8246 17.6472 21.8195 17.6607 21.8136 17.6742C21.8111 17.6798 21.8086 17.6853 21.8056 17.6911C21.7959 17.7105 21.7846 17.7288 21.772 17.7456L21.7704 17.7478L21.7687 17.7499L21.7632 17.757L21.7623 17.758L21.7615 17.759C21.7552 17.7667 21.7487 17.7741 21.7419 17.7811L21.7407 17.7824L21.7394 17.7837L21.7309 17.7923L21.7283 17.7949L21.7255 17.7974L20.6581 18.7798C20.6549 18.9829 20.5342 19.1602 20.353 19.2403L20.1318 19.8133C20.1445 19.8582 20.1509 19.9047 20.1509 19.9522C20.1509 20.2356 19.9192 20.4661 19.6343 20.4661C19.5977 20.4661 19.5615 20.4623 19.5262 20.4547L16.6938 21.8176L16.465 22.1326C16.3962 22.2272 16.2851 22.2851 16.1677 22.2872L14.4618 22.3187L14.4615 22.3299L14.2879 22.3267L14.1581 22.3243L14.0256 22.3268L13.8471 22.3302V22.3178L13.4542 22.3094C13.3814 22.3604 13.2953 22.3908 13.2054 22.3967C13.1949 22.3974 13.1841 22.3977 13.1734 22.3977C13.0544 22.3977 12.9413 22.3548 12.8531 22.278L9.88261 22.0533C9.80947 22.105 9.72298 22.1358 9.63203 22.1416C9.62152 22.1423 9.61084 22.1427 9.60031 22.1427C9.48134 22.1427 9.36589 22.0983 9.27765 22.0211L6.63351 21.9396C6.56064 21.9796 6.47848 22.0007 6.3953 22.0007C6.21979 22.0007 6.0562 21.9068 5.96838 21.7556C5.90256 21.6422 5.88507 21.51 5.91916 21.3836C5.95322 21.2571 6.03476 21.1514 6.14875 21.0859C6.22346 21.043 6.30884 21.0203 6.3957 21.0203C6.41336 21.0203 6.43098 21.0213 6.44845 21.0231L7.81656 20.4791L7.78245 17.3373C7.69741 17.2448 7.65082 17.1258 7.65082 16.9996C7.65082 16.873 7.69774 16.7535 7.78345 16.6609L7.81153 14.6296L7.81155 14.6274V14.6251L7.82157 14.3701C7.74728 14.2807 7.70687 14.1694 7.70687 14.0519C7.70687 13.9277 7.752 13.8104 7.8346 13.7185L7.83128 9.05595C7.82481 9.04715 7.81869 9.03816 7.81286 9.02896L6.25653 8.23852C6.21234 8.25074 6.16648 8.25704 6.12069 8.25704C5.8401 8.25704 5.61182 8.02996 5.61182 7.75084C5.61182 7.4717 5.8401 7.24461 6.12069 7.24461C6.2355 7.24461 6.34632 7.28339 6.43533 7.35304L7.60499 7.33031C7.6965 7.25266 7.81275 7.20936 7.93447 7.20936C8.01402 7.20936 8.09101 7.22746 8.16096 7.26225L13.2032 6.21011L13.4729 5.98896C13.5187 5.77214 13.7102 5.61252 13.9413 5.61252C14.1521 5.61252 14.3352 5.75012 14.3974 5.94394L14.5294 6.03219L15.0111 6.02366C15.0772 5.97921 15.1546 5.95203 15.2349 5.94572C15.2471 5.94475 15.2596 5.94427 15.2719 5.94427C15.5124 5.94427 15.7158 6.13134 15.7347 6.37013C15.7359 6.38442 15.7363 6.39873 15.7361 6.41308L15.8697 6.63141L18.1618 6.91119C18.218 6.88121 18.28 6.86306 18.3445 6.85799C18.3569 6.85702 18.3695 6.85651 18.3819 6.85651C18.6224 6.85651 18.8256 7.04361 18.8445 7.28238C18.8475 7.31977 18.846 7.35699 18.8399 7.39359L19.4703 9.26524C19.4959 9.28279 19.5199 9.30268 19.5421 9.32477C19.5912 9.37363 19.6295 9.43155 19.6552 9.49522L19.7864 9.56504L19.788 9.56583L19.7895 9.56669L20.0845 9.73114L20.3109 9.84396L20.3129 9.84497L20.315 9.84608L21.0441 10.2338C21.0843 10.224 21.1255 10.219 21.1665 10.219C21.4513 10.219 21.683 10.4495 21.683 10.7329C21.683 10.8212 21.6596 10.9083 21.616 10.9851L21.779 11.8488C21.8849 11.9382 21.948 12.0709 21.948 12.2122C21.948 12.2915 21.9278 12.3695 21.8902 12.4387L22.1286 13.7023C22.1599 13.7231 22.1891 13.7469 22.216 13.7737C22.3242 13.8813 22.3838 14.0244 22.3838 14.1766C22.3838 14.296 22.3471 14.4098 22.2791 14.5053ZM22.067 15.1441L21.4657 15.8785C21.4805 15.9033 21.4898 15.9317 21.4918 15.9622C21.4951 16.0126 21.4785 16.0612 21.445 16.0991C21.4334 16.1122 21.4203 16.1234 21.406 16.1327L21.545 17.5163V17.5174V17.5199C21.5452 17.5233 21.5452 17.5266 21.5448 17.5299L21.5445 17.5323L21.5444 17.5332C21.5442 17.5345 21.544 17.5359 21.5438 17.5372C21.5434 17.5389 21.5431 17.5406 21.5426 17.5423L21.5417 17.5456C21.5408 17.5487 21.5396 17.5518 21.5382 17.5548L21.5371 17.5572C21.5352 17.561 21.533 17.5646 21.5305 17.568L21.5297 17.569C21.5274 17.572 21.5248 17.5748 21.5221 17.5774L21.5211 17.5785L20.3332 18.6719C20.3488 18.7016 20.3578 18.7354 20.3578 18.7712C20.3578 18.8899 20.2608 18.9864 20.1415 18.9864C20.1388 18.9864 20.1362 18.9862 20.1335 18.986L20.1295 18.9858L19.8064 19.8226C19.8339 19.8587 19.8505 19.9035 19.8505 19.9522C19.8505 20.0709 19.7535 20.1674 19.6342 20.1674C19.589 20.1674 19.5469 20.1534 19.5121 20.1297L16.4947 21.5816L16.2215 21.9577C16.2077 21.9766 16.1855 21.9882 16.162 21.9886L14.1693 22.0253V22.0258L14.1581 22.0256L14.1473 22.0258V22.0253L13.3343 22.0082C13.3285 22.0178 13.3219 22.027 13.3143 22.0356C13.2813 22.073 13.2356 22.0954 13.1856 22.0987C13.1815 22.0989 13.1774 22.099 13.1733 22.099C13.0983 22.099 13.0328 22.0544 13.0031 21.9899L9.76576 21.7449C9.75898 21.7575 9.75091 21.7695 9.74118 21.7805C9.70816 21.818 9.66246 21.8404 9.6125 21.8436C9.60838 21.8439 9.60428 21.844 9.60022 21.844C9.52209 21.844 9.45441 21.7957 9.42655 21.7269L6.53881 21.6378C6.52531 21.6529 6.50946 21.666 6.49138 21.6764C6.46212 21.6932 6.42888 21.702 6.39521 21.702C6.32659 21.702 6.26265 21.6653 6.22836 21.6063C6.20265 21.562 6.19583 21.5103 6.20913 21.4609C6.22245 21.4115 6.25432 21.3702 6.29884 21.3446C6.3281 21.3278 6.36134 21.319 6.39501 21.319C6.42205 21.319 6.44827 21.3248 6.47234 21.3354L8.11898 20.6806L8.08106 17.1881C8.05495 17.1781 8.03091 17.1628 8.01051 17.1425C7.97217 17.1044 7.95105 17.0536 7.95105 16.9997C7.95105 16.9457 7.97217 16.895 8.01051 16.8568C8.03106 16.8364 8.05529 16.8211 8.08164 16.811L8.11165 14.6369L8.12736 14.2363C8.10507 14.2263 8.08448 14.2125 8.06668 14.1948C8.02831 14.1566 8.00719 14.1059 8.00719 14.0519C8.00719 13.998 8.02831 13.9473 8.06668 13.9091C8.08649 13.8894 8.10974 13.8744 8.13503 13.8643L8.13148 8.92863C8.11643 8.92091 8.10245 8.91094 8.09013 8.89869C8.0653 8.87399 8.05021 8.84332 8.04458 8.81129L6.25995 7.90491C6.22296 7.93802 6.17424 7.95837 6.12069 7.95837C6.00569 7.95837 5.91213 7.86529 5.91213 7.75088C5.91213 7.63648 6.00569 7.5434 6.12069 7.5434C6.2007 7.5434 6.27023 7.5885 6.30518 7.65443L7.74644 7.6264C7.78006 7.5566 7.85158 7.50814 7.93447 7.50814C7.99815 7.50814 8.05515 7.53676 8.09345 7.58163L13.3036 6.49446L13.3073 6.51196L13.7687 6.13356C13.765 6.11926 13.7628 6.10433 13.7628 6.08887C13.7628 5.99096 13.8428 5.91131 13.9413 5.91131C14.0397 5.91131 14.1198 5.99096 14.1198 6.08887C14.1198 6.09833 14.1188 6.10757 14.1174 6.11665L14.4403 6.33263L15.1321 6.32035C15.1364 6.31345 15.1411 6.30672 15.1465 6.30042C15.175 6.26719 15.2148 6.24702 15.2586 6.24358C15.2606 6.24341 15.2627 6.24329 15.2648 6.24321C15.2671 6.24312 15.2693 6.24307 15.2716 6.24307C15.3567 6.24307 15.4287 6.30924 15.4354 6.3937C15.4376 6.4215 15.4327 6.44875 15.4215 6.47347L15.6888 6.91035L18.2485 7.22281C18.251 7.21939 18.2535 7.21595 18.2563 7.21269C18.2848 7.17949 18.3246 7.15929 18.3684 7.15585C18.3727 7.15552 18.3771 7.15534 18.3814 7.15534C18.4665 7.15534 18.5385 7.22151 18.5452 7.30597C18.5478 7.33935 18.5401 7.37119 18.5248 7.39841L19.2256 9.47917C19.2647 9.48781 19.3007 9.50717 19.3298 9.53607C19.3734 9.57944 19.3939 9.63705 19.3918 9.69397L21.0309 10.5655C21.068 10.5357 21.1151 10.5178 21.1664 10.5178C21.2857 10.5178 21.3827 10.6143 21.3827 10.7329C21.3827 10.8035 21.3483 10.866 21.2954 10.9052L21.5094 12.0394C21.5885 12.0576 21.6477 12.1281 21.6477 12.2123C21.6477 12.2732 21.6167 12.327 21.5696 12.359L21.8623 13.9105C21.9156 13.9205 21.9645 13.9461 22.0037 13.985C22.0551 14.0362 22.0835 14.1043 22.0835 14.1767C22.0835 14.2491 22.0551 14.3171 22.0037 14.3683C21.9888 14.3831 21.9723 14.3958 21.9549 14.4066L22.0824 15.0832C22.0865 15.1049 22.0808 15.1271 22.0668 15.1441L22.067 15.1441ZM6.43509 21.1552C6.43961 21.1552 6.44411 21.1556 6.44861 21.1559C6.45236 21.1562 6.45611 21.1565 6.45989 21.1566H6.40879C6.41319 21.1566 6.41756 21.1562 6.42194 21.1558L6.42194 21.1558C6.42632 21.1554 6.43069 21.1549 6.43509 21.1549V21.1552Z" fill="#862633"/>
  <path d="M21.2398 16.1526L19.104 18.7332L20.5225 17.9569L21.3905 17.482L21.2574 16.1578C21.2514 16.1563 21.2455 16.1546 21.2398 16.1526Z" fill="#862633"/>
  <path d="M16.4445 21.4399L18.595 20.4051L15.9985 21.2636L16.4445 21.4399Z" fill="#862633"/>
  <path d="M18.8867 19.2005C18.8583 19.2103 18.8282 19.2157 18.7973 19.2157C18.7245 19.2157 18.6561 19.1875 18.6046 19.1363C18.5925 19.1243 18.582 19.1114 18.5727 19.0978L16.2303 19.4715C16.2107 19.5702 16.1231 19.6449 16.0182 19.6449C15.9795 19.6449 15.9431 19.6345 15.9116 19.6167L15.2485 20.1724L19.4219 19.9121C19.4269 19.8855 19.437 19.8607 19.451 19.8386L19.2519 19.6135L18.8867 19.2005Z" fill="#862633"/>
  <path d="M15.0973 20.3314L15.0732 20.7484C15.1399 20.7667 15.1941 20.8161 15.2183 20.8804L18.7171 20.1056L15.493 20.3067L15.0973 20.3314Z" fill="#862633"/>
  <path d="M10.8515 20.1877L10.8542 20.1756L10.8548 20.173L10.374 19.7955L10.5161 20.8871C10.5966 20.903 10.6593 20.9709 10.6662 21.0549L12.8475 21.7375L10.8825 20.1948L10.8515 20.1877Z" fill="#862633"/>
  <path fill-rule="evenodd" clip-rule="evenodd" d="M8.26197 14.6408L8.27764 14.2425C8.29193 14.2376 8.30561 14.231 8.31846 14.223L9.58307 14.9975C9.5797 15.0323 9.58715 15.0679 9.60512 15.099L8.23242 16.7852L8.26197 14.6408ZM8.39601 14.4166L8.38706 14.6441L8.36248 16.4276L9.46352 15.0752L9.46246 15.0698L8.39601 14.4166Z" fill="#862633"/>
  <path fill-rule="evenodd" clip-rule="evenodd" d="M9.66173 14.8634L8.57861 13.8845L10.7133 14.3418L9.86435 14.8845C9.83338 14.8456 9.79451 14.8243 9.75333 14.8243C9.72035 14.8243 9.68888 14.8381 9.66173 14.8634ZM9.67221 14.6573C9.69843 14.6463 9.72571 14.6406 9.75333 14.6406C9.79506 14.6406 9.83604 14.6536 9.87368 14.6782L10.2611 14.4306L9.16056 14.1948L9.67221 14.6573Z" fill="#862633"/>
  <path d="M9.67832 16.1621L9.958 16.0237L9.78441 15.3244L9.66504 16.1517C9.6696 16.155 9.67404 16.1584 9.67832 16.1621" fill="#862633"/>
  <path fill-rule="evenodd" clip-rule="evenodd" d="M9.63649 15.2974L9.51672 16.1276C9.48999 16.1356 9.4655 16.15 9.4452 16.1702C9.40899 16.2062 9.39258 16.2545 9.39567 16.3018L8.42969 16.7798L9.63649 15.2974ZM9.2786 16.2207C9.2913 16.1687 9.31805 16.1207 9.35672 16.0822C9.37064 16.0684 9.38589 16.056 9.40218 16.0452L9.44815 15.7265L8.88887 16.4135L9.2786 16.2207Z" fill="#862633"/>
  <path d="M10.0742 9.01018C10.1119 9.01018 10.1477 9.02279 10.1767 9.0459C10.349 8.91617 10.5408 8.77075 10.6809 8.66261C10.667 8.62866 10.6606 8.59245 10.6611 8.55634L9.43519 8.20954L8.43701 13.3198L8.80067 12.4713L9.14403 11.6448L9.95548 9.28707C9.8938 9.22305 9.89451 9.12112 9.95783 9.05814C9.98893 9.0272 10.0303 9.01018 10.0742 9.01018Z" fill="#862633"/>
  <path fill-rule="evenodd" clip-rule="evenodd" d="M9.88828 15.1191C9.91031 15.0912 9.92286 15.0574 9.92439 15.0216L10.8103 14.6379C10.8166 14.6441 10.8233 14.6497 10.8302 14.655L10.6668 15.0557C10.6287 15.0602 10.5935 15.0769 10.566 15.1043C10.5034 15.1665 10.4995 15.2652 10.5541 15.3321L9.423 18.1055C9.40831 18.1066 9.39388 18.1096 9.38 18.1145L8.34082 17.0796C8.35403 17.049 8.35935 17.0158 8.35667 16.9831L9.47052 16.4319C9.49865 16.4509 9.5318 16.4612 9.56656 16.4612C9.6123 16.4612 9.6553 16.4435 9.68764 16.4113C9.71784 16.3813 9.73518 16.3419 9.73735 16.2998L10.0789 16.1308C10.1106 16.1151 10.1269 16.0802 10.1184 16.046L9.88828 15.1191ZM10.4775 15.0163C10.5056 14.9883 10.5383 14.9667 10.574 14.9521L10.6117 14.8596L10.0338 15.11C10.0304 15.1198 10.0265 15.1294 10.0221 15.1388L10.1967 15.8422L10.2444 15.7603L10.415 15.3421C10.3674 15.2335 10.3893 15.104 10.4775 15.0163Z" fill="#862633"/>
  <path fill-rule="evenodd" clip-rule="evenodd" d="M10.1949 13.6227C10.1997 13.6231 10.2044 13.6236 10.2091 13.6236C10.2426 13.6236 10.2745 13.6083 10.303 13.5817L10.728 14.3679L8.56885 13.7615L10.0097 13.3679C10.0405 13.5088 10.1104 13.6121 10.1949 13.6227ZM9.94689 13.6283L9.44706 13.7648L10.36 14.0212L10.2696 13.8539C10.2425 13.8634 10.2148 13.8666 10.1866 13.8629C10.0915 13.8511 10.0058 13.7649 9.94689 13.6283Z" fill="#862633"/>
  <path fill-rule="evenodd" clip-rule="evenodd" d="M10.0033 13.7009L8.37281 13.9312C8.36937 13.9265 8.3657 13.9221 8.36182 13.9177L8.93867 12.5291L9.07841 12.2031L10.0404 13.6332C10.0242 13.6532 10.0115 13.676 10.0033 13.7009ZM9.1029 12.4633L9.05379 12.578L8.55453 13.7798L9.86398 13.5948L9.1029 12.4633Z" fill="#862633"/>
  <path fill-rule="evenodd" clip-rule="evenodd" d="M10.3696 13.437L9.36963 12.3674L10.2553 12.8407L10.3696 13.437Z" fill="#862633"/>
  <path d="M8.32324 8.66702C8.3874 8.73085 8.3874 8.83471 8.32324 8.89854C8.31096 8.91078 8.29702 8.92072 8.28201 8.92839L8.28514 13.314L9.29021 8.16847L8.10614 7.83353C8.08755 7.86014 8.06293 7.88232 8.03418 7.89788L8.23296 8.6213C8.26699 8.62665 8.29839 8.64231 8.32324 8.66702Z" fill="#862633"/>
  <path d="M7.73522 7.77601L6.38818 7.80218L8.0895 8.66626L7.88347 7.9165C7.81279 7.89864 7.75639 7.845 7.73522 7.77601Z" fill="#862633"/>
  <path d="M6.5791 21.4538C6.5828 21.4656 6.58533 21.4777 6.58666 21.4899L9.339 21.5747L8.18614 20.8148L6.5791 21.4538Z" fill="#862633"/>
  <path d="M8.26935 20.6906L8.55373 20.878L9.46665 21.4797L8.23486 17.5125L8.26935 20.6906Z" fill="#862633"/>
  <path d="M10.8389 8.81479C10.8157 8.80628 10.7938 8.79463 10.7735 8.78002C10.6104 8.90626 10.3906 9.07234 10.2379 9.18712C10.2349 9.22456 10.2192 9.26118 10.1904 9.28973C10.1899 9.29019 10.1894 9.29061 10.189 9.29105L10.8585 11.448C10.8507 10.7396 10.8371 9.39809 10.8389 8.81479Z" fill="#862633"/>
  <path d="M10.2921 21.0821C10.2889 21.0324 10.3053 20.9844 10.3383 20.947C10.3383 20.947 10.3385 20.9468 10.3385 20.9468L9.41186 18.43C9.36224 18.423 9.31776 18.3937 9.29233 18.3499C9.27039 18.3121 9.26456 18.268 9.27591 18.2259C9.27615 18.225 9.27651 18.2241 9.27675 18.2232L8.31543 17.2659L8.94425 19.2911L9.62149 21.4723C9.64986 21.4755 9.67643 21.485 9.69966 21.4995L10.2936 21.0954C10.293 21.091 10.2924 21.0866 10.2921 21.0821Z" fill="#862633"/>
  <path fill-rule="evenodd" clip-rule="evenodd" d="M10.0722 12.7026L9.28271 11.7621L10.7569 11.7026L10.0722 12.7026ZM9.64715 11.9471L10.0641 12.4439L10.4257 11.9157L9.64715 11.9471Z" fill="#862633"/>
  <path d="M10.8273 11.8798C10.8293 11.8777 10.8315 11.876 10.8336 11.8741L10.0701 9.41465L9.28502 11.6958C9.28453 11.6973 9.28396 11.6987 9.28338 11.7002L9.17139 11.9697L10.7932 11.9289C10.8014 11.9111 10.8126 11.8944 10.8273 11.8798Z" fill="#862633"/>
  <path d="M12.9791 13.645L12.9719 13.1244L12.5228 12.5126L11.0054 12.4746L12.1424 13.2932L12.6581 13.232L12.9791 13.645Z" fill="#862633"/>
  <path d="M15.1299 13.388L15.2082 14.6121L15.4165 13.519L15.6397 13.232L16.1554 13.2931L17.2924 12.4746L15.7749 12.5126L15.1299 13.388Z" fill="#862633"/>
  <path d="M15.387 16.992L14.2355 16.2228L14.2418 15.6849L15.4224 15.0767L15.2416 14.9127L14.149 15.007L13.0563 14.9127L12.8755 15.0767L14.0561 15.6849L14.0625 16.2228L12.911 16.992L12.6215 16.972L12.5913 17.4573L13.6415 16.7806H14.149H14.6564L15.7066 17.4573L15.6892 16.9629L15.387 16.992Z" fill="#862633"/>
  <path d="M13.606 18.6309H14.6744L14.1471 18.1718L13.606 18.6309Z" fill="#862633"/>
</svg>
