<svg width="212" height="212" viewBox="0 0 212 212" fill="none" xmlns="http://www.w3.org/2000/svg">
<path d="M157.947 155.266C157.836 155.279 157.724 155.289 157.609 155.289C156.102 155.289 154.876 154.07 154.876 152.571C154.876 152.565 154.876 152.559 154.876 152.553L142.319 145.504C141.98 145.757 141.56 145.908 141.105 145.908C140.857 145.908 140.621 145.862 140.401 145.781L137.785 148.504C137.854 148.706 137.892 148.921 137.892 149.145C137.892 149.205 137.888 149.263 137.883 149.322L163.964 166.039L157.946 155.266H157.947Z" fill="#C0C0C0" fill-opacity="0.35"/>
<path d="M52.3789 168.158L59.2774 186.879L58.0151 177.19L52.3789 168.158Z" fill="#C0C0C0" fill-opacity="0.35"/>
<path d="M133.76 172.98C133.818 173.061 133.873 173.144 133.923 173.23L163.234 168.558C163.226 168.341 163.239 168.125 163.273 167.91L136.963 151.045L137.946 166.443C137.959 166.649 137.903 166.857 137.787 167.029L133.76 172.98Z" fill="#C0C0C0" fill-opacity="0.35"/>
<path d="M161.735 122.005L152.339 138.736C152.497 139.024 152.588 139.353 152.588 139.704C152.588 140.164 152.43 140.589 152.168 140.929L157.151 149.851C157.31 149.822 157.473 149.805 157.639 149.805C159.147 149.805 160.373 151.024 160.373 152.522C160.373 153.224 160.102 153.862 159.661 154.345L165.344 164.52L161.735 122.005Z" fill="#C0C0C0" fill-opacity="0.35"/>
<path d="M170.515 77.5875C170.515 77.3786 170.543 77.1759 170.589 76.9804L153.84 65.9202C153.494 66.136 153.086 66.263 152.647 66.263C151.403 66.263 150.391 65.2569 150.391 64.0203C150.391 63.8986 150.403 63.78 150.422 63.6633L144.301 59.6209L158.373 81.9766L170.515 77.5875Z" fill="#C0C0C0" fill-opacity="0.35"/>
<path d="M68.5551 163.117C68.5898 163.645 68.7442 164.154 69.0027 164.609L67.1398 172.751L66.6644 172.85L66.993 152.045L69.0139 161.149C68.673 161.741 68.5097 162.424 68.5551 163.117ZM67.7774 148.281C67.3577 148.201 66.9717 147.998 66.6627 147.691C66.6333 147.662 66.6069 147.63 66.5795 147.6L64.0333 148.288C63.9585 148.591 63.8201 148.874 63.6212 149.119L59.9258 176.461L66.6972 181.773L70.7046 164.26C70.3791 163.937 70.1653 163.502 70.1334 163.015C70.0953 162.431 70.3236 161.89 70.713 161.508L67.7774 148.281Z" fill="#C0C0C0" fill-opacity="0.35"/>
<path d="M70.6475 37.3175C70.6475 38.1671 70.3349 38.9668 69.7695 39.5947L80.8083 57.3867L96.6625 22.6055L102.676 9.4126L70.3402 35.9082C70.5394 36.3456 70.6475 36.8229 70.6475 37.3175Z" fill="#C0C0C0" fill-opacity="0.35"/>
<path d="M152.718 61.7965C153.168 61.7965 153.587 61.9296 153.939 62.1562L168.007 52.3867L159.648 52.3692C159.518 52.7145 159.315 53.0389 159.036 53.3162C158.526 53.8225 157.849 54.1012 157.129 54.1012C156.409 54.1012 155.732 53.8225 155.223 53.3162C155.174 53.2678 155.129 53.2163 155.085 53.165L143.48 56.7338C143.477 56.7497 143.474 56.765 143.473 56.7806L151.557 62.1195C151.897 61.916 152.293 61.7965 152.718 61.7965Z" fill="#C0C0C0" fill-opacity="0.35"/>
<path d="M66.7542 125.993L64.8008 140.445L66.9181 136.451L66.7542 125.993Z" fill="#C0C0C0" fill-opacity="0.35"/>
<path d="M64.1687 123.645L49.8945 158.618C49.969 158.708 50.0391 158.801 50.0982 158.903C50.3758 159.38 50.4495 159.937 50.3058 160.47C50.2506 160.675 50.1649 160.866 50.0539 161.041L58.34 174.32L61.616 150.081C61.1644 150.013 60.7473 149.806 60.4179 149.479C59.5741 148.64 59.5741 147.275 60.4179 146.436C60.8266 146.03 61.3703 145.806 61.9483 145.806C61.9889 145.806 62.0287 145.81 62.0687 145.812L62.2357 145.497L65.2299 123.343C64.9111 123.532 64.5483 123.637 64.1687 123.645Z" fill="#C0C0C0" fill-opacity="0.35"/>
<path d="M201.141 101.073L198.116 98.1416L194.191 89.1779L195.676 83.2395L196.636 83.9512C196.814 85.0492 197.471 86.0163 198.412 86.5958L201.141 101.073ZM198.17 83.3526C198.17 83.2793 198.174 83.2069 198.181 83.1354L177.162 67.5471C176.845 67.7612 176.48 67.908 176.088 67.9745L174.703 75.2777C175.497 75.7539 176.03 76.6169 176.03 77.6035C176.03 77.9958 175.944 78.3681 175.793 78.7053L203.093 105.16C203.22 105.091 203.352 105.03 203.487 104.978L199.816 85.5095C198.868 85.2441 198.17 84.379 198.17 83.3526Z" fill="#C0C0C0" fill-opacity="0.35"/>
<path d="M75.3326 171.251L72.6301 171.813L73.5809 167.657L76.2005 169.838C76.2002 169.926 76.2033 170.014 76.2086 170.102C76.212 170.15 76.2159 170.199 76.2212 170.248L75.3326 171.251ZM72.7575 164.921C72.697 164.941 72.6357 164.959 72.5729 164.974L68.9414 180.844L77.9393 170.687C77.8561 170.472 77.8026 170.241 77.7869 170C77.7687 169.72 77.8021 169.446 77.8788 169.185L72.7575 164.921Z" fill="#C0C0C0" fill-opacity="0.35"/>
<path d="M150.546 137.873C150.613 137.873 150.68 137.876 150.745 137.883L155.65 129.148L160.223 121.004C160.104 120.89 159.994 120.766 159.897 120.632L144.668 124.377C144.564 124.789 144.364 125.173 144.074 125.501C143.946 125.646 143.804 125.775 143.652 125.887L150.352 137.883C150.416 137.876 150.481 137.873 150.546 137.873Z" fill="#C0C0C0" fill-opacity="0.35"/>
<path d="M154.981 63.7618C154.993 63.8557 155.002 63.9506 155.002 64.0475C155.002 64.1564 154.991 64.2628 154.976 64.3675L171.74 75.4371C171.897 75.3224 172.067 75.2233 172.248 75.1439L170.997 54.102C170.541 54.0121 170.118 53.8038 169.762 53.4961L154.981 63.7618Z" fill="#C0C0C0" fill-opacity="0.35"/>
<path d="M160.344 102.509L201.468 107.203C201.537 107 201.624 106.804 201.729 106.617L182.547 88.028L174.453 80.184C174.098 80.3525 173.701 80.4494 173.282 80.4494C173.099 80.4494 172.919 80.4308 172.746 80.3962L159.752 101.357C160.035 101.683 160.241 102.076 160.344 102.509Z" fill="#C0C0C0" fill-opacity="0.35"/>
<path d="M174.296 67.6932C174.075 67.5601 173.874 67.3974 173.699 67.2098L173.864 69.9766L174.296 67.6932Z" fill="#C0C0C0" fill-opacity="0.35"/>
<path d="M143.821 120.199L143.473 121.245C143.874 121.505 144.202 121.869 144.421 122.297L159.353 118.625C159.465 117.309 160.531 116.231 161.897 116.143C161.957 116.138 162.017 116.137 162.076 116.137C163.035 116.137 163.885 116.636 164.373 117.391L181.198 113.254L195.372 109.77L146.506 112.141L143.821 120.199Z" fill="#C0C0C0" fill-opacity="0.35"/>
<path d="M195.036 68.9165L195.024 68.8547L195.036 68.9165ZM199.029 81.5625L196.381 67.5144C195.321 67.437 194.428 66.7578 194.047 65.8183C188.982 65.9425 182.107 66.121 178.379 66.2477L199.029 81.5625Z" fill="#C0C0C0" fill-opacity="0.35"/>
<path d="M167.293 165.037C167.506 165.075 167.713 165.134 167.913 165.211L202.531 110.785C202.462 110.726 202.393 110.667 202.329 110.603C202.203 110.477 202.091 110.342 201.988 110.203L164.833 119.338C164.719 120.141 164.248 120.841 163.576 121.261L166.217 152.359L167.293 165.037Z" fill="#C0C0C0" fill-opacity="0.35"/>
<path d="M175.67 62.5318C176.795 62.5318 177.764 63.2118 178.182 64.1797C178.43 64.1716 178.694 64.163 178.983 64.1535C180.741 64.0959 183.197 64.0249 186.281 63.9424C188.803 63.8751 191.321 63.8113 193.27 63.7628L173.469 53.2429C173.454 53.2588 173.44 53.276 173.424 53.2919C173.257 53.4584 173.07 53.5974 172.871 53.7127L173.462 63.6534C173.959 62.9751 174.762 62.5318 175.67 62.5318Z" fill="#C0C0C0" fill-opacity="0.35"/>
<path d="M160.081 24.917C160.189 24.9599 160.299 24.9977 160.411 25.03L165.267 39.439L162.485 35.9844L160.406 28.877L153.685 27.3179C156.135 26.4037 158.443 25.5355 160.081 24.917ZM142.23 30.2868L156.69 48.7518C156.837 48.7273 156.987 48.712 157.14 48.712C157.86 48.712 158.537 48.9907 159.046 49.4969C159.328 49.7768 159.531 50.1045 159.662 50.4532L168.996 50.4727C169.127 50.1329 169.328 49.8138 169.603 49.5404C169.78 49.3644 169.979 49.2179 170.191 49.099L161.595 23.5946C161.595 23.5946 161.592 23.5949 161.591 23.5946C161.536 23.599 161.481 23.601 161.427 23.601C160.968 23.601 160.541 23.4484 160.194 23.1919C155.866 24.8273 146.561 28.3259 142.398 29.7563C142.366 29.9421 142.309 30.12 142.23 30.2863" fill="#C0C0C0" fill-opacity="0.35"/>
<path d="M111.234 71.6836C111.237 71.6836 111.237 71.6864 111.238 71.6875L138.966 56.4604C138.964 56.4279 138.961 56.3961 138.961 56.3635C138.961 55.9447 139.079 55.5538 139.281 55.2179L106.393 9.09177L109.577 70.7719C110.199 70.9142 110.772 71.2239 111.234 71.6836Z" fill="#C0C0C0" fill-opacity="0.35"/>
<path d="M106.314 71.7227C106.323 71.7135 106.331 71.7032 106.34 71.6937C106.717 71.3189 107.168 71.0452 107.658 70.8784L104.506 9.83212L82.1914 58.7859L106.314 71.7227Z" fill="#C0C0C0" fill-opacity="0.35"/>
<path d="M159.058 91.0931L158.793 99.0078L169.189 82.3088L159.058 91.0931Z" fill="#C0C0C0" fill-opacity="0.35"/>
<path d="M141.275 54.3772C141.914 54.3772 142.491 54.644 142.902 55.0703L154.474 51.5113C154.481 50.9268 154.678 50.3446 155.066 49.865L140.756 31.5908C140.686 31.6033 140.615 31.6128 140.544 31.6183C140.488 31.6228 140.433 31.6248 140.379 31.6248C139.303 31.6248 138.394 30.7891 138.309 29.722C138.299 29.59 138.302 29.46 138.316 29.3327L131.256 24.6142C130.916 24.8197 130.517 24.9406 130.09 24.9406C128.846 24.9406 127.834 23.9345 127.834 22.6981C127.834 22.5784 127.846 22.462 127.865 22.3473L120.603 17.4937C120.603 17.4937 120.603 17.4934 120.603 17.4937L110.962 11.0507L109.105 9.8096L140.907 54.4104C141.027 54.3906 141.149 54.3778 141.275 54.3778" fill="#C0C0C0" fill-opacity="0.35"/>
<path d="M157.688 105.76C157.079 105.76 156.514 105.557 156.056 105.217L148.999 110.257L165.392 109.462L175.424 108.975L193.463 108.099L160.114 104.293C160.013 104.485 159.891 104.668 159.744 104.835C159.262 105.381 158.595 105.707 157.867 105.754C157.807 105.758 157.747 105.76 157.688 105.76Z" fill="#C0C0C0" fill-opacity="0.35"/>
<path d="M125.003 16.1484L122.527 12.1043C122.45 12.1191 122.372 12.1308 122.293 12.1369C122.238 12.1414 122.183 12.1436 122.129 12.1436C121.28 12.1436 120.536 11.6223 120.218 10.8788L114.373 10.9827L121.454 15.7154L125.003 16.1484Z" fill="#C0C0C0" fill-opacity="0.35"/>
<path d="M151.13 22.6587L144.478 25.0936L135.297 22.9639L133.782 21.9517C133.714 21.4193 133.534 20.9208 133.268 20.4797L151.13 22.6587ZM129.976 20.1963C131.22 20.1963 132.232 21.2023 132.232 22.4387C132.232 22.5584 132.22 22.6748 132.202 22.7896L139.251 27.5011C139.505 27.3586 139.793 27.2658 140.102 27.2416C140.157 27.2374 140.213 27.2352 140.267 27.2352C140.808 27.2352 141.307 27.4468 141.68 27.793L157.808 21.8896L128.566 18.3225L129.723 20.211C129.806 20.2018 129.89 20.1963 129.976 20.1963Z" fill="#C0C0C0" fill-opacity="0.35"/>
<path d="M126.919 19.4609L126.167 18.2332L124.84 18.0711L126.919 19.4609Z" fill="#C0C0C0" fill-opacity="0.35"/>
<path d="M88.5512 16.3681L82.6505 21.203L52.4594 23.8938L88.5512 16.3681ZM64.8463 34.6967C65.4968 34.0501 66.3616 33.694 67.2816 33.694C67.9721 33.694 68.6313 33.8944 69.1921 34.2679L94.516 13.518L32.918 26.3621L64.391 35.2578C64.5205 35.0593 64.6715 34.8707 64.8463 34.6967Z" fill="#C0C0C0" fill-opacity="0.35"/>
<path d="M107.877 174.479C107.791 174.479 107.705 174.482 107.619 174.487C106.566 174.555 105.602 175.027 104.906 175.815C104.615 176.145 104.384 176.515 104.22 176.914L93.5361 180.661L91.328 178.833L83.9644 170.502C84.0364 170.159 84.0619 169.806 84.0384 169.453C83.9039 167.393 82.1726 165.78 80.0976 165.78C80.0119 165.78 79.9256 165.783 79.8399 165.789C79.69 165.798 79.5415 165.816 79.395 165.842L75.5924 162.676C75.5027 161.522 74.8606 160.517 73.9014 159.942L71.3106 148.271C71.7101 147.669 71.9244 146.964 71.9244 146.227C71.9244 145.233 71.5348 144.297 70.8274 143.594C70.12 142.891 69.1793 142.503 68.1784 142.503C67.996 142.503 67.8156 142.516 67.6382 142.542L70.0853 137.925C70.2831 137.552 70.3834 137.133 70.3767 136.713L70.0422 115.373C70.1646 115.276 70.282 115.172 70.3943 115.061C72.0113 113.453 72.0113 110.837 70.3943 109.229C69.6105 108.45 68.5686 108.021 67.4606 108.021C67.3113 108.021 67.1623 108.029 67.0144 108.045L62.3253 103.565C62.3405 103.46 62.3514 103.355 62.3581 103.249C62.4332 102.105 62.0553 101.002 61.2952 100.141C60.9546 99.755 60.554 99.4384 60.1091 99.1995L59.0743 91.7025L67.1671 84.3375C68.2366 84.4032 69.2743 84.0111 70.0326 83.2573C70.7375 82.557 71.1258 81.6247 71.1258 80.6326C71.1258 79.6407 70.7375 78.7087 70.0329 78.0084C69.955 77.931 69.8744 77.8574 69.7909 77.7875C69.7343 72.8365 69.6158 62.0888 69.5469 52.8617L76.6238 57.1063L78.7905 60.5982C78.8328 60.6658 78.8751 60.7224 78.9098 60.7652C78.9762 60.8544 79.0502 60.9412 79.1359 61.0292C79.1729 61.0677 79.2107 61.1044 79.2432 61.1334C79.3544 61.2339 79.4729 61.3236 79.5959 61.4007L103.732 74.3533C103.773 75.6259 104.291 76.8165 105.201 77.7215C106.15 78.665 107.412 79.1843 108.755 79.1843C110.097 79.1843 111.359 78.665 112.309 77.721C113.23 76.8046 113.75 75.5949 113.779 74.3034L137.972 61.0178L143.574 64.9436L155.838 84.426C156.303 85.1659 157.105 85.6078 157.983 85.6078C158.278 85.6078 158.568 85.5569 158.848 85.4561L161.361 84.5477L156.408 88.8424C155.881 89.2994 155.565 89.9602 155.542 90.6544L155.249 99.415C154.121 100.17 153.401 101.424 153.347 102.8L144.618 109.033L144.543 109.085C144.365 109.208 144.097 109.394 143.854 109.682C143.483 110.123 143.335 110.631 143.238 110.967C143.221 111.025 143.205 111.083 143.187 111.135L140.369 119.594C139.745 119.843 139.183 120.235 138.734 120.744C137.973 121.605 137.595 122.709 137.67 123.852C137.787 125.637 139.033 127.149 140.7 127.669L143.854 133.315L142.213 140.476C141.858 140.361 141.48 140.298 141.086 140.298C139.12 140.298 137.515 141.866 137.471 143.811L135.792 145.558C133.819 145.583 132.223 147.186 132.223 149.153C132.223 150.21 132.694 151.198 133.476 151.871L134.361 165.721L131.413 170.079L131.318 170.193C129.016 170.281 127.17 172.169 127.17 174.478C127.17 174.583 127.174 174.688 127.182 174.793L117.316 183.055C117.272 183.091 117.232 183.129 117.192 183.169C117.162 183.198 117.132 183.227 117.104 183.257C117.04 183.325 116.98 183.397 116.92 183.476C116.893 183.512 116.866 183.548 116.84 183.587C116.788 183.665 116.742 183.745 116.695 183.836L116.633 183.962C116.53 184.193 116.463 184.437 116.434 184.687L116.417 184.968L114.937 183.818L111.718 179.324C111.81 178.943 111.845 178.548 111.819 178.151C111.684 176.091 109.953 174.478 107.877 174.478L107.877 174.479ZM110.24 178.252C110.27 178.714 110.165 179.163 109.943 179.556L117.685 190.363L117.999 184.924C117.999 184.92 118.002 184.916 118.002 184.912C118.01 184.804 118.036 184.697 118.08 184.597C118.086 184.584 118.093 184.572 118.1 184.559C118.118 184.524 118.136 184.49 118.158 184.458C118.168 184.443 118.179 184.428 118.19 184.414C118.211 184.386 118.233 184.359 118.257 184.334C118.271 184.319 118.286 184.305 118.301 184.291C118.313 184.28 118.323 184.267 118.336 184.256L128.918 175.396C128.813 175.108 128.754 174.8 128.754 174.478C128.754 172.979 129.98 171.76 131.487 171.76C131.709 171.76 131.923 171.789 132.129 171.839L135.975 166.154L135.007 150.995C134.3 150.678 133.806 149.972 133.806 149.152C133.806 148.036 134.719 147.13 135.84 147.13C136.033 147.13 136.219 147.158 136.396 147.208L139.115 144.377C139.076 144.221 139.054 144.059 139.054 143.892C139.054 142.777 139.966 141.87 141.088 141.87C142.18 141.87 143.071 142.729 143.118 143.802L155.362 150.675L153.258 146.908L150.391 141.776C149.322 141.717 148.47 140.837 148.47 139.759C148.47 139.407 148.562 139.076 148.722 138.787L141.735 126.279C140.409 126.162 139.338 125.094 139.25 123.749C139.203 123.025 139.442 122.326 139.924 121.78C140.362 121.284 140.955 120.971 141.607 120.883L142.782 117.356L144.904 110.986C144.904 110.986 144.904 110.986 144.904 110.986L144.954 110.837L144.968 110.841C145.011 110.762 145.064 110.688 145.127 110.625C145.151 110.6 145.178 110.578 145.205 110.556C145.215 110.548 145.225 110.538 145.236 110.53C145.241 110.526 145.246 110.521 145.252 110.517L154.995 103.559C154.965 103.425 154.941 103.288 154.932 103.146C154.85 101.887 155.649 100.773 156.801 100.394L157.125 90.7059C157.133 90.4455 157.252 90.1977 157.449 90.0264L168.796 80.1873L158.309 83.978C158.204 84.0159 158.095 84.0351 157.985 84.0351C157.656 84.0351 157.355 83.8694 157.18 83.5918L141.49 58.6657C141.387 58.6799 141.282 58.6902 141.175 58.6902C140.656 58.6902 140.179 58.5133 139.797 58.2198L112.111 73.4238C112.168 73.6719 112.2 73.9275 112.2 74.1884C112.2 75.1026 111.842 75.9625 111.192 76.6091C110.541 77.2557 109.676 77.6118 108.756 77.6118C107.837 77.6118 106.972 77.2557 106.321 76.6091C105.671 75.9625 105.312 75.1026 105.312 74.1884C105.312 73.9389 105.341 73.6944 105.393 73.4564L80.4921 60.1022C80.4887 60.0995 80.4859 60.0975 80.4823 60.0956C80.4792 60.0928 80.4764 60.0914 80.4733 60.0897C80.4125 60.0552 80.3582 60.014 80.308 59.9689C80.2929 59.9552 80.2792 59.9407 80.2651 59.9265C80.227 59.8873 80.1932 59.8458 80.1629 59.8015C80.1545 59.7892 80.1427 59.7801 80.1352 59.7675L68.1722 40.4858C68.0873 40.51 68.0019 40.5317 67.915 40.5496C67.8921 49.5012 68.1506 72.5795 68.2209 78.6558C68.4778 78.7619 68.7137 78.9181 68.9163 79.1194C69.7553 79.9534 69.7553 81.3109 68.9163 82.1452C68.5098 82.5492 67.9691 82.7717 67.3942 82.7717C67.1472 82.7717 66.9074 82.7283 66.681 82.6492L57.3965 91.0991L58.6697 100.325C59.2247 100.451 59.7253 100.744 60.108 101.177C60.5898 101.723 60.8291 102.422 60.7817 103.146C60.7605 103.468 60.6806 103.773 60.5571 104.054L66.5353 109.766C66.8272 109.653 67.1399 109.593 67.4623 109.593C68.1481 109.593 68.7924 109.858 69.2774 110.34C70.2783 111.335 70.2783 112.953 69.2774 113.948C69.0359 114.188 68.7546 114.375 68.4484 114.501L68.7969 136.737C68.7997 136.895 68.7616 137.052 68.6877 137.192L64.044 145.953L63.9835 146.4L66.0518 145.841C66.1294 145.413 66.3339 145.019 66.6496 144.705C67.0583 144.299 67.6021 144.075 68.18 144.075C68.7583 144.075 69.3017 144.299 69.7107 144.705C70.1195 145.111 70.3444 145.652 70.3444 146.226C70.3444 146.801 70.1195 147.341 69.7107 147.748C69.6749 147.783 69.6368 147.816 69.5992 147.848L72.5321 161.061C73.342 161.259 73.9625 161.959 74.0188 162.82C74.0311 163.01 74.0154 163.197 73.9742 163.377L79.0423 167.597C79.3202 167.46 79.625 167.377 79.9441 167.357C79.9959 167.353 80.0478 167.352 80.0993 167.352C81.3434 167.352 82.3814 168.319 82.462 169.554C82.4926 170.022 82.3814 170.466 82.1673 170.848L92.6032 182.655L105.525 178.123C105.581 177.654 105.777 177.214 106.097 176.852C106.514 176.379 107.092 176.096 107.723 176.055C107.775 176.052 107.827 176.05 107.878 176.05C109.122 176.05 110.16 177.018 110.241 178.252" fill="#C0C0C0" fill-opacity="0.35"/>
<path d="M106.938 180.489C106.605 180.345 106.311 180.127 106.077 179.855L92.6035 184.581L107.021 203.305L106.996 196.41L106.938 180.489Z" fill="#C0C0C0" fill-opacity="0.35"/>
<path d="M119.832 196.252C119.581 196.346 119.314 196.405 119.037 196.423C118.978 196.426 118.918 196.428 118.858 196.428C117.423 196.428 116.225 195.312 116.132 193.887C116.089 193.219 116.294 192.592 116.667 192.093L108.881 181.224L108.968 205.152L124.748 202.324L119.832 196.252Z" fill="#C0C0C0" fill-opacity="0.35"/>
<path d="M126.829 201.985L133.611 200.62L122.014 196.039L126.829 201.985Z" fill="#C0C0C0" fill-opacity="0.35"/>
<path d="M65.6289 119.795C65.6381 119.804 65.6465 119.815 65.6557 119.824L65.6753 119.681L65.6289 119.795Z" fill="#C0C0C0" fill-opacity="0.35"/>
<path d="M61.7032 197.579C61.6511 197.582 61.5996 197.584 61.548 197.584C61.0482 197.584 60.5829 197.426 60.1983 197.159L53.207 201.912L63.0916 202.659L87.9644 204.539L63.2908 196.823C62.8765 197.27 62.3159 197.539 61.7032 197.579Z" fill="#C0C0C0" fill-opacity="0.35"/>
<path d="M79.2751 171.99L68.9414 183.654L93.689 203.07L79.9533 172.148C79.716 172.128 79.4882 172.075 79.2751 171.99Z" fill="#C0C0C0" fill-opacity="0.35"/>
<path d="M123.053 194.5L128.57 196.68L159.732 186.384L123.053 194.5Z" fill="#C0C0C0" fill-opacity="0.35"/>
<path d="M95.9884 203.554C96.8641 203.712 97.5785 204.352 97.8332 205.195L106.174 205.371L84.0117 176.591L95.9884 203.554Z" fill="#C0C0C0" fill-opacity="0.35"/>
<path d="M92.1602 184.024L92.3406 184.258L92.2344 183.959L92.1602 184.024Z" fill="#C0C0C0" fill-opacity="0.35"/>
<path d="M198.154 126.997C198.126 126.997 198.098 127 198.07 127.002C197.229 127.056 196.444 127.366 195.806 127.888L203.82 115.288L204.554 119.185L198.154 126.997ZM204.275 111.63L175.574 156.754L196.14 131.924C196.026 131.672 195.952 131.397 195.933 131.106C195.892 130.47 196.102 129.856 196.525 129.377C196.948 128.898 197.533 128.612 198.173 128.571C198.226 128.567 198.278 128.565 198.33 128.565C198.512 128.565 198.688 128.588 198.859 128.627L206.244 119.612L204.746 111.667C204.587 111.667 204.43 111.652 204.275 111.63Z" fill="#C0C0C0" fill-opacity="0.35"/>
<path d="M126.541 203.91L119.871 205.105L132.858 204.866L134.752 202.261L126.541 203.913V203.91H126.541Z" fill="#C0C0C0" fill-opacity="0.35"/>
<path d="M170.096 168.057C170.163 168.903 169.917 169.769 169.355 170.466L176.431 178.461C176.688 178.381 176.962 178.338 177.245 178.338C177.43 178.338 177.61 178.357 177.785 178.392L181.764 168.094C181.247 167.6 180.923 166.907 180.923 166.138C180.923 164.64 182.15 163.421 183.657 163.421C184.013 163.421 184.352 163.491 184.664 163.615L194.117 154.922L187.811 158.37L170.096 168.057Z" fill="#C0C0C0" fill-opacity="0.35"/>
<path d="M207.991 120.386L200.391 129.662C200.578 129.975 200.695 130.334 200.721 130.719C200.762 131.355 200.552 131.969 200.129 132.447C199.983 132.613 199.816 132.754 199.636 132.871L201.393 150.347C201.393 150.351 201.393 150.356 201.393 150.36C201.393 150.371 201.393 150.382 201.393 150.392C201.396 150.435 201.396 150.477 201.39 150.519C201.39 150.533 201.387 150.546 201.385 150.56C201.38 150.599 201.373 150.638 201.363 150.676C201.359 150.69 201.356 150.703 201.352 150.717C201.34 150.757 201.324 150.795 201.307 150.833C201.302 150.843 201.299 150.854 201.294 150.864C201.269 150.912 201.242 150.957 201.21 151C201.207 151.005 201.203 151.008 201.199 151.013C201.17 151.05 201.138 151.086 201.103 151.119C201.099 151.123 201.095 151.129 201.091 151.133L186.076 164.942C186.274 165.318 186.387 165.744 186.387 166.197C186.387 167.695 185.161 168.914 183.653 168.914C183.602 168.914 183.552 168.909 183.502 168.907L179.417 179.476C179.766 179.932 179.975 180.498 179.975 181.113C179.975 182.612 178.748 183.831 177.241 183.831C176.669 183.831 176.137 183.654 175.698 183.354L137.558 201.692L134.104 206.442C133.93 206.681 133.649 206.828 133.353 206.833L108.166 207.297V207.303L108.024 207.3L107.887 207.303V207.297L97.6113 207.08C97.5379 207.202 97.4544 207.318 97.3586 207.427C96.9412 207.899 96.3632 208.182 95.7321 208.223C95.68 208.226 95.6281 208.228 95.5766 208.228C94.6275 208.228 93.7999 207.664 93.4242 206.849L52.5052 203.755C52.4195 203.915 52.3175 204.066 52.1946 204.205C51.7771 204.678 51.1995 204.961 50.568 205.001C50.5159 205.005 50.4641 205.006 50.4128 205.006C49.4253 205.006 48.5698 204.396 48.2176 203.527L11.717 202.403C11.5464 202.593 11.3461 202.758 11.1175 202.889C10.7477 203.102 10.3275 203.214 9.90198 203.214C9.03466 203.214 8.22644 202.75 7.79306 202.004C7.46809 201.444 7.38181 200.793 7.54989 200.168C7.71826 199.544 8.12111 199.023 8.68392 198.7C9.05371 198.487 9.47392 198.375 9.89946 198.375C10.2412 198.375 10.5727 198.45 10.8769 198.583L31.6902 190.313L31.2109 146.202C30.8809 146.075 30.5769 145.882 30.3192 145.626C29.8345 145.144 29.5676 144.503 29.5676 143.822C29.5676 143.14 29.8345 142.5 30.3192 142.018C30.5789 141.76 30.8851 141.566 31.2182 141.439L31.5975 113.979L31.7961 108.92C31.5143 108.794 31.254 108.619 31.0291 108.396C30.5441 107.914 30.2772 107.273 30.2772 106.591C30.2772 105.91 30.5441 105.269 31.0291 104.787C31.2795 104.538 31.5734 104.348 31.893 104.222L31.8482 41.883C31.658 41.7855 31.4812 41.6597 31.3255 41.5049C31.0117 41.193 30.8209 40.8056 30.7498 40.401L8.19226 28.9532C7.7247 29.3715 7.10894 29.6285 6.43211 29.6285C4.97844 29.6285 3.79596 28.4528 3.79596 27.0079C3.79596 25.563 4.97844 24.3873 6.43211 24.3873C7.44344 24.3873 8.32225 24.957 8.76404 25.7896L26.9813 25.4357C27.4063 24.5541 28.3103 23.942 29.358 23.942C30.1629 23.942 30.8834 24.3035 31.3675 24.8702L97.2227 11.139L97.2695 11.3601L103.102 6.58084C103.055 6.40014 103.027 6.21163 103.027 6.01641C103.027 4.77978 104.039 3.77368 105.283 3.77368C106.527 3.77368 107.539 4.77978 107.539 6.01641C107.539 6.13588 107.527 6.25253 107.509 6.36726L111.59 9.09508L120.334 8.93996C120.389 8.85282 120.449 8.76787 120.517 8.68824C120.877 8.2686 121.38 8.0138 121.934 7.97038C121.989 7.96592 122.044 7.96395 122.098 7.96395C123.174 7.96395 124.084 8.79962 124.168 9.86641C124.196 10.2176 124.134 10.5617 123.993 10.8739L127.372 16.3918L159.725 20.3382C159.757 20.2951 159.789 20.2516 159.825 20.2104C160.185 19.791 160.688 19.536 161.241 19.4925C161.296 19.4883 161.351 19.4861 161.406 19.4861C162.482 19.4861 163.391 20.3218 163.475 21.3886C163.509 21.8102 163.412 22.2122 163.218 22.5562L172.076 48.8364C172.571 48.9456 173.026 49.1901 173.393 49.5552C173.944 50.1029 174.203 50.8305 174.176 51.5495L194.895 62.5573C195.364 62.1808 195.96 61.9542 196.608 61.9542C198.116 61.9542 199.342 63.1733 199.342 64.6714C199.342 65.5625 198.906 66.3522 198.238 66.8481L200.943 81.1733C201.942 81.4027 202.691 82.2935 202.691 83.3564C202.691 84.1252 202.299 84.8047 201.704 85.2087L205.404 104.805C206.077 104.932 206.696 105.255 207.191 105.746C207.841 106.393 208.199 107.252 208.199 108.167C208.199 109.081 207.841 109.941 207.191 110.588C207.002 110.774 206.795 110.934 206.574 111.071L208.185 119.617C208.237 119.89 208.165 120.17 207.988 120.386L207.991 120.386ZM9.90675 196.805C9.93 196.805 9.95297 196.808 9.97623 196.809C9.92832 196.809 9.88069 196.809 9.83307 196.809C9.85772 196.809 9.88209 196.804 9.90675 196.804V196.805ZM211.916 118.921L210.671 112.317C211.531 111.111 211.995 109.674 211.995 108.166C211.995 106.243 211.242 104.436 209.874 103.077C209.534 102.739 209.165 102.438 208.77 102.176L205.757 86.2165C206.232 85.3424 206.487 84.3566 206.487 83.3556C206.487 81.5703 205.689 79.894 204.35 78.766L202.291 67.8573C202.842 66.8871 203.138 65.7869 203.138 64.6708C203.138 61.0918 200.209 58.1802 196.608 58.1802C196.091 58.1802 195.569 58.244 195.062 58.367L185.846 53.4706L185.82 53.4567L185.794 53.4439L182.933 52.019L179.204 49.9419L179.185 49.9311L179.165 49.9211L177.506 49.0392C177.182 48.235 176.698 47.5035 176.077 46.8864C175.797 46.6074 175.493 46.3562 175.169 46.1345L167.201 22.4952C167.278 22.0329 167.297 21.5629 167.26 21.0906C167.02 18.0749 164.452 15.7119 161.412 15.7119C161.255 15.7119 161.096 15.7182 160.939 15.7305C160.124 15.7946 159.34 16.0237 158.63 16.4024L129.659 12.8688L127.97 10.1112C127.973 9.92988 127.967 9.74918 127.952 9.56873C127.713 6.55273 125.142 4.19 122.102 4.19C121.946 4.19 121.789 4.19611 121.634 4.20836C120.619 4.288 119.642 4.63135 118.806 5.19273L112.717 5.30047L111.049 4.18581C110.262 1.73787 107.948 -9.50224e-06 105.283 -9.50224e-06C102.362 -9.50224e-06 99.9412 2.01604 99.3625 4.75443L95.954 7.54766L32.2208 20.8364C31.3367 20.397 30.3635 20.1683 29.358 20.1683C27.8195 20.1683 26.3501 20.7153 25.1934 21.696L10.409 21.9831C9.28398 21.1034 7.88326 20.6136 6.43211 20.6136C2.88549 20.6136 0 23.4817 0 27.0073C0 30.5327 2.88549 33.4008 6.43211 33.4008C7.01089 33.4008 7.59051 33.3212 8.14912 33.1669L27.8209 43.1503C27.8945 43.2664 27.9719 43.38 28.0537 43.4911L28.0957 102.38C27.0516 103.541 26.4812 105.022 26.4812 106.591C26.4812 108.075 26.9919 109.481 27.931 110.61L27.8043 113.831V113.859L27.8041 113.887L27.4491 139.543C26.3658 140.713 25.7727 142.222 25.7727 143.821C25.7727 145.414 26.3616 146.918 27.4365 148.086L27.8676 187.768L10.5749 194.639C10.3541 194.615 10.1314 194.603 9.90815 194.603C8.81026 194.603 7.73115 194.889 6.78678 195.431C5.346 196.258 4.31534 197.594 3.88476 199.191C3.4539 200.789 3.67493 202.457 4.50696 203.89C5.6169 205.8 7.68464 206.986 9.9031 206.986C10.9545 206.986 11.993 206.719 12.9141 206.214L46.3356 207.244C47.4509 208.219 48.9101 208.779 50.414 208.779C50.547 208.779 50.682 208.774 50.8148 208.766C51.9646 208.692 53.0577 208.303 53.9822 207.65L91.5285 210.489C92.6438 211.459 94.0733 212 95.5777 212C95.7127 212 95.8489 211.996 95.9823 211.987C97.1185 211.913 98.2058 211.529 99.126 210.885L104.093 210.99V211.148L106.349 211.105L108.024 211.073L109.665 211.103L111.859 211.143L111.863 211.002L133.425 210.605C134.909 210.577 136.313 209.847 137.182 208.652L140.075 204.674L175.876 187.46C176.322 187.555 176.78 187.603 177.243 187.603C180.843 187.603 183.772 184.692 183.772 181.113C183.772 180.512 183.691 179.925 183.53 179.359L186.327 172.122C188.616 171.109 190.142 168.871 190.183 166.305L203.675 153.897L203.71 153.865L203.743 153.832L203.85 153.725L203.866 153.708L203.882 153.691C203.967 153.603 204.05 153.509 204.129 153.412L204.14 153.4L204.15 153.387L204.221 153.298L204.242 153.271L204.263 153.244C204.421 153.031 204.564 152.799 204.688 152.555C204.725 152.481 204.757 152.412 204.788 152.342C204.863 152.171 204.927 152 204.983 151.821C205.007 151.741 205.026 151.671 205.042 151.611C205.089 151.429 205.126 151.238 205.152 151.036L205.155 151.017L205.158 150.999L205.17 150.895L205.173 150.865L205.176 150.835C205.191 150.651 205.196 150.468 205.189 150.274L205.186 150.203L205.179 150.132L203.578 134.142C204.245 133.088 204.573 131.864 204.516 130.602L210.934 122.768C211.818 121.689 212.176 120.287 211.919 118.921" fill="#C0C0C0" fill-opacity="0.35"/>
<path d="M197.512 133.168L170.516 165.761L188.446 155.957L199.417 149.958L197.735 133.234C197.659 133.215 197.585 133.193 197.512 133.168Z" fill="#C0C0C0" fill-opacity="0.35"/>
<path d="M136.934 199.992L164.116 186.922L131.297 197.765L136.934 199.992Z" fill="#C0C0C0" fill-opacity="0.35"/>
<path d="M167.831 171.643C167.472 171.767 167.092 171.835 166.701 171.835C165.781 171.835 164.916 171.479 164.265 170.832C164.113 170.68 163.98 170.517 163.862 170.346L134.255 175.066C134.007 176.312 132.9 177.255 131.574 177.255C131.084 177.255 130.625 177.125 130.227 176.899L121.845 183.918L174.595 180.63C174.66 180.295 174.787 179.982 174.963 179.702L172.447 176.859L167.831 171.643Z" fill="#C0C0C0" fill-opacity="0.35"/>
<path d="M119.861 185.844L119.557 191.11C120.399 191.342 121.085 191.966 121.391 192.777L165.614 182.992L124.863 185.532L119.861 185.844Z" fill="#C0C0C0" fill-opacity="0.35"/>
<path d="M66.281 184.062L66.316 183.909L66.3235 183.877L60.2461 179.108L62.0415 192.895C63.0599 193.097 63.8524 193.953 63.939 195.014L91.5101 203.637L66.6737 184.151L66.281 184.062Z" fill="#C0C0C0" fill-opacity="0.35"/>
<path d="M35.0776 114.153L35.1908 111.28L48.6705 119.531C48.6747 119.553 48.6791 119.575 48.6839 119.598L34.7669 136.679L35.0776 114.153ZM33.6945 109.081L33.4965 114.112L33.123 141.195L50.4737 119.899C50.2465 119.506 50.1524 119.057 50.195 118.617L34.2106 108.834C34.0481 108.936 33.8752 109.019 33.6945 109.081Z" fill="#C0C0C0" fill-opacity="0.35"/>
<path d="M52.3209 115.092C51.9718 115.092 51.627 115.14 51.2956 115.234L44.8284 111.276L58.7393 113.294L53.8421 115.414C53.3664 115.203 52.8484 115.092 52.3209 115.092ZM37.4727 108.62L51.163 116.999C51.5062 116.782 51.904 116.664 52.3209 116.664C52.8414 116.664 53.3328 116.847 53.7241 117.18L64.4553 112.534L37.4727 108.62Z" fill="#C0C0C0" fill-opacity="0.35"/>
<path d="M51.3436 133.199L54.8787 131.451L52.6846 122.619L51.1758 133.068C51.2335 133.109 51.2895 133.153 51.3436 133.199Z" fill="#C0C0C0" fill-opacity="0.35"/>
<path d="M47.3406 132.369C46.8518 132.855 46.5136 133.462 46.3531 134.118L41.4271 136.554L48.4962 127.877L47.9152 131.902C47.7093 132.038 47.5165 132.195 47.3406 132.369ZM49.363 132.942L50.8769 122.457L35.623 141.18L47.8328 135.142C47.7939 134.546 48.0012 133.936 48.4589 133.481C48.7156 133.226 49.0251 133.043 49.363 132.942Z" fill="#C0C0C0" fill-opacity="0.35"/>
<path d="M56.4498 42.8733C56.9266 42.8733 57.3782 43.0326 57.7452 43.3244C59.9228 41.6859 62.3474 39.8492 64.1179 38.4833C63.9431 38.0545 63.8616 37.5973 63.8686 37.1412L48.3727 32.761L35.7559 97.3047L40.3525 86.5882L44.6925 76.1487L54.9491 46.3704C54.1695 45.5618 54.1784 44.2745 54.9788 43.4789C55.3718 43.0882 55.8943 42.8733 56.4498 42.8733Z" fill="#C0C0C0" fill-opacity="0.35"/>
<path d="M62.7817 117.824C62.3298 118.008 61.9175 118.281 61.5617 118.635C60.447 119.743 60.1699 121.378 60.7714 122.749L58.6157 128.031L58.0123 129.066L55.8053 120.182C55.861 120.064 55.9103 119.942 55.9532 119.818L63.2582 116.656L62.7817 117.824ZM54.5707 118.702C54.5514 119.154 54.3928 119.581 54.1143 119.933L57.0228 131.641C57.1301 132.073 56.925 132.513 56.5241 132.711L52.2066 134.846C52.1791 135.378 51.96 135.875 51.5782 136.254C51.1695 136.661 50.626 136.884 50.0478 136.884C49.6085 136.884 49.1894 136.754 48.8339 136.514L34.755 143.476C34.7889 143.889 34.7217 144.308 34.5547 144.695L47.6898 157.766C47.8652 157.704 48.0475 157.666 48.2333 157.652L62.5299 122.623C61.8399 121.779 61.8897 120.532 62.68 119.746C63.0277 119.401 63.4734 119.189 63.9544 119.133L66.0202 114.071C65.9328 114.005 65.8476 113.934 65.7681 113.855L54.5707 118.702Z" fill="#C0C0C0" fill-opacity="0.35"/>
<path d="M48.5281 106.617L54.8459 105.725C55.59 106.617 56.6733 107.18 57.8754 107.257C58.232 107.282 58.5825 107.26 58.9248 107.199L60.0681 108.291L48.5281 106.617ZM58.1601 105.695C58.1009 105.695 58.0413 105.692 57.981 105.689C56.9128 105.62 56.029 104.945 55.6399 104.026L37.4277 106.596L64.7191 110.555L59.3467 105.421C58.9865 105.595 58.5842 105.695 58.1601 105.695Z" fill="#C0C0C0" fill-opacity="0.35"/>
<path d="M43.4983 87.9246L44.1191 86.4768L53.7389 100.768L37.1878 103.103L43.4983 87.9246ZM34.8909 105.016L55.4994 102.108C55.6038 101.793 55.7638 101.505 55.9683 101.253L43.8095 83.1899L42.0432 87.3081L34.752 104.846C34.801 104.901 34.8475 104.957 34.8909 105.016Z" fill="#C0C0C0" fill-opacity="0.35"/>
<path d="M54.0338 92.4213L54.0256 92.3622L54.0338 92.4213ZM47.4395 85.4516L56.5326 98.9609L55.4933 91.4291L47.4395 85.4516Z" fill="#C0C0C0" fill-opacity="0.35"/>
<path d="M34.2572 38.6131C35.0682 39.4192 35.0682 40.7311 34.2572 41.5372C34.102 41.6918 33.9257 41.8173 33.7361 41.9142L33.7756 97.3047L46.4795 32.3163L31.5131 28.0859C31.2781 28.422 30.9669 28.7022 30.6035 28.8988L33.1161 38.0356C33.5461 38.1032 33.9431 38.301 34.2572 38.6131Z" fill="#C0C0C0" fill-opacity="0.35"/>
<path d="M26.7763 27.2638L9.75 27.5944L31.2544 38.5078L28.6502 29.0382C27.7568 28.8127 27.0439 28.1352 26.7763 27.2638Z" fill="#C0C0C0" fill-opacity="0.35"/>
<path d="M12.2148 200.121C12.2616 200.27 12.2936 200.423 12.3104 200.577L47.0995 201.648L32.5276 192.051L12.2148 200.121Z" fill="#C0C0C0" fill-opacity="0.35"/>
<path d="M33.6078 190.439L37.2023 192.807L48.7414 200.406L33.1719 150.299L33.6078 190.439Z" fill="#C0C0C0" fill-opacity="0.35"/>
<path d="M66.0121 40.4451C65.7188 40.3376 65.4414 40.1906 65.1857 40.006C63.1241 41.6005 60.3451 43.6981 58.4154 45.1478C58.3776 45.6206 58.1784 46.0831 57.8151 46.4437C57.8092 46.4496 57.8028 46.4549 57.7969 46.4604L66.2595 73.7031C66.1608 64.7553 65.9891 47.8124 66.0121 40.4451Z" fill="#C0C0C0" fill-opacity="0.35"/>
<path d="M59.145 195.51C59.1041 194.882 59.3114 194.276 59.7288 193.803C59.7288 193.803 59.7316 193.801 59.7319 193.8L48.0188 162.013C47.3916 161.924 46.8294 161.554 46.508 161.001C46.2307 160.524 46.157 159.967 46.3004 159.434C46.3035 159.423 46.308 159.412 46.3111 159.401L34.1602 147.31L42.1084 172.889L50.6684 200.438C51.027 200.478 51.3629 200.598 51.6565 200.781L59.1644 195.677C59.1568 195.622 59.1487 195.566 59.145 195.51Z" fill="#C0C0C0" fill-opacity="0.35"/>
<path d="M56.2852 87.5674L51.0146 83.6556L60.8555 83.4081L56.2852 87.5674ZM46.4082 82.1987L56.3877 89.6055L65.0414 81.73L46.4082 82.1987Z" fill="#C0C0C0" fill-opacity="0.35"/>
<path d="M65.8565 79.137C65.882 79.1117 65.9091 79.0894 65.9358 79.0657L56.2859 48.0023L46.3621 76.8141C46.3559 76.8322 46.3486 76.8509 46.3414 76.8687L44.9258 80.2734L65.4248 79.7577C65.5284 79.533 65.6705 79.3219 65.8565 79.137Z" fill="#C0C0C0" fill-opacity="0.35"/>
<path d="M93.0611 101.445L92.9698 94.8695L87.2935 87.1427L68.1133 86.6629L82.4846 97.0014L89.003 96.2292L93.0611 101.445Z" fill="#C0C0C0" fill-opacity="0.35"/>
<path d="M120.285 98.313L121.275 113.773L123.909 99.9679L126.729 96.3429L133.247 97.115L147.619 86.7766L128.438 87.2564L120.285 98.313Z" fill="#C0C0C0" fill-opacity="0.35"/>
<path d="M123.567 143.6L109.012 133.885L109.093 127.091L124.015 119.409L121.729 117.338L107.919 118.53L94.1084 117.338L91.823 119.409L106.745 127.091L106.826 133.885L92.271 143.6L88.6126 143.347L88.2305 149.477L101.505 140.93H107.919H114.333L127.608 149.477L127.387 143.233L123.567 143.6Z" fill="#C0C0C0" fill-opacity="0.35"/>
<path d="M101.049 164.383H114.553L107.889 158.585L101.049 164.383Z" fill="#C0C0C0" fill-opacity="0.35"/>
</svg>
