<svg width="29" height="28" viewBox="0 0 29 28" fill="none" xmlns="http://www.w3.org/2000/svg">
<path fill-rule="evenodd" clip-rule="evenodd" d="M14.989 0C7.25703 0 0.989014 6.26801 0.989014 14C0.989014 21.732 7.25703 28 14.989 28C22.721 28 28.989 21.732 28.989 14C28.989 6.26801 22.721 0 14.989 0ZM11.9114 6.57799C12.7079 6.54174 12.9624 6.53288 14.9902 6.53288H14.9879C17.0164 6.53288 17.2699 6.54174 18.0664 6.57799C18.8613 6.61439 19.4042 6.74024 19.8802 6.92488C20.3717 7.11544 20.7871 7.37055 21.2024 7.78589C21.6177 8.20092 21.8729 8.6175 22.0642 9.10859C22.2478 9.58335 22.3738 10.1259 22.4111 10.9208C22.4469 11.7173 22.4562 11.9718 22.4562 13.9996C22.4562 16.0275 22.4469 16.2813 22.4111 17.0778C22.3738 17.8724 22.2478 18.4151 22.0642 18.89C21.8729 19.381 21.6177 19.7975 21.2024 20.2126C20.7875 20.6279 20.3716 20.8836 19.8806 21.0744C19.4056 21.259 18.8624 21.3849 18.0675 21.4213C17.271 21.4575 17.0173 21.4664 14.9893 21.4664C12.9616 21.4664 12.7073 21.4575 11.9108 21.4213C11.1161 21.3849 10.5733 21.259 10.0983 21.0744C9.60749 20.8836 9.19091 20.6279 8.77604 20.2126C8.36085 19.7975 8.10574 19.381 7.91487 18.8899C7.73038 18.4151 7.60454 17.8725 7.56798 17.0776C7.53189 16.2812 7.52287 16.0275 7.52287 13.9996C7.52287 11.9718 7.5322 11.7171 7.56782 10.9207C7.6036 10.1261 7.7296 9.58335 7.91472 9.10844C8.10605 8.6175 8.36117 8.20092 8.7765 7.78589C9.19153 7.37071 9.60811 7.11559 10.0992 6.92488C10.574 6.74024 11.1165 6.61439 11.9114 6.57799Z" fill="black" fill-opacity="0.25"/>
<path fill-rule="evenodd" clip-rule="evenodd" d="M14.321 7.87784C14.451 7.87764 14.591 7.8777 14.7419 7.87777L14.9908 7.87784C16.9844 7.87784 17.2207 7.885 18.008 7.92078C18.736 7.95407 19.1311 8.07571 19.3943 8.17791C19.7428 8.31325 19.9912 8.47503 20.2524 8.73636C20.5137 8.9977 20.6755 9.24659 20.8111 9.59504C20.9133 9.85793 21.0351 10.253 21.0683 10.9811C21.104 11.7682 21.1118 12.0046 21.1118 13.9973C21.1118 15.99 21.104 16.2264 21.0683 17.0136C21.035 17.7416 20.9133 18.1367 20.8111 18.3996C20.6758 18.748 20.5137 18.9961 20.2524 19.2573C19.991 19.5187 19.7429 19.6804 19.3943 19.8158C19.1314 19.9184 18.736 20.0398 18.008 20.0731C17.2209 20.1088 16.9844 20.1166 14.9908 20.1166C12.997 20.1166 12.7607 20.1088 11.9736 20.0731C11.2456 20.0395 10.8505 19.9178 10.5871 19.8156C10.2387 19.6803 9.9898 19.5185 9.72846 19.2572C9.46712 18.9958 9.30534 18.7476 9.1697 18.399C9.0675 18.1361 8.9457 17.7409 8.91256 17.0129C8.87678 16.2258 8.86963 15.9894 8.86963 13.9954C8.86963 12.0015 8.87678 11.7663 8.91256 10.9792C8.94585 10.2512 9.0675 9.85606 9.1697 9.59286C9.30503 9.24441 9.46712 8.99552 9.72846 8.73419C9.9898 8.47285 10.2387 8.31107 10.5871 8.17542C10.8503 8.07276 11.2456 7.95142 11.9736 7.91798C12.6624 7.88687 12.9294 7.87753 14.321 7.87598V7.87784ZM18.9756 9.11945C18.4809 9.11945 18.0796 9.52032 18.0796 10.0152C18.0796 10.5098 18.4809 10.9112 18.9756 10.9112C19.4703 10.9112 19.8716 10.5098 19.8716 10.0152C19.8716 9.52048 19.4703 9.11914 18.9756 9.11914V9.11945ZM11.1559 14.0007C11.1559 11.8831 12.8727 10.1663 14.9903 10.1662C17.1079 10.1662 18.8243 11.8831 18.8243 14.0007C18.8243 16.1183 17.108 17.8344 14.9904 17.8344C12.8728 17.8344 11.1559 16.1183 11.1559 14.0007Z" fill="black" fill-opacity="0.25"/>
<path fill-rule="evenodd" clip-rule="evenodd" d="M14.9918 11.5127C16.3663 11.5127 17.4808 12.627 17.4808 14.0016C17.4808 15.3761 16.3663 16.4905 14.9918 16.4905C13.6172 16.4905 12.5029 15.3761 12.5029 14.0016C12.5029 12.627 13.6172 11.5127 14.9918 11.5127V11.5127Z" fill="black" fill-opacity="0.25"/>
</svg>
