<svg width="27" height="27" viewBox="0 0 27 27" fill="none" xmlns="http://www.w3.org/2000/svg">
<path d="M13.3346 0.175903C6.06833 0.175903 0.160209 6.15193 0.228119 13.2824C0.296028 20.5487 6.13624 26.3889 13.3346 26.3889C20.533 26.3889 26.4412 20.4808 26.4412 13.2824C26.5091 6.08402 20.533 0.175903 13.3346 0.175903ZM20.8047 17.6965C20.8047 19.4622 19.5823 20.6845 17.8167 20.6845C14.8286 20.6845 11.9085 20.6845 8.92053 20.6845C7.15488 20.6845 5.93251 19.4622 5.93251 17.6965C5.93251 14.7764 5.93251 11.7884 5.93251 8.86831C5.93251 7.03475 7.15488 5.81238 8.98843 5.81238C11.9085 5.81238 14.8286 5.81238 17.8167 5.81238C19.6502 5.81238 20.8726 7.03475 20.8726 8.86831C20.8726 10.3623 20.8726 11.7884 20.8726 13.2824C20.8047 14.7764 20.8047 16.2704 20.8047 17.6965Z" fill="#C3C3C3"/>
<path d="M7.35938 11.7887H9.53248C8.92129 13.826 9.39666 15.5237 11.2302 16.7461C12.6563 17.6968 14.2182 17.6289 15.5764 16.6782C17.3421 15.4558 17.7495 13.7581 17.2062 11.7887H19.3793C19.3793 11.9245 19.3793 11.9924 19.3793 12.1282C19.3793 14.0297 19.3793 15.8633 19.3793 17.7647C19.3793 18.7834 18.7682 19.3266 17.8174 19.3266C14.8973 19.3266 11.9093 19.3266 8.9892 19.3266C7.97056 19.3266 7.42728 18.7155 7.42728 17.7647C7.42728 15.8633 7.42728 14.0297 7.42728 12.1282V11.7887H7.35938Z" fill="#C3C3C3"/>
<path d="M13.335 15.9311C11.9089 15.9311 10.6865 14.7087 10.6865 13.2826C10.6865 11.8565 11.9089 10.6342 13.335 10.6342C14.7611 10.6342 15.9835 11.8565 15.9835 13.2826C15.9835 14.7087 14.7611 15.9311 13.335 15.9311Z" fill="#C3C3C3"/>
<path d="M19.1064 7.57837H16.5938V10.091H19.1064V7.57837Z" fill="#C3C3C3"/>
</svg>
