<svg width="29" height="28" viewBox="0 0 29 28" fill="none" xmlns="http://www.w3.org/2000/svg">
<path fill-rule="evenodd" clip-rule="evenodd" d="M14.9841 0C7.25214 0 0.984131 6.26801 0.984131 14C0.984131 21.732 7.25214 28 14.9841 28C22.7161 28 28.9841 21.732 28.9841 14C28.9841 6.26801 22.7161 0 14.9841 0ZM7.70483 11.596H10.8775V21.1287H7.70483V11.596ZM11.0861 8.64657C11.0655 7.7119 10.3971 7 9.31178 7C8.22642 7 7.51685 7.7119 7.51685 8.64657C7.51685 9.56188 8.20545 10.2943 9.2706 10.2943H9.29087C10.3971 10.2943 11.0861 9.56188 11.0861 8.64657ZM18.6664 11.3716C20.7542 11.3716 22.3194 12.7343 22.3194 15.6624L22.3193 21.1281H19.1467V16.0281C19.1467 14.7471 18.6876 13.873 17.539 13.873C16.6625 13.873 16.1404 14.4623 15.9111 15.0314C15.8272 15.2354 15.8066 15.5196 15.8066 15.8045V21.1283H12.6335C12.6335 21.1283 12.6754 12.4902 12.6335 11.5957H15.8066V12.9459C16.2277 12.2968 16.9819 11.3716 18.6664 11.3716Z" fill="black" fill-opacity="0.25"/>
</svg>
