<svg width="29" height="28" viewBox="0 0 29 28" fill="none" xmlns="http://www.w3.org/2000/svg">
<path fill-rule="evenodd" clip-rule="evenodd" d="M14.9951 0C7.26313 0 0.995117 6.26801 0.995117 14C0.995117 21.732 7.26313 28 14.9951 28C22.7271 28 28.9951 21.732 28.9951 14C28.9951 6.26801 22.7271 0 14.9951 0ZM14.6041 11.864L14.5747 11.3796C14.4865 10.124 15.2602 8.97722 16.4843 8.53233C16.9347 8.37415 17.6986 8.35438 18.198 8.49279C18.3938 8.5521 18.766 8.74983 19.0304 8.92779L19.5102 9.25404L20.039 9.08597C20.3328 8.99699 20.7245 8.84869 20.9008 8.74983C21.0672 8.66085 21.2141 8.61142 21.2141 8.64108C21.2141 8.80915 20.8518 9.38256 20.5482 9.69892C20.1369 10.1438 20.2545 10.1834 21.0868 9.88676C21.5863 9.71869 21.5961 9.71869 21.4981 9.90654C21.4394 10.0054 21.1358 10.3514 20.8126 10.6678C20.2642 11.2115 20.2349 11.2709 20.2349 11.7256C20.2349 12.4276 19.9019 13.8907 19.569 14.6915C18.952 16.1943 17.63 17.7464 16.308 18.5274C14.4474 19.6248 11.9698 19.9016 9.88397 19.259C9.18869 19.0415 7.99398 18.4879 7.99398 18.389C7.99398 18.3594 8.35631 18.3198 8.79698 18.3099C9.71749 18.2902 10.638 18.0331 11.4214 17.5784L11.9502 17.262L11.3431 17.0544C10.4813 16.7578 9.7077 16.0756 9.51185 15.433C9.45309 15.2254 9.47268 15.2155 10.0211 15.2155L10.589 15.2056L10.1092 14.9782C9.54123 14.6915 9.02221 14.2071 8.7676 13.7128C8.58154 13.3569 8.34652 12.4572 8.41506 12.388C8.43465 12.3584 8.6403 12.4177 8.87532 12.4968C9.55102 12.7439 9.63915 12.6846 9.24745 12.2694C8.51299 11.518 8.28776 10.4009 8.6403 9.34301L8.80677 8.86847L9.45309 9.51108C10.7751 10.8062 12.3321 11.5773 14.1144 11.8047L14.6041 11.864Z" fill="black" fill-opacity="0.25"/>
</svg>
