<svg width="29" height="28" viewBox="0 0 29 28" fill="none" xmlns="http://www.w3.org/2000/svg">
<path fill-rule="evenodd" clip-rule="evenodd" d="M14.9792 0C7.24726 0 0.979248 6.26801 0.979248 14C0.979248 21.732 7.24726 28 14.9792 28C22.7112 28 28.9792 21.732 28.9792 14C28.9792 6.26801 22.7112 0 14.9792 0ZM20.8129 9.18665C21.4555 9.36297 21.9615 9.8825 22.1332 10.5423C22.4453 11.738 22.4453 14.2329 22.4453 14.2329C22.4453 14.2329 22.4453 16.7277 22.1332 17.9235C21.9615 18.5833 21.4555 19.1028 20.8129 19.2792C19.6484 19.5995 14.9786 19.5995 14.9786 19.5995C14.9786 19.5995 10.3088 19.5995 9.14428 19.2792C8.50172 19.1028 7.99568 18.5833 7.82395 17.9235C7.51196 16.7277 7.51196 14.2329 7.51196 14.2329C7.51196 14.2329 7.51196 11.738 7.82395 10.5423C7.99568 9.8825 8.50172 9.36297 9.14428 9.18665C10.3088 8.86621 14.9786 8.86621 14.9786 8.86621C14.9786 8.86621 19.6484 8.86621 20.8129 9.18665Z" fill="black" fill-opacity="0.25"/>
<path fill-rule="evenodd" clip-rule="evenodd" d="M13.5801 16.7995V12.1328L17.3134 14.4662L13.5801 16.7995Z" fill="black" fill-opacity="0.25"/>
</svg>
