<svg width="27" height="27" viewBox="0 0 27 27" fill="none" xmlns="http://www.w3.org/2000/svg">
<path d="M13.2584 27C6.12793 27 0.0839844 21.0919 0.0839844 14.0294C0.0839844 6.4235 5.85629 0.515381 13.3942 0.515381C20.5247 0.515381 26.5687 6.4235 26.5687 13.4861C26.5687 21.0919 20.7964 26.9321 13.2584 27ZM13.3263 20.0733C15.4994 19.9375 17.6725 19.8696 19.8456 19.6658C21.0001 19.5979 21.6792 18.9188 21.8829 17.7644C22.3583 15.1838 22.2904 12.6033 21.9508 10.0227C21.7471 8.52869 21.068 7.91751 19.574 7.71378C18.9628 7.64587 18.2837 7.51005 17.6725 7.57796C14.0054 7.64587 10.3383 7.64587 6.67121 7.78169C5.51675 7.8496 4.83765 8.52869 4.63392 9.68315C4.15856 12.3995 4.15856 15.1159 4.63392 17.7644C4.83765 18.9188 5.58465 19.5979 6.73911 19.7337C8.98012 19.8696 11.1532 19.9375 13.3263 20.0733Z" fill="#C3C3C3"/>
<path d="M11.6279 16.3382V11.1091C13.1219 11.992 14.616 12.8069 16.1779 13.6897C14.616 14.6404 13.1219 15.4553 11.6279 16.3382Z" fill="#C3C3C3"/>
</svg>
