<svg width="47" height="46" viewBox="0 0 47 46" fill="none" xmlns="http://www.w3.org/2000/svg">
<g opacity="0.5">
<path d="M30.6356 29.5704C29.506 29.5704 28.5871 28.7869 28.5871 27.8238C28.5871 26.8607 29.506 26.0772 30.6356 26.0772C31.7651 26.0772 32.6841 26.8607 32.6841 27.8238C32.6841 28.3304 33.1011 28.7411 33.6152 28.7411C34.1294 28.7411 34.5464 28.3304 34.5464 27.8238C34.5464 26.1429 33.275 24.7296 31.5667 24.346V23.8689C31.5667 23.3624 31.1498 22.9517 30.6356 22.9517C30.1214 22.9517 29.7044 23.3624 29.7044 23.8689V24.346C27.9962 24.7296 26.7248 26.1429 26.7248 27.8238C26.7248 29.7985 28.4792 31.405 30.6356 31.405C31.7651 31.405 32.6841 32.1885 32.6841 33.1516C32.6841 34.1148 31.7651 34.8983 30.6356 34.8983C29.506 34.8983 28.5871 34.1148 28.5871 33.1516C28.5871 32.6451 28.1701 32.2344 27.6559 32.2344C27.1418 32.2344 26.7248 32.6451 26.7248 33.1516C26.7248 34.8325 27.9962 36.2459 29.7044 36.6295V37.0257C29.7044 37.5323 30.1214 37.943 30.6356 37.943C31.1498 37.943 31.5667 37.5323 31.5667 37.0257V36.6295C33.275 36.2459 34.5464 34.8325 34.5464 33.1516C34.5464 31.1769 32.792 29.5704 30.6356 29.5704Z" fill="white"/>
<path d="M40.5455 24.1099C39.3854 22.2403 37.7511 20.7443 35.8191 19.7837C35.377 19.5638 34.8463 19.7563 34.6339 20.2136C34.4214 20.6708 34.6075 21.2195 35.0495 21.4393C38.4162 23.1131 40.5915 26.6897 40.5915 30.5508C40.5915 32.203 40.1977 33.8415 39.4529 35.2894C39.2226 35.7372 39.3868 36.2934 39.8198 36.5317C39.9526 36.6048 40.0954 36.6395 40.2361 36.6395C40.5538 36.6395 40.8612 36.4626 41.0209 36.1522C41.9019 34.4398 42.3676 32.5028 42.3676 30.5508C42.3676 28.2583 41.7375 26.031 40.5455 24.1099Z" fill="white"/>
<path d="M32.2988 18.3893L32.235 18.3892C31.7115 18.3892 31.287 18.8269 31.287 19.3668C31.287 19.9068 31.7115 20.3445 32.235 20.3445L32.2899 20.3446C32.2914 20.3446 32.2928 20.3446 32.2944 20.3446C32.816 20.3446 33.2399 19.9099 33.2424 19.3715C33.2447 18.8315 32.8223 18.3918 32.2988 18.3893Z" fill="white"/>
<path d="M26.8732 39.4555C23.5066 37.7815 21.3313 34.205 21.3313 30.3439C21.3313 28.6917 21.7251 27.0532 22.4699 25.6053C22.7002 25.1576 22.536 24.6013 22.103 24.3631C21.6702 24.1248 21.1322 24.2946 20.9019 24.7425C20.0209 26.455 19.5552 28.3919 19.5552 30.3439C19.5552 32.6365 20.1853 34.8637 21.3773 36.7849C22.5374 38.6545 24.1718 40.1505 26.1037 41.1112C26.2278 41.1729 26.3589 41.202 26.4879 41.202C26.8186 41.202 27.136 41.0101 27.2889 40.6813C27.5013 40.2241 27.3153 39.6753 26.8732 39.4555Z" fill="white"/>
<path d="M29.6868 40.5504L29.632 40.5502C29.1059 40.5492 28.6819 40.9832 28.6796 41.5232C28.6771 42.0631 29.0998 42.5028 29.6233 42.5054L29.6868 42.5056C30.2104 42.5056 30.635 42.0678 30.635 41.528C30.635 40.9881 30.2104 40.5504 29.6868 40.5504Z" fill="white"/>
<path fill-rule="evenodd" clip-rule="evenodd" d="M34.6157 14.9266C34.7725 15.1552 34.9073 15.4016 35.0173 15.6631C41.5035 17.4588 46.2786 23.4011 46.2786 30.4358C46.2786 38.8881 39.3856 45.7646 30.913 45.7646C26.4896 45.7646 22.4977 43.8897 19.6915 40.8954H9.03956C6.74702 40.8954 4.88181 39.0347 4.88181 36.7476C4.88181 35.4341 5.4977 34.262 6.45588 33.5015C5.4977 32.741 4.88181 31.5689 4.88181 30.2554C4.88181 28.9419 5.4977 27.7698 6.45588 27.0093C5.4977 26.2488 4.88181 25.0767 4.88181 23.7632C4.88181 22.4497 5.4977 21.2776 6.45588 20.5171C5.4977 19.7566 4.88181 18.5845 4.88181 17.271C4.88181 14.9839 6.74702 13.1232 9.03956 13.1232H11.3968C10.9366 12.4558 10.6665 11.6483 10.6665 10.7788C10.6665 9.90929 10.9367 9.10182 11.3968 8.43439H4.15873C1.86618 8.43439 0.000976562 6.57365 0.000976562 4.28659C0.000976562 1.99953 1.86618 0.138794 4.15873 0.138794H26.3033C28.5958 0.138794 30.461 1.99953 30.461 4.28659C30.461 5.1561 30.1908 5.96356 29.7307 6.631H36.9688C39.2613 6.631 41.1265 8.49174 41.1265 10.7788C41.1265 13.0659 39.2613 14.9266 36.9688 14.9266H34.6157ZM39.3188 10.7788C39.3188 9.4861 38.2646 8.43436 36.9688 8.43436H14.8242C13.5284 8.43436 12.4742 9.4861 12.4742 10.7788C12.4742 12.0714 13.5284 13.1232 14.8242 13.1232H31.1841H36.9688C38.2646 13.1232 39.3188 12.0714 39.3188 10.7788ZM4.15912 6.63092C2.86326 6.63092 1.80909 5.57919 1.80909 4.28652C1.80909 2.99385 2.86326 1.94211 4.15912 1.94211H26.3037C27.5995 1.94211 28.6537 2.99385 28.6537 4.28652C28.6537 5.57919 27.5995 6.63092 26.3037 6.63092H4.15912ZM31.1844 14.9265H9.0399C7.74413 14.9265 6.68987 15.9782 6.68987 17.2709C6.68987 18.5635 7.74413 19.6153 9.0399 19.6153H20.04C22.8234 16.8318 26.6702 15.1069 30.9134 15.1069C31.3501 15.1069 31.7823 15.1262 32.2099 15.162C31.8971 15.0109 31.5485 14.9265 31.1844 14.9265ZM9.0399 21.4187H18.4956C17.4696 22.8211 16.6762 24.4029 16.1724 26.1075H9.0399C7.74404 26.1075 6.68987 25.0559 6.68987 23.7631C6.68987 22.4705 7.74404 21.4187 9.0399 21.4187ZM15.7574 27.911H9.0399C7.74404 27.911 6.68987 28.9626 6.68987 30.2554C6.68987 31.5481 7.74404 32.5998 9.0399 32.5998H15.7016C15.601 31.8926 15.5478 31.1703 15.5478 30.4358C15.5478 29.5759 15.6203 28.7327 15.7574 27.911ZM9.0399 39.0919C7.74404 39.0919 6.68987 38.0402 6.68987 36.7475C6.68987 35.4547 7.74404 34.4031 9.0399 34.4031H16.0707C16.5267 36.0994 17.2676 37.6804 18.2393 39.0919H9.0399ZM17.355 30.4358C17.355 37.8937 23.437 43.9612 30.9129 43.9612C38.3887 43.9612 44.4707 37.8937 44.4707 30.4358C44.4707 22.9779 38.3887 16.9104 30.9129 16.9104C23.437 16.9104 17.355 22.9779 17.355 30.4358Z" fill="white"/>
</g>
</svg>
