<svg width="44" height="50" viewBox="0 0 44 50" fill="none" xmlns="http://www.w3.org/2000/svg">
<g opacity="0.5">
<path d="M21.9374 27.1499C21.8479 27.1306 21.7561 27.1272 21.6654 27.1407C20.7569 27.0355 20.0715 26.2716 20.07 25.3629C20.07 24.9274 19.7147 24.5743 19.2765 24.5743C18.8383 24.5743 18.4831 24.9274 18.4831 25.3629C18.4854 26.8804 19.5066 28.2096 20.9789 28.6112V29.3998C20.9789 29.8353 21.3341 30.1884 21.7723 30.1884C22.2105 30.1884 22.5658 29.8353 22.5658 29.3998V28.6589C24.265 28.3055 25.42 26.7325 25.2414 25.0163C25.0624 23.3001 23.6076 21.9959 21.8715 21.9955C20.8766 21.9955 20.07 21.1939 20.07 20.205C20.07 19.2162 20.8766 18.4145 21.8715 18.4145C22.8664 18.4145 23.6731 19.2162 23.6731 20.205C23.6731 20.6405 24.0283 20.9936 24.4665 20.9936C24.9047 20.9936 25.26 20.6405 25.26 20.205C25.2576 18.6117 24.1345 17.2374 22.5658 16.9086V16.1908C22.5658 15.7553 22.2105 15.4022 21.7723 15.4022C21.3341 15.4022 20.9789 15.7553 20.9789 16.1908V16.9567C19.3416 17.401 18.2878 18.9809 18.5133 20.6528C18.7388 22.3248 20.1742 23.5727 21.8715 23.5723C22.8533 23.5723 23.6541 24.3536 23.6719 25.329C23.6901 26.3043 22.9183 27.1145 21.9374 27.1499V27.1499Z" fill="white"/>
<path fill-rule="evenodd" clip-rule="evenodd" d="M22.1788 34.501C15.7138 34.501 10.4731 29.2603 10.4731 22.7953C10.4806 16.3335 15.717 11.0967 22.1788 11.0896C28.6438 11.0896 33.8845 16.3303 33.8845 22.7953C33.8845 29.2603 28.6438 34.501 22.1788 34.501ZM32.2698 22.7953C32.2698 17.2219 27.752 12.7041 22.1786 12.7041C16.6079 12.7104 12.0936 17.2247 12.0873 22.7953C12.0873 28.3687 16.6052 32.8866 22.1786 32.8866C27.752 32.8866 32.2698 28.3687 32.2698 22.7953Z" fill="white"/>
<path fill-rule="evenodd" clip-rule="evenodd" d="M38.2039 36.5546L31.8244 39.607C30.9436 37.9479 29.254 36.8921 27.3945 36.8389L21.5053 36.675C20.5728 36.648 19.6578 36.4088 18.8287 35.9752L18.2295 35.6607C15.1612 34.0411 11.504 34.0451 8.43888 35.6711L8.47626 34.2964C8.48859 33.8409 8.13428 33.4616 7.68454 33.4491L1.22667 33.2691C0.776926 33.2566 0.402736 33.6154 0.390409 34.0709L0.000312151 48.4217C-0.012015 48.8772 0.342293 49.2565 0.792037 49.269L7.2499 49.449H7.27217C7.71356 49.449 8.07463 49.0934 8.08656 48.6468L8.10525 47.9603L9.78294 47.0506C10.4415 46.6918 11.2113 46.6064 11.9307 46.8126L21.9491 49.66C21.9666 49.6652 21.9841 49.6693 22.002 49.6733C22.7261 49.8267 23.4642 49.9036 24.2038 49.9032C25.7705 49.904 27.319 49.5621 28.743 48.9001C28.778 48.884 28.8118 48.8651 28.844 48.8438L43.3698 39.3291C43.7317 39.0919 43.8486 38.6107 43.6366 38.2306C42.5582 36.2929 40.1663 35.5548 38.2039 36.5546ZM1.65045 47.6429L1.99562 34.9406L6.8251 35.0751L6.47994 47.7778L1.65045 47.6429ZM22.362 48.0654C24.2636 48.4588 26.2395 48.2357 28.0087 47.4271L41.742 38.4307C40.9785 37.7152 39.8563 37.5561 38.9282 38.0317C38.9218 38.0349 38.9155 38.0381 38.9091 38.0409L32.3657 41.1718C32.4282 41.5246 32.4544 41.8834 32.4445 42.2417C32.4325 42.6879 32.0719 43.0435 31.6309 43.0439H31.6082L21.927 42.7741C21.4776 42.7616 21.1229 42.3823 21.1353 41.9269C21.148 41.4718 21.5222 41.1126 21.9719 41.1251L30.7445 41.3703C30.4089 39.729 29.004 38.5362 27.3498 38.4879L21.4601 38.324C20.2819 38.2894 19.1267 37.9874 18.0793 37.4397L17.48 37.1252C14.5867 35.5987 11.1025 35.7867 8.38575 37.6165L8.1563 46.062L9.01364 45.5969C10.0424 45.0368 11.2461 44.9035 12.3706 45.2252L22.362 48.0654Z" fill="white"/>
<path d="M23.4105 9.00027V0.857169C23.4105 0.383801 22.9967 0 22.4863 0C21.976 0 21.5622 0.383801 21.5622 0.857169V9.00027C21.5622 9.47364 21.976 9.85744 22.4863 9.85744C22.9967 9.85744 23.4105 9.47364 23.4105 9.00027Z" fill="white"/>
<path d="M29.5722 9.00451V5.16579C29.5722 4.6947 29.1584 4.31274 28.6481 4.31274C28.1377 4.31274 27.7239 4.6947 27.7239 5.16579V9.00451C27.7239 9.4756 28.1377 9.85755 28.6481 9.85755C29.1584 9.85755 29.5722 9.4756 29.5722 9.00451Z" fill="white"/>
<path d="M17.2498 9.00451V5.16579C17.2498 4.6947 16.836 4.31274 16.3257 4.31274C15.8153 4.31274 15.4016 4.6947 15.4016 5.16579V9.00451C15.4016 9.4756 15.8153 9.85755 16.3257 9.85755C16.836 9.85755 17.2498 9.4756 17.2498 9.00451Z" fill="white"/>
</g>
</svg>
