<svg width="36" height="50" viewBox="0 0 36 50" fill="none" xmlns="http://www.w3.org/2000/svg">
<g opacity="0.5">
<path fill-rule="evenodd" clip-rule="evenodd" d="M31.4207 17.2506C31.4207 24.396 25.6282 30.1885 18.4828 30.1885C11.3404 30.1814 5.55208 24.3931 5.54492 17.2506C5.54492 10.1052 11.3374 4.31274 18.4828 4.31274C25.6282 4.31274 31.4207 10.1052 31.4207 17.2506ZM29.9556 17.2543C29.9556 10.9182 24.8192 5.78186 18.4832 5.78186C12.1496 5.78786 7.01674 10.9207 7.01074 17.2543C7.01074 23.5903 12.1471 28.7267 18.4832 28.7267C24.8192 28.7267 29.9556 23.5903 29.9556 17.2543Z" fill="white"/>
<path fill-rule="evenodd" clip-rule="evenodd" d="M12.254 23.6885L13.856 18.8823L10.6856 15.7118C10.4778 15.5044 10.4155 15.1921 10.5279 14.9209C10.6402 14.6496 10.905 14.4728 11.1986 14.473H15.9071L17.4854 9.73734C17.5842 9.44111 17.8615 9.24133 18.1738 9.24133C18.4861 9.24133 18.7633 9.44111 18.8622 9.73734L20.4405 14.473H25.1489C25.4425 14.4728 25.7074 14.6496 25.8197 14.9209C25.932 15.1921 25.8697 15.5044 25.6619 15.7118L22.4916 18.8823L24.0935 23.6885C24.1915 23.9827 24.0918 24.3065 23.8454 24.4946C23.5991 24.6828 23.2604 24.6937 23.0025 24.5217L18.1738 21.3022L13.3451 24.5217C13.0872 24.6937 12.7485 24.6828 12.5021 24.4946C12.2558 24.3065 12.1561 23.9827 12.254 23.6885ZM17.1199 15.4269C17.0217 15.7238 16.7443 15.9244 16.4316 15.9246L12.9502 15.9238L15.1991 18.1724C15.3933 18.3667 15.461 18.6541 15.3741 18.9147L14.2992 22.14L17.7706 19.8255C18.0144 19.6628 18.3321 19.6628 18.5759 19.8255L22.0494 22.1433L20.9745 18.9181C20.8876 18.6574 20.9553 18.37 21.1495 18.1757L23.3984 15.9271H19.9171C19.6043 15.9269 19.327 15.7263 19.2287 15.4294L18.1733 12.2622L17.1199 15.4269Z" fill="white"/>
<path fill-rule="evenodd" clip-rule="evenodd" d="M28.8749 30.2267L35.6569 44.0664L35.6581 44.0668C35.7887 44.3334 35.7465 44.6527 35.5513 44.8758C35.3561 45.099 35.0462 45.1821 34.7662 45.0865L28.2463 42.8583L26.0278 49.4067C25.9324 49.688 25.6778 49.8839 25.3825 49.9033H25.3353C25.0567 49.9032 24.8023 49.7442 24.6791 49.4932L17.8666 35.5938L11.0541 49.4919C10.9309 49.7429 10.6765 49.9019 10.3979 49.902H10.3507C10.0554 49.8827 9.80074 49.6868 9.70538 49.4054L7.48693 42.8571L0.966972 45.0852C0.686967 45.1809 0.377154 45.0977 0.181946 44.8746C-0.0132622 44.6514 -0.0554388 44.3321 0.0750757 44.0656L6.85708 30.2259C5.76854 30.0098 4.98344 29.0517 4.98176 27.9373V26.5579C4.98206 26.2085 4.77224 25.8935 4.45055 25.7604L3.18459 25.2311C2.61519 24.9946 2.16266 24.5406 1.92657 23.969C1.69049 23.3974 1.69019 22.755 1.92574 22.1831L2.45402 20.9016C2.58769 20.5787 2.51388 20.2068 2.2672 19.96L1.29088 18.9795C0.385334 18.0676 0.385334 16.5916 1.29088 15.6797L2.2626 14.7041C2.509 14.4572 2.58247 14.0853 2.44859 13.7626L1.92281 12.4882C1.43092 11.2986 1.99225 9.93365 3.17665 9.43943L4.45222 8.90801C4.7739 8.77496 4.98361 8.45985 4.98301 8.11045V6.72522C4.98439 5.43721 6.02353 4.39335 7.30595 4.39174H8.68016C9.02814 4.39226 9.34192 4.18145 9.47426 3.85821L9.9992 2.58212C10.49 1.39175 11.8484 0.826001 13.0339 1.3182L14.3103 1.85005C14.6315 1.98445 15.0018 1.91048 15.2473 1.66283L16.2241 0.682256C17.1318 -0.227419 18.6014 -0.227419 19.5091 0.682256L20.4809 1.65737C20.727 1.90482 21.0975 1.97873 21.4191 1.84459L22.6868 1.3182C23.2558 1.08043 23.8955 1.07954 24.4652 1.31573C25.0349 1.55193 25.4877 2.00583 25.724 2.5775L26.2518 3.85863C26.3843 4.18171 26.6981 4.39233 27.0459 4.39174H28.4285C29.7109 4.39335 30.7501 5.43721 30.7515 6.72522V8.10541C30.7512 8.45484 30.961 8.76987 31.2827 8.90297L32.5528 9.43062C33.1222 9.66709 33.5747 10.1211 33.8108 10.6927C34.0469 11.2643 34.0472 11.9067 33.8117 12.4785L33.2834 13.7601C33.1497 14.0829 33.2235 14.4549 33.4702 14.7016L34.4465 15.6818C35.3518 16.5938 35.3518 18.0696 34.4465 18.9816L33.4748 19.9571C33.2283 20.204 33.1548 20.576 33.2888 20.8986L33.8125 22.1752C34.0486 22.7467 34.0489 23.3891 33.8134 23.9608C33.5778 24.5326 33.1257 24.987 32.5566 25.2239L31.281 25.7554C30.9592 25.8883 30.7495 26.2035 30.7502 26.5529V27.9381C30.7485 29.0526 29.9634 30.0107 28.8749 30.2267ZM6.44518 26.5587V27.938C6.4468 28.415 6.83249 28.8007 7.3074 28.8002H8.68663C9.62644 28.7986 10.4741 29.3674 10.8324 30.24L11.3615 31.5241C11.4487 31.7358 11.6162 31.904 11.827 31.9916C12.0378 32.0792 12.2746 32.0791 12.4853 31.9913L13.7542 31.4628C14.6219 31.0988 15.6225 31.2978 16.2866 31.9665L17.2574 32.9421C17.5981 33.2683 18.1338 33.2683 18.4745 32.9421L19.4508 31.9611C20.1146 31.2933 21.1143 31.0943 21.9815 31.4574L23.2575 31.9854C23.4684 32.0731 23.7055 32.0729 23.9163 31.9849C24.1271 31.8969 24.2945 31.7282 24.3813 31.5161L24.9063 30.2413C25.2642 29.3679 26.1124 28.7985 27.0528 28.8002H28.4283C28.903 28.7995 29.2877 28.4132 29.2884 27.9363V26.5511C29.2868 25.6072 29.8529 24.7558 30.7216 24.3956L31.9971 23.8646C32.2079 23.7769 32.3754 23.6086 32.4626 23.3968C32.5499 23.185 32.5498 22.9471 32.4623 22.7354L31.9365 21.461C31.574 20.5896 31.7722 19.5845 32.4381 18.9177L33.4089 17.9425C33.7445 17.605 33.7445 17.0582 33.4089 16.7206L32.4326 15.74C31.7668 15.0736 31.5676 14.0692 31.9286 13.1975L32.4585 11.9164C32.5459 11.7046 32.5459 11.4667 32.4585 11.255C32.3711 11.0432 32.2035 10.8751 31.9925 10.7876L30.7216 10.2591C29.8528 9.90018 29.286 9.04966 29.2868 8.10614V6.72679C29.2861 6.2499 28.9014 5.86341 28.4266 5.86249H27.0453C26.1056 5.86429 25.2579 5.29565 24.8996 4.42311L24.3705 3.1424C24.2834 2.93055 24.1159 2.7622 23.9051 2.67447C23.6943 2.58675 23.4574 2.58686 23.2466 2.67478L21.9777 3.20326C21.1097 3.56686 20.1089 3.36696 19.4454 2.69744L18.4745 1.72233C18.1338 1.39611 17.5981 1.39611 17.2574 1.72233L16.2811 2.70332C15.6172 3.37087 14.6177 3.56982 13.7505 3.20704L12.4745 2.6773C12.2634 2.58985 12.0264 2.59021 11.8156 2.67831C11.6049 2.7664 11.4376 2.93501 11.3506 3.14701L10.8257 4.42143C10.4678 5.29492 9.61956 5.86436 8.6791 5.86249H7.30532C6.8305 5.86341 6.44587 6.2499 6.44518 6.72679V8.11202C6.44681 9.0559 5.88072 9.90733 5.01205 10.2675L3.73648 10.7985C3.52559 10.8862 3.35806 11.0544 3.2708 11.2663C3.18355 11.4781 3.18373 11.716 3.2713 11.9277L3.79541 13.2C4.15796 14.0714 3.95976 15.0765 3.29387 15.7434L2.32298 16.7189C1.98739 17.0565 1.98739 17.6033 2.32298 17.9409L3.29931 18.9248C3.96521 19.591 4.16434 20.5953 3.80335 21.4669L3.27548 22.7468C3.18809 22.9585 3.18809 23.1964 3.27551 23.4082C3.36292 23.6199 3.53056 23.788 3.74149 23.8755L5.01038 24.4028C5.88015 24.7621 6.44716 25.6141 6.44518 26.5587ZM10.5215 47.2532L8.63651 41.6892C8.57413 41.5046 8.44122 41.3526 8.2671 41.2665C8.09298 41.1804 7.89192 41.1674 7.70826 41.2304L2.16797 43.124L8.46683 30.2711H8.68667C9.03448 30.2707 9.34811 30.4813 9.48077 30.8042L10.0086 32.087C10.5011 33.2762 11.8597 33.8399 13.0442 33.3463L14.3135 32.8187C14.6351 32.6842 15.0057 32.7581 15.2518 33.0059L16.2226 33.981C16.3977 34.152 16.5989 34.2937 16.8186 34.4008L10.5215 47.2532ZM27.4645 41.2666C27.6386 41.1805 27.8397 41.1675 28.0233 41.2305L33.5632 43.1253L27.2643 30.2725H27.052C26.7039 30.272 26.3901 30.483 26.2579 30.8064L25.733 32.0804C25.2423 33.2712 23.8836 33.8372 22.6979 33.3447L21.4219 32.8142C21.1006 32.6797 20.7302 32.7539 20.4848 33.0018L19.5081 33.9824C19.333 34.1533 19.1318 34.2951 18.9121 34.4021L25.2101 47.2533L27.0951 41.6893C27.1575 41.5047 27.2904 41.3526 27.4645 41.2666Z" fill="white"/>
</g>
</svg>
