<svg width="41" height="41" viewBox="0 0 41 41" fill="none" xmlns="http://www.w3.org/2000/svg">
<g opacity="0.5">
<path fill-rule="evenodd" clip-rule="evenodd" d="M15.2721 29.6266C15.2138 29.6104 15.1542 29.6013 15.0941 29.5982C15.977 28.6963 16.5207 27.4779 16.5207 26.1377V22.0161C16.5207 21.9785 16.517 21.9417 16.5117 21.9055C16.5171 21.8311 16.5207 21.7562 16.5207 21.6805V19.0729C16.5207 18.6403 16.1599 18.2896 15.7147 18.2896H10.3088C8.03237 18.2896 6.18041 20.0897 6.18041 22.3023V26.1377C6.18041 27.4779 6.72403 28.6963 7.60697 29.5982C7.54701 29.6013 7.48737 29.6104 7.42918 29.6266C3.6204 29.9618 0.625977 33.0821 0.625977 36.87V40.2169C0.625977 40.6496 0.98681 41.0003 1.43195 41.0003H21.2691C21.7142 41.0003 22.075 40.6496 22.075 40.2169V36.87C22.075 33.0822 19.0808 29.9619 15.2721 29.6266ZM7.79124 23.2957V22.3022C7.79124 20.9535 8.92017 19.8562 10.3077 19.8562H14.9076V21.6804C14.9076 22.5988 14.139 23.3459 13.1941 23.3459H7.79124V23.2957ZM13.1941 24.9128H7.79124V26.1376C7.79124 28.0447 9.38747 29.5962 11.3494 29.5962C13.3114 29.5962 14.9076 28.0447 14.9076 26.1376V24.4495C14.4069 24.7434 13.8205 24.9128 13.1941 24.9128ZM13.1057 31.1629L11.3516 32.868L9.59735 31.1629H13.1057ZM2.2381 37.8667V39.4335H20.4634V36.8699C20.4634 33.9682 18.2231 31.567 15.3358 31.2103L11.9206 34.5298C11.7695 34.6767 11.5645 34.7593 11.3507 34.7593C11.137 34.7593 10.9319 34.6767 10.7808 34.5298L7.36568 31.2103C4.66979 31.5434 2.53824 33.6587 2.26751 36.2999H5.58287C6.02801 36.2999 6.38885 36.6507 6.38885 37.0833C6.38885 37.516 6.02801 37.8667 5.58287 37.8667H2.2381Z" fill="white"/>
<path fill-rule="evenodd" clip-rule="evenodd" d="M34.0194 11.9343C34.0796 11.9375 34.1393 11.9466 34.1976 11.9627C38.0061 12.2981 41.0003 15.4184 41.0003 19.2061V22.553C41.0003 22.9857 40.6395 23.3364 40.1944 23.3364H33.4511C33.0059 23.3364 32.6451 22.9857 32.6451 22.553C32.6451 22.1203 33.0059 21.7696 33.4511 21.7696H39.3884V19.2061C39.3884 16.3043 37.1482 13.9032 34.2607 13.5465L30.8456 16.866C30.6883 17.019 30.482 17.0954 30.2757 17.0954C30.0695 17.0954 29.8632 17.019 29.7058 16.866L26.2907 13.5465C23.4034 13.9032 21.1632 16.3043 21.1632 19.2061V21.7695H26.8421C27.2872 21.7695 27.648 22.1202 27.648 22.5529C27.648 22.9856 27.2872 23.3363 26.8421 23.3363H20.3572C19.9121 23.3363 19.5513 22.9856 19.5513 22.5529V19.206C19.5513 15.4183 22.5454 12.298 26.354 11.9626C26.4123 11.9465 26.4721 11.9374 26.5322 11.9343C25.6493 11.0323 25.1057 9.81394 25.1057 8.47371V4.63838C25.1057 2.42577 26.9576 0.62561 29.2341 0.62561H34.64C35.0851 0.62561 35.4459 0.976335 35.4459 1.409V4.0166C35.4459 4.09228 35.4423 4.16717 35.437 4.24159C35.4422 4.27778 35.4459 4.31453 35.4459 4.35221V8.47379C35.4459 9.81402 34.9023 11.0324 34.0194 11.9343ZM28.5223 13.4989L30.2765 15.2039L32.0306 13.4989H28.5223ZM33.8343 8.4736C33.8343 10.3806 32.238 11.9321 30.2761 11.9321C28.3141 11.9321 26.7179 10.3807 26.7179 8.47368V7.24877H32.1208C32.7472 7.24877 33.3335 7.07932 33.8343 6.78547V8.4736ZM32.1208 5.68212C33.0656 5.68212 33.8343 4.93499 33.8343 4.01662V2.19242H29.2344C27.8468 2.19242 26.7179 3.28971 26.7179 4.6384V5.6319V5.68212H32.1208Z" fill="white"/>
<path d="M30.7216 22.2595C30.6043 22.1422 30.4415 22.0747 30.2756 22.0747C30.1091 22.0747 29.9469 22.1422 29.8296 22.2595C29.7116 22.3769 29.6447 22.5396 29.6447 22.7056C29.6447 22.8721 29.7116 23.0342 29.8296 23.1516C29.9469 23.2695 30.1091 23.3364 30.2756 23.3364C30.4415 23.3364 30.6043 23.2695 30.7216 23.1516C30.839 23.0342 30.9065 22.8721 30.9065 22.7056C30.9065 22.5396 30.839 22.3769 30.7216 22.2595Z" fill="white"/>
<path fill-rule="evenodd" clip-rule="evenodd" d="M18.5245 8.19749L21.8427 11.4252C22.0695 11.6459 22.1374 11.978 22.0146 12.2663C21.8918 12.5546 21.6024 12.7427 21.2816 12.7427H18.2281C17.628 14.1777 16.1976 15.1353 14.5573 15.1353H4.59312C2.40564 15.1353 0.625977 13.4041 0.625977 11.2763V4.48456C0.625977 2.35674 2.40564 0.62561 4.59312 0.62561H14.5573C16.7448 0.62561 18.5245 2.35674 18.5245 4.48456V8.19749ZM16.8762 11.7978C16.9592 11.4473 17.2799 11.199 17.6495 11.199H19.3663L17.1701 9.06279C17.0214 8.91808 16.9377 8.72174 16.9377 8.51706V4.48446C16.9377 3.20776 15.8699 2.16908 14.5574 2.16908H4.59332C3.28083 2.16908 2.21303 3.20776 2.21303 4.48446V11.2762C2.21303 12.5529 3.28083 13.5916 4.59332 13.5916H14.5574C15.673 13.5916 16.6265 12.8539 16.8762 11.7978Z" fill="white"/>
<path fill-rule="evenodd" clip-rule="evenodd" d="M27.0691 26.4906H37.0332C39.2207 26.4906 41.0003 28.2217 41.0003 30.3496V37.1413C41.0003 39.2691 39.2207 41.0003 37.0332 41.0003H27.069C24.8815 41.0003 23.1018 39.2691 23.1018 37.1413V33.4284L19.7836 30.2007C19.5568 29.9799 19.4889 29.6479 19.6117 29.3596C19.7345 29.0712 20.0239 28.8832 20.3447 28.8832H23.3982C23.9983 27.4482 25.4287 26.4906 27.0691 26.4906ZM37.0334 39.4568C38.3459 39.4568 39.4137 38.4181 39.4137 37.1414V30.3497C39.4137 29.073 38.3459 28.0343 37.0334 28.0343H27.0693C25.9538 28.0343 25.0003 28.772 24.7505 29.8281C24.6676 30.1786 24.3469 30.4268 23.9772 30.4268H22.2605L24.4566 32.5631C24.6054 32.7078 24.689 32.9041 24.689 33.1088V37.1414C24.689 38.4181 25.7568 39.4568 27.0693 39.4568H37.0334Z" fill="white"/>
<path d="M35.7258 31.1477C35.4225 30.8263 34.9306 30.8263 34.6272 31.1477L32.5621 33.3355L31.6018 32.3182C31.2985 31.9968 30.8066 31.9968 30.5031 32.3182C30.1998 32.6396 30.1998 33.1607 30.5031 33.4822L32.0127 35.0815C32.1644 35.2423 32.3632 35.3226 32.562 35.3226C32.7608 35.3226 32.9597 35.2423 33.1113 35.0815L35.7258 32.3117C36.0291 31.9903 36.0291 31.4691 35.7258 31.1477Z" fill="white"/>
<path d="M13.2368 5.66621C13.14 4.32729 12.0083 3.24801 10.6044 3.15571C9.80831 3.10348 9.04948 3.35959 8.46815 3.87714C7.89493 4.38742 7.56612 5.10892 7.56612 5.8565C7.5662 6.28784 7.93276 6.63742 8.38497 6.63742C8.83717 6.63742 9.20373 6.28784 9.20373 5.85658C9.20373 5.53557 9.33932 5.23807 9.58561 5.01881C9.83148 4.79986 10.1537 4.69117 10.4919 4.71381C11.0846 4.75277 11.5624 5.2084 11.6032 5.77365C11.6446 6.34515 11.2517 6.8502 10.6692 6.97451C10.0315 7.11053 9.58618 7.63924 9.58618 8.26017V8.67675C9.58618 9.10801 9.95274 9.4576 10.4049 9.4576C10.8572 9.4576 11.2237 9.10801 11.2237 8.67675V8.44953C12.4923 8.08862 13.3295 6.94804 13.2368 5.66621Z" fill="white"/>
<path d="M10.5346 11.5349C10.4173 11.4176 10.2545 11.3501 10.0886 11.3501C9.92209 11.3501 9.75996 11.4176 9.64262 11.5349C9.52465 11.6523 9.45778 11.815 9.45778 11.981C9.45778 12.1469 9.52465 12.3096 9.64262 12.427C9.75996 12.5443 9.92209 12.6118 10.0886 12.6118C10.2545 12.6118 10.4173 12.5443 10.5346 12.427C10.652 12.3096 10.7195 12.1469 10.7195 11.981C10.7195 11.815 10.652 11.6523 10.5346 11.5349Z" fill="white"/>
<path d="M9.27296 36.1385C9.15562 36.0211 8.99286 35.9536 8.82695 35.9536C8.66103 35.9536 8.49827 36.0211 8.38093 36.1385C8.26359 36.2558 8.19609 36.4186 8.19609 36.5845C8.19609 36.7504 8.26359 36.9131 8.38093 37.0305C8.49827 37.1478 8.66103 37.2153 8.82695 37.2153C8.99286 37.2153 9.15562 37.1478 9.27296 37.0305C9.3903 36.9131 9.4578 36.7504 9.4578 36.5845C9.4578 36.4186 9.3903 36.2558 9.27296 36.1385Z" fill="white"/>
</g>
</svg>
